<svg width="100%" height="100%" viewBox="0 0 16 16" fill="none" xmlns="http://www.w3.org/2000/svg">
<path d="M5 12.5C5 12.5 5 15.25 8 15.25C11 15.25 11 12.5 11 12.5M13.75 0.75C13.75 0.75 14.3981 0.89794 14.7501 1.24996C15.1021 1.60197 15.25 2.25 15.25 2.25M2.25 0.75C2.25 0.75 1.60193 0.89794 1.24992 1.24996C0.8979 1.60197 0.75 2.25 0.75 2.25M13.25 8V6C13.25 3.1005 10.8995 0.75 8 0.75C5.10051 0.75 2.75 3.10051 2.75 6V8L0.75 12.25H15.25L13.25 8Z" stroke="currentColor" stroke-opacity="0.8" stroke-width="1.5" stroke-linecap="round" stroke-linejoin="round"/>
</svg>
