<svg xmlns="http://www.w3.org/2000/svg" height="24" viewBox="0 -960 960 960" width="24" fill="currentColor">
  <path d="M291.5-468.5Q280-457 280-440v120q0 17 11.5 28.5T320-280q17 0 28.5-11.5T360-320v-120q0-17-11.5-28.5T320-480q-17 0-28.5 11.5Zm320-200Q600-657 600-640v320q0 17 11.5 28.5T640-280q17 0 28.5-11.5T680-320v-320q0-17-11.5-28.5T640-680q-17 0-28.5 11.5Zm-160 280Q440-377 440-360v40q0 17 11.5 28.5T480-280q17 0 28.5-11.5T520-320v-40q0-17-11.5-28.5T480-400q-17 0-28.5 11.5ZM200-120q-33 0-56.5-23.5T120-200v-560q0-33 23.5-56.5T200-840h560q33 0 56.5 23.5T840-760v560q0 33-23.5 56.5T760-120H200Zm0-80h560v-560H200v560Zm0-560v560-560Zm308.5 268.5Q520-503 520-520t-11.5-28.5Q497-560 480-560t-28.5 11.5Q440-537 440-520t11.5 28.5Q463-480 480-480t28.5-11.5Z"/>
</svg>
