<svg width="100%" height="100%" viewBox="0 0 12 13" fill="none" xmlns="http://www.w3.org/2000/svg">
<path d="M5.99245 1.00002C5.72568 1.00488 5.51302 1.21621 5.51679 1.47368L5.51679 10.6081L1.83233 7.05075C1.71027 6.9293 1.53033 6.88072 1.36171 6.92322C1.19183 6.96573 1.05971 7.09326 1.01566 7.25722C0.971621 7.41996 1.02196 7.59364 1.14779 7.71145L5.65773 12.0643C5.84648 12.2452 6.15352 12.2452 6.34227 12.0643L10.8522 7.71145C10.978 7.59364 11.0284 7.41996 10.9843 7.25722C10.9403 7.09326 10.8082 6.96573 10.6383 6.92322C10.4697 6.88072 10.2897 6.9293 10.1677 7.05075L6.48321 10.6081L6.48321 1.47368C6.48447 1.34737 6.43413 1.22592 6.34101 1.13726C6.24915 1.04739 6.12332 0.998808 5.99245 1.00002Z" fill="currentColor" stroke="currentColor" stroke-width="0.8" stroke-linecap="round" stroke-linejoin="round"/>
</svg>
