<svg width="13" height="12" viewBox="0 0 13 12" fill="none" xmlns="http://www.w3.org/2000/svg">
<path d="M0.403342 6.00608C0.408201 6.26218 0.619527 6.46633 0.877004 6.46271L10.0114 6.46271L6.45407 9.99979C6.33262 10.117 6.28404 10.2897 6.32654 10.4516C6.36905 10.6147 6.49658 10.7415 6.66054 10.7838C6.82328 10.8261 6.99696 10.7778 7.11477 10.6569L11.4676 6.32741C11.6486 6.14621 11.6486 5.85145 11.4676 5.67025L7.11477 1.34071C6.99696 1.21991 6.82328 1.17158 6.66054 1.21387C6.49658 1.25615 6.36905 1.38299 6.32654 1.54607C6.28404 1.70795 6.33262 1.88069 6.45407 1.99787L10.0114 5.53495L0.877004 5.53495C0.750694 5.53374 0.629243 5.58206 0.540583 5.67146C0.450709 5.75964 0.402128 5.88044 0.403342 6.00608Z" fill="currentColor" stroke="currentColor" stroke-width="0.8" stroke-linecap="round" stroke-linejoin="round"/>
</svg>
