<svg width="100%" height="100%" viewBox="0 0 16 16" fill="none" xmlns="http://www.w3.org/2000/svg">
  <rect width="100%" height="100%" rx="8" fill="currentColor" fill-opacity="0.25" />
  <path
    d="M5.64011 5.64507C5.54783 5.74143 5.56159 5.90556 5.6713 6.0126L9.51593 9.85724L6.71602 9.66262C6.62174 9.65466 6.53768 9.69783 6.49595 9.77534C6.45378 9.85329 6.46074 9.95368 6.51418 10.0383C6.56711 10.1223 6.658 10.1776 6.75208 10.1827L10.1787 10.4203C10.3216 10.4298 10.4301 10.3212 10.4207 10.1783L10.1831 6.7517C10.178 6.65763 10.1227 6.56673 10.0386 6.5138C9.95406 6.46036 9.85367 6.4534 9.77572 6.49557C9.69821 6.5373 9.65504 6.62137 9.663 6.71564L9.85761 9.51556L6.01298 5.67092C5.96026 5.61731 5.89135 5.58399 5.82111 5.5796C5.7508 5.57425 5.68586 5.59829 5.64011 5.64507Z"
    fill="currentColor" stroke="currentColor" stroke-linecap="round" stroke-linejoin="round" />
</svg>