<svg xmlns="http://www.w3.org/2000/svg" width="20" height="20" viewBox="0 0 20 20" fill="currentColor">
<path d="M0.799804 10C0.799805 15.0766 4.92324 19.2 9.9998 19.2C15.0764 19.2 19.1998 15.0766 19.1998 10C19.1998 4.92345 15.0764 0.800012 9.9998 0.800012C4.92324 0.800012 0.799804 4.92345 0.799804 10ZM1.5998 10C1.5998 5.35626 5.35605 1.60001 9.9998 1.60001C14.6436 1.60001 18.3998 5.35626 18.3998 10C18.3998 14.6438 14.6436 18.4 9.9998 18.4C5.35605 18.4 1.5998 14.6438 1.5998 10ZM4.7873 10.0375C4.79043 10.0547 4.79512 10.0719 4.7998 10.0875C4.84199 10.2734 5.00918 10.4047 5.1998 10.4L13.8248 10.4L11.3123 12.9125C11.2123 13.0094 11.1701 13.1516 11.1998 13.2875C11.2264 13.4375 11.3357 13.5578 11.4811 13.6C11.6279 13.6422 11.7842 13.5984 11.8873 13.4875L15.0248 10.3375C15.0373 10.3297 15.0498 10.3219 15.0623 10.3125L15.0873 10.2875C15.0967 10.2797 15.1045 10.2719 15.1123 10.2625C15.1123 10.2578 15.1123 10.2547 15.1123 10.25C15.1373 10.2234 15.1576 10.1938 15.1748 10.1625C15.1748 10.1578 15.1748 10.1547 15.1748 10.15C15.1795 10.1422 15.1842 10.1328 15.1873 10.125C15.1873 10.1203 15.1873 10.1172 15.1873 10.1125C15.192 10.1 15.1967 10.0875 15.1998 10.075C15.2061 10.0328 15.2061 9.9922 15.1998 9.95001C15.1998 9.9422 15.1998 9.93282 15.1998 9.92501C15.192 9.89064 15.1795 9.85626 15.1623 9.82501C15.1357 9.77189 15.0967 9.72501 15.0498 9.68751L11.8873 6.51251C11.7279 6.35314 11.4717 6.35314 11.3123 6.51251C11.1529 6.67189 11.1529 6.92814 11.3123 7.08751L13.8248 9.60001L5.1998 9.60001C5.08418 9.59532 4.97324 9.6422 4.89512 9.72501C4.81543 9.80939 4.77637 9.92345 4.7873 10.0375Z"  />
</svg>