<svg width="100%" height="100%" viewBox="0 0 19 20" fill="none" xmlns="http://www.w3.org/2000/svg">
<path d="M9.35307 0.00903974C5.20872 0.201353 2.03074 3.76395 2.03074 7.88427V11.6151L0.670126 14.346C0.670126 14.3508 0.665319 14.3556 0.665319 14.3604C0.117225 15.5239 1.00187 16.923 2.29037 16.923H6.64626C6.64626 18.6105 8.03092 20 9.72327 20C11.4156 20 12.8003 18.6105 12.8003 16.923H17.1562C18.4447 16.923 19.3293 15.5239 18.7812 14.3604C18.7812 14.3556 18.7764 14.3508 18.7764 14.346L17.4158 11.6151V7.69195C17.4158 3.32644 13.757 -0.202505 9.35307 0.00903974ZM9.42519 1.54274C12.9734 1.37446 15.8773 4.18224 15.8773 7.69195V11.793C15.8773 11.9132 15.9061 12.0286 15.959 12.1344L17.3918 15.0191C17.4831 15.2162 17.3773 15.3845 17.1562 15.3845H2.29037C2.06921 15.3845 1.96343 15.2162 2.05478 15.0191L3.48752 12.1344C3.5404 12.0286 3.56925 11.9132 3.56925 11.793V7.88427C3.56925 4.55244 6.12221 1.69659 9.42519 1.54274ZM8.18477 16.923H11.2618C11.2618 17.7788 10.5839 18.4615 9.72327 18.4615C8.86267 18.4615 8.18477 17.7788 8.18477 16.923Z" fill="currentColor"/>
</svg>
