<svg xmlns="http://www.w3.org/2000/svg" width="72" height="32" viewBox="0 0 72 32" fill="none">
  <g opacity="0.75">
    <path opacity="0.55" d="M0 32H72V31H0V32Z" fill="white" fill-opacity="0.25"/>
    <path d="M18 7.92491C18 7.11506 18.9123 6.6411 19.5749 7.10672L52.4126 30.1818C53.2118 30.7434 52.8144 32 51.8376 32H19C18.4477 32 18 31.5523 18 31V7.92491Z" fill="url(#paint0_radial_10937_170165)" fill-opacity="0.35"/>
    <path d="M36.5 32C36.7761 32 37 31.7761 37 31.5L37 7.5C37 7.22386 36.7761 7 36.5 7V7C36.2239 7 36 7.22386 36 7.5L36 31.5C36 31.7761 36.2239 32 36.5 32V32Z" fill="url(#paint1_linear_10937_170165)"/>
    <path d="M38.7682 5.27813C38.918 5.09842 39 4.87189 39 4.63795L39 2C39 0.89543 38.1046 -3.91405e-08 37 -8.74228e-08L36 -1.31134e-07C34.8954 -1.79416e-07 34 0.89543 34 2L34 4.63795C34 4.87189 34.082 5.09842 34.2318 5.27813L35.7318 7.07814C36.1316 7.55789 36.8684 7.55789 37.2682 7.07813L38.7682 5.27813Z" fill="var(--buy)"/>
  </g>
  <defs>
    <radialGradient id="paint0_radial_10937_170165" cx="0" cy="0" r="1" gradientUnits="userSpaceOnUse" gradientTransform="translate(18.6167 8.5) rotate(38.4467) scale(37.7943 26.3617)">
    <stop stop-color="var(--buy)"/>
    <stop offset="1" stop-color="var(--buy)" stop-opacity="0.2"/>
    </radialGradient>
    <linearGradient id="paint1_linear_10937_170165" x1="36.0001" y1="7.76087" x2="36.0001" y2="28" gradientUnits="userSpaceOnUse">
    <stop stop-color="var(--buy)"/>
    <stop offset="1" stop-color="var(--buy)" stop-opacity="0.3"/>
    </linearGradient>
  </defs>
</svg>