<svg xmlns="http://www.w3.org/2000/svg" width="72" height="32" viewBox="0 0 72 32" fill="none">
  <g opacity="0.75">
    <path opacity="0.55" d="M0 32H72V31H0V32Z" fill="white" fill-opacity="0.25"/>
    <path d="M18 7.92491C18 7.11506 18.9123 6.6411 19.5749 7.10672L52.4126 30.1818C53.2118 30.7434 52.8144 32 51.8376 32H19C18.4477 32 18 31.5523 18 31V7.92491Z" fill="url(#paint0_radial_10937_170166)" fill-opacity="0.35"/>
    <rect width="10" height="27" transform="matrix(-1 0 0 1 42 5)" fill="url(#paint1_linear_10937_170166)" fill-opacity="0.25"/>
    <path d="M42.5 32C42.7761 32 43 31.7761 43 31.5L43 7.5C43 7.22386 42.7761 7 42.5 7V7C42.2239 7 42 7.22386 42 7.5L42 31.5C42 31.7761 42.2239 32 42.5 32V32Z" fill="url(#paint2_linear_10937_170166)"/>
    <path d="M31.5 32C31.7761 32 32 31.7761 32 31.5L32 7.5C32 7.22386 31.7761 7 31.5 7V7C31.2239 7 31 7.22386 31 7.5L31 31.5C31 31.7761 31.2239 32 31.5 32V32Z" fill="url(#paint3_linear_10937_170166)"/>
    <path d="M44.7682 5.27813C44.918 5.09842 45 4.87189 45 4.63795L45 2C45 0.89543 44.1046 -3.91405e-08 43 -8.74228e-08L42 -1.31134e-07C40.8954 -1.79416e-07 40 0.89543 40 2L40 4.63795C40 4.87189 40.082 5.09842 40.2318 5.27813L41.7318 7.07814C42.1316 7.55789 42.8684 7.55789 43.2682 7.07813L44.7682 5.27813Z" fill="var(--buy)"/>
    <path d="M33.7682 5.27813C33.918 5.09842 34 4.87189 34 4.63795L34 2C34 0.89543 33.1046 -3.91405e-08 32 -8.74228e-08L31 -1.31134e-07C29.8954 -1.79416e-07 29 0.89543 29 2L29 4.63795C29 4.87189 29.082 5.09842 29.2318 5.27813L30.7318 7.07814C31.1316 7.55789 31.8684 7.55789 32.2682 7.07813L33.7682 5.27813Z" fill="var(--buy)"/>
  </g>
  <defs>
    <radialGradient id="paint0_radial_10937_170166" cx="0" cy="0" r="1" gradientUnits="userSpaceOnUse" gradientTransform="translate(18.6167 8.5) rotate(38.4467) scale(37.7943 26.3617)">
    <stop stop-color="var(--buy)"/>
    <stop offset="1" stop-color="var(--buy)" stop-opacity="0.2"/>
    </radialGradient>
    <linearGradient id="paint1_linear_10937_170166" x1="5" y1="0" x2="5" y2="27" gradientUnits="userSpaceOnUse">
    <stop stop-color="var(--buy)"/>
    <stop offset="1" stop-color="var(--buy)" stop-opacity="0.3"/>
    </linearGradient>
    <linearGradient id="paint2_linear_10937_170166" x1="42.0001" y1="7.76087" x2="42.0001" y2="28" gradientUnits="userSpaceOnUse">
    <stop stop-color="var(--buy)"/>
    <stop offset="1" stop-color="var(--buy)" stop-opacity="0.3"/>
    </linearGradient>
    <linearGradient id="paint3_linear_10937_170166" x1="31.0001" y1="7.76087" x2="31.0001" y2="28" gradientUnits="userSpaceOnUse">
    <stop stop-color="var(--buy)"/>
    <stop offset="1" stop-color="var(--buy)" stop-opacity="0.3"/>
    </linearGradient>
  </defs>
</svg>