<svg xmlns="http://www.w3.org/2000/svg" width="20" height="20" viewBox="0 0 20 20" fill="none">
<path d="M3.39751 2C3.17226 2 3 2.17226 3 2.39751C3 2.62277 3.17226 2.79503 3.39751 2.79503H4.32505V12.6004C4.32505 13.3292 4.92132 13.9254 5.6501 13.9254H12.2753C12.5006 13.9254 12.6729 13.7532 12.6729 13.5279C12.6729 13.3027 12.5006 13.1304 12.2753 13.1304H5.6501C5.35859 13.1304 5.12008 12.8919 5.12008 12.6004V4.12008H16.6879C16.8601 4.12008 17.019 4.19948 17.1118 4.34523C17.2178 4.49099 17.2443 4.66345 17.178 4.82246L15.3628 10.2816C15.164 10.8778 14.6207 11.2753 13.9847 11.2753H6.57763C6.35237 11.2753 6.18012 11.4476 6.18012 11.6729C6.18012 11.8981 6.35237 12.0704 6.57763 12.0704H13.9847C14.952 12.0704 15.8132 11.4476 16.118 10.5334L17.9332 5.07401C18.0657 4.66324 17.9997 4.22598 17.7479 3.88147C17.4961 3.53695 17.0984 3.32505 16.6744 3.32505H5.12008V2.39751C5.12008 2.17226 4.94782 2 4.72256 2H3.39751ZM5.6501 14.7205C4.92132 14.7205 4.32505 15.3167 4.32505 16.0455C4.32505 16.7743 4.92132 17.3706 5.6501 17.3706C6.37887 17.3706 6.97515 16.7743 6.97515 16.0455C6.97515 15.3167 6.37887 14.7205 5.6501 14.7205ZM12.2753 14.7205C11.5466 14.7205 10.9503 15.3167 10.9503 16.0455C10.9503 16.7743 11.5466 17.3706 12.2753 17.3706C13.0041 17.3706 13.6004 16.7743 13.6004 16.0455C13.6004 15.3167 13.0041 14.7205 12.2753 14.7205ZM5.6501 15.5155C5.94161 15.5155 6.18012 15.754 6.18012 16.0455C6.18012 16.337 5.94161 16.5755 5.6501 16.5755C5.35859 16.5755 5.12008 16.337 5.12008 16.0455C5.12008 15.754 5.35859 15.5155 5.6501 15.5155ZM12.2753 15.5155C12.5669 15.5155 12.8054 15.754 12.8054 16.0455C12.8054 16.337 12.5669 16.5755 12.2753 16.5755C11.9838 16.5755 11.7453 16.337 11.7453 16.0455C11.7453 15.754 11.9838 15.5155 12.2753 15.5155Z" fill="currentcolor" stroke="currentcolor" stroke-width="0.5"/>
</svg>