<svg xmlns="http://www.w3.org/2000/svg" width="20" height="20" viewBox="0 0 20 20" fill="none">
<g clip-path="url(#clip0_18456_110183)">
<path d="M0.397515 4C0.172256 4 0 4.17226 0 4.39751C0 4.62277 0.172256 4.79503 0.397515 4.79503H1.32505V14.6004C1.32505 15.3292 1.92132 15.9254 2.6501 15.9254H9.27534C9.5006 15.9254 9.67285 15.7532 9.67285 15.5279C9.67285 15.3027 9.5006 15.1304 9.27534 15.1304H2.6501C2.35859 15.1304 2.12008 14.8919 2.12008 14.6004V6.12008H13.6879C13.8601 6.12008 14.019 6.19948 14.1118 6.34523C14.2178 6.49099 14.2443 6.66345 14.178 6.82246L12.3628 12.2816C12.164 12.8778 11.6207 13.2753 10.9847 13.2753H3.57763C3.35237 13.2753 3.18012 13.4476 3.18012 13.6729C3.18012 13.8981 3.35237 14.0704 3.57763 14.0704H10.9847C11.952 14.0704 12.8132 13.4476 13.118 12.5334L14.9332 7.07401C15.0657 6.66324 14.9997 6.22598 14.7479 5.88147C14.4961 5.53695 14.0984 5.32505 13.6744 5.32505H2.12008V4.39751C2.12008 4.17226 1.94782 4 1.72256 4H0.397515ZM2.6501 16.7205C1.92132 16.7205 1.32505 17.3167 1.32505 18.0455C1.32505 18.7743 1.92132 19.3706 2.6501 19.3706C3.37887 19.3706 3.97515 18.7743 3.97515 18.0455C3.97515 17.3167 3.37887 16.7205 2.6501 16.7205ZM9.27534 16.7205C8.54656 16.7205 7.95029 17.3167 7.95029 18.0455C7.95029 18.7743 8.54656 19.3706 9.27534 19.3706C10.0041 19.3706 10.6004 18.7743 10.6004 18.0455C10.6004 17.3167 10.0041 16.7205 9.27534 16.7205ZM2.6501 17.5155C2.94161 17.5155 3.18012 17.754 3.18012 18.0455C3.18012 18.337 2.94161 18.5755 2.6501 18.5755C2.35859 18.5755 2.12008 18.337 2.12008 18.0455C2.12008 17.754 2.35859 17.5155 2.6501 17.5155ZM9.27534 17.5155C9.56685 17.5155 9.80536 17.754 9.80536 18.0455C9.80536 18.337 9.56685 18.5755 9.27534 18.5755C8.98383 18.5755 8.74532 18.337 8.74532 18.0455C8.74532 17.754 8.98383 17.5155 9.27534 17.5155Z" fill="white" stroke="white" stroke-width="0.5"/>
<path d="M15.16 3H14.064L14.624 2.32H15.848V8H15.16V3Z" fill="black"/>
</g>
<defs>
<clipPath id="clip0_18456_110183">
<rect width="20" height="20" fill="white"/>
</clipPath>
</defs>
</svg>