<svg xmlns="http://www.w3.org/2000/svg" width="50" height="50" viewBox="0 0 50 50" fill="currentColor">
  <path d="M38.9999 2.00586C36.6952 2.00586 34.3897 2.88272 32.6347 4.63672L27.6347 9.63672C26.6187 10.6537 25.9054 11.8577 25.4784 13.1367C26.3074 12.6527 27.2091 12.3136 28.1581 12.1406C28.4131 11.7546 28.7117 11.3898 29.0507 11.0508L34.0507 6.05078C35.4157 4.68678 37.2069 4.00391 38.9999 4.00391C40.7929 4.00391 42.5841 4.68678 43.9491 6.05078C46.6781 8.77978 46.6781 13.2202 43.9491 15.9492L38.9491 20.9492C36.2191 23.6782 31.7787 23.6782 29.0507 20.9492C28.4707 20.3692 28.0263 19.7098 27.6933 19.0078L26.2109 20.4883C26.5959 21.1573 27.0656 21.7913 27.6366 22.3633C29.3916 24.1173 31.6959 24.9941 33.9999 24.9941C36.3039 24.9941 38.6082 24.1173 40.3632 22.3633L45.3632 17.3633C48.8722 13.8533 48.8722 8.14672 45.3632 4.63672C43.6082 2.88272 41.3047 2.00586 38.9999 2.00586ZM29.6679 14C27.9769 14 26.3844 14.6585 25.1874 15.8535L15.8554 25.1875C13.3854 27.6575 13.3854 31.6745 15.8554 34.1445C17.0894 35.3785 18.7109 35.9961 20.3339 35.9961C20.4149 35.9961 20.497 35.9874 20.578 35.9844C20.86 35.3314 20.9991 34.6336 20.9901 33.9336C19.6721 34.1346 18.2824 33.7425 17.2694 32.7305C15.5804 31.0415 15.5804 28.2906 17.2694 26.6016L26.6015 17.2695C27.4205 16.4515 28.5109 16 29.6679 16C30.8249 16 31.9124 16.4505 32.7304 17.2695C33.5484 18.0885 33.9999 19.175 33.9999 20.332C33.9999 20.556 33.9685 20.7732 33.9355 20.9902C33.9575 20.9902 33.9789 20.9961 33.9999 20.9961C34.6969 20.9961 35.3682 20.8481 35.9882 20.5801C35.9912 20.4971 35.9999 20.415 35.9999 20.332C35.9999 18.641 35.3404 17.0525 34.1444 15.8555C32.9474 14.6595 31.3589 14 29.6679 14ZM13.123 25.4941C11.85 25.9211 10.6496 26.6237 9.63663 27.6367L4.63663 32.6367C1.12763 36.1467 1.12763 41.8552 4.63663 45.3652C6.39163 47.1192 8.69591 47.9961 10.9999 47.9961C13.3039 47.9961 15.6082 47.1192 17.3632 45.3652L22.3632 40.3652C25.8722 36.8542 25.8722 31.1467 22.3632 27.6367C21.7912 27.0657 21.1572 26.5959 20.4882 26.2109L19.0116 27.6895C19.7126 28.0225 20.3701 28.4718 20.9491 29.0508C23.6781 31.7798 23.6781 36.2202 20.9491 38.9492L15.9491 43.9492C13.2191 46.6782 8.7787 46.6782 6.0507 43.9492C3.3217 41.2202 3.3217 36.7798 6.0507 34.0508L11.0507 29.0508C11.3927 28.7098 11.7594 28.4103 12.1484 28.1543C12.3164 27.2303 12.641 26.3291 13.123 25.4941ZM29.9198 26.207L26.1972 29.9297C26.4822 30.6457 26.6922 31.3857 26.8202 32.1367L32.1269 26.8281C31.3679 26.6981 30.6278 26.492 29.9198 26.207Z"/>
</svg>