<svg xmlns="http://www.w3.org/2000/svg"  viewBox="0 0 272 272" fill="currentColor">
<path d="M122.213 141.416V54.3172H149.371V130.17L186.13 166.93L166.929 186.132L122.213 141.416Z"/>
<path d="M33.5414 47.1208C58.4367 18.4063 94.8955 0 135.792 0C210.673 0 271.585 60.9123 271.585 135.793C271.585 210.673 210.673 271.586 135.792 271.586C60.9121 271.586 0 210.673 0 135.793H27.1585C27.1585 195.697 75.8881 244.427 135.792 244.427C195.697 244.427 244.426 195.697 244.426 135.793C244.426 75.8884 195.697 27.1586 135.792 27.1586C102.375 27.1586 72.5817 42.4353 52.6372 66.2167L81.4754 95.055H0V13.5793L33.5414 47.1208Z"/>
</svg>