<svg width="100%" height="100%" viewBox="0 0 20 20" fill="none" xmlns="http://www.w3.org/2000/svg">
<path d="M2.08145 13.6778L3.44796 13.8919C4.45672 14.0498 5.17713 14.9737 5.10283 16.0146L5.00216 17.4254C4.97283 17.8365 5.19179 18.2234 5.55443 18.4024L6.56514 18.9003C6.92778 19.0793 7.36081 19.0123 7.65702 18.7334L8.67259 17.7735C9.42139 17.0656 10.5767 17.0656 11.3264 17.7735L12.342 18.7334C12.6382 19.0134 13.0703 19.0793 13.4339 18.9003L14.4465 18.4014C14.8082 18.2234 15.0262 17.8375 14.9969 17.4276L14.8961 16.0146C14.8219 14.9737 15.5423 14.0498 16.551 13.8919L17.9175 13.6778C18.3154 13.6159 18.636 13.3109 18.7259 12.9089L18.9752 11.7911C19.0652 11.3891 18.9058 10.9721 18.5735 10.7401L17.4328 9.94116C16.5911 9.35126 16.334 8.19938 16.8424 7.29443L17.5314 6.06854C17.7318 5.71157 17.6987 5.26461 17.4474 4.94265L16.7485 4.04573C16.4973 3.72375 16.0789 3.59077 15.6938 3.71176L14.3723 4.12572C13.3958 4.43169 12.3548 3.91873 11.9794 2.94783L11.473 1.63494C11.3244 1.25098 10.9618 0.99901 10.5581 1L9.4379 1.00301C9.03421 1.004 8.67259 1.25799 8.52599 1.64295L8.03229 2.94083C7.66087 3.91774 6.61499 4.43469 5.63556 4.12672L4.25928 3.69477C3.87317 3.57277 3.45285 3.70676 3.20165 4.03073L2.50763 4.92865C2.25642 5.25362 2.22612 5.70158 2.43041 6.05854L3.13517 7.28743C3.65422 8.1933 3.40007 9.35623 2.55357 9.94923L1.42654 10.7391C1.09419 10.9721 0.934875 11.3891 1.0248 11.7901L1.27406 12.9079C1.363 13.3109 1.68361 13.6159 2.08145 13.6778Z" stroke="currentColor" stroke-width="2" stroke-linecap="round" stroke-linejoin="round"/>
<path d="M11.9753 8.02498C13.0659 9.11566 13.0659 10.8846 11.9753 11.9753C10.8846 13.0659 9.11566 13.0659 8.02498 11.9753C6.93438 10.8846 6.93438 9.11566 8.02498 8.02498C9.11566 6.93438 10.8846 6.93438 11.9753 8.02498Z" stroke="currentColor" stroke-width="2" stroke-linecap="round" stroke-linejoin="round"/>
</svg>
