<svg width="8" height="8" viewBox="0 0 8 8" fill="none" xmlns="http://www.w3.org/2000/svg">
  <path d="M5.04711 2.37732C5.03826 2.3515 5.0282 2.32689 5.01644 2.30362C5.03196 2.33005 5.04202 2.35477 5.04711 2.37732Z" fill="currentColor" fill-opacity="0.6"/>
  <path d="M3.98194 3.93822e-05C1.77291 0.0101008 -0.00977861 1.80879 4.03678e-05 4.01806C0.0101018 6.22709 1.80904 8.00978 4.01806 7.99996C6.22709 7.9899 8.00978 6.19121 7.99996 3.98218C7.9899 1.77291 6.19121 -0.00965837 3.98194 3.93822e-05ZM3.47559 3.80386C3.08041 3.80386 2.76014 3.48384 2.76014 3.08877C2.76014 2.69395 3.08041 2.37369 3.47559 2.37369C3.87041 2.37369 4.19068 2.69395 4.19068 3.08877C4.19068 3.48396 3.87041 3.80386 3.47559 3.80386ZM4.04582 4.57689L4.04958 4.57229L4.05358 4.56768C4.25772 4.69933 4.49059 4.74576 4.72345 4.75267C4.95656 4.75873 5.19404 4.74115 5.42763 4.69412C5.66098 4.64563 5.89046 4.57399 6.11205 4.48246C6.23654 4.43119 6.36007 4.37518 6.4779 4.30924C6.47875 4.30863 6.47935 4.30839 6.4802 4.30778C6.55366 4.26366 6.6253 4.21723 6.69549 4.16935C6.71064 4.15844 6.72555 4.14704 6.74022 4.13528L6.74192 4.13734L6.74798 4.1445C6.56821 4.30827 6.35401 4.42985 6.13605 4.53701C5.91579 4.64078 5.6862 4.72563 5.44909 4.78709C5.21283 4.84819 4.9659 4.89438 4.71618 4.87171C4.47058 4.84989 4.21129 4.76394 4.04582 4.57689ZM5.88124 3.80386C5.881 3.71816 5.9501 3.6487 6.03556 3.64821C6.12126 3.64797 6.19072 3.7167 6.19121 3.80253C6.19145 3.88799 6.12235 3.95794 6.03689 3.95818C5.95155 3.95842 5.88185 3.88932 5.88124 3.80386ZM4.65605 7.64041C4.5015 6.55802 5.4469 5.49794 5.97992 4.95535C6.1009 4.83231 6.28782 4.66284 6.4619 4.48283C7.15383 3.83599 7.29142 3.06295 5.87555 2.67638C5.60716 2.59867 5.32908 2.4886 5.04711 2.37732C5.03826 2.3515 5.0282 2.32689 5.01644 2.30362C4.98408 2.24798 4.92759 2.18373 4.84176 2.11088C4.65763 1.95111 4.3119 1.95547 4.01333 2.02602C3.68325 1.94832 3.35752 1.9208 3.04477 1.99559C1.67533 2.37296 1.45507 3.04101 1.40173 3.84568C1.32924 4.71533 1.28669 5.36338 0.957572 6.10405C0.54663 5.51139 0.304429 4.79255 0.301277 4.01661C0.292185 1.9739 1.94068 0.31061 3.98339 0.301397C6.0261 0.292184 7.68951 1.94068 7.6986 3.98339C7.70697 5.8079 6.39219 7.33021 4.65605 7.64041Z" fill="currentColor" fill-opacity="0.6"/>
  <path d="M3.97854 3.09532C3.97854 3.37316 3.75319 3.59827 3.47559 3.59827C3.19775 3.59827 2.9724 3.37316 2.9724 3.09532C2.9724 2.81748 3.19775 2.59237 3.47559 2.59237C3.75307 2.59249 3.97854 2.81748 3.97854 3.09532Z" fill="currentColor" fill-opacity="0.6"/>
</svg> 