<svg width="100%" height="100%" viewBox="0 0 59 30" fill="none" xmlns="http://www.w3.org/2000/svg">
<path d="M0 8.37992C0 6.66607 2.01472 5.74609 3.30986 6.86855L25.9484 26.4886C27.3475 27.7012 26.49 30 24.6385 30H2C0.89543 30 0 29.1046 0 28V8.37992Z" fill="url(#paint0_radial_4772_92042)" fill-opacity="0.35"/>
<path d="M59 8.37992C59 6.66607 56.9853 5.74609 55.6901 6.86855L33.0516 26.4886C31.6525 27.7012 32.51 30 34.3615 30H57C58.1046 30 59 29.1046 59 28V8.37992Z" fill="url(#paint1_radial_4772_92042)" fill-opacity="0.35"/>
<path d="M30 1V13M36 7H24" stroke="url(#paint2_linear_4772_92042)" stroke-width="2" stroke-linecap="round" stroke-linejoin="round"/>
<defs>
<radialGradient id="paint0_radial_4772_92042" cx="0" cy="0" r="1" gradientUnits="userSpaceOnUse" gradientTransform="translate(0.500001 6.5) rotate(44.3969) scale(33.5894 24.0501)">
<stop stop-color="var(--buy)"/>
<stop offset="1" stop-color="var(--buy)" stop-opacity="0.2"/>
</radialGradient>
<radialGradient id="paint1_radial_4772_92042" cx="0" cy="0" r="1" gradientUnits="userSpaceOnUse" gradientTransform="translate(60.5 4) rotate(136.606) scale(37.8451 27.5747)">
<stop stop-color="var(--sell)"/>
<stop offset="1" stop-color="var(--sell)" stop-opacity="0.2"/>
</radialGradient>
<linearGradient id="paint2_linear_4772_92042" x1="49.3846" y1="-13.3077" x2="17.5" y2="21.5" gradientUnits="userSpaceOnUse">
<stop stop-color="currentColor" stop-opacity="0"/>
<stop offset="1" stop-color="currentColor"/>
</linearGradient>
</defs>
</svg>
