<svg width="16" height="16" viewBox="0 0 16 16" fill="none" xmlns="http://www.w3.org/2000/svg">
    <path
        d="M5.93103 10.16L13 4.22M5.93103 5.84L13 11.06M6.10345 5.12C6.10345 6.0147 5.40872 6.74 4.55172 6.74C3.69473 6.74 3 6.0147 3 5.12C3 4.2253 3.69473 3.5 4.55172 3.5C5.40872 3.5 6.10345 4.2253 6.10345 5.12ZM6.10345 10.88C6.10345 11.7747 5.40872 12.5 4.55172 12.5C3.69473 12.5 3 11.7747 3 10.88C3 9.98533 3.69473 9.26 4.55172 9.26C5.40872 9.26 6.10345 9.98533 6.10345 10.88Z"
        stroke="currentcolor" stroke-width="1.5" stroke-linecap="round" stroke-linejoin="round" />
</svg>