<svg viewBox="0 0 20 20" fill="none" xmlns="http://www.w3.org/2000/svg">
  <path d="M9.99434 3.15822C9.79426 3.16229 9.63476 3.33918 9.63759 3.5547V11.2007L6.87425 8.223C6.78271 8.12134 6.64775 8.08068 6.52128 8.11626C6.39387 8.15184 6.29478 8.25859 6.26175 8.39583C6.22872 8.53206 6.26647 8.67743 6.36084 8.77604L9.7433 12.4196C9.88486 12.5711 10.1151 12.5711 10.2567 12.4196L13.6392 8.77604C13.7335 8.67743 13.7713 8.53206 13.7383 8.39583C13.7052 8.25859 13.6061 8.15184 13.4787 8.11626C13.3523 8.08068 13.2173 8.12134 13.1257 8.223L10.3624 11.2007V3.5547C10.3633 3.44897 10.3256 3.34731 10.2558 3.2731C10.1869 3.19787 10.0925 3.15721 9.99434 3.15822Z" fill="currentColor" stroke="currentColor" stroke-width="0.625" stroke-linecap="round" stroke-linejoin="round"/>
  <path d="M4.375 16.5625H15.625" stroke="currentColor" stroke-width="1.25" stroke-linecap="round"/>
</svg>