<svg width="105" height="105" viewBox="0 0 105 105" fill="none" xmlns="http://www.w3.org/2000/svg">
<path fill-rule="evenodd" clip-rule="evenodd" d="M19.6631 27.3744C19.6631 25.5499 21.1421 24.0708 22.9667 24.0708C24.7912 24.0708 26.2703 25.5499 26.2703 27.3744V45.521C26.2703 50.9193 30.6465 55.2956 36.0449 55.2956C41.4432 55.2956 45.8195 59.6718 45.8195 65.0702V76.8751C45.8195 82.2735 41.4432 86.6497 36.0449 86.6497H35.175C30.2571 86.6497 26.2703 90.6365 26.2703 95.5545V101.156C26.2703 102.98 24.7912 104.459 22.9667 104.459C21.1421 104.459 19.6631 102.98 19.6631 101.156V95.5545C19.6631 90.6365 15.6763 86.6497 10.7583 86.6497H10.3032C5.13391 86.6497 0.943359 82.4592 0.943359 77.2899V64.6554C0.943359 59.4861 5.13391 55.2956 10.3032 55.2956C15.4725 55.2956 19.6631 51.105 19.6631 45.9357V27.3744Z" fill="url(#paint0_linear_16275_80050)"/>
<path fill-rule="evenodd" clip-rule="evenodd" d="M79.1288 4.24892C79.1288 2.42439 80.6079 0.945312 82.4324 0.945312C84.257 0.945312 85.736 2.42438 85.736 4.24892V10.3056C85.736 15.4751 89.9268 19.6659 95.0963 19.6659H95.3399C100.644 19.6659 104.944 23.9657 104.944 29.2698V47.5032C104.944 52.8072 100.644 57.107 95.3399 57.107C90.0359 57.107 85.736 61.4068 85.736 66.7109V97.346C85.736 99.1705 84.257 100.65 82.4324 100.65C80.6079 100.65 79.1288 99.1705 79.1288 97.346V66.4669C79.1288 61.2976 74.9383 57.107 69.769 57.107C64.5997 57.107 60.4092 52.9165 60.4092 47.7472V29.0257C60.4092 23.8564 64.5997 19.6659 69.769 19.6659C74.9383 19.6659 79.1288 15.4753 79.1288 10.3061V4.24892Z" fill="url(#paint1_linear_16275_80050)"/>
<defs>
<linearGradient id="paint0_linear_16275_80050" x1="23.3596" y1="52.9733" x2="23.3596" y2="104.459" gradientUnits="userSpaceOnUse">
<stop stop-color="#67D79F"/>
<stop offset="1" stop-color="#10BBD8"/>
</linearGradient>
<linearGradient id="paint1_linear_16275_80050" x1="92.1219" y1="1.02293" x2="92.1219" y2="100.65" gradientUnits="userSpaceOnUse">
<stop stop-color="#10BBD8"/>
<stop offset="0.500712" stop-color="#67D79F"/>
<stop offset="1" stop-color="white"/>
</linearGradient>
</defs>
</svg>
