<svg viewBox="0 0 18 16" fill="currentColor" xmlns="http://www.w3.org/2000/svg">
    <path d="M12.138 10.5406L13.1035 9.63644C13.2544 9.49516 13.5169 9.59406 13.5169 9.7975V13.9059C13.5169 14.6547 12.8682 15.2622 12.0686 15.2622H1.44824C0.648689 15.2622 0 14.6547 0 13.9059V3.95978C0 3.21099 0.648689 2.60348 1.44824 2.60348H9.70017C9.91439 2.60348 10.023 2.84648 9.87215 2.99059L8.90665 3.89479C8.8614 3.93717 8.80105 3.95978 8.73468 3.95978H1.44824V13.9059H12.0686V10.6989C12.0686 10.6395 12.0928 10.583 12.138 10.5406ZM16.8629 4.83854L8.93984 12.2586L6.21233 12.5412C5.42183 12.6231 4.74901 11.9987 4.83651 11.2527L5.13822 8.69834L13.0613 1.27827C13.7522 0.631202 14.8686 0.631202 15.5565 1.27827L16.8599 2.49893C17.5508 3.146 17.5508 4.1943 16.8629 4.83854ZM13.882 5.71166L12.129 4.06998L6.5231 9.3228L6.30285 11.1679L8.27305 10.9617L13.882 5.71166ZM15.8371 3.45964L14.5337 2.23898C14.41 2.12313 14.2078 2.12313 14.0871 2.23898L13.1548 3.11209L14.9078 4.75378L15.8401 3.88066C15.9608 3.76198 15.9608 3.57549 15.8371 3.45964Z"/>
</svg>
