<svg width="48" height="48" viewBox="0 0 48 48" fill="none" xmlns="http://www.w3.org/2000/svg">
<path d="M9.5 20.5V11.5C9.5 10.3954 10.3954 9.5 11.5 9.5H18.5C19.6046 9.5 20.5 10.3954 20.5 11.5V20.5C20.5 21.6046 19.6046 22.5 18.5 22.5H11.5C10.3954 22.5 9.5 21.6046 9.5 20.5Z" stroke="currentColor" stroke-width="3" stroke-linecap="round" stroke-linejoin="round"/>
<path d="M9.5 36.5V31.5C9.5 30.3954 10.3954 29.5 11.5 29.5H18.5C19.6046 29.5 20.5 30.3954 20.5 31.5V36.5C20.5 37.6046 19.6046 38.5 18.5 38.5H11.5C10.3954 38.5 9.5 37.6046 9.5 36.5Z" stroke="currentColor" stroke-width="3" stroke-linecap="round" stroke-linejoin="round"/>
<path d="M27.5 12.5V11.5C27.5 10.3954 28.3954 9.5 29.5 9.5H36.5C37.6046 9.5 38.5 10.3954 38.5 11.5V12.5C38.5 13.6046 37.6046 14.5 36.5 14.5H29.5C28.3954 14.5 27.5 13.6046 27.5 12.5Z" stroke="currentColor" stroke-width="3" stroke-linecap="round" stroke-linejoin="round"/>
<path d="M27.5 36.5V23.5C27.5 22.3954 28.3954 21.5 29.5 21.5H36.5C37.6046 21.5 38.5 22.3954 38.5 23.5V36.5C38.5 37.6046 37.6046 38.5 36.5 38.5H29.5C28.3954 38.5 27.5 37.6046 27.5 36.5Z" stroke="currentColor" stroke-width="3" stroke-linecap="round" stroke-linejoin="round"/>
</svg>
