<svg xmlns="http://www.w3.org/2000/svg" width="16" height="16" viewBox="0 0 16 16" fill="none">
  <path d="M4.1661 1.417C4.03551 1.41957 3.90857 1.42729 3.78654 1.44043C3.23857 1.49949 2.84403 1.93493 2.76245 2.39682C2.68087 2.8587 2.90103 3.40117 3.39396 3.64682C4.40056 4.14834 6.15371 4.72653 9.31258 5.30632C9.25367 5.51684 9.06633 5.66635 8.83342 5.66635H7.50008H6.83342C3.81069 5.66635 1.33341 8.14362 1.33341 11.1663C1.33341 11.2421 1.34011 11.3163 1.34448 11.391C0.951199 11.5255 0.666748 11.8941 0.666748 12.333C0.666748 12.8853 1.11441 13.333 1.66675 13.333C1.78739 13.333 1.88401 13.3084 1.96623 13.2692C2.5582 14.1662 3.51653 14.7984 4.62508 14.9567C4.69064 14.9858 4.76169 15.0005 4.83342 14.9997H5.16675H10.1628H12.8334C13.4717 14.9997 14.0001 14.4713 14.0001 13.833C14.0001 13.3044 13.7731 12.8217 13.4122 12.4873C13.4042 12.4799 13.3959 12.4727 13.3875 12.4658L12.2755 11.5654C11.6274 11.0402 11.5249 10.097 12.0535 9.45866C12.7412 8.62809 13.1055 7.83564 13.2423 7.49838C13.6143 7.38169 13.9656 7.20823 14.2742 6.98731C14.8696 6.5611 15.3334 5.92659 15.3334 5.16635C15.3334 4.40611 14.8696 3.7716 14.2742 3.34538C13.6788 2.91917 12.9269 2.66635 12.1667 2.66635C11.4539 2.66635 10.7884 2.9057 10.2807 3.30437C9.52258 2.78764 8.42674 2.31904 7.27743 1.96517C6.18825 1.62982 5.08019 1.39902 4.1661 1.417ZM4.17782 2.41895C4.89453 2.41233 5.96176 2.60642 6.98315 2.9209C8.00392 3.23519 9.0036 3.67297 9.62378 4.06674C9.57752 4.14984 9.53649 4.23553 9.50073 4.3239C6.38892 3.75303 4.70444 3.18236 3.83993 2.75163C3.73419 2.69894 3.73332 2.64709 3.74683 2.57064C3.7603 2.49438 3.77704 2.44732 3.89331 2.43458C3.98024 2.42522 4.07543 2.4199 4.17782 2.41895ZM12.1667 3.66635C12.6953 3.66635 13.2764 3.86091 13.6921 4.15853C14.1079 4.45615 14.3334 4.82192 14.3334 5.16635C14.3334 5.51077 14.1079 5.87654 13.6921 6.17416C13.2764 6.47178 12.6953 6.66635 12.1667 6.66635H11.8334C11.7672 6.66541 11.7014 6.67765 11.6399 6.70236C11.5784 6.72706 11.5224 6.76374 11.4753 6.81027C11.4281 6.85679 11.3906 6.91222 11.365 6.97335C11.3395 7.03448 11.3263 7.10008 11.3263 7.16635C11.3263 7.23261 11.3395 7.29821 11.365 7.35934C11.3906 7.42047 11.4281 7.4759 11.4753 7.52243C11.5224 7.56895 11.5784 7.60563 11.6399 7.63034C11.7014 7.65504 11.7672 7.66728 11.8334 7.66635H12.058C11.887 7.98695 11.6388 8.39136 11.2833 8.82064C10.4025 9.88434 10.5773 11.4761 11.6459 12.3421L12.7332 13.2223C12.8976 13.3752 13.0001 13.5888 13.0001 13.833C13.0001 13.9314 12.9318 13.9997 12.8334 13.9997H11.3158C11.3243 13.9436 11.3334 13.8874 11.3334 13.8291C11.3334 13.2492 10.9329 12.8217 10.4792 12.5361C10.0256 12.2506 9.46693 12.0687 8.89006 12.0029C8.66342 11.9771 8.39308 11.9805 8.12573 11.9854C8.05239 11.9867 8.02416 11.9875 7.95516 11.9893C7.70916 10.4876 6.40233 9.33301 4.83342 9.33301H4.50008C4.43383 9.33208 4.36804 9.34432 4.30656 9.36902C4.24508 9.39373 4.18912 9.43041 4.14193 9.47693C4.09475 9.52346 4.05728 9.57889 4.0317 9.64002C4.00613 9.70115 3.99296 9.76675 3.99296 9.83301C3.99296 9.89928 4.00613 9.96488 4.0317 10.026C4.05728 10.0871 4.09475 10.1426 4.14193 10.1891C4.18912 10.2356 4.24508 10.2723 4.30656 10.297C4.36804 10.3217 4.43383 10.334 4.50008 10.333H4.83342C6.02461 10.333 6.98038 11.2797 6.99813 12.4665C6.99306 12.5427 7.00553 12.6191 7.03459 12.6898C7.03544 12.6922 7.0363 12.6946 7.03719 12.6969C7.03949 12.7022 7.04188 12.7074 7.04435 12.7126C7.09054 12.8145 7.16959 12.898 7.26886 12.9497C7.36813 13.0014 7.48187 13.0183 7.59188 12.9977C7.73877 12.9957 7.92414 12.9893 8.14396 12.9854C8.39878 12.9808 8.67308 12.9846 8.77677 12.9964C9.2119 13.046 9.6533 13.1978 9.9467 13.3825C10.2401 13.5672 10.3334 13.746 10.3334 13.8291C10.3334 13.9288 10.2628 13.9997 10.1628 13.9997H5.16675C3.59595 13.9997 2.33341 12.7371 2.33341 11.1663C2.33341 8.68907 4.35614 6.66635 6.83342 6.66635H7.50008H8.83342C9.65592 6.66635 10.3334 5.98885 10.3334 5.16635C10.3334 4.37691 11.1097 3.66635 12.1667 3.66635ZM12.5001 4.33301C12.3675 4.33301 12.2403 4.38569 12.1465 4.47946C12.0528 4.57323 12.0001 4.7004 12.0001 4.83301C12.0001 4.96562 12.0528 5.0928 12.1465 5.18657C12.2403 5.28033 12.3675 5.33301 12.5001 5.33301C12.6327 5.33301 12.7599 5.28033 12.8536 5.18657C12.9474 5.0928 13.0001 4.96562 13.0001 4.83301C13.0001 4.7004 12.9474 4.57323 12.8536 4.47946C12.7599 4.38569 12.6327 4.33301 12.5001 4.33301Z" fill="url(#paint0_linear_20478_6460)"/>
  <defs>
    <linearGradient id="paint0_linear_20478_6460" x1="8.00008" y1="1.41602" x2="8.00008" y2="14.9997" gradientUnits="userSpaceOnUse">
      <stop stop-color="var(--main-gradient-from)"/>
      <stop offset="1" stop-color="var(--main-gradient-to)"/>
    </linearGradient>
  </defs>
</svg>