<svg xmlns="http://www.w3.org/2000/svg" height="24" viewBox="0 -960 960 960" width="24" fill="currentColor">
  <path d="M200-120q-33 0-56.5-23.5T120-200v-120q0-17 11.5-28.5T160-360q17 0 28.5 11.5T200-320v120h120q17 0 28.5 11.5T360-160q0 17-11.5 28.5T320-120H200Zm560 0H640q-17 0-28.5-11.5T600-160q0-17 11.5-28.5T640-200h120v-120q0-17 11.5-28.5T800-360q17 0 28.5 11.5T840-320v120q0 33-23.5 56.5T760-120ZM120-640v-120q0-33 23.5-56.5T200-840h120q17 0 28.5 11.5T360-800q0 17-11.5 28.5T320-760H200v120q0 17-11.5 28.5T160-600q-17 0-28.5-11.5T120-640Zm640 0v-120H640q-17 0-28.5-11.5T600-800q0-17 11.5-28.5T640-840h120q33 0 56.5 23.5T840-760v120q0 17-11.5 28.5T800-600q-17 0-28.5-11.5T760-640ZM395-395q-35-35-35-85t35-85q35-35 85-35t85 35q35 35 35 85t-35 85q-35 35-85 35t-85-35Zm113.5-56.5Q520-463 520-480t-11.5-28.5Q497-520 480-520t-28.5 11.5Q440-497 440-480t11.5 28.5Q463-440 480-440t28.5-11.5Z"/>
</svg>
