<svg xmlns="http://www.w3.org/2000/svg" width="24" height="24" viewBox="0 0 24 24" fill="none">
  <path d="M4.08145 15.6778L5.44796 15.8919C6.45672 16.0498 7.17713 16.9737 7.10283 18.0146L7.00216 19.4254C6.97283 19.8365 7.19179 20.2234 7.55443 20.4024L8.56514 20.9003C8.92778 21.0793 9.36081 21.0123 9.65702 20.7334L10.6726 19.7735C11.4214 19.0656 12.5767 19.0656 13.3264 19.7735L14.342 20.7334C14.6382 21.0134 15.0703 21.0793 15.4339 20.9003L16.4465 20.4014C16.8082 20.2234 17.0262 19.8375 16.9969 19.4276L16.8961 18.0146C16.8219 16.9737 17.5423 16.0498 18.551 15.8919L19.9175 15.6778C20.3154 15.6159 20.636 15.3109 20.7259 14.9089L20.9752 13.7911C21.0652 13.3891 20.9058 12.9721 20.5735 12.7401L19.4328 11.9412C18.5911 11.3513 18.334 10.1994 18.8424 9.29443L19.5314 8.06854C19.7318 7.71157 19.6987 7.26461 19.4474 6.94265L18.7485 6.04573C18.4973 5.72375 18.0789 5.59077 17.6938 5.71176L16.3723 6.12572C15.3958 6.43169 14.3548 5.91873 13.9794 4.94783L13.473 3.63494C13.3244 3.25098 12.9618 2.99901 12.5581 3L11.4379 3.00301C11.0342 3.004 10.6726 3.25799 10.526 3.64295L10.0323 4.94083C9.66087 5.91774 8.61499 6.43469 7.63556 6.12672L6.25928 5.69477C5.87317 5.57277 5.45285 5.70676 5.20165 6.03073L4.50763 6.92865C4.25642 7.25362 4.22612 7.70158 4.43041 8.05854L5.13517 9.28743C5.65422 10.1933 5.40007 11.3562 4.55357 11.9492L3.42654 12.7391C3.09419 12.9721 2.93487 13.3891 3.0248 13.7901L3.27406 14.9079C3.363 15.3109 3.68361 15.6159 4.08145 15.6778Z" stroke="currentColor" stroke-opacity="0.8" stroke-width="1.5" stroke-linecap="round" stroke-linejoin="round"/>
  <path d="M13.9753 10.0247C15.0659 11.1154 15.0659 12.8844 13.9753 13.9751C12.8846 15.0656 11.1157 15.0656 10.025 13.9751C8.93438 12.8844 8.93438 11.1154 10.025 10.0247C11.1157 8.93414 12.8846 8.93414 13.9753 10.0247Z" stroke="currentColor" stroke-opacity="0.8" stroke-width="1.5" stroke-linecap="round" stroke-linejoin="round"/>
</svg>