<svg xmlns="http://www.w3.org/2000/svg" width="16" height="16" viewBox="0 0 16 16" fill="none">
  <path d="M13.438 4.63921C13.7073 4.63921 13.9256 4.42092 13.9256 4.15164C13.9256 3.88236 13.7073 3.66406 13.438 3.66406C13.1687 3.66406 12.9504 3.88236 12.9504 4.15164C12.9504 4.42092 13.1687 4.63921 13.438 4.63921Z" fill="currentColor" fill-opacity="0.6"/>
  <path d="M7.78525 14.4855C10.9073 14.4855 13.4382 11.9546 13.4382 8.83262C13.4382 5.71059 10.9073 3.17969 7.78525 3.17969C4.66323 3.17969 2.13232 5.71059 2.13232 8.83262C2.13232 11.9546 4.66323 14.4855 7.78525 14.4855Z" stroke="currentColor" stroke-opacity="0.6" stroke-miterlimit="10" stroke-linecap="round" stroke-linejoin="round"/>
  <path d="M5.65503 1.8306C6.3291 1.62582 7.04437 1.51562 7.78524 1.51562C8.52099 1.51562 9.23114 1.62435 9.90082 1.82621" stroke="currentColor" stroke-opacity="0.6" stroke-miterlimit="10" stroke-linecap="round" stroke-linejoin="round"/>
  <path d="M7.40894 8.93693L9.82243 6.52344" stroke="currentColor" stroke-opacity="0.6" stroke-miterlimit="10" stroke-linecap="round"/>
</svg>