<svg width="18" height="18" viewBox="0 0 18 18" fill="none" xmlns="http://www.w3.org/2000/svg">
<path d="M6.94718 2.2502C7.17752 2.32874 7.4005 2.42626 7.61398 2.5417C8.06203 2.83161 8.24284 3.2823 8.24705 3.80046C8.25495 4.76667 8.25495 5.73229 8.24705 6.69753C8.24705 7.33165 7.9624 7.82134 7.38204 8.09283V8.09336C7.16223 8.18824 6.92503 8.23779 6.68571 8.23779C5.73163 8.25413 4.77655 8.24833 3.82237 8.23779C3.02484 8.23779 2.47295 7.79132 2.28268 7.0154L2.28215 7.01487C2.27267 6.99063 2.26212 6.96691 2.25 6.94371V3.55801C2.26476 3.52691 2.27688 3.49581 2.28532 3.46471C2.37598 3.09625 2.53781 2.76417 2.86831 2.56071H2.86778C3.09181 2.44105 3.32374 2.33722 3.56147 2.25023L6.94718 2.2502Z" fill="currentColor"/>
<path d="M2.25 11.0336C2.33908 10.7958 2.44766 10.566 2.57524 10.3467C2.82087 9.97511 3.23994 9.75425 3.68588 9.76268C4.71429 9.75214 5.74105 9.75583 6.76958 9.76268H6.76905C7.16967 9.76216 7.55288 9.92398 7.83225 10.2102C8.11215 10.497 8.26396 10.8844 8.25342 11.2845C8.26027 12.2612 8.26554 13.2395 8.25342 14.2168C8.24129 15.0923 7.64776 15.7133 6.77701 15.7332C5.76653 15.7564 4.75288 15.7549 3.74351 15.7332C2.98815 15.7148 2.47948 15.2762 2.28654 14.5462C2.27863 14.5135 2.26493 14.484 2.25017 14.4545V11.0334L2.25 11.0336Z" fill="currentColor"/>
<path d="M14.4243 2.25018C14.6979 2.30605 14.9562 2.42096 15.1812 2.58595C15.507 2.83211 15.7052 3.21111 15.721 3.61857C15.74 4.44984 15.7331 5.28214 15.7358 6.115V6.75177H15.7363C15.7358 7.15607 15.5713 7.54297 15.2809 7.82392C14.991 8.10487 14.5988 8.25668 14.195 8.24457C13.2288 8.24457 12.2626 8.25247 11.2964 8.24457C10.4167 8.2335 9.78779 7.64787 9.7662 6.78017C9.74037 5.75862 9.74301 4.73607 9.7662 3.71442C9.78096 2.96908 10.2348 2.45777 10.9633 2.27958C10.9886 2.27167 11.0134 2.26166 11.0376 2.25006L14.4243 2.25018Z" fill="currentColor"/>
<path d="M15.7302 12.7435C15.7302 13.2833 15.7491 13.8231 15.7302 14.3523V14.3518C15.7043 15.0971 15.1061 15.6949 14.3608 15.7202C13.2812 15.7455 12.2017 15.7455 11.1222 15.7202C10.3853 15.6918 9.79541 15.0982 9.77112 14.3614C9.74687 13.2818 9.74687 12.2023 9.77112 11.1228C9.79378 10.3853 10.3831 9.79073 11.1205 9.76281C12.2001 9.73857 13.2833 9.73857 14.3697 9.76281H14.3702C15.1008 9.79655 15.6854 10.3811 15.7196 11.1122C15.7439 11.652 15.7196 12.1918 15.7196 12.7315L15.7302 12.7435Z" fill="currentColor"/>
</svg>
