<svg width="100%" height="100%" viewBox="0 0 18 8" fill="none" xmlns="http://www.w3.org/2000/svg">
<path d="M1.14589 0.500064C1.0615 0.498871 0.977722 0.51445 0.899413 0.545894C0.821104 0.577339 0.749831 0.624022 0.689734 0.683231C0.629638 0.74244 0.581917 0.812994 0.549345 0.890793C0.516773 0.968592 0.5 1.05208 0.5 1.13642C0.5 1.22075 0.516773 1.30424 0.549345 1.38204C0.581917 1.45984 0.629638 1.53039 0.689734 1.5896C0.749831 1.64881 0.821104 1.69549 0.899413 1.72694C0.977722 1.75838 1.0615 1.77396 1.14589 1.77277H16.8541C16.9385 1.77396 17.0223 1.75838 17.1006 1.72694C17.1789 1.69549 17.2502 1.64881 17.3103 1.5896C17.3704 1.53039 17.4181 1.45984 17.4507 1.38204C17.4832 1.30424 17.5 1.22075 17.5 1.13642C17.5 1.05208 17.4832 0.968592 17.4507 0.890793C17.4181 0.812994 17.3704 0.74244 17.3103 0.683231C17.2502 0.624022 17.1789 0.577339 17.1006 0.545894C17.0223 0.51445 16.9385 0.498871 16.8541 0.500064H1.14589ZM6.24045 6.22723C6.15606 6.22604 6.07228 6.24162 5.99397 6.27306C5.91566 6.30451 5.84439 6.35119 5.78429 6.4104C5.7242 6.46961 5.67648 6.54016 5.6439 6.61796C5.61133 6.69576 5.59456 6.77925 5.59456 6.86358C5.59456 6.94792 5.61133 7.03141 5.6439 7.10921C5.67648 7.18701 5.7242 7.25756 5.78429 7.31677C5.84439 7.37598 5.91566 7.42266 5.99397 7.45411C6.07228 7.48555 6.15606 7.50113 6.24045 7.49994H16.8541C16.9385 7.50113 17.0223 7.48555 17.1006 7.45411C17.1789 7.42266 17.2502 7.37598 17.3103 7.31677C17.3704 7.25756 17.4181 7.18701 17.4507 7.10921C17.4832 7.03141 17.5 6.94792 17.5 6.86358C17.5 6.77925 17.4832 6.69576 17.4507 6.61796C17.4181 6.54016 17.3704 6.46961 17.3103 6.4104C17.2502 6.35119 17.1789 6.30451 17.1006 6.27306C17.0223 6.24162 16.9385 6.22604 16.8541 6.22723H6.24045Z" fill="currentColor"/>
</svg>
