<svg width="100%" height="100%" viewBox="0 0 18 18" fill="none" xmlns="http://www.w3.org/2000/svg">
    <path
        d="M3.5625 12L5.62214 9.38002C6.20618 8.63707 7.3234 8.61277 7.9392 9.32962L9.75 11.4375M8.18625 9.61725C8.96415 8.62777 10.048 7.22591 10.1185 7.13471C10.121 7.13144 10.1234 7.12836 10.126 7.12513C10.7111 6.38698 11.8247 6.36436 12.4392 7.0796L14.25 9.1875M5.0625 14.4375H12.9375C13.7659 14.4375 14.4375 13.7659 14.4375 12.9375V5.0625C14.4375 4.23407 13.7659 3.5625 12.9375 3.5625H5.0625C4.23407 3.5625 3.5625 4.23407 3.5625 5.0625V12.9375C3.5625 13.7659 4.23407 14.4375 5.0625 14.4375Z"
        stroke="currentColor" stroke-opacity="0.6" stroke-width="1.25" stroke-linecap="round" stroke-linejoin="round" />
</svg>