<svg xmlns="http://www.w3.org/2000/svg" width="14" height="14" viewBox="0 0 14 14" fill="none">
<path d="M13.726 5.63989C13.4589 5.01036 13.0151 4.47614 12.4557 4.09801C12.1773 3.91007 11.8693 3.76059 11.5387 3.65865C11.2103 3.5545 10.8594 3.50011 10.4972 3.50011C10.0329 3.50011 9.58683 3.59078 9.17932 3.75618C9.14525 3.76964 9.11364 3.78314 9.08204 3.79906C8.71519 3.95981 8.37998 4.18625 8.09252 4.45577C7.99966 4.54401 7.91142 4.63687 7.82296 4.74102C7.66686 4.91991 7.50611 5.126 7.34978 5.33427C7.31814 5.37715 7.2841 5.42248 7.25249 5.46563C7.16647 5.58327 6.34435 6.78792 6.19951 7.00306C6.127 7.11162 6.04097 7.2339 5.94809 7.36747C5.92774 7.39689 5.90521 7.42872 5.88265 7.46033C5.72854 7.67993 5.5565 7.91098 5.39796 8.11486C5.3188 8.21658 5.23942 8.31165 5.17152 8.39103C5.10144 8.47241 5.03798 8.53809 4.99264 8.58118C4.79806 8.76449 4.5692 8.91398 4.31802 9.01592C4.06662 9.11786 3.79263 9.17446 3.50273 9.17446C3.30351 9.17446 3.11112 9.14722 2.93005 9.09748C2.83719 9.07252 2.74652 9.04088 2.65828 9.00241C2.26868 8.83922 1.93588 8.56305 1.70261 8.21655C1.58498 8.04232 1.49209 7.85214 1.42866 7.64827C1.3676 7.44439 1.33137 7.22947 1.33137 7.00304C1.33137 6.70187 1.39262 6.41884 1.50117 6.15833C1.66657 5.76896 1.94275 5.4384 2.28925 5.20289C2.46348 5.08504 2.65363 4.99458 2.8575 4.93112C3.06116 4.86765 3.2763 4.83164 3.50273 4.83164C3.79263 4.83383 4.06662 4.88824 4.31802 4.98996C4.56922 5.09409 4.79806 5.24136 4.99264 5.42467C5.03798 5.46779 5.10144 5.53566 5.17152 5.61504C5.2938 5.75766 5.43864 5.94098 5.5837 6.13359C5.6403 6.21053 5.69691 6.28748 5.75351 6.36664C5.97086 6.04978 6.35119 5.49276 6.55041 5.20507C6.51659 5.15974 6.48255 5.11465 6.4487 5.06931C6.35802 4.95365 6.26738 4.84288 6.17695 4.74094C6.08628 4.63679 6.00026 4.54393 5.9074 4.45569C5.59497 4.16114 5.22594 3.92126 4.82059 3.75607C4.41306 3.59067 3.96687 3.5 3.50273 3.5C3.02047 3.5 2.55855 3.59751 2.13754 3.77639C1.50804 4.0413 0.975789 4.48509 0.597652 5.04429C0.409719 5.32293 0.260449 5.63292 0.156297 5.96129C0.0543867 6.29196 0 6.64068 0 7.00309C0 7.48535 0.0972891 7.94727 0.273984 8.36607C0.541078 8.99782 0.984867 9.53006 1.54189 9.90817C1.82271 10.0961 2.13073 10.2454 2.46129 10.3495C2.78964 10.4515 3.14057 10.5059 3.50276 10.5059C3.96689 10.5059 4.41312 10.4152 4.82062 10.25C5.22596 10.0846 5.59278 9.84468 5.90524 9.55259L5.90743 9.55038C6.00031 9.46436 6.08634 9.36906 6.17698 9.26491C6.33309 9.08603 6.49384 8.88016 6.65016 8.67185C6.6818 8.62873 6.71584 8.58561 6.74745 8.54271C6.83348 8.42264 7.95897 6.77198 8.05164 6.63843C8.0722 6.60901 8.09476 6.5774 8.11729 6.54557C8.27143 6.32819 8.44345 6.09495 8.60199 5.89129C8.68115 5.78936 8.76053 5.69425 8.82842 5.61509C8.89853 5.5335 8.962 5.46782 9.00731 5.42473C9.20188 5.24141 9.43075 5.09414 9.68196 4.99002C9.74321 4.96524 9.80424 4.94493 9.86768 4.92434C10.0669 4.86555 10.2774 4.83391 10.4972 4.8317C10.7983 4.83388 11.0836 4.89273 11.3416 5.00371C11.731 5.16668 12.0641 5.44286 12.2971 5.78936C12.415 5.96381 12.5078 6.15398 12.5711 6.35761C12.6345 6.56149 12.6686 6.77663 12.6686 7.00306C12.6686 7.30423 12.6073 7.58948 12.4988 7.84752C12.3334 8.23689 12.0572 8.56991 11.7107 8.80297C11.5365 8.92082 11.3463 9.0137 11.1424 9.07473C10.941 9.1382 10.7236 9.17448 10.4972 9.17448C10.2073 9.17448 9.93333 9.11788 9.68193 9.01595C9.43072 8.91401 9.20186 8.76452 9.00728 8.58121C8.96194 8.53809 8.89848 8.47022 8.82839 8.39106C8.70611 8.25065 8.56108 8.0649 8.41621 7.87254C8.35743 7.79557 8.3008 7.71619 8.2442 7.63703C8.22607 7.66421 8.20794 7.69144 8.18759 7.72084C7.81391 8.26878 7.5784 8.61525 7.44948 8.80299C7.4833 8.84833 7.51737 8.89145 7.5512 8.93678C7.64187 9.0522 7.73251 9.16322 7.82294 9.26491C7.91137 9.36903 7.99963 9.46436 8.09249 9.55038C8.40492 9.84468 8.77398 10.0846 9.1793 10.25C9.58683 10.4152 10.0328 10.5059 10.4972 10.5059C10.9794 10.5059 11.4414 10.4086 11.8602 10.2319C12.4919 9.96477 13.0239 9.52098 13.4022 8.96156C13.59 8.68317 13.7419 8.37514 13.8436 8.04456C13.9456 7.71619 14 7.36529 14 7.00309C14 6.52083 13.9027 6.05891 13.726 5.63989Z" fill="currentColor" fill-opacity="0.6"/>
</svg>