<svg width="91" height="94" viewBox="0 0 91 94" fill="none" xmlns="http://www.w3.org/2000/svg">
<path fill-rule="evenodd" clip-rule="evenodd" d="M28.1957 86.2781C29.2517 87.2912 29.6662 88.7947 29.3039 90.2021L29.3025 90.2075C28.9311 91.6161 27.8255 92.7216 26.417 93.0931L26.4116 93.0945C25.0041 93.4568 23.5007 93.0422 22.4876 91.9863L1.9116 71.4103C0.334154 69.8329 0.334154 67.2796 1.9116 65.7022L22.4849 45.1291C22.4867 45.1272 22.4885 45.1254 22.4903 45.1235C23.6324 43.9508 25.3746 43.5803 26.8957 44.1968M28.1957 86.2781L17.1136 75.1921C16.2991 74.3774 15.8919 73.97 15.8644 73.6203C15.8406 73.3168 15.9634 73.0203 16.1949 72.8226C16.4617 72.5948 17.0377 72.5948 18.1897 72.5948L54.16 72.5948C55.2499 72.607 56.2983 72.1801 57.068 71.4103C57.8388 70.6396 58.2676 69.5873 58.2469 68.4913C58.211 66.2674 56.3866 64.487 54.1587 64.5177H18.1897C17.0377 64.5177 16.4617 64.5177 16.1949 64.2899C15.9634 64.0922 15.8406 63.7957 15.8644 63.4922C15.8919 63.1425 16.2991 62.7351 17.1136 61.9204L28.1975 50.8326C28.9807 50.0739 29.4197 49.0304 29.4197 47.9408C29.4197 46.3011 28.4248 44.8147 26.8957 44.1968M80.553 64.5177C82.7828 64.5177 84.5916 66.3265 84.5916 68.5562C84.5916 70.786 82.7828 72.5948 80.553 72.5948C78.3233 72.5948 76.5145 70.786 76.5145 68.5562C76.5145 66.3265 78.3233 64.5177 80.553 64.5177ZM67.3594 64.5177C69.5891 64.5177 71.3979 66.3265 71.3979 68.5562C71.3979 70.786 69.5892 72.5948 67.3594 72.5948C65.1296 72.5948 63.3209 70.786 63.3209 68.5562C63.3209 66.3265 65.1296 64.5177 67.3594 64.5177Z" fill="url(#paint0_linear_16275_80081)"/>
<path fill-rule="evenodd" clip-rule="evenodd" d="M63.5318 42.3755C62.4759 43.3886 62.0613 44.8921 62.4236 46.2996L62.425 46.305C62.7965 47.7135 63.902 48.819 65.3106 49.1905L65.316 49.1919C66.7234 49.5542 68.2269 49.1397 69.24 48.0837L89.8159 27.5077C91.3934 25.9303 91.3934 23.377 89.8159 21.7996L69.2427 1.22648C69.2409 1.22462 69.2391 1.22277 69.2373 1.22091C68.0951 0.0482517 66.353 -0.322311 64.8319 0.294218M63.5318 42.3755L74.6139 31.2895C75.4284 30.4748 75.8356 30.0674 75.8631 29.7177C75.887 29.4142 75.7641 29.1177 75.5326 28.92C75.2659 28.6922 74.6898 28.6922 73.5378 28.6922L37.5676 28.6922C36.4777 28.7044 35.4293 28.2775 34.6595 27.5077C33.8888 26.737 33.46 25.6847 33.4806 24.5887C33.5165 22.3648 35.3409 20.5844 37.5688 20.6152H73.5378C74.6898 20.6152 75.2659 20.6152 75.5326 20.3873C75.7641 20.1897 75.887 19.8931 75.8631 19.5897C75.8356 19.2399 75.4284 18.8325 74.6139 18.0178L63.5301 6.93003C62.7468 6.17127 62.3079 5.12782 62.3079 4.03817C62.3079 2.39851 63.3028 0.912128 64.8319 0.294218M11.1745 20.6152C8.94471 20.6152 7.13599 22.4239 7.13599 24.6537C7.13599 26.8834 8.94471 28.6922 11.1745 28.6922C13.4043 28.6922 15.213 26.8834 15.213 24.6537C15.213 22.4239 13.4043 20.6152 11.1745 20.6152ZM24.3682 20.6152C22.1384 20.6152 20.3297 22.4239 20.3297 24.6537C20.3297 26.8834 22.1384 28.6922 24.3682 28.6922C26.598 28.6922 28.4067 26.8834 28.4067 24.6537C28.4067 22.4239 26.598 20.6152 24.3682 20.6152Z" fill="url(#paint1_linear_16275_80081)"/>
<defs>
<linearGradient id="paint0_linear_16275_80081" x1="0.80467" y1="68.7648" x2="82.5912" y2="68.7648" gradientUnits="userSpaceOnUse">
<stop stop-color="#67D79F"/>
<stop offset="1" stop-color="#10BBD8"/>
</linearGradient>
<linearGradient id="paint1_linear_16275_80081" x1="9.21252" y1="24.7257" x2="93.3765" y2="24.7257" gradientUnits="userSpaceOnUse">
<stop stop-color="#10BBD8"/>
<stop offset="0.500712" stop-color="#67D79F"/>
<stop offset="1" stop-color="white"/>
</linearGradient>
</defs>
</svg>
