<svg width="100%" height="100%" viewBox="0 0 18 18" fill="none" xmlns="http://www.w3.org/2000/svg">
<path d="M3.5625 4.3125C3.5625 3.89829 3.89829 3.5625 4.3125 3.5625H6.9375C7.35171 3.5625 7.6875 3.89829 7.6875 4.3125V6.9375C7.6875 7.35171 7.35171 7.6875 6.9375 7.6875H4.3125C3.89829 7.6875 3.5625 7.35171 3.5625 6.9375V4.3125Z" stroke="currentColor" stroke-width="1.5" stroke-linecap="round" stroke-linejoin="round"/>
<path d="M3.5625 11.0625C3.5625 10.6483 3.89829 10.3125 4.3125 10.3125H6.9375C7.35171 10.3125 7.6875 10.6483 7.6875 11.0625V13.6875C7.6875 14.1017 7.35171 14.4375 6.9375 14.4375H4.3125C3.89829 14.4375 3.5625 14.1017 3.5625 13.6875V11.0625Z" stroke="currentColor" stroke-width="1.5" stroke-linecap="round" stroke-linejoin="round"/>
<path d="M10.3125 4.3125C10.3125 3.89829 10.6483 3.5625 11.0625 3.5625H13.6875C14.1017 3.5625 14.4375 3.89829 14.4375 4.3125V6.9375C14.4375 7.35171 14.1017 7.6875 13.6875 7.6875H11.0625C10.6483 7.6875 10.3125 7.35171 10.3125 6.9375V4.3125Z" stroke="currentColor" stroke-width="1.5" stroke-linecap="round" stroke-linejoin="round"/>
<path d="M10.3125 11.0625C10.3125 10.6483 10.6483 10.3125 11.0625 10.3125H13.6875C14.1017 10.3125 14.4375 10.6483 14.4375 11.0625V13.6875C14.4375 14.1017 14.1017 14.4375 13.6875 14.4375H11.0625C10.6483 14.4375 10.3125 14.1017 10.3125 13.6875V11.0625Z" stroke="currentColor" stroke-width="1.5" stroke-linecap="round" stroke-linejoin="round"/>
</svg>
