<svg xmlns="http://www.w3.org/2000/svg" width="21" height="20" viewBox="0 0 21 20" fill="none">
  <path d="M6.49914 2C5.39648 2 4.49914 2.89733 4.49914 4V15.25C4.72114 15.2987 4.94981 15.3333 5.16581 15.3333C5.38114 15.3333 5.61048 15.2987 5.83248 15.25V4C5.83248 3.63267 6.13114 3.33333 6.49914 3.33333H7.16581C7.53448 3.33333 7.83248 3.03467 7.83248 2.66667C7.83248 2.29867 7.53448 2 7.16581 2H6.49914ZM15.8325 2C14.7298 2 13.8325 2.89733 13.8325 4V5.33333H7.16581V6.66667H13.8325V8H7.16581V9.33333H13.8325V10.6667H7.16581V12H13.8325V13.3333H7.16581V14.6667H13.8325V14.7956C13.9085 14.8222 13.987 14.8409 14.0603 14.8776C14.2343 14.9623 14.6811 15.1433 15.1658 15.25V4C15.1658 3.63267 15.4645 3.33333 15.8325 3.33333H16.4991C16.8678 3.33333 17.1658 3.03467 17.1658 2.66667C17.1658 2.29867 16.8678 2 16.4991 2H15.8325ZM2.47571 15.9961C2.32608 15.9995 2.18195 16.0532 2.06652 16.1485C1.9511 16.2437 1.87108 16.3751 1.83936 16.5214C1.80764 16.6676 1.82606 16.8203 1.89165 16.9548C1.95725 17.0894 2.06619 17.1979 2.20097 17.263C2.20097 17.263 3.61025 18 5.16581 18C6.46352 18 7.47168 17.5555 7.83248 17.3854C8.19327 17.5555 9.20143 18 10.4991 18C11.7969 18 12.805 17.5555 13.1658 17.3854C13.5266 17.5555 14.5348 18 15.8325 18C17.388 18 18.7973 17.263 18.7973 17.263C18.8757 17.2239 18.9455 17.1697 19.0029 17.1035C19.0603 17.0374 19.1041 16.9606 19.1318 16.8775C19.1595 16.7944 19.1705 16.7067 19.1643 16.6194C19.1581 16.532 19.1348 16.4468 19.0956 16.3684C19.0564 16.2901 19.0022 16.2203 18.9361 16.1629C18.8699 16.1055 18.7931 16.0618 18.71 16.0341C18.627 16.0064 18.5392 15.9953 18.4519 16.0016C18.3645 16.0078 18.2793 16.0311 18.201 16.0703C18.201 16.0703 16.9436 16.6667 15.8325 16.6667C14.7214 16.6667 13.464 16.0703 13.464 16.0703C13.3714 16.024 13.2693 15.9999 13.1658 15.9999C13.0623 15.9999 12.9602 16.024 12.8676 16.0703C12.8676 16.0703 11.6103 16.6667 10.4991 16.6667C9.38803 16.6667 8.13065 16.0703 8.13065 16.0703C8.03807 16.024 7.93599 15.9999 7.83248 15.9999C7.72897 15.9999 7.62688 16.024 7.5343 16.0703C7.5343 16.0703 6.27692 16.6667 5.16581 16.6667C4.0547 16.6667 2.79732 16.0703 2.79732 16.0703C2.69803 16.019 2.58744 15.9935 2.47571 15.9961Z" fill="url(#paint0_linear_20816_43392)"/>
  <defs>
    <linearGradient id="paint0_linear_20816_43392" x1="10.4951" y1="2" x2="10.4951" y2="18" gradientUnits="userSpaceOnUse">
      <stop stop-color="#67D79F"/>
      <stop offset="1" stop-color="#10BBD8"/>
    </linearGradient>
  </defs>
</svg>