<svg xmlns="http://www.w3.org/2000/svg" viewBox="0 0 15 14" fill="none" stroke="currentColor">
<path d="M1.38379 1.79134C1.38379 1.33111 1.75689 0.958008 2.21712 0.958008H5.13379C5.59402 0.958008 5.96712 1.33111 5.96712 1.79134V4.70801C5.96712 5.16824 5.59402 5.54134 5.13379 5.54134H2.21712C1.75689 5.54134 1.38379 5.16824 1.38379 4.70801V1.79134Z" stroke-width="1.25" stroke-linecap="round" stroke-linejoin="round"/>
<path d="M1.38379 9.29134C1.38379 8.83109 1.75689 8.45801 2.21712 8.45801H5.13379C5.59402 8.45801 5.96712 8.83109 5.96712 9.29134V12.208C5.96712 12.6683 5.59402 13.0413 5.13379 13.0413H2.21712C1.75689 13.0413 1.38379 12.6683 1.38379 12.208V9.29134Z" stroke-width="1.25" stroke-linecap="round" stroke-linejoin="round"/>
<path d="M8.88379 1.79134C8.88379 1.33111 9.25687 0.958008 9.71712 0.958008H12.6338C13.094 0.958008 13.4671 1.33111 13.4671 1.79134V4.70801C13.4671 5.16824 13.094 5.54134 12.6338 5.54134H9.71712C9.25687 5.54134 8.88379 5.16824 8.88379 4.70801V1.79134Z" stroke-width="1.25" stroke-linecap="round" stroke-linejoin="round"/>
<path d="M8.88379 9.29134C8.88379 8.83109 9.25687 8.45801 9.71712 8.45801H12.6338C13.094 8.45801 13.4671 8.83109 13.4671 9.29134V12.208C13.4671 12.6683 13.094 13.0413 12.6338 13.0413H9.71712C9.25687 13.0413 8.88379 12.6683 8.88379 12.208V9.29134Z" stroke-width="1.25" stroke-linecap="round" stroke-linejoin="round"/>
</svg>