<svg xmlns="http://www.w3.org/2000/svg" viewBox="0 0 19 16" fill="currentColor">
  <path d="M5.42566 0C4.32299 0 3.42566 0.897333 3.42566 2V13.25C3.64766 13.2987 3.87632 13.3333 4.09232 13.3333C4.30766 13.3333 4.53699 13.2987 4.75899 13.25V2C4.75899 1.63267 5.05766 1.33333 5.42566 1.33333H6.09232C6.46099 1.33333 6.75899 1.03467 6.75899 0.666667C6.75899 0.298667 6.46099 0 6.09232 0H5.42566ZM14.759 0C13.6563 0 12.759 0.897333 12.759 2V3.33333H6.09232V4.66667H12.759V6H6.09232V7.33333H12.759V8.66667H6.09232V10H12.759V11.3333H6.09232V12.6667H12.759V12.7956C12.835 12.8222 12.9135 12.8409 12.9869 12.8776C13.1609 12.9623 13.6077 13.1433 14.0923 13.25V2C14.0923 1.63267 14.391 1.33333 14.759 1.33333H15.4257C15.7943 1.33333 16.0923 1.03467 16.0923 0.666667C16.0923 0.298667 15.7943 0 15.4257 0H14.759ZM1.40222 13.9961C1.25259 13.9995 1.10846 14.0532 0.993036 14.1485C0.877609 14.2437 0.797597 14.3751 0.765878 14.5213C0.734159 14.6676 0.752577 14.8203 0.818168 14.9548C0.883759 15.0894 0.992709 15.1979 1.12748 15.263C1.12748 15.263 2.53677 16 4.09232 16C5.39004 16 6.39819 15.5555 6.75899 15.3854C7.11979 15.5555 8.12794 16 9.42566 16C10.7234 16 11.7315 15.5555 12.0923 15.3854C12.4531 15.5555 13.4613 16 14.759 16C16.3145 16 17.7238 15.263 17.7238 15.263C17.8022 15.2239 17.872 15.1697 17.9294 15.1035C17.9868 15.0374 18.0306 14.9606 18.0583 14.8775C18.086 14.7944 18.097 14.7067 18.0908 14.6194C18.0846 14.532 18.0613 14.4468 18.0221 14.3684C17.983 14.2901 17.9287 14.2203 17.8626 14.1629C17.7964 14.1055 17.7196 14.0618 17.6365 14.0341C17.5535 14.0064 17.4658 13.9953 17.3784 14.0016C17.2911 14.0078 17.2058 14.0311 17.1275 14.0703C17.1275 14.0703 15.8701 14.6667 14.759 14.6667C13.6479 14.6667 12.3905 14.0703 12.3905 14.0703C12.2979 14.024 12.1958 13.9999 12.0923 13.9999C11.9888 13.9999 11.8867 14.024 11.7941 14.0703C11.7941 14.0703 10.5368 14.6667 9.42566 14.6667C8.31455 14.6667 7.05717 14.0703 7.05717 14.0703C6.96459 14.024 6.8625 13.9999 6.75899 13.9999C6.65548 13.9999 6.55339 14.024 6.46081 14.0703C6.46081 14.0703 5.20344 14.6667 4.09232 14.6667C2.98121 14.6667 1.72383 14.0703 1.72383 14.0703C1.62454 14.019 1.51395 13.9935 1.40222 13.9961Z"/>
</svg>
