<svg width="100%" height="100%" viewBox="0 0 18 18" fill="none" xmlns="http://www.w3.org/2000/svg">
    <path fill-rule="evenodd" clip-rule="evenodd"
        d="M12.3332 0.666992H5.6665C2.90508 0.666992 0.666504 2.90557 0.666504 5.66699V12.3337C0.666504 15.0951 2.90508 17.3337 5.6665 17.3337H12.3332C15.0946 17.3337 17.3332 15.0951 17.3332 12.3337V5.66699C17.3332 2.90557 15.0946 0.666992 12.3332 0.666992ZM7.74984 11.5003C7.74984 11.9606 7.37674 12.3337 6.9165 12.3337C6.45627 12.3337 6.08317 11.9606 6.08317 11.5003V6.50033C6.08317 6.04009 6.45627 5.66699 6.9165 5.66699C7.37674 5.66699 7.74984 6.04009 7.74984 6.50033V11.5003ZM11.0832 12.3337C11.5434 12.3337 11.9165 11.9606 11.9165 11.5003V6.50033C11.9165 6.04009 11.5434 5.66699 11.0832 5.66699C10.6229 5.66699 10.2498 6.04009 10.2498 6.50033V11.5003C10.2498 11.9606 10.6229 12.3337 11.0832 12.3337Z"
        fill="currentColor" />
</svg>