<svg width="100%" height="100%" viewBox="0 0 14 16" fill="none" xmlns="http://www.w3.org/2000/svg">
    <path
        d="M1 14.4V1.6C1 1.44087 1.06321 1.28826 1.17574 1.17574C1.28826 1.06321 1.44087 1 1.6 1H4.4C4.55913 1 4.71174 1.06321 4.82426 1.17574C4.93679 1.28826 5 1.44087 5 1.6V14.4C5 14.5591 4.93679 14.7117 4.82426 14.8243C4.71174 14.9368 4.55913 15 4.4 15H1.6C1.44087 15 1.28826 14.9368 1.17574 14.8243C1.06321 14.7117 1 14.5591 1 14.4V14.4ZM9 14.4V1.6C9 1.44087 9.06321 1.28826 9.17574 1.17574C9.28826 1.06321 9.44087 1 9.6 1H12.4C12.5591 1 12.7117 1.06321 12.8243 1.17574C12.9368 1.28826 13 1.44087 13 1.6V14.4C13 14.5591 12.9368 14.7117 12.8243 14.8243C12.7117 14.9368 12.5591 15 12.4 15H9.6C9.44087 15 9.28826 14.9368 9.17574 14.8243C9.06321 14.7117 9 14.5591 9 14.4V14.4Z"
        stroke="currentColor" stroke-width="2" />
</svg>