<svg xmlns="http://www.w3.org/2000/svg" width="16" height="17" viewBox="0 0 16 17" fill="none">
  <path d="M1.8457 0.500004L1.8457 16.5L14.1534 16.5L14.1534 0.500003L1.8457 0.500004Z" fill="url(#paint0_linear_19147_65988)" fill-opacity="0.2"/>
  <path d="M14.5377 15.7308L1.46079 15.7308C1.24837 15.7308 1.07617 15.903 1.07617 16.1154C1.07617 16.3278 1.24837 16.5 1.46079 16.5L14.5377 16.5C14.7501 16.5 14.9223 16.3278 14.9223 16.1154C14.9223 15.903 14.7501 15.7308 14.5377 15.7308Z" fill="url(#paint1_linear_19147_65988)"/>
  <path d="M14.5397 0.5003L1.46274 0.500301C1.25032 0.500301 1.07812 0.672499 1.07812 0.884916C1.07812 1.09733 1.25032 1.26953 1.46274 1.26953L14.5397 1.26953C14.7521 1.26953 14.9243 1.09733 14.9243 0.884915C14.9243 0.672498 14.7521 0.5003 14.5397 0.5003Z" fill="url(#paint2_linear_19147_65988)"/>
  <path fill-rule="evenodd" clip-rule="evenodd" d="M9.82126 11.5666C10.079 11.5666 10.2225 11.8646 10.0618 12.0661L8.23921 14.3517C8.11603 14.5061 7.88126 14.5061 7.75808 14.3517L5.93547 12.0661C5.77474 11.8646 5.91825 11.5666 6.17603 11.5666L7.41009 11.5666L7.41009 5.43236L6.17603 5.43236C5.91825 5.43236 5.77474 5.13437 5.93547 4.93283L7.75808 2.6473C7.88126 2.49283 8.11603 2.49283 8.23921 2.6473L10.0618 4.93283C10.2225 5.13437 10.079 5.43236 9.82126 5.43236L8.5872 5.43236L8.5872 11.5666L9.82126 11.5666Z" fill="url(#paint3_linear_19147_65988)"/>
  <defs>
    <linearGradient id="paint0_linear_19147_65988" x1="1.8457" y1="1.42308" x2="10.3005" y2="17.5233" gradientUnits="userSpaceOnUse">
      <stop stop-color="var(--color-secondary)"/>
      <stop offset="1" stop-color="var(--color-primary)"/>
    </linearGradient>
    <linearGradient id="paint1_linear_19147_65988" x1="1.08695" y1="16.1154" x2="14.9223" y2="16.1154" gradientUnits="userSpaceOnUse">
      <stop stop-color="var(--color-primary)"/>
      <stop offset="1" stop-color="white"/>
    </linearGradient>
    <linearGradient id="paint2_linear_19147_65988" x1="1.0889" y1="0.884916" x2="14.9243" y2="0.884915" gradientUnits="userSpaceOnUse">
      <stop stop-color="var(--color-secondary)"/>
      <stop offset="1" stop-color="var(--color-primary)"/>
    </linearGradient>
    <linearGradient id="paint3_linear_19147_65988" x1="7.99865" y1="15.9489" x2="7.99541" y2="0.305148" gradientUnits="userSpaceOnUse">
      <stop stop-color="white"/>
      <stop offset="0.505" stop-color="var(--color-primary)"/>
      <stop offset="1" stop-color="#10BBD5"/>
    </linearGradient>
  </defs>
</svg>