<svg xmlns="http://www.w3.org/2000/svg" viewBox="0 0 48 49" fill="none">
<path d="M24.0078 42.9375C33.9489 42.9375 42.0078 34.8786 42.0078 24.9375C42.0078 14.9964 33.9489 6.9375 24.0078 6.9375C14.0667 6.9375 6.00781 14.9964 6.00781 24.9375C6.00781 34.8786 14.0667 42.9375 24.0078 42.9375Z" stroke="currentColor" stroke-width="2" stroke-linecap="round" stroke-linejoin="round"/>
<path d="M24.0078 34.9375C25.1124 34.9375 26.0078 34.0421 26.0078 32.9375C26.0078 31.8329 25.1124 30.9375 24.0078 30.9375C22.9032 30.9375 22.0078 31.8329 22.0078 32.9375C22.0078 34.0421 22.9032 34.9375 24.0078 34.9375Z" fill="currentColor"/>
<path d="M24.0078 27.9375C24.0078 23.9375 28.0078 24.9375 28.0078 20.9375C28.0078 15.6289 20.0078 15.6289 20.0078 20.9375" stroke="currentColor" stroke-width="2" stroke-linecap="round" stroke-linejoin="round"/>
</svg>