<svg xmlns="http://www.w3.org/2000/svg" width="24" height="24" viewBox="0 0 24 24" fill="none">
<path d="M22.5604 3.89569H1.44043V20.1408H22.5604V3.89569Z" fill="url(#paint0_linear_22198_75229)" fill-opacity="0.2"/>
<path d="M2.45611 20.6496V3.38784C2.45611 3.25316 2.40261 3.12399 2.30737 3.02875C2.21213 2.93351 2.08296 2.88 1.94827 2.88C1.81358 2.88 1.68441 2.93351 1.58917 3.02875C1.49393 3.12399 1.44043 3.25316 1.44043 3.38784V20.6486C1.44043 20.7833 1.49393 20.9125 1.58917 21.0077C1.68441 21.103 1.81358 21.1565 1.94827 21.1565C2.08296 21.1565 2.21213 21.103 2.30737 21.0077C2.40261 20.9125 2.45611 20.7843 2.45611 20.6496Z" fill="url(#paint1_linear_22198_75229)"/>
<path d="M22.5606 20.6496V3.38784C22.5606 3.25316 22.5071 3.12399 22.4119 3.02875C22.3166 2.93351 22.1875 2.88 22.0528 2.88C21.9181 2.88 21.7889 2.93351 21.6937 3.02875C21.5984 3.12399 21.5449 3.25316 21.5449 3.38784V20.6486C21.5449 20.7833 21.5984 20.9125 21.6937 21.0077C21.7889 21.103 21.9181 21.1565 22.0528 21.1565C22.1875 21.1565 22.3166 21.103 22.4119 21.0077C22.5071 20.9125 22.5606 20.7843 22.5606 20.6496Z" fill="url(#paint2_linear_22198_75229)"/>
<path fill-rule="evenodd" clip-rule="evenodd" d="M5.07225 12.0192C5.07225 11.8131 5.15404 11.6155 5.29966 11.4697C5.44528 11.3239 5.64282 11.2419 5.84889 11.2416H16.0489V9.61248C16.0489 9.27264 16.4425 9.08256 16.7084 9.29568L19.7257 11.7005C19.7735 11.7385 19.8121 11.7868 19.8386 11.8419C19.8651 11.8969 19.8789 11.9572 19.8789 12.0182C19.8789 12.0793 19.8651 12.1396 19.8386 12.1946C19.8121 12.2496 19.7735 12.298 19.7257 12.336L16.7084 14.7418C16.6487 14.7895 16.5767 14.8193 16.5008 14.828C16.4249 14.8366 16.348 14.8236 16.2791 14.7905C16.2103 14.7574 16.1521 14.7056 16.1114 14.6409C16.0706 14.5762 16.049 14.5014 16.0489 14.425V12.7949H5.84889C5.64282 12.7949 5.44518 12.7131 5.29938 12.5675C5.15358 12.4218 5.07154 12.2243 5.07129 12.0182L5.07225 12.0192Z" fill="url(#paint3_linear_22198_75229)"/>
<defs>
<linearGradient id="paint0_linear_22198_75229" x1="21.3422" y1="3.89569" x2="0.0897092" y2="15.0557" gradientUnits="userSpaceOnUse">
<stop stop-color="#10BBD8"/>
<stop offset="1" stop-color="#67D79F"/>
</linearGradient>
<linearGradient id="paint1_linear_22198_75229" x1="1.94827" y1="2.8944" x2="1.94827" y2="21.1565" gradientUnits="userSpaceOnUse">
<stop stop-color="#67D79F"/>
<stop offset="1" stop-color="white"/>
</linearGradient>
<linearGradient id="paint2_linear_22198_75229" x1="22.0528" y1="2.8944" x2="22.0528" y2="21.1565" gradientUnits="userSpaceOnUse">
<stop stop-color="#10BBD8"/>
<stop offset="1" stop-color="#67D79F"/>
</linearGradient>
<linearGradient id="paint3_linear_22198_75229" x1="2.16729" y1="12.0182" x2="22.8169" y2="12.0144" gradientUnits="userSpaceOnUse">
<stop stop-color="white"/>
<stop offset="0.505" stop-color="#67D79F"/>
<stop offset="1" stop-color="#10BBD5"/>
</linearGradient>
</defs>
</svg>