<svg width="104" height="104" viewBox="0 0 104 104" fill="none" xmlns="http://www.w3.org/2000/svg">
<path d="M104 12H0V92H104V12Z" fill="url(#paint0_linear_16275_80063)" fill-opacity="0.2"/>
<path d="M5 94.5V9.5C5 8.11929 3.88071 7 2.5 7C1.11929 7 0 8.11929 0 9.5V94.5C0 95.8807 1.11929 97 2.5 97C3.88071 97 5 95.8807 5 94.5Z" fill="url(#paint1_linear_16275_80063)"/>
<path d="M104 94.5V9.5C104 8.11929 102.881 7 101.5 7C100.119 7 99 8.11929 99 9.5V94.5C99 95.8807 100.119 97 101.5 97C102.881 97 104 95.8807 104 94.5Z" fill="url(#paint2_linear_16275_80063)"/>
<path fill-rule="evenodd" clip-rule="evenodd" d="M32.0638 63.847C32.0638 65.5226 30.1268 66.4554 28.8168 65.4107L13.9608 53.5637C12.9568 52.763 12.9568 51.237 13.9608 50.4363L28.8168 38.5893C30.1268 37.5446 32.0638 38.4774 32.0638 40.153V48.1744H71.9362V40.153C71.9362 38.4774 73.8732 37.5446 75.1832 38.5893L90.0392 50.4363C91.0432 51.237 91.0432 52.763 90.0392 53.5637L75.1832 65.4107C73.8732 66.4554 71.9362 65.5226 71.9362 63.847V55.8256H32.0638V63.847Z" fill="url(#paint3_linear_16275_80063)"/>
<defs>
<linearGradient id="paint0_linear_16275_80063" x1="98" y1="12" x2="-6.65138" y2="66.9563" gradientUnits="userSpaceOnUse">
<stop stop-color="#10BBD8"/>
<stop offset="1" stop-color="#67D79F"/>
</linearGradient>
<linearGradient id="paint1_linear_16275_80063" x1="2.5" y1="7.07006" x2="2.5" y2="96.9999" gradientUnits="userSpaceOnUse">
<stop stop-color="#67D79F"/>
<stop offset="1" stop-color="white"/>
</linearGradient>
<linearGradient id="paint2_linear_16275_80063" x1="101.5" y1="7.07006" x2="101.5" y2="96.9999" gradientUnits="userSpaceOnUse">
<stop stop-color="#10BBD8"/>
<stop offset="1" stop-color="#67D79F"/>
</linearGradient>
<linearGradient id="paint3_linear_16275_80063" x1="3.57895" y1="52" x2="105.263" y2="51.979" gradientUnits="userSpaceOnUse">
<stop stop-color="white"/>
<stop offset="0.505" stop-color="#67D79F"/>
<stop offset="1" stop-color="#10BBD5"/>
</linearGradient>
</defs>
</svg>
