<svg width="104" height="93" viewBox="0 0 104 93" fill="none" xmlns="http://www.w3.org/2000/svg">
<path opacity="0.4" fill-rule="evenodd" clip-rule="evenodd" d="M52.0002 21.3205C44.6843 27.185 39.9999 36.1966 39.9999 46.3023C39.9999 56.4079 44.6842 65.4194 52 71.2839C46.5216 75.6755 39.5676 78.3023 32.0001 78.3023C14.327 78.3023 0 63.9753 0 46.3021C0 28.629 14.327 14.302 32.0001 14.302C39.5677 14.302 46.5218 16.9289 52.0002 21.3205Z" fill="url(#paint0_linear_16275_80069)"/>
<path fill-rule="evenodd" clip-rule="evenodd" d="M61.2494 59.2994C59.1572 64.0011 55.9648 68.105 51.999 71.2842C54.3105 73.1372 56.8847 74.676 59.6568 75.8359C63.7809 72.6411 67.1532 68.6346 69.6034 64.1226L61.2494 59.2994ZM63.1297 53.7411L80.9954 48.954C83.484 48.2872 86.0441 49.7653 86.7109 52.2539L91.8435 71.4088C99.2486 65.5478 104 56.4802 104 46.3029C104 28.6297 89.6727 14.3027 71.9995 14.3027C64.4317 14.3027 57.4775 16.9297 51.999 21.3216C59.3145 27.1861 63.9987 36.1975 63.9987 46.3029C63.9987 48.8637 63.6979 51.3543 63.1297 53.7411ZM87.367 74.3784L77.6185 68.7501C75.7327 72.1918 73.4431 75.4004 70.7541 78.2792C71.1673 78.295 71.5824 78.303 71.9995 78.303C77.5688 78.303 82.8059 76.8803 87.367 74.3784Z" fill="url(#paint1_linear_16275_80069)"/>
<path fill-rule="evenodd" clip-rule="evenodd" d="M21.4247 43.6498C18.9361 44.3167 16.376 42.8386 15.7092 40.35L10.2739 20.0655C10.1198 19.4903 10.1813 18.851 10.5094 18.2913C11.1496 17.1824 12.5817 16.7987 13.6906 17.4389L24.8016 23.8538C26.8337 20.1451 29.3346 16.707 32.2991 13.6606C32.6067 13.2825 32.977 12.9505 33.3896 12.6827C38.8678 7.3963 45.674 3.33307 53.5389 1.22567C55.1585 0.766554 56.9024 1.21773 58.0941 2.4019C59.2917 3.5845 59.7572 5.32184 59.3113 6.94479C58.8714 8.56618 57.5867 9.82885 55.9546 10.241C45.6421 13.0042 37.526 19.8089 32.8167 28.4813L42.2681 33.9381C43.3844 34.5826 43.7682 36.0147 43.1237 37.131C42.7998 37.6833 42.2844 38.0605 41.7092 38.2146L21.4247 43.6498Z" fill="url(#paint2_linear_16275_80069)"/>
<path opacity="0.4" fill-rule="evenodd" clip-rule="evenodd" d="M80.9953 48.9544C83.4839 48.2876 86.0439 49.7656 86.7108 52.2543L92.146 72.5388C92.3001 73.114 92.2386 73.7532 91.9105 74.313C91.2703 75.4218 89.8382 75.8056 88.7293 75.1654L77.6183 68.7504C75.5862 72.4592 73.0853 75.8973 70.1208 78.9437C69.8132 79.3218 69.4429 79.6537 69.0303 79.9216C63.5521 85.208 56.7459 89.2712 48.881 91.3786C47.2615 91.8377 45.5176 91.3865 44.3258 90.2023C43.1283 89.0197 42.6627 87.2824 43.1086 85.6595C43.5485 84.0381 44.8332 82.7754 46.4653 82.3632C56.7778 79.6 64.8939 72.7953 69.6032 64.1229L60.1518 58.6661C59.0355 58.0216 58.6518 56.5895 59.2963 55.4732C59.6201 54.9209 60.1355 54.5438 60.7107 54.3896L80.9953 48.9544Z" fill="url(#paint3_linear_16275_80069)"/>
<defs>
<linearGradient id="paint0_linear_16275_80069" x1="37.4835" y1="60.4409" x2="-7.67311" y2="23.7512" gradientUnits="userSpaceOnUse">
<stop stop-color="#10BBD8"/>
<stop offset="1" stop-color="#67D79F"/>
</linearGradient>
<linearGradient id="paint1_linear_16275_80069" x1="98.0317" y1="70.5338" x2="42.6622" y2="25.8873" gradientUnits="userSpaceOnUse">
<stop stop-color="#10BBD8"/>
<stop offset="1" stop-color="#67D79F"/>
</linearGradient>
<linearGradient id="paint2_linear_16275_80069" x1="89.4161" y1="19.9179" x2="47.9539" y2="70.5331" gradientUnits="userSpaceOnUse">
<stop stop-color="#10BBD8"/>
<stop offset="0.51" stop-color="#67D79F"/>
<stop offset="1" stop-color="white"/>
</linearGradient>
<linearGradient id="paint3_linear_16275_80069" x1="22.2211" y1="71.5477" x2="69.7946" y2="-10.8509" gradientUnits="userSpaceOnUse">
<stop stop-color="#10BBD8"/>
<stop offset="1" stop-color="#67D79F"/>
</linearGradient>
</defs>
</svg>
