<svg width="100%" height="100%" viewBox="0 0 20 20" fill="none" xmlns="http://www.w3.org/2000/svg">
    <path
        d="M10.4269 3.3514L11.0602 2.71807C11.2897 2.47181 11.2829 2.08806 11.0449 1.85005C10.8069 1.61204 10.4231 1.60527 10.1769 1.83474L8.51019 3.5014C8.26648 3.74542 8.26648 4.14072 8.51019 4.38474L10.1769 6.0514C10.4209 6.29511 10.8162 6.29511 11.0602 6.0514C11.3039 5.80739 11.3039 5.41208 11.0602 5.16807L10.5102 4.61807C13.3163 4.96566 15.5032 7.21792 15.7681 10.0331C16.0329 12.8483 14.3044 15.4688 11.6123 16.3337C8.92019 17.1985 5.98888 16.0748 4.56464 13.6321C3.14041 11.1894 3.60648 8.0849 5.68519 6.16807C5.88663 5.92854 5.87985 5.57695 5.66933 5.34537C5.4588 5.11379 5.10944 5.07363 4.85186 5.2514C2.31701 7.58624 1.76295 11.3769 3.5235 14.3396C5.28405 17.3023 8.87841 18.6278 12.141 17.5176C15.4035 16.4073 17.4433 13.1645 17.0313 9.74293C16.6193 6.32136 13.868 3.65544 10.4352 3.3514H10.4269Z"
        fill="currentColor" />
</svg>