<svg width="100%" height="100%" viewBox="0 0 13 12" fill="none" xmlns="http://www.w3.org/2000/svg">
<path d="M9.49967 8.625V0.75M9.49967 0.75L11.5413 2.79167M9.49967 0.75L7.45801 2.79167M9.49967 8.625C9.49967 8.89312 9.44686 9.15861 9.34426 9.40631C9.24166 9.65402 9.09127 9.87909 8.90168 10.0687C8.7121 10.2583 8.48703 10.4087 8.23932 10.5113C7.99161 10.6139 7.72612 10.6667 7.45801 10.6667C7.18989 10.6667 6.9244 10.6139 6.6767 10.5113C6.42899 10.4087 6.20392 10.2583 6.01433 10.0687C5.82475 9.87909 5.67436 9.65402 5.57175 9.40631C5.46915 9.15861 5.41634 8.89312 5.41634 8.625V3.375M5.41634 3.375C5.41634 2.83352 5.20124 2.31421 4.81835 1.93132C4.43546 1.54844 3.91616 1.33333 3.37467 1.33333C2.83319 1.33333 2.31388 1.54844 1.931 1.93132C1.54811 2.31421 1.33301 2.83352 1.33301 3.375V10.375" stroke="currentColor" stroke-opacity="0.8" stroke-width="1.25" stroke-linecap="round" stroke-linejoin="round"/>
</svg>
