<svg width="100%" height="100%" viewBox="0 0 32 32" fill="none" xmlns="http://www.w3.org/2000/svg">
<path d="M27.2008 27.1998L21.4077 21.4067M4.80078 14.455C4.80078 9.12257 9.12355 4.7998 14.456 4.7998C19.7884 4.7998 24.1111 9.12257 24.1111 14.455C24.1111 19.7874 19.7884 24.1101 14.456 24.1101C9.12355 24.1101 4.80078 19.7874 4.80078 14.455Z" stroke="currentColor" stroke-width="2.5" stroke-linecap="round" stroke-linejoin="round"/>
<path d="M23.2016 16.8002C23.2016 17.6962 21.0774 24.0002 14.4016 24.0002C7.7257 24.0002 5.60156 17.6962 5.60156 16.8002C5.60156 15.9042 7.7257 11.2002 14.4016 11.2002C21.0774 11.2002 23.2016 15.9042 23.2016 16.8002Z" stroke="currentColor" stroke-width="2.5" stroke-linecap="round" stroke-linejoin="round"/>
<path d="M14.4008 19.2C15.2844 19.2 16.0008 18.4837 16.0008 17.6C16.0008 16.7163 15.2844 16 14.4008 16C13.5171 16 12.8008 16.7163 12.8008 17.6C12.8008 18.4837 13.5171 19.2 14.4008 19.2Z" stroke="currentColor" stroke-width="2" stroke-linecap="round" stroke-linejoin="round"/>
</svg>
