<svg width="100%" height="100%" viewBox="0 0 13 12" fill="none" xmlns="http://www.w3.org/2000/svg">
<path fill-rule="evenodd" clip-rule="evenodd" d="M11.9372 11.0089L8.6927 7.86258C9.37273 7.048 9.78008 6.01055 9.78008 4.88084C9.78008 2.26181 7.59073 0.138672 4.89004 0.138672C2.18935 0.138672 0 2.26181 0 4.88084C0 7.49987 2.18935 9.62302 4.89004 9.62302C6.05497 9.62302 7.12477 9.22799 7.96475 8.56852L11.2092 11.7149C11.4108 11.9104 11.7371 11.9107 11.9381 11.7158C12.1405 11.5195 12.1387 11.2044 11.9372 11.0089ZM8.74956 4.8804C8.74956 6.94806 7.02112 8.62423 4.889 8.62423C2.75687 8.62423 1.02844 6.94806 1.02844 4.8804C1.02844 2.81275 2.75687 1.13658 4.889 1.13658C7.02112 1.13658 8.74956 2.81275 8.74956 4.8804Z" fill="currentColor"/>
</svg>
