<svg width="100%" height="100%" viewBox="0 0 59 32" fill="none" xmlns="http://www.w3.org/2000/svg">
<path d="M59 1.67999C59 0.921979 58.1896 0.439565 57.5232 0.800956L3.46446 30.121C2.55266 30.6155 2.90395 32 3.94123 32H58C58.5523 32 59 31.5523 59 31V1.67999Z" fill="url(#paint0_radial_4704_90154)" fill-opacity="0.35"/>
<path d="M29.5 32C29.7761 32 30 31.7761 30 31.5L30 7.5C30 7.22386 29.7761 7 29.5 7C29.2239 7 29 7.22386 29 7.5L29 31.5C29 31.7761 29.2239 32 29.5 32Z" fill="url(#paint1_linear_4704_90154)"/>
<path d="M31.7682 5.27813C31.918 5.09842 32 4.87189 32 4.63795L32 2C32 0.895431 31.1046 -3.91405e-08 30 -8.74228e-08L29 -1.31134e-07C27.8954 -1.79416e-07 27 0.89543 27 2L27 4.63795C27 4.87189 27.082 5.09842 27.2318 5.27813L28.7318 7.07814C29.1316 7.55789 29.8684 7.55789 30.2682 7.07813L31.7682 5.27813Z" fill="currentColor"/>
<defs>
<radialGradient id="paint0_radial_4704_90154" cx="0" cy="0" r="1" gradientUnits="userSpaceOnUse" gradientTransform="translate(61.95) rotate(149.388) scale(62.8411 40.1961)">
<stop stop-color="currentColor"/>
<stop offset="1" stop-color="currentColor" stop-opacity="0.2"/>
</radialGradient>
<linearGradient id="paint1_linear_4704_90154" x1="29.0001" y1="7.76087" x2="29.0001" y2="28" gradientUnits="userSpaceOnUse">
<stop stop-color="currentColor"/>
<stop offset="1" stop-color="currentColor" stop-opacity="0.3"/>
</linearGradient>
</defs>
</svg>
