<svg width="16" height="16" viewBox="0 0 16 16" fill="none" xmlns="http://www.w3.org/2000/svg">
    <rect width="16" height="16" rx="8" fill="#D86371" fill-opacity="0.25" />
    <path
        d="M5.64507 10.3599C5.74143 10.4522 5.90556 10.4384 6.0126 10.3287L9.85724 6.48407L9.66262 9.28398C9.65466 9.37826 9.69783 9.46232 9.77534 9.50405C9.85329 9.54622 9.95368 9.53926 10.0383 9.48582C10.1223 9.43289 10.1776 9.342 10.1827 9.24792L10.4203 5.82132C10.4298 5.67842 10.3212 5.56987 10.1783 5.5793L6.7517 5.81689C6.65763 5.82199 6.56673 5.87729 6.5138 5.96136C6.46036 6.04594 6.4534 6.14633 6.49557 6.22428C6.5373 6.30179 6.62136 6.34496 6.71564 6.337L9.51556 6.14239L5.67092 9.98702C5.61731 10.0397 5.58399 10.1087 5.5796 10.1789C5.57425 10.2492 5.59829 10.3141 5.64507 10.3599Z"
        fill="#D86371" stroke="#D86371" stroke-linecap="round" stroke-linejoin="round" />
</svg>