<svg width="100%" height="100%" viewBox="0 0 16 10" fill="none" xmlns="http://www.w3.org/2000/svg">
    <path
        d="M15.3793 3.89011L10.2232 0.323686C9.9511 0.139899 9.63036 0.0297358 9.296 0.00522347C8.96165 -0.0192889 8.62654 0.0427924 8.32726 0.184689C8.07278 0.295625 7.85694 0.471746 7.70464 0.692735C7.55234 0.913724 7.46978 1.17058 7.46648 1.43366V3.58362L2.75673 0.323686C2.48462 0.139899 2.16388 0.0297358 1.82952 0.00522347C1.49517 -0.0192889 1.16006 0.0427924 0.860779 0.184689C0.606302 0.295625 0.390463 0.471746 0.23816 0.692735C0.0858567 0.913724 0.00329528 1.17058 0 1.43366V8.56651C0.00309509 8.82977 0.0855626 9.08683 0.237877 9.30801C0.390192 9.5292 0.60614 9.70547 0.860779 9.81648C1.11828 9.93765 1.40251 10.0005 1.69062 9.99998C2.07394 10.0015 2.44772 9.88795 2.75726 9.67599L7.46648 6.41906V8.56901C7.46958 8.83227 7.55204 9.08933 7.70436 9.31052C7.85667 9.5317 8.07262 9.70797 8.32726 9.81898C8.58499 9.93928 8.8692 10.0013 9.1571 9.99998C9.54042 10.0015 9.9142 9.88795 10.2237 9.67599L15.3799 6.11006C15.5713 5.9858 15.7277 5.81989 15.8357 5.62655C15.9437 5.43321 16.0001 5.2182 16 4.99996C15.9999 4.78171 15.9435 4.56672 15.8354 4.37343C15.7273 4.18013 15.5708 4.01429 15.3793 3.89011ZM7.27928 5.30558L2.12315 8.8715C2.00962 8.94487 1.87711 8.98823 1.73954 8.99703C1.60197 9.00583 1.46441 8.97974 1.3413 8.9215C1.26494 8.89199 1.19882 8.84317 1.15032 8.78049C1.10183 8.7178 1.07285 8.64373 1.06664 8.56651V1.43366C1.07261 1.35613 1.10153 1.28169 1.15015 1.21872C1.19876 1.15574 1.26514 1.10672 1.34183 1.07717C1.45181 1.02634 1.57281 0.99999 1.69542 1.00017C1.84861 0.998831 1.99819 1.04371 2.12208 1.12817L7.27822 4.69409C7.33526 4.72518 7.38262 4.76975 7.41558 4.82334C7.44853 4.87693 7.46593 4.93769 7.46603 4.99955C7.46614 5.06141 7.44896 5.12222 7.41619 5.17591C7.38342 5.22961 7.33622 5.27431 7.27928 5.30558ZM14.7458 5.30558L9.58963 8.8715C9.4761 8.94487 9.34359 8.98823 9.20602 8.99703C9.06845 9.00583 8.93089 8.97974 8.80778 8.9215C8.73142 8.89199 8.6653 8.84317 8.6168 8.78049C8.56831 8.7178 8.53933 8.64373 8.53312 8.56651V1.43366C8.53909 1.35613 8.56801 1.28169 8.61663 1.21872C8.66524 1.15574 8.73162 1.10672 8.80831 1.07717C8.91829 1.02634 9.03929 0.99999 9.16191 1.00017C9.31509 0.998831 9.46467 1.04371 9.58856 1.12817L14.7447 4.69409C14.8017 4.72518 14.8491 4.76975 14.8821 4.82334C14.915 4.87693 14.9324 4.93769 14.9325 4.99955C14.9326 5.06141 14.9154 5.12222 14.8827 5.17591C14.8499 5.22961 14.8027 5.27431 14.7458 5.30558Z"
        fill="currentColor" />
</svg>