<svg xmlns="http://www.w3.org/2000/svg" width="18" height="18" viewBox="0 0 18 18" fill="none">
  <path d="M6.75012 2.625C4.71152 2.625 2.99831 3.26883 1.8136 4.4751C0.628886 5.68137 0.000120911 7.41843 0.000120911 9.48779C0.000327907 9.57989 0.0231427 9.67053 0.0665621 9.75175C0.109981 9.83297 0.172677 9.90228 0.249144 9.95361C0.249144 9.95361 0.492329 10.1067 0.903929 10.3125C0.047073 12.5318 0.000120911 14.8008 0.000120911 14.8008C-0.00143109 14.8756 0.0119716 14.95 0.0395434 15.0196C0.0671153 15.0892 0.108302 15.1526 0.160689 15.2061C0.213077 15.2596 0.275612 15.3021 0.344629 15.3311C0.413646 15.3601 0.487758 15.375 0.562621 15.375H3.46741C3.5551 15.3749 3.64157 15.3544 3.71991 15.315C3.79824 15.2755 3.86628 15.2183 3.91858 15.1479C3.91858 15.1479 4.20512 14.4893 4.43567 13.9849C4.97122 14.2594 5.83469 14.625 7.15735 14.625C8.49141 14.625 9.37556 14.2557 9.91858 13.9834C10.1429 14.4862 10.424 15.1362 10.424 15.1362C10.476 15.2102 10.5451 15.2705 10.6254 15.3121C10.7058 15.3536 10.7949 15.3752 10.8854 15.375H13.6876C13.8368 15.375 13.9799 15.3157 14.0854 15.2102C14.1908 15.1047 14.2501 14.9617 14.2501 14.8125C14.2501 13.7925 13.9657 12.9889 13.7433 12.457C14.1708 12.373 14.742 12.3133 15.8702 11.7495C17.5377 10.9167 18.0001 9.04541 18.0001 7.5C18.0001 7.18621 17.8127 6.96503 17.6515 6.83789C17.4903 6.71075 17.3201 6.63418 17.1359 6.56982C16.7674 6.44112 16.3385 6.37354 15.9039 6.37354C14.8447 6.37354 14.0476 7.12415 13.4781 7.78125C13.437 7.8287 13.4057 7.87327 13.3668 7.92041C13.1259 6.53808 12.5579 5.36222 11.6866 4.4751C10.5019 3.26883 8.78873 2.625 6.75012 2.625ZM6.75012 3.75C8.55602 3.75 9.936 4.29802 10.8839 5.26318C11.769 6.16438 12.2572 7.49488 12.3239 9.16406C11.948 9.39762 10.0839 10.5 6.75012 10.5C3.41638 10.5 1.55223 9.39762 1.17639 9.16406C1.24302 7.49488 1.73124 6.16438 2.61633 5.26318C3.56425 4.29802 4.94423 3.75 6.75012 3.75ZM15.9039 7.49854C16.2134 7.49854 16.5514 7.55766 16.7638 7.63184C16.8094 7.64778 16.8147 7.65475 16.8458 7.66992C16.8129 8.93738 16.4461 10.2046 15.3678 10.7432C14.0527 11.4003 12.9156 11.5649 12.9156 11.5649C12.8275 11.5778 12.7437 11.6114 12.6711 11.6629C12.5985 11.7144 12.5392 11.7825 12.498 11.8614C12.4568 11.9403 12.435 12.0279 12.4342 12.117C12.4335 12.206 12.4539 12.2939 12.4938 12.3735C12.4938 12.3735 12.8679 13.3045 13.0167 14.25H11.2413C11.141 14.0927 10.9052 13.7662 10.7404 13.0942C10.7191 13.0071 10.6774 12.9263 10.6186 12.8586C10.5598 12.7909 10.4857 12.7382 10.4024 12.705C10.3191 12.6717 10.2291 12.6588 10.1398 12.6674C10.0506 12.676 9.96468 12.7059 9.88928 12.7544C9.88928 12.7544 8.71744 13.5 7.15735 13.5C5.59725 13.5 4.48254 12.7603 4.48254 12.7603C4.40619 12.7092 4.31849 12.6776 4.22712 12.6683C4.13574 12.6589 4.04347 12.6721 3.95836 12.7066C3.87325 12.7412 3.79789 12.796 3.73887 12.8664C3.67984 12.9368 3.63895 13.0205 3.61975 13.1104C3.4842 13.7438 3.22131 14.0924 3.11584 14.25H1.18225C1.22364 13.6285 1.35146 12.2708 1.93225 10.7607C3.06 11.1878 4.70593 11.625 6.75012 11.625C10.7482 11.625 13.2511 9.95361 13.2511 9.95361C13.3167 9.90906 13.3721 9.85116 13.4137 9.78369L13.4152 9.78223C13.4628 9.73998 13.5029 9.68995 13.5338 9.63428C13.5338 9.63428 13.8462 9.07372 14.3278 8.51807C14.8093 7.96241 15.443 7.49854 15.9039 7.49854Z" fill="url(#paint0_linear_20478_6463)"/>
  <defs>
    <linearGradient id="paint0_linear_20478_6463" x1="9.00006" y1="2.625" x2="9.00006" y2="15.375" gradientUnits="userSpaceOnUse">
      <stop stop-color="var(--primary)"/>
      <stop offset="1" stop-color="var(--secondary)"/>
    </linearGradient>
  </defs>
</svg>