<svg xmlns="http://www.w3.org/2000/svg" width="8" height="8" viewBox="0 0 8 8" fill="none">
<path d="M3.71468 0.878114C3.80449 0.601721 4.19551 0.601722 4.28532 0.878115L4.8307 2.55664C4.87086 2.68024 4.98605 2.76393 5.11602 2.76393H6.88092C7.17154 2.76393 7.29237 3.13582 7.05726 3.30664L5.62942 4.34402C5.52427 4.42041 5.48028 4.55582 5.52044 4.67943L6.06582 6.35795C6.15563 6.63434 5.83929 6.86418 5.60417 6.69336L4.17634 5.65598C4.07119 5.57959 3.92881 5.57959 3.82366 5.65598L2.39583 6.69336C2.16071 6.86418 1.84437 6.63435 1.93418 6.35795L2.47956 4.67943C2.51972 4.55582 2.47573 4.42041 2.37058 4.34402L0.942743 3.30664C0.707629 3.13582 0.828462 2.76393 1.11908 2.76393H2.88398C3.01395 2.76393 3.12914 2.68024 3.1693 2.55664L3.71468 0.878114Z" fill="currentColor"/>
</svg>