<svg width="100%" height="100%" viewBox="0 0 18 17" fill="none" xmlns="http://www.w3.org/2000/svg">
<path d="M8.76177 1.22231C8.83567 0.99005 9.16433 0.990042 9.23823 1.22231L10.4774 5.11681C10.7085 5.84302 11.3829 6.33621 12.145 6.33621H16.0855C16.3235 6.33621 16.4268 6.6374 16.2389 6.78354L12.8589 9.41249C12.3012 9.84622 12.0591 10.5727 12.2449 11.2543L13.3109 15.1627C13.375 15.3979 13.0989 15.5764 12.9107 15.4214L10.1125 13.117C9.46629 12.5848 8.53371 12.5848 7.88751 13.117L5.08926 15.4214C4.90106 15.5764 4.62499 15.3979 4.68914 15.1627L5.75506 11.2543C5.94094 10.5727 5.69878 9.84622 5.14112 9.41248L1.76105 6.78354C1.57316 6.6374 1.67649 6.33621 1.91454 6.33621H5.85499C6.61708 6.33621 7.29154 5.84302 7.52261 5.11681L8.76177 1.22231Z" stroke="currentColor" stroke-width="1.5" stroke-linecap="round" stroke-linejoin="round"/>
</svg>
