<svg width="16" height="12" viewBox="0 0 16 12" fill="none" xmlns="http://www.w3.org/2000/svg">
<path d="M5.57843 0.373764C5.23406 0.373764 4.95593 0.67626 4.95593 1.05189V2.41626C4.95593 2.79127 5.23344 3.09439 5.57843 3.09439H14.4696C14.814 3.09439 15.0921 2.79127 15.0921 2.41626V1.05189C15.0921 0.676884 14.814 0.373764 14.4696 0.373764H5.57843Z" fill="currentColor"/>
<path d="M5.57843 4.6469C5.23406 4.6469 4.95593 4.94877 4.95593 5.32502V6.68877C4.95593 7.06502 5.23344 7.36627 5.57843 7.36627H14.4696C14.814 7.36627 15.0921 7.0644 15.0921 6.68877V5.32502C15.0921 4.94877 14.814 4.6469 14.4696 4.6469H5.57843Z" fill="currentColor"/>
<path d="M5.57843 8.91936C5.23406 8.91936 4.95593 9.22185 4.95593 9.59748V10.9612C4.95593 11.3369 5.23344 11.6394 5.57843 11.6394H14.4696C14.814 11.6394 15.0921 11.3375 15.0921 10.9612V9.59748C15.0921 9.22248 14.814 8.91936 14.4696 8.91936H5.57843Z" fill="currentColor"/>
<path d="M2.31007 8.91936C1.95007 8.91936 1.60382 9.06311 1.3482 9.31748C1.09319 9.57312 0.950073 9.91873 0.950073 10.2794C0.950073 10.6406 1.09382 10.9862 1.34883 11.2406C1.60383 11.4962 1.95007 11.6394 2.31007 11.6387C3.06132 11.6387 3.6707 11.0306 3.6707 10.2794C3.6707 9.91873 3.52695 9.5731 3.27257 9.31748C3.01631 9.06312 2.67132 8.91936 2.31007 8.91936Z" fill="currentColor"/>
<path d="M2.31007 4.64688C1.95007 4.64688 1.60382 4.79001 1.3482 5.04563C1.09319 5.3 0.950073 5.64626 0.950073 6.00751C0.950073 6.36751 1.09382 6.71376 1.34883 6.96813C1.60383 7.22314 1.95007 7.36688 2.31007 7.36688C3.06132 7.36688 3.6707 6.75813 3.6707 6.00751C3.6707 5.64626 3.52695 5.30063 3.27257 5.04501C3.01631 4.79064 2.67132 4.64688 2.31007 4.64688Z" fill="currentColor"/>
<path d="M2.31007 0.373764C1.95007 0.373764 1.60382 0.517514 1.34883 0.772516C1.09319 1.02752 0.950073 1.37314 0.950073 1.73376C0.950073 2.09439 1.0932 2.44064 1.34758 2.69626C1.60383 2.95063 1.95007 3.09439 2.31007 3.09439C2.6707 3.09439 3.01633 2.95064 3.27195 2.69501C3.52695 2.44064 3.67007 2.09439 3.67007 1.73376C3.67007 0.98314 3.06132 0.373764 2.31007 0.373764Z" fill="currentColor"/>
</svg>
