<svg width="100%" height="100%" viewBox="0 0 24 6" fill="none" xmlns="http://www.w3.org/2000/svg">
<path d="M14.4 3.0001C14.4 4.32562 13.3255 5.4001 12 5.4001C10.6745 5.4001 9.60001 4.32562 9.60001 3.0001C9.60001 1.67458 10.6745 0.600098 12 0.600098C13.3255 0.600098 14.4 1.67458 14.4 3.0001Z" fill="currentColor" fill-opacity="0.8"/>
<path d="M4.8 3.0001C4.8 4.32562 3.72547 5.4001 2.4 5.4001C1.07453 5.4001 0 4.32562 0 3.0001C0 1.67458 1.07453 0.600098 2.4 0.600098C3.72547 0.600098 4.8 1.67458 4.8 3.0001Z" fill="currentColor" fill-opacity="0.8"/>
<path d="M24 3.0001C24 4.32562 22.9255 5.4001 21.6 5.4001C20.2745 5.4001 19.2 4.32562 19.2 3.0001C19.2 1.67458 20.2745 0.600098 21.6 0.600098C22.9255 0.600098 24 1.67458 24 3.0001Z" fill="currentColor" fill-opacity="0.8"/>
</svg>
