<svg width="100%" height="100%" viewBox="0 0 14 14" fill="currentColor" xmlns="http://www.w3.org/2000/svg">
<path d="M0.267242 0.235624C0.606957 -0.0938109 1.16562 -0.0702758 1.50532 0.259155L6.99253 5.79214L12.504 0.259155C12.8437 -0.07028 13.4024 -0.0938011 13.7421 0.235624C14.0818 0.56506 14.0818 1.08328 13.7664 1.43624L8.20634 6.99276L13.7664 12.5728C14.0818 12.9023 14.0818 13.444 13.7421 13.7734C13.4024 14.0793 12.8437 14.0793 12.504 13.7499L6.99253 8.21691L1.50532 13.7499C1.1656 14.0793 0.606943 14.0793 0.267242 13.7734C-0.072473 13.444 -0.0967281 12.9022 0.242977 12.5728L5.803 6.99276L0.242977 1.43624C-0.0967382 1.08328 -0.0724687 0.565046 0.267242 0.235624Z" />
</svg>
