<svg width="18" height="18" viewBox="0 0 18 18" fill="none" xmlns="http://www.w3.org/2000/svg">
  <path d="M6.5625 6.9375V4.875M6.5625 4.875C6.5625 5.59988 8.32538 6.1875 10.5 6.1875C12.6746 6.1875 14.4375 5.59988 14.4375 4.875M6.5625 4.875C6.5625 4.15013 8.32538 3.5625 10.5 3.5625C12.6746 3.5625 14.4375 4.15013 14.4375 4.875M14.4375 4.875V7.875C14.4375 8.1993 14.0847 8.49608 13.5 8.72513" stroke="currentColor" stroke-width="1.5" stroke-linecap="round" stroke-linejoin="round"/>
  <path d="M11.4375 10.125V13.125C11.4375 13.8499 9.67462 14.4375 7.5 14.4375C5.32538 14.4375 3.5625 13.8499 3.5625 13.125V10.125M11.4375 10.125C11.4375 10.8499 9.67462 11.4375 7.5 11.4375C5.32538 11.4375 3.5625 10.8499 3.5625 10.125M11.4375 10.125C11.4375 9.40013 9.67462 8.8125 7.5 8.8125C5.32538 8.8125 3.5625 9.40013 3.5625 10.125" stroke="currentColor" stroke-width="1.5" stroke-linecap="round" stroke-linejoin="round"/>
</svg>