<svg width="100%" height="100%" viewBox="0 0 18 18" fill="none" xmlns="http://www.w3.org/2000/svg">
<path d="M9 0C4.0377 0 0 4.0377 0 9C0 13.9623 4.0377 18 9 18C13.9623 18 18 13.9623 18 9C18 4.0377 13.9623 0 9 0ZM9 1.35C13.2328 1.35 16.65 4.76719 16.65 9C16.65 13.2328 13.2328 16.65 9 16.65C4.76719 16.65 1.35 13.2328 1.35 9C1.35 4.76719 4.76719 1.35 9 1.35ZM9 4.5C8.50254 4.5 8.1 4.90254 8.1 5.4C8.1 5.89746 8.50254 6.3 9 6.3C9.49746 6.3 9.9 5.89746 9.9 5.4C9.9 4.90254 9.49746 4.5 9 4.5ZM8.98945 7.64121C8.6168 7.64648 8.31973 7.95234 8.325 8.325V13.275C8.32148 13.5176 8.4498 13.7443 8.65898 13.8674C8.86992 13.9904 9.13008 13.9904 9.34102 13.8674C9.55019 13.7443 9.67852 13.5176 9.675 13.275V8.325C9.67676 8.14219 9.60644 7.96641 9.47637 7.83809C9.34805 7.70801 9.17227 7.63769 8.98945 7.64121Z" fill="currentColor" fill-opacity="1"/>
</svg>
