<svg viewBox="0 0 14 14" fill="none" xmlns="http://www.w3.org/2000/svg">
  <path d="M10.3862 0.0260581C10.1686 0.0468394 9.98266 0.193402 9.91156 0.400121C9.83937 0.607933 9.89516 0.837621 10.0537 0.988558L11.865 2.79981H0.559999C0.542499 2.79871 0.524999 2.79871 0.507499 2.79981C0.197967 2.81403 -0.0404699 3.07653 -0.0262512 3.38606C-0.0120325 3.69559 0.250467 3.93403 0.559999 3.91981H11.865L10.0537 5.73106C9.90719 5.87106 9.84703 6.07887 9.89734 6.27575C9.94766 6.47153 10.0997 6.62575 10.2955 6.67825C10.4912 6.73075 10.7002 6.67278 10.8412 6.52731L14.0087 3.35981L10.8412 0.192308C10.7231 0.0709018 10.5558 0.00965185 10.3862 0.0260581ZM3.5 7.30606C3.37312 7.32246 3.25609 7.38043 3.1675 7.47231L-1.22376e-06 10.6398L3.1675 13.8073C3.30859 13.9528 3.5175 14.0107 3.71328 13.9582C3.90906 13.9057 4.06109 13.7515 4.1114 13.5557C4.16172 13.3589 4.10156 13.1511 3.955 13.0111L2.14375 11.1998H13.44C13.6423 11.2031 13.8294 11.097 13.9311 10.922C14.0339 10.7481 14.0339 10.5315 13.9311 10.3576C13.8294 10.1826 13.6423 10.0765 13.44 10.0798H2.14375L3.955 8.26856C4.13109 8.10231 4.18031 7.8409 4.07641 7.62215C3.9725 7.4034 3.74062 7.27543 3.5 7.30606Z" fill="currentColor"/>
</svg>