<svg width="100%" height="100%" viewBox="0 0 59 32" fill="none" xmlns="http://www.w3.org/2000/svg">
<path d="M0 8.18996C0 7.33304 1.00736 6.87305 1.65493 7.43427L27.9742 30.2443C28.6737 30.8506 28.245 32 27.3193 32H1C0.447716 32 0 31.5523 0 31V8.18996Z" fill="url(#paint0_radial_4704_89839)" fill-opacity="0.35"/>
<path d="M59 8.18996C59 7.33304 57.9926 6.87305 57.3451 7.43427L31.0258 30.2443C30.3263 30.8506 30.755 32 31.6807 32H58C58.5523 32 59 31.5523 59 31V8.18996Z" fill="url(#paint1_radial_4704_89839)" fill-opacity="0.35"/>
<rect width="10" height="27" transform="matrix(-1 0 0 1 23 5)" fill="url(#paint2_linear_4704_89839)" fill-opacity="0.25"/>
<path d="M23.5 32C23.7761 32 24 31.7761 24 31.5L24 7.5C24 7.22386 23.7761 7 23.5 7C23.2239 7 23 7.22386 23 7.5L23 31.5C23 31.7761 23.2239 32 23.5 32Z" fill="url(#paint3_linear_4704_89839)"/>
<path d="M12.5 32C12.7761 32 13 31.7761 13 31.5L13 7.5C13 7.22386 12.7761 7 12.5 7C12.2239 7 12 7.22386 12 7.5L12 31.5C12 31.7761 12.2239 32 12.5 32Z" fill="url(#paint4_linear_4704_89839)"/>
<path d="M25.7682 5.27813C25.918 5.09842 26 4.87189 26 4.63795L26 2C26 0.895431 25.1046 -3.91405e-08 24 -8.74228e-08L23 -1.31134e-07C21.8954 -1.79416e-07 21 0.89543 21 2L21 4.63795C21 4.87189 21.082 5.09842 21.2318 5.27813L22.7318 7.07814C23.1316 7.55789 23.8684 7.55789 24.2682 7.07813L25.7682 5.27813Z" fill="#00B578"/>
<path d="M14.7682 5.27813C14.918 5.09842 15 4.87189 15 4.63795L15 2C15 0.895431 14.1046 -3.91405e-08 13 -8.74228e-08L12 -1.31134e-07C10.8954 -1.79416e-07 10 0.89543 10 2L10 4.63795C10 4.87189 10.082 5.09842 10.2318 5.27813L11.7318 7.07814C12.1316 7.55789 12.8684 7.55789 13.2682 7.07813L14.7682 5.27813Z" fill="#00B578"/>
<rect width="10" height="27" transform="matrix(-1 0 0 1 47 5)" fill="url(#paint5_linear_4704_89839)" fill-opacity="0.25"/>
<path d="M47.5 32C47.7761 32 48 31.7761 48 31.5L48 7.5C48 7.22386 47.7761 7 47.5 7C47.2239 7 47 7.22386 47 7.5L47 31.5C47 31.7761 47.2239 32 47.5 32Z" fill="url(#paint6_linear_4704_89839)"/>
<path d="M36.5 32C36.7761 32 37 31.7761 37 31.5L37 7.5C37 7.22386 36.7761 7 36.5 7C36.2239 7 36 7.22386 36 7.5L36 31.5C36 31.7761 36.2239 32 36.5 32Z" fill="url(#paint7_linear_4704_89839)"/>
<path d="M49.7682 5.27813C49.918 5.09842 50 4.87189 50 4.63795L50 2C50 0.895431 49.1046 -3.91405e-08 48 -8.74228e-08L47 -1.31134e-07C45.8954 -1.79416e-07 45 0.89543 45 2L45 4.63795C45 4.87189 45.082 5.09842 45.2318 5.27813L46.7318 7.07814C47.1316 7.55789 47.8684 7.55789 48.2682 7.07813L49.7682 5.27813Z" fill="#D86371"/>
<path d="M38.7682 5.27813C38.918 5.09842 39 4.87189 39 4.63795L39 2C39 0.895431 38.1046 -3.91405e-08 37 -8.74228e-08L36 -1.31134e-07C34.8954 -1.79416e-07 34 0.89543 34 2L34 4.63795C34 4.87189 34.082 5.09842 34.2318 5.27813L35.7318 7.07814C36.1316 7.55789 36.8684 7.55789 37.2682 7.07813L38.7682 5.27813Z" fill="#D86371"/>
<defs>
<radialGradient id="paint0_radial_4704_89839" cx="0" cy="0" r="1" gradientUnits="userSpaceOnUse" gradientTransform="translate(0.500001 8.5) rotate(44.3969) scale(33.5894 24.0501)">
<stop stop-color="#00B578"/>
<stop offset="1" stop-color="#00B578" stop-opacity="0.2"/>
</radialGradient>
<radialGradient id="paint1_radial_4704_89839" cx="0" cy="0" r="1" gradientUnits="userSpaceOnUse" gradientTransform="translate(60.5 6) rotate(136.606) scale(37.8451 27.5747)">
<stop stop-color="#D86371"/>
<stop offset="1" stop-color="#D86371" stop-opacity="0.2"/>
</radialGradient>
<linearGradient id="paint2_linear_4704_89839" x1="5" y1="0" x2="5" y2="27" gradientUnits="userSpaceOnUse">
<stop stop-color="#00B578"/>
<stop offset="1" stop-color="#00B578" stop-opacity="0.3"/>
</linearGradient>
<linearGradient id="paint3_linear_4704_89839" x1="23.0001" y1="7.76087" x2="23.0001" y2="28" gradientUnits="userSpaceOnUse">
<stop stop-color="#00B578"/>
<stop offset="1" stop-color="#00B578" stop-opacity="0.3"/>
</linearGradient>
<linearGradient id="paint4_linear_4704_89839" x1="12.0001" y1="7.76087" x2="12.0001" y2="28" gradientUnits="userSpaceOnUse">
<stop stop-color="#00B578"/>
<stop offset="1" stop-color="#00B578" stop-opacity="0.3"/>
</linearGradient>
<linearGradient id="paint5_linear_4704_89839" x1="5" y1="0" x2="5" y2="27" gradientUnits="userSpaceOnUse">
<stop stop-color="#D86371"/>
<stop offset="1" stop-color="#D86371" stop-opacity="0.3"/>
</linearGradient>
<linearGradient id="paint6_linear_4704_89839" x1="47.0001" y1="7.76087" x2="47.0001" y2="28" gradientUnits="userSpaceOnUse">
<stop stop-color="#D86371"/>
<stop offset="1" stop-color="#D86371" stop-opacity="0.3"/>
</linearGradient>
<linearGradient id="paint7_linear_4704_89839" x1="36.0001" y1="7.76087" x2="36.0001" y2="28" gradientUnits="userSpaceOnUse">
<stop stop-color="#D86371"/>
<stop offset="1" stop-color="#D86371" stop-opacity="0.3"/>
</linearGradient>
</defs>
</svg>
