<svg xmlns="http://www.w3.org/2000/svg" width="72" height="32" viewBox="0 0 72 32" fill="none">
  <g opacity="0.75">
    <path opacity="0.55" d="M0 32H72V31H0V32Z" fill="white" fill-opacity="0.25"/>
    <path d="M5 8.18996C5 7.33304 6.00736 6.87305 6.65493 7.43427L32.9742 30.2443C33.6737 30.8506 33.245 32 32.3193 32H6C5.44772 32 5 31.5523 5 31V8.18996Z" fill="url(#paint0_radial_10937_170167)" fill-opacity="0.35"/>
    <path d="M64 8.18996C64 7.33304 62.9926 6.87305 62.3451 7.43427L36.0258 30.2443C35.3263 30.8506 35.755 32 36.6807 32H63C63.5523 32 64 31.5523 64 31V8.18996Z" fill="url(#paint1_radial_10937_170167)" fill-opacity="0.35"/>
    <rect width="10" height="27" transform="matrix(-1 0 0 1 26 5)" fill="url(#paint2_linear_10937_170167)" fill-opacity="0.25"/>
    <path d="M26.5 32C26.7761 32 27 31.7761 27 31.5L27 7.5C27 7.22386 26.7761 7 26.5 7V7C26.2239 7 26 7.22386 26 7.5L26 31.5C26 31.7761 26.2239 32 26.5 32V32Z" fill="url(#paint3_linear_10937_170167)"/>
    <path d="M15.5 32C15.7761 32 16 31.7761 16 31.5L16 7.5C16 7.22386 15.7761 7 15.5 7V7C15.2239 7 15 7.22386 15 7.5L15 31.5C15 31.7761 15.2239 32 15.5 32V32Z" fill="url(#paint4_linear_10937_170167)"/>
    <path d="M28.7682 5.27813C28.918 5.09842 29 4.87189 29 4.63795L29 2C29 0.89543 28.1046 -3.91405e-08 27 -8.74228e-08L26 -1.31134e-07C24.8954 -1.79416e-07 24 0.89543 24 2L24 4.63795C24 4.87189 24.082 5.09842 24.2318 5.27813L25.7318 7.07814C26.1316 7.55789 26.8684 7.55789 27.2682 7.07813L28.7682 5.27813Z" fill="#00B578"/>
    <path d="M17.7682 5.27813C17.918 5.09842 18 4.87189 18 4.63795L18 2C18 0.89543 17.1046 -3.91405e-08 16 -8.74228e-08L15 -1.31134e-07C13.8954 -1.79416e-07 13 0.89543 13 2L13 4.63795C13 4.87189 13.082 5.09842 13.2318 5.27813L14.7318 7.07814C15.1316 7.55789 15.8684 7.55789 16.2682 7.07813L17.7682 5.27813Z" fill="#00B578"/>
    <rect width="10" height="27" transform="matrix(-1 0 0 1 54 5)" fill="url(#paint5_linear_10937_170167)" fill-opacity="0.25"/>
    <path d="M54.5 32C54.7761 32 55 31.7761 55 31.5L55 7.5C55 7.22386 54.7761 7 54.5 7V7C54.2239 7 54 7.22386 54 7.5L54 31.5C54 31.7761 54.2239 32 54.5 32V32Z" fill="url(#paint6_linear_10937_170167)"/>
    <path d="M43.5 32C43.7761 32 44 31.7761 44 31.5L44 7.5C44 7.22386 43.7761 7 43.5 7V7C43.2239 7 43 7.22386 43 7.5L43 31.5C43 31.7761 43.2239 32 43.5 32V32Z" fill="url(#paint7_linear_10937_170167)"/>
    <path d="M56.7682 5.27813C56.918 5.09842 57 4.87189 57 4.63795L57 2C57 0.89543 56.1046 -3.91405e-08 55 -8.74228e-08L54 -1.31134e-07C52.8954 -1.79416e-07 52 0.89543 52 2L52 4.63795C52 4.87189 52.082 5.09842 52.2318 5.27813L53.7318 7.07814C54.1316 7.55789 54.8684 7.55789 55.2682 7.07813L56.7682 5.27813Z" fill="#D86371"/>
    <path d="M45.7682 5.27813C45.918 5.09842 46 4.87189 46 4.63795L46 2C46 0.89543 45.1046 -3.91405e-08 44 -8.74228e-08L43 -1.31134e-07C41.8954 -1.79416e-07 41 0.89543 41 2L41 4.63795C41 4.87189 41.082 5.09842 41.2318 5.27813L42.7318 7.07814C43.1316 7.55789 43.8684 7.55789 44.2682 7.07813L45.7682 5.27813Z" fill="#D86371"/>
  </g>
  <defs>
    <radialGradient id="paint0_radial_10937_170167" cx="0" cy="0" r="1" gradientUnits="userSpaceOnUse" gradientTransform="translate(5.5 8.5) rotate(44.3969) scale(33.5894 24.0501)">
      <stop stop-color="#00B578"/>
      <stop offset="1" stop-color="#00B578" stop-opacity="0.2"/>
    </radialGradient>
    <radialGradient id="paint1_radial_10937_170167" cx="0" cy="0" r="1" gradientUnits="userSpaceOnUse" gradientTransform="translate(65.5 6) rotate(136.606) scale(37.8451 27.5747)">
      <stop stop-color="#D86371"/>
      <stop offset="1" stop-color="#D86371" stop-opacity="0.2"/>
    </radialGradient>
    <linearGradient id="paint2_linear_10937_170167" x1="5" y1="0" x2="5" y2="27" gradientUnits="userSpaceOnUse">
      <stop stop-color="#00B578"/>
      <stop offset="1" stop-color="#00B578" stop-opacity="0.3"/>
    </linearGradient>
    <linearGradient id="paint3_linear_10937_170167" x1="26.0001" y1="7.76087" x2="26.0001" y2="28" gradientUnits="userSpaceOnUse">
      <stop stop-color="#00B578"/>
      <stop offset="1" stop-color="#00B578" stop-opacity="0.3"/>
    </linearGradient>
    <linearGradient id="paint4_linear_10937_170167" x1="15.0001" y1="7.76087" x2="15.0001" y2="28" gradientUnits="userSpaceOnUse">
      <stop stop-color="#00B578"/>
      <stop offset="1" stop-color="#00B578" stop-opacity="0.3"/>
    </linearGradient>
    <linearGradient id="paint5_linear_10937_170167" x1="5" y1="0" x2="5" y2="27" gradientUnits="userSpaceOnUse">
      <stop stop-color="#D86371"/>
      <stop offset="1" stop-color="#D86371" stop-opacity="0.3"/>
    </linearGradient>
    <linearGradient id="paint6_linear_10937_170167" x1="54.0001" y1="7.76087" x2="54.0001" y2="28" gradientUnits="userSpaceOnUse">
      <stop stop-color="#D86371"/>
      <stop offset="1" stop-color="#D86371" stop-opacity="0.3"/>
    </linearGradient>
    <linearGradient id="paint7_linear_10937_170167" x1="43.0001" y1="7.76087" x2="43.0001" y2="28" gradientUnits="userSpaceOnUse">
      <stop stop-color="#D86371"/>
      <stop offset="1" stop-color="#D86371" stop-opacity="0.3"/>
    </linearGradient>
  </defs>
</svg>