<svg xmlns="http://www.w3.org/2000/svg" width="28" height="28" viewBox="0 0 28 28" fill="none">
<path d="M8.4 2.80078C4.93719 2.80078 2.555 3.97328 2.555 3.97328C2.36031 4.06734 2.23781 4.26422 2.24 4.48078V6.16078H1.68C0.759063 6.16078 0 6.91984 0 7.84078V22.4008C0 23.3217 0.759063 24.0808 1.68 24.0808H12.7575C13.0659 24.422 13.5056 24.6408 14 24.6408C14.4944 24.6408 14.9341 24.422 15.2425 24.0808H26.32C27.2409 24.0808 28 23.3217 28 22.4008V7.84078C28 6.91984 27.2409 6.16078 26.32 6.16078H25.76V4.48078C25.7622 4.26422 25.6397 4.06734 25.445 3.97328C25.445 3.97328 23.0628 2.80078 19.6 2.80078C16.6447 2.80078 14.5709 3.61891 14 3.86828C13.4291 3.61891 11.3553 2.80078 8.4 2.80078ZM8.4 3.92078C11.2656 3.92078 13.0397 4.68422 13.44 4.86578V21.0358C12.6088 20.7033 11.0097 20.1608 8.4 20.1608C5.79031 20.1608 4.19125 20.7033 3.36 21.0358V6.82578C3.37531 6.75141 3.37531 6.67266 3.36 6.59828V4.86578C3.76031 4.68422 5.53438 3.92078 8.4 3.92078ZM19.6 3.92078C22.4656 3.92078 24.2397 4.68422 24.64 4.86578V6.61578C24.6247 6.69016 24.6247 6.76891 24.64 6.84328V21.0358C23.8088 20.7033 22.2097 20.1608 19.6 20.1608C16.9903 20.1608 15.3913 20.7033 14.56 21.0358V4.86578C14.9603 4.68422 16.7344 3.92078 19.6 3.92078ZM19.6 6.72078C18.9809 6.72078 18.48 7.22172 18.48 7.84078C18.48 8.45984 18.9809 8.96078 19.6 8.96078C20.2191 8.96078 20.72 8.45984 20.72 7.84078C20.72 7.22172 20.2191 6.72078 19.6 6.72078ZM1.68 7.28078H2.24V21.8408C2.23781 22.0355 2.33844 22.2148 2.50031 22.3177C2.66438 22.4227 2.87 22.4336 3.045 22.3483C3.045 22.3483 5.16469 21.2808 8.4 21.2808C11.5588 21.2808 13.6237 22.2827 13.72 22.3308C13.7266 22.3373 13.7309 22.3417 13.7375 22.3483H13.755C13.7725 22.3548 13.79 22.3614 13.8075 22.3658C13.8184 22.3723 13.8316 22.3789 13.8425 22.3833C13.8491 22.3833 13.8534 22.3833 13.86 22.3833C13.8709 22.3898 13.8841 22.3964 13.895 22.4008C13.9016 22.4008 13.9059 22.4008 13.9125 22.4008C13.9475 22.4052 13.9825 22.4052 14.0175 22.4008C14.0241 22.4008 14.0284 22.4008 14.035 22.4008C14.07 22.3986 14.105 22.392 14.14 22.3833C14.1575 22.3789 14.175 22.3723 14.1925 22.3658C14.21 22.3614 14.2275 22.3548 14.245 22.3483C14.245 22.3483 14.2931 22.333 14.2975 22.3308C14.3106 22.3198 14.3216 22.3089 14.3325 22.2958C14.5688 22.182 16.5594 21.2808 19.6 21.2808C22.8353 21.2808 24.955 22.3483 24.955 22.3483C25.13 22.4336 25.3356 22.4227 25.4997 22.3177C25.6616 22.2148 25.7622 22.0355 25.76 21.8408V7.28078H26.32C26.6372 7.28078 26.88 7.52359 26.88 7.84078V22.4008C26.88 22.718 26.6372 22.9608 26.32 22.9608H1.68C1.36281 22.9608 1.12 22.718 1.12 22.4008V7.84078C1.12 7.52359 1.36281 7.28078 1.68 7.28078ZM17.815 10.6408C17.5066 10.6692 17.2791 10.9448 17.3075 11.2533C17.3359 11.5617 17.6116 11.7892 17.92 11.7608H18.48V17.3608H20.72V11.2008C20.72 10.8923 20.4684 10.6408 20.16 10.6408H17.92C17.9025 10.6408 17.885 10.6408 17.8675 10.6408C17.85 10.6408 17.8325 10.6408 17.815 10.6408Z" fill="currentColor"/>
</svg>