<svg width="18" height="21" viewBox="0 0 18 21" fill="none" xmlns="http://www.w3.org/2000/svg">
<path fill-rule="evenodd" clip-rule="evenodd" d="M12.9987 4.5V0.499999H16.9987L15.8482 1.65047C17.2011 3.59454 18 5.95939 18 8.5C18 13.4854 14.9481 17.7783 10.6072 19.5839C10.2716 19.733 9.88282 19.6957 9.58988 19.4774C9.29694 19.259 9.1478 18.8968 9.20107 18.5346C9.249 18.1724 9.49401 17.8635 9.84021 17.7357C13.4567 16.2337 15.9973 12.6704 15.9973 8.5C15.9973 6.50266 15.4115 4.65446 14.4048 3.09387L12.9987 4.5ZM0.790946 18.6625C0.790946 18.1085 1.23835 17.6611 1.78695 17.6611C2.34088 17.6611 2.78828 18.1085 2.78828 18.6625C2.78828 19.2111 2.34088 19.6585 1.78695 19.6585C1.23835 19.6585 0.790946 19.2111 0.790946 18.6625ZM4.99867 19.4987C4.99867 18.9447 5.44607 18.4973 6 18.4973C6.55393 18.4973 7.00133 18.9447 7.00133 19.4987C7.00133 20.0526 6.55393 20.5 6 20.5C5.44607 20.5 4.99867 20.0526 4.99867 19.4987Z" fill="url(#paint0_linear_4740_90515)"/>
<defs>
<linearGradient id="paint0_linear_4740_90515" x1="14.3991" y1="-1.09925" x2="-2.39915" y2="18.0993" gradientUnits="userSpaceOnUse">
<stop offset="0.06978" stop-color="#00B578"/>
<stop offset="0.921959" stop-color="#00B578" stop-opacity="0.3"/>
</linearGradient>
</defs>
</svg>
