<svg width="100%" height="100%" viewBox="0 0 24 25" fill="none" xmlns="http://www.w3.org/2000/svg">
    <path fill-rule="evenodd" clip-rule="evenodd"
        d="M18.9987 8.5V4.5H22.9987L21.8482 5.65047C23.2011 7.59454 24 9.95939 24 12.5C24 17.4854 20.9481 21.7783 16.6072 23.5839C16.2716 23.733 15.8828 23.6957 15.5899 23.4774C15.2969 23.259 15.1478 22.8968 15.2011 22.5346C15.249 22.1724 15.494 21.8635 15.8402 21.7357C19.4567 20.2337 21.9973 16.6704 21.9973 12.5C21.9973 10.5027 21.4115 8.65446 20.4048 7.09387L18.9987 8.5ZM6.79095 22.6625C6.79095 22.1085 7.23835 21.6611 7.78695 21.6611C8.34088 21.6611 8.78828 22.1085 8.78828 22.6625C8.78828 23.2111 8.34088 23.6585 7.78695 23.6585C7.23835 23.6585 6.79095 23.2111 6.79095 22.6625ZM10.9987 23.4987C10.9987 22.9447 11.4461 22.4973 12 22.4973C12.5539 22.4973 13.0013 22.9447 13.0013 23.4987C13.0013 24.0526 12.5539 24.5 12 24.5C11.4461 24.5 10.9987 24.0526 10.9987 23.4987Z"
        fill="url(#paint0_linear_4740_90514)" />
    <path fill-rule="evenodd" clip-rule="evenodd"
        d="M10.9987 1.50133C10.9987 0.947403 11.4461 0.5 12 0.5C12.5539 0.5 13.0013 0.947403 13.0013 1.50133C13.0013 2.05526 12.5539 2.50266 12 2.50266C11.4461 2.50266 10.9987 2.05526 10.9987 1.50133ZM7.39281 1.41611C7.50999 1.36818 7.63249 1.34154 7.75499 1.33622C8.23968 1.31491 8.66578 1.65047 8.76698 2.12983C8.86818 2.60386 8.61252 3.08322 8.15979 3.26431C4.54328 4.76631 2.00266 8.32956 2.00266 12.5C2.00266 14.4973 2.58855 16.3455 3.59521 17.9061L5.00133 16.5V20.5H1.00133L2.1518 19.3495C0.798934 17.4055 0 15.0406 0 12.5C0 7.51465 3.05193 3.2217 7.39281 1.41611ZM15.2117 2.33755C15.2117 1.78895 15.6591 1.33622 16.213 1.33622C16.7617 1.33622 17.2091 1.78895 17.2091 2.33755C17.2091 2.89148 16.7617 3.33888 16.213 3.33888C15.6591 3.33888 15.2117 2.89148 15.2117 2.33755Z"
        fill="url(#paint1_linear_4740_90514)" />
    <defs>
        <linearGradient id="paint0_linear_4740_90514" x1="19" y1="4.5" x2="7" y2="22" gradientUnits="userSpaceOnUse">
            <stop stop-color="var(--gradient-first)" />
            <stop offset="1" stop-color="var(--gradient-middle)" stop-opacity="0.5" />
        </linearGradient>
        <linearGradient id="paint1_linear_4740_90514" x1="16" y1="3.5" x2="5" y2="20" gradientUnits="userSpaceOnUse">
            <stop offset="0.0899131" stop-color="var(--gradient-middle)" stop-opacity="0.5" />
            <stop offset="1" stop-color="var(--gradient-first)" />
        </linearGradient>
    </defs>
</svg>