<svg width="100%" height="100%" viewBox="0 0 16 16" fill="none" xmlns="http://www.w3.org/2000/svg">
<path d="M15 4.37894V13.0686C15 14.1351 14.1355 14.9996 13.069 14.9996H2.93103C1.86455 14.9996 1 14.1351 1 13.0686V2.93066" stroke="currentColor" stroke-width="1.5" stroke-linecap="square" stroke-linejoin="round"/>
<path d="M12.3449 8.96518C12.3449 9.23176 12.1287 9.44794 11.8622 9.44794C11.5956 9.44794 11.3794 9.23176 11.3794 8.96518C11.3794 8.6986 11.5956 8.48242 11.8622 8.48242C12.1287 8.48242 12.3449 8.6986 12.3449 8.96518Z" fill="currentColor" stroke="currentColor" stroke-width="1.5" stroke-linecap="round" stroke-linejoin="round"/>
<path d="M13.069 4.37931H15M13.069 4.37931H2.68966C1.75648 4.37931 1 3.62283 1 2.68966C1 1.75648 1.75648 1 2.68966 1H11.1379C12.2044 1 13.069 1.86455 13.069 2.93103V4.37931Z" stroke="currentColor" stroke-width="1.5" stroke-linecap="square" stroke-linejoin="round"/>
</svg>
