<svg width="24" height="27" viewBox="0 0 24 27" fill="none" xmlns="http://www.w3.org/2000/svg">
<path d="M12 0.407509C6.97918 0.407509 1.75496 1.54068 1.75496 1.54068L1.75496 1.54649C0.732202 1.74988 -5.68893e-09 2.6448 -8.31914e-09 3.67918L-2.49722e-08 10.2283C-5.38158e-08 21.5717 10.9308 26.3136 10.9308 26.3136C11.2562 26.4937 11.6281 26.5925 12 26.5925C12.3719 26.5925 12.738 26.4937 13.0634 26.3136L13.0692 26.3136C13.0692 26.3136 24 21.5717 24 10.2283L24 3.67918C24 2.63898 23.262 1.74407 22.245 1.54068C22.245 1.54068 17.0208 0.407509 12 0.407509ZM18.5433 6.95666C18.8223 6.95666 19.1012 7.06126 19.3162 7.27627C19.7462 7.70048 19.7462 8.39201 19.3162 8.81622L11.0702 17.0622C10.861 17.2714 10.5879 17.3818 10.2973 17.3818C10.0068 17.3818 9.72785 17.2714 9.52446 17.0622L5.75884 13.2966C5.33462 12.8724 5.33462 12.1809 5.75884 11.7567C6.18305 11.3266 6.87458 11.3266 7.29879 11.7567L10.2973 14.7494L17.7763 7.27627C17.9855 7.06126 18.2644 6.95666 18.5433 6.95666Z" fill="url(#paint0_radial_4740_90541)"/>
<path d="M18.5433 6.95666C18.8223 6.95666 19.1012 7.06126 19.3162 7.27627C19.7462 7.70048 19.7462 8.39201 19.3162 8.81622L11.0702 17.0622C10.861 17.2714 10.5879 17.3818 10.2973 17.3818C10.0068 17.3818 9.72785 17.2714 9.52446 17.0622L5.75884 13.2966C5.33462 12.8724 5.33462 12.1809 5.75884 11.7567C6.18305 11.3266 6.87458 11.3266 7.29879 11.7567L10.2973 14.7494L17.7763 7.27627C17.9855 7.06126 18.2644 6.95666 18.5433 6.95666Z" fill="currentColor"/>
<defs>
<radialGradient id="paint0_radial_4740_90541" cx="0" cy="0" r="1" gradientUnits="userSpaceOnUse" gradientTransform="translate(-7.9972e-07 26.5925) rotate(-46.7876) scale(35.9279 50.1623)">
<stop stop-color="currentColor" stop-opacity="0.5"/>
<stop offset="1" stop-color="currentColor" stop-opacity="0.2"/>
</radialGradient>
</defs>
</svg>
