<svg width="100%" height="100%" viewBox="0 0 24 25" fill="none" xmlns="http://www.w3.org/2000/svg">
<path fill-rule="evenodd" clip-rule="evenodd" d="M4.99999 8.63661C4.44771 8.63661 3.99999 9.08433 3.99999 9.63661L3.99999 16.1827L-1.91881e-08 16.1827L-3.35825e-08 21.8436L3.99999 21.8436L3.99999 23.6366C3.99999 24.1889 4.44771 24.6366 4.99999 24.6366C5.55228 24.6366 5.99999 24.1889 5.99999 23.6366L5.99999 21.8436L10 21.8436L10 16.1827L5.99999 16.1827L5.99999 9.63661C5.99999 9.08433 5.55228 8.63661 4.99999 8.63661Z" fill="url(#paint0_linear_4740_90504)"/>
<path fill-rule="evenodd" clip-rule="evenodd" d="M19 0.363388C18.4477 0.363388 18 0.811104 18 1.36339L18 4.13632L14 4.13632L14 15.4581L18 15.4581L18 21.3634C18 21.9157 18.4477 22.3634 19 22.3634C19.5523 22.3634 20 21.9157 20 21.3634L20 15.4581L24 15.4581L24 4.13632L20 4.13632L20 1.36339C20 0.811103 19.5523 0.363388 19 0.363388Z" fill="url(#paint1_linear_4740_90504)"/>
<defs>
<linearGradient id="paint0_linear_4740_90504" x1="4.71741" y1="8.1454" x2="4.71741" y2="25.1281" gradientUnits="userSpaceOnUse">
<stop stop-color="currentColor" stop-opacity="0.5"/>
<stop offset="1" stop-color="currentColor"/>
</linearGradient>
<linearGradient id="paint1_linear_4740_90504" x1="18.7174" y1="0.363388" x2="18.7174" y2="23.0069" gradientUnits="userSpaceOnUse">
<stop stop-color="currentColor"/>
<stop offset="1" stop-color="currentColor" stop-opacity="0.5"/>
</linearGradient>
</defs>
</svg>
