<svg width="100%" height="100%" viewBox="0 0 24 25" fill="none" xmlns="http://www.w3.org/2000/svg">
    <path fill-rule="evenodd" clip-rule="evenodd"
        d="M15.2727 14.9546C18.4358 14.9546 21 12.3904 21 9.22725C21 6.06411 18.4358 3.49988 15.2727 3.49988C12.1095 3.49988 9.54529 6.06411 9.54529 9.22725C9.54529 12.3904 12.1095 14.9546 15.2727 14.9546ZM15.2727 17.9546C20.0927 17.9546 24 14.0472 24 9.22725C24 4.40726 20.0927 0.499878 15.2727 0.499878C10.4527 0.499878 6.54529 4.40726 6.54529 9.22725C6.54529 14.0472 10.4527 17.9546 15.2727 17.9546Z"
        fill="url(#paint0_linear_4740_90529)" />
    <circle cx="8.72737" cy="15.7729" r="8.72737" fill="url(#paint1_linear_4740_90529)" fill-opacity="0.5" />
    <defs>
        <linearGradient id="paint0_linear_4740_90529" x1="21.3812" y1="2.24589" x2="9.16412" y2="16.2086"
            gradientUnits="userSpaceOnUse">
            <stop offset="0.0899131" stop-color="var(--gradient-first)" />
            <stop offset="1" stop-color="var(--gradient-first)" />
        </linearGradient>
        <linearGradient id="paint1_linear_4740_90529" x1="15" y1="10" x2="0.0328102" y2="17.6524"
            gradientUnits="userSpaceOnUse">
            <stop stop-color="var(--gradient-first)" stop-opacity="0.5" />
            <stop offset="1" stop-color="var(--gradient-first)" />
        </linearGradient>
    </defs>
</svg>