<svg width="100%" height="100%" viewBox="0 0 24 27" fill="none" xmlns="http://www.w3.org/2000/svg">
    <path
        d="M12 0.407471C6.97918 0.407471 1.75496 1.54064 1.75496 1.54064L1.75496 1.54645C0.732202 1.74984 -5.68893e-09 2.64476 -8.31914e-09 3.67914L-2.49722e-08 10.2283C-5.38158e-08 21.5716 10.9308 26.3135 10.9308 26.3135C11.2562 26.4937 11.6281 26.5924 12 26.5924C12.3719 26.5924 12.738 26.4937 13.0634 26.3135L13.0692 26.3135C13.0692 26.3135 24 21.5716 24 10.2283L24 3.67914C24 2.63895 23.262 1.74403 22.245 1.54064C22.245 1.54064 17.0208 0.407471 12 0.407471ZM18.5433 6.95662C18.8223 6.95662 19.1012 7.06122 19.3162 7.27623C19.7462 7.70044 19.7462 8.39197 19.3162 8.81618L11.0702 17.0622C10.861 17.2714 10.5879 17.3818 10.2973 17.3818C10.0068 17.3818 9.72785 17.2714 9.52446 17.0622L5.75884 13.2966C5.33462 12.8724 5.33462 12.1808 5.75884 11.7566C6.18305 11.3266 6.87458 11.3266 7.29879 11.7566L10.2973 14.7494L17.7763 7.27623C17.9855 7.06122 18.2644 6.95662 18.5433 6.95662Z"
        fill="url(#paint0_linear_4740_90541)" fill-opacity="0.5" />
    <path
        d="M18.5433 6.95662C18.8223 6.95662 19.1012 7.06122 19.3162 7.27623C19.7462 7.70044 19.7462 8.39197 19.3162 8.81618L11.0702 17.0622C10.861 17.2714 10.5879 17.3818 10.2973 17.3818C10.0068 17.3818 9.72785 17.2714 9.52446 17.0622L5.75884 13.2966C5.33462 12.8724 5.33462 12.1808 5.75884 11.7566C6.18305 11.3266 6.87458 11.3266 7.29879 11.7566L9.59051 14.0439C9.98103 14.4337 10.6135 14.4335 11.0038 14.0435L17.7763 7.27623C17.9855 7.06122 18.2644 6.95662 18.5433 6.95662Z"
        fill="url(#paint1_linear_4740_90541)" />
    <defs>
        <linearGradient id="paint0_linear_4740_90541" x1="20.6248" y1="4.83965" x2="-0.660317" y2="14.8142"
            gradientUnits="userSpaceOnUse">
            <stop stop-color="var(--gradient-middle)" stop-opacity="0.5" />
            <stop offset="1" stop-color="var(--gradient-first)" />
        </linearGradient>
        <linearGradient id="paint1_linear_4740_90541" x1="20.3991" y1="3.02678" x2="1.92773" y2="22.3759"
            gradientUnits="userSpaceOnUse">
            <stop offset="0.0899131" stop-color="var(--gradient-middle)" />
            <stop offset="1" stop-color="var(--gradient-first)" />
        </linearGradient>
    </defs>
</svg>