<svg width="18" height="18" viewBox="0 0 18 18" fill="none" xmlns="http://www.w3.org/2000/svg">
  <path d="M14.4375 6.1875V12.9375C14.4375 13.7659 13.7659 14.4375 12.9375 14.4375H5.0625C4.23407 14.4375 3.5625 13.7659 3.5625 12.9375V5.0625" stroke="currentcolor" stroke-width="1.5" stroke-linecap="round" stroke-linejoin="round"/>
  <path d="M12.375 9.75C12.375 9.95708 12.2071 10.125 12 10.125C11.7929 10.125 11.625 9.95708 11.625 9.75C11.625 9.54292 11.7929 9.375 12 9.375C12.2071 9.375 12.375 9.54292 12.375 9.75Z" stroke="currentcolor" stroke-width="0.75" stroke-linecap="round" stroke-linejoin="round"/>
  <path d="M12.9375 6.1875H4.875C4.15013 6.1875 3.5625 5.59987 3.5625 4.875C3.5625 4.15013 4.15013 3.5625 4.875 3.5625H11.4375C12.2659 3.5625 12.9375 4.23407 12.9375 5.0625V6.1875ZM12.9375 6.1875H14.4375" stroke="currentcolor" stroke-width="1.5" stroke-linecap="round" stroke-linejoin="round"/>
</svg>