<svg width="100%" height="100%" viewBox="0 0 14 14" fill="currentColor" xmlns="http://www.w3.org/2000/svg">
    <path d="M6.99925 0.525391C6.45403 0.525391 5.90881 0.791554 5.6165 1.32388L0.193846 11.1259C-0.380936 12.1577 0.394198 13.4754 1.5766 13.4754L12.4219 13.4754C13.6043 13.4754 14.3794 12.1577 13.8079 11.1259L8.38201 1.32388C8.0897 0.791554 7.54448 0.525391 6.99925 0.525391ZM6.99925 1.54075C7.17662 1.54075 7.35398 1.63605 7.46236 1.83321L12.8883 11.6352C13.0952 12.0098 12.8522 12.4239 12.4219 12.4239L1.5766 12.4239C1.14634 12.4239 0.90329 12.0098 1.11021 11.6352L6.53614 1.83321C6.64453 1.63605 6.82189 1.54075 6.99925 1.54075ZM6.9894 4.35354C6.70037 4.36011 6.47046 4.5967 6.47374 4.88916V8.392C6.47046 8.58258 6.57227 8.76003 6.73321 8.85532C6.89744 8.95061 7.10107 8.95061 7.2653 8.85532C7.42623 8.76003 7.52805 8.58258 7.52477 8.392V4.88916C7.52805 4.74457 7.47222 4.60985 7.3704 4.50798C7.26858 4.4094 7.13392 4.35354 6.9894 4.35354ZM6.99925 9.96926C6.61169 9.96926 6.29966 10.2847 6.29966 10.6725C6.29966 11.0569 6.61169 11.3724 6.99925 11.3724C7.38682 11.3724 7.69884 11.0569 7.69884 10.6725C7.69884 10.2847 7.38682 9.96926 6.99925 9.96926Z"/>
</svg>
