<svg viewBox="0 0 20 20" fill="none" xmlns="http://www.w3.org/2000/svg">
<path d="M10.0057 12.7378C10.2057 12.7337 10.3652 12.5568 10.3624 12.3413L10.3624 4.69532L13.1257 7.67299C13.2173 7.77465 13.3523 7.81532 13.4787 7.77974C13.6061 7.74415 13.7052 7.63741 13.7383 7.50017C13.7713 7.36394 13.7335 7.21856 13.6392 7.11995L10.2567 3.4764C10.1151 3.32492 9.88486 3.32492 9.7433 3.4764L6.36084 7.11995C6.26647 7.21856 6.22872 7.36394 6.26175 7.50017C6.29478 7.63741 6.39388 7.74415 6.52128 7.77974C6.64775 7.81532 6.78271 7.77465 6.87425 7.67299L9.6376 4.69532L9.6376 12.3413C9.63665 12.447 9.6744 12.5487 9.74424 12.6229C9.81314 12.6981 9.90751 12.7388 10.0057 12.7378Z" fill="currentColor" stroke="currentColor" stroke-width="0.625" stroke-linecap="round" stroke-linejoin="round"/>
<path d="M4.375 16.6355H15.625" stroke="currentColor" stroke-width="1.25" stroke-linecap="round"/>
</svg>