<svg width="100%" height="100%" viewBox="0 0 15 16" fill="none" xmlns="http://www.w3.org/2000/svg">
<path id="Path" d="M0.286331 0.752455C0.650311 0.399488 1.24888 0.424704 1.61284 0.777666L7.492 6.70587L13.3972 0.777666C13.7611 0.4247 14.3597 0.399499 14.7237 0.752455C15.0877 1.10542 15.0877 1.66066 14.7497 2.03882L8.7925 7.99224L14.7497 13.9709C15.0877 14.3238 15.0877 14.9043 14.7237 15.2572C14.3597 15.585 13.7611 15.585 13.3972 15.232L7.492 9.30383L1.61284 15.232C1.24886 15.585 0.650296 15.585 0.286331 15.2572C-0.0776497 14.9043 -0.103637 14.3238 0.260332 13.9709L6.2175 7.99224L0.260332 2.03882C-0.103648 1.66066 -0.0776451 1.10541 0.286331 0.752455Z" fill="currentColor"/>
</svg>
