<?xml version="1.0" encoding="utf-8"?>
<!-- Generator: Adobe Illustrator 27.0.1, SVG Export Plug-In . SVG Version: 6.00 Build 0)  -->
<svg version="1.1" id="Layer_1" xmlns="http://www.w3.org/2000/svg" xmlns:xlink="http://www.w3.org/1999/xlink" x="0px" y="0px"
	 viewBox="0 0 893.2 1000" style="enable-background:new 0 0 893.2 1000;" xml:space="preserve">
<style type="text/css">
	.st0{fill:url(#SVGID_1_);}
	.st1{fill:url(#SVGID_00000031886395950984787900000016756662025842101149_);}
	.st2{fill:#06B388;}
	.st3{fill:url(#SVGID_00000026847479834746967590000014048885071278980247_);}
</style>
<g>
	<g>
		<linearGradient id="SVGID_1_" gradientUnits="userSpaceOnUse" x1="371.0553" y1="661.3721" x2="304.8511" y2="285.9093">
			<stop  offset="0.2" style="stop-color:#59EAC1"/>
			<stop  offset="0.6131" style="stop-color:#2ACBA0"/>
			<stop  offset="0.9" style="stop-color:#06B388"/>
		</linearGradient>
		<path class="st0" d="M161.7,432.7c-9.9-0.1-14.7,3.9-14.7,14.1c0,0,0,204.9,0,233.7c0,9.9,5,14.1,14.6,14.2
			c113.1,1.2,249.5-98.9,364.1-177.5l0.2-270.3C413,324.3,272,434.3,161.7,432.7z"/>
		
			<linearGradient id="SVGID_00000022541072189598311030000002605375028945876912_" gradientUnits="userSpaceOnUse" x1="5095.4102" y1="692.4643" x2="5183.0298" y2="195.5468" gradientTransform="matrix(-1 0 0 -1 5716.2832 945.2405)">
			<stop  offset="0.2" style="stop-color:#59EAC1"/>
			<stop  offset="0.6131" style="stop-color:#2ACBA0"/>
			<stop  offset="0.9" style="stop-color:#06B388"/>
		</linearGradient>
		<path style="fill:url(#SVGID_00000022541072189598311030000002605375028945876912_);" d="M753.6,538.6c9.9,0.1,14.7-3.9,14.7-14.1
			c0,0,0-204.9,0-233.7c0-9.9-5-14.1-14.6-14.2c-113.1-1.2-249.5,98.9-364.1,177.5l-0.2,270.3C502.3,647,643.3,537,753.6,538.6z"/>
		<path class="st2" d="M525.6,517.2l0.1-154.4c-46.8,29.1-93,61.7-136.1,91.2l-0.1,154.4C436.4,579.3,482.5,546.8,525.6,517.2z"/>
	</g>
	<g>
		
			<linearGradient id="SVGID_00000022519482947869594290000006980716749948656282_" gradientUnits="userSpaceOnUse" x1="531.6025" y1="984.9995" x2="360.8787" y2="16.7765">
			<stop  offset="0.1" style="stop-color:#06B388"/>
			<stop  offset="0.3869" style="stop-color:#2ACBA0"/>
			<stop  offset="0.8" style="stop-color:#59EAC1"/>
		</linearGradient>
		<path style="fill:url(#SVGID_00000022519482947869594290000006980716749948656282_);" d="M446.2,998.7c-15,0-30.1-3.9-43.5-11.6
			L46.9,781.7c-26.8-15.5-43.5-44.4-43.5-75.3V295.5c0-31,16.7-59.8,43.5-75.3L402.7,14.7c26.8-15.5,60.2-15.5,87,0l355.8,205.4
			c26.8,15.5,43.5,44.4,43.5,75.3v410.9c0,31-16.7,59.8-43.5,75.3L489.7,987.1C476.3,994.8,461.3,998.7,446.2,998.7z M446.2,57.9
			c-5.6,0-11.1,1.4-16.1,4.3h0L74.3,267.6c-9.9,5.7-16.1,16.4-16.1,27.9v410.9c0,11.5,6.2,22.1,16.1,27.8l355.8,205.4
			c9.9,5.7,22.2,5.7,32.2,0l355.8-205.4c9.9-5.7,16.1-16.4,16.1-27.9V295.5c0-11.5-6.2-22.1-16.1-27.9L462.3,62.2
			C457.4,59.3,451.8,57.9,446.2,57.9z"/>
	</g>
</g>
</svg>
