<svg width="200" height="200" viewBox="0 0 200 200" fill="none" xmlns="http://www.w3.org/2000/svg">
<path d="M100 200C155.228 200 200 155.228 200 100C200 44.7715 155.228 0 100 0C44.7715 0 0 44.7715 0 100C0 155.228 44.7715 200 100 200Z" fill="#141517"/>
<path fill-rule="evenodd" clip-rule="evenodd" d="M45 104.95C46.5305 107.379 49.4339 109.774 57.3451 109.762H134.308C137.29 109.762 140.655 111.997 141.837 114.769L154.598 144.982C155.769 147.755 154.294 150 151.312 150H72.4361C67.7434 149.702 63.3883 148.465 61.3739 143.698L45 104.95ZM111.182 42.451L124.09 73.0419C125.26 75.826 124.529 79.836 122.447 82.0128L103.732 101.96H61.1826C54.4417 102.04 50.4467 99.4393 56.1748 93.1036L105.308 41.3625C107.379 39.1857 110.012 39.6669 111.182 42.451Z" fill="url(#paint0_linear_14672_244153)"/>
<defs>
<linearGradient id="paint0_linear_14672_244153" x1="148.544" y1="62.8761" x2="66.7203" y2="166.236" gradientUnits="userSpaceOnUse">
<stop stop-color="#05C99B"/>
<stop offset="1" stop-color="#05C99B"/>
</linearGradient>
</defs>
</svg>
