<svg width="200" height="200" viewBox="0 0 200 200" fill="none" xmlns="http://www.w3.org/2000/svg">
<path d="M100 200C155.228 200 200 155.228 200 100C200 44.7715 155.228 0 100 0C44.7715 0 0 44.7715 0 100C0 155.228 44.7715 200 100 200Z" fill="#FF4A4A"/>
<path d="M31.7267 117.944H69.0073C70.5094 117.944 71.7335 116.702 71.7335 115.179V84.0877C71.7335 82.9029 70.7874 82 69.6749 82H63.8323C62.6638 82 61.7737 82.9592 61.7737 84.0877V107.73H39.1826V84.0877C39.1826 82.9029 38.2365 82 37.124 82H31.1146C29.9461 82 29.0556 82.9029 29 84.0877V115.179C29 116.702 30.2241 117.944 31.7267 117.944Z" fill="white"/>
<path d="M113.967 118H119.976C121.089 118 121.979 117.041 121.923 115.912V84.9906C121.868 84.4827 121.757 83.9184 121.423 83.467C120.588 82.2257 118.863 81.8871 117.639 82.7334L101.057 94.3008C100.39 94.8087 99.444 94.8087 98.7763 94.3008L82.1946 82.7334C81.7494 82.395 81.2485 82.2257 80.6925 82.2257C79.1899 82.2257 77.9658 83.467 77.9658 84.9906V115.912C77.9658 117.097 78.9119 118 80.0244 118H85.9782C87.1467 118 88.0372 117.041 88.0372 115.912V99.8871L98.4979 106.545C99.3884 107.11 100.501 107.11 101.391 106.545L111.908 99.8871V115.912C111.908 117.097 112.854 118 113.967 118Z" fill="white"/>
<path d="M130.993 82H168.274C169.776 82 171 83.2413 171 84.7649V115.856C171 116.984 170.11 117.944 168.997 117.944H162.988C161.875 117.944 160.929 117.041 160.929 115.856V93.5674C160.929 92.8338 160.317 92.2132 159.593 92.2132H139.729C139.006 92.2132 138.394 92.8338 138.394 93.5674V115.856C138.394 116.984 137.503 117.944 136.334 117.944H130.325C129.213 117.944 128.266 117.041 128.266 115.856V84.7649C128.266 83.2413 129.491 82 130.993 82Z" fill="white"/>
<path d="M152.582 98.7587H146.628C145.516 98.7587 144.57 99.6615 144.57 100.79V106.997C144.57 108.182 145.516 109.085 146.628 109.085H152.582C153.751 109.085 154.641 108.125 154.641 106.997V100.846C154.641 99.6615 153.695 98.7587 152.582 98.7587Z" fill="white"/>
</svg>
