<svg width="200" height="200" viewBox="0 0 200 200" fill="none" xmlns="http://www.w3.org/2000/svg">
<path d="M100 200C155.228 200 200 155.228 200 100C200 44.7715 155.228 0 100 0C44.7715 0 0 44.7715 0 100C0 155.228 44.7715 200 100 200Z" fill="#00DCFA"/>
<path d="M117.811 42C97.4058 42 80.0744 57.6916 77.8967 77.8915C57.6864 80.0744 42 97.4058 42 117.806C42.0056 128.463 46.2414 138.683 53.7769 146.219C61.3123 153.756 71.5312 157.993 82.1887 158C102.594 158 119.994 142.308 122.103 122.109C142.308 119.926 158 102.594 158 82.194C157.994 71.5365 153.759 61.3171 146.223 53.7806C138.688 46.2441 128.469 42.007 117.811 42ZM148.583 86.6916C147.58 93.2829 144.495 99.3808 139.781 104.095C135.067 108.81 128.969 111.894 122.377 112.897V86.6916H148.583ZM51.4171 113.308C52.4071 106.705 55.4851 100.591 60.2007 95.8635C64.9162 91.1356 71.0215 88.0416 77.6225 87.0344V113.24H51.4171V113.308ZM112.966 122.377C111.877 129.76 108.168 136.505 102.518 141.379C96.8671 146.253 89.6513 148.932 82.1887 148.926C74.7276 148.932 67.5131 146.254 61.8634 141.381C56.2136 136.507 52.5058 129.764 51.4171 122.383H112.966V122.377ZM113.308 86.6916V113.24H86.6916V86.6916H113.308ZM148.583 77.6225H87.0344C88.1231 70.2398 91.8315 63.4952 97.4822 58.6209C103.133 53.7466 110.349 51.0679 117.811 51.0744C125.272 51.0679 132.487 53.746 138.137 58.6193C143.786 63.4927 147.494 70.236 148.583 77.6173V77.6225Z" fill="white"/>
</svg>
