<svg width="200" height="200" viewBox="0 0 200 200" fill="none" xmlns="http://www.w3.org/2000/svg">
<path d="M100 200C155.228 200 200 155.228 200 100C200 44.7715 155.228 0 100 0C44.7715 0 0 44.7715 0 100C0 155.228 44.7715 200 100 200Z" fill="black"/>
<path fill-rule="evenodd" clip-rule="evenodd" d="M100.427 165.591C141.071 165.591 173.759 132.903 173.759 92.6881C173.759 52.4732 140.856 35.699 100.427 35.699C59.7834 35.699 27.096 52.2582 27.096 92.6881C26.8809 133.118 59.7834 165.591 100.427 165.591Z" fill="white"/>
<path fill-rule="evenodd" clip-rule="evenodd" d="M56.9901 104.54C61.2911 104.54 65.162 102.819 68.1728 100.239C69.678 103.034 71.6137 106.045 73.3339 109.056C77.2048 115.507 81.5057 122.174 85.3767 127.12C87.3119 129.701 89.4626 132.067 91.3978 133.787C93.118 135.292 96.1288 137.443 99.5697 137.443C103.011 137.443 106.021 135.292 107.742 133.787C109.892 132.067 112.043 129.701 113.978 127.335C118.064 122.389 122.58 115.722 126.666 109.271C128.601 106.045 130.536 103.034 132.257 100.024C135.268 102.819 139.353 104.755 143.654 104.755C152.686 104.755 160.213 97.4429 160.213 88.4104C160.213 79.3784 152.901 72.0667 143.654 72.0667C136.343 72.0667 129.891 77.0127 127.956 83.6794C127.526 84.3245 127.096 85.1846 126.666 86.0452C124.085 90.7762 120.429 97.0128 116.558 103.25C112.688 109.486 108.387 115.722 104.731 120.023C102.795 122.174 101.29 123.894 99.9997 124.97C99.7847 125.185 99.5697 125.185 99.5697 125.4C99.3547 125.4 99.3547 125.185 99.1396 124.97C97.849 123.894 96.3438 122.389 94.6237 120.023C91.1828 115.507 87.0968 109.486 83.4409 103.25C79.7851 97.0128 76.3447 90.7762 73.7639 86.0452C73.3339 85.4001 73.1188 84.7545 72.9038 84.3245C70.9681 77.2277 64.5169 72.0667 56.9901 72.0667C47.9582 72.0667 40.4316 79.3784 40.4316 88.4104C40.4316 97.2279 47.7432 104.54 56.9901 104.54Z" fill="black"/>
</svg>
