<svg width="200" height="200" viewBox="0 0 200 200" fill="none" xmlns="http://www.w3.org/2000/svg">
<path d="M100 200C155.228 200 200 155.228 200 100C200 44.7715 155.228 0 100 0C44.7715 0 0 44.7715 0 100C0 155.228 44.7715 200 100 200Z" fill="url(#paint0_linear_1854_43936)"/>
<path d="M89.3119 97.4732V86.9774C81.3443 83.0901 75.7086 74.7324 75.7086 65.2084C75.7086 51.7972 86.5912 40.9127 100 40.9127C115.158 40.9127 126.041 51.7972 126.041 65.2084C126.041 68.5126 125.263 71.8169 123.709 75.7042L119.433 61.7098L110.883 64.431L118.462 93.3915L148 82.507L144.308 73.9549L133.231 77.6479C135.174 73.3718 135.563 70.0676 135.563 65.0141C135.563 46.1606 120.405 31 99.8058 31C80.9556 31 65.7977 46.1606 65.7977 65.0141C65.9921 80.1746 75.7086 93.0028 89.3119 97.4732Z" fill="white"/>
<path d="M105.053 56.0733V143.927H94.9475V56.0733H105.053Z" fill="white"/>
<path d="M110.688 113.023V102.527C124.291 106.997 134.008 119.825 134.202 134.986C134.202 153.839 119.044 169 100.194 169C79.5951 169 64.4372 153.839 64.4372 134.986C64.4372 129.932 64.8259 126.628 66.7692 122.352L55.6923 126.045L52 117.493L81.5384 106.609L89.1173 135.569L80.5667 138.29L76.2915 124.296C74.7368 128.183 73.9595 131.487 73.9595 134.792C73.9595 148.203 84.842 159.087 99.9999 159.087C113.409 159.087 124.291 148.203 124.291 134.792C124.291 125.268 118.656 116.91 110.688 113.023Z" fill="white"/>
<defs>
<linearGradient id="paint0_linear_1854_43936" x1="0" y1="0" x2="200" y2="200" gradientUnits="userSpaceOnUse">
<stop stop-color="#0077FC"/>
<stop offset="1" stop-color="#095EB5"/>
</linearGradient>
</defs>
</svg>
