<svg width="200" height="200" viewBox="0 0 200 200" fill="none" xmlns="http://www.w3.org/2000/svg">
<path fill-rule="evenodd" clip-rule="evenodd" d="M100 0C155.22 0 200 44.78 200 100C200 155.22 155.22 200 100 200C44.78 200 0 155.22 0 100C0 44.78 44.78 0 100 0Z" fill="#FF5000"/>
<path fill-rule="evenodd" clip-rule="evenodd" d="M159.796 142.089L124.401 121.434H75.5984L40.2026 142.089C40.5214 142.651 41.2076 143 42.1845 143H157.813C158.79 143 159.476 142.651 159.796 142.089Z" fill="white"/>
<path d="M159.796 142.089L124.401 121.434H75.5984L40.2026 142.089C40.5214 142.651 41.2076 143 42.1845 143H157.813C158.79 143 159.476 142.651 159.796 142.089" stroke="#FF5000" stroke-width="2.5" stroke-linejoin="round"/>
<mask id="path-4-inside-1_1854_40331" fill="white">
<path fill-rule="evenodd" clip-rule="evenodd" d="M40.202 142.088L75.5978 121.434L100 78.9561V38C99.3563 38 98.7126 38.4261 98.2245 39.2736L69.3192 89.592L40.418 139.91C39.9306 140.758 39.8839 141.529 40.2027 142.088"/>
</mask>
<path fill-rule="evenodd" clip-rule="evenodd" d="M40.202 142.088L75.5978 121.434L100 78.9561V38C99.3563 38 98.7126 38.4261 98.2245 39.2736L69.3192 89.592L40.418 139.91C39.9306 140.758 39.8839 141.529 40.2027 142.088" fill="white"/>
<path d="M75.5978 121.434L76.8577 123.593C77.235 123.373 77.548 123.058 77.7655 122.68L75.5978 121.434ZM100 78.9561L102.168 80.2014C102.385 79.8224 102.5 79.3931 102.5 78.9561H100ZM100 38H102.5C102.5 36.6193 101.381 35.5 100 35.5V38ZM98.2245 39.2736L96.0581 38.0258L96.0567 38.0283L98.2245 39.2736ZM69.3192 89.592L67.1514 88.3467L67.1513 88.3468L69.3192 89.592ZM40.418 139.91L38.2501 138.665L38.25 138.665L40.418 139.91ZM41.462 144.248L76.8577 123.593L74.3378 119.275L38.942 139.929L41.462 144.248ZM77.7655 122.68L102.168 80.2014L97.8322 77.7108L73.43 120.189L77.7655 122.68ZM102.5 78.9561V38H97.5V78.9561H102.5ZM100 35.5C98.1485 35.5 96.8099 36.7205 96.0581 38.0258L100.391 40.5213C100.493 40.3443 100.546 40.3259 100.491 40.3646C100.461 40.3855 100.403 40.4204 100.315 40.4499C100.226 40.4799 100.118 40.5 100 40.5V35.5ZM96.0567 38.0283L67.1514 88.3467L71.4869 90.8372L100.392 40.5188L96.0567 38.0283ZM67.1513 88.3468L38.2501 138.665L42.5858 141.155L71.487 90.8371L67.1513 88.3468ZM38.25 138.665C37.4998 139.971 37.1209 141.729 38.0303 143.326L42.3751 140.851C42.432 140.951 42.4668 141.051 42.4848 141.141C42.5024 141.229 42.5012 141.294 42.4982 141.329C42.4926 141.392 42.4832 141.334 42.5859 141.155L38.25 138.665Z" fill="#FF5000" mask="url(#path-4-inside-1_1854_40331)"/>
<path d="M129.596 90.2146L157.939 139.557L125.319 120.523L101.25 78.6226V40.8695L129.596 90.2146Z" fill="white" stroke="#FF5000" stroke-width="2.5" stroke-linejoin="round"/>
</svg>
