<svg width="200" height="200" viewBox="0 0 200 200" fill="none" xmlns="http://www.w3.org/2000/svg">
<path fill-rule="evenodd" clip-rule="evenodd" d="M100 200C44.8575 200 0 155.14 0 100C0 44.8575 44.8575 0 100 0C155.143 0 200 44.8575 200 100C200 155.14 155.143 200 100 200Z" fill="#2D2D2D"/>
<path d="M92.9662 46.2978C94.1391 44.9256 95.312 44.3376 96.8759 43.7495C97.6579 43.3575 98.4398 43.3575 100.004 43.3575L100.238 43.3809C101.977 43.5545 102.211 43.5778 103.522 44.1415C105.477 45.1216 107.041 46.6898 107.823 48.65C107.867 48.7383 107.909 48.821 107.949 48.8995C108.438 49.8677 108.605 50.1987 108.605 52.3744C108.605 53.9297 108.605 54.5357 108.427 55.0838C108.314 55.4338 108.128 55.7601 107.823 56.2948C106.846 58.255 105.282 59.8232 103.327 60.6073C102.35 61.1953 101.763 61.3914 100.199 61.3914C97.2669 61.3914 95.312 60.8033 93.3572 59.0391C91.5978 57.0789 90.6204 55.1187 90.6204 52.3744C90.6204 49.8261 91.2068 48.062 92.9662 46.2978Z" fill="white"/>
<path d="M139.687 95.303C140.665 93.5388 142.815 91.5786 144.966 90.9905C145.747 90.5985 146.529 90.5985 148.093 90.5985L148.328 90.6219C150.066 90.7955 150.3 90.8188 151.612 91.3825C153.567 92.3626 155.131 93.9308 155.913 95.891C155.957 95.9793 155.999 96.062 156.038 96.1405C156.527 97.1087 156.695 97.4397 156.695 99.6154C156.695 101.171 156.695 101.777 156.517 102.325C156.403 102.675 156.217 103.001 155.913 103.536C154.935 105.496 153.567 106.868 151.612 107.848C151.079 108.154 150.753 108.34 150.404 108.454C149.858 108.632 149.253 108.632 147.702 108.632C145.533 108.632 145.203 108.465 144.237 107.974C144.159 107.934 144.076 107.892 143.988 107.848C142.424 107.26 140.665 105.692 139.883 104.32C138.319 101.772 138.319 98.0472 139.687 95.303Z" fill="white"/>
<path d="M44.2901 96.8711C45.2675 94.5189 47.6134 92.5587 49.9592 91.7746L52.8915 91.5786L53.1258 91.602C54.8646 91.7756 55.0986 91.7989 56.4103 92.3626C58.3651 93.3427 59.929 94.9109 60.711 96.8711C60.755 96.9594 60.7968 97.0421 60.8365 97.1206C61.3257 98.0888 61.4929 98.4198 61.4929 100.596C61.4929 102.771 61.3257 103.102 60.8365 104.07C60.7968 104.149 60.755 104.232 60.711 104.32C59.7335 106.672 57.5832 108.632 55.0419 109.416H49.9592C47.4179 108.632 45.2675 106.672 44.2901 104.32C43.7037 103.144 43.7037 102.948 43.7037 100.596C43.7037 98.2433 43.7037 98.0472 44.2901 96.8711Z" fill="white"/>
<path d="M93.9436 141.564C95.1166 140.388 96.2895 139.8 97.8534 139.212C98.6353 138.82 99.4173 138.82 100.981 138.82C102.714 138.82 103.065 138.974 104.075 139.418C104.205 139.475 104.345 139.537 104.5 139.604C105.673 140.192 106.259 140.78 107.041 141.564C108.996 143.72 109.778 145.484 109.583 148.425C109.583 149.97 109.432 150.312 109.001 151.296C108.94 151.435 108.873 151.587 108.801 151.757C107.823 153.717 106.259 155.285 104.304 156.069C103.131 156.657 102.936 156.657 100.59 156.657C98.2443 156.657 98.0488 156.657 96.8759 156.069C94.9211 155.285 93.3572 153.717 92.3797 151.757C91.8211 150.45 91.7946 150.21 91.6243 148.665L91.5978 148.425C91.5978 145.484 92.1843 143.524 93.9436 141.564Z" fill="white"/>
<path fill-rule="evenodd" clip-rule="evenodd" d="M85.243 35.4973C88.4226 32.7166 92.3184 30.8892 96.485 30.2241C99.5663 29.7832 102.706 29.9944 105.7 30.8442C108.695 31.6939 111.48 33.1633 113.874 35.1577C116.268 37.1522 118.219 39.6274 119.601 42.4238C120.983 45.2203 121.766 48.2761 121.898 51.3943C122.094 58.255 119.748 63.9396 114.665 69.0362C112.906 70.8004 111.928 71.9765 111.146 74.1327C110.755 75.3088 110.755 75.7009 110.755 77.6611C110.755 79.8173 110.755 80.2094 111.342 81.5815C112.906 85.5019 115.643 88.0502 119.748 89.0303C122.289 89.6184 125.417 89.0303 127.958 87.4621L131.086 84.7178C133.085 82.44 135.529 80.5982 138.266 79.3066C141.004 78.015 143.977 77.3011 147.002 77.2092C150.026 77.1173 153.037 77.6494 155.847 78.7724C158.658 79.8954 161.209 81.5855 163.341 83.7377C168.033 88.4422 170.183 94.1268 169.988 100.596C169.792 104.712 168.619 108.436 166.274 111.769C164.398 114.611 161.905 116.99 158.981 118.727C156.057 120.464 152.778 121.513 149.391 121.796C146.004 122.079 142.597 121.588 139.427 120.361C136.256 119.133 133.404 117.201 131.086 114.709C128.74 112.161 127.567 111.377 125.026 110.789C122.485 110.201 120.139 110.397 117.597 111.573C112.906 113.729 110.169 119.021 111.146 123.922C111.928 126.862 112.515 128.038 115.838 131.567C119.552 135.291 121.116 138.232 122.289 142.74C122.876 145.092 123.071 149.013 122.68 151.561C122.057 155.081 120.6 158.4 118.433 161.238C116.265 164.077 113.45 166.353 110.224 167.875C106.997 169.396 103.454 170.12 99.8913 169.984C96.3285 169.848 92.8501 168.857 89.7483 167.094C86.6466 165.331 84.012 162.847 82.0657 159.852C80.1195 156.856 78.9184 153.436 78.5634 149.879C78.2083 146.322 78.7096 142.731 80.0253 139.408C81.3409 136.085 83.4324 133.127 86.1242 130.783C88.2745 128.626 89.4474 126.078 89.6429 122.942C89.6429 120.59 89.4474 119.217 88.47 117.257C85.9287 112.161 80.2596 109.808 74.786 111.377C73.2221 111.965 71.2672 113.141 70.2898 114.121C69.8034 114.649 69.3925 115.102 69.0348 115.496C67.6671 117.003 67.0737 117.657 65.9891 118.433C61.702 121.786 56.3406 123.451 50.9144 123.115C45.4882 122.78 40.3714 120.467 36.5272 116.613C32.683 112.758 30.3766 107.627 30.0422 102.186C29.7078 96.745 31.3683 91.369 34.7113 87.0701C40.3804 79.6213 50.3502 76.485 59.3426 79.4253C62.8613 80.4054 65.4026 82.1696 68.9214 85.3059C72.2447 88.6382 74.395 89.6184 77.7183 89.6184C79.2134 89.6641 80.7012 89.3906 82.0829 88.8161C83.4648 88.2416 84.709 87.3792 85.7332 86.286C88.079 83.9338 89.252 81.3855 89.252 78.2491C89.252 76.2889 88.861 75.1128 88.079 73.1526C87.2971 71.7805 86.9061 71.1924 84.7558 69.0362C81.6583 66.1638 79.4293 62.4753 78.3238 58.3925C77.2184 54.3097 77.281 49.9974 78.5046 45.9487C79.7282 41.8999 82.0633 38.278 85.243 35.4973ZM112.124 48.65C110.951 44.5336 107.628 41.2012 103.718 39.8291V40.0251C101.879 39.3764 99.9182 39.1477 97.9795 39.3556C96.0408 39.5635 94.1729 40.2027 92.512 41.2267C90.8511 42.2508 89.4391 43.6337 88.3791 45.2746C87.3192 46.9155 86.638 48.773 86.3852 50.7115C86.1324 52.6501 86.3144 54.6208 86.918 56.4798C87.5214 58.3389 88.5313 60.0394 89.8737 61.4572C91.2161 62.875 92.8573 63.9744 94.6775 64.6752C96.4977 65.376 98.4509 65.6604 100.395 65.5078C103.06 65.2822 105.598 64.2673 107.686 62.5919C109.775 60.9166 111.319 58.6565 112.124 56.0988C112.71 53.9426 112.71 50.8062 112.124 48.65ZM158.404 92.1222C156.779 89.8386 154.467 88.1369 151.808 87.2661C150.879 86.8008 150.074 86.7036 149.1 86.5863C148.843 86.5553 148.574 86.5229 148.289 86.482C145.747 86.482 144.184 86.8741 141.838 88.0502C139.557 89.2451 137.677 91.0873 136.434 93.3468C135.191 95.6063 134.64 98.183 134.848 100.755C135.057 103.327 136.016 105.78 137.607 107.809C139.198 109.837 141.349 111.351 143.793 112.161C145.161 112.553 145.747 112.553 147.702 112.553L151.417 112.357C154.102 111.57 156.465 109.941 158.161 107.71C159.856 105.478 160.794 102.761 160.838 99.956C160.882 97.151 160.029 94.4057 158.404 92.1222ZM64.8162 96.4791C63.4478 92.3626 60.32 89.2263 56.4103 88.0502C54.6509 87.4621 51.5231 87.2661 49.7637 87.6581C45.2675 88.8343 41.7488 91.9706 40.1849 96.4791C39.5984 98.0472 39.5984 98.4393 39.5984 100.399C39.5543 102.824 40.1906 105.213 41.4349 107.292C42.6793 109.372 44.4815 111.059 46.636 112.161C48.9818 113.337 50.9367 113.729 53.087 113.729C58.5606 113.337 63.0568 109.808 65.0117 104.516C65.4026 103.144 65.4026 102.752 65.4026 100.596C65.4026 98.4393 65.4026 98.0472 64.8162 96.4791ZM112.906 143.72C111.537 139.604 108.605 136.663 104.5 135.291C103.796 135.009 103.092 134.93 102.241 134.834C101.911 134.797 101.559 134.758 101.177 134.703C98.3491 134.634 95.5735 135.472 93.2531 137.093C90.9328 138.715 89.1888 141.036 88.2745 143.72C87.6881 145.288 87.6881 145.68 87.6881 147.837C87.6881 149.993 87.6881 150.581 88.079 151.953C88.9272 154.626 90.6063 156.956 92.8706 158.602C95.1349 160.249 97.8653 161.125 100.662 161.103C103.459 161.081 106.176 160.162 108.414 158.48C110.652 156.799 112.295 154.443 113.101 151.757C113.492 150.385 113.492 149.797 113.492 147.641C113.492 145.68 113.492 145.288 112.906 143.72Z" fill="white"/>
</svg>
