<svg width="200" height="200" viewBox="0 0 200 200" fill="none" xmlns="http://www.w3.org/2000/svg">
<path d="M100 200C155.228 200 200 155.228 200 100C200 44.7715 155.228 0 100 0C44.7715 0 0 44.7715 0 100C0 155.228 44.7715 200 100 200Z" fill="#197FF8"/>
<path fill-rule="evenodd" clip-rule="evenodd" d="M106.975 67.9788L101.962 57H123.555C139.816 57 153 69.2884 153 84.4467C153 94.961 146.657 104.094 137.343 108.704L153 143H141.221L122.009 100.915H123.555C126.904 100.915 130.034 100.046 132.703 98.5385L132.709 98.5346L132.715 98.5311C137.815 95.6435 141.221 90.415 141.221 84.4467C141.221 75.3512 133.311 67.9788 123.555 67.9788H106.975ZM86.259 57L47 143H58.7772L86.259 82.617L113.74 143H125.518L86.259 57Z" fill="white"/>
</svg>
