<svg width="200" height="200" viewBox="0 0 200 200" fill="none" xmlns="http://www.w3.org/2000/svg">
<path d="M100 200C155.228 200 200 155.228 200 100C200 44.7715 155.228 0 100 0C44.7715 0 0 44.7715 0 100C0 155.228 44.7715 200 100 200Z" fill="#EEF4FE"/>
<g clip-path="url(#clip0_1854_40258)">
<path d="M61.3999 107.135L65.3356 77.5646L31.1985 53.8665L62.3891 64.4317L69.7553 53.1298L96.6525 36.4401L155.94 69.104L159.013 118.942L132.6 155.646L111.722 158.845L122.518 139.083V120.057L114.668 105.198L106.692 99.9158L94.4216 112.565V125.95L84.8455 134.916L72.6808 136.389L67.2929 139.441L58.4534 136.621L54.7703 123.361L61.3999 114.038V107.135Z" fill="white"/>
<path d="M115.91 53.6139C109.406 52.2669 102.293 52.6247 102.293 52.6247C102.293 52.6247 99.9567 63.4215 85.4768 66.2627C85.582 66.2627 104.608 72.766 115.91 53.6139Z" fill="#94A6C3"/>
<path d="M121.803 151.584C129.653 145.439 135.546 136.978 138.261 127.402C138.387 127.044 139.482 126.413 140.218 125.929C141.439 125.192 142.681 124.582 142.912 123.593C143.396 120.773 143.649 117.826 143.649 114.88C143.649 113.785 142.533 112.67 141.439 111.575C140.576 110.839 139.713 109.976 139.713 109.366C138.492 98.19 133.336 87.751 125.107 80.1533L124.244 81.0162C132.221 88.5087 137.377 98.6951 138.492 109.492C138.619 110.481 139.587 111.449 140.576 112.438C141.439 113.175 142.428 114.29 142.428 114.774C142.428 117.595 142.176 120.415 141.692 123.235C141.565 123.719 140.471 124.224 139.608 124.708C138.387 125.319 137.272 125.929 137.04 126.918C134.094 137.357 127.338 146.449 118.372 152.342C119.972 148.912 125.002 137.736 127.696 132.075L127.212 113.912L111.616 98.8214L102.777 100.042L93.0746 115.764C93.0746 115.764 97.6206 121.53 91.2225 128.286C84.9717 134.916 80.0469 136.389 80.0469 136.389L75.5009 133.927C76.8479 132.201 79.5628 129.633 81.6464 127.907C85.2032 124.961 88.7601 124.708 88.7601 121.53C88.9074 114.88 81.7727 116.711 81.7727 116.711L79.184 119.173L78.0896 128.265L72.7017 135.021L72.0914 134.895L63.252 132.937C63.252 132.937 68.6609 130.117 69.5238 126.918C70.3867 123.845 67.798 113.659 67.6717 113.049C67.798 113.175 70.2604 115.259 71.3548 118.689C73.3121 113.28 75.9008 108.124 76.6374 107.64C77.374 107.156 87.3079 101.873 87.3079 101.873L84.0036 110.586L86.466 109.239L92.359 94.7594C92.359 94.7594 98.1257 91.9392 102.419 91.9392C110.143 91.813 121.571 82.3632 116.415 65.4209C117.888 66.0312 143.417 78.8063 147.837 103.851C151.141 123.109 140.218 141.146 121.803 151.584Z" fill="#94A6C3"/>
<path d="M92.5906 56.3078C95.4108 52.9825 94.3164 48.0787 94.3164 48.0787L86.0873 60.2434C85.961 60.2434 89.0127 60.3697 92.5906 56.3078Z" fill="#1B314F"/>
<path d="M64.9567 122.73L65.9459 117.826C65.9459 117.826 61.8839 124.94 61.5262 125.929C61.1473 127.045 61.7787 129.002 63.3572 128.876C64.9567 128.749 66.914 126.413 66.914 124.708C66.914 122.499 64.9567 122.73 64.9567 122.73Z" fill="#1B314F"/>
<path d="M137.882 44.6482C137.882 44.6482 144.028 44.9007 150.405 45.6373C136.03 34.3355 122.413 31.0312 111.364 31.0312C96.1473 31.0312 85.8346 37.303 85.2032 37.6608L90.0018 30.042C90.0018 30.042 70.8497 28.1899 64.0938 48.4575C62.368 44.1641 60.7895 37.8923 60.7895 37.8923C60.7895 37.8923 50.8346 46.6265 55.5069 61.1064C44.0788 56.9392 27.7679 51.1515 27.1365 51.0462C26.2736 50.92 26.021 51.2988 26.021 51.2988C26.021 51.2988 25.7685 51.6566 26.5051 52.288C27.8731 53.3613 53.6548 72.4082 59.3163 76.0913C58.0956 80.5111 58.0956 82.5946 59.3163 84.6782C61.0421 87.4984 61.1473 88.9717 60.9158 91.0553C60.6632 93.1388 58.4534 111.197 57.9693 113.406C57.4853 115.616 52.3289 123.467 52.5604 125.803C52.813 128.139 55.991 138.073 58.8322 139.188C60.9158 139.925 66.0722 141.524 69.5027 141.524C70.7234 141.524 71.8388 141.272 72.3229 140.788C74.4065 138.957 75.0168 138.578 76.4901 138.578C76.6163 138.578 76.7426 138.578 76.8479 138.578C77.4582 138.578 78.1948 138.704 79.0577 138.704C81.015 138.704 83.6037 138.325 85.4348 136.62C88.1287 133.927 92.801 130.243 94.2742 128.518C96.1263 126.182 97.0944 123.004 96.6103 119.805C96.2315 116.858 97.831 114.269 99.6831 111.702C102.019 108.629 106.313 103.115 106.313 103.115C114.794 109.471 120.077 119.173 120.077 129.97C120.077 149.122 103.387 164.591 82.7619 164.591C79.5628 164.591 76.5111 164.233 73.4384 163.497C82.8881 166.801 90.8647 167.916 97.3891 167.916C111.259 167.916 118.625 162.886 118.625 162.886C118.625 162.886 116.057 166.212 111.869 170C111.995 170 111.995 170 111.995 170C134.957 166.801 146.132 147.901 146.132 147.901C146.132 147.901 145.269 154.047 144.175 158.214C174.713 135.252 169.557 106.524 169.431 105.556C169.683 105.914 172.756 109.597 174.334 111.575C179.259 60.9801 137.882 44.6482 137.882 44.6482ZM90.8647 125.445C90.3806 126.055 88.2971 127.907 86.8238 129.254C85.3506 130.601 83.7511 131.948 82.5304 133.19C82.0463 133.674 81.0571 133.927 79.5839 133.927C79.0998 133.927 78.5947 133.927 78.2369 133.927C77.9844 133.927 77.7528 133.927 77.5003 133.927C77.2477 133.927 77.1215 133.927 77.0162 133.927C76.6374 133.927 76.2796 133.927 75.9008 133.927C77.7528 131.464 83.1407 125.824 84.9928 124.603C87.2026 123.13 88.3181 121.657 86.9501 119.089C85.6031 116.5 82.0463 117.132 82.0463 117.132C82.0463 117.132 84.1299 116.269 85.982 116.269C83.6458 115.658 80.6993 116.269 79.3524 117.616C77.8791 118.963 78.1317 123.761 77.5213 126.813C76.911 130.012 74.8274 131.611 71.6284 134.558C69.9026 136.157 68.6819 136.642 67.6927 136.642C65.6091 136.284 63.1467 135.652 61.4209 135.042C60.2002 133.443 58.3482 128.16 57.8641 125.95C58.2219 124.729 59.6951 122.141 60.4317 120.667C61.905 117.847 62.7679 116.248 63.0204 114.774C63.5045 112.691 65.104 99.7895 65.7144 94.4016C67.3139 96.4852 69.5237 99.9368 69.0186 102.147C72.5755 97.1166 70.0078 92.1918 68.7661 90.2345C67.6717 88.2771 66.1984 84.3415 67.4191 80.1743C68.6398 76.0071 73.0595 64.4527 73.0595 64.4527C73.0595 64.4527 74.5328 67.0414 76.6163 66.5363C78.6999 66.0522 95.5159 40.7546 95.5159 40.7546C95.5159 40.7546 100.062 50.6884 95.2634 57.9494C90.3596 65.1894 85.561 66.5363 85.561 66.5363C85.561 66.5363 92.3169 67.757 98.5676 63.211C101.135 69.2302 103.598 75.481 103.724 76.3439C103.345 77.2068 98.4414 88.9927 97.9573 89.7293C97.7048 89.9819 96 90.466 94.7583 90.7185C92.6747 91.3289 91.454 91.7077 90.9489 92.0655C90.086 92.8021 86.1503 103.599 84.3193 108.881C82.1094 109.492 79.8996 110.734 78.3001 113.175C79.163 112.565 81.8569 112.186 83.8352 111.954C85.561 111.828 90.8226 114.648 92.1906 119.931C92.1906 120.057 92.1906 120.057 92.1906 120.183C92.4642 122.12 91.8539 123.972 90.8647 125.445ZM79.3313 126.918C80.4468 125.319 80.3205 122.625 80.4468 121.762C80.5731 120.899 80.8046 119.299 81.7937 119.068C82.7829 118.815 85.1191 119.194 85.1191 120.899C85.1191 122.498 83.3933 122.856 82.1726 123.972C81.2886 124.814 79.5628 126.666 79.3313 126.918ZM128.306 103.452C129.527 97.2008 129.653 91.7919 129.295 87.3722C134.073 93.7492 137.019 101.494 137.882 109.471C138.008 110.46 138.977 111.428 139.966 112.417C140.829 113.154 141.818 114.143 141.818 114.753C141.818 117.574 141.565 120.394 141.081 123.235C140.955 123.593 139.86 124.224 138.998 124.708C137.777 125.319 136.661 125.929 136.43 126.918C133.736 136.368 127.948 144.723 120.224 150.616C131.631 138.704 137.146 119.047 128.306 103.452ZM120.582 151.711C128.559 145.565 134.704 136.978 137.398 127.276C137.524 126.918 138.619 126.287 139.355 125.803C140.576 125.192 141.818 124.456 142.049 123.467C142.533 120.646 142.786 117.7 142.786 114.753C142.786 113.659 141.67 112.544 140.576 111.449C139.966 110.713 138.977 109.85 138.977 109.239C137.987 100.274 134.431 91.8129 128.916 84.8045C126.454 70.0721 116.646 65.5261 116.394 65.3998C116.646 65.7786 123.023 74.9759 118.604 85.7726C114.058 96.6957 102.398 94.9909 101.409 95.0961C100.42 95.0961 96.6314 99.9999 91.8328 109.092C91.2225 108.839 88.6338 108.229 85.6873 108.734C87.8972 102.589 91.2225 93.8755 91.8328 93.1388C92.0854 92.8863 93.9164 92.4022 95.1581 92.0444C97.4943 91.4341 98.5887 91.0553 98.9675 90.5712C99.2201 90.1924 100.441 87.3722 101.661 84.4257C102.777 84.4257 105.597 84.1731 105.829 84.0468C106.081 83.7943 108.417 77.7961 108.417 77.0595C108.417 76.4491 103.619 64.5369 101.788 59.9909C102.651 59.0017 103.514 57.781 104.355 56.4341C129.527 59.1491 149.184 80.5111 149.184 106.398C149.184 126.287 137.524 143.608 120.582 151.711Z" fill="#1B314F"/>
<path d="M87.9181 85.4149C90.2543 82.721 89.0336 77.6909 84.7191 76.828C85.8345 74.2603 87.413 69.104 87.413 69.104C87.413 69.104 74.8905 88.7402 73.7961 89.119C72.6806 89.4979 71.5862 85.1834 71.5862 85.1834C69.25 94.1491 75.5218 95.3698 76.2585 92.5496C79.689 91.6656 85.582 87.9825 87.9181 85.4149Z" fill="#1B314F"/>
<path d="M77.2266 90.1924L83.6036 79.2693C83.6036 79.2693 87.2867 81.1214 85.4346 84.0679C83.1195 87.4984 77.2266 90.1924 77.2266 90.1924Z" fill="#FFD923"/>
<path d="M156.171 140.788C154.319 143.25 152.236 145.818 149.794 148.28C165.621 117.826 150.531 89.961 149.921 88.8666C151.036 89.982 152.131 91.2027 153.12 92.2971C165.263 105.788 166.737 126.055 156.171 140.788Z" fill="#D82122"/>
<path d="M170.904 101.621C165.369 86.7619 157.518 74.1131 140.218 62.706C123.529 51.6567 105.597 52.5196 104.608 52.6459C104.482 52.6459 104.355 52.6459 104.355 52.6459C104.966 52.3933 105.576 52.267 106.186 52.1618C109.996 50.9411 114.9 49.9519 119.825 49.3416C132.852 47.4685 145.985 51.8882 154.951 61.359C155.077 61.4853 155.077 61.4853 155.203 61.6116C165.39 72.4083 170.672 85.899 170.904 101.621Z" fill="#D82122"/>
<path d="M136.283 40.8389C117.993 37.4083 106.207 39.1131 97.7258 42.3121C97.4733 41.323 96.6104 39.3656 95.8737 37.7661C93.3271 40.8389 90.6122 44.522 88.9074 46.8581C84.2351 50.0572 82.2778 53.1299 82.2778 53.1299C84.9718 43.9116 92.8431 37.0506 102.419 35.3248C105.113 34.8407 108.06 34.5881 111.259 34.5881C119.719 34.7144 128.18 36.798 136.283 40.8389Z" fill="#D82122"/>
<path d="M68.6397 64.4108C54.2861 63.9267 59.0637 47.2159 59.3162 46.2478C59.3162 46.3741 60.2843 59.3807 68.6397 64.4108Z" fill="#D82122"/>
<path d="M82.7619 34.3356C71.7125 40.9652 73.9224 56.792 73.9224 56.792C63.3572 40.7336 81.899 34.7144 82.7619 34.3356Z" fill="#D82122"/>
<path d="M64.599 68.8303C65.3356 69.4407 66.0723 70.5561 65.2094 72.1556C64.7253 73.0185 63.9887 72.8923 62.8732 72.4082C61.4 71.6716 52.5605 66.5152 44.584 61.2326C53.676 64.4316 62.8732 67.8622 64.3465 68.5988C64.3465 68.5988 64.4727 68.7251 64.599 68.8303Z" fill="white"/>
</g>
<defs>
<clipPath id="clip0_1854_40258">
<rect width="148.755" height="140" fill="white" transform="translate(26 30)"/>
</clipPath>
</defs>
</svg>
