<svg width="200" height="200" viewBox="0 0 200 200" fill="none" xmlns="http://www.w3.org/2000/svg">
<path d="M100 200C155.228 200 200 155.228 200 100C200 44.7715 155.228 0 100 0C44.7715 0 0 44.7715 0 100C0 155.228 44.7715 200 100 200Z" fill="#1890FF"/>
<path d="M101.746 116.04L128.952 94.7939C129.307 94.5169 129.514 94.0913 129.514 93.6407V84.2648C129.514 83.5047 128.642 83.0769 128.044 83.5443L100.012 105.434L71.9567 83.5256C71.3584 83.0586 70.4861 83.486 70.4861 84.2465V93.6411C70.4861 94.0917 70.6935 94.5173 71.0482 94.7943L98.2558 116.041C98.7485 116.422 99.3736 116.614 99.9999 116.614C100.623 116.614 101.261 116.426 101.746 116.04Z" fill="white"/>
<path fill-rule="evenodd" clip-rule="evenodd" d="M142.957 58.2782L101.951 44.2735C101.407 44.087 100.7 44 100.012 44C99.3238 44 98.6169 44.087 98.0721 44.2735L57.0701 58.277C56.4823 58.4759 55.9679 58.9068 55.603 59.4212C55.2378 59.9359 55 60.5647 55 61.187V119.525C55 120.128 55.1924 120.8 55.4849 121.401C55.7776 122.002 56.188 122.567 56.6578 122.942L98.2554 155.427C98.7482 155.808 99.3733 156 99.9996 156C100.622 156 101.261 155.811 101.745 155.426L143.338 122.945C143.81 122.575 144.222 122.011 144.514 121.41C144.807 120.808 145 120.133 145 119.525V61.191C145.012 60.5665 144.78 59.9396 144.418 59.4265C144.055 58.9122 143.542 58.4831 142.957 58.2782ZM135.607 65.7537V117.024L100.012 144.82L64.4169 117.024V65.7537L100.012 53.5916L135.607 65.7537Z" fill="white"/>
</svg>
