<svg width="200" height="200" viewBox="0 0 200 200" fill="none" xmlns="http://www.w3.org/2000/svg">
<circle cx="100" cy="100" r="100" fill="#F9B937"/>
<path d="M131.808 90.964C131.808 89.4042 130.102 88.4447 128.769 89.255L114.085 98.1825C112.763 98.9863 112.815 100.922 114.179 101.654L128.863 109.531C130.195 110.246 131.808 109.281 131.808 107.769V90.964Z" fill="white"/>
<path d="M96.3014 111.705C96.3014 110.145 94.5952 109.185 93.2624 109.996L78.5785 118.923C77.2564 119.727 77.3086 121.663 78.672 122.395L93.3559 130.272C94.6883 130.987 96.3014 130.021 96.3014 128.509V111.705Z" fill="white"/>
<path d="M105.178 111.705C105.178 110.145 106.884 109.185 108.217 109.996L122.901 118.923C124.223 119.727 124.171 121.663 122.807 122.395L108.124 130.272C106.791 130.987 105.178 130.021 105.178 128.509V111.705Z" fill="white"/>
<path d="M96.3014 70.2232C96.3014 68.6634 94.5952 67.704 93.2624 68.5143L78.5785 77.4418C77.2564 78.2455 77.3086 80.1817 78.672 80.9131L93.3559 88.7903C94.6883 89.505 96.3014 88.5398 96.3014 87.0279V70.2232Z" fill="white"/>
<path d="M105.178 70.2232C105.178 68.6634 106.884 67.704 108.217 68.5143L122.901 77.4418C124.223 78.2455 124.171 80.1817 122.807 80.9131L108.124 88.7903C106.791 89.505 105.178 88.5398 105.178 87.0279V70.2232Z" fill="white"/>
<path d="M68.1918 107.555C68.1918 109.114 69.898 110.074 71.2308 109.263L85.9147 100.336C87.2367 99.5322 87.1845 97.5961 85.8211 96.8647L71.1372 88.9875C69.8049 88.2727 68.1918 89.2379 68.1918 90.7499L68.1918 107.555Z" fill="white"/>
<path d="M48.8954 122.995C47.5655 123.661 46 122.694 46 121.206V77.4589C46 75.9371 47.6319 74.9729 48.9649 75.707L59.7594 81.6521C60.3979 82.0038 60.7945 82.675 60.7945 83.404V115.802C60.7945 116.559 60.367 117.251 59.6899 117.59L48.8954 122.995Z" fill="white"/>
<path d="M151.105 75.5238C152.434 74.8579 154 75.8249 154 77.3121V121.06C154 122.581 152.368 123.546 151.035 122.812L140.241 116.866C139.602 116.515 139.205 115.843 139.205 115.115L139.205 82.7168C139.205 81.9596 139.633 81.2674 140.31 80.9284L151.105 75.5238Z" fill="white"/>
<path d="M104.985 43.2327C105.074 41.748 106.695 40.8765 107.982 41.6209L145.817 63.4945C147.133 64.2553 147.152 66.1482 145.852 66.9362L135.31 73.3273C134.685 73.7058 133.904 73.7139 133.272 73.3484L105.257 57.1519C104.602 56.773 104.216 56.0565 104.262 55.3008L104.985 43.2327Z" fill="white"/>
<path d="M105.179 156.03C105.179 157.57 106.846 158.532 108.18 157.762L145.817 136.002C147.133 135.241 147.152 133.348 145.852 132.56L135.327 126.18C134.693 125.796 133.899 125.793 133.263 126.173L106.153 142.381C105.549 142.742 105.179 143.394 105.179 144.097V156.03Z" fill="white"/>
<path d="M54.6142 66.9675C53.3749 66.1481 53.43 64.3113 54.7162 63.5677L92.5503 41.6942C93.8677 40.9326 95.5194 41.8628 95.5509 43.3842L95.8067 55.7226C95.8218 56.4514 95.4392 57.1307 94.8081 57.4955L66.7935 73.692C66.1369 74.0716 65.3221 74.0471 64.6895 73.6288L54.6142 66.9675Z" fill="white"/>
<path d="M54.6233 132.54C53.3879 133.356 53.4379 135.186 54.716 135.934L92.8264 158.241C94.1586 159.021 95.8346 158.061 95.8367 156.518L95.8548 143.748C95.8558 143.033 95.4749 142.372 94.8558 142.014L66.8187 125.804C66.1621 125.425 65.3473 125.449 64.7147 125.868L54.6233 132.54Z" fill="white"/>
</svg>
