<svg width="200" height="200" viewBox="0 0 200 200" fill="none" xmlns="http://www.w3.org/2000/svg">
<path d="M100 200C155.228 200 200 155.228 200 100C200 44.7715 155.228 0 100 0C44.7715 0 0 44.7715 0 100C0 155.228 44.7715 200 100 200Z" fill="#050708"/>
<path fill-rule="evenodd" clip-rule="evenodd" d="M165.996 74.6836C166 91.5554 166 108.427 165.996 125.3H165.995C166.079 127.13 165.101 128.934 163.589 129.951C143.516 144.598 123.435 159.239 103.347 173.873C101.371 175.465 98.3683 175.336 96.4543 173.703C76.4531 159.113 56.4479 144.526 36.4388 129.943C34.9329 128.914 33.9827 127.141 34.009 125.314C33.997 108.448 33.997 91.5806 34.009 74.7128C34.0045 73.804 34.2216 72.9078 34.6416 72.1013C35.0616 71.2949 35.6719 70.6024 36.42 70.0838C56.4311 55.4945 76.4413 40.9045 96.4505 26.3137C97.2045 25.7497 98.051 25.281 98.99 25.0972C99.7498 24.9515 100.532 24.9698 101.284 25.1509C102.036 25.332 102.741 25.6717 103.35 26.1472C123.503 40.842 143.656 55.5345 163.809 70.2248C165.196 71.2418 166.065 72.9586 165.996 74.6836ZM93.3118 36.837V36.8371C93.217 36.9543 93.1245 37.0688 93.0322 37.1732C92.9017 38.0663 92.9296 38.9739 92.9573 39.8791C92.9699 40.2882 92.9824 40.6968 92.9803 41.1032C93.9657 41.1107 94.9511 41.1107 95.9328 41.1107H95.9333C95.9358 40.8365 95.9379 40.5618 95.94 40.2869V40.2844V40.279C95.9441 39.734 95.9483 39.1884 95.9558 38.6447C98.2848 38.6482 100.615 38.6482 102.947 38.6447C103.083 40.259 103.035 41.8762 102.988 43.4936C102.964 44.3169 102.94 45.1403 102.94 45.9633C102.981 46.1351 103.054 46.4313 103.113 46.6665V46.6673L103.116 46.68C103.135 46.7548 103.152 46.823 103.165 46.8783C103.898 46.9284 104.633 46.9143 105.367 46.9002C105.578 46.8962 105.79 46.8921 106.001 46.8896C105.989 43.621 105.989 40.3532 106.001 37.0862C105.866 36.9602 105.735 36.8283 105.604 36.6962L105.603 36.6952V36.695C105.278 36.3674 104.952 36.0386 104.561 35.7961C102.546 35.7433 100.529 35.7515 98.512 35.7598H98.5087C97.35 35.7645 96.1916 35.7692 95.0341 35.7624C94.2635 35.6595 93.7621 36.2799 93.3118 36.837ZM88.3426 41.1445C87.2661 41.1182 86.1933 41.1182 85.1205 41.1595C85.1477 42.7933 85.1295 44.4296 85.1112 46.0659C85.079 48.9524 85.0468 51.8387 85.2641 54.7107C86.2843 54.7182 87.3074 54.7182 88.3313 54.6957C88.3739 50.4381 88.3596 46.1805 88.3452 41.9197V41.9L88.3426 41.1445ZM112.41 46.0158C115.267 45.9783 118.119 45.9896 120.974 46.0083C120.989 47.0523 120.989 48.0926 120.974 49.1359C118.117 49.1659 115.261 49.1771 112.404 49.1284C112.393 48.0919 112.393 47.0486 112.404 46.0158H112.41ZM98.1613 47.5323C97.1364 47.5319 96.112 47.5315 95.0875 47.5548C96.2813 49.7066 97.4947 51.8487 98.7517 53.966C98.8191 53.9657 98.8865 53.9655 98.9539 53.9653L98.9758 53.9652C99.9593 53.962 100.946 53.9587 101.929 53.9127C101.361 52.4916 100.597 51.169 99.833 49.846C99.3913 49.0813 98.9496 48.3164 98.5457 47.5323C98.4176 47.5323 98.2895 47.5323 98.1613 47.5323ZM106.854 51.3184C107.851 51.2959 108.848 51.2997 109.849 51.3147C111.057 53.1841 112.25 55.0634 113.443 56.9428L113.448 56.9496L113.452 56.956L113.455 56.9617C114.939 59.2985 116.422 61.6357 117.935 63.9546C117.935 65.2297 117.935 66.5047 117.913 67.7797C117.617 67.7265 117.033 67.6245 116.742 67.5757C115.497 65.7249 114.306 63.8388 113.115 61.9529C112.086 60.3232 111.057 58.6938 109.994 57.0875C109.975 59.0376 109.978 60.9876 109.981 62.9376C109.983 64.8877 109.986 66.8377 109.967 68.7877C108.928 68.8067 107.887 68.8067 106.844 68.7877C106.843 68.2647 106.841 67.7417 106.84 67.2187V67.1684C106.828 61.8867 106.816 56.6022 106.854 51.3184ZM122.432 53.6892C121.37 53.6592 120.305 53.6592 119.243 53.6817H119.247C119.24 54.6887 119.24 55.6937 119.247 56.6968C120.305 56.7155 121.37 56.7155 122.432 56.6893C122.439 55.6902 122.439 54.6875 122.432 53.6892ZM66.7645 54.6687C67.602 54.6537 68.4402 54.6575 69.2777 54.665C71.5142 54.515 73.747 54.5592 75.9842 54.6875C75.9917 55.6557 75.9842 56.6278 75.9767 57.596C74.5914 58.4259 73.2287 59.2937 71.8662 60.1614L71.8638 60.1627C69.9739 61.3663 68.0844 62.5697 66.1353 63.6711C65.3661 63.3796 64.7387 62.8373 64.1181 62.3009C63.9405 62.1474 63.7634 61.9944 63.5837 61.8479C64.4574 61.3165 65.3239 60.7738 66.1902 60.231L66.1904 60.2309H66.1905L66.1944 60.2285L66.1955 60.2279C67.5041 59.4081 68.8127 58.5884 70.146 57.8083C69.2765 57.7641 68.4052 57.7587 67.5349 57.7532C67.2818 57.7516 67.0287 57.7501 66.7758 57.7475C66.7562 56.7185 66.7525 55.6922 66.7645 54.6687ZM96.3084 55.8185C95.2845 55.7922 94.2538 55.7885 93.2261 55.8185C93.2021 56.847 93.2021 57.8758 93.2261 58.9048C94.2536 58.9323 95.281 58.931 96.3084 58.9011C96.3347 57.872 96.3347 56.8475 96.3084 55.8185ZM80.1532 61.903C81.1118 63.3791 82.0704 64.8552 83.0539 66.3142C83.7856 65.2135 84.5062 64.1054 85.2268 62.9974L85.2289 62.9946C86.1468 61.5833 87.0646 60.1721 88.0051 58.7765C88.0051 59.2747 88.0151 59.7745 88.0251 60.2748C88.0483 61.4317 88.0715 62.5916 87.9712 63.7424C86.9589 65.4734 85.841 67.1412 84.7232 68.8088L84.7086 68.8307C84.1487 69.6659 83.5889 70.5012 83.0426 71.3445C82.4836 70.4817 81.9131 69.6252 81.3426 68.7686C80.2651 67.1509 79.1874 65.5328 78.1862 63.8714C78.0615 62.6704 78.0907 61.4601 78.1198 60.2514C78.1313 59.7768 78.1427 59.3025 78.1448 58.829C78.8194 59.8492 79.4855 60.8752 80.1517 61.9011L80.1532 61.903ZM138.52 59.2528C133.58 59.2278 128.641 59.2266 123.701 59.2491C123.694 60.2488 123.697 61.2538 123.701 62.2566C128.642 62.2656 133.58 62.2644 138.516 62.2529C138.52 61.2559 138.52 60.2551 138.52 59.2589V59.2528ZM97.5548 63.1521C98.5479 63.1334 99.5448 63.1334 100.542 63.1446C100.57 65.6166 100.567 68.0901 100.563 70.5643V70.5783C100.56 72.4751 100.557 74.3724 100.569 76.2699C100.106 76.7086 99.6478 77.1549 99.1967 77.6011C97.2403 77.6226 95.2841 77.6195 93.3286 77.6164H93.316C91.8537 77.6141 90.3918 77.6118 88.9305 77.6199C88.8324 77.526 88.7337 77.4331 88.6352 77.3403C88.2809 77.0066 87.9288 76.6749 87.6111 76.3111C87.4897 75.3788 87.5151 74.4334 87.5405 73.4908C87.5516 73.0799 87.5627 72.6695 87.5615 72.261C88.5138 72.2535 89.469 72.2535 90.4273 72.261C90.4536 73.0328 90.4498 73.8038 90.4386 74.5756C91.9645 74.7472 93.4981 74.7278 95.0324 74.7085C95.8656 74.698 96.699 74.6875 97.5315 74.7076C97.5359 73.3033 97.5337 71.8982 97.5315 70.4931C97.5276 68.0447 97.5238 65.5963 97.5548 63.1521ZM145.31 66.1702C145.279 69.4737 145.279 72.7756 145.31 76.0756L145.313 76.0794C146.349 76.0929 147.383 76.0966 148.419 76.0794C148.453 72.7733 148.453 69.4702 148.419 66.1702C147.38 66.1439 146.346 66.1477 145.31 66.1702ZM130.56 68.6632C131.176 68.6573 131.793 68.6231 132.411 68.589C133.752 68.5148 135.093 68.4405 136.424 68.6557C137.076 70.7778 137.681 72.9167 138.286 75.0561C138.862 77.0921 139.438 79.1286 140.056 81.1517C139.055 81.1592 138.05 81.1592 137.048 81.1592C136.616 79.7038 136.213 78.2406 135.81 76.7773V76.7768C135.321 75.0044 134.832 73.2318 134.292 71.4728C133.743 71.4803 133.193 71.4878 132.643 71.4915C132.196 73.2611 131.699 75.0159 131.203 76.7701V76.7707C130.79 78.2297 130.377 79.6884 129.993 81.1547C128.984 81.1582 127.976 81.1569 126.968 81.1509C127.919 77.972 128.825 74.7762 129.731 71.583C130.007 70.6093 130.283 69.6359 130.56 68.6632ZM60.509 70.2443C56.0059 70.2067 51.4982 70.218 46.9944 70.2443V70.2405C46.9756 71.2703 46.9756 72.309 46.9899 73.3418C51.4975 73.3681 56.0021 73.3793 60.5128 73.3381C60.5353 72.3053 60.5353 71.277 60.509 70.2443ZM62.6328 70.248C63.6567 70.2405 64.6798 70.2367 65.7075 70.248C65.7301 71.2845 65.7301 72.324 65.7075 73.3606C64.6798 73.3718 63.6567 73.3681 62.6328 73.3606C62.6207 72.324 62.6207 71.2913 62.6328 70.2555V70.248ZM76.9698 70.383C75.9654 70.3717 74.9566 70.368 73.9522 70.3755V70.3717C73.8991 72.3484 73.9109 74.3285 73.9226 76.3022V76.3057L73.9227 76.3092C73.9252 76.7372 73.9278 77.1648 73.9296 77.5921C74.9453 77.6034 75.9647 77.5996 76.9848 77.5921C76.9848 76.9923 76.9858 76.3922 76.9867 75.792V75.7894C76.9895 73.9866 76.9924 72.1829 76.9698 70.383ZM152.68 72.5318C153.579 72.5143 154.481 72.5127 155.381 72.511C155.638 72.5106 155.895 72.5101 156.152 72.5093C156.508 73.1673 156.888 73.8146 157.268 74.4622L157.27 74.4671C158.112 75.9024 158.955 77.3391 159.541 78.8972C158.513 78.9338 157.477 78.9382 156.447 78.9426L156.376 78.9429C155.832 78.0148 155.3 77.08 154.769 76.1453C154.08 74.9356 153.392 73.7262 152.679 72.5318H152.68ZM110.104 75.1006C109.102 75.0931 108.099 75.0931 107.097 75.1006V75.0968C107.088 77.6238 107.089 80.1522 107.09 82.6788C107.09 83.4472 107.09 84.2155 107.09 84.9835C108.098 84.9835 109.103 84.9798 110.111 84.9723C110.111 84.0123 110.112 83.0523 110.114 82.0924C110.117 79.7616 110.12 77.4311 110.104 75.1006ZM117.672 79.1019C117.66 78.0729 117.66 77.0416 117.672 76.0081C118.684 75.9931 119.702 75.9931 120.716 76.0194C120.716 76.2766 120.717 76.5339 120.717 76.7911C120.719 77.5626 120.72 78.3339 120.709 79.1057C120.035 79.1082 119.357 79.1073 118.68 79.1065H118.673C118.53 79.1063 118.387 79.1061 118.244 79.106C118.052 79.1058 117.86 79.1057 117.669 79.1057L117.672 79.1019ZM65.1869 80.4957C63.5889 81.5203 61.99 82.5455 60.4564 83.6627C61.8689 84.6671 63.3274 85.6077 64.7855 86.5481L64.7857 86.5482L64.788 86.5499C65.8139 87.2115 66.8397 87.8729 67.8493 88.5566C68.3833 88.5554 68.9174 88.5564 69.4514 88.5575H69.4546C70.614 88.5598 71.7734 88.5621 72.9328 88.5416C71.841 87.846 70.7556 87.139 69.6698 86.4318C68.2524 85.5085 66.8341 84.5847 65.4 83.6852C66.568 82.868 67.7674 82.0992 68.9668 81.3304L68.977 81.3236C70.3049 80.4725 71.6327 79.6214 72.9178 78.7044C72.0538 78.6926 71.1911 78.6921 70.3283 78.6917C69.5439 78.6912 68.7595 78.6908 67.9741 78.6819C67.0541 79.2985 66.1207 79.897 65.1869 80.4957ZM145.314 80.7924C146.352 80.7699 147.391 80.7662 148.434 80.7924C148.46 81.829 148.457 82.861 148.427 83.8975C147.391 83.92 146.353 83.9162 145.318 83.8975C145.295 82.8645 145.295 81.832 145.318 80.7999L145.314 80.7924ZM54.243 81.2237C49.049 81.1749 43.8527 81.1862 38.6655 81.2162H38.6632C38.6482 82.2547 38.6482 83.2922 38.6632 84.3287C40.5992 84.351 42.5335 84.3482 44.4673 84.3453C45.7904 84.3434 47.1133 84.3414 48.4363 84.3475C47.4929 85.004 46.5153 85.6126 45.538 86.2211V86.2212H45.5379C45.2256 86.4157 44.9133 86.6101 44.6022 86.806C44.8707 86.9967 45.1295 87.2089 45.3893 87.4218C45.9624 87.8916 46.5397 88.3649 47.2334 88.6173C49.5107 87.2737 51.729 85.8233 53.9446 84.3747L53.9449 84.3745C54.0493 84.3062 54.1536 84.238 54.258 84.1697C54.2571 83.9246 54.2564 83.6794 54.2557 83.4343V83.4222C54.2535 82.6883 54.2514 81.955 54.243 81.2237ZM83.081 84.2192C84.9727 84.2271 86.8642 84.2244 88.7555 84.2217H88.7646C91.3619 84.2179 93.9586 84.2141 96.5542 84.238C96.6634 85.2572 96.6495 86.2859 96.5129 87.3018C93.6342 87.3139 90.7574 87.312 87.8813 87.3101H87.8706C86.2766 87.309 84.6829 87.308 83.0892 87.3093C83.0812 86.2758 83.0785 85.2458 83.081 84.2192ZM102.726 84.253C101.645 84.2155 100.569 84.2155 99.4884 84.238H99.4892C99.4786 85.2498 99.4786 86.2615 99.4892 87.2748C100.565 87.2936 101.645 87.2936 102.722 87.2635C102.728 86.2625 102.73 85.259 102.726 84.253ZM113.618 88.5723C113.518 87.8178 114.04 87.3244 114.552 86.8406C114.761 86.643 114.968 86.4469 115.131 86.2353C115.249 86.2353 115.368 86.2352 115.486 86.2351C115.607 86.235 115.729 86.2349 115.85 86.2348C116.929 86.2337 118.008 86.2326 119.089 86.254C119.119 87.2448 119.119 88.2356 119.103 89.2308C118.627 89.2394 118.15 89.2431 117.673 89.2467H117.672C117.314 89.2495 116.955 89.2523 116.598 89.2571V96.3147C118.388 96.3268 120.177 96.3246 121.967 96.3223H121.968C124.056 96.3197 126.144 96.317 128.232 96.3372C128.244 97.3392 128.244 98.342 128.217 99.3373C125.598 99.3553 122.977 99.353 120.356 99.3508H120.35C118.603 99.3493 116.857 99.3478 115.112 99.3523C114.952 99.1441 114.75 98.9504 114.547 98.7552C114.041 98.2698 113.525 97.7748 113.622 97.0227C113.602 94.2072 113.602 91.3904 113.622 88.5723H113.618ZM128.326 87.6339L128.323 87.6341L128.326 87.6266V87.6339ZM128.326 87.6339C129.394 87.5966 130.469 87.5966 131.541 87.6341C131.552 88.6551 131.552 89.6763 131.541 90.6979C130.468 90.7354 129.399 90.7354 128.326 90.6979C128.315 89.6751 128.315 88.6567 128.326 87.6339ZM138.54 87.6341C141.667 87.592 144.791 87.5992 147.917 87.6063C149.309 87.6095 150.701 87.6127 152.093 87.6116C152.1 88.6518 152.1 89.6958 152.088 90.7354C150.798 90.7354 149.508 90.7384 148.218 90.7415C144.993 90.7491 141.769 90.7568 138.543 90.7166C138.528 89.6876 138.528 88.6601 138.543 87.6341H138.54ZM79.7396 91.2292C78.4745 91.2292 77.2092 91.2292 75.9429 91.2311H75.9466C75.907 92.2786 75.9093 93.3274 75.9534 94.3774C78.4794 94.3814 81.0068 94.3814 83.5358 94.3774C83.5583 93.3274 83.5583 92.2774 83.5358 91.2274C82.2698 91.2292 81.0048 91.2292 79.7396 91.2292ZM97.4091 91.229C99.7931 91.2286 102.177 91.2281 104.561 91.2236C106.004 90.9986 107.45 92.4941 107.267 93.9162C107.258 96.8277 107.257 99.7425 107.262 102.661C106.864 103.09 106.464 103.515 106.064 103.941L105.914 104.1C105.873 104.144 105.832 104.187 105.79 104.231L105.731 104.294C104.416 104.294 103.104 104.294 101.789 104.279C101.778 103.279 101.777 102.281 101.785 101.284C102.196 101.278 102.607 101.273 103.018 101.269C103.43 101.264 103.842 101.259 104.253 101.254C104.253 98.9615 104.253 96.6657 104.261 94.3737C101.873 94.1607 99.4738 94.1894 97.0748 94.2182C95.5961 94.2359 94.1174 94.2536 92.6413 94.2147C92.6317 93.2147 92.6317 92.2201 92.6413 91.2311H92.642C94.2306 91.2296 95.8192 91.2293 97.4077 91.229H97.4091ZM64.6446 92.1536H64.6415H64.64C63.6122 95.6654 62.6077 99.1862 61.6038 102.705H61.6036C61.413 103.374 61.2223 104.042 61.0315 104.71C62.0283 104.722 63.0326 104.722 64.0361 104.722H64.0386C64.3921 103.304 64.7934 101.899 65.1946 100.495L65.1953 100.492C65.7058 98.7058 66.2161 96.9196 66.6277 95.1072C67.1817 95.0652 67.735 95.0239 68.2883 94.9902C68.8368 96.7056 69.3117 98.4426 69.787 100.181C70.2023 101.699 70.6178 103.219 71.0827 104.725C72.0547 104.718 73.032 104.718 74.0093 104.718C73.3034 102.046 72.5365 99.3905 71.7698 96.7357C71.3296 95.2118 70.8895 93.6879 70.461 92.1611C68.5211 92.1311 66.5849 92.1424 64.645 92.1536H64.6446ZM149.322 95.936L149.384 95.9353H149.39C152.75 95.9018 156.115 95.8682 159.471 95.9472C160.324 96.4722 161.286 97.3242 161.101 98.4432C161.101 99.2419 161.099 100.041 161.097 100.841V100.844C161.094 102.447 161.091 104.051 161.101 105.652C161.086 106.216 161.091 106.78 161.096 107.344C161.101 107.934 161.107 108.523 161.089 109.113C161.116 109.582 161.065 110.048 161.014 110.513V110.519C160.963 110.986 160.912 111.454 160.939 111.927C159.976 111.927 159.013 111.927 158.05 111.916C158.056 109.551 158.056 107.186 158.055 104.821V104.807C158.055 102.84 158.054 100.874 158.057 98.909C156.58 98.8687 155.102 98.8729 153.625 98.8772C152.741 98.8797 151.857 98.8823 150.972 98.8753C150.971 99.0689 150.97 99.2626 150.969 99.4563V99.4721C150.967 100.079 150.964 100.686 150.953 101.296C149.959 101.311 148.966 101.316 147.972 101.311C147.955 100.068 147.958 98.8214 147.961 97.5782V97.5633V97.3242C148.419 96.8667 148.87 96.4047 149.321 95.936H149.322ZM56.1946 96.0567H53.0484C53.0453 97.428 53.0454 98.7998 53.0455 100.172C53.0457 102.092 53.0459 104.013 53.0371 105.932H56.1946C56.1946 104.838 56.1954 103.743 56.1962 102.649V102.639C56.1979 100.446 56.1996 98.2522 56.1946 96.0567ZM43.1919 98.8108C44.2233 98.7958 45.254 98.8258 46.2817 98.894C46.2932 99.8695 46.2932 100.847 46.2817 101.825C45.2427 101.836 44.2046 101.84 43.1656 101.825C43.1543 100.819 43.1581 99.8165 43.1919 98.8145V98.8108ZM80.113 99.3875C80.0884 105.213 80.0897 111.038 80.1167 116.863C81.1512 116.889 82.1886 116.889 83.2298 116.879C83.278 115.379 83.2607 113.876 83.2433 112.374C83.2158 109.989 83.1883 107.605 83.423 105.233C84.8183 107.578 86.2977 109.874 87.7774 112.17L87.7776 112.171L87.7808 112.176L87.7813 112.177L87.7835 112.18C88.5452 113.362 89.307 114.544 90.0574 115.733C90.41 115.726 90.7663 115.718 91.1227 115.718C91.0677 115.207 91.0965 114.67 91.1253 114.132C91.186 112.999 91.247 111.86 90.5273 110.934C89.9197 109.984 89.3107 109.034 88.7017 108.085L88.6965 108.077C86.8446 105.191 84.993 102.305 83.184 99.395C82.16 99.3725 81.1369 99.3725 80.113 99.3875ZM93.7659 101.628C94.8079 101.605 95.8503 101.603 96.8933 101.62C96.9083 104.166 96.9046 106.711 96.8933 109.256C95.8468 109.275 94.8041 109.275 93.7584 109.249C93.7411 106.708 93.7366 104.166 93.7584 101.628H93.7659ZM115.733 105.032C114.71 105.021 113.686 105.025 112.666 105.032V105.036C112.654 106.073 112.654 107.108 112.666 108.141C113.687 108.145 114.71 108.145 115.733 108.141C115.752 107.105 115.752 106.069 115.733 105.032ZM130.325 105.151H130.326C130.932 105.153 131.538 105.155 132.145 105.157C132.273 106.083 132.353 107.025 132.262 107.963C132.039 108.414 131.587 108.398 131.148 108.383C130.995 108.378 130.843 108.372 130.703 108.387C129.708 108.358 128.711 108.371 127.715 108.384H127.714C126.003 108.407 124.294 108.43 122.595 108.237C122.576 107.21 122.576 106.189 122.61 105.168C125.181 105.134 127.752 105.143 130.325 105.151ZM136.012 105.594H136.01C135.815 105.599 135.621 105.604 135.428 105.607L135.431 105.61C135.397 109.217 135.397 112.824 135.431 116.431C136.464 116.45 137.498 116.45 138.532 116.431C138.536 115.723 138.541 115.015 138.547 114.307V114.303C138.568 111.429 138.589 108.551 138.51 105.682C137.68 105.553 136.844 105.574 136.012 105.594ZM108.1 107.725C108.768 107.723 109.437 107.721 110.104 107.726C110.115 108.755 110.118 109.787 110.104 110.824C109.102 110.839 108.099 110.839 107.097 110.824C107.09 109.792 107.09 108.755 107.097 107.722V107.726C107.285 107.726 107.473 107.726 107.661 107.726C107.805 107.725 107.95 107.725 108.094 107.725H108.1ZM65.5942 109.742C63.3574 109.714 61.121 109.686 58.8979 109.926H58.8942C58.8859 110.941 58.8859 111.953 58.913 112.967C61.8076 112.991 64.7012 112.987 67.5971 112.983C69.2064 112.981 70.8164 112.979 72.4276 112.982C72.4389 111.942 72.4426 110.898 72.4276 109.858C71.5084 109.763 70.5844 109.721 69.6603 109.733C68.3068 109.776 66.9504 109.759 65.5942 109.742ZM38.6693 112.226C38.7825 112.116 38.8958 112.006 39.0094 111.895C39.3865 111.528 39.7652 111.159 40.1442 110.793C41.4486 110.785 42.7521 110.782 44.0534 110.808C44.0685 111.791 44.0685 112.778 44.061 113.762C43.4111 113.777 42.7636 113.782 42.1146 113.787H42.1004C41.9441 113.789 41.7877 113.79 41.6312 113.792C41.6397 114.843 41.6383 115.894 41.6369 116.945C41.6352 118.239 41.6334 119.533 41.65 120.827C43.0764 120.831 44.5028 120.828 45.9293 120.826H45.9313C48.3446 120.821 50.7579 120.817 53.1709 120.845C53.1897 121.814 53.1897 122.778 53.1822 123.746C52.2305 123.75 51.275 123.754 50.3255 123.754C48.9722 123.741 47.6181 123.747 46.2642 123.753C44.2088 123.762 42.1536 123.772 40.1014 123.713C39.533 123.391 38.9602 122.861 38.7023 122.261C38.6457 120.145 38.6565 118.028 38.6674 115.911C38.6736 114.683 38.6799 113.454 38.673 112.226H38.6693ZM119.892 112.747C119.365 113.216 118.85 113.696 118.338 114.176H118.334C118.334 114.271 118.333 114.365 118.333 114.459V114.529C118.329 115.772 118.325 117.012 118.355 118.253C119.349 118.257 120.346 118.257 121.342 118.242C121.361 117.403 121.365 116.563 121.361 115.724C122.523 115.725 123.685 115.725 124.847 115.725C126.009 115.725 127.172 115.725 128.337 115.727C128.313 117.694 128.317 119.659 128.322 121.624V121.632C128.324 122.419 128.326 123.207 128.326 123.995C129.334 124.021 130.346 124.028 131.358 124.021C131.362 120.744 131.362 117.467 131.358 114.188C131.017 113.867 130.677 113.542 130.337 113.217L130.335 113.216C130.253 113.137 130.171 113.059 130.089 112.981C130.011 112.907 129.933 112.832 129.855 112.758C128.471 112.753 127.087 112.755 125.704 112.757C123.766 112.76 121.829 112.762 119.892 112.747ZM149.338 113.805C149.817 113.503 150.297 113.201 150.777 112.899C151.664 113.489 152.536 114.11 153.4 114.73C150.727 116.43 148.056 118.126 145.386 119.817C147.597 119.84 149.809 119.837 152.02 119.834H152.027C153.738 119.832 155.449 119.83 157.161 119.84C157.169 120.88 157.169 121.924 157.161 122.963C151.33 122.982 145.499 122.982 139.669 122.963C139.654 121.961 139.654 120.959 139.662 119.963L139.658 119.964C142.866 117.879 146.102 115.842 149.338 113.805ZM97.9721 120.555L97.9683 120.557L97.9721 120.554V120.555ZM97.9721 120.555C99.8201 119.328 101.697 118.145 103.575 116.962L103.581 116.958C105.455 115.777 107.329 114.597 109.174 113.372C109.388 113.519 109.602 113.667 109.816 113.815C110.478 114.275 111.14 114.734 111.817 115.172C110.323 116.219 108.775 117.189 107.226 118.158C106.126 118.847 105.025 119.537 103.943 120.254C106.035 120.291 108.127 120.286 110.219 120.281C112.028 120.277 113.837 120.273 115.646 120.296C115.672 121.366 115.672 122.44 115.646 123.51C111.475 123.534 107.305 123.53 103.134 123.525C101.466 123.523 99.7974 123.521 98.1292 123.521C97.9853 122.582 97.9791 121.631 97.9729 120.682L97.9721 120.555ZM59.5956 117.91C59.8226 118.256 60.0496 118.602 60.2767 118.949C61.6727 121.078 63.0691 123.207 64.4483 125.342C65.3488 124.059 66.1998 122.743 67.0509 121.426H67.051C67.8262 120.227 68.6015 119.027 69.4145 117.853C69.4345 118.841 69.4335 119.831 69.4324 120.82V120.821C69.4317 121.501 69.4309 122.181 69.437 122.861C68.706 123.929 68.0016 125.015 67.2973 126.101H67.2972C66.3654 127.538 65.4337 128.975 64.4408 130.368C63.9643 129.643 63.492 128.915 63.0198 128.186C61.8916 126.446 60.7633 124.706 59.5768 123.005L59.5763 122.953C59.5599 121.272 59.5435 119.588 59.5956 117.91ZM77.3961 121.087C77.3359 122.142 77.3397 123.201 77.3773 124.26L77.381 124.259C78.4102 124.271 79.4379 124.268 80.4633 124.259C80.4858 123.226 80.4858 122.194 80.4633 121.162C79.4431 121.079 78.4162 121.076 77.3961 121.087ZM91.8308 125.789C92.866 125.777 93.9042 125.774 94.9394 125.789C94.9542 127.942 94.9524 130.096 94.9506 132.25C94.9492 133.943 94.9478 135.635 94.9545 137.328C94.2192 137.358 93.4832 137.392 92.748 137.46C92.5604 137.423 92.2235 137.363 91.9755 137.319L91.9668 137.318L91.9653 137.317H91.9627C91.9047 137.307 91.852 137.297 91.8075 137.289C91.8177 135.615 91.8154 133.939 91.8131 132.263V132.262C91.8101 130.105 91.8072 127.948 91.8308 125.792V125.789ZM116.934 128.181C115.705 128.18 114.476 128.178 113.246 128.202V128.204C112.117 132.393 110.896 136.561 109.668 140.729C110.673 140.744 111.678 140.744 112.686 140.744C113.583 137.516 114.482 134.287 115.385 131.058L115.51 131.064C115.59 131.067 115.669 131.071 115.748 131.075H115.75C116.174 131.095 116.598 131.115 117.022 131.141C117.407 132.551 117.803 133.959 118.199 135.367C118.7 137.148 119.201 138.93 119.68 140.717C120.684 140.74 121.693 140.74 122.701 140.74C121.5 136.552 120.301 132.366 119.103 128.179C118.38 128.183 117.657 128.182 116.934 128.181ZM69.876 134.567L70.4365 134.208L70.4368 134.207C73.6714 132.133 76.9069 130.058 80.1874 128.054C80.4909 128.267 80.7954 128.477 81.0998 128.688L81.1005 128.689C81.6666 129.08 82.2324 129.472 82.7915 129.877C81.7222 130.541 80.6611 131.218 79.6 131.896L79.5984 131.897C77.9821 132.929 76.3658 133.961 74.7205 134.945C76.8117 134.985 78.9038 134.979 80.9963 134.974H80.9986C82.8584 134.969 84.7186 134.964 86.579 134.991C86.5978 136.027 86.6015 137.063 86.5714 138.099C86.0477 138.101 85.524 138.103 85.0002 138.105C79.6669 138.122 74.3336 138.14 69.0003 138.088C68.9709 137.104 68.9747 136.121 68.986 135.138C69.2827 134.948 69.5793 134.757 69.876 134.567ZM102.962 128.618C101.882 128.76 100.794 128.826 99.7049 128.814C100.934 130.935 102.149 133.065 103.349 135.206C103.857 135.202 104.366 135.2 104.876 135.198H104.895C105.398 135.197 105.901 135.195 106.404 135.191C105.871 133.248 104.775 131.509 103.697 129.798C103.448 129.404 103.201 129.011 102.962 128.618ZM142.759 130.096C143.824 130.062 144.893 130.062 145.961 130.085C145.966 131.102 145.966 132.121 145.961 133.141C144.893 133.167 143.827 133.167 142.762 133.122C142.743 132.112 142.743 131.106 142.762 130.096H142.759ZM136.968 135.041C136.273 136.1 135.579 137.16 134.908 138.235H134.912C134.839 138.333 134.77 138.439 134.701 138.545C134.497 138.861 134.288 139.182 133.935 139.331C132.956 137.915 132.02 136.469 131.085 135.023V135.022L131.084 135.021C130.419 133.993 129.755 132.965 129.074 131.949C129.038 133.427 129.045 134.908 129.053 136.389V136.517C129.054 136.672 129.055 136.827 129.056 136.983C129.679 137.927 130.298 138.873 130.917 139.819L130.918 139.821L130.92 139.824C131.955 141.406 132.989 142.987 134.044 144.558C134.564 143.771 135.08 142.981 135.596 142.191C136.47 140.85 137.346 139.508 138.245 138.183C138.307 138.075 138.377 137.968 138.448 137.861C138.684 137.504 138.925 137.138 138.896 136.696C138.935 135.161 138.911 133.625 138.874 132.093C138.251 133.084 137.61 134.063 136.968 135.041ZM62.4789 135.222C62.9119 135.226 63.3448 135.23 63.7777 135.233C63.7808 135.438 63.7859 135.644 63.791 135.849C63.811 136.655 63.8311 137.463 63.7281 138.266C61.1954 138.389 58.6536 138.342 56.1196 138.295C55.9376 138.291 55.7556 138.288 55.5736 138.285C55.5623 137.275 55.5623 136.269 55.5698 135.259C57.8702 135.183 60.1732 135.203 62.4766 135.222H62.4789ZM96.3537 141.825C93.867 141.82 91.3805 141.815 88.8929 141.852H88.8854C88.8734 142.829 88.8734 143.808 88.8854 144.787C91.3172 144.842 93.7522 144.834 96.1875 144.826H96.1883C97.636 144.821 99.0838 144.816 100.531 144.825C100.531 145.604 100.532 146.382 100.533 147.161V147.162C100.534 148.72 100.536 150.28 100.531 151.84C100.332 151.842 100.133 151.842 99.9347 151.841H99.9346C99.3352 151.84 98.7379 151.839 98.1427 151.901C97.9807 152.562 97.9959 153.242 98.0111 153.922C98.0172 154.195 98.0233 154.467 98.0179 154.738C99.4222 154.779 100.825 154.775 102.228 154.745C102.658 154.277 103.093 153.814 103.532 153.357C103.532 152.938 103.531 152.52 103.531 152.101C103.527 149.174 103.523 146.249 103.54 143.327C103.039 142.821 102.537 142.318 102.036 141.818C100.142 141.833 98.2476 141.829 96.3537 141.825ZM67.841 142.963C68.8644 142.948 69.8894 142.951 70.9158 142.971C70.9308 143.991 70.9321 145.015 70.9195 146.042C69.8881 146.057 68.8607 146.058 67.8373 146.046C67.8232 145.017 67.8232 143.989 67.8373 142.963H67.841ZM124.384 145.126C123.652 144.54 122.883 143.924 122.06 144.616H122.057C120.616 145.56 119.157 146.476 117.698 147.392C115.661 148.671 113.625 149.949 111.639 151.304C111.648 152.265 111.658 153.233 111.723 154.198C114.915 154.224 118.107 154.236 121.299 154.19C121.314 153.169 121.314 152.144 121.306 151.123C120.519 151.105 119.736 151.096 118.956 151.096L117.484 151.108C119.161 149.948 120.888 148.866 122.615 147.783H122.616L122.618 147.782L122.62 147.781C123.505 147.226 124.39 146.672 125.267 146.107V145.741C124.979 145.602 124.684 145.367 124.384 145.126ZM73.5996 147.452C73.9944 147.451 74.3892 147.449 74.784 147.448C78.5336 147.433 82.2856 147.419 86.0339 147.463C86.0414 148.48 86.0414 149.499 86.0339 150.52C82.2433 150.575 78.4557 150.557 74.6662 150.54L74.1724 150.537C73.9802 150.536 73.788 150.536 73.5959 150.535C73.5771 149.506 73.5808 148.477 73.5959 147.452H73.5996ZM88.1464 155.312C86.9782 155.289 85.8107 155.293 84.6432 155.304C85.1117 156.113 85.5732 156.926 86.035 157.74L86.0358 157.742C86.7992 159.087 87.563 160.434 88.3592 161.76C88.4797 161.759 88.6003 161.758 88.7208 161.758H88.7235C89.6472 161.752 90.5692 161.746 91.4941 161.696C90.9707 160.269 90.2068 158.957 89.443 157.645H89.4428C88.9944 156.875 88.546 156.105 88.1464 155.312ZM105.338 158.564C106.358 158.557 107.378 158.572 108.393 158.639C108.412 159.657 108.404 160.678 108.276 161.692C107.302 161.696 106.33 161.696 105.36 161.692C105.323 160.642 105.323 159.605 105.337 158.564H105.338ZM98.2222 166.762C98.226 167.404 98.2299 168.045 98.2299 168.686V168.688C99.2694 168.704 100.309 168.704 101.35 168.688C101.361 166.359 101.361 164.032 101.35 161.706C100.326 161.613 99.2952 161.556 98.2675 161.556C98.2011 163.29 98.2116 165.026 98.2222 166.761V166.762Z" fill="white"/>
</svg>
