<svg width="200" height="200" viewBox="0 0 200 200" fill="none" xmlns="http://www.w3.org/2000/svg">
<path fill-rule="evenodd" clip-rule="evenodd" d="M100 0C155.22 0 200 44.78 200 100C200 155.22 155.22 200 100 200C44.78 200 0 155.22 0 100C0 44.78 44.78 0 100 0Z" fill="#A566FF"/>
<path d="M95.4904 146.969C90.1112 150.778 83.6239 153 77.1371 153C65.7453 153 55.3028 146.81 47.3918 135.383C40.2719 124.433 36.3164 111.736 36 98.7221C36 98.2463 36.3164 97.7698 36.7911 97.6114L44.5439 94.1196C45.1767 93.8021 45.8096 94.1196 46.1261 94.7545C46.1261 94.9136 46.2842 95.0719 46.2842 95.231C46.2842 108.245 49.7651 120.465 55.9357 129.512C61.7898 138.082 69.3843 142.684 77.2954 142.684C81.5673 142.684 85.8392 141.415 89.3204 139.033C89.7947 138.716 90.5855 138.875 90.9019 139.351C92.4843 141.415 94.0666 143.318 95.8068 145.223C95.9655 145.7 95.9655 146.493 95.4904 146.969ZM152.608 135.383C144.855 146.652 134.254 153 122.863 153C111.471 153 101.028 146.652 93.1172 135.383C85.6806 124.592 81.5673 110.308 81.5673 95.231C81.5673 81.2643 89.6361 70.3138 99.7623 70.3138C109.889 70.3138 117.958 81.2643 117.958 95.231C118.116 107.451 115.268 119.354 109.572 130.146C109.256 130.781 108.465 130.94 107.99 130.622C107.832 130.622 107.832 130.463 107.673 130.305C106.724 129.194 105.775 128.083 104.984 126.972C104.034 125.544 103.243 124.274 102.452 122.687C102.294 122.37 102.294 121.893 102.452 121.576C106.092 113.165 107.832 104.119 107.832 95.0719C107.832 88.2473 104.351 80.4711 99.7623 80.4711C95.1739 80.4711 91.6935 88.2473 91.6935 95.0719C91.6935 108.086 95.1739 120.307 101.345 129.353C107.199 137.923 114.793 142.525 122.704 142.525C130.615 142.525 138.21 137.764 144.064 129.353C150.235 120.307 153.715 108.086 153.715 95.0719C153.715 82.0583 150.235 69.8377 144.064 60.7914C142.324 58.0934 140.109 55.7128 137.735 53.6497C137.26 53.1735 137.26 52.38 137.577 51.9039C137.735 51.7452 137.893 51.5865 138.052 51.5865L145.804 48.0949C146.279 47.9362 146.754 47.9362 147.07 48.4124C149.127 50.4755 150.868 52.6975 152.45 54.9193C159.886 65.7113 164 79.9946 164 95.0719C164 110.149 160.045 124.592 152.608 135.383Z" fill="white"/>
</svg>
