<svg width="200" height="200" viewBox="0 0 200 200" fill="none" xmlns="http://www.w3.org/2000/svg">
<path fill-rule="evenodd" clip-rule="evenodd" d="M100 0C155.22 0 200 44.78 200 100C200 155.22 155.22 200 100 200C44.78 200 0 155.22 0 100C0 44.78 44.78 0 100 0Z" fill="#F2A52B"/>
<path d="M152.417 79.6079V75.2984H148.339V71.2098V71.0585V68.8392V58.7943H152.417V50.4067H148.344V50.4038H152.417V46.1457H148.335V38H144.081H131.671V40.6265V42.0647H123.274H119.181H114.891H110.631H100.25H89.8682H85.6078H81.3183H77.2249H68.8286V40.6265V38H56.4184H52.1644V46.1457H48.0822V50.4038H52.1551V50.4067H48.0822V58.7943H52.1598V68.8392V71.0585V71.2098V75.2984H48.0822V79.6079H44V104.671H48.0822V112.829H52.1527V116.916H55.1145H56.4155V121.214H56.4201H60.4953V125.472H64.8007V129.554H64.8025H68.8847V132.442V133.815H72.9628V137.712H77.2232V142.019H81.3031V146.275V154.618H85.6078V158.742H89.8706V163H93.9434H100.25H106.556H110.629V158.742H114.891V154.618H119.196V146.275V142.019H123.276V137.712H127.536V133.815H131.615V132.442V129.554H135.697H135.699V125.472H140.004V121.214H144.079H144.084V116.916H145.385H148.346V112.829H152.417V104.671H156.499V79.6079H152.417Z" fill="white"/>
<path d="M90.4523 121.212H89.8682V137.709H90.4523V121.212Z" fill="#EBEAE6"/>
<path d="M88.3215 44.0177H87.7373V48.2781H88.3215V44.0177Z" fill="#EBEAE6"/>
<path d="M56.4154 92.0216H60.5023V75.2921H56.4154V71.2098H52.1597V75.2985H56.4154V92.0216Z" fill="#C1C1C3"/>
<path d="M64.8031 92.0216H60.5024V100.405H64.8031V92.0216Z" fill="#C1C1C3"/>
<path d="M72.9582 125.477V129.554H77.2233V121.212H72.964V108.739H68.8877V100.409H64.8025V108.747H68.883V121.214H64.8008V125.472V129.554H64.8025V125.477H72.9582Z" fill="#C1C1C3"/>
<path d="M64.8007 116.909H60.4954V112.829H56.4202V116.916H60.4954V121.214H64.8007V116.909Z" fill="#C1C1C3"/>
<path d="M89.8705 58.7984V50.3757H89.8681V46.1486H85.6078V46.1463V42.0641H81.3182H77.2249V46.1486H72.9621V50.409H64.8V42.0641H56.4154L56.4183 46.1457H56.4154V46.1469H52.1638V50.4038H52.155V50.4073H48.0815V58.7943H52.1591V68.8392V71.0584V71.2097H56.4148V75.292H60.5011V92.0215H64.8018V100.404V100.409H68.8869V108.74H72.9633V121.212H77.2219V129.555H72.9569V125.477H64.8018V129.555H68.884V132.442V133.815H72.9616V137.712H77.2219V142.019H81.3018H85.6043V137.71H89.5001H89.8664V121.212H89.8687H93.9486V100.406H89.8687V100.4H89.8664V66.954H89.8687H93.9463H93.9486V58.8211V58.7989H89.8705V58.7984ZM81.3182 108.751H78.8582H77.2225V104.633H78.8582H81.3182V108.751Z" fill="#1F1C22"/>
<path d="M64.8001 121.214H60.4954V125.472H64.8001V121.214Z" fill="#1F1C22"/>
<path d="M52.1645 46.1465V46.1459H48.0823V50.4039H52.1551V46.1465H52.1645Z" fill="#EBEAE6"/>
<path d="M52.7394 46.1462H52.1553V50.4031H52.7394V46.1462Z" fill="#EBEAE6"/>
<path d="M56.4156 42.0647H64.8008V50.409H72.9629V46.1487H77.2251V42.0647H68.8287V40.6265V38H56.4185H52.1646V46.1457H56.4156V42.0647Z" fill="#EBEAE6"/>
<path d="M56.4185 46.1457L56.4155 42.0647V46.1457H56.4185Z" fill="#EBEAE6"/>
<path d="M56.9997 116.916H56.4155V121.214H56.9997V116.916Z" fill="#1F1C22"/>
<path d="M60.4954 116.916H56.4202V121.214H60.4954V116.916Z" fill="#1F1C22"/>
<path d="M64.8025 108.747V100.409V100.405H60.5024V92.0216H56.4155V75.2985H52.1598H48.0822V79.6079H44V104.671H48.0822V112.829H52.1527V116.916H55.1145H56.4155H56.4201V112.829H60.4953V116.909H64.8007V121.214H68.8829V108.747H64.8025Z" fill="#EBEAE6"/>
<path d="M89.8684 137.709H89.5021H85.6057V142.019H81.3032V146.275H85.608H89.8707V142.019V137.712V137.709H89.8684Z" fill="#C1C1C3"/>
<path d="M89.8706 137.712H93.9505V121.212H89.8706V137.709V137.712Z" fill="#C1C1C3"/>
<path d="M93.9481 66.9541H89.8706V100.4H93.9481V66.9541Z" fill="#C1C1C3"/>
<path d="M90.4523 66.9541H89.8682V100.4H90.4523V66.9541Z" fill="#C1C1C3"/>
<path d="M98.0303 58.8207H93.9504V66.9536H98.0303V58.8207Z" fill="#C1C1C3"/>
<path d="M93.948 46.1462H89.8682V46.1486H89.8705V50.3757H93.948V46.1462Z" fill="#C1C1C3"/>
<path d="M90.4523 46.1486H89.8682V50.3756H90.4523V46.1486Z" fill="#C1C1C3"/>
<path d="M89.8683 42.0647H85.6079V46.1469H89.8683V42.0647Z" fill="#C1C1C3"/>
<path d="M85.608 146.275H81.3032V154.618H85.608V146.275Z" fill="#C1C1C3"/>
<path d="M89.8706 154.618H85.6079V158.742H89.8706V154.618Z" fill="#C1C1C3"/>
<path d="M93.9441 158.742H89.8706V163H93.9441V158.742Z" fill="#C1C1C3"/>
<path d="M78.8585 104.633H77.2234V108.751H78.8585H81.3185V104.633H78.8585Z" fill="white"/>
<path d="M113.344 44.0177H112.76V48.2781H113.344V44.0177Z" fill="#EBEAE6"/>
<path d="M110.631 46.1463V42.0647H100.25H89.8682V46.1463H93.948V50.3758H89.8705V58.7984H93.9504V58.8206H98.0303V66.954H93.9504H93.948V100.4H89.8705V100.406H93.9504V121.212V137.712H89.8705V142.019H100.25H110.629V137.712H106.549V121.212V100.406H110.629V100.4H106.551V66.954H106.549H102.469V58.8206H106.549V58.7984H110.629V50.3758H106.551V46.1463H110.631Z" fill="#EBEAE6"/>
<path d="M111.213 121.212H110.629V137.709H111.213V121.212Z" fill="#EBEAE6"/>
<path d="M131.616 121.214V108.747H135.697V100.409H131.612V108.739H127.535V121.212H123.276V129.554H127.541V125.477H135.697V129.554H135.699V125.472V121.214H131.616Z" fill="#C1C1C3"/>
<path d="M144.079 116.916V112.829H140.004V116.909H135.698V121.214H140.004V116.916H144.079Z" fill="#C1C1C3"/>
<path d="M144.084 75.2921H139.997V92.0216H144.084V75.2985H148.339V71.2098H144.084V75.2921Z" fill="#C1C1C3"/>
<path d="M139.997 92.0216H135.697V100.405H139.997V92.0216Z" fill="#C1C1C3"/>
<path d="M148.344 50.4067V50.4032H148.335V46.1463H144.084V46.1451H144.081L144.084 42.0641H135.699V50.409H127.536V46.1486H123.274V42.0641H119.18H114.891V46.1463V46.1486H110.63V50.3757H110.628V58.7984H106.548V58.8206V66.9534H106.55H110.628H110.63V100.399H110.628V100.406H106.548V121.211H110.628H110.63V137.709H110.997H114.892V142.018H119.195H123.275V137.711H127.535V133.814H131.613V132.441V129.554H135.695V125.476H127.54V129.554H123.275V121.211H127.533V108.739H131.61V100.408H135.695V100.403V92.0204H139.996V75.2908H144.082V71.2086H148.338V71.0573V68.838V58.7931H152.416V50.4067H148.344ZM123.276 108.751H121.64H119.18V104.633H121.64H123.276V108.751Z" fill="#1F1C22"/>
<path d="M140.004 121.214H135.699V125.472H140.004V121.214Z" fill="#1F1C22"/>
<path d="M148.344 46.1465V50.4039H152.417V46.1459H148.335V46.1465H148.344Z" fill="#EBEAE6"/>
<path d="M148.92 46.1462H148.335V50.4031H148.92V46.1462Z" fill="#EBEAE6"/>
<path d="M127.537 46.1487V50.409H135.699V42.0647H144.084V46.1457H148.335V38H144.081H131.671V40.6265V42.0647H123.274V46.1487H127.537Z" fill="#EBEAE6"/>
<path d="M144.081 46.1457H144.084V42.0647L144.081 46.1457Z" fill="#EBEAE6"/>
<path d="M144.663 116.916H144.079V121.214H144.663V116.916Z" fill="#1F1C22"/>
<path d="M144.079 116.916H140.004V121.214H144.079V116.916Z" fill="#1F1C22"/>
<path d="M152.417 79.6079V75.2985H148.339H144.084V92.0216H139.997V100.405H135.697V100.409V108.747H131.616V121.214H135.698V116.909H140.004V112.829H144.079V116.916H144.084H145.385H148.346V112.829H152.417V104.671H156.499V79.6079H152.417Z" fill="#EBEAE6"/>
<path d="M114.894 142.019V137.709H110.997H110.631H110.629V137.712V142.019V146.275H114.891H119.196V142.019H114.894Z" fill="#C1C1C3"/>
<path d="M110.629 121.212H106.549V137.712H110.629V137.709V121.212Z" fill="#C1C1C3"/>
<path d="M110.629 66.9541H106.551V100.4H110.629V66.9541Z" fill="#C1C1C3"/>
<path d="M111.213 66.9541H110.629V100.4H111.213V66.9541Z" fill="#C1C1C3"/>
<path d="M106.549 58.8207H102.469V66.9536H106.549V58.8207Z" fill="#C1C1C3"/>
<path d="M110.631 46.1486V46.1462H106.551V50.3757H110.629V46.1486H110.631Z" fill="#C1C1C3"/>
<path d="M111.213 46.1486H110.629V50.3756H111.213V46.1486Z" fill="#C1C1C3"/>
<path d="M114.891 42.0647H110.631V46.1469H114.891V42.0647Z" fill="#C1C1C3"/>
<path d="M119.196 146.275H114.891V154.618H119.196V146.275Z" fill="#C1C1C3"/>
<path d="M114.891 154.618H110.629V158.742H114.891V154.618Z" fill="#C1C1C3"/>
<path d="M110.629 158.742H106.556V163H110.629V158.742Z" fill="#C1C1C3"/>
<path d="M110.629 146.275V142.019H100.25H89.8706V146.275H85.6079V154.618H89.8706V158.742H93.9435V163H100.25H106.556V158.742H110.629V154.618H114.891V146.275H110.629Z" fill="#1F1C22"/>
<path d="M121.641 104.633H119.181V108.751H121.641H123.276V104.633H121.641Z" fill="white"/>
</svg>
