<svg width="200" height="200" viewBox="0 0 200 200" fill="none" xmlns="http://www.w3.org/2000/svg">
<path d="M100 200C155.228 200 200 155.228 200 100C200 44.7715 155.228 0 100 0C44.7715 0 0 44.7715 0 100C0 155.228 44.7715 200 100 200Z" fill="white"/>
<path fill-rule="evenodd" clip-rule="evenodd" d="M73.4941 70.2739C68.3646 65.7356 57.6699 56.2735 43.7471 39.4328C42.1869 37.5465 40.9566 36 41.0012 36C41.233 36 77.5363 67.3242 81.2897 71.6867L82.3328 72.8846L82.2436 74.7619C82.236 75.877 81.9845 76.9768 81.507 77.9838C81.0295 78.9909 80.3375 79.8807 79.4799 80.5905C77.3402 82.5572 74.7458 83.6031 70.6537 84.1663C68.1395 84.506 67.2302 84.8815 66.2138 85.99C65.242 87.0627 64.8765 88.3947 64.609 91.7649C64.19 96.9767 63.5749 99.1848 61.0964 104.37C58.7071 109.367 58.2167 111.253 58.6447 113.935C59.1439 117.198 60.9983 119.567 65.3312 122.517C68.6299 124.77 70.1276 126.227 70.9479 127.97C71.456 129.043 71.5184 129.436 71.5095 131.296C71.4917 134.147 71.037 135.292 69.0756 137.375C65.9107 140.745 60.2851 143.48 53.3668 145.036C50.4604 145.688 50.3356 145.688 50.3356 145.027C50.3356 144.186 49.2657 142.041 47.3935 139.154C45.2271 135.81 44.3712 134.147 43.5688 131.609C42.6416 128.721 42.3831 126.772 42.5168 123.742C42.6416 120.89 42.9536 119.621 44.0948 117.359C45.0042 115.553 45.5926 114.74 49.1766 110.279C55.3103 102.653 57.5213 98.2014 58.3059 91.899C59.0102 86.276 59.982 83.5584 62.1573 81.1447C63.459 79.6876 63.7532 79.1333 63.7532 78.0785C63.7532 77.9722 63.8063 77.8318 63.8773 77.6444C64.1526 76.9173 64.6958 75.4824 63.4411 72.5896C54.8336 57.2379 53.7878 55.385 53.8547 55.3437C53.8639 55.338 53.894 55.3665 53.9284 55.3988C57.3203 60.5159 60.6726 65.6593 63.985 70.8285C67.4093 76.8864 68.1545 77.5232 68.7992 78.0742C68.8881 78.1501 68.975 78.2243 69.0667 78.3109C69.0667 78.3109 69.5214 78.8115 70.832 78.8115C72.4308 78.6893 73.9905 78.255 75.4234 77.5332C77.4382 76.3889 77.884 74.9228 76.7072 73.2958C76.3445 72.7958 75.2427 71.821 73.4941 70.2739ZM52.7891 124.788C52.9791 125.598 52.8575 126.45 52.4485 127.175C51.6283 128.614 50.077 129.079 48.9804 128.229C48.3029 127.693 48.2494 126.915 48.8467 126.03C49.4351 125.145 49.3816 124.716 48.6327 124.332C48.187 124.108 47.9908 123.849 47.9908 123.491C47.9908 122.338 50.0859 121.909 51.4232 122.803C52.1113 123.269 52.599 123.977 52.7891 124.788Z" fill="#FF007A"/>
<path fill-rule="evenodd" clip-rule="evenodd" d="M80.5408 89.8966C81.1292 87.769 82.9925 85.7397 84.9093 85.1586C86.5626 84.8257 88.2771 84.9874 89.8395 85.6235C92.1397 86.7945 93.8068 89.4407 93.4502 91.3537C93.0045 93.6959 89.2065 95.5642 84.838 95.5911C82.6002 95.6 81.78 95.305 80.9241 94.1697C80.3981 93.4724 80.1931 91.1928 80.5408 89.8966ZM89.2511 86.4548C90.4012 87.1521 90.6954 88.1802 90.0267 89.1367C89.5631 89.7982 88.1188 90.424 87.0668 90.424C85.4888 90.424 83.7681 89.3066 83.7681 88.2785C83.7681 86.2224 87.0757 85.1228 89.2511 86.4548Z" fill="#FF007A"/>
<path d="M77.0643 44.9928C76.2708 45.109 76.3421 45.1358 78.0182 45.3951V45.404C84.1252 46.3426 88.8949 48.7563 93.7538 53.3602C95.8935 55.3805 98.0332 57.8925 101.51 62.4428C109.338 72.6696 112.654 75.5124 119.243 77.6579C123.112 78.9184 127.017 79.5084 133.917 79.866C141.549 80.2683 144.438 80.8851 147.166 82.6819C148.736 83.7342 150.059 85.1159 151.044 86.7315L151.721 87.7864L151.579 86.6243C151.035 82.1724 147.843 75.9147 143.769 71.3198L143.029 70.4794L142.655 72.169C141.718 76.4064 139.686 79.4458 137.796 79.4458C137.338 79.4453 136.89 79.3159 136.502 79.0725C136.115 78.8292 135.803 78.4815 135.602 78.0691C135.183 77.0679 135.219 76.7014 135.843 75.5392C136.993 73.4027 137.27 70.551 136.699 66.8142C136.548 65.7325 136.307 64.7313 136.164 64.5704C135.763 64.0787 132.464 62.1657 130.369 61.2002C122.764 57.7048 113.689 56.5695 104.755 57.9998L102.633 58.3395L101.154 56.6947C95.5725 50.4995 90.3481 47.0131 84.6066 45.6543C82.146 45.0732 78.5799 44.7603 77.0643 44.9928Z" fill="#FF007A"/>
<path d="M139.149 48.659C138.311 50.4916 137.901 52.503 137.731 55.5425H137.722C137.616 57.5092 137.5 58.1796 137.277 58.269C136.929 58.3942 136.465 58.2601 133.63 57.1695C131.731 56.4454 127.006 55.0687 126.872 55.2028C127.577 55.6124 128.31 55.9709 129.066 56.2755C130.599 56.9785 132.099 57.7541 133.559 58.5998C138.4 61.4426 139.238 63.1143 139.238 70.0424C139.238 73.4931 139.194 73.9579 138.766 74.9949C138.195 76.3984 138.293 76.6666 138.926 75.4151C140.103 73.1355 140.593 70.847 140.656 67.2801C140.709 64.9916 140.772 64.5088 141.101 64.187C141.449 63.8384 141.538 63.8384 142.109 64.1244C142.965 64.5625 146.816 67.6198 148.492 69.1842L149.865 70.4626L148.492 68.6747C147.734 67.6824 145.657 65.3938 143.865 63.5702C140.058 59.6904 139.764 59.1719 139.229 55.5782C138.801 52.7444 138.908 50.3128 139.514 48.5249C139.737 47.8723 139.88 47.3359 139.835 47.3359C139.563 47.7526 139.333 48.1959 139.149 48.659Z" fill="#FF007A"/>
<path d="M76.2243 50.2234C75.7607 55.5782 77.8737 62.7388 81.2704 67.4052C83.9094 71.0258 88.0015 73.8417 91.0238 74.1099C93.0031 74.2887 93.5915 73.6719 92.6999 72.3667C91.4607 70.5609 89.9273 67.7807 89.5261 66.5917C89.2764 65.8408 88.7326 63.6596 88.3136 61.7286C86.896 55.1312 85.4963 52.5656 82.2779 50.6168C81.1011 49.9016 78.5958 48.9719 77.1337 48.7037L76.3581 48.5696L76.2243 50.2234Z" fill="#FF007A"/>
<path d="M112.091 80.895C112.091 90.2369 117.69 95.7794 133.595 102.153V102.162C144.186 106.409 148.519 108.608 151.746 111.37C154.581 113.802 156.275 117.047 156.436 120.372C156.463 120.998 156.578 121.454 156.703 121.409C157.131 121.266 158.754 117.646 159.289 115.634C159.975 113.086 160.207 108.259 159.797 105.684C158.362 96.8074 152.362 90.2994 142.644 87.0901C139.586 86.08 136.287 85.3916 130.403 84.5334C120.4 83.0763 116.789 81.9767 113.562 79.4021C112.866 78.8389 112.251 78.392 112.198 78.392C112.135 78.392 112.091 79.5183 112.091 80.895Z" fill="#FF007A"/>
<path d="M121.666 101.456C121.99 102.557 122.246 103.676 122.433 104.808C123.708 112.371 119.722 118.477 111.984 120.837C111.164 121.087 107.927 121.722 104.807 122.24C98.4771 123.286 95.6509 124.028 92.8158 125.396C90.8099 126.362 88.3671 127.81 88.5097 127.953C88.8633 127.936 89.2109 127.854 89.535 127.711C93.11 126.46 97.0952 125.807 103.149 125.494C105.547 125.369 108.275 125.173 109.211 125.056C114.605 124.377 118.34 122.75 121.247 119.8C122.766 118.312 123.914 116.487 124.599 114.472C125.098 113.113 125.17 112.604 125.17 110.181C125.17 107.714 125.116 107.267 124.581 105.747C123.886 103.753 123.057 102.261 122.014 101.098L121.256 100.249L121.666 101.456Z" fill="#FF007A"/>
<path d="M129.728 117.717C127.615 113.194 127.124 108.822 128.283 104.746C128.408 104.299 128.604 103.95 128.729 103.95C128.845 103.95 129.353 104.218 129.835 104.549C130.815 105.202 132.759 106.301 137.965 109.126C144.456 112.657 148.165 115.384 150.679 118.513C152.881 121.239 154.245 124.359 154.905 128.15C155.279 130.295 155.056 135.48 154.503 137.643C152.756 144.473 148.708 149.837 142.913 152.966C142.066 153.422 141.309 153.797 141.22 153.797C141.139 153.797 141.451 153.019 141.906 152.063C143.858 148.004 144.081 144.062 142.61 139.673C141.701 136.982 139.864 133.701 136.156 128.15C131.841 121.713 130.789 119.988 129.728 117.717Z" fill="#FF007A"/>
<path d="M69.9769 142.149C75.8878 137.179 83.2251 133.656 89.9206 132.566C93.3691 132.122 96.8673 132.258 100.271 132.968C104.551 134.059 108.384 136.508 110.372 139.413C112.316 142.265 113.154 144.741 114.028 150.266C114.366 152.438 114.741 154.629 114.848 155.12C115.499 157.981 116.774 160.269 118.343 161.414C120.839 163.237 125.154 163.354 129.389 161.709C129.829 161.505 130.293 161.361 130.771 161.28C130.922 161.432 128.792 162.853 127.294 163.604C125.517 164.551 123.529 165.031 121.517 164.998C117.638 164.998 114.42 163.032 111.728 159.027C110.74 157.331 109.859 155.576 109.089 153.77C106.253 147.325 104.854 145.367 101.564 143.213C98.6933 141.335 94.9934 141.005 92.2118 142.363C88.5565 144.151 87.5402 148.8 90.1613 151.75C91.3857 153.018 92.9876 153.852 94.7259 154.128C95.4163 154.223 96.119 154.168 96.7863 153.966C97.4536 153.765 98.0699 153.422 98.5933 152.961C99.1168 152.499 99.5351 151.931 99.82 151.293C100.105 150.655 100.25 149.964 100.245 149.265C100.245 147.325 99.4956 146.225 97.6145 145.367C95.038 144.214 92.2831 145.564 92.292 147.969C92.292 148.997 92.7467 149.64 93.7809 150.114C94.4406 150.409 94.4585 150.427 93.9146 150.32C91.561 149.828 91.0082 146.994 92.8983 145.117C95.1806 142.864 99.8879 143.856 101.502 146.941C102.179 148.237 102.259 150.811 101.671 152.367C100.334 155.853 96.4823 157.686 92.5595 156.685C89.8849 156.005 88.8061 155.272 85.5877 151.973C79.9978 146.234 77.8313 145.117 69.7718 143.865L68.2206 143.624L69.9769 142.149Z" fill="#FF007A"/>
</svg>
