<svg width="200" height="200" viewBox="0 0 200 200" fill="none" xmlns="http://www.w3.org/2000/svg">
<path fill-rule="evenodd" clip-rule="evenodd" d="M100 200C44.8575 200 0 155.14 0 100C0 44.8575 44.8575 0 100 0C155.143 0 200 44.8575 200 100C200 155.14 155.143 200 100 200Z" fill="#F7931A"/>
<path d="M142.775 88.8309C144.567 76.8531 135.454 70.4128 123.003 66.1154L127.043 49.8861L117.183 47.4288L113.245 63.2296C110.655 62.5781 107.996 61.9724 105.342 61.3666L109.308 45.463L99.448 43L95.4081 59.2237C93.2626 58.7322 91.1513 58.2522 89.1085 57.7379L89.1199 57.6864L75.5164 54.2863L72.8916 64.8354C72.8916 64.8354 80.2126 66.5155 80.0585 66.6183C84.0528 67.6184 84.7718 70.2642 84.652 72.3672L80.0528 90.8538C80.3267 90.9224 80.6805 91.0253 81.0799 91.1796L80.0357 90.9224L73.5878 116.821C73.097 118.032 71.8588 119.855 69.0628 119.164C69.1655 119.307 61.8959 117.375 61.8959 117.375L57 128.679L69.8388 131.884C72.224 132.484 74.5635 133.113 76.8631 133.702L72.7832 150.114L82.6377 152.571L86.6777 136.342C89.371 137.068 91.9844 137.742 94.5407 138.382L90.5122 154.543L100.372 157L104.452 140.622C121.274 143.811 133.919 142.525 139.243 127.29C143.534 115.026 139.032 107.946 130.181 103.334C136.629 101.849 141.48 97.6027 142.775 88.8309ZM120.236 120.478C117.194 132.747 96.5664 126.113 89.8788 124.45L95.2997 102.706C101.987 104.38 123.425 107.689 120.236 120.478ZM123.288 88.6537C120.509 99.8143 103.345 94.1397 97.7818 92.7511L102.689 73.0358C108.253 74.4244 126.187 77.0131 123.288 88.6537Z" fill="white"/>
</svg>
