<svg width="200" height="200" viewBox="0 0 200 200" fill="none" xmlns="http://www.w3.org/2000/svg">
<g clip-path="url(#clip0_2223_49033)">
<path fill-rule="evenodd" clip-rule="evenodd" d="M100 200C155.08 200 200 155.08 200 100C200 44.93 155.08 0 100 0C44.93 0 1.66894e-06 44.93 1.66894e-06 100C-0.00999833 155.08 44.92 200 100 200Z" fill="url(#paint0_linear_2223_49033)"/>
<path fill-rule="evenodd" clip-rule="evenodd" d="M78.5345 44.7565C79.4042 45.7231 87.0431 57.5789 95.5097 71.1038C103.976 84.6288 118.689 107.89 128.204 122.795C137.719 137.7 145.697 150.872 145.933 152.065C146.227 153.554 145.565 154.744 143.818 155.861C141.699 157.216 140.437 157.309 136.261 156.42C129.939 155.073 117.06 150.988 107.213 147.206V147.206C102.305 145.322 96.8994 145.181 91.9007 146.808L79.2212 150.934C66.5199 155.067 58.0307 157.33 56.7374 156.929C55.5931 156.575 54.3819 155.212 54.0447 153.9C53.5595 152.011 56.9008 146.123 70.1008 125.612C79.2685 111.366 87.3321 99.1223 88.0199 98.4057C89.0274 97.3548 89.8057 97.8938 92.0357 101.184C94.2729 104.483 94.5916 105.65 93.6981 107.279C93.0916 108.388 87.734 116.787 81.7936 125.944C75.8531 135.101 71.133 142.728 71.3047 142.894C71.4764 143.059 77.5732 141.201 84.8533 138.766C92.1334 136.33 98.7575 134.337 99.5738 134.337C100.39 134.337 107.548 137.047 115.48 140.36C123.411 143.672 130.357 146.382 130.915 146.382C132.121 146.382 132.083 146.321 109.649 111.754C86.5013 76.0872 70.0751 49.4729 70.0751 47.6351C70.0751 45.6046 72.9158 43 75.1293 43C76.1328 43 77.6647 43.7909 78.5345 44.7565ZM115.753 65.6547C118.063 67.911 117.758 70.5729 114.661 75.1397C113.173 77.3369 111.801 79.1335 111.614 79.1335C110.846 79.1335 106.059 71.5425 106.059 70.3229C106.059 68.5343 110.742 64.0779 112.622 64.0779C114.501 64.0779 114.864 64.7875 115.753 65.6547Z" fill="white"/>
</g>
<defs>
<linearGradient id="paint0_linear_2223_49033" x1="200" y1="-5.96046e-06" x2="-1.78814e-05" y2="200" gradientUnits="userSpaceOnUse">
<stop stop-color="#6E2284"/>
<stop offset="1" stop-color="#3D2674"/>
</linearGradient>
<clipPath id="clip0_2223_49033">
<rect width="200" height="200" fill="white"/>
</clipPath>
</defs>
</svg>
