<svg width="200" height="200" viewBox="0 0 200 200" fill="none" xmlns="http://www.w3.org/2000/svg">
<path d="M100 200C155.228 200 200 155.228 200 100C200 44.7715 155.228 0 100 0C44.7715 0 0 44.7715 0 100C0 155.228 44.7715 200 100 200Z" fill="#0054FF"/>
<mask id="mask0_1854_40284" style="mask-type:alpha" maskUnits="userSpaceOnUse" x="0" y="0" width="200" height="200">
<path d="M100 200C155.228 200 200 155.228 200 100C200 44.7715 155.228 0 100 0C44.7715 0 0 44.7715 0 100C0 155.228 44.7715 200 100 200Z" fill="#0054FF"/>
</mask>
<g mask="url(#mask0_1854_40284)">
<path fill-rule="evenodd" clip-rule="evenodd" d="M154.565 158.092C157.737 154.92 162.88 154.92 166.051 158.092L185.939 177.98C189.111 181.152 189.111 186.295 185.939 189.466C182.767 192.638 177.625 192.638 174.453 189.466L154.565 169.579C151.393 166.407 151.393 161.264 154.565 158.092ZM123.96 129.518C129.511 123.967 138.48 123.937 143.993 129.45C149.507 134.963 149.476 143.932 143.926 149.483C138.375 155.034 129.406 155.064 123.892 149.551C118.379 144.038 118.409 135.069 123.96 129.518ZM101.785 158.232C104.936 155.082 110.044 155.082 113.194 158.232C116.345 161.383 116.345 166.491 113.194 169.641L93.0156 189.82C89.8652 192.97 84.7573 192.97 81.6068 189.82C78.4564 186.669 78.4564 181.561 81.6068 178.411L101.785 158.232ZM81.9601 85.4872C85.132 82.3154 90.2746 82.3154 93.4464 85.4872L113.334 105.375C116.506 108.547 116.506 113.69 113.334 116.861C110.162 120.033 105.02 120.033 101.848 116.861L81.9601 96.9736C78.7883 93.8017 78.7883 88.6591 81.9601 85.4872ZM51.3552 56.9128C56.9059 51.362 65.8751 51.3317 71.3884 56.845C76.9016 62.3582 76.8713 71.3274 71.3205 76.8781C65.7698 82.4289 56.8006 82.4593 51.2873 76.946C45.774 71.4327 45.8044 62.4635 51.3552 56.9128ZM102.279 12.5289C105.429 9.37847 110.537 9.37847 113.688 12.5289C116.838 15.6794 116.838 20.7872 113.688 23.9377L93.509 44.1163C90.3586 47.2667 85.2507 47.2667 82.1002 44.1163C78.9498 40.9658 78.9498 35.8579 82.1002 32.7075L102.279 12.5289ZM9.3551 12.8822C12.527 9.71035 17.6695 9.71035 20.8414 12.8822L40.7292 32.77C43.9011 35.9419 43.9011 41.0845 40.7293 44.2564C37.5574 47.4282 32.4148 47.4282 29.2429 44.2564L9.35509 24.3685C6.18323 21.1967 6.18324 16.0541 9.3551 12.8822Z" fill="white"/>
</g>
</svg>
