<svg width="200" height="200" viewBox="0 0 200 200" fill="none" xmlns="http://www.w3.org/2000/svg">
<path d="M100 200C155.228 200 200 155.228 200 100C200 44.7715 155.228 0 100 0C44.7715 0 0 44.7715 0 100C0 155.228 44.7715 200 100 200Z" fill="#2B71FF"/>
<path d="M130.259 129.811L100 160L84.99 145.025C101.176 144.07 116.804 138.82 130.259 129.811ZM158.944 98.8068L155.236 95.1276L100 40L44.7442 95.1276L40 99.8608L41.7143 101.332C43.6478 102.943 45.6412 104.475 47.6944 105.907C69.5415 121.26 96.6312 125.893 121.648 119.788C131.854 117.322 141.542 113.086 150.292 107.279C152.465 105.847 154.578 104.296 156.651 102.665C157.787 101.75 158.904 100.815 160 99.8608L158.944 98.8068ZM114.571 112.668C98.0864 102.565 79.1096 97.2555 59.7741 97.3351C84.9701 86.3772 115.887 84.8856 144.233 101.153C135.203 106.881 125.116 110.799 114.571 112.668Z" fill="white"/>
</svg>
