<svg width="200" height="200" viewBox="0 0 200 200" fill="none" xmlns="http://www.w3.org/2000/svg">
<path d="M100 200C155.228 200 200 155.228 200 100C200 44.7715 155.228 0 100 0C44.7715 0 0 44.7715 0 100C0 155.228 44.7715 200 100 200Z" fill="white"/>
<path d="M104.317 80.8835C99.3715 82.5456 97.8934 89.6029 94.1631 93.0842C90.5348 96.4626 87.6423 100.553 85.6665 105.1C83.6907 109.647 82.6739 114.553 82.6798 119.51C82.6798 129.097 86.4882 138.291 93.2671 145.07C100.046 151.849 109.24 155.658 118.827 155.658H146.309C147.582 155.658 148.842 155.407 150.018 154.92C151.193 154.433 152.262 153.719 153.162 152.819C154.062 151.919 154.775 150.851 155.263 149.675C155.75 148.499 156 147.239 156 145.966V52.9089C156 51.739 155.77 50.5805 155.322 49.4996C154.874 48.4187 154.218 47.4366 153.391 46.6094C152.564 45.7821 151.581 45.1259 150.501 44.6781C149.42 44.2304 148.261 44 147.091 44C144.729 44.0007 142.463 44.9396 140.793 46.6101C139.122 48.2807 138.183 50.5463 138.182 52.9089V133.958C138.182 134.99 137.773 135.979 137.043 136.709C136.314 137.438 135.324 137.848 134.292 137.848H118.822C113.96 137.848 109.298 135.917 105.861 132.479C102.423 129.042 100.492 124.38 100.492 119.518C100.486 115.121 102.067 110.868 104.945 107.543C109.463 102.312 110.679 94.9899 108.416 88.4605L104.317 80.8835Z" fill="url(#paint0_linear_1854_43792)"/>
<path d="M79.8619 87.9868C84.4442 87.9868 88.159 84.272 88.159 79.6897C88.159 75.1073 84.4442 71.3926 79.8619 71.3926C75.2795 71.3926 71.5648 75.1073 71.5648 79.6897C71.5648 84.272 75.2795 87.9868 79.8619 87.9868Z" fill="url(#paint1_linear_1854_43792)"/>
<path d="M117.324 80.1501V80.8973C117.324 81.4116 117.292 81.926 117.259 82.4376C117.259 82.6406 117.232 82.8464 117.216 83.0494C117.197 83.3201 117.173 83.5773 117.146 83.8371C117.119 84.097 117.094 84.3217 117.065 84.5599C117.035 84.7981 116.994 85.1013 116.954 85.372C116.926 85.5751 116.894 85.7835 116.859 85.9838C116.783 86.4603 116.697 86.934 116.602 87.405C116.553 87.6405 116.501 87.876 116.45 88.1061C116.399 88.3362 116.344 88.5745 116.288 88.8046L116.109 89.4949C115.987 89.9551 115.854 90.4071 115.716 90.8484C115.643 91.0758 115.573 91.3032 115.497 91.5251C115.421 91.7471 115.346 91.9745 115.267 92.1965C115.189 92.4185 115.107 92.635 115.026 92.8597C114.945 93.0844 114.858 93.2956 114.772 93.5148C114.685 93.7341 114.601 93.9507 114.501 94.1645C114.321 94.5976 114.13 95.0254 113.93 95.4477C113.846 95.6209 113.765 95.7969 113.681 95.9728C113.275 96.8066 112.833 97.6187 112.365 98.4092L112.057 98.9235C110.432 101.576 108.426 103.609 105.844 106.544C105.283 107.183 104.688 107.87 104.068 108.612C101.632 111.511 100.497 115.412 100.497 119.484C100.497 122.897 101.182 125.098 103.058 128.834C98.0042 123.517 95.0996 118.59 93.6134 114.072C89.9129 102.8 95.0481 94.04 97.7714 87.941C97.8174 87.8381 97.8635 87.7407 97.9068 87.6405C97.9934 87.4565 98.0719 87.2751 98.145 87.0991C98.1883 86.999 98.2262 86.9015 98.2668 86.8041C98.5674 86.0764 98.8064 85.3248 98.9815 84.5572C99.0221 84.4002 99.0573 84.2405 99.0898 84.0862C99.1222 83.9319 99.1656 83.7153 99.2007 83.5448C99.3448 82.7732 99.4353 81.9926 99.4715 81.2086C99.4715 81.0705 99.4904 80.9379 99.4958 80.789V80.1528C99.4965 75.2932 97.5677 70.6321 94.1332 67.1941C90.6987 63.756 86.0396 61.8223 81.1799 61.818H65.7227C65.2106 61.8169 64.7033 61.9169 64.2299 62.1122C63.7565 62.3076 63.3263 62.5944 62.9639 62.9562C62.6015 63.3181 62.3141 63.7479 62.1182 64.2211C61.9222 64.6942 61.8215 65.2013 61.8218 65.7134V146.749C61.8425 147.932 61.6272 149.108 61.1887 150.207C60.7502 151.306 60.0972 152.307 59.2677 153.151C58.4383 153.995 57.4491 154.665 56.3578 155.123C55.2665 155.58 54.095 155.816 52.9116 155.816C51.7282 155.816 50.5567 155.58 49.4654 155.123C48.3741 154.665 47.3849 153.995 46.5555 153.151C45.726 152.307 45.073 151.306 44.6345 150.207C44.196 149.108 43.9807 147.932 44.0014 146.749V53.6942C44.0014 51.1239 45.0224 48.6589 46.8398 46.8414C48.6573 45.024 51.1223 44.0029 53.6926 44.0029H81.1772C85.9244 44.0019 90.6254 44.9361 95.0114 46.7523C99.3975 48.5685 103.383 51.231 106.74 54.5878C110.096 57.9446 112.759 61.9299 114.575 66.3159C116.391 70.702 117.325 75.4029 117.324 80.1501Z" fill="url(#paint2_linear_1854_43792)"/>
<path d="M106.74 54.5872C106.981 54.8362 107.36 55.2206 107.66 55.5455C113.883 62.2262 117.337 71.0201 117.325 80.1498V80.8969C117.325 81.4113 117.292 81.9256 117.26 82.4373C117.26 82.6403 117.232 82.846 117.216 83.049C117.197 83.3198 117.173 83.5769 117.146 83.8368C117.119 84.0967 117.094 84.3214 117.065 84.5596C117.035 84.7978 116.994 85.101 116.954 85.3717C116.927 85.5747 116.894 85.7832 116.859 85.9835C116.783 86.4599 116.697 86.9337 116.602 87.4047C116.553 87.6402 116.502 87.8757 116.45 88.1058C116.399 88.3359 116.345 88.5741 116.288 88.8042L116.109 89.4945C115.987 89.9547 115.855 90.4068 115.717 90.848C115.643 91.0754 115.573 91.3028 115.497 91.5248C115.421 91.7468 115.346 91.9742 115.267 92.1962C115.189 92.4181 115.107 92.6347 115.026 92.8594C114.945 93.0841 114.858 93.2952 114.772 93.5145C114.685 93.7338 114.601 93.9503 114.501 94.1642C114.321 94.5973 114.13 95.025 113.93 95.4473C113.846 95.6206 113.765 95.7965 113.681 95.9725C113.275 96.8063 112.834 97.6184 112.365 98.4088L112.057 98.9232C110.432 101.576 108.426 103.609 105.844 106.544C105.284 107.182 104.688 107.87 104.068 108.612C101.632 111.511 100.498 115.412 100.498 119.483C100.498 122.897 101.182 125.098 103.058 128.833C98.0043 123.517 95.0997 118.59 93.6135 114.072C89.913 102.8 94.4906 93.769 97.7715 87.9407C100.771 82.6457 113.342 73.8153 106.74 54.5872Z" fill="url(#paint3_linear_1854_43792)"/>
<path d="M119.85 127.975C124.433 127.975 128.147 124.261 128.147 119.678C128.147 115.096 124.433 111.381 119.85 111.381C115.268 111.381 111.553 115.096 111.553 119.678C111.553 124.261 115.268 127.975 119.85 127.975Z" fill="url(#paint4_linear_1854_43792)"/>
<defs>
<linearGradient id="paint0_linear_1854_43792" x1="96.6347" y1="148.438" x2="175.927" y2="69.1458" gradientUnits="userSpaceOnUse">
<stop offset="0.18" stop-color="#00FFD4"/>
<stop offset="1" stop-color="#33F1FF"/>
</linearGradient>
<linearGradient id="paint1_linear_1854_43792" x1="73.9957" y1="85.5558" x2="85.728" y2="73.8235" gradientUnits="userSpaceOnUse">
<stop stop-color="#11EFD4"/>
<stop offset="1" stop-color="#00DBFF"/>
</linearGradient>
<linearGradient id="paint2_linear_1854_43792" x1="28.1814" y1="134.619" x2="107.476" y2="55.3238" gradientUnits="userSpaceOnUse">
<stop offset="0.18" stop-color="#0042FF"/>
<stop offset="1" stop-color="#00DBFF"/>
</linearGradient>
<linearGradient id="paint3_linear_1854_43792" x1="85.4057" y1="111.216" x2="124.387" y2="72.2344" gradientUnits="userSpaceOnUse">
<stop stop-color="#0042FF"/>
<stop offset="1" stop-color="#00DBFF"/>
</linearGradient>
<linearGradient id="paint4_linear_1854_43792" x1="113.984" y1="125.544" x2="125.716" y2="113.812" gradientUnits="userSpaceOnUse">
<stop stop-color="#0042FF"/>
<stop offset="1" stop-color="#00B7FF"/>
</linearGradient>
</defs>
</svg>
