<svg width="200" height="200" viewBox="0 0 200 200" fill="none" xmlns="http://www.w3.org/2000/svg">
<path d="M100 200C155.228 200 200 155.228 200 100C200 44.7715 155.228 0 100 0C44.7715 0 0 44.7715 0 100C0 155.228 44.7715 200 100 200Z" fill="#69E2DC"/>
<path d="M110.407 104.558L144.089 138.319C144.733 138.968 145.231 139.747 145.551 140.604C145.871 141.461 146.006 142.377 145.945 143.291C145.884 144.204 145.63 145.094 145.2 145.901C144.769 146.708 144.172 147.414 143.448 147.972C134.46 155.049 123.664 159.445 112.299 160.657C100.933 161.87 89.4569 159.85 79.1836 154.828C68.9102 149.807 60.2553 141.987 54.2098 132.265C48.1643 122.542 44.9726 111.309 45.0002 99.8528C45.0278 88.3964 48.2735 77.1793 54.3657 67.4859C60.458 57.7926 69.1505 50.0148 79.4479 45.0431C89.7453 40.0715 101.231 38.107 112.591 39.3745C123.95 40.6421 134.724 45.0905 143.679 52.2103C144.369 52.7781 144.931 53.4852 145.33 54.2855C145.729 55.0859 145.955 55.9615 145.994 56.8553C146.033 57.7492 145.883 58.6412 145.555 59.4731C145.226 60.3051 144.727 61.0583 144.089 61.6838L110.381 95.47C109.789 96.0656 109.319 96.7722 108.998 97.5495C108.672 98.3657 108.507 99.2376 108.511 100.117C108.501 100.999 108.676 101.874 109.024 102.684C109.338 103.465 109.809 104.173 110.407 104.764V104.558Z" fill="white"/>
</svg>
