<svg width="200" height="200" viewBox="0 0 200 200" fill="none" xmlns="http://www.w3.org/2000/svg">
<circle cx="100" cy="100" r="100" fill="#EA4E37"/>
<path fill-rule="evenodd" clip-rule="evenodd" d="M78.1114 50.6289C76.2661 51.5917 75.4299 52.4272 74.782 53.9576C74.0386 55.714 74.0456 56.8101 74.8113 58.6194C75.7796 60.9065 77.7559 62.1494 80.425 62.1494C82.3098 62.1494 82.8996 61.9546 84.186 60.9081C87.8213 57.9502 86.9082 52.3629 82.489 50.5284C80.7248 49.7962 79.6609 49.8206 78.1114 50.6289ZM119.638 50.3996C118.917 50.6053 117.666 51.5368 116.858 52.4691C115.652 53.86 115.388 54.4877 115.388 55.9669C115.388 58.1311 116.64 60.5239 118.271 61.4745C118.953 61.8725 120.315 62.1494 121.591 62.1494C125.21 62.1494 127.745 59.5924 127.745 55.9409C127.745 53.6559 125.722 51.1481 123.301 50.4321C121.462 49.8885 121.428 49.8881 119.638 50.3996ZM73.9924 67.5423C71.5581 68.3847 70.4913 68.8572 70.4913 69.0926C70.4913 69.2247 70.2599 69.3341 69.9765 69.3361C68.8483 69.3443 65.189 72.0086 62.7094 74.6278C57.9825 79.6202 54.4572 85.4909 51.1377 93.8998C48.9526 99.4342 46.7012 108.437 45.5553 116.225C44.7043 122.007 44.7006 122.05 44.3151 131.373L44 139L68.6275 138.895L93.2554 138.79L93.1974 134.724C93.0689 125.742 95.1942 110.789 97.8205 102.198C99.5772 96.4511 99.7881 96.2373 101.108 98.8646C102.244 101.127 105.026 112.874 105.7 118.258C106.143 121.793 107.15 135.511 107.15 138.01V138.993H131.575H156L155.893 133.81C155.694 124.27 154.499 113.502 152.946 107.28C152.751 106.497 152.565 105.719 152.532 105.55C151.851 102.024 149.57 95.0277 148.291 92.5471C148.091 92.1588 147.927 91.6587 147.927 91.4363C147.927 90.8265 144.516 83.9219 144.137 83.7662C143.957 83.6914 143.808 83.447 143.808 83.2226C143.808 82.4452 139.194 76.3464 136.798 73.9582C133.932 71.1007 129.505 68.4726 125.891 67.4837C123.836 66.9214 116.762 66.8853 116.417 67.435C116.277 67.6586 115.809 67.8415 115.376 67.8415C112.718 67.8415 105.912 72.555 102.477 76.7746C101.378 78.1228 100.314 79.2259 100.111 79.2259C99.9083 79.2259 99.2353 78.631 98.6154 77.9045C95.1057 73.7878 91.4835 70.7181 88.4705 69.3065C86.7504 68.501 85.0707 67.8415 84.7375 67.8415C84.4047 67.8415 84.0179 67.6586 83.8779 67.435C83.543 66.9003 75.5988 66.9865 73.9924 67.5423ZM84.7255 75.5479C88.48 77.3722 92.6763 81.5052 94.8149 85.4852L95.7449 87.2152L94.6509 89.4973C94.0496 90.7525 93.5574 92.0287 93.5574 92.3333C93.5574 92.6378 93.4099 93.061 93.2295 93.2733C93.0491 93.4859 92.6664 94.3914 92.3785 95.2859C92.0906 96.1803 91.7005 97.2781 91.5111 97.7254C91.1568 98.5621 89.8507 103.481 89.0278 107.077C88.772 108.195 88.398 109.75 88.197 110.533C87.4552 113.419 86.6359 120.191 86.3035 126.186C86.1672 128.646 85.8673 130.887 85.6371 131.167C85.315 131.558 81.4032 131.675 68.6316 131.675C53.4785 131.675 52.0212 131.616 51.7786 130.992C51.4495 130.145 51.8326 124.061 52.5427 118.868C52.6646 117.973 52.8631 116.509 52.983 115.615C53.1033 114.721 53.3512 113.257 53.5345 112.362C53.9349 110.406 53.918 110.479 54.1433 109.72C54.2426 109.384 54.5465 108.103 54.8192 106.873C55.0915 105.644 55.6784 103.448 56.1237 101.994C60.6335 87.264 67.5142 77.6845 75.846 74.5363C78.2428 73.6309 81.5577 74.0086 84.7255 75.5479ZM124.065 74.5831C130.713 76.4928 137.056 84.0829 141.791 95.7941C141.994 96.2974 142.334 97.1204 142.545 97.6237C142.757 98.1271 143.151 99.2704 143.422 100.165C143.692 101.059 144.075 102.212 144.273 102.725C144.471 103.239 144.632 104.097 144.632 104.632C144.632 105.168 144.798 105.707 145 105.831C145.203 105.954 145.474 106.743 145.603 107.583C145.731 108.423 145.947 109.842 146.084 110.736C146.22 111.63 146.496 112.728 146.699 113.176C146.901 113.623 147.171 115.086 147.298 116.428C147.425 117.77 147.707 120.514 147.926 122.527C148.691 129.592 148.732 130.598 148.277 131.139C147.649 131.886 114.773 131.932 114.307 131.187C114.138 130.918 113.93 128.676 113.842 126.206C113.755 123.735 113.576 121.439 113.446 121.104C113.315 120.768 113.142 119.579 113.063 118.461C112.982 117.343 112.731 115.467 112.505 114.294C112.278 113.12 111.896 111.107 111.656 109.821C111.416 108.536 111.045 106.921 110.832 106.235C110.619 105.548 110.445 104.73 110.445 104.416C110.445 103.309 107.626 94.6695 106.705 92.9537C106.497 92.5654 106.326 92.0531 106.326 91.8157C106.326 91.5782 105.955 90.6268 105.502 89.701C104.37 87.3876 104.454 86.6618 106.151 84.0955C109.968 78.3261 116.015 74.1399 120.77 73.9765C121.352 73.9565 122.835 74.2294 124.065 74.5831Z" fill="#FEFEFE"/>
</svg>
