<svg width="200" height="200" viewBox="0 0 200 200" fill="none" xmlns="http://www.w3.org/2000/svg">
<g clip-path="url(#clip0_1854_40243)">
<path fill-rule="evenodd" clip-rule="evenodd" d="M100 199.998C155.08 199.998 200 155.078 200 99.9976C200 44.9276 155.08 -0.00244141 100 -0.00244141C44.93 -0.00244141 1.66894e-06 44.9276 1.66894e-06 99.9976C-0.00999833 155.078 44.92 199.998 100 199.998Z" fill="black"/>
<path fill-rule="evenodd" clip-rule="evenodd" d="M73.9329 48H88.5728C89.132 48 89.5793 48.4581 89.5793 49.0179V70.4353C89.5793 71.0053 90.0368 71.4532 90.5959 71.4532H109.394C109.953 71.4532 110.411 71.0053 110.411 70.4353V49.0179C110.411 48.4581 110.858 48 111.427 48H126.057C126.616 48 127.074 48.4581 127.074 49.0179V70.4353C127.074 71.0053 127.521 71.4532 128.09 71.4532H145.983C146.553 71.4532 147 71.9113 147 72.4712V87.0887C147 87.6587 146.553 88.1066 145.983 88.1066H128.09C127.521 88.1066 127.074 88.5647 127.074 89.1246V111.875C127.074 112.435 127.521 112.893 128.09 112.893H145.983C146.553 112.893 147 113.341 147 113.911V128.529C147 129.089 146.553 129.547 145.983 129.547H128.09C127.521 129.547 127.074 130.005 127.074 130.565V151.982C127.074 152.542 126.616 153 126.057 153H111.427C110.858 153 110.411 152.542 110.411 151.982V130.565C110.411 129.995 109.953 129.547 109.394 129.547H90.6061C90.0469 129.547 89.5894 130.005 89.5894 130.565V151.982C89.5894 152.542 89.1421 153 88.583 153H73.9431C73.3839 153 72.9265 152.542 72.9265 151.982V130.565C72.9265 129.995 72.4791 129.547 71.9098 129.547H54.0167C53.4473 129.547 53 129.089 53 128.529V113.911C53 113.341 53.4473 112.893 54.0167 112.893H71.9098C72.4791 112.893 72.9265 112.435 72.9265 111.875V89.1246C72.9265 88.5647 72.4791 88.1066 71.9098 88.1066H54.0167C53.4473 88.1066 53 87.6587 53 87.0887V72.4712C53 71.9113 53.4473 71.4532 54.0167 71.4532H71.9098C72.4791 71.4532 72.9265 71.0053 72.9265 70.4353V49.0179C72.9061 48.4581 73.3738 48 73.9329 48ZM110.421 111.886V89.1246C110.421 88.5647 109.963 88.1066 109.404 88.1066H90.6061C90.0469 88.1066 89.5894 88.5647 89.5894 89.1246V111.875C89.5894 112.435 90.0469 112.893 90.6061 112.893H109.404C109.963 112.904 110.421 112.435 110.421 111.886Z" fill="white"/>
</g>
<defs>
<clipPath id="clip0_1854_40243">
<rect width="200" height="200" fill="white"/>
</clipPath>
</defs>
</svg>
