<svg width="200" height="200" viewBox="0 0 200 200" fill="none" xmlns="http://www.w3.org/2000/svg">
<path fill-rule="evenodd" clip-rule="evenodd" d="M100 0C155.22 0 200 44.78 200 100C200 155.22 155.22 200 100 200C44.78 200 0 155.22 0 100C0 44.78 44.78 0 100 0Z" fill="black"/>
<path d="M58.3071 46.3314L52 52.6453L59.9797 60.6337L67.9768 68.6221L67.3147 70.5756C66.461 73.1395 66.1125 75.2849 66.1125 78.1279C66.1125 87.3895 70.9561 95.2733 79.5281 99.9651C82.9779 101.849 88.9016 103.977 95.4701 105.669C108.293 108.965 110.262 109.541 112.788 110.727C116.238 112.366 117.946 114.145 118.66 116.831C118.974 118 118.956 120.616 118.642 121.872C117.841 124.924 115.245 127.994 112.022 129.669C107.666 131.953 100.087 132.581 94.3724 131.116C92.2468 130.593 89.2327 129.11 87.7169 127.872C84.633 125.326 82.2287 120.93 81.1659 115.855C80.9917 115.052 80.8523 114.372 80.8348 114.337C80.7826 114.267 62.9416 116.012 62.8544 116.116C62.7847 116.169 62.837 116.901 62.959 117.738C63.5165 121.767 64.9278 126.564 66.5481 129.895L67.4889 131.831L59.7358 139.593L52 147.355L58.3245 153.686L64.6316 160L72.6287 151.994L80.6084 144.006L81.9848 144.581C89.2675 147.651 100.192 148.61 110.785 147.076C113.328 146.709 117.005 145.837 118.939 145.122L120.089 144.703L127.737 152.36L135.368 160L141.675 153.686L148 147.355L140.909 140.256L133.835 133.174L134.724 131.36C136.571 127.645 137.337 124.488 137.494 120.145C137.773 111.86 135.63 105.616 130.751 100.471C125.664 95.1163 119.932 92.5698 103.746 88.4884C92.3339 85.6279 87.4207 83.657 85.4693 81.1802C83.5354 78.7384 83.3612 75.3198 85.0512 72.8256C86.0269 71.3779 88.4312 69.8256 91.0447 68.9535C93.9891 67.9593 98.9372 67.5058 102.613 67.8895C110.367 68.7093 114.269 72.0232 115.977 79.2791C116.186 80.1686 116.377 80.9186 116.395 80.9535C116.43 81.0058 129.044 80.5523 132.825 80.3605L134.985 80.2558L134.863 78.7384C134.619 75.6512 134.009 72.8954 132.894 70.0174L132.285 68.3954L140.142 60.5116L148 52.6453L141.693 46.314L135.368 40L127.424 47.9535L119.461 55.9244L117.527 55.1919C112.771 53.4128 108.171 52.6279 101.394 52.436C93.9891 52.2442 87.4904 53.2035 82.5074 55.2267L80.6606 55.9767L72.6461 47.9884L64.6316 40L58.3071 46.3314Z" fill="white"/>
</svg>
