<svg width="200" height="200" viewBox="0 0 200 200" fill="none" xmlns="http://www.w3.org/2000/svg">
<path fill-rule="evenodd" clip-rule="evenodd" d="M100 0C155.22 0 200 44.78 200 100C200 155.22 155.22 200 100 200C44.78 200 0 155.22 0 100C0 44.78 44.78 0 100 0Z" fill="#CC0124"/>
<path d="M146.642 48C143.786 48 141.316 49.6252 140.096 51.9958L59.8289 51.8409C58.5829 49.5531 56.1525 48 53.3584 48C49.2944 48 46 51.2855 46 55.3383C46 59.3912 49.2944 62.6766 53.3584 62.6766C53.3893 62.6768 53.4202 62.6768 53.4511 62.6766C53.6261 62.6755 53.7974 62.6604 53.9693 62.6473L71.1252 100.331C70.3895 101.475 69.958 102.832 69.9589 104.291C69.961 107.973 72.6836 111.012 76.2282 111.54L94.5933 151.879C93.521 153.156 92.8739 154.799 92.8749 156.595C92.8772 160.594 96.0876 163.839 100.077 163.925L100.111 164L100.144 163.928C100.177 163.928 100.209 163.933 100.242 163.933C100.281 163.933 100.321 163.933 100.36 163.933C104.391 163.9 107.633 160.615 107.6 156.595V156.586C107.599 154.707 106.884 152.999 105.719 151.701L123.997 111.614C127.902 111.441 131.002 108.222 130.97 104.291V104.283C130.969 102.576 130.38 101.01 129.4 99.7643L146.317 62.6603C146.426 62.665 146.532 62.6766 146.642 62.6766C146.667 62.6768 146.692 62.6768 146.717 62.6766C150.76 62.6557 154.021 59.3703 154 55.3383C154 51.2855 150.705 48 146.642 48V48ZM100.233 149.248C100.034 149.248 99.838 149.262 99.6425 149.278L81.8069 110.098C83.5518 108.757 84.6813 106.658 84.684 104.291V104.283C84.6839 104.073 84.6696 103.867 84.6522 103.662L100.203 92.3492L116.253 104.125C116.252 104.181 116.245 104.235 116.245 104.291C116.246 106.431 117.171 108.35 118.635 109.691L100.595 149.266C100.474 149.26 100.355 149.248 100.233 149.248ZM95.4036 88.8283L81.9741 98.5981C80.7047 97.5644 79.084 96.9435 77.3172 96.9445C76.8264 96.9448 76.3476 96.9952 75.8837 97.0868L60.4508 63.1854L95.4036 88.8283ZM62.2953 57.5056L138.278 57.6376L100.217 85.3266L62.2953 57.5056ZM123.604 96.9445C121.699 96.9456 119.969 97.6742 118.662 98.8589L105.016 88.8475L139.609 63.6814L124.424 96.9923C124.154 96.9625 123.881 96.9443 123.604 96.9445Z" fill="white"/>
</svg>
