<svg width="200" height="200" viewBox="0 0 200 200" fill="none" xmlns="http://www.w3.org/2000/svg">
<path fill-rule="evenodd" clip-rule="evenodd" d="M100 0C155.22 0 200 44.78 200 100C200 155.22 155.22 200 100 200C44.78 200 0 155.22 0 100C0 44.78 44.78 0 100 0Z" fill="white"/>
<path d="M30 75H51.3378C63.7849 75 73.8611 85.0762 73.8611 97.5233H30V75Z" fill="#2D1680"/>
<path d="M78.3066 75H99.6445C112.092 75 122.168 85.0762 122.168 97.5233H78.3066V75Z" fill="#2D1680"/>
<path d="M30 124.788H51.3378C63.7849 124.788 73.8611 114.712 73.8611 102.265H30V124.788Z" fill="#2D1680"/>
<path d="M78.3066 124.788H99.6445C112.092 124.788 122.168 114.712 122.168 102.265H78.3066V124.788Z" fill="#2D1680"/>
<path d="M120.39 75H136.186L169.882 124.788H153.197L120.39 75Z" fill="#2D1680"/>
<path opacity="0.9329" d="M155.804 94.5597L142.765 75.4446H169.141L155.804 94.5597Z" fill="#EF88AA" stroke="#EF88AA" stroke-width="2" stroke-miterlimit="16"/>
<path opacity="0.9329" d="M133.726 105.525L120.834 124.047H146.025L133.726 105.525Z" fill="#EF88AA" stroke="#EF88AA" stroke-width="2" stroke-miterlimit="16"/>
</svg>
