<svg width="200" height="200" viewBox="0 0 200 200" fill="none" xmlns="http://www.w3.org/2000/svg">
<g clip-path="url(#clip0_1854_40410)">
<path fill-rule="evenodd" clip-rule="evenodd" d="M100 0C155.22 0 200 44.78 200 100C200 155.22 155.22 200 100 200C44.78 200 0 155.22 0 100C0 44.78 44.78 0 100 0Z" fill="white"/>
<path fill-rule="evenodd" clip-rule="evenodd" d="M67.499 5.41659C77.9155 2.0833 88.7487 0 100.415 0C155.831 0 200.414 44.5827 199.997 99.9986C199.997 154.998 154.998 199.997 99.9986 199.997C44.9994 199.997 0 155.414 0 99.9986C0 73.6202 10.2245 49.968 26.6663 32.1252V103.748C27.4996 144.165 59.9991 176.247 100.415 176.247C141.248 176.247 174.164 143.331 174.164 102.499C174.164 61.6658 141.248 28.7496 100.415 28.7496H83.7488V40.4161H101.665C135.831 40.8327 162.914 68.749 162.914 102.499C162.914 136.665 134.998 164.581 100.832 164.581C66.6657 164.581 38.7494 136.665 38.7494 102.499V21.2497C44.166 17.0831 49.9993 13.3331 56.2492 10.4165V102.915C56.6659 127.498 76.2489 147.081 100.832 147.081C125.415 147.081 145.415 127.081 145.415 102.499C145.415 77.9155 125.415 57.9158 100.832 57.9158H84.1655V69.5823H101.665C119.582 69.999 134.165 84.9988 134.165 102.915C134.165 121.248 119.165 136.248 100.832 136.248C82.4988 136.248 67.499 121.248 67.499 102.915V5.41659ZM100.415 84.9988H83.7488V102.082C83.7488 110.832 91.2487 118.332 100.415 118.332C109.582 118.332 117.082 110.832 117.082 101.665C117.082 92.4987 109.582 84.9988 100.415 84.9988Z" fill="url(#paint0_linear_1854_40410)"/>
</g>
<defs>
<linearGradient id="paint0_linear_1854_40410" x1="-5.85539e-07" y1="100" x2="200" y2="100" gradientUnits="userSpaceOnUse">
<stop stop-color="#0368FF"/>
<stop offset="1" stop-color="#00A1FE"/>
</linearGradient>
<clipPath id="clip0_1854_40410">
<rect width="200" height="200" fill="white"/>
</clipPath>
</defs>
</svg>
