<svg width="200" height="200" viewBox="0 0 200 200" fill="none" xmlns="http://www.w3.org/2000/svg">
<path d="M100 200C155.228 200 200 155.228 200 100C200 44.7715 155.228 0 100 0C44.7715 0 0 44.7715 0 100C0 155.228 44.7715 200 100 200Z" fill="#272C33"/>
<path d="M59.2648 62.0423L69.0884 56.4075L70.413 58.6746L106.621 37.8277L103.981 36.3081L101.315 34.7639L99.9902 34L41 68.022V69.5416L57.9402 59.7588L59.2648 62.0423Z" fill="#D6DCE1"/>
<path d="M59.2648 83.4646L87.6491 67.0858L88.9742 69.3939L125.183 48.5305L122.542 46.9863L119.884 45.4667L118.56 44.7193L41 89.4198V90.9389L57.9402 81.1562L59.2648 83.4646Z" fill="#D6DCE1"/>
<path d="M59.2648 94.1673L96.922 72.4576L98.2625 74.741L134.463 53.853L131.814 52.3581L129.165 50.8139L127.832 50.05L41 100.097V101.65L57.9402 91.8751L59.2648 94.1673Z" fill="#D6DCE1"/>
<path d="M59.2648 104.861L106.474 77.6571L107.806 79.9322L143.744 59.2249L141.103 57.6807L138.445 56.1611L137.121 55.3973L41 110.816V112.336L57.9402 102.554L59.2648 104.861Z" fill="#D6DCE1"/>
<path d="M59.2648 115.539L115.763 82.9874L117.087 85.2959L153.025 64.5557L150.375 63.0525L147.726 61.5082L146.393 60.7444L41 121.503V123.022L57.9402 113.264L59.2648 115.539Z" fill="#D6DCE1"/>
<path d="M157.007 66.864L155.682 66.0918L41 132.214V133.733L57.9402 123.983L59.2648 126.259L115.763 93.7069L117.087 95.9906L158.989 71.8498V68.0221L157.007 66.864Z" fill="#D6DCE1"/>
<path d="M48.2755 140.108L57.7781 134.638L59.0945 136.913L115.493 104.419L116.818 106.719L159 82.4057V74.7586L46.9755 139.353L48.2755 140.108Z" fill="#D6DCE1"/>
<path d="M56.2458 144.814L57.5786 145.578L67.2129 140.009L68.5539 142.309L115.483 115.252L116.808 117.56L158.989 93.2474V85.5915L56.2458 144.814Z" fill="#D6DCE1"/>
<path d="M66.8508 150.933L76.5015 145.356L77.8262 147.656L115.483 125.938L116.808 128.238L158.989 103.925V96.2865L65.5015 150.153L66.8508 150.933Z" fill="#D6DCE1"/>
<path d="M76.1308 156.28L85.7736 150.72L87.114 153.004L115.482 136.658L116.808 138.933L158.989 114.62V106.989L74.8062 155.525L76.1308 156.28Z" fill="#D6DCE1"/>
<path d="M84.0952 160.872L85.4118 161.628L95.0873 156.059L96.387 158.367L115.483 147.336L116.808 149.635L158.989 125.322V117.675L84.0952 160.872Z" fill="#D6DCE1"/>
<path d="M94.6924 167L104.335 161.406L105.659 163.706L115.483 158.03L116.808 160.33L158.989 136.041V128.394L93.3673 166.244L94.6924 167Z" fill="#D6DCE1"/>
<path d="M115.911 43.1752L113.253 41.6556L110.604 40.1278L109.279 39.3475L41 78.7004V80.2202L57.9402 70.4782L59.2648 72.7452L78.3608 61.7386L79.7182 64.0467L115.911 43.1752Z" fill="#D6DCE1"/>
</svg>
