<svg width="200" height="200" viewBox="0 0 200 200" fill="none" xmlns="http://www.w3.org/2000/svg">
<path d="M100 200C155.228 200 200 155.228 200 100C200 44.7715 155.228 0 100 0C44.7715 0 0 44.7715 0 100C0 155.228 44.7715 200 100 200Z" fill="white"/>
<path d="M156.257 67.4433C152.427 74.5252 146.109 79.9229 138.534 82.5855C130.928 85.2755 122.601 85.0568 115.145 81.9712C118.975 74.8892 125.292 69.4916 132.868 66.829C140.476 64.1419 148.804 64.3684 156.257 67.4649" fill="#39D86E"/>
<path d="M65.1628 115.635C67.7265 122.699 72.6943 128.626 79.1886 132.37C85.7126 136.134 93.3406 137.494 100.757 136.217C108.173 134.938 114.913 131.102 119.813 125.369C124.668 119.663 127.34 112.407 127.35 104.901V103.171C127.068 99.0347 125.178 95.175 122.089 92.4241C118.981 89.6534 114.929 88.1935 110.775 88.3483C106.622 88.5032 102.689 90.2606 99.7941 93.2548C96.9213 96.2306 95.3289 100.221 95.3602 104.365C95.3624 108.523 93.7322 112.515 90.8228 115.475C87.8942 118.452 83.9318 120.174 79.766 120.282H78.8568C73.9228 120.195 69.1374 118.572 65.1628 115.635Z" fill="#C336D8"/>
<path d="M79.3158 116.15C81.6331 116.122 83.8906 115.407 85.8041 114.095C87.7177 112.782 89.2019 110.931 90.0696 108.773C90.9373 106.616 91.1502 104.248 90.6812 101.97C90.2121 99.6912 89.0822 97.603 87.4335 95.9675C85.7852 94.332 83.6916 93.2227 81.4166 92.7792C79.1416 92.3361 76.7868 92.5781 74.6486 93.4753C72.5103 94.3724 70.6842 95.8847 69.4 97.8216C68.1158 99.7585 67.4309 102.033 67.4316 104.36C67.4407 105.918 67.7552 107.459 68.3574 108.894C68.9596 110.33 69.8375 111.632 70.9412 112.727C72.0448 113.822 73.3524 114.687 74.7894 115.275C76.2263 115.862 77.7644 116.159 79.3158 116.15Z" fill="#C336D8"/>
<path d="M67.6456 152.451C61.3802 148.861 55.8808 144.066 51.4617 138.341C47.0426 132.617 43.7903 126.074 41.8908 119.086C40.0101 112.121 39.5261 104.85 40.467 97.6964C41.4079 90.542 43.7549 83.6466 47.3718 77.4105C48.9021 74.7939 50.6399 72.3054 52.5684 69.9692L52.6546 69.861L77.4054 41C78.9207 42.2719 80.1688 43.8338 81.0771 45.5947C81.9854 47.3555 82.5358 49.2802 82.6962 51.2567C82.8566 53.2332 82.6238 55.2219 82.0114 57.1072C81.399 58.9924 80.4192 60.7366 79.129 62.238L64.2802 79.5434C60.7665 83.7973 58.1768 88.7415 56.6772 94.0589C55.1776 99.3759 54.8011 104.949 55.5719 110.421C56.3428 115.893 58.2438 121.143 61.1533 125.834C64.0628 130.526 67.9165 134.555 72.4673 137.663C79.3718 142.396 87.5633 144.872 95.922 144.753C104.281 144.634 112.399 141.928 119.168 137.002C123.638 133.743 127.385 129.589 130.173 124.801C131.272 122.897 132.215 120.906 132.991 118.848L140.661 97.4069C142.043 93.6607 144.843 90.6141 148.452 88.9315C152.079 87.2349 156.223 87.0285 160 88.356L147.215 124.152C144.378 131.637 139.943 138.407 134.224 143.989C125.53 152.437 114.342 157.828 102.339 159.354C90.3348 160.88 78.1623 158.458 67.6456 152.451Z" fill="#5B41F5"/>
</svg>
