<svg width="200" height="200" viewBox="0 0 200 200" fill="none" xmlns="http://www.w3.org/2000/svg">
<path fill-rule="evenodd" clip-rule="evenodd" d="M100 0C155.22 0 200 44.78 200 100C200 155.22 155.22 200 100 200C44.78 200 0 155.22 0 100C0 44.78 44.78 0 100 0Z" fill="black"/>
<path fill-rule="evenodd" clip-rule="evenodd" d="M59.974 22.3356C61.7692 23.0356 63.2176 24.683 63.62 26.4826C63.6951 26.8191 64.009 28.5811 64.3174 30.398C65.6356 38.1654 66.5872 43.7602 67.6368 49.9138C68.0098 52.1009 68.6931 56.1203 69.1552 58.8458C69.6173 61.5713 70.1895 64.93 70.4267 66.3095C70.6639 67.6891 71.1384 70.4696 71.481 72.4885C71.8236 74.5074 72.3209 77.4256 72.5859 78.9734C72.851 80.5212 73.4231 83.8798 73.8572 86.4371C74.2911 88.9943 75.0963 93.7295 75.6465 96.9597C76.1966 100.19 77.0019 104.925 77.4361 107.482C78.3393 112.802 79.1444 117.521 79.7562 121.082C80.1934 123.628 80.2634 124.713 80.0497 125.638C79.8364 126.563 79.3221 127.479 78.5588 128.293C75.5854 131.468 70.2236 130.343 68.7916 126.245C68.6659 125.885 68.2524 123.746 67.8728 121.492C67.4932 119.238 67.0213 116.457 66.824 115.313C66.6267 114.169 66.241 111.912 65.9668 110.296C65.6926 108.681 65.2222 105.915 64.9214 104.148C64.6206 102.382 64.124 99.4634 63.8176 97.6632C63.5113 95.8631 63.1279 93.6194 62.9655 92.6772C62.8031 91.7351 62.3623 89.1473 61.9859 86.9265C61.6095 84.7057 61.0853 81.6224 60.821 80.0746C60.5566 78.5268 59.8677 74.4798 59.29 71.0814C58.7123 67.683 58.0235 63.636 57.7592 62.0882C57.495 60.5404 56.9986 57.6222 56.656 55.6034C56.3135 53.5845 55.8449 50.8315 55.6151 49.4856C54.7222 44.2582 54.1921 41.1476 53.5928 37.617C53.2501 35.5982 52.7514 32.6742 52.4848 31.1193C52.2182 29.5644 52 28.0668 52 27.7911C52 24.9658 54.3533 22.3135 57.106 22.0364C58.1208 21.9342 59.2454 22.0515 59.974 22.3356ZM106.598 85.9513C119.172 87.2699 130.545 93.5957 138.349 103.612C143.506 110.231 146.719 118.08 147.771 126.631C148.076 129.108 148.077 134.665 147.772 137.154C146.469 147.821 141.857 157.244 134.26 164.761C126.752 172.19 117.025 176.757 106.399 177.843C103.922 178.096 98.2041 178.033 96.066 177.729C90.1963 176.895 85.6253 175.473 80.7311 172.96C67.7258 166.281 58.5424 153.71 56.2289 139.417C55.7709 136.588 55.6396 134.89 55.642 131.831C55.6484 124.257 57.289 117.497 60.751 110.78C61.7926 108.759 63.6148 105.765 63.7321 105.882C63.7683 105.918 63.9791 107.009 64.2002 108.306C64.4214 109.603 64.996 112.976 65.4773 115.802C65.9585 118.629 66.4813 121.69 66.639 122.604C66.9008 124.121 66.9115 124.335 66.7613 125.051C66.3088 127.208 66.1661 128.799 66.1586 131.77C66.1539 133.624 66.2145 135.258 66.3171 136.052C67.0541 141.756 68.9551 146.913 72.0102 151.497C73.5696 153.837 74.5198 154.996 76.5629 157.051C81.1606 161.677 86.6775 164.854 92.8606 166.438C101.933 168.763 111.432 167.511 119.429 162.937C129.134 157.386 135.482 148.108 137.238 136.909C137.555 134.882 137.554 128.895 137.236 126.876C136.279 120.802 133.987 115.249 130.548 110.675C127.883 107.131 125.024 104.426 121.469 102.085C117.032 99.1633 112.21 97.337 106.767 96.5166C104.401 96.1601 99.6642 96.129 97.3326 96.4547C90.6246 97.3918 85.0065 99.7558 79.7741 103.843C79.0455 104.412 78.4344 104.858 78.416 104.834C78.3975 104.81 78.2076 103.744 77.9937 102.466C77.7799 101.187 77.3573 98.6818 77.0547 96.8985C76.752 95.1152 76.5042 93.5617 76.5042 93.4465C76.5041 93.1813 79.2122 91.5545 81.5887 90.392C86.7254 87.8793 91.8504 86.4655 98.0677 85.846C99.4037 85.7128 104.981 85.7817 106.598 85.9513Z" fill="#CCFF00"/>
<path fill-rule="evenodd" clip-rule="evenodd" d="M109.807 105.081C111.912 105.871 113.377 107.642 113.815 109.925C114.269 112.294 113.131 114.813 110.994 116.17C110.132 116.718 109.311 116.974 108.176 117.049C106.236 117.178 104.667 116.602 103.354 115.276C99.983 111.872 101.517 106.222 106.168 104.914C107.06 104.664 108.921 104.749 109.807 105.081ZM89.3935 112.206C91.0556 112.554 92.7521 113.929 93.5504 115.576C93.9861 116.475 94.052 116.728 94.1113 117.728C94.2332 119.787 93.7033 121.224 92.3178 122.593C90.9831 123.912 89.4076 124.513 87.5924 124.395C85.0149 124.228 82.9087 122.599 82.0657 120.121C81.7288 119.131 81.7552 117.264 82.1212 116.2C82.4437 115.263 83.1935 114.177 83.9889 113.496C84.62 112.956 85.8402 112.346 86.5819 112.2C87.3492 112.049 88.6539 112.052 89.3935 112.206ZM125.13 119.49C127 120.184 128.415 121.71 129.014 123.68C129.237 124.416 129.234 126.166 129.007 126.912C128.333 129.132 126.562 130.813 124.34 131.343C123.323 131.586 122.531 131.566 121.467 131.272C120.267 130.94 119.504 130.513 118.707 129.73C115.874 126.945 116.29 122.409 119.587 120.136C121.12 119.079 123.329 118.822 125.13 119.49ZM104.923 125.71C107.027 126.269 108.491 127.544 109.284 129.506C109.585 130.25 109.632 130.532 109.638 131.648C109.65 133.642 109.071 135.009 107.66 136.317C106.506 137.387 105.192 137.885 103.52 137.885C101.693 137.885 100.508 137.399 99.2185 136.121C97.7934 134.708 97.2488 133.3 97.3694 131.342C97.4444 130.124 97.7171 129.313 98.4084 128.252C99.7454 126.2 102.59 125.09 104.923 125.71ZM84.8256 132.029C87.5695 132.495 89.5782 134.484 90.0588 137.212C90.2099 138.07 90.2077 138.312 90.0401 139.205C89.8165 140.397 89.7137 140.658 89.1142 141.559C88.3081 142.769 87.2028 143.615 85.8158 144.083C84.863 144.404 82.8245 144.375 81.9209 144.028C79.9846 143.283 78.5929 141.837 78.013 139.968C77.6983 138.954 77.73 137.181 78.0804 136.188C78.8299 134.064 80.6084 132.522 82.8152 132.085C83.9144 131.867 83.8773 131.868 84.8256 132.029ZM120.219 139.183C120.738 139.289 121.494 139.551 121.898 139.764C123.324 140.515 124.667 142.239 125.014 143.761C125.083 144.064 125.139 144.724 125.139 145.229C125.139 146.389 124.99 147.043 124.496 148.043C123.797 149.461 122.307 150.704 120.734 151.183C119.731 151.488 118.056 151.457 117.072 151.115C115.173 150.456 113.742 149.036 113.113 147.187C112.558 145.552 112.823 143.319 113.738 141.943C114.728 140.453 116.05 139.543 117.773 139.166C118.732 138.956 119.128 138.959 120.219 139.183ZM101.008 146.598C101.846 146.843 102.758 147.358 103.417 147.96C104.843 149.262 105.443 150.604 105.45 152.509C105.455 153.85 105.304 154.449 104.656 155.664C103.554 157.728 100.63 159.135 98.3473 158.698C95.642 158.181 93.6256 156.144 93.1593 153.458C92.6716 150.648 94.6023 147.554 97.394 146.671C98.409 146.35 100.044 146.317 101.008 146.598Z" fill="#1CD8D2"/>
</svg>
