<svg width="200" height="200" viewBox="0 0 200 200" fill="none" xmlns="http://www.w3.org/2000/svg">
<path fill-rule="evenodd" clip-rule="evenodd" d="M100 0C155.22 0 200 44.78 200 100C200 155.22 155.22 200 100 200C44.78 200 0 155.22 0 100C0 44.78 44.78 0 100 0Z" fill="#241D2F"/>
<path fill-rule="evenodd" clip-rule="evenodd" d="M98.8775 44.2695C94.2095 51.7866 83.4785 69.4514 83.3084 69.8984C83.1761 70.2462 86.3289 73.7178 91.5488 78.9719L100.003 87.4819L108.478 78.937L116.952 70.3918L108.714 56.8931C104.183 49.4686 100.338 43.2344 100.169 43.0392C100 42.844 99.4189 43.3976 98.8775 44.2695ZM106.971 60.4997C109.963 65.3965 112.412 69.5514 112.412 69.7323C112.412 69.9136 109.572 72.9185 106.101 76.4103L99.7893 82.759L93.4352 76.3574L87.0812 69.9558L93.5057 59.4485L99.9302 48.9416L100.73 50.2688C101.169 50.9992 103.978 55.6028 106.971 60.4997ZM47.5332 71.5315C47.7803 71.8452 51.6056 77.1776 56.0334 83.3807C60.4616 89.5838 64.7192 95.5412 65.4951 96.619L66.906 98.579L65.502 97.7444C63.3579 96.4697 58.7543 94.9719 56.0317 94.6627C54.6884 94.5101 50.7499 93.9561 47.2796 93.4319C37.4824 91.9514 36.5726 91.8686 36.9406 92.487C37.2585 93.0214 49.5413 110.678 52.0147 114.155L53.3385 116.017L50.6143 114.67C48.5513 113.651 46.4573 113.08 41.9876 112.317C31.8904 110.594 25.1932 109.597 25.0035 109.788C24.9033 109.889 26.975 113.17 29.6075 117.079C39.1515 131.254 42.7427 136.606 46.8306 142.746C51.2917 149.447 51.2779 149.436 54.2027 148.587C56.8642 147.816 75.1391 145.372 82.2882 144.833C91.0876 144.169 108.33 144.172 117.297 144.839C124.841 145.4 137.435 147.02 143.508 148.211C145.722 148.645 147.85 149 148.237 149C148.707 149 152.161 144.197 158.636 134.543C163.969 126.592 169.873 117.813 171.757 115.035C173.642 112.257 175.098 109.898 174.995 109.794C174.797 109.594 167.862 110.628 158.005 112.327C153.962 113.024 151.296 113.724 149.543 114.548C148.135 115.21 147.117 115.527 147.28 115.253C147.443 114.979 150.99 109.864 155.162 103.887C159.334 97.9092 162.887 92.7794 163.058 92.487C163.419 91.8686 162.509 91.9514 152.713 93.4319C149.242 93.9561 145.339 94.5077 144.039 94.657C141.362 94.965 136.568 96.5091 134.533 97.7189L133.172 98.5281L133.827 97.52C134.188 96.9655 134.264 96.8658 134.598 96.5046C134.718 96.3744 134.801 96.2995 134.801 96.2995C134.801 96.2995 138.635 90.8535 142.99 84.7821C147.344 78.7102 151.343 73.1182 151.876 72.355L152.846 70.9672L150.032 71.2584C148.483 71.4183 144.836 71.8932 141.925 72.3132C139.014 72.7336 134.725 73.286 132.393 73.5407C127.592 74.0652 122.954 75.4227 119.905 77.1969C116.302 79.2922 113.391 82.414 106.61 91.4523C101.578 98.1598 99.9188 100.111 99.5996 99.6924C99.37 99.391 96.4044 95.4592 93.0102 90.9548C89.6156 86.4509 85.9519 81.8997 84.8687 80.842C80.6444 76.7166 75.0614 74.356 67.5988 73.5407C65.2671 73.286 60.9777 72.7336 58.0671 72.3132C49.1521 71.0262 47.0105 70.8671 47.5332 71.5315ZM65.8073 76.8114C72.614 77.7723 74.3722 78.1656 76.4923 79.1999C81.8242 81.8021 83.0279 83.0793 93.6787 97.4347L97.8679 103.081L91.8407 111.089C87.0372 117.472 85.7142 118.99 85.3258 118.567C85.0576 118.275 81.4879 113.33 77.3935 107.578C73.2987 101.826 66.4969 92.2832 62.2779 86.3713C58.059 80.4598 54.607 75.5601 54.607 75.483C54.607 75.2775 56.7315 75.5293 65.8073 76.8114ZM142.457 79.7921C140.633 82.33 135.453 89.5735 130.945 95.8894C115.423 117.638 114.399 119.061 114.276 119.061C114.207 119.061 111.443 115.462 108.132 111.063L102.113 103.066L109.31 93.4533C113.883 87.3462 117.282 83.2142 118.632 82.1224C122.979 78.6069 126.593 77.5927 141.111 75.8148C143.574 75.5129 145.63 75.2464 145.681 75.2222C145.732 75.198 144.281 77.2547 142.457 79.7921ZM54.3464 97.9597C64.779 99.6957 66.6516 101.063 76.5936 114.196L83.0531 122.729L77.6883 129.908C73.556 135.437 72.2163 136.971 71.8565 136.584C71.0932 135.763 44.0229 96.9249 44.0229 96.6506C44.0229 96.3405 46.5155 96.6567 54.3464 97.9597ZM155.969 96.692C155.969 96.7949 151.363 103.485 145.734 111.559C140.104 119.632 133.871 128.583 131.883 131.449C129.895 134.316 128.135 136.739 127.972 136.834C127.81 136.93 125.263 133.793 122.313 129.863L116.948 122.717L123.403 114.19C126.953 109.5 130.856 104.744 132.077 103.62C135.504 100.464 138.666 99.1527 145.693 97.9707C154.091 96.5587 155.969 96.3249 155.969 96.692ZM106.187 114.037L112.276 122.137L106.34 130.375C103.074 134.906 100.273 138.689 100.113 138.782C99.9542 138.876 97.103 135.169 93.778 130.545L87.7325 122.137L93.8215 114.037C97.1706 109.582 99.9529 105.937 100.005 105.937C100.056 105.937 102.838 109.582 106.187 114.037ZM39.5056 115.367C47.5613 116.549 51.0007 117.862 54.7185 121.177C56.162 122.464 71.3244 142.086 71.0875 142.36C71.0268 142.429 68.897 142.758 66.354 143.091C63.8114 143.423 59.7402 144.076 57.3071 144.542C53.6068 145.25 52.7995 145.298 52.3725 144.836C51.9093 144.335 32.8023 115.941 32.0211 114.593C31.763 114.147 31.9059 114.074 32.6659 114.264C33.2028 114.398 36.2807 114.894 39.5056 115.367ZM167.934 114.652C167.217 115.9 148.078 144.34 147.63 144.825C147.217 145.273 146.112 145.188 141.271 144.337C138.048 143.771 134.313 143.194 132.969 143.056C128.193 142.565 127.978 143.43 135.291 133.72C144.081 122.048 144.636 121.403 147.547 119.475C150.639 117.429 154.894 116.116 161.872 115.055C168.652 114.025 168.282 114.05 167.934 114.652ZM90.9024 133.13L96.4635 140.593L87.6486 141.074C82.8003 141.338 78.0799 141.669 77.1582 141.808C75.6924 142.029 75.4025 141.937 74.8407 141.073C74.2118 140.107 74.3099 139.936 79.5665 132.877C82.5186 128.911 85.0258 125.667 85.1378 125.668C85.2497 125.668 87.8436 129.026 90.9024 133.13ZM120.432 132.868C125.722 139.955 125.796 140.083 125.154 141.069C124.553 141.993 124.332 142.05 122.328 141.798C121.132 141.647 116.407 141.315 111.829 141.058L103.504 140.593L109.077 133.131C112.143 129.027 114.742 125.669 114.854 125.669C114.966 125.669 117.476 128.908 120.432 132.868Z" fill="url(#paint0_linear_2261_46792)"/>
<defs>
<linearGradient id="paint0_linear_2261_46792" x1="175" y1="96" x2="25" y2="96" gradientUnits="userSpaceOnUse">
<stop stop-color="#F9A656"/>
<stop offset="1" stop-color="#FFD098"/>
</linearGradient>
</defs>
</svg>
