<svg width="200" height="200" viewBox="0 0 200 200" fill="none" xmlns="http://www.w3.org/2000/svg">
<circle cx="100" cy="100" r="100" fill="#30469D"/>
<path d="M160.826 100H129.981V160H160.826V100Z" fill="white"/>
<path d="M129.981 40H144.886C146.866 39.998 148.828 40.3866 150.658 41.1436C152.488 41.9005 154.15 43.0109 155.551 44.4112C156.951 45.8116 158.061 47.4743 158.818 49.3043C159.575 51.1343 159.964 53.0956 159.962 55.076V69.9805H129.981V40Z" fill="white"/>
<path d="M129.982 69.9802H100.001V99.9607H129.982V69.9802Z" fill="#52C5CF"/>
<path d="M100.002 100H70.0215V129.98H100.002V100Z" fill="#52C5CF"/>
<path d="M40 129.981H70.0226V159.961H55.076C53.0968 159.968 51.1359 159.584 49.3057 158.83C47.4755 158.077 45.8122 156.97 44.4113 155.571C43.0104 154.173 41.8995 152.512 41.1425 150.684C40.3855 148.855 39.9972 146.895 40 144.916V129.981Z" fill="#52C5CF"/>
</svg>
