<svg width="200" height="200" viewBox="0 0 200 200" fill="none" xmlns="http://www.w3.org/2000/svg">
<path fill-rule="evenodd" clip-rule="evenodd" d="M100 200C44.8575 200 0 155.14 0 100C0 44.8575 44.8575 0 100 0C155.143 0 200 44.8575 200 100C200 155.14 155.143 200 100 200Z" fill="#252A36"/>
<path d="M161 60H140.747L131.41 90.1816H151.362L161 60ZM114.698 88.718L124.726 111.989L128.362 100.113H148.218L137.017 136.233C136.129 139.056 133.476 141 130.428 141H119.12C117.746 140.994 116.404 140.583 115.266 139.82C114.128 139.056 113.246 137.975 112.732 136.714L100.347 106.731L88.0618 136.62C87.5533 137.886 86.6718 138.972 85.5317 139.736C84.3916 140.5 83.0456 140.908 81.6684 140.906H70.2764C68.8061 140.911 67.3727 140.45 66.1867 139.59C65.0008 138.73 64.1248 137.517 63.6875 136.128L40 60H59.9518L75.6818 111.989L86.1015 88.5246C87.2129 85.6808 89.1698 83.2372 91.714 81.5164C94.2582 79.7955 97.2701 78.8783 100.352 78.8857C106.745 78.8857 112.436 82.7799 114.698 88.718Z" fill="#FEFEFE"/>
</svg>
