<svg width="200" height="200" viewBox="0 0 200 200" fill="none" xmlns="http://www.w3.org/2000/svg">
<path d="M100 200C155.228 200 200 155.228 200 100C200 44.7715 155.228 0 100 0C44.7715 0 0 44.7715 0 100C0 155.228 44.7715 200 100 200Z" fill="#050708"/>
<path d="M43 107.519C43 138.518 68.7162 164 100 164C131.549 164 157 138.518 157 107.519C157 79.7864 126.566 45.851 119.646 38.1338C118.897 37.2986 118.423 36.7707 118.293 36.5912C117.677 36.1336 116.972 35.9413 116.281 36.0155C115.782 36.0682 115.291 36.2604 114.847 36.5912C114.051 37.6421 114.051 38.9554 114.847 40.0063C114.847 40.2688 124.391 49.9881 133.67 63.1236C145.865 80.4616 152.228 95.6979 152.228 107.519C152.228 135.891 128.633 159.534 100 159.534C71.3671 159.534 47.772 136.417 47.772 107.782C47.772 95.9604 54.1353 80.7241 66.3302 63.3861C75.6093 49.9881 85.1533 40.2688 85.1533 40.2688C86.2138 39.2179 86.2138 37.6421 85.1533 36.8537C84.0927 35.8028 82.5024 35.8028 81.7067 36.8537C81.1769 37.3786 71.8978 47.099 62.3538 60.4969C49.6282 78.8858 43 94.647 43 107.519Z" fill="url(#paint0_linear_1854_43991)"/>
<path d="M100.001 152.706C74.0189 152.706 53.0748 131.953 53.0748 106.209C53.0748 81.252 88.3359 46.3135 89.9262 44.7367C90.4481 44.3483 91.0341 44.1512 91.6209 44.1454C92.2266 44.1395 92.8341 44.3366 93.3728 44.7367C93.7263 45.2041 93.9223 45.7241 93.9616 46.2491C94.0099 46.9038 93.8139 47.5683 93.3728 48.1518C92.842 48.4143 57.8467 83.0903 57.8467 106.209C57.8467 129.326 76.6698 147.977 100.001 147.977C123.331 147.977 142.154 129.326 142.154 106.209C142.154 96.7507 136.057 83.6162 124.391 68.38C115.378 56.5578 106.363 47.6268 106.363 47.6268C105.303 46.8384 105.303 45.2626 106.363 44.2117C106.609 43.8888 106.929 43.6643 107.285 43.5404C108.088 43.2604 109.075 43.4838 109.81 44.2117C111.4 45.7876 147.192 81.252 147.192 106.209C146.926 131.953 125.982 152.706 100.001 152.706Z" fill="url(#paint1_linear_1854_43991)"/>
<path fill-rule="evenodd" clip-rule="evenodd" d="M100.001 141.412C80.3822 141.412 64.475 125.649 64.475 106.21C64.475 87.2957 96.5544 53.9331 97.8799 52.6197L99.4702 50.7805L101.062 52.6197C102.387 53.9331 135.261 87.2957 135.261 106.21C135.526 125.649 119.62 141.412 100.001 141.412ZM99.7361 57.6107C96.8193 60.7633 90.9868 67.0676 85.1542 74.9487C74.8146 88.6091 69.2469 99.3794 69.2469 106.21C69.2469 123.023 83.0331 136.683 100.001 136.683C116.968 136.683 130.754 123.023 130.754 106.21C130.754 99.3794 125.186 88.6091 114.582 74.9487C108.859 67.4725 102.879 61.0092 99.9025 57.7912L99.7361 57.6107Z" fill="url(#paint2_linear_1854_43991)"/>
<defs>
<linearGradient id="paint0_linear_1854_43991" x1="100" y1="164.066" x2="100" y2="36.1949" gradientUnits="userSpaceOnUse">
<stop stop-color="#05AAC5"/>
<stop offset="1" stop-color="#71E0EC"/>
</linearGradient>
<linearGradient id="paint1_linear_1854_43991" x1="100" y1="164.066" x2="100" y2="36.1949" gradientUnits="userSpaceOnUse">
<stop stop-color="#05AAC5"/>
<stop offset="1" stop-color="#71E0EC"/>
</linearGradient>
<linearGradient id="paint2_linear_1854_43991" x1="100" y1="164.066" x2="100" y2="36.1949" gradientUnits="userSpaceOnUse">
<stop stop-color="#05AAC5"/>
<stop offset="1" stop-color="#71E0EC"/>
</linearGradient>
</defs>
</svg>
