<svg width="200" height="200" viewBox="0 0 200 200" fill="none" xmlns="http://www.w3.org/2000/svg">
<path d="M100 200C155.228 200 200 155.228 200 100C200 44.7715 155.228 0 100 0C44.7715 0 0 44.7715 0 100C0 155.228 44.7715 200 100 200Z" fill="black"/>
<path d="M63.9946 59.1509L93.7048 42L123.415 59.1509L93.7048 76.3872L63.9946 59.1509Z" fill="white"/>
<path d="M89.6407 117.395L60 100.302V66.0777L89.6407 83.1699V117.395Z" fill="white"/>
<path d="M127.4 100.302L97.7595 117.395V83.1699L127.4 66.0777V100.302Z" fill="white"/>
<path d="M60 109.123L92.5161 128.612L156 93.0367L92.5161 158L60 109.123Z" fill="white"/>
</svg>
