<svg width="200" height="200" viewBox="0 0 200 200" fill="none" xmlns="http://www.w3.org/2000/svg">
<path fill-rule="evenodd" clip-rule="evenodd" d="M100 0C155.22 0 200 44.78 200 100C200 155.22 155.22 200 100 200C44.78 200 0 155.22 0 100C0 44.78 44.78 0 100 0Z" fill="black"/>
<path d="M63.9573 77.8854C62.8354 79.1046 62.9143 81.0025 64.1335 82.1244C65.3527 83.2463 67.2506 83.1675 68.3725 81.9482L63.9573 77.8854ZM102.896 40L105.702 38.9388C105.334 37.9655 104.488 37.2524 103.466 37.0546C102.445 36.8569 101.394 37.2028 100.689 37.9686L102.896 40ZM115.185 80.978C115.772 82.5277 117.503 83.309 119.053 82.7229C120.602 82.1368 121.384 80.4054 120.798 78.8557L115.185 80.978ZM119.443 138.832C120.566 137.613 120.488 135.715 119.27 134.592C118.052 133.47 116.154 133.547 115.031 134.765L119.443 138.832ZM95.852 160L93.0459 161.061C93.4139 162.034 94.2596 162.747 95.2808 162.945C96.302 163.143 97.3529 162.798 98.0579 162.033L95.852 160ZM83.5629 119.022C82.9769 117.472 81.2455 116.691 79.6957 117.277C78.146 117.863 77.3647 119.595 77.9508 121.144L83.5629 119.022ZM117.74 79.9168V76.9168C116.905 76.9168 116.107 77.2651 115.539 77.8779L117.74 79.9168ZM143.905 79.9168L146.711 78.8557C146.27 77.6888 145.152 76.9168 143.905 76.9168V79.9168ZM159 119.834V122.834C159.985 122.834 160.908 122.35 161.468 121.539C162.028 120.728 162.155 119.694 161.806 118.773L159 119.834ZM107.173 119.834L104.367 120.895C104.809 122.062 105.926 122.834 107.173 122.834V119.834ZM92.0782 79.9168L94.8843 78.8557C94.443 77.6888 93.3257 76.9168 92.0782 76.9168V79.9168ZM40 79.9168V76.9168C39.0146 76.9168 38.092 77.4008 37.5319 78.2115C36.9717 79.0222 36.8454 80.0563 37.1939 80.978L40 79.9168ZM55.0951 119.834L52.2891 120.895C52.7303 122.062 53.8476 122.834 55.0951 122.834V119.834ZM81.0085 122.834C82.6653 122.834 84.0085 121.491 84.0085 119.834C84.0085 118.177 82.6653 116.834 81.0085 116.834V122.834ZM68.3725 81.9482L105.104 42.0314L100.689 37.9686L63.9573 77.8854L68.3725 81.9482ZM100.09 41.0612L115.185 80.978L120.798 78.8557L105.702 38.9388L100.09 41.0612ZM115.031 134.765L93.6461 157.967L98.0579 162.033L119.443 138.832L115.031 134.765ZM98.6581 158.939L83.5629 119.022L77.9508 121.144L93.0459 161.061L98.6581 158.939ZM130.642 117.787L115.043 134.502L119.43 138.596L135.028 121.88L130.642 117.787ZM117.74 82.9168H143.905V76.9168H117.74V82.9168ZM141.099 80.978L156.194 120.895L161.806 118.773L146.711 78.8557L141.099 80.978ZM159 116.834H107.173V122.834H159V116.834ZM109.979 118.773L94.8843 78.8557L89.2722 80.978L104.367 120.895L109.979 118.773ZM92.0782 76.9168H40V82.9168H92.0782V76.9168ZM37.1939 80.978L52.2891 120.895L57.9012 118.773L42.8061 78.8557L37.1939 80.978ZM55.0951 122.834H81.0085V116.834H55.0951V122.834ZM115.539 77.8779L78.5562 117.795L82.9575 121.873L119.941 81.9557L115.539 77.8779Z" fill="white"/>
</svg>
