<svg width="200" height="200" viewBox="0 0 200 200" fill="none" xmlns="http://www.w3.org/2000/svg">
<path d="M100 200C155.228 200 200 155.228 200 100C200 44.7715 155.228 0 100 0C44.7715 0 0 44.7715 0 100C0 155.228 44.7715 200 100 200Z" fill="black"/>
<path d="M99.7361 78.4689L62.6136 34.72C62.6136 34.72 79.036 29.0332 86.5742 26.1447C94.591 23.2863 124.654 63.7254 124.654 63.7254L99.7361 78.4689Z" fill="white"/>
<path d="M134.047 40.4067C131.235 53.736 125.581 63.7255 125.581 63.7255L151.427 80.3645C162.255 51.8104 134.047 40.4067 134.047 40.4067Z" fill="white"/>
<path d="M151.426 80.3946L153.79 110.363L164.588 108.949C164.588 108.949 167.4 107.986 166.951 102.781C166.473 97.0637 165.546 85.1787 165.546 85.1787C165.546 85.1787 166.024 82.3202 159.443 81.3875C151.426 79.9132 151.426 80.3946 151.426 80.3946Z" fill="white"/>
<path d="M132.132 127.965L153.76 110.363C158.456 113.673 159.892 126.039 160.311 131.275C160.668 135.187 159.189 136.965 155.672 141.192L155.672 141.193L155.665 141.2C154.477 142.628 153.057 144.336 151.397 146.499C144.367 155.075 142.004 147.462 142.004 147.462L132.132 127.965Z" fill="white"/>
<path d="M131.684 127.935L102.069 114.605L76.2242 167.411C76.2242 167.411 74.3396 171.202 80.9206 171.684C81.245 171.731 81.5798 171.782 81.9236 171.835C82.2323 171.883 82.5483 171.933 82.8708 171.983C89.4771 173.02 98.8292 174.489 103.954 169.307C109.608 164.101 131.684 127.935 131.684 127.935Z" fill="white"/>
<path d="M99.2574 78.9503L102.069 114.154C101.142 116.05 49.9003 116.05 41.4349 115.598C32.9693 115.117 33.4479 110.844 33.4479 110.844C33.4479 110.844 32.5206 100.373 32.042 90.8655C31.5634 83.7344 35.3325 83.253 35.3325 83.253L99.2574 78.9503Z" fill="white"/>
</svg>
