<svg width="200" height="200" viewBox="0 0 200 200" fill="none" xmlns="http://www.w3.org/2000/svg">
<circle cx="100" cy="100" r="100" fill="#151923"/>
<path fill-rule="evenodd" clip-rule="evenodd" d="M81.7349 132.224L98.5852 115.808C100.423 113.984 102.874 114.744 104.253 116.416C105.632 118.088 106.091 120.52 104.1 122.344L95.5215 131.008H140.404C143.468 131.008 145 132.528 145 135.416V152.744C145 155.632 143.468 157 140.404 157H60.5955C57.5318 157 56 155.632 56 152.744V134.96C56 133.592 56.4596 132.528 57.2255 131.768L86.3305 103.648C91.3855 98.6319 96.7471 96.1999 103.334 93.768L107.47 91.9439C109.614 91.0319 111.146 90.12 112.985 88.7519C114.67 87.384 115.895 86.016 119.572 81.9119C121.41 79.936 123.401 77.656 125.699 75.376L136.269 63.8239V51.664H67.0293V60.328H117.58C119.418 60.328 120.95 61.5439 121.563 62.912C122.176 64.28 122.022 66.1039 120.797 67.472L107.776 81.76C105.938 83.5839 103.487 82.976 101.955 81.456C100.423 79.936 99.6576 77.656 101.496 75.8319L107.929 68.992H63.1997C60.136 68.992 58.6041 67.6239 58.6041 64.7361V47.408C58.6041 44.52 60.136 43 63.1997 43H140.404C143.468 43 145 44.52 145 47.408V65.3439C145 66.408 144.54 67.472 143.621 68.3839C141.324 70.816 137.034 75.528 132.898 80.088C130.907 82.368 128.916 84.496 127.231 86.32C125.546 88.296 124.32 89.5119 123.861 90.12C119.112 95.744 113.904 98.6319 107.01 101.52C101.496 103.8 96.5938 105.776 92.7642 109.576L64.7315 136.632V148.336H136.269V139.672H83.8795C82.0413 139.672 80.6627 138.456 80.2032 136.936C79.5904 135.416 80.0499 133.592 81.7349 132.224Z" fill="#00CE90"/>
</svg>
