<svg width="200" height="200" viewBox="0 0 200 200" fill="none" xmlns="http://www.w3.org/2000/svg">
<path d="M100 200C155.228 200 200 155.228 200 100C200 44.7715 155.228 0 100 0C44.7715 0 0 44.7715 0 100C0 155.228 44.7715 200 100 200Z" fill="#1A5AFF"/>
<path d="M135.132 59C130.513 59 126.279 61.4664 124.002 65.4383L95.0953 115.375H73.5467V141H102.541C107.127 141 111.364 138.556 113.655 134.588L142.509 84.625H164V59H135.132Z" fill="white"/>
<path d="M58.1777 141L36 128.219L72.1544 65.4383C74.42 61.4664 78.6324 59 83.2274 59H111.947V84.625H90.5668L58.1777 141Z" fill="white"/>
<path d="M38.56 59V85.4792C53.1755 85.4792 65.0133 73.6297 65.0133 59H38.56Z" fill="white"/>
<path d="M150.773 126.479C158.078 126.479 164 120.552 164 113.24C164 105.928 158.078 100 150.773 100C143.468 100 137.547 105.928 137.547 113.24C137.547 120.552 143.468 126.479 150.773 126.479Z" fill="white"/>
</svg>
