<svg width="200" height="200" viewBox="0 0 200 200" fill="none" xmlns="http://www.w3.org/2000/svg">
<path fill-rule="evenodd" clip-rule="evenodd" d="M100 0C155.22 0 200 44.78 200 100C200 155.22 155.22 200 100 200C44.78 200 0 155.22 0 100C0 44.78 44.78 0 100 0Z" fill="#262345"/>
<path d="M44.6096 96H84.9316C88.1322 96 91.2019 97.2588 93.4651 99.499C95.7287 101.739 97 104.778 97 107.946V157.417C97 158.102 96.7253 158.759 96.2359 159.243C95.7464 159.728 95.0825 160 94.3906 160H44.6096C43.9184 160 43.2555 159.728 42.7662 159.245C42.277 158.762 42.0014 158.106 42 157.422V98.5776C42.0014 97.8936 42.277 97.2382 42.7662 96.7548C43.2555 96.2713 43.9184 96 44.6096 96Z" fill="url(#paint0_linear_1854_43626)"/>
<path d="M86.6618 41.7936L42.8164 83.3627C42.4348 83.7346 42.1715 84.2118 42.0599 84.734C41.9483 85.2562 41.9933 85.8005 42.1894 86.2971C42.3855 86.7933 42.7239 87.2206 43.1615 87.5235C43.5992 87.8268 44.1164 87.9926 44.6479 88H154.315C155.027 88 155.71 87.7157 156.213 87.2094C156.717 86.7031 157 86.0166 157 85.3007V43.6993C157 42.9834 156.717 42.2968 156.213 41.7905C155.71 41.2843 155.027 41 154.315 41H88.4933C87.8038 41.0184 87.148 41.3025 86.6618 41.7936Z" fill="url(#paint1_linear_1854_43626)"/>
<path d="M131 148C145.359 148 157 136.36 157 122C157 107.641 145.359 96 131 96C116.641 96 105 107.641 105 122C105 136.36 116.641 148 131 148Z" fill="url(#paint2_linear_1854_43626)"/>
<defs>
<linearGradient id="paint0_linear_1854_43626" x1="42" y1="96.6099" x2="124.833" y2="58.9754" gradientUnits="userSpaceOnUse">
<stop stop-color="#F85860"/>
<stop offset="1" stop-color="#FFA84A"/>
</linearGradient>
<linearGradient id="paint1_linear_1854_43626" x1="33.9572" y1="64.4768" x2="163.933" y2="63.6575" gradientUnits="userSpaceOnUse">
<stop stop-color="#9159F9"/>
<stop offset="1" stop-color="#783EE3"/>
</linearGradient>
<linearGradient id="paint2_linear_1854_43626" x1="100.669" y1="130.337" x2="160.955" y2="129.356" gradientUnits="userSpaceOnUse">
<stop stop-color="#FFA84A"/>
<stop offset="1" stop-color="#FFD08A"/>
</linearGradient>
</defs>
</svg>
