<svg width="200" height="200" viewBox="0 0 200 200" fill="none" xmlns="http://www.w3.org/2000/svg">
<path fill-rule="evenodd" clip-rule="evenodd" d="M100 0C155.22 0 200 44.78 200 100C200 155.22 155.22 200 100 200C44.78 200 0 155.22 0 100C0 44.78 44.78 0 100 0Z" fill="#F0B90B"/>
<path d="M116.6 49.9494L100 33L58.2 75.0744L74.8 91.625L116.6 49.9494Z" fill="white"/>
<path d="M141.8 75.0746L125.2 58.1252L58.2 125.325L74.8 141.875L141.8 75.0746Z" fill="white"/>
<path d="M49.6 83.25L66.2 100.199L49.6 116.75L33 100.199L49.6 83.25Z" fill="white"/>
<path d="M167 100.199L150.4 83.25L83.4 150.449L100 167L167 100.199Z" fill="white"/>
</svg>
