<svg width="200" height="200" viewBox="0 0 200 200" fill="none" xmlns="http://www.w3.org/2000/svg">
<path fill-rule="evenodd" clip-rule="evenodd" d="M100 0C155.22 0 200 44.78 200 100C200 155.22 155.22 200 100 200C44.78 200 0 155.22 0 100C0 44.78 44.78 0 100 0Z" fill="black"/>
<path d="M67.8072 86.5222C58.5485 86.4739 49.2915 86.4739 40.036 86.5222C39.988 95.8381 39.988 105.153 40.036 114.468C49.2919 114.514 58.5489 114.513 67.8072 114.465C67.8552 105.149 67.8552 95.8349 67.8072 86.5222Z" fill="#5FCADE"/>
<path d="M73.9457 86.5222C94.6522 86.4779 115.357 86.4779 136.061 86.5222C136.105 95.8349 136.105 105.149 136.061 114.465C115.355 114.509 94.6498 114.509 73.9457 114.465C73.9025 105.152 73.9025 95.8377 73.9457 86.5222Z" fill="#5FCADE"/>
<path d="M101.686 125.046C92.4496 124.945 83.2114 124.945 73.9715 125.046C73.8787 134.344 73.8803 143.637 73.9763 152.928C83.2126 153.023 92.4506 153.024 101.69 152.932C101.784 143.633 101.782 134.337 101.686 125.046Z" fill="#ABEBF4"/>
<path d="M159.993 48.0066C131.302 47.9978 102.612 47.9978 73.9241 48.0066C73.9149 57.3338 73.9149 66.6626 73.9241 75.993C102.615 76.0019 131.305 76.0019 159.993 75.993C160.002 66.6658 160.002 57.337 159.993 48.0066Z" fill="#02A6C2"/>
</svg>
