<svg width="200" height="200" viewBox="0 0 200 200" fill="none" xmlns="http://www.w3.org/2000/svg">
<path d="M100 200C155.228 200 200 155.228 200 100C200 44.7715 155.228 0 100 0C44.7715 0 0 44.7715 0 100C0 155.228 44.7715 200 100 200Z" fill="#2A5ADA"/>
<path d="M100 34L87.7249 41.0161L54.2751 60.2339L42 67.25V133.75L54.2751 140.766L88.0317 159.984L100.307 167L112.582 159.984L145.725 140.766L158 133.75V67.25L145.725 60.2339L112.275 41.0161L100 34ZM66.5503 119.718V81.2821L100 62.0642L133.45 81.2821V119.718L100 138.936L66.5503 119.718Z" fill="white"/>
</svg>
