<svg width="200" height="200" viewBox="0 0 200 200" fill="none" xmlns="http://www.w3.org/2000/svg">
<path fill-rule="evenodd" clip-rule="evenodd" d="M100 0C155.22 0 200 44.78 200 100C200 155.22 155.22 200 100 200C44.78 200 0 155.22 0 100C0 44.78 44.78 0 100 0Z" fill="#042751"/>
<path d="M153.701 73.8945C148.834 68.5433 142.346 66 133.966 66C129.101 66 124.775 67.0177 120.992 68.8015C117.208 70.5831 114.233 73.1285 112.07 76.1839V66.5121H86.93V102.921C86.93 106.74 85.8486 109.795 83.6837 112.087C81.5232 114.378 78.55 115.394 75.035 115.394C71.52 115.394 68.5468 114.378 66.3841 112.087C64.2214 109.795 63.14 106.74 63.14 102.921V66.5099H38V105.974C38 114.884 40.4336 122.015 45.2987 127.106C50.1659 132.199 56.6519 135 65.034 135C69.8991 135 74.2245 133.98 78.0082 132.199C81.7919 130.415 84.7673 127.869 86.93 124.816V134.49H112.07V95.79C112.341 92.9885 113.422 90.697 115.043 88.9154C117.206 86.6238 120.181 85.6039 123.965 85.6039C127.48 85.6039 130.453 86.6238 132.616 88.9154C134.779 91.2069 135.86 94.2623 135.86 98.0815V134.49H161V94.7701C161 86.1139 158.566 78.9854 153.701 73.8924V73.8945Z" fill="white"/>
</svg>
