<svg width="200" height="200" viewBox="0 0 200 200" fill="none" xmlns="http://www.w3.org/2000/svg">
<path fill-rule="evenodd" clip-rule="evenodd" d="M100 0C155.22 0 200 44.78 200 100C200 155.22 155.22 200 100 200C44.78 200 0 155.22 0 100C0 44.78 44.78 0 100 0Z" fill="url(#paint0_linear_1854_40400)"/>
<mask id="mask0_1854_40400" style="mask-type:alpha" maskUnits="userSpaceOnUse" x="0" y="0" width="200" height="200">
<path fill-rule="evenodd" clip-rule="evenodd" d="M100 0C155.22 0 200 44.78 200 100C200 155.22 155.22 200 100 200C44.78 200 0 155.22 0 100C0 44.78 44.78 0 100 0Z" fill="url(#paint1_linear_1854_40400)"/>
</mask>
<g mask="url(#mask0_1854_40400)">
<path d="M80 0H60V46H80V0Z" fill="white"/>
<path d="M113.75 141.75H87.25C72.25 141.75 60 129.5 60 114.5V94.9995H80V114.25C80 118.25 83.25 121.5 87.25 121.5H113.75C117.75 121.5 121 118.25 121 114.25V87.9995C121 83.9995 117.75 80.7495 113.75 80.7495H0V60.7495H113.75C128.75 60.7495 141 72.9995 141 87.9995V114.5C141 129.5 128.75 141.75 113.75 141.75Z" fill="white"/>
</g>
<defs>
<linearGradient id="paint0_linear_1854_40400" x1="187" y1="187" x2="27" y2="27" gradientUnits="userSpaceOnUse">
<stop offset="0.1594" stop-color="#003CDA"/>
<stop offset="1" stop-color="#33DFCC"/>
</linearGradient>
<linearGradient id="paint1_linear_1854_40400" x1="187" y1="187" x2="27" y2="27" gradientUnits="userSpaceOnUse">
<stop offset="0.1594" stop-color="#003CDA"/>
<stop offset="1" stop-color="#33DFCC"/>
</linearGradient>
</defs>
</svg>
