<svg width="200" height="200" viewBox="0 0 200 200" fill="none" xmlns="http://www.w3.org/2000/svg">
<path d="M100 200C155.228 200 200 155.228 200 100C200 44.7715 155.228 0 100 0C44.7715 0 0 44.7715 0 100C0 155.228 44.7715 200 100 200Z" fill="white"/>
<path d="M100 200C155.228 200 200 155.228 200 100C200 44.7715 155.228 0 100 0C44.7715 0 0 44.7715 0 100C0 155.228 44.7715 200 100 200Z" fill="#31D8A4"/>
<path d="M100 186.667C147.865 186.667 186.667 147.865 186.667 100C186.667 52.1353 147.865 13.3333 100 13.3333C52.1354 13.3333 13.3334 52.1353 13.3334 100C13.3334 147.865 52.1354 186.667 100 186.667Z" fill="white"/>
<path d="M100 176.667C142.342 176.667 176.667 142.342 176.667 100C176.667 57.6581 142.342 23.3333 100 23.3333C57.6582 23.3333 23.3334 57.6581 23.3334 100C23.3334 142.342 57.6582 176.667 100 176.667Z" fill="#0E052F"/>
<path d="M97.3708 134.777C94 134.51 90.8315 133.775 87.8652 132.572C84.8989 131.303 82.3371 129.666 80.1798 127.661C78.0225 125.657 76.3034 123.352 75.0225 120.746C73.7416 118.14 73.0674 115.301 73 112.227H85.4382C85.573 115.501 86.7191 118.241 88.8764 120.445C91.1011 122.584 93.9326 123.82 97.3708 124.154V104.31L92.618 103.608C87.1573 102.873 82.809 100.835 79.573 97.4944C76.4045 94.1537 74.8202 89.9109 74.8202 84.7661C74.8202 82.0935 75.427 79.588 76.6404 77.2494C77.8539 74.8441 79.5056 72.7394 81.5955 70.9354C83.6854 69.0646 86.0787 67.5612 88.7753 66.4254C91.516 65.2953 94.4144 64.5856 97.3708 64.3207V55H104.753V64.5212C107.787 64.9221 110.584 65.7238 113.146 66.9265C115.708 68.0624 117.933 69.5323 119.82 71.3363C121.708 73.1403 123.191 75.2116 124.27 77.5501C125.416 79.8886 126.056 82.3942 126.191 85.0668H113.753C113.618 82.6615 112.708 80.5902 111.022 78.853C109.404 77.049 107.315 75.8129 104.753 75.1448V93.4855L108.191 93.9866C110.753 94.3875 113.18 95.0891 115.472 96.0913C117.764 97.0935 119.753 98.3964 121.438 100C123.191 101.604 124.539 103.541 125.483 105.813C126.494 108.018 127 110.523 127 113.33C127 116.336 126.427 119.076 125.281 121.548C124.202 123.953 122.652 126.091 120.629 127.962C118.674 129.766 116.315 131.269 113.551 132.472C110.854 133.608 107.921 134.343 104.753 134.677V145H97.3708V134.777ZM104.753 124.053C107.921 123.519 110.382 122.383 112.135 120.646C113.888 118.842 114.764 116.57 114.764 113.831C114.764 111.292 113.921 109.421 112.236 108.218C110.551 106.949 108.629 106.114 106.472 105.713L104.753 105.412V124.053ZM97.3708 74.8441C94.5393 75.245 92.1124 76.2806 90.0899 77.951C88.1348 79.5546 87.1573 81.7261 87.1573 84.4655C87.1573 86.804 87.7978 88.5746 89.0787 89.7773C90.427 90.9131 92.1798 91.6481 94.3371 91.9822L97.3708 92.4833V74.8441Z" fill="white"/>
</svg>
