<svg width="200" height="200" viewBox="0 0 200 200" fill="none" xmlns="http://www.w3.org/2000/svg">
<path d="M100 200C155.228 200 200 155.228 200 100C200 44.7715 155.228 0 100 0C44.7715 0 0 44.7715 0 100C0 155.228 44.7715 200 100 200Z" fill="#151515"/>
<path d="M107.796 105.341C108.185 105.728 108.815 105.728 109.204 105.341L160.588 54.3415C161.466 53.4704 162.833 54.6545 162.095 55.6473L109.188 126.913C108.825 127.402 108.113 127.456 107.681 127.027L91.633 111.099C91.2431 110.712 90.614 110.712 90.2241 111.099L48.7044 152.308C48.0734 152.935 47 152.488 47 151.599V132.616C47 132.35 47.1064 132.094 47.2956 131.907L90.2241 89.2992C90.614 88.9122 91.2431 88.9122 91.633 89.2992L107.796 105.341Z" fill="#0CC09C"/>
</svg>
