<svg width="200" height="200" viewBox="0 0 200 200" fill="none" xmlns="http://www.w3.org/2000/svg">
<path fill-rule="evenodd" clip-rule="evenodd" d="M100 0C155.22 0 200 44.78 200 100C200 155.22 155.22 200 100 200C44.78 200 0 155.22 0 100C0 44.78 44.78 0 100 0Z" fill="#191F2F"/>
<path fill-rule="evenodd" clip-rule="evenodd" d="M90.9952 51.6074V59.1915L88.9705 59.4768C82.9999 60.318 75.7259 63.2313 70.329 66.9422C66.0759 69.8669 60.1697 76.1098 57.5801 80.4172C55.1411 84.4749 52.8419 90.3176 51.8952 94.8632C51.0094 99.1163 51.0094 108.075 51.8952 112.328C53.6931 120.961 57.5938 128.172 63.928 134.572C68.6504 139.343 71.9139 141.705 77.0912 144.098C97.0058 153.304 120.841 146.614 132.986 128.411C136.987 122.415 139.934 114.447 140.518 108.047L140.654 106.563L155.906 106.332L155.611 109.203C152.803 136.526 131.433 158.834 104.34 162.727C100.025 163.346 91.0566 163.261 86.5195 162.556C77.939 161.223 68.3325 157.304 61.2033 152.229C47.9945 142.825 38.9076 128.128 36.639 112.499C32.9187 86.8662 45.6812 62.1794 68.6999 50.4826C75.1824 47.1885 82.6845 44.8727 88.6508 44.3232C89.5886 44.2371 90.4999 44.1345 90.6755 44.0951C90.8511 44.0561 90.9952 47.4366 90.9952 51.6074Z" fill="#FFFFFD"/>
<path fill-rule="evenodd" clip-rule="evenodd" d="M155.906 74.4455V101.051L140.987 101.283L140.459 97.9871C139.955 94.8457 137.856 87.6695 137.104 86.515C136.909 86.2157 136.477 86.0762 136.144 86.205C135.811 86.3339 123.483 98.5519 108.749 113.355C94.0149 128.159 81.769 140.271 81.5354 140.271C79.8794 140.271 69.2559 133.671 69.2559 132.642C69.2559 132.48 83.0934 118.723 100.006 102.071C146.599 56.1975 155.554 47.8706 155.906 47.8545C156.083 47.8464 155.966 59.8121 155.906 74.4455Z" fill="url(#paint0_linear_14576_239561)"/>
<path fill-rule="evenodd" clip-rule="evenodd" d="M151.524 44.0951C151.524 44.2787 145.457 50.3122 138.042 57.183C121.515 72.4974 122.174 71.883 115.227 78.4245C99.0193 93.6841 64.7398 125.426 64.4653 125.429C63.6434 125.436 59.9487 119.467 58.6499 116.033C58.1469 114.704 56.0062 116.867 85.6672 88.7331C96.4515 78.5042 106.958 68.5118 109.016 66.5279L112.756 62.9214L111.196 62.1252C108.549 60.7739 102.88 59.2691 99.414 58.9973L96.1105 58.7383V44.0951H110.71C118.74 44.0302 131.207 44.1502 138.416 44.0951C145.626 44.04 151.524 43.9119 151.524 44.0951Z" fill="url(#paint1_linear_14576_239561)"/>
<defs>
<linearGradient id="paint0_linear_14576_239561" x1="159.857" y1="54.2856" x2="74.1424" y2="135.285" gradientUnits="userSpaceOnUse">
<stop stop-color="#00B7BD"/>
<stop offset="1" stop-color="#4760B4"/>
</linearGradient>
<linearGradient id="paint1_linear_14576_239561" x1="141" y1="44" x2="62.1431" y2="119.857" gradientUnits="userSpaceOnUse">
<stop stop-color="#01EFD7"/>
<stop offset="1" stop-color="#00F2D3"/>
</linearGradient>
</defs>
</svg>
