<svg width="200" height="200" viewBox="0 0 200 200" fill="none" xmlns="http://www.w3.org/2000/svg">
<path d="M100 200C155.228 200 200 155.228 200 100C200 44.7715 155.228 0 100 0C44.7715 0 0 44.7715 0 100C0 155.228 44.7715 200 100 200Z" fill="#FFD800"/>
<path fill-rule="evenodd" clip-rule="evenodd" d="M140.018 83.0145C140.327 82.7036 140.94 82.7036 141.542 82.7036C150.687 82.7036 158 90.4927 158 99.8473C158 108.575 151.603 115.431 143.374 116.985H141.542C138.495 116.985 135.448 116.053 132.705 114.493C131.815 113.862 130.747 113.535 129.659 113.56C128.439 113.56 127.219 113.871 126.309 114.493C124.173 115.742 123.262 117.924 123.262 120.416V123.22C122.941 127.07 121.31 130.692 118.645 133.474C115.98 136.256 112.443 138.028 108.63 138.493H106.804C103.757 138.493 100.71 137.56 97.9673 136C96.7475 135.378 95.8368 135.067 94.6171 135.067C93.3973 135.067 92.1776 135.378 91.2614 136C89.1309 137.249 88.2148 139.431 88.2148 141.924V144.727C87.6076 152.833 81.2054 159.067 73.2852 160H71.7619C62.6166 160 55.3036 152.205 55.3036 142.856C55.6072 134.129 61.7004 126.962 69.9296 126.024H71.7619C74.8085 126.024 77.8552 126.962 80.5982 128.522C81.4885 129.153 82.5563 129.479 83.6448 129.455C84.8646 129.455 86.0843 129.144 86.9951 128.522C89.1309 127.273 90.0417 125.091 90.0417 122.598C89.4345 113.56 95.8368 105.455 104.673 104.522H106.5C109.547 104.522 112.593 105.455 115.336 107.015C116.556 107.636 117.472 107.947 118.692 107.947C119.906 107.947 121.131 107.636 122.042 107.015C124.173 105.765 125.089 103.584 125.089 101.091C124.482 92.0527 131.182 83.9473 140.018 83.0145ZM104.982 61.5073C105.589 61.1964 105.898 61.1964 106.809 61.1964C115.954 61.1964 123.267 68.9855 123.267 78.34C122.964 87.0673 116.87 94.2345 108.636 95.1673H106.809C103.762 95.1673 100.716 94.2345 97.9727 92.6745C97.0824 92.0438 96.0146 91.7169 94.926 91.7418C93.7063 91.7418 92.4866 92.0527 91.5758 92.6745C89.4399 93.9236 88.5238 96.1055 88.5238 98.5982V101.402C87.9166 109.502 81.5198 115.736 73.5942 116.675H72.0709C62.931 116.675 55.6126 108.885 55.6126 99.5309C55.6126 91.12 61.7113 84.2582 69.935 83.0145H71.7673C74.8139 83.0145 77.8606 83.9473 80.6036 85.5073C81.4939 86.138 82.5617 86.4649 83.6503 86.44C84.87 86.44 86.0897 86.1291 87.0005 85.5073C89.1364 84.2582 90.0471 82.0764 90.0471 79.5836C89.4399 70.5455 96.1458 62.44 104.982 61.5073ZM71.4583 40C80.544 40 87.9112 47.5382 87.9112 56.8327C87.9112 66.1273 80.5386 73.66 71.4583 73.66C62.3672 73.66 55 66.1273 55 56.8327C55 47.5382 62.3726 40 71.4583 40Z" fill="white"/>
</svg>
