<svg width="200" height="200" viewBox="0 0 200 200" fill="none" xmlns="http://www.w3.org/2000/svg">
<path d="M100 200C155.228 200 200 155.228 200 100C200 44.7715 155.228 0 100 0C44.7715 0 0 44.7715 0 100C0 155.228 44.7715 200 100 200Z" fill="white"/>
<path d="M163.708 120.809C153.037 120.811 142.572 117.877 133.458 112.327C124.344 106.777 116.933 98.8268 112.037 89.3459C107.141 79.865 104.948 69.2195 105.7 58.5754C106.451 47.9314 110.117 37.6993 116.296 29H83.6882C89.8673 37.6993 93.5332 47.9314 94.2843 58.5754C95.0355 69.2195 92.8429 79.865 87.9468 89.3459C83.0506 98.8268 75.6398 106.777 66.5259 112.327C57.412 117.877 46.9467 120.811 36.2762 120.809C34.2436 120.806 32.2124 120.699 30.1909 120.487L47.0476 149.688C51.6598 139.503 59.1103 130.862 68.5068 124.802C77.9034 118.742 88.8476 115.519 100.029 115.519C111.21 115.519 122.154 118.742 131.551 124.802C140.948 130.862 148.398 139.503 153.01 149.688L169.867 120.487C167.821 120.701 165.765 120.809 163.708 120.809Z" fill="#E5C45D" stroke="#E5C45D" stroke-width="0.476718"/>
<path d="M152.571 100.484C152.574 95.4999 154.317 90.6733 157.499 86.8373C160.681 83.0013 165.102 80.3965 170 79.4725L153.189 50.3427C149.89 54.0337 145.413 56.466 140.521 57.2248C135.629 57.9836 130.626 57.0219 126.364 54.5037C122.102 51.9855 118.846 48.0668 117.151 43.4159C115.455 38.7651 115.426 33.6701 117.068 29H116.276C110.097 37.6993 106.431 47.9314 105.68 58.5754C104.929 69.2195 107.122 79.865 112.018 89.3459C116.914 98.8268 124.325 106.777 133.439 112.327C142.552 117.877 153.018 120.811 163.688 120.809C164.801 120.809 165.905 120.809 167.001 120.713C162.79 119.263 159.135 116.535 156.548 112.908C153.962 109.282 152.571 104.938 152.571 100.484Z" fill="url(#paint0_linear_1854_43725)"/>
<path d="M73.7174 146.029C77.9444 148.377 81.2517 152.086 83.1004 156.553C84.9491 161.021 85.2301 165.983 83.8978 170.63H117.142C115.653 166.054 115.752 161.109 117.422 156.595C119.093 152.082 122.236 148.263 126.345 145.758C130.454 143.252 135.289 142.206 140.066 142.788C144.843 143.371 149.284 145.547 152.671 148.966C147.948 138.909 140.443 130.416 131.044 124.491C121.645 118.566 110.746 115.458 99.6355 115.533C88.5252 115.608 77.6689 118.864 68.351 124.916C59.0332 130.967 51.6438 139.561 47.057 149.681L47.4646 150.396C50.7023 146.807 55.0607 144.422 59.8286 143.629C64.5964 142.836 69.4924 143.682 73.7174 146.029Z" fill="url(#paint1_linear_1854_43725)"/>
<path d="M83.688 29H83.2613C84.9094 33.6962 84.8679 38.8202 83.144 43.4891C81.4201 48.1579 78.1217 52.0794 73.8172 54.5776C69.5126 57.0759 64.4715 57.9946 59.5624 57.1755C54.6533 56.3563 50.1836 53.8506 46.9235 50.09L30 79.4082C34.685 80.2129 38.9684 82.5556 42.1734 86.0663C45.3784 89.5769 47.3225 94.0554 47.6983 98.7941C48.0742 103.533 46.8605 108.262 44.249 112.234C41.6375 116.206 37.777 119.194 33.2774 120.728C34.2738 120.78 35.2733 120.806 36.276 120.806C46.9461 120.808 57.411 117.874 66.5245 112.324C75.6379 106.775 83.0485 98.8246 87.9446 89.3441C92.8407 79.8635 95.0334 69.2185 94.2826 58.5748C93.5318 47.9311 89.8664 37.6993 83.688 29Z" fill="url(#paint2_linear_1854_43725)"/>
<defs>
<linearGradient id="paint0_linear_1854_43725" x1="156.914" y1="65.2645" x2="83.7949" y2="87.8525" gradientUnits="userSpaceOnUse">
<stop stop-color="#E5C45D"/>
<stop offset="1" stop-color="#987A3B"/>
</linearGradient>
<linearGradient id="paint1_linear_1854_43725" x1="99.4418" y1="168.482" x2="99.758" y2="111.119" gradientUnits="userSpaceOnUse">
<stop stop-color="#E5C45D"/>
<stop offset="1" stop-color="#987A3B"/>
</linearGradient>
<linearGradient id="paint2_linear_1854_43725" x1="40.115" y1="64.4373" x2="103.194" y2="82.076" gradientUnits="userSpaceOnUse">
<stop stop-color="#E5C45D"/>
<stop offset="1" stop-color="#987A3B"/>
</linearGradient>
</defs>
</svg>
