<svg width="200" height="200" viewBox="0 0 200 200" fill="none" xmlns="http://www.w3.org/2000/svg">
<g clip-path="url(#clip0_1854_43648)">
<path fill-rule="evenodd" clip-rule="evenodd" d="M100 0C155.22 0 200 44.78 200 100C200 155.22 155.22 200 100 200C44.78 200 0 155.22 0 100C0 44.78 44.78 0 100 0Z" fill="white"/>
<path d="M58.785 113.878C64.5327 113.878 70.1402 111.963 74.6729 108.458L38.2243 72.0093C29.4392 83.3644 31.542 99.7196 42.8972 108.505C47.4766 111.963 53.0374 113.878 58.785 113.878Z" fill="#00193C"/>
<path d="M167.196 87.8505C167.196 82.1028 165.28 76.4954 161.776 71.9626L125.327 108.411C136.682 117.196 152.991 115.093 161.776 103.738C165.28 99.2056 167.196 93.5982 167.196 87.8505Z" fill="#00193C"/>
<path d="M185.561 48.1777L169.439 64.2992C182.43 79.86 180.374 103.038 164.813 116.028C151.168 127.43 131.355 127.43 117.71 116.028L100 133.738L82.3364 116.075C66.7757 129.066 43.5981 127.01 30.6075 111.449C19.2056 97.8039 19.2056 77.9908 30.6075 64.346L22.3364 56.0749L14.486 48.1777C5 63.7852 0 81.7291 0 100C0 155.234 44.7664 200 100 200C155.234 200 200 155.234 200 100C200.047 81.7291 195 63.7852 185.561 48.1777Z" fill="#00193C"/>
<path d="M172.336 30.9812C134.252 -8.97205 70.9813 -10.4674 31.028 27.6167C29.8598 28.7382 28.7383 29.8597 27.6635 30.9812C25.1869 33.598 22.8504 36.3083 20.6542 39.1588L100 118.551L179.346 39.1588C177.196 36.3083 174.813 33.598 172.336 30.9812ZM100 13.084C123.364 13.084 145.14 22.1027 161.495 38.5513L100 100.047L38.5046 38.5513C54.8598 22.1027 76.6355 13.084 100 13.084Z" fill="#00193C"/>
</g>
<defs>
<clipPath id="clip0_1854_43648">
<rect width="200" height="200" fill="white"/>
</clipPath>
</defs>
</svg>
