<svg width="200" height="200" viewBox="0 0 200 200" fill="none" xmlns="http://www.w3.org/2000/svg">
<path d="M100 200C155.228 200 200 155.228 200 100C200 44.7715 155.228 0 100 0C44.7715 0 0 44.7715 0 100C0 155.228 44.7715 200 100 200Z" fill="#1C68F3"/>
<path fill-rule="evenodd" clip-rule="evenodd" d="M157.586 78.7692V110.227H62.4424H58.3058C62.4424 129.267 79.8165 143.341 100.5 143.341C117.46 143.341 132.353 133.821 139.385 119.747H158V145.824C158 152.033 153.036 157 146.417 157H54.5827C48.3777 157 43 152.033 43 145.824V78.7692H157.586ZM128.216 119.333C122.011 128.026 112.083 133.821 100.5 133.821C88.9173 133.821 78.5755 128.026 72.7842 119.333H128.216ZM76.0935 86.2198C66.9928 86.2198 59.5468 92.8425 58.3058 101.121H68.2338C69.4748 97.8095 72.3705 95.326 76.0935 95.326C79.8165 95.326 82.7122 97.8095 83.9532 101.121H93.4676C92.2266 92.4286 84.7806 86.2198 76.0935 86.2198ZM124.906 86.2198C115.806 86.2198 108.36 92.8425 107.119 101.121H117.047C118.288 97.8095 121.183 95.326 124.906 95.326C128.629 95.326 131.525 97.8095 132.766 101.121H142.694C141.04 92.4286 133.594 86.2198 124.906 86.2198ZM146.004 44C152.209 44 157.586 48.967 157.586 55.1758V68.8352H43V55.1758C43 48.967 47.964 44 54.5827 44H146.004Z" fill="white"/>
</svg>
