<svg width="200" height="200" viewBox="0 0 200 200" fill="none" xmlns="http://www.w3.org/2000/svg">
<path d="M100 200C155.228 200 200 155.228 200 100C200 44.7715 155.228 0 100 0C44.7715 0 0 44.7715 0 100C0 155.228 44.7715 200 100 200Z" fill="#0D0F13"/>
<path fill-rule="evenodd" clip-rule="evenodd" d="M53.6182 57.2635C44.3419 68.9582 36.1328 79.3137 35.3761 80.2757L34 82.0246L40.5408 110.742L47.0815 139.46L73.5409 152.23L100 165L126.459 152.23L152.919 139.46L159.459 110.742L166 82.0246L164.624 80.2757C163.867 79.3137 155.658 68.9582 146.382 57.2635L129.516 36H100H70.4843L53.6182 57.2635ZM109.493 55.9356C104.437 62.2872 100.166 67.4842 100 67.4842C99.8342 67.4842 95.5627 62.2872 90.5074 55.9356L81.3165 44.3871H100H118.684L109.493 55.9356ZM83.6447 60.6111C89.2093 67.6187 93.9489 73.6514 94.1772 74.0166C94.5344 74.5886 93.4803 76.0874 86.5714 84.8283C80.2409 92.8371 78.3964 94.9496 77.8174 94.8516C76.947 94.7042 46.0571 81.8111 45.6119 81.4093C45.4433 81.2571 50.4631 74.6381 56.767 66.7009C73.317 45.862 72.5181 46.8094 73.0622 47.3813C73.3178 47.65 78.0798 53.6035 83.6447 60.6111ZM141.942 65.0866C148.5 73.3458 153.779 80.1904 153.673 80.2962C153.454 80.5158 121.182 87.3199 121.039 87.1769C120.988 87.1256 122.865 78.6311 125.211 68.3005C127.557 57.9696 129.598 49.6415 129.747 49.7936C129.896 49.9454 135.383 56.8272 141.942 65.0866ZM116.138 70.8079C114.511 77.9297 113.118 83.819 113.042 83.8951C112.966 83.9711 111.213 81.9364 109.146 79.3735C105.941 75.3998 105.448 74.6163 105.8 74.0526C106.691 72.627 118.802 57.5659 118.944 57.7078C119.027 57.7907 117.764 63.6858 116.138 70.8079ZM103.664 85.8058C106.572 89.4447 106.934 90.0494 106.354 90.2861C105.985 90.4369 102.383 91.2336 98.35 92.0571C94.3169 92.8803 90.8038 93.6251 90.5435 93.7114C90.2333 93.8146 90.1702 93.7012 90.3603 93.3818C91.1061 92.1292 99.8456 81.4335 100.06 81.5109C100.194 81.5591 101.816 83.492 103.664 85.8058ZM155.946 89.0229C155.835 89.376 153.928 97.666 151.709 107.445C149.489 117.225 147.579 125.625 147.464 126.112L147.254 126.998L146.405 126.112C145.176 124.83 122.717 96.4655 122.516 95.9429C122.398 95.6343 127.301 94.4525 138.948 91.9823C148.078 90.046 155.683 88.4435 155.848 88.4216C156.013 88.3993 156.057 88.6699 155.946 89.0229ZM58.7074 96.0182C66.3223 99.2108 72.5577 101.946 72.5635 102.097C72.5699 102.248 68.1587 107.92 62.7612 114.703C54.5836 124.978 52.8996 126.913 52.6602 126.313C52.5021 125.917 50.7033 118.169 48.6629 109.095C46.6221 100.021 44.8119 92.061 44.6399 91.4058C44.4683 90.7508 44.4478 90.2142 44.5948 90.2142C44.7415 90.2142 51.0923 92.8261 58.7074 96.0182ZM109.759 98.9215C109.654 99.2745 106.838 111.606 103.5 126.326C100.163 141.046 97.3088 153.359 97.158 153.688C96.9263 154.193 93.8124 152.804 77.2722 144.812C66.486 139.601 57.614 135.196 57.5565 135.023C57.4989 134.85 62.9436 127.801 69.6556 119.357L81.8598 104.004L95.2382 101.174C102.596 99.617 108.916 98.3291 109.283 98.3117C109.752 98.2894 109.893 98.4702 109.759 98.9215ZM130.068 118.975C136.78 127.434 142.289 134.567 142.31 134.827C142.353 135.348 106.7 152.762 106.336 152.398C106.214 152.277 108.467 141.824 111.341 129.17C117.701 101.171 117.275 102.934 117.599 103.297C117.745 103.461 123.357 110.516 130.068 118.975Z" fill="url(#paint0_linear_1854_43809)"/>
<defs>
<linearGradient id="paint0_linear_1854_43809" x1="34" y1="117.326" x2="166.348" y2="81.3201" gradientUnits="userSpaceOnUse">
<stop stop-color="#3970FF"/>
<stop offset="1" stop-color="#17B9FE"/>
</linearGradient>
</defs>
</svg>
