<svg width="200" height="200" viewBox="0 0 200 200" fill="none" xmlns="http://www.w3.org/2000/svg">
<path fill-rule="evenodd" clip-rule="evenodd" d="M100 0C155.22 0 200 44.78 200 100C200 155.22 155.22 200 100 200C44.78 200 0 155.22 0 100C0 44.78 44.78 0 100 0Z" fill="#F5AC37"/>
<path d="M101.409 106.364H135.703C136.434 106.364 136.78 106.364 136.833 105.409C137.113 101.933 137.113 98.4366 136.833 94.9563C136.833 94.2805 136.495 94.0013 135.76 94.0013H67.5087C66.6639 94.0013 66.4365 94.2805 66.4365 95.0696V105.073C66.4365 106.364 66.4365 106.364 67.7889 106.364H101.409ZM133.003 82.31C133.1 82.055 133.1 81.7758 133.003 81.5249C132.43 80.2825 131.752 79.0968 130.964 77.9839C129.778 76.0819 128.381 74.3296 126.789 72.7554C126.037 71.8044 125.168 70.9505 124.193 70.2261C119.312 66.0862 113.508 63.1563 107.27 61.6832C104.122 60.9791 100.905 60.6432 97.6807 60.6715H67.3909C66.5461 60.6715 66.4324 61.0074 66.4324 61.7399V81.6908C66.4324 82.5325 66.4324 82.7592 67.5046 82.7592H132.596C132.596 82.7592 133.161 82.6458 133.275 82.31H132.999H133.003ZM133.003 118.056C132.044 117.95 131.078 117.95 130.119 118.056H67.5655C66.7208 118.056 66.4365 118.056 66.4365 119.181V138.686C66.4365 139.585 66.4365 139.811 67.5655 139.811H96.4461C97.8269 139.917 99.2078 139.82 100.56 139.532C104.752 139.233 108.874 138.326 112.805 136.833C114.235 136.339 115.616 135.696 116.92 134.923H117.313C124.084 131.414 129.583 125.902 133.051 119.136C133.051 119.136 133.445 118.286 133.003 118.064V118.056ZM55.1011 149.924V149.589V136.493V132.054V118.845C55.1011 118.112 55.1011 118.003 54.1995 118.003H41.9585C41.2802 118.003 41 118.003 41 117.105V106.425H54.0858C54.8168 106.425 55.1011 106.425 55.1011 105.47V94.9037C55.1011 94.2279 55.1011 94.062 54.1995 94.062H41.9585C41.2802 94.062 41 94.062 41 93.1636V83.2731C41 82.6539 41 82.488 41.9016 82.488H54.0289C54.8737 82.488 55.1011 82.488 55.1011 81.4196V51.125C55.1011 50.2266 55.1011 50 56.2302 50H98.5336C101.604 50.1214 104.654 50.4573 107.672 51.0117C113.89 52.157 119.864 54.3706 125.327 57.5312C128.949 59.6558 132.284 62.2215 135.253 65.1756C137.486 67.4864 139.501 69.9873 141.288 72.6502C143.063 75.3494 144.537 78.2348 145.694 81.2497C145.837 82.0348 146.592 82.5649 147.38 82.4314H157.477C158.772 82.4314 158.772 82.4314 158.829 83.6697V92.8884C158.829 93.7868 158.492 94.0134 157.586 94.0134H149.801C149.013 94.0134 148.785 94.0134 148.842 95.0251C149.151 98.4487 149.151 101.885 148.842 105.308C148.842 106.263 148.842 106.376 149.918 106.376H158.825C159.219 106.882 158.825 107.388 158.825 107.898C158.882 108.55 158.882 109.209 158.825 109.861V116.664C158.825 117.619 158.545 117.902 157.696 117.902H147.035C146.291 117.76 145.569 118.234 145.398 118.97C142.86 125.546 138.798 131.443 133.551 136.169C131.634 137.889 129.619 139.508 127.516 141.001C125.258 142.296 123.06 143.644 120.745 144.712C116.485 146.622 112.017 148.031 107.432 148.925C103.078 149.702 98.6636 150.054 94.2326 149.993H55.0849V149.937L55.1011 149.924Z" fill="#FEFEFD"/>
</svg>
