<svg width="200" height="200" viewBox="0 0 200 200" fill="none" xmlns="http://www.w3.org/2000/svg">
<path d="M100 200C155.228 200 200 155.228 200 100C200 44.7715 155.228 0 100 0C44.7715 0 0 44.7715 0 100C0 155.228 44.7715 200 100 200Z" fill="#007F88"/>
<path d="M41.2449 55.0991C39.3672 55.2477 37.922 55.545 38.0033 55.7679C38.7522 57.5619 43.3832 68.1245 43.4465 68.1882C43.5098 68.2519 44.5858 68.3262 45.8517 68.3793C51.4637 68.5916 55.9048 69.6957 60.7046 72.0842C64.1541 73.7933 66.7069 75.6298 69.3652 78.2944C73.2789 82.2222 75.8317 86.5852 77.3297 91.9249C77.4985 92.5406 77.6356 93.0926 77.6356 93.1775C77.6356 93.2943 76.7811 93.3155 73.0046 93.3155C70.4518 93.3155 68.2576 93.358 68.1205 93.4111C67.92 93.4854 67.3926 94.6319 65.1984 99.6956C63.7216 103.103 62.4979 105.969 62.4768 106.065C62.4029 106.341 63.289 106.585 65.5043 106.914C65.9579 106.989 68.6796 107.063 71.897 107.105L77.4985 107.169L77.1609 108.337C73.3844 121.224 61.6645 130.237 47.3074 131.32C46.4952 131.373 45.4297 131.426 44.9339 131.426H44.0373L41.2734 137.827C38.8999 143.294 38.5307 144.228 38.6889 144.281C39.4063 144.547 41.0097 144.642 44.7229 144.642C49.47 144.642 51.7802 144.43 55.6938 143.623C71.6754 140.322 84.9566 130.088 90.9694 116.415C92.1298 113.783 93.4906 109.451 93.7333 107.636L93.8071 107.116H105.801L105.843 107.349C106.708 111.617 107.647 114.494 109.272 117.891C114.156 128.124 123.312 136.479 134.653 141.065C141.539 143.84 148.915 145.173 156.331 144.982C159.432 144.886 161.9 144.536 161.774 144.207C161.668 143.931 156.415 131.797 156.383 131.766C156.352 131.734 155.265 131.691 153.947 131.638C150.244 131.489 147.459 131.054 144.315 130.152C139.473 128.751 134.684 126.214 131.013 123.114C126.393 119.197 123.049 114.324 121.277 108.921C121.076 108.305 120.876 107.657 120.844 107.466L120.77 107.127L125.285 107.095C127.764 107.073 129.874 107.02 129.958 106.978C130.095 106.904 135.496 94.5788 135.496 94.3346C135.496 94.1754 134.136 93.772 132.901 93.5703C131.994 93.4217 130.844 93.3792 126.256 93.3474L120.696 93.2943L120.907 92.5406C123.988 81.564 133.439 72.8485 145.623 69.7594C148.313 69.08 150.93 68.7296 154.326 68.5916C156.352 68.5067 156.605 68.4749 156.731 68.305C156.816 68.1882 158.061 65.3751 159.495 62.0524C161.257 57.9866 162.069 55.9802 161.995 55.9271C161.763 55.7997 160.286 55.5344 159.126 55.4176C157.438 55.2371 152.512 55.269 150.339 55.46C137.912 56.5747 126.709 61.6171 118.312 69.8549C113.185 74.8867 109.588 80.5343 107.373 87.0523C106.803 88.6977 106.118 91.2879 105.907 92.5406L105.78 93.3155H93.9896L93.9474 93.0714C93.9158 92.944 93.7997 92.3389 93.6731 91.7232C91.9326 83.0183 87.0168 74.5576 80.0756 68.3262C72.1744 61.2244 62.3217 56.7764 51.4774 55.425C48.2178 55.0248 44.0162 54.8868 41.2449 55.0991Z" fill="white"/>
</svg>
