<svg width="200" height="200" viewBox="0 0 200 200" fill="none" xmlns="http://www.w3.org/2000/svg">
<path d="M100 200C155.228 200 200 155.228 200 100C200 44.7715 155.228 0 100 0C44.7715 0 0 44.7715 0 100C0 155.228 44.7715 200 100 200Z" fill="white"/>
<path d="M42.3498 93.2215C42.7205 94.9308 42.9418 96.6695 43.3125 98.3815C43.5391 99.4321 43.8805 99.1761 44.4191 98.7228C45.4511 97.8561 46.4405 96.9388 47.6031 96.2401C47.9285 96.3041 48.0965 96.5655 48.2778 96.8001C51.3125 100.765 55.3525 103.192 60.1098 104.517C62.2591 105.115 64.4405 105.525 66.8245 105.763C66.0778 104.869 65.4778 104.048 65.0591 103.109C64.2991 101.397 64.5658 99.8668 65.8485 98.5148C67.4138 96.8641 69.4778 96.1815 71.5738 95.6348C75.9685 94.4908 80.4458 94.3761 84.9551 94.6961C88.5898 94.9548 92.1631 95.5441 95.6671 96.5228C98.5898 97.3388 101.459 98.3148 104.048 99.9548C104.411 100.245 104.662 100.648 105.011 100.955C108.342 104.528 110.286 108.755 110.419 113.635C110.51 117.005 109.576 120.224 107.888 123.187C104.843 128.528 100.398 132.403 95.0991 135.376C89.6485 138.432 83.7951 140.24 77.5898 140.912C66.5925 142.104 56.4058 139.72 47.0351 133.883C39.2431 129.029 33.2591 122.395 28.3765 114.701C26.0671 111.064 24.1391 107.224 22.3711 103.301C22.1551 102.821 22.1045 102.285 21.8831 101.891C22.0245 102.357 22.2805 102.885 21.7711 103.384C21.6138 101.397 21.7925 99.4135 21.8965 97.4348C22.1818 91.9708 22.9845 86.5788 24.4245 81.2908C27.2325 70.9868 31.8991 61.6188 38.5391 53.2401C47.2005 42.3121 58.0111 34.2561 70.9498 29.0881C77.8485 26.3335 85.0111 24.6535 92.4245 23.9681C104.043 22.8988 115.302 24.4295 126.28 28.3281C124.611 31.4961 115.075 39.9868 107.67 44.9015C107.47 42.7175 106.947 40.6481 106.219 38.6321C106.182 38.0935 106.662 37.9255 106.96 37.6695C108.502 36.3468 110.048 35.0321 111.608 33.7308C111.763 33.6028 111.923 33.4828 112.056 33.3361C112.232 33.1468 112.528 32.9895 112.467 32.6961C112.4 32.3761 112.054 32.3895 111.808 32.3495C111.086 32.2348 110.371 32.0615 109.63 32.0748C108.616 31.9521 107.616 31.7255 106.59 31.7068C105.803 31.6588 105.03 31.4588 104.235 31.5228C103.835 31.4961 103.43 31.5281 103.035 31.4375C102.368 31.2268 101.686 31.3201 101.006 31.3228C100.6 31.3148 100.198 31.2908 99.7925 31.3281C98.6298 31.3948 97.4645 31.2001 96.3071 31.4188C96.0245 31.4828 95.7391 31.5121 95.4511 31.5041C95.1151 31.5095 94.7818 31.5201 94.4458 31.5148C94.0058 31.4908 93.5711 31.4908 93.1471 31.6375C91.9231 31.7495 90.6965 31.8455 89.4858 32.0695C88.0271 32.3788 86.5285 32.4535 85.0778 32.8135C83.7471 33.1601 82.3791 33.3575 81.0725 33.8108C79.3365 34.2881 77.6218 34.8375 75.9125 35.4028C73.4218 36.3921 70.8965 37.2961 68.5258 38.5655C63.1178 41.1575 58.2005 44.4908 53.6805 48.4161C49.5205 52.0295 45.8085 56.0615 42.5845 60.5335C40.9738 62.7681 39.5045 65.0961 38.1738 67.5095C37.3285 69.0828 36.5151 70.6695 35.7818 72.2961C35.2405 73.5521 34.6031 74.7681 34.1871 76.0775C33.6565 77.3841 33.2165 78.7255 32.7951 80.0721C32.2938 81.4215 32.0031 82.8321 31.6085 84.2108C31.4378 84.7521 31.3338 85.3095 31.2005 85.8588C31.0325 86.5228 30.9311 87.2001 30.8085 87.8721C30.6005 89.0055 30.4111 90.1388 30.2485 91.2801C30.0245 92.4508 29.9231 93.6375 29.8298 94.8241C29.6325 95.6081 29.7765 96.4215 29.6325 97.2108C29.4138 98.1948 29.5578 99.1975 29.4938 100.187C29.4645 100.883 29.4511 101.581 29.4698 102.277C29.4778 102.565 29.3391 102.963 29.6405 103.104C29.9845 103.264 30.2351 102.899 30.4831 102.696C31.3311 102.003 32.1605 101.285 32.9898 100.571C35.7818 98.1655 38.6085 95.8028 41.4111 93.4108C41.6538 93.2055 41.9178 92.6668 42.3498 93.2215" fill="#4189C9"/>
<path d="M104.028 100.208C100.732 98.2484 97.1242 97.1097 93.4229 96.2324C88.5402 95.075 83.5776 94.6191 78.5749 94.8697C75.0496 95.0457 71.5562 95.5364 68.3136 97.0857C67.9242 97.2724 67.5482 97.491 67.1882 97.731C64.5616 99.4937 64.1642 101.838 66.0629 104.376C66.4549 104.902 66.8922 105.392 67.4229 106.035C65.7189 106.04 64.2096 105.715 62.7029 105.419C58.6736 104.619 54.8869 103.222 51.6389 100.63C50.0762 99.3817 48.6469 97.9817 47.6016 96.243C48.0282 95.5497 48.7402 95.2244 49.4096 94.8377C50.6949 94.2991 51.8602 93.5284 53.1322 92.947C58.8576 90.3337 64.8416 88.7284 71.1056 88.1417C73.5909 87.9097 76.0789 87.6724 78.5802 87.7657C85.9802 88.0404 93.2069 89.3364 100.274 91.5364C102.084 92.1017 103.879 92.7231 105.764 93.3604C105.762 92.8377 105.46 92.5097 105.258 92.1657C104.498 90.8697 103.631 89.6511 102.655 88.5044C102.303 88.0884 101.807 87.723 101.818 87.083C102.812 87.3097 103.807 87.5311 104.799 87.7684C105.058 87.8297 105.378 87.9897 105.548 87.7711C105.775 87.4831 105.434 87.2324 105.287 87.0137C103.82 84.8324 101.999 82.9684 100.042 81.2324C101.079 80.6324 102.146 81.1204 103.156 81.251C113.522 82.5737 122.967 86.267 131.204 92.731C142.111 101.288 149.159 112.342 152.13 125.934C153.127 130.496 153.367 135.131 153.031 139.75C152.447 147.779 149.924 155.19 145.178 161.771C144.866 162.203 144.444 162.547 144.215 163.04C143.138 164.643 141.559 165.728 140.1 166.912C132.22 173.304 123.031 176.632 113.127 178.187C105.391 179.4 97.6176 179.579 89.8442 178.598C77.5002 177.038 66.1696 172.75 55.8736 165.763C53.4016 164.086 50.9776 162.334 48.8042 160.264C48.7216 160.171 48.7269 160.08 48.8176 159.995C49.2842 159.811 49.5749 160.147 49.8816 160.379C55.1029 164.326 60.9029 167.075 67.2042 168.795C69.2949 169.366 71.4309 169.715 73.5696 170.059C74.0549 170.238 74.5696 170.155 75.0656 170.235C75.1669 170.248 75.2682 170.27 75.3669 170.299C80.2309 170.875 85.0656 170.536 89.8629 169.688C100.407 167.827 109.775 163.408 117.796 156.318C123.263 151.483 127.58 145.774 129.863 138.731C132.135 131.723 131.823 124.835 128.618 118.067C127.959 121.104 126.367 123.614 124.375 125.904C122.356 128.152 120.042 130.043 117.423 131.555C117.119 131.731 116.783 132.064 116.434 131.795C116.132 131.563 116.314 131.163 116.404 130.859C117.044 128.75 117.466 126.595 117.724 124.406C118.655 115.2 115.103 108.04 107.778 102.606C106.586 101.72 105.33 100.934 104.028 100.219" fill="#262F71"/>
<path d="M73.6209 170.243C70.9036 170.008 68.2662 169.392 65.6609 168.616C60.7222 167.149 56.1382 164.928 51.8289 162.12C50.8049 161.453 49.9436 160.557 48.8316 160.019C48.1942 159.925 47.9276 159.304 47.4156 159.029C36.6476 149.456 29.2929 137.701 25.0609 123.968C22.9969 117.269 21.9116 110.403 21.7676 103.389C21.7942 102.864 21.8209 102.339 21.8636 101.523C22.3862 102.685 22.7942 103.608 23.2129 104.525C27.0876 113.021 32.0476 120.773 38.8769 127.224C46.1409 134.088 54.5836 138.659 64.5223 140.275C76.1783 142.171 87.0849 140.139 97.1142 133.859C102.114 130.725 106.218 126.675 108.578 121.152C111.437 114.456 110.362 108.235 106.008 102.499C105.626 101.997 105.221 101.512 104.826 101.021C105.346 100.579 105.618 101.091 105.914 101.336C108.528 103.533 110.533 106.189 111.938 109.309C113.288 112.299 113.992 115.453 114.032 118.693C114.072 121.973 113.392 125.168 111.912 128.259C112.309 128.275 112.538 128.083 112.776 127.944C114.154 127.136 115.472 126.237 116.682 125.184C117.061 124.856 117.394 124.363 118.016 124.437C117.685 126.883 117.189 129.293 116.392 131.837C118.128 130.869 119.592 129.875 120.997 128.779C122.152 127.877 123.085 126.744 124.218 125.827C124.701 126.032 124.701 126.512 124.813 126.915C126.658 133.573 125.322 139.789 122.034 145.661C118.045 152.781 112.178 158.083 105.338 162.371C99.7862 165.851 93.7969 168.288 87.3996 169.715C83.3809 170.611 79.3196 170.851 75.2209 170.435C74.7142 170.16 74.1356 170.488 73.6236 170.243" fill="#161F42"/>
<path d="M174.446 120.819C174.078 113.125 172.235 105.795 168.907 98.8586C166.75 94.3599 164.03 90.2239 160.798 86.3946C157.888 82.9519 154.55 80.0133 151.048 77.2266C151.376 76.9039 151.784 76.9653 152.179 77.0133C157.088 77.6079 161.88 78.7039 166.523 80.4213C167.68 80.8479 168.798 81.3653 169.864 81.9839C170.264 82.1466 170.598 82.4239 170.974 82.6346C171.067 82.6853 171.115 82.8186 171.254 82.7893C171.174 82.6773 171.131 82.5599 171.195 82.4239C168.04 78.3119 164.224 74.8826 160.216 71.6239C155.427 67.7279 150.232 64.4906 144.704 61.7839C136.974 57.9973 128.838 55.5279 120.286 54.4639C119.531 54.3706 118.752 54.4719 118.016 54.2053C117.952 53.7013 118.376 53.5333 118.67 53.2879C123.648 49.1386 127.651 44.2186 130.478 38.3679C131.334 36.5973 132.048 34.7679 132.648 32.8933C132.816 32.3653 132.918 31.7813 133.443 31.4399C138.003 33.5733 142.238 36.2373 146.272 39.2346C150.187 42.1413 153.763 45.4346 157.035 49.0319C163.798 56.4639 168.966 64.8879 172.464 74.3226C175.486 82.4693 177.091 90.8773 177.283 99.5706C177.446 106.84 176.672 113.989 174.806 121.019C174.579 121.141 174.531 120.949 174.448 120.819" fill="#4189C9"/>
<path d="M144.216 163.032C144.208 162.248 144.843 161.808 145.227 161.259C148.872 156.056 151.091 150.293 152.243 144.064C152.957 140.205 153.016 136.309 152.763 132.445C152.371 126.485 150.848 120.757 148.448 115.267C146.68 111.227 144.493 107.437 141.853 103.915C139.053 100.176 135.808 96.8668 132.208 93.8828C126.605 89.2374 120.296 85.9228 113.384 83.7308C109.715 82.5681 105.963 81.7574 102.117 81.4134C101.427 81.3521 100.744 81.1868 100.043 81.2294C97.6106 79.4348 95.1386 77.7014 92.3652 76.4481C92.3706 76.3574 92.3786 76.2668 92.3839 76.1788C93.3812 76.1788 94.3812 76.1948 95.3786 76.1788C109.36 75.9281 122.245 79.3548 133.501 87.8694C145.171 96.6961 152.464 108.36 155.195 122.752C157.525 135.032 155.717 146.629 148.912 157.272C147.573 159.365 146.104 161.381 144.213 163.037" fill="#161F42"/>
<path d="M133.44 31.443C132.04 35.7257 130.283 39.835 127.768 43.603C125.216 47.427 122.134 50.7524 118.59 53.6644C118.387 53.8324 118.203 54.0244 118.014 54.2057C116.792 54.827 115.787 55.7657 114.654 56.5177C110.512 59.275 106.096 61.4884 101.483 63.3284C101.368 63.3737 101.243 63.387 101.139 63.4137C100.936 63.115 101.176 63.0057 101.299 62.8884C103.918 60.3977 105.539 57.3097 106.622 53.9124C106.776 53.427 106.974 53.1337 107.467 52.939C115.603 49.7177 122.096 44.3657 127.411 37.499C127.894 36.875 128.368 36.243 128.966 35.4564C127.318 35.4217 126.059 36.251 124.667 36.475C124.406 36.491 124.064 36.7097 124 36.2137C129.054 30.227 132.83 23.5364 135.158 16.0404C135.304 15.5657 135.158 14.9124 135.819 14.6724C135.872 14.707 135.894 14.747 135.886 14.7924C135.878 14.8404 135.864 14.8644 135.851 14.8644C135.75 20.1604 135.067 25.3737 133.624 30.4777C133.536 30.7924 133.502 31.123 133.44 31.4457" fill="#161F42"/>
<path d="M101.818 87.0772C103.455 88.9172 104.925 90.8799 106.101 93.0505C106.215 93.2612 106.511 93.4959 106.247 93.7439C106.047 93.9306 105.815 93.7012 105.607 93.6239C100.183 91.6052 94.6235 90.0586 88.9222 89.0772C86.0555 88.5839 83.1462 88.3679 80.2342 88.1572C77.5942 87.9679 74.9808 88.0612 72.3808 88.2692C66.4022 88.7492 60.5835 90.0266 55.0528 92.4186C53.3462 93.1572 51.6022 93.8185 50.0155 94.8159C49.8342 94.9305 49.6182 95.1172 49.4102 94.8292C54.2368 91.3972 59.5355 88.9412 65.1968 87.2532C72.9702 84.9332 80.9115 84.3652 88.9702 84.9972C93.0822 85.3199 97.1462 85.9519 101.167 86.8505C101.389 86.9012 101.602 86.9972 101.818 87.0745" fill="#161F42"/>
<path d="M99.819 31.0347C100.219 31.0347 100.619 31.0347 101.019 31.0347C101.664 31.312 102.374 30.96 103.019 31.232C103.419 31.232 103.816 31.232 104.216 31.2347C104.318 31.816 103.84 32.0587 103.51 32.3387C97.9683 37.0187 92.4697 41.7493 86.923 46.4267C85.091 47.9707 83.275 49.5333 81.4457 51.08C81.195 51.2933 80.9177 51.4907 80.819 51.8347C78.4217 52.7307 76.1897 53.8613 74.4323 55.816C73.5977 56.744 73.051 57.8187 72.4457 58.872C70.8003 59.9467 69.4163 61.3413 67.923 62.5973C63.9843 65.9067 60.0963 69.2773 56.147 72.5787C55.8137 72.856 55.595 73.2453 55.2083 73.4613C54.531 72.448 54.6777 71.3387 54.8377 70.2293C55.3337 69.4133 56.1177 68.8853 56.8243 68.288C60.6537 65.04 64.4697 61.776 68.3017 58.5307C72.0323 55.3707 75.7497 52.1947 79.4777 49.032C83.763 45.3973 88.043 41.7547 92.323 38.1093C94.7017 36.0827 97.0697 34.0373 99.483 32.0533C99.8483 31.752 100.104 31.512 99.8243 31.0373" fill="#5C94CE"/>
<path d="M170.002 82.243C165.303 79.9603 160.33 78.5683 155.191 77.7336C153.818 77.5096 152.447 77.2376 151.045 77.2243C149.253 76.091 147.495 74.8963 145.661 73.8376C139.669 70.379 133.255 68.067 126.413 66.971C126.298 66.9523 126.194 66.8883 125.973 66.8003C128.013 66.427 134.957 67.4696 139.765 68.7923C144.194 70.011 148.455 71.659 152.69 73.8696C152.258 72.5763 151.469 71.7016 150.986 70.667C150.938 70.3896 150.554 70.1496 150.81 69.8563C151.087 69.5416 151.362 69.8776 151.605 69.987C152.298 70.3016 152.962 70.683 153.658 70.9923C159.498 74.011 164.954 77.6136 170.031 81.7896C170.218 82.0403 170.207 82.1914 169.999 82.243" fill="#161F42"/>
<path d="M99.818 31.0347C99.9433 31.3254 100.33 31.112 100.517 31.44C99.402 32.4054 98.2846 33.3867 97.154 34.3494C95.1086 36.088 93.0527 37.8134 91.002 39.5467C88.09 42.0054 85.17 44.4534 82.266 46.9227C80.2447 48.64 78.2526 50.392 76.2313 52.112C73.7833 54.1947 71.3113 56.248 68.858 58.328C66.9113 59.9787 64.9833 61.6534 63.0393 63.3067C60.994 65.0454 58.9406 66.7734 56.89 68.504C56.2046 69.0827 55.5193 69.656 54.834 70.2294C55.0287 69.3627 55.2233 68.496 55.4207 67.6267C55.0873 66.776 55.7806 66.392 56.2526 65.9974C58.1193 64.4427 59.954 62.8507 61.8073 61.2774C66.122 57.616 70.4287 53.9494 74.7407 50.2827C78.442 47.136 82.1513 43.9974 85.85 40.8454C89.2953 37.9094 92.7647 35.0027 96.1753 32.0267C96.4367 31.7974 96.9353 31.528 96.2153 31.2267C97.3967 30.7974 98.6206 31.136 99.8206 31.032" fill="#6497D0"/>
<path d="M96.213 31.2292C96.493 31.2772 96.7996 31.1306 97.093 31.3572C96.3863 32.3999 95.3463 33.0799 94.4343 33.8746C91.8156 36.1572 89.157 38.3972 86.5036 40.6399C84.077 42.6906 81.6263 44.7119 79.2076 46.7679C76.7596 48.8452 74.3463 50.9652 71.8983 53.0426C69.477 55.0986 67.0236 57.1146 64.6023 59.1706C62.1543 61.2506 59.7276 63.3519 57.2983 65.4506C56.5676 66.0826 55.6023 66.5146 55.421 67.6239C54.1303 67.7706 53.4476 68.8586 52.5036 69.5332C51.013 70.5972 49.877 72.0586 48.5036 73.2532C47.1196 74.2346 45.8983 75.4132 44.6076 76.5066C40.773 79.7572 36.9543 83.0292 33.1063 86.2639C32.5703 86.7119 32.101 87.2399 31.501 87.6132C31.2316 87.7812 30.9916 88.0906 30.6156 87.8292C30.6076 87.1332 30.7196 86.4612 31.0183 85.8292C32.9356 84.6052 34.5276 82.9839 36.261 81.5332C41.0316 77.5386 45.757 73.4906 50.4956 69.4586C55.2076 65.4479 59.909 61.4239 64.6263 57.4186C69.2423 53.4986 73.8636 49.5866 78.477 45.6639C83.1916 41.6559 87.9276 37.6746 92.605 33.6239C93.5356 32.8186 94.5143 32.0692 95.4183 31.2346C95.6823 31.2346 95.949 31.2346 96.213 31.2319" fill="#689AD1"/>
<path d="M106.615 31.4321C107.7 31.4188 108.748 31.6961 109.815 31.8321C110.106 32.4694 109.556 32.7174 109.218 33.0134C107.884 34.1788 106.49 35.2721 105.194 36.4801C105.055 36.2961 104.906 36.1174 104.775 35.9228C104.479 35.4801 104.271 35.6001 104.079 36.0108C102.506 39.3868 99.7989 41.7334 96.8522 43.8241C93.5402 46.1761 89.9722 48.0801 86.2175 49.6348C86.0175 49.2508 85.9989 49.2321 86.3429 48.8774C87.0602 48.1361 87.8842 47.5068 88.6682 46.8401C94.3455 42.0134 100.042 37.2081 105.684 32.3414C106.012 32.0588 106.295 31.7281 106.612 31.4348" fill="#4E8FCC"/>
<path d="M106.617 31.4319C106.579 31.7786 106.422 32.0372 106.147 32.2692C102.486 35.3679 98.8325 38.4746 95.1792 41.5839C92.3845 43.9652 89.5899 46.3466 86.8165 48.7546C86.5659 48.9732 86.0965 49.1279 86.2219 49.6346C84.4699 50.4906 82.6539 51.1866 80.8165 51.8319C80.1952 51.6612 80.7099 51.4399 80.8272 51.3386C81.9179 50.3732 83.0219 49.4239 84.1285 48.4799C86.1685 46.7439 88.2139 45.0159 90.2592 43.2879C92.2805 41.5812 94.3072 39.8826 96.3232 38.1679C98.3392 36.4532 100.353 34.7359 102.342 32.9892C102.985 32.4266 103.771 32.0079 104.217 31.2319C105.033 31.1172 105.814 31.3919 106.619 31.4292" fill="#5591CD"/>
<path d="M92.4281 55.4588C94.5401 54.4135 96.7481 53.5362 98.5908 52.0108C98.9748 51.9975 98.9321 52.2162 98.8388 52.4642C97.1375 59.5095 91.7935 64.1362 84.5668 64.8108C83.1748 64.9415 81.7855 65.1015 80.3828 64.9682C80.5615 64.4535 81.0521 64.4962 81.4468 64.3895C83.0148 63.9628 84.5695 63.5042 86.0228 62.7548C88.7481 61.3468 90.7428 59.2695 91.8788 56.3948C92.0121 56.0562 92.1348 55.7095 92.4228 55.4588" fill="#161F42"/>
<path d="M92.4296 55.459C91.5602 58.819 89.4189 61.1417 86.4616 62.8057C84.5602 63.875 82.4562 64.3683 80.3869 64.9656C79.8802 63.4723 80.4296 62.2137 81.3256 61.0803C82.3762 59.7523 83.8082 58.923 85.3282 58.2297C87.6429 57.171 90.0189 56.2723 92.4296 55.459" fill="#418AC9"/>
<path d="M30.613 87.8321C31.7996 87.3921 32.5623 86.3895 33.4956 85.6241C36.5063 83.1548 39.4636 80.6188 42.4316 78.0961C43.9916 76.7681 45.5303 75.4161 47.077 74.0748C47.4983 73.7095 47.8876 73.2908 48.501 73.2588C46.8956 75.2615 45.3703 77.3228 44.2316 79.6375C41.1676 82.2348 38.101 84.8321 35.0476 87.4455C33.6343 88.6535 32.1916 89.8295 30.7996 91.0641C30.5863 91.2535 30.3436 91.4935 30.0156 91.2348C30.093 90.0801 30.2636 88.9415 30.613 87.8348" fill="#6497D0"/>
<path d="M42.3492 93.2217C41.4052 93.2937 40.9786 94.139 40.3519 94.643C37.7252 96.763 35.1652 98.9683 32.6079 101.174C31.7546 101.91 30.9279 102.672 30.0239 103.35C29.4292 103.798 29.2026 103.624 29.2132 102.928C29.2239 102.096 29.2132 101.264 29.2132 100.432C30.1386 99.435 31.2426 98.6403 32.2746 97.7657C35.2559 95.2377 38.2026 92.6723 41.2212 90.1897C41.4799 89.9763 41.6986 89.587 42.1466 89.8377C42.2132 90.9657 42.2799 92.0937 42.3466 93.2217" fill="#468CCA"/>
<path d="M55.2058 73.4614C55.2111 73.0854 55.4645 72.8534 55.7151 72.64C58.1151 70.6134 60.5258 68.6 62.9231 66.5707C64.8938 64.904 66.8485 63.2214 68.8058 61.5414C69.8351 60.6587 70.8565 59.7654 71.8778 58.872C72.0725 58.7014 72.2538 58.5734 72.4431 58.872C72.2218 59.7814 71.9578 60.6827 71.9845 61.6347C70.9071 62.816 69.6138 63.7494 68.4058 64.7814C64.6778 67.968 60.9525 71.16 57.1978 74.3174C57.0458 74.4454 56.9258 74.608 56.8031 74.7627C56.0245 74.6294 55.5285 74.1494 55.2031 73.4614" fill="#5591CD"/>
<path d="M30.0151 91.2321C30.8764 90.9681 31.3804 90.2161 32.0284 89.6801C35.5404 86.7761 38.9991 83.8054 42.4764 80.8588C43.0231 80.3974 43.4071 79.7014 44.2284 79.6348C43.5778 81.2001 43.0711 82.8134 42.6231 84.4481C41.9991 84.3841 41.6818 84.8854 41.2978 85.2134C37.6764 88.3254 34.0231 91.4001 30.3858 94.4934C30.1671 94.6801 29.9751 94.9494 29.6178 94.8294C29.5831 93.6108 29.6844 92.4081 30.0178 91.2294" fill="#5C94CE"/>
<path d="M56.8043 74.7628C56.5563 74.3148 56.9777 74.1708 57.1963 73.9841C60.255 71.3681 63.3217 68.7628 66.3937 66.1601C68.1297 64.6881 69.871 63.2241 71.6177 61.7628C71.711 61.6854 71.863 61.6774 71.9857 61.6348C71.9883 62.4534 72.1057 63.2534 72.3537 64.0374C71.3083 65.2534 69.9883 66.1628 68.7857 67.2001C66.0923 69.5201 63.3803 71.8188 60.6657 74.1148C60.4923 74.2614 60.2923 74.4028 60.255 74.6588C59.1163 75.0774 57.9723 75.2481 56.8043 74.7654" fill="#4E8FCC"/>
<path d="M42.1487 89.8375C41.0261 90.4828 40.1274 91.4161 39.1407 92.2295C36.5407 94.3735 33.9754 96.5628 31.4234 98.7628C30.7194 99.3681 30.0821 100.048 29.2154 100.432C29.3221 99.3681 28.9941 98.2775 29.4154 97.2321C33.3567 93.8641 37.3087 90.5095 41.2687 87.1628C41.5407 86.9335 41.8181 86.6535 42.2394 86.8321C42.2074 87.8321 42.1781 88.8348 42.1487 89.8348" fill="#4E8FCC"/>
<path d="M42.2428 86.835C40.9761 87.5177 39.9974 88.571 38.9041 89.4697C36.3228 91.5897 33.8001 93.779 31.2454 95.931C30.6721 96.4137 30.2748 97.1443 29.4188 97.235C29.5201 96.4377 29.2054 95.6057 29.6188 94.835C32.1121 92.707 34.6028 90.5763 37.1014 88.4563C38.7921 87.0217 40.4988 85.603 42.1868 84.163C42.7281 83.7043 42.5788 84.2083 42.6268 84.4537L42.2454 86.8377L42.2428 86.835Z" fill="#5591CD"/>
<path d="M60.2533 74.6533C59.8853 74.392 60.1413 74.1893 60.336 74.0267C62.688 72.0533 65.0533 70.0933 67.4027 68.1173C68.8693 66.8827 70.3173 65.6267 71.768 64.376C71.944 64.224 72.096 64.0427 72.352 64.0347L72.952 65.232C72.4907 65.9413 71.752 66.3867 71.232 67.04C68.344 70.2293 65.112 72.9467 61.0213 74.4853C60.7787 74.576 60.5093 74.6 60.2533 74.6533" fill="#488DCA"/>
<path d="M105.195 36.4801C105.555 35.3468 106.734 35.0215 107.43 34.2215C108.171 33.3708 109.385 32.9895 109.817 31.8321C110.686 31.8268 111.518 32.0615 112.363 32.2188C113.094 32.3548 113.126 32.6721 112.622 33.1228C111.534 34.0935 110.438 35.0588 109.331 36.0108C108.302 36.8961 107.257 37.7601 106.217 38.6348L105.195 36.4801V36.4801Z" fill="#468CCA"/>
<path d="M55.8325 82.0829C55.501 82.5 55.5 82.5 55.5 83C54.9609 81.8451 54.6031 81.4669 53.3818 81.7096C52.0431 81.9762 50.9445 82.6856 50.0111 83.6696C49.8129 83.8806 49.5975 84.0764 49.3856 84.2745C49.2999 84.3545 49.1526 84.3451 49.1361 84.229C49.1092 84.0388 49.2529 83.8688 49.3151 83.6882C49.8565 81.9549 51.0191 80.7176 52.4965 79.7362C52.8298 79.5149 53.1871 79.3362 53.5791 79.2429C55.2911 78.8322 56.2298 79.6722 55.9951 81.4082C55.9631 81.6349 55.9365 81.8696 55.8351 82.0829" fill="#428AC9"/>
<path d="M55.8324 82.0831C55.8378 81.8191 55.8484 81.5551 55.8511 81.2911C55.8804 79.5471 54.8911 78.8831 53.2724 79.6244C51.4058 80.4777 50.0459 82.3973 49.2272 84.2293C49.0379 84.264 48.9392 84.2107 49.0006 84C49.5899 81.8213 50.9071 79.6271 52.7951 78.3444C53.2671 78.0244 53.7951 77.8351 54.3551 77.7364C55.2644 77.5791 56.1364 78.0751 56.3338 78.9657C56.5764 80.0511 56.4564 81.1177 55.8351 82.0831" fill="#182144"/>
<path d="M71.2351 67.0429C70.8991 66.7709 71.1951 66.6722 71.3738 66.5469C71.9365 66.1549 72.2458 65.4535 72.9551 65.2349C73.8618 66.6669 75.3125 67.3015 76.8191 67.8375C77.1231 67.9469 77.4405 68.0162 77.9365 68.1549C75.6111 68.7602 73.6085 68.5255 71.7631 67.2669C71.5951 67.1522 71.4538 67.0215 71.2351 67.0429" fill="#458CCA"/>
<path d="M153.659 70.9949C152.926 70.9069 152.366 70.4056 151.702 70.1603C151.446 70.0643 151.198 69.7229 150.923 69.9469C150.694 70.1336 151.067 70.4136 150.987 70.6696C150.579 70.3123 150.438 69.8003 150.225 69.2803C151.414 69.7736 152.601 70.2536 153.659 70.9949Z" fill="#63657D"/>
<path d="M170.004 82.2429C170.223 82.1069 170.017 81.9416 170.036 81.7896C170.423 82.0002 170.809 82.2082 171.193 82.4189C171.372 82.6482 171.553 82.8802 171.817 83.2189C171.057 83.0162 170.543 82.6029 170.004 82.2429" fill="#263154"/>
<path d="M124.051 66.4694C124.621 66.4241 125.045 66.4054 125.645 66.5894C125.027 66.9254 124.6 66.8801 124.051 66.4694Z" fill="#A09AA9"/>
<path d="M47.416 159.03C48.04 159.142 48.32 159.744 48.832 160.019C48.824 160.099 48.816 160.176 48.808 160.256C48.256 159.95 47.768 159.568 47.4187 159.03" fill="#424A7F"/>
<path d="M174.445 120.819C174.565 120.886 174.683 120.952 174.803 121.019C174.853 121.422 174.683 121.752 174.445 122.243V120.819Z" fill="#8CB7DE"/>
<path d="M124.001 36.2109C124.137 36.5176 124.441 36.3923 124.668 36.4723C124.321 36.6056 123.975 36.7389 123.599 36.8856C123.516 36.4616 123.804 36.3683 124.001 36.2109Z" fill="#5A5D76"/>
<path d="M98.8405 52.4619C98.7818 52.2965 98.8058 52.0885 98.5898 52.0112C98.6538 51.8565 98.8245 51.6405 98.9072 51.7179C99.1472 51.9499 99.0458 52.2272 98.8405 52.4619Z" fill="#555A73"/>
<path d="M31.4141 84.2294C31.6701 82.7868 31.9794 81.3601 32.6114 80.0268C34.9661 78.3868 37.0354 76.3975 39.2221 74.5575C43.0167 71.3655 46.7901 68.1441 50.5634 64.9228C54.0061 61.9815 57.4541 59.0481 60.9074 56.1201C64.6407 52.9575 68.3634 49.7815 72.0941 46.6108C75.4941 43.7228 78.8994 40.8428 82.2834 37.9361C84.6567 35.8988 87.0807 33.9201 89.4167 31.8348C90.6621 31.5175 91.9314 31.4081 93.2141 31.4295C93.3394 31.3175 93.4781 31.3308 93.6247 31.3815C93.9101 31.8641 93.5474 32.1388 93.2541 32.3868C90.0274 35.1148 86.8194 37.8641 83.6034 40.6028C80.1847 43.5148 76.7607 46.4188 73.3447 49.3335C70.1821 52.0321 67.0141 54.7255 63.8407 57.4108C59.9821 60.6775 56.1341 63.9575 52.2781 67.2268C47.4834 71.2935 42.7101 75.3841 37.9047 79.4401C36.0487 81.0055 34.2221 82.6054 32.3394 84.1388C32.1047 84.3281 31.7874 84.9308 31.4141 84.2294" fill="#6D9CD2"/>
<path d="M89.4167 31.8352C89.0807 32.9605 87.9953 33.3792 87.2247 34.0645C84.6993 36.3099 82.0887 38.4619 79.5047 40.6432C76.6167 43.0805 73.7127 45.4965 70.8353 47.9445C68.334 50.0725 65.87 52.2405 63.3713 54.3712C60.95 56.4352 58.4967 58.4618 56.07 60.5205C53.6433 62.5792 51.2407 64.6672 48.814 66.7312C46.39 68.7925 43.9473 70.8298 41.5207 72.8885C39.5233 74.5845 37.542 76.2992 35.55 77.9978C34.742 78.6858 33.9207 79.3579 33.1073 80.0379C32.934 80.1845 32.7713 80.2565 32.6113 80.0272C32.9153 78.6379 33.3553 77.2939 34.0113 76.0272C35.8513 74.8699 37.39 73.3339 39.0407 71.9419C42.8327 68.7445 46.6087 65.5285 50.3767 62.3072C54.2727 58.9765 58.182 55.6592 62.086 52.3365C65.3073 49.5978 68.526 46.8565 71.7553 44.1259C75.95 40.5792 80.11 36.9899 84.3207 33.4645C84.5953 33.2352 84.8967 33.0059 85.0087 32.6299C86.4247 32.0779 87.9473 32.1152 89.4113 31.8325" fill="#729FD4"/>
<path d="M85.0131 32.6294C85.6345 32.7921 85.1278 33.0187 85.0078 33.1227C83.8718 34.1414 82.7305 35.1494 81.5678 36.1387C79.5491 37.8534 77.5145 39.5494 75.4905 41.2587C72.5278 43.7574 69.5651 46.2507 66.6131 48.7601C64.1918 50.8214 61.7918 52.9094 59.3705 54.9734C56.8745 57.0987 54.3598 59.2001 51.8611 61.3254C49.4398 63.3867 47.0371 65.4694 44.6131 67.5307C42.1918 69.5894 39.7571 71.6321 37.3251 73.6801C36.4398 74.4267 35.5571 75.1787 34.6585 75.9121C34.4825 76.0561 34.2905 76.3814 34.0078 76.0267C34.2825 74.6534 34.9998 73.4641 35.6051 72.2294C38.8931 69.4187 42.1998 66.6241 45.4878 63.8134C48.8798 60.9174 52.2798 58.0321 55.6771 55.1414C58.9225 52.3814 62.1731 49.6267 65.4185 46.8667C68.8425 43.9574 72.2611 41.0401 75.6905 38.1387C77.4665 36.6347 79.1838 35.0614 81.0105 33.6214C82.2798 33.0321 83.6531 32.8641 85.0078 32.6321" fill="#78A2D5"/>
<path d="M81.0154 33.6191C79.7461 35.2698 78.0234 36.4325 76.4821 37.7845C74.4661 39.5551 72.3968 41.2671 70.3461 43.0005C68.3488 44.6911 66.3434 46.3738 64.3461 48.0698C62.3514 49.7658 60.3674 51.4778 58.3728 53.1738C56.3514 54.8885 54.3168 56.5871 52.2954 58.3045C50.3248 59.9791 48.3701 61.6725 46.3994 63.3471C43.9008 65.4725 41.3941 67.5871 38.8874 69.7045C38.0021 70.4538 37.1114 71.1978 36.2261 71.9445C36.0448 72.0965 35.8634 72.2405 35.6074 72.2298C36.2341 70.5418 37.0608 68.9551 38.0101 67.4298C42.5754 63.7178 47.0154 59.8565 51.4928 56.0431C56.6821 51.6245 61.8928 47.2351 67.0528 42.7818C69.9701 40.2618 72.9994 37.8751 75.8128 35.2325C77.4954 34.5338 79.2314 34.0058 81.0128 33.6218" fill="#7DA5D6"/>
<path d="M75.8156 35.2297C76.0156 35.587 75.6583 35.6937 75.501 35.8324C73.2823 37.7764 71.0583 39.7097 68.821 41.6271C66.861 43.3071 64.8823 44.971 62.9116 46.6377C60.461 48.7124 58.005 50.7844 55.557 52.8617C53.5623 54.555 51.581 56.2644 49.5863 57.9577C47.0876 60.0804 44.581 62.1897 42.0796 64.3097C41.0423 65.1871 40.0156 66.0751 38.9863 66.9604C38.7036 67.2057 38.397 67.3924 38.0156 67.4271C39.237 64.9391 40.741 62.6297 42.421 60.4297C43.9676 59.2884 45.381 57.9844 46.8476 56.7444C50.6503 53.523 54.445 50.2937 58.237 47.0617C61.1703 44.563 64.109 42.0697 67.0343 39.5577C67.485 39.171 68.0556 38.9231 68.4023 38.4137C70.7276 37.0057 73.2823 36.1391 75.821 35.2271" fill="#81A7D8"/>
<path d="M31.4136 84.2295C32.2109 84.5175 32.4936 83.7202 32.8882 83.3922C36.9442 80.0349 40.9469 76.6082 44.9496 73.1895C48.7282 69.9629 52.4829 66.7069 56.2696 63.4882C60.4856 59.9069 64.7336 56.3682 68.9496 52.7869C72.7362 49.5682 76.4909 46.3149 80.2696 43.0855C84.3469 39.5975 88.4322 36.1175 92.5202 32.6402C92.9389 32.2829 93.5389 32.0989 93.6162 31.4349C93.8456 31.2162 94.1869 31.4562 94.4136 31.2402C94.7469 31.2402 95.0829 31.2375 95.4162 31.2349C95.1096 32.2962 94.0776 32.6722 93.3602 33.3175C91.2909 35.1789 89.1362 36.9415 87.0082 38.7389C84.5789 40.7922 82.1389 42.8349 79.7122 44.8935C77.7389 46.5655 75.7842 48.2589 73.8136 49.9335C70.9069 52.3975 67.9869 54.8482 65.0829 57.3149C63.1122 58.9895 61.1602 60.6855 59.1896 62.3602C56.6909 64.4855 54.1762 66.5922 51.6776 68.7175C49.7069 70.3922 47.7549 72.0882 45.7842 73.7655C43.7656 75.4829 41.7282 77.1789 39.7096 78.8989C37.6909 80.6189 35.6882 82.3575 33.6696 84.0802C32.9629 84.6829 32.2322 85.2535 31.5149 85.8402C31.3442 85.9789 31.1816 86.0669 31.0162 85.8349C31.0056 85.2642 31.1362 84.7309 31.4136 84.2322" fill="#699AD1"/>
<path d="M53.0965 51.7045C51.1285 53.3765 49.1712 55.0618 47.2112 56.7418C45.7792 57.9712 44.3472 59.2005 42.9179 60.4298C42.7499 60.5738 42.5899 60.6618 42.4219 60.4325C43.4432 58.7978 44.6779 57.3178 45.9259 55.8672C50.6325 50.4032 55.9792 45.6565 62.1205 41.8432C64.1472 40.5845 66.1552 39.2832 68.4005 38.4165" fill="#88ABD9"/>
<path d="M68.398 38.4165C68.23 39.3632 67.3074 39.6112 66.7207 40.1392Z" fill="#88ABD9"/>
<path d="M103.02 31.2323C102.356 31.1443 101.652 31.4376 101.02 31.0349C101.684 31.1203 102.388 30.8269 103.02 31.2323Z" fill="#5591CD"/>
<path d="M118.013 124.437C116 126.08 114.027 127.781 111.336 128.92C112.147 127.189 112.741 125.659 113.107 124.056C114.683 117.12 113.221 110.813 109.139 105.059C108.131 103.64 106.776 102.544 105.576 101.301C105.384 101.101 105.171 100.851 104.821 101.019C104.461 100.843 104.285 100.485 104.029 100.208C104.203 99.9868 104.384 100.109 104.555 100.208C109.389 102.949 113.419 106.507 115.88 111.589C117.101 114.109 117.811 116.773 118.061 119.592C118.205 121.227 118.211 122.824 118.016 124.437" fill="#0E1F66"/>
<path d="M94.4129 31.2373C94.1996 31.5226 93.8902 31.4026 93.6156 31.4319C93.4822 31.4319 93.3462 31.4319 93.2129 31.4293C93.5676 31.0799 94.0102 31.2879 94.4129 31.2373Z" fill="#689AD1"/>
<path d="M75.2148 170.432C81.8042 170.736 88.1828 169.683 94.3642 167.416C100.338 165.224 105.844 162.184 110.794 158.171C115.618 154.256 119.77 149.763 122.543 144.144C124.034 141.12 124.959 137.939 125.268 134.533C125.543 131.517 125.034 128.672 124.215 125.829C124.306 125.133 124.94 124.816 125.311 124.328C126.746 122.445 127.804 120.413 128.242 118.072C128.287 117.829 128.407 117.6 128.567 117.157C129.508 119.104 130.223 120.904 130.706 122.8C131.407 125.549 131.802 128.347 131.594 131.173C131.226 136.136 129.783 140.771 127.314 145.125C124.871 149.432 121.719 153.136 118.084 156.427C114.906 159.304 111.375 161.725 107.586 163.771C102.999 166.248 98.1855 168.101 93.1162 169.293C89.9535 170.037 86.7562 170.496 83.5028 170.68C81.9428 170.768 80.3802 170.904 78.8282 170.803C77.6255 170.725 76.3908 170.805 75.2148 170.437" fill="#0E1F66"/>
</svg>
