<svg width="200" height="200" viewBox="0 0 200 200" fill="none" xmlns="http://www.w3.org/2000/svg">
<path d="M100 200C155.228 200 200 155.228 200 100C200 44.7715 155.228 0 100 0C44.7715 0 0 44.7715 0 100C0 155.228 44.7715 200 100 200Z" fill="#3F75FF"/>
<path d="M106.542 158.971C103.217 159.316 100.5 156.537 100.5 153.15V136.796C100.5 133.409 103.235 130.728 106.513 130.058C120.344 127.232 130.759 114.848 130.759 99.9998C130.759 85.1515 120.344 72.7678 106.513 69.942C103.235 69.2722 100.5 66.5906 100.5 63.2033V46.8494C100.5 43.4626 103.217 40.6837 106.542 41.0291C136.012 44.0934 159 69.3261 159 99.9998C159 130.674 136.012 155.907 106.542 158.971Z" fill="white"/>
<path d="M74.627 46.8149C78.3165 44.9683 82.3448 47.9089 82.3448 52.0778V147.922C82.3448 152.091 78.3165 155.031 74.627 153.185C55.2958 143.509 42 123.328 42 99.9998C42 76.6716 55.2958 56.4907 74.627 46.8149Z" fill="white"/>
</svg>
