<svg width="200" height="200" viewBox="0 0 200 200" fill="none" xmlns="http://www.w3.org/2000/svg">
<path fill-rule="evenodd" clip-rule="evenodd" d="M100 0C155.22 0 200 44.78 200 100C200 155.22 155.22 200 100 200C44.78 200 0 155.22 0 100C0 44.78 44.78 0 100 0Z" fill="white"/>
<path fill-rule="evenodd" clip-rule="evenodd" d="M48 40H69.3792L69.9192 84.715L74.4093 80.4082C80.0316 75.0129 87.6632 72.5217 96.1928 73.2961C116.057 75.0995 128.921 95.3706 125.429 119.364C123.961 129.45 121.552 134.986 116.018 140.998C102.1 152.563 85.1608 152.563 73.6531 143.414L68.8764 138.472V149.038H48V40ZM88.5 135C98.7173 135 107 124.703 107 112C107 99.2975 98.7173 89 88.5 89C78.2827 89 70 99.2975 70 112C70 124.703 78.2827 135 88.5 135Z" fill="black"/>
<circle cx="144.954" cy="135" r="14" fill="#158EF9"/>
</svg>
