<svg width="200" height="200" viewBox="0 0 200 200" fill="none" xmlns="http://www.w3.org/2000/svg">
<path d="M100 200C155.228 200 200 155.228 200 100C200 44.7715 155.228 0 100 0C44.7715 0 0 44.7715 0 100C0 155.228 44.7715 200 100 200Z" fill="#3770F6"/>
<path d="M92.6869 61.7746C95.0235 46.0048 95.8889 42.2131 97.9659 40.2311C99.7832 38.4215 101.428 38.5938 102.899 40.8344C104.456 43.4196 104.716 44.5398 107.226 61.7746C109.822 79.6126 112.332 87.713 117.611 95.7272C122.37 102.793 128.515 108.567 142.534 119.167C152.4 126.664 155.862 130.541 154.823 133.127C153.525 136.487 149.717 135.712 132.236 128.473C115.88 121.666 106.966 119.597 97.3601 120.201C88.7926 120.804 82.4751 122.613 65.2535 129.507C52.4455 134.678 47.4262 135.626 45.5223 133.385C43.6184 131.145 46.8204 127.181 56.9456 119.425C84.5521 98.0539 88.2733 92.0217 92.6869 61.7746Z" fill="white"/>
<path d="M54.1763 93.2283C42.6664 87.3685 41.801 72.5466 52.6186 66.0835C63.0034 59.9652 75.7249 67.29 75.7249 79.3543C75.7249 86.2482 72.5229 90.9016 66.0324 93.6592C61.7053 95.3827 58.1572 95.2965 54.1763 93.2283Z" fill="white"/>
<path d="M133.274 65.1355C120.38 71.0815 121.505 89.695 135.092 94.0899C141.496 96.2443 148.592 93.4867 152.833 87.3684C154.39 85.0417 154.909 83.232 154.823 79.5265C154.823 70.5644 149.457 64.7046 140.803 64.1876C137.861 64.0152 134.832 64.3599 133.274 65.1355Z" fill="white"/>
<path d="M86.0232 140.193C87.7541 136.488 89.4849 134.678 93.4657 132.61C99.437 129.421 108.091 131.748 112.678 137.78C114.755 140.452 115.101 141.658 115.101 146.656C115.101 151.654 114.755 152.774 112.591 155.618C111.207 157.514 108.351 159.668 106.187 160.616C93.2061 166.39 80.0519 153.033 86.0232 140.193Z" fill="white"/>
</svg>
