<svg width="200" height="200" viewBox="0 0 200 200" fill="none" xmlns="http://www.w3.org/2000/svg">
<path d="M100 200C155.228 200 200 155.228 200 100C200 44.7715 155.228 0 100 0C44.7715 0 0 44.7715 0 100C0 155.228 44.7715 200 100 200Z" fill="#8247E5"/>
<path d="M132.405 78.9258C130.102 77.6083 127.141 77.6083 124.509 78.9258L106.086 89.7952L93.5849 96.7122L75.4909 107.582C73.188 108.899 70.2272 108.899 67.5953 107.582L53.4491 99.0178C51.1462 97.7003 49.5013 95.0653 49.5013 92.1009V75.632C49.5013 72.997 50.8172 70.362 53.4491 68.7151L67.5953 60.4807C69.8982 59.1632 72.859 59.1632 75.4909 60.4807L89.6371 69.0445C91.9399 70.362 93.5849 72.997 93.5849 75.9614V86.8309L106.086 79.5846V68.3858C106.086 65.7507 104.77 63.1157 102.138 61.4688L75.8198 45.9881C73.517 44.6706 70.5561 44.6706 67.9243 45.9881L40.9478 61.7982C38.3159 63.1157 37 65.7507 37 68.3858V99.3472C37 101.982 38.3159 104.617 40.9478 106.264L67.5953 121.745C69.8982 123.062 72.859 123.062 75.4909 121.745L93.5849 111.205L106.086 103.958L124.18 93.4184C126.483 92.1009 129.444 92.1009 132.076 93.4184L146.222 101.653C148.525 102.97 150.17 105.605 150.17 108.57V125.039C150.17 127.674 148.854 130.309 146.222 131.955L132.405 140.19C130.102 141.507 127.141 141.507 124.509 140.19L110.363 131.955C108.06 130.638 106.415 128.003 106.415 125.039V114.499L93.9138 121.745V132.614C93.9138 135.249 95.2298 137.884 97.8616 139.531L124.509 155.012C126.812 156.329 129.773 156.329 132.405 155.012L159.052 139.531C161.355 138.214 163 135.579 163 132.614V101.323C163 98.6884 161.684 96.0534 159.052 94.4065L132.405 78.9258Z" fill="white"/>
</svg>
