<svg width="200" height="200" viewBox="0 0 200 200" fill="none" xmlns="http://www.w3.org/2000/svg">
<path d="M100 200C155.228 200 200 155.228 200 100C200 44.7715 155.228 0 100 0C44.7715 0 0 44.7715 0 100C0 155.228 44.7715 200 100 200Z" fill="#00A3FF"/>
<path d="M69.4512 94.521L68.5845 95.8506C58.8099 110.845 60.9929 130.482 73.8329 143.063C81.3866 150.464 91.2866 154.165 101.187 154.166C101.187 154.166 101.187 154.166 69.4512 94.521Z" fill="#F2F5FF"/>
<path opacity="0.6" d="M101.178 112.649L69.4419 94.521C101.178 154.166 101.178 154.166 101.178 154.166C101.178 141.176 101.178 126.291 101.178 112.649Z" fill="#F2F5FF"/>
<path opacity="0.6" d="M132.958 94.521L133.825 95.8506C143.599 110.845 141.416 130.482 128.576 143.063C121.023 150.464 111.123 154.165 101.223 154.166C101.223 154.166 101.223 154.166 132.958 94.521Z" fill="#F2F5FF"/>
<path opacity="0.2" d="M101.219 112.649L132.955 94.521C101.219 154.166 101.219 154.166 101.219 154.166C101.219 141.176 101.219 126.291 101.219 112.649Z" fill="#F2F5FF"/>
<path opacity="0.2" d="M101.229 72.1516V103.417L128.566 87.7945L101.229 72.1516Z" fill="#F2F5FF"/>
<path opacity="0.6" d="M101.221 72.1516L73.8647 87.7941L101.221 103.417V72.1516Z" fill="#F2F5FF"/>
<path d="M101.221 45.8577L73.8647 87.8039L101.221 72.1177V45.8577Z" fill="#F2F5FF"/>
<path opacity="0.6" d="M101.229 72.1137L128.587 87.8003L101.229 45.8333V72.1137Z" fill="#F2F5FF"/>
</svg>
