<svg width="200" height="200" viewBox="0 0 200 200" fill="none" xmlns="http://www.w3.org/2000/svg">
<path d="M100 200C155.228 200 200 155.228 200 100C200 44.7715 155.228 0 100 0C44.7715 0 0 44.7715 0 100C0 155.228 44.7715 200 100 200Z" fill="url(#paint0_linear_1854_40278)"/>
<path d="M143.587 139.45L109.967 58.2464C108.07 54.048 105.252 52 101.536 52H98.5634C94.8477 52 92.029 54.048 90.1327 58.2464L75.5007 93.6256H64.4307C61.125 93.6512 58.4344 96.3136 58.4088 99.6416V99.7184C58.4344 103.021 61.125 105.709 64.4307 105.734H70.3757L56.41 139.45C56.1538 140.192 56 140.96 56 141.754C56 143.648 56.5894 145.133 57.64 146.285C58.6906 147.437 60.2025 148 62.0988 148C63.3544 147.974 64.5588 147.59 65.5582 146.848C66.6344 146.106 67.3776 145.03 67.967 143.802L83.342 105.709H94.0021C97.3078 105.683 99.9984 103.021 100.024 99.6928V99.5392C99.9984 96.2368 97.3078 93.5488 94.0021 93.5232H88.3133L100.05 64.3136L132.03 143.776C132.619 145.005 133.362 146.08 134.439 146.822C135.438 147.565 136.668 147.949 137.898 147.974C139.794 147.974 141.281 147.411 142.357 146.259C143.433 145.107 143.997 143.622 143.997 141.728C144.022 140.96 143.894 140.166 143.587 139.45Z" fill="white"/>
<defs>
<linearGradient id="paint0_linear_1854_40278" x1="174.559" y1="37.2645" x2="25.7586" y2="162.465" gradientUnits="userSpaceOnUse">
<stop stop-color="#B6509E"/>
<stop offset="1" stop-color="#2EBAC6"/>
</linearGradient>
</defs>
</svg>
