<svg width="200" height="200" viewBox="0 0 200 200" fill="none" xmlns="http://www.w3.org/2000/svg">
<circle cx="100" cy="100" r="100" fill="#6F41E8"/>
<path fill-rule="evenodd" clip-rule="evenodd" d="M115.948 99.7236V100.277C115.948 108.216 122.385 114.711 130.253 114.711H138.111C141.363 114.711 144 117.371 144 120.652V145H119.47C116.217 145 113.58 142.34 113.58 139.058V129.054C113.58 121.116 107.143 114.62 99.2759 114.62H98.726C90.8588 114.62 84.4216 121.116 84.4216 129.054V145H57V55H84.4216V71.1405C84.4216 79.0796 90.8588 85.5738 98.727 85.5738H99.2759C107.143 85.5738 113.58 79.0796 113.58 71.1405V60.9424C113.58 57.6603 116.217 55 119.47 55H144V79.3479C144 82.63 141.363 85.2903 138.111 85.2903H130.253C122.385 85.2903 115.948 91.7855 115.948 99.7236Z" fill="#FEFEFE"/>
</svg>
