<svg width="200" height="200" viewBox="0 0 200 200" fill="none" xmlns="http://www.w3.org/2000/svg">
<path d="M100 200C155.228 200 200 155.228 200 100C200 44.7715 155.228 0 100 0C44.7715 0 0 44.7715 0 100C0 155.228 44.7715 200 100 200Z" fill="black"/>
<path fill-rule="evenodd" clip-rule="evenodd" d="M70.7369 59.0869L71.7661 59.8545C89.0048 71.8811 111.904 71.8811 129.143 59.8545C143.294 49.8751 161.304 65.9958 152.814 80.837L123.225 131.758C112.933 149.414 87.461 149.414 77.1693 131.758L47.3231 80.3253C38.5751 65.2281 56.3284 49.1074 70.7369 59.0869Z" fill="#F9E47A"/>
</svg>
