<svg width="200" height="200" viewBox="0 0 200 200" fill="none" xmlns="http://www.w3.org/2000/svg">
<path d="M100 200C155.228 200 200 155.228 200 100C200 44.7715 155.228 0 100 0C44.7715 0 0 44.7715 0 100C0 155.228 44.7715 200 100 200Z" fill="#245AE5"/>
<path fill-rule="evenodd" clip-rule="evenodd" d="M107.191 45.68L143.426 64.44C148.681 67.24 152 72.56 152 78.72V87.4H138.723V78.72C138.723 77.88 138.17 77.04 137.34 76.48L101.106 57.72C100.553 57.44 99.7234 57.44 98.8936 57.72L62.6596 76.48C61.8298 76.76 61.2766 77.6 61.2766 78.72V87.4H48V78.72C48 72.84 51.3191 67.24 56.5745 64.44L92.8085 45.68C97.234 43.44 102.489 43.44 107.191 45.68ZM111.34 99.44C111.34 93 106.085 87.96 100 87.96C93.6383 87.96 88.6596 93 88.6596 99.44C88.6596 105.88 93.9149 110.92 100 110.92C106.085 110.92 111.34 105.88 111.34 99.44ZM137.064 123.52C137.894 123.24 138.447 122.4 138.447 121.28V112.6H151.723V121.28C151.723 127.16 148.404 132.76 143.149 135.56L106.915 154.32C104.702 155.44 102.213 156 99.7234 156C97.234 156 94.7447 155.44 92.5319 154.32L56.5745 135.56C51.3191 132.76 48 127.44 48 121.28V112.6H61.2766V121.28C61.2766 122.12 61.8298 122.96 62.6596 123.52L93.3617 139.2V123.52C82.8511 120.44 75.383 110.92 75.383 99.44C75.383 85.72 86.4468 74.24 100.277 74.24C113.83 74.24 125.17 85.44 125.17 99.44C125.17 110.92 117.426 120.72 107.191 123.52V139.2L137.064 123.52Z" fill="white"/>
</svg>
