<svg width="200" height="200" viewBox="0 0 200 200" fill="none" xmlns="http://www.w3.org/2000/svg">
<path fill-rule="evenodd" clip-rule="evenodd" d="M100 0C155.22 0 200 44.78 200 100C200 155.22 155.22 200 100 200C44.78 200 0 155.22 0 100C0 44.78 44.78 0 100 0Z" fill="url(#paint0_radial_2234_49662)"/>
<path fill-rule="evenodd" clip-rule="evenodd" d="M33.0045 56.5722C32.8103 56.887 38.9679 67.5792 46.6878 80.3318C54.4077 93.0851 62.8945 107.156 65.5476 111.601L70.3713 119.682L70.5557 113.391L70.7402 107.1L58.0374 86.2417C51.0509 74.7698 45.201 64.8729 45.0378 64.2477C44.774 63.2352 45.2932 63.1117 49.8208 63.1117H54.8999L56.5847 65.8594C67.0325 82.8914 74.675 95.1611 75.1065 95.5936C75.3981 95.8858 76.5076 94.7201 77.5719 93.0036L79.5077 89.8822L68.8947 72.9414L58.2825 56H45.8196C38.9653 56 33.1986 56.2573 33.0045 56.5722ZM71.3388 56.6252C71.3388 56.9691 75.1343 63.5507 79.7741 71.2508L88.2087 85.2505L86.2019 87.5961C73.6848 102.23 71.2124 119.995 79.3825 136.587C85.386 148.778 95.657 156.443 109.693 159.207C114.514 160.156 116.152 160.215 120.442 159.587C134.372 157.553 145.09 150.487 151.967 138.805C156.391 131.292 156.778 132.007 145.235 126.381L135.205 121.492L133.685 124.819C130.229 132.386 124.038 136.505 116.169 136.474C110.712 136.453 106.807 134.866 103.123 131.174C97.6586 125.697 95.8092 117.705 98.4081 110.805C99.1764 108.767 100.056 106.944 100.363 106.753C100.671 106.563 104.177 111.867 108.155 118.54C112.133 125.213 115.6 130.912 115.859 131.205C116.117 131.498 119.768 126.043 123.972 119.083C128.176 112.123 131.802 106.429 132.03 106.429C132.259 106.429 133.045 107.874 133.778 109.64L135.109 112.851L141.885 109.672C152.327 104.773 155.195 103.231 155.195 102.517C155.195 100.497 149.799 91.6647 146.186 87.7687C145.077 86.5733 144.255 85.4044 144.36 85.171C144.466 84.9383 148.252 78.5978 152.776 71.0827C157.299 63.5669 161 57.0984 161 56.7086C161 56.2185 157.065 56 148.246 56H135.492L128.239 67.993C124.25 74.5888 120.918 80.284 120.835 80.6492C120.752 81.0145 122.862 81.9572 125.523 82.7446C128.183 83.5327 131.812 85.023 133.586 86.0567C137.18 88.1521 143.922 94.7402 145.721 97.9152L146.892 99.9802L142.537 101.939C138.516 103.747 138.134 103.811 137.556 102.774C135.096 98.3697 127.427 92.9053 122.297 91.9032C121.056 91.6608 119.568 91.3304 118.992 91.1694C118.415 91.0085 113.222 83.0291 107.45 73.4386L96.9568 56H84.1481C76.3263 56 71.3388 56.2437 71.3388 56.6252ZM94.3843 64.8354C95.0132 65.7838 99.7595 73.566 104.931 82.1298L114.336 97.7006L118.155 98.0782C121.228 98.382 125.352 99.7759 126.717 100.973C126.841 101.083 124.559 105.143 121.644 109.998C118.73 114.852 116.12 118.581 115.844 118.283C115.188 117.575 82.9496 63.7957 82.9496 63.4085C82.9496 63.2456 85.2653 63.1117 88.0951 63.1117C92.953 63.1117 93.3045 63.2081 94.3843 64.8354ZM149.389 63.5009C149.389 64.3518 138.92 81.2667 138.525 81.0553C138.292 80.9311 136.432 80.0215 134.392 79.0349C132.352 78.0477 130.683 77.1264 130.683 76.9874C130.683 76.6441 137.753 64.9343 138.573 63.9199C139.235 63.1007 149.389 62.7077 149.389 63.5009ZM94.7081 95.9634C96.7484 99.3958 96.869 99.8638 96.0085 100.987C95.4861 101.669 94.1998 104.032 93.1497 106.239C89.6516 113.589 90.1032 123.543 94.2566 130.647C96.5555 134.579 101.688 139.186 106.031 141.216C109.249 142.72 110.543 142.941 116.181 142.949C122.193 142.956 122.942 142.809 126.961 140.827C130.002 139.327 132.383 137.484 135.01 134.594L138.74 130.491L142.613 132.437C144.744 133.507 146.587 134.473 146.71 134.583C147.244 135.064 142.717 140.76 139.246 143.976C125.564 156.65 104.975 155.963 91.6558 142.389C80.5178 131.037 78.017 114.8 85.2124 100.554C86.7999 97.4103 91.39 91.516 91.9699 91.8754C92.2383 92.0416 93.4709 93.8816 94.7081 95.9634Z" fill="white"/>
<defs>
<radialGradient id="paint0_radial_2234_49662" cx="0" cy="0" r="1" gradientUnits="userSpaceOnUse" gradientTransform="translate(100 100) rotate(90) scale(100)">
<stop stop-color="#3F6EB6"/>
<stop offset="1" stop-color="#1D5AB7"/>
</radialGradient>
</defs>
</svg>
