<svg width="200" height="200" viewBox="0 0 200 200" fill="none" xmlns="http://www.w3.org/2000/svg">
<path d="M100 200C155.228 200 200 155.228 200 100C200 44.7715 155.228 0 100 0C44.7715 0 0 44.7715 0 100C0 155.228 44.7715 200 100 200Z" fill="#0E0F24"/>
<path d="M64.9995 51.5015L158 115.001L135 149.001L41.9995 85.0015L64.9995 51.5015Z" fill="url(#paint0_linear_1854_43923)"/>
<path d="M157.999 115.001C149.999 126.501 122.999 122.001 97.4992 104.001C71.4992 86.5011 57.4992 63.0011 64.9992 51.5011C72.9992 40.0011 99.9992 44.5011 125.499 62.5011C151.499 79.5011 165.499 103.501 157.999 115.001Z" fill="url(#paint1_linear_1854_43923)"/>
<path d="M134.999 148.502C126.999 160.002 99.9994 155.502 74.4994 137.502C48.9994 119.502 34.4994 96.5016 42.4994 84.5016C50.4994 73.0016 77.4994 77.5016 102.999 95.5016C128.499 113.502 142.499 137.002 134.999 148.502Z" fill="url(#paint2_linear_1854_43923)"/>
<path d="M157.999 115.001L134.999 149.001C126.999 160.501 99.9993 155.501 74.4993 138.001C69.4993 134.501 64.9993 131.001 60.4993 127.001C63.9993 126.501 68.4993 124.501 72.9993 119.501C80.9993 111.001 84.9993 109.001 88.4993 109.501C91.9993 109.501 95.9993 113.001 102.499 121.501C108.999 130.001 117.999 132.501 123.499 128.001C123.999 127.501 124.499 127.501 124.999 127.001C129.499 123.501 130.999 122.001 139.499 106.001C141.499 102.001 148.499 95.5011 157.999 98.5011C160.499 105.001 160.499 110.501 157.999 115.001Z" fill="#0E0F23"/>
<path fill-rule="evenodd" clip-rule="evenodd" d="M154.499 113C147.499 123 122.999 118 99.4989 101.5C75.4989 85.0001 61.4989 64.0001 68.4989 54.0001C75.4989 44.0001 99.9989 49.0001 123.499 65.5001C146.999 82.0001 160.999 103 154.499 113ZM132.499 98.0001C128.999 103 116.999 100.5 104.999 92.5001C93.4989 84.5001 86.4989 74.0001 89.9989 69.0001C93.4989 64.0001 105.499 66.5001 117.499 74.5001C128.999 82.5001 135.999 93.0001 132.499 98.0001Z" fill="white"/>
<path d="M62.9998 63.002C62.9998 62.502 62.4998 62.002 61.9998 62.502C61.4998 63.002 60.9998 63.002 60.9998 63.502C61.4998 65.002 61.9998 66.002 61.9998 67.002C61.9998 67.502 62.4998 68.002 62.9998 67.502C63.4998 67.502 63.9998 67.002 63.4998 66.502C63.4998 65.502 63.4998 64.502 62.9998 63.002Z" fill="white"/>
<path d="M65.499 71.0001C65.499 70.5001 64.999 70.0001 64.499 70.5001C63.999 71.0001 63.999 71.0001 63.999 71.5001C69.499 84.0001 80.999 97.5001 95.999 107.5C96.499 108 96.999 107.5 97.499 107.5C97.999 107 97.499 106.5 97.499 106C81.999 96.0001 70.999 83.0001 65.499 71.0001Z" fill="white"/>
<path d="M126 120C125.5 120 125 120 125 120.5C125 121 125 121.5 125.5 121.5C127 122 129 122.5 130.5 123C131 123 131.5 123 131.5 122.5C131.5 122 131.5 121.5 131 121.5C129.5 121 127.5 120.5 126 120Z" fill="white"/>
<path d="M134.999 122.002C134.499 122.002 133.999 122.502 133.999 123.002C133.999 123.502 134.499 124.002 134.999 124.002C138.999 124.502 143.499 125.002 146.999 124.502C147.499 124.502 147.999 124.002 147.999 123.502C147.999 123.002 147.499 122.502 146.999 122.502C142.999 123.002 138.999 122.502 134.999 122.002Z" fill="white"/>
<path d="M159.648 116.133L159.661 116.114L159.674 116.094C161.896 112.686 162.434 108.487 161.716 104.02C160.999 99.5584 159.017 94.7035 156.021 89.7748C150.031 79.9208 139.812 69.4754 126.623 60.8466C113.696 51.7272 100.313 45.967 89.0355 43.9693C77.9358 42.003 68.0707 43.5836 63.3574 50.359L63.3398 50.3842L63.3236 50.4092L63.323 50.41L40.4765 83.9654L40.4397 84.0195L40.4065 84.0758C36.2232 91.1761 38.5882 100.764 44.5252 110.271C50.5521 119.923 60.6451 130.17 73.3461 139.136C86.1558 148.178 99.4144 153.921 110.629 155.973C121.663 157.993 131.489 156.542 136.36 150.034L136.384 150.001L136.407 149.968L159.648 116.133Z" stroke="white" stroke-width="4"/>
<defs>
<linearGradient id="paint0_linear_1854_43923" x1="55.5" y1="30.5" x2="119.416" y2="90.9752" gradientUnits="userSpaceOnUse">
<stop stop-color="#FE9053"/>
<stop offset="1" stop-color="#FEBD59"/>
</linearGradient>
<linearGradient id="paint1_linear_1854_43923" x1="90.8552" y1="14.0858" x2="109.028" y2="77.0992" gradientUnits="userSpaceOnUse">
<stop stop-color="#FE9053"/>
<stop offset="1" stop-color="#FEBD59"/>
</linearGradient>
<linearGradient id="paint2_linear_1854_43923" x1="68.9998" y1="49.5" x2="86.9998" y2="121.5" gradientUnits="userSpaceOnUse">
<stop stop-color="#FE9053"/>
<stop offset="1" stop-color="#FEBD59"/>
</linearGradient>
</defs>
</svg>
