<svg width="200" height="200" viewBox="0 0 200 200" fill="none" xmlns="http://www.w3.org/2000/svg">
<g clip-path="url(#clip0_2223_49023)">
<path fill-rule="evenodd" clip-rule="evenodd" d="M100.005 199.997C155.085 199.997 200.005 155.077 200.005 99.9973C200.005 44.9273 155.085 -0.00268555 100.005 -0.00268555C44.9349 -0.00268555 0.00488448 44.9273 0.00488448 99.9973C-0.00511552 155.077 44.9249 199.997 100.005 199.997Z" fill="black"/>
<path fill-rule="evenodd" clip-rule="evenodd" d="M73.3783 46H88.3297C88.9007 46 89.3576 46.4668 89.3576 47.0373V68.8626C89.3576 69.4435 89.8248 69.8999 90.3959 69.8999H109.594C110.165 69.8999 110.632 69.4435 110.632 68.8626V47.0373C110.632 46.4668 111.089 46 111.67 46H126.611C127.182 46 127.65 46.4668 127.65 47.0373V68.8626C127.65 69.4435 128.106 69.8999 128.688 69.8999H146.962C147.543 69.8999 148 70.3667 148 70.9373V85.8333C148 86.4142 147.543 86.8706 146.962 86.8706H128.688C128.106 86.8706 127.65 87.3374 127.65 87.9079V111.092C127.65 111.663 128.106 112.129 128.688 112.129H146.962C147.543 112.129 148 112.586 148 113.167V128.063C148 128.633 147.543 129.1 146.962 129.1H128.688C128.106 129.1 127.65 129.567 127.65 130.137V151.963C127.65 152.533 127.182 153 126.611 153H111.67C111.089 153 110.632 152.533 110.632 151.963V130.137C110.632 129.556 110.165 129.1 109.594 129.1H90.4062C89.8352 129.1 89.3679 129.567 89.3679 130.137V151.963C89.3679 152.533 88.9111 153 88.34 153H73.3887C72.8177 153 72.3504 152.533 72.3504 151.963V130.137C72.3504 129.556 71.8936 129.1 71.3121 129.1H53.0383C52.4568 129.1 52 128.633 52 128.063V113.167C52 112.586 52.4568 112.129 53.0383 112.129H71.3121C71.8936 112.129 72.3504 111.663 72.3504 111.092V87.9079C72.3504 87.3374 71.8936 86.8706 71.3121 86.8706H53.0383C52.4568 86.8706 52 86.4142 52 85.8333V70.9373C52 70.3667 52.4568 69.8999 53.0383 69.8999H71.3121C71.8936 69.8999 72.3504 69.4435 72.3504 68.8626V47.0373C72.3297 46.4668 72.8073 46 73.3783 46ZM110.642 111.102V87.9079C110.642 87.3374 110.175 86.8706 109.604 86.8706H90.4062C89.8352 86.8706 89.3679 87.3374 89.3679 87.9079V111.092C89.3679 111.663 89.8352 112.129 90.4062 112.129H109.604C110.175 112.14 110.642 111.663 110.642 111.102Z" fill="white"/>
</g>
<defs>
<clipPath id="clip0_2223_49023">
<rect width="200" height="200" fill="white"/>
</clipPath>
</defs>
</svg>
