<svg width="200" height="200" viewBox="0 0 200 200" fill="none" xmlns="http://www.w3.org/2000/svg">
<path d="M100 200C155.228 200 200 155.228 200 100C200 44.7715 155.228 0 100 0C44.7715 0 0 44.7715 0 100C0 155.228 44.7715 200 100 200Z" fill="#050708"/>
<path d="M36.0007 100.498V100.501C35.8621 126.946 55.856 146 78.6754 146C95.1715 146 104.102 135.718 108.71 132.366C112.035 129.945 114.757 127.761 119.141 127.761C126.056 127.761 129.858 132.41 138.636 132.41C153.771 132.41 165 117.908 165 100.418C165 82.9278 153.771 68.5907 138.636 68.5907C129.858 68.5907 126.056 73.2388 119.141 73.2388C114.757 73.2388 112.035 71.0555 108.71 68.6344C104.102 65.2814 95.1715 55 78.6754 55C55.856 55 35.8621 74.0537 36.0007 100.498ZM65.7072 100.5C65.7072 88.4831 75.0418 79.358 85.6603 79.358C92.3928 79.358 96.3084 81.8675 100.239 84.3703C104.633 87.1671 110.489 90.9212 118.551 90.9212C123.529 90.9212 128.335 88.8245 131.925 86.8874C134.401 85.5503 136.325 84.4663 139.237 84.4663C146.175 84.4663 151.325 91.8124 151.325 100.5C151.325 109.188 146.175 116.534 139.237 116.534C136.325 116.534 134.401 115.449 131.925 114.114C128.335 112.176 123.529 110.079 118.551 110.079C110.489 110.079 104.633 113.833 100.239 116.63C96.3084 119.132 92.3928 121.642 85.6603 121.642C75.0418 121.642 65.7072 112.517 65.7072 100.5Z" fill="url(#paint0_linear_1854_43788)"/>
<defs>
<linearGradient id="paint0_linear_1854_43788" x1="36.0005" y1="100.5" x2="165" y2="100.5" gradientUnits="userSpaceOnUse">
<stop stop-color="#31EDA9"/>
<stop offset="0.189558" stop-color="#FFF200"/>
<stop offset="0.248804" stop-color="#FFF200"/>
<stop offset="0.47628" stop-color="#F6029C"/>
<stop offset="0.499148" stop-color="#F6029C"/>
<stop offset="0.702878" stop-color="#197CD8"/>
<stop offset="1" stop-color="#197CD8"/>
</linearGradient>
</defs>
</svg>
