<svg width="200" height="200" viewBox="0 0 200 200" fill="none" xmlns="http://www.w3.org/2000/svg">
<path d="M100 200C155.228 200 200 155.228 200 100C200 44.7715 155.228 0 100 0C44.7715 0 0 44.7715 0 100C0 155.228 44.7715 200 100 200Z" fill="url(#paint0_linear_1854_44019)"/>
<path fill-rule="evenodd" clip-rule="evenodd" d="M95.9163 40.2299C90.5477 40.8464 85.5562 43.2871 81.7821 47.1412C78.9484 49.9368 76.2644 52.807 73.3933 55.6305C71.9562 57.0998 70.5035 58.5287 69.0508 59.9793C67.5981 61.4299 65.9957 62.9706 64.4869 64.4926C62.9781 66.0147 61.7249 67.3503 60.3284 68.7637C58.1462 70.938 55.964 73.1124 53.7819 75.3085C52.1079 77.0325 50.4712 78.8123 48.8159 80.5332C47.8402 81.5613 46.7896 82.5149 45.87 83.5959C42.0748 88.2097 40.0006 93.9909 40 99.9564C40 100.307 40 100.668 40.0218 101.016C40.0994 104.441 41.0018 107.798 42.6529 110.803C43.5928 112.62 44.6813 114.356 45.9074 115.994C46.7179 117.131 47.3071 117.112 48.3733 116.233C48.5769 116.064 48.7676 115.88 48.9437 115.683C49.9943 114.581 51.023 113.481 52.0923 112.381C53.6011 110.803 55.1473 109.229 56.6561 107.632C58.1649 106.035 59.8015 104.277 61.3852 102.628C62.1396 101.82 62.9438 101.075 63.7045 100.279C65.3224 98.5742 66.906 96.816 68.5239 95.1293C70.1418 93.4427 71.7816 91.8647 73.3652 90.2153C74.9488 88.5659 76.8972 86.5468 78.6803 84.7142C80.4635 82.8815 81.9754 81.3408 83.6307 79.6541C85.7848 77.4332 87.8828 75.1594 90.0151 72.9416C91.34 71.5841 92.7022 70.2826 94.0271 68.9438C95.8664 67.1112 97.5778 65.2785 99.3828 63.4458C101.188 61.6131 102.528 60.3831 104.074 58.8051C107.531 55.3261 110.981 51.8264 114.427 48.3061C114.65 48.0875 114.858 47.8551 115.051 47.6103C115.899 46.5448 115.97 46.3087 114.923 45.557C113.324 44.3015 111.611 43.1961 109.807 42.2551C106.619 40.7695 103.142 39.9996 99.6228 40H99.4482C98.2726 40.0002 97.0982 40.0739 95.9318 40.2205L95.9131 40.2019L95.9163 40.2299ZM126.37 62.7997H126.149C124.638 62.8002 123.147 63.1287 121.777 63.7623C120.407 64.3958 119.193 65.3192 118.218 66.4682C118.043 66.6606 117.859 66.8441 117.666 67.018L112.036 72.5191C110.197 74.3549 108.208 76.3522 106.275 78.2781C104.676 79.8715 103.074 81.4309 101.493 83.0275C99.9127 84.6241 98.2169 86.4008 96.5054 88.0689C94.794 89.7369 92.9735 91.4857 91.2059 93.2035L84.9306 99.5091L73.2654 111.136C68.1114 116.292 62.9646 121.438 57.8251 126.574C56.8338 127.546 56.8151 127.673 57.8251 128.717C60.291 131.202 62.7942 133.668 65.1852 136.172C66.6646 137.734 68.6169 138.771 70.7435 139.123C72.7498 139.525 74.8226 139.456 76.7974 138.921C78.277 138.556 79.6426 137.832 80.7721 136.812L86.8821 130.932C88.3161 129.559 89.7719 128.201 91.1872 126.807C94.0209 124.011 96.8172 121.197 99.6509 118.42C101.951 116.165 104.308 113.928 106.643 111.673L116.223 102.37C119.203 99.4532 122.202 96.5209 125.22 93.6042C125.421 93.3063 125.7 93.069 126.027 92.9182C126.354 92.7674 126.716 92.7088 127.074 92.7488C127.432 92.7889 127.772 92.926 128.058 93.1452C128.343 93.3645 128.562 93.6575 128.692 93.9925C130.226 96.2245 131.047 98.8665 131.046 101.572C131.045 102.034 131.021 102.497 130.974 102.957C130.727 105.684 129.598 108.258 127.757 110.291C125.547 112.658 123.193 114.894 120.899 117.168C119.262 118.78 117.588 120.358 115.948 121.989C113.832 124.079 111.752 126.207 109.636 128.298C109.324 128.646 109.031 129.012 108.701 129.341L106.621 131.488C105.063 133.041 103.476 134.55 101.945 136.107C100.415 137.663 98.6564 139.483 97.0198 141.182C96.8733 141.347 96.7081 141.456 96.5616 141.602C94.7192 143.307 93.0265 145.018 91.2776 146.736C90.4515 147.544 89.6597 148.367 88.8492 149.175C87.4526 150.588 86.0155 151.97 84.6719 153.411C83.8458 154.272 83.8458 154.803 84.8215 155.483C86.4235 156.709 88.1288 157.794 89.9184 158.726C94.3701 160.732 99.3035 161.431 104.14 160.742C108.94 160.174 113.444 158.13 117.024 154.893C119.745 152.511 122.177 149.833 124.715 147.267C126.554 145.432 128.396 143.472 130.363 141.583L135.681 136.246C137.302 134.616 138.902 132.982 140.541 131.37C142.181 129.758 144.22 127.832 146.059 126.015C147.898 124.197 149.741 122.349 151.58 120.405C153.047 118.917 154.401 117.323 155.633 115.637C157.928 112.18 159.362 108.227 159.813 104.106C160.062 102.06 160.062 99.9903 159.813 97.9436C159.266 94.3017 157.941 90.819 155.929 87.7303C154.481 85.5449 152.75 83.5603 150.779 81.8285C145.682 76.7871 140.601 71.7084 135.616 66.5551C134.529 65.3496 133.2 64.3853 131.715 63.725C130.23 63.0646 128.623 62.7229 126.996 62.7221H126.928L126.376 62.7966L126.37 62.7997Z" fill="white"/>
<defs>
<linearGradient id="paint0_linear_1854_44019" x1="13.6263" y1="41.959" x2="174.12" y2="151.771" gradientUnits="userSpaceOnUse">
<stop stop-color="#FF3B3B"/>
<stop offset="1" stop-color="#FF9914"/>
</linearGradient>
</defs>
</svg>
