<svg width="200" height="200" viewBox="0 0 200 200" fill="none" xmlns="http://www.w3.org/2000/svg">
<path fill-rule="evenodd" clip-rule="evenodd" d="M100 0C155.22 0 200 44.78 200 100C200 155.22 155.22 200 100 200C44.78 200 0 155.22 0 100C0 44.78 44.78 0 100 0Z" fill="#FF5C00"/>
<path d="M116.282 41.008V37.2603C116.283 36.6621 116.046 36.0881 115.624 35.6643C115.202 35.2405 114.629 35.0016 114.03 35H113.94C101.764 35.5873 90.2497 40.71 81.6614 49.3602C73.0731 58.0103 68.0331 69.5616 67.5331 81.7409C67.5888 83.3249 68.8682 83.7377 69.6207 83.7377H73.4269C74.0063 83.7362 74.5632 83.5125 74.9826 83.1127C75.402 82.7128 75.6521 82.1674 75.6813 81.5886C76.2128 71.5529 80.4419 62.0695 87.5526 54.9678C94.6634 47.8661 104.152 43.6493 114.188 43.1308C115.775 42.9287 116.282 42.0621 116.282 41.008ZM82.026 83.7553H85.6536C86.2225 83.7514 86.7689 83.5326 87.1832 83.1427C87.5975 82.7528 87.8491 82.2207 87.8875 81.653C88.3945 74.8161 91.3517 68.3917 96.2158 63.5604C101.08 58.7291 107.524 55.8154 114.364 55.3547C114.902 55.3193 115.404 55.0736 115.761 54.6709C116.119 54.2681 116.304 53.7407 116.276 53.2027V49.4784C116.274 48.8779 116.035 48.3026 115.609 47.8787C115.184 47.4549 114.607 47.2173 114.007 47.2181C113.957 47.2152 113.907 47.2152 113.858 47.2181C105.006 47.8048 96.6693 51.5865 90.3972 57.8597C84.1252 64.1329 80.345 72.4706 79.7598 81.3222C79.7196 81.9216 79.9191 82.5125 80.3144 82.9649C80.7097 83.4173 81.2685 83.6942 81.8679 83.7348H82.0172L82.026 83.7553ZM116.273 61.7112V65.4501C116.273 66.9726 114.95 67.523 114.306 67.5992C110.706 68.039 107.356 69.6689 104.788 72.2299C102.22 74.7909 100.581 78.1363 100.132 81.735C100.067 82.2869 99.8024 82.7959 99.3883 83.1664C98.9741 83.5368 98.4389 83.7432 97.8832 83.7465H94.2556C93.6582 83.7488 93.0843 83.5139 92.6599 83.0934C92.2356 82.6729 91.9955 82.1011 91.9924 81.5037C91.9879 81.4316 91.9879 81.3592 91.9924 81.2871C92.5592 75.6932 95.04 70.4666 99.0154 66.4906C102.991 62.5146 108.217 60.0331 113.811 59.4655C114.105 59.4381 114.402 59.4689 114.684 59.5562C114.966 59.6435 115.228 59.7855 115.456 59.9742C115.683 60.1629 115.871 60.3946 116.009 60.656C116.146 60.9173 116.231 61.2032 116.258 61.4974C116.263 61.5706 116.263 61.6439 116.258 61.717L116.273 61.7112ZM158.985 116.17C157.93 116.17 157.064 115.661 156.859 114.077C156.341 104.039 152.125 94.5481 145.024 87.4351C137.922 80.3222 128.438 76.0909 118.402 75.5572C117.823 75.5286 117.277 75.2786 116.878 74.859C116.478 74.4393 116.256 73.8821 116.255 73.3027V69.4964C116.255 68.744 116.668 67.4645 118.249 67.4088C130.429 67.9079 141.98 72.9466 150.632 81.5338C159.283 90.1209 164.408 101.635 164.998 113.81C165.021 114.408 164.806 114.99 164.4 115.43C163.993 115.869 163.43 116.129 162.832 116.152H162.741L158.985 116.17ZM116.238 81.9136C116.238 81.6163 116.297 81.3219 116.411 81.0473C116.524 80.7727 116.691 80.5232 116.902 80.3133C117.113 80.1033 117.362 79.9369 117.637 79.8237C117.912 79.7104 118.207 79.6525 118.504 79.6533C118.555 79.6504 118.606 79.6504 118.656 79.6533C127.512 80.2353 135.854 84.0153 142.13 90.2896C148.407 96.5638 152.189 104.905 152.775 113.76C152.814 114.359 152.615 114.949 152.22 115.401C151.826 115.853 151.268 116.131 150.669 116.173H150.52H146.811C146.273 116.201 145.745 116.016 145.342 115.658C144.94 115.301 144.694 114.799 144.659 114.261C144.197 107.42 141.282 100.976 136.45 96.1124C131.617 91.2488 125.192 88.2925 118.355 87.787C117.787 87.7499 117.254 87.4986 116.865 87.0839C116.475 86.6692 116.257 86.1221 116.255 85.553L116.238 81.9136ZM138.264 116.17H134.549C133.023 116.17 132.476 114.847 132.397 114.2C131.956 110.6 130.326 107.251 127.765 104.684C125.204 102.116 121.859 100.478 118.261 100.029C117.709 99.9654 117.199 99.7019 116.828 99.288C116.458 98.8741 116.252 98.3385 116.25 97.7828V94.1434C116.248 93.8478 116.305 93.5547 116.417 93.2809C116.528 93.0071 116.693 92.7581 116.901 92.5479C117.109 92.3377 117.356 92.1706 117.629 92.056C117.901 91.9415 118.194 91.8817 118.489 91.8802C118.562 91.8758 118.634 91.8758 118.706 91.8802C124.299 92.447 129.525 94.9275 133.5 98.9024C137.476 102.877 139.957 108.103 140.524 113.696C140.579 114.29 140.396 114.88 140.015 115.339C139.634 115.797 139.086 116.086 138.493 116.141C138.421 116.145 138.35 116.145 138.279 116.141L138.264 116.17ZM41.0127 83.7318C42.0667 83.7318 42.9333 84.2384 43.1383 85.8224C43.6569 95.8608 47.8747 105.352 54.978 112.464C62.0812 119.576 71.5667 123.805 81.6044 124.336C82.1826 124.366 82.7273 124.616 83.1265 125.036C83.5257 125.455 83.749 126.011 83.7505 126.59V130.397C83.7505 131.152 83.3377 132.431 81.7566 132.484C69.5766 131.987 58.0235 126.95 49.3707 118.363C40.7179 109.776 35.5921 98.2619 35.0018 86.0859C34.99 85.79 35.0366 85.4947 35.139 85.2168C35.2414 84.939 35.3975 84.684 35.5984 84.4665C35.7994 84.249 36.0412 84.0732 36.31 83.9492C36.5789 83.8251 36.8696 83.7552 37.1655 83.7436H37.2592L41.0127 83.7318ZM83.7593 117.988C83.7585 118.285 83.6992 118.58 83.5848 118.854C83.4703 119.128 83.303 119.377 83.0923 119.587C82.8815 119.796 82.6316 119.963 82.3567 120.076C82.0819 120.189 81.7874 120.246 81.4902 120.246H81.3409C72.4889 119.662 64.1502 115.883 57.8759 109.611C51.6017 103.339 47.819 95.0022 47.2314 86.1503C47.2103 85.854 47.2478 85.5565 47.3417 85.2747C47.4357 84.9929 47.5842 84.7324 47.7789 84.508C47.9736 84.2837 48.2106 84.0999 48.4764 83.9672C48.7421 83.8346 49.0314 83.7556 49.3278 83.7348H53.1954C53.7344 83.7067 54.2626 83.8924 54.6655 84.2514C55.0684 84.6105 55.3134 85.1139 55.3474 85.6525C55.8095 92.493 58.7245 98.9369 63.5568 103.8C68.389 108.664 74.814 111.62 81.6512 112.127C82.2191 112.164 82.7516 112.415 83.1413 112.83C83.531 113.244 83.7487 113.791 83.7505 114.361L83.7593 117.988ZM61.7331 83.7318H65.4514C66.9768 83.7318 67.5243 85.0553 67.6034 85.6994C68.0442 89.2989 69.6744 92.6482 72.2351 95.2159C74.7959 97.7836 78.1408 99.4228 81.7391 99.8733C82.2909 99.9357 82.8006 100.199 83.1714 100.612C83.5422 101.026 83.7483 101.561 83.7505 102.116V105.755C83.7513 106.352 83.5158 106.925 83.0955 107.348C82.6753 107.772 82.1044 108.012 81.5078 108.016C81.4346 108.016 81.3643 108.016 81.294 108.016C75.7004 107.448 70.4742 104.967 66.4983 100.992C62.5225 97.0167 60.0409 91.7907 59.4728 86.1971C59.4454 85.9016 59.4769 85.6036 59.5652 85.3203C59.6536 85.037 59.7972 84.774 59.9878 84.5465C60.1783 84.3189 60.412 84.1313 60.6753 83.9945C60.9387 83.8577 61.2265 83.7744 61.5222 83.7494C61.5925 83.7494 61.6628 83.7494 61.736 83.7494L61.7331 83.7318ZM83.771 158.979C83.771 157.925 84.2775 157.058 85.8615 156.856C95.8962 156.336 105.383 152.121 112.494 145.021C119.605 137.921 123.836 128.441 124.371 118.407C124.4 117.828 124.65 117.282 125.069 116.882C125.489 116.482 126.046 116.259 126.626 116.258H130.432C131.185 116.258 132.464 116.671 132.52 118.255C132.02 130.434 126.98 141.985 118.393 150.636C109.805 159.286 98.2912 164.41 86.1162 164.998C85.5186 165.021 84.9365 164.805 84.4975 164.399C84.0585 163.993 83.7983 163.429 83.7739 162.832V158.979H83.771ZM118.027 116.231C118.324 116.231 118.618 116.29 118.893 116.404C119.167 116.518 119.416 116.685 119.626 116.896C119.836 117.106 120.002 117.356 120.115 117.631C120.228 117.906 120.285 118.2 120.284 118.498C120.284 118.547 120.284 118.597 120.284 118.65C119.704 127.506 115.925 135.849 109.651 142.127C103.377 148.405 95.0363 152.189 86.1806 152.774C85.5814 152.815 84.9906 152.616 84.5378 152.221C84.085 151.826 83.8072 151.268 83.7651 150.669C83.7651 150.62 83.7651 150.57 83.7651 150.52V146.81C83.737 146.272 83.9219 145.745 84.2797 145.342C84.6375 144.939 85.1395 144.694 85.677 144.658C92.5169 144.197 98.9607 141.283 103.825 136.452C108.689 131.621 111.646 125.197 112.154 118.36C112.19 117.792 112.441 117.258 112.856 116.868C113.27 116.478 113.818 116.26 114.388 116.258L118.027 116.231ZM83.771 138.255V134.548C83.771 133.026 85.0973 132.475 85.7414 132.399C89.3407 131.958 92.6897 130.328 95.2573 127.767C97.8249 125.206 99.4641 121.862 99.9152 118.263C99.9789 117.712 100.243 117.202 100.656 116.832C101.07 116.461 101.605 116.255 102.161 116.252H105.8C106.397 116.25 106.97 116.484 107.394 116.904C107.818 117.324 108.057 117.895 108.06 118.492C108.06 118.566 108.06 118.639 108.06 118.711C107.491 124.304 105.009 129.529 101.033 133.504C97.0577 137.479 91.8321 139.959 86.2392 140.527C85.9437 140.554 85.6459 140.522 85.3627 140.434C85.0796 140.345 84.8167 140.202 84.5893 140.011C84.3618 139.821 84.1743 139.587 84.0373 139.324C83.9004 139.061 83.8169 138.773 83.7915 138.478C83.7871 138.406 83.7871 138.335 83.7915 138.264L83.771 138.255Z" fill="white"/>
</svg>
