<svg width="200" height="200" viewBox="0 0 200 200" fill="none" xmlns="http://www.w3.org/2000/svg">
<path d="M100 200C155.228 200 200 155.228 200 100C200 44.7715 155.228 0 100 0C44.7715 0 0 44.7715 0 100C0 155.228 44.7715 200 100 200Z" fill="#0B251C"/>
<path d="M116.076 105.499L141.276 80.2999C143.448 78.562 144.317 75.9552 144.317 73.3483V52.9281C144.317 51.6246 143.747 50.4345 142.878 50L94.787 98.1133C93.0491 99.8512 91.7457 102.458 91.7457 105.065C91.7457 107.672 92.6147 110.279 94.787 112.017L128.676 145.905C130.848 147.643 133.021 148.947 135.628 148.947C138.234 148.947 140.841 148.078 142.579 145.905C146.489 141.995 146.489 135.478 142.579 131.568L116.076 105.499Z" fill="#00E6A0"/>
<path d="M141.46 50.071H65.8618C59.3447 50.071 55 54.8503 55 60.9329V140.007C55 145.655 59.3447 150 64.9929 150C70.6411 150 74.9858 145.655 74.9858 140.007V69.6224H125.385L143.633 51.3745C143.633 50.5055 142.764 50.071 141.46 50.071Z" fill="#00E6A0"/>
</svg>
