<svg width="200" height="200" viewBox="0 0 200 200" fill="none" xmlns="http://www.w3.org/2000/svg">
<path d="M100 200C155.228 200 200 155.228 200 100C200 44.7715 155.228 0 100 0C44.7715 0 0 44.7715 0 100C0 155.228 44.7715 200 100 200Z" fill="url(#paint0_linear_1854_43675)"/>
<path fill-rule="evenodd" clip-rule="evenodd" d="M78.1478 95.2346V74.8546C84.7626 76.0414 92.1722 76.77 100.501 76.77C108.83 76.77 116.237 76.0414 122.855 74.8546V95.2346H78.1478ZM100.501 124.228C92.1722 124.228 84.7626 124.956 78.1478 126.145V105.763H122.855V126.145C116.237 124.956 108.83 124.228 100.501 124.228ZM137.979 70.93C138.071 70.8971 138.16 70.8618 138.252 70.8289C144.926 68.4836 150.383 65.6987 154.727 62.9444C156.789 61.6377 158 59.337 158 56.8976C158 52.9495 153.596 50.644 150.332 52.8672C145.389 56.2349 138.405 59.8399 128.943 62.4062C128.656 62.4838 128.383 62.5684 128.094 62.6436C126.784 62.9843 125.418 63.2993 124.014 63.5954C123.588 63.687 123.151 63.7693 122.718 63.8539C121.554 64.0865 120.357 64.298 119.13 64.4954C118.756 64.5542 118.391 64.62 118.01 64.6764C116.414 64.9114 114.768 65.1206 113.063 65.2945C112.769 65.3227 112.463 65.3438 112.165 65.372C110.69 65.5107 109.171 65.6211 107.614 65.7081C107.175 65.7316 106.735 65.7574 106.288 65.7762C104.412 65.8585 102.495 65.9149 100.501 65.9149C98.5118 65.9149 96.6024 65.8585 94.733 65.7762C94.265 65.7574 93.8088 65.7316 93.3526 65.7057C91.8547 65.6211 90.3944 65.5154 88.9741 65.3814C88.6096 65.3485 88.2381 65.3227 87.8807 65.2874C86.2323 65.1182 84.645 64.9161 83.0977 64.6882C82.5875 64.613 82.0984 64.5283 81.5975 64.4461C80.5605 64.2769 79.547 64.0959 78.557 63.9032C77.9621 63.7881 77.3648 63.6729 76.7863 63.5484C75.7822 63.3322 74.8087 63.1018 73.854 62.8645C72.9698 62.6436 72.1139 62.4133 71.2697 62.1759C62.2258 59.6308 55.5006 56.1409 50.6941 52.8766C47.4185 50.6487 43 52.9424 43 56.9023C43 59.3393 44.2087 61.6354 46.2662 62.942C50.6047 65.6916 56.0508 68.4718 62.7103 70.8148C62.8208 70.8548 62.9266 70.8971 63.0418 70.937C64.3751 71.4 65.7696 71.8371 67.1946 72.2648V95.2346H62.3552C60.2012 95.2346 58.454 96.9807 58.454 99.1334C58.454 102.795 61.4263 105.763 65.0876 105.763H67.1946V128.733C65.7696 129.161 64.3751 129.6 63.0418 130.061C62.9266 130.101 62.8208 130.143 62.7103 130.185C56.0508 132.528 50.6047 135.306 46.2662 138.058C44.2087 139.362 43 141.658 43 144.098C43 148.055 47.4185 150.349 50.6941 148.123C55.5006 144.857 62.2258 141.369 71.2697 138.822C72.1139 138.584 72.9698 138.354 73.854 138.133C74.8087 137.896 75.7822 137.665 76.7863 137.449C77.3648 137.325 77.9621 137.21 78.557 137.094C79.547 136.902 80.5605 136.721 81.5975 136.554C82.0984 136.472 82.5875 136.385 83.0977 136.31C84.645 136.082 86.2323 135.879 87.8807 135.713C88.2381 135.675 88.6096 135.649 88.9741 135.616C90.3944 135.485 91.8547 135.377 93.3526 135.292C93.8088 135.268 94.265 135.243 94.733 135.221C96.6024 135.139 98.5118 135.083 100.501 135.083C102.495 135.083 104.412 135.139 106.288 135.221C106.735 135.24 107.175 135.266 107.614 135.29C109.171 135.377 110.69 135.487 112.165 135.626C112.463 135.654 112.769 135.675 113.063 135.703C114.768 135.877 116.414 136.086 118.01 136.324C118.391 136.38 118.756 136.443 119.13 136.505C120.357 136.7 121.554 136.913 122.718 137.144C123.151 137.228 123.588 137.313 124.014 137.402C125.418 137.698 126.784 138.013 128.094 138.354C128.383 138.429 128.656 138.516 128.943 138.591C138.405 141.16 145.389 144.765 150.332 148.133C153.596 150.356 158 148.051 158 144.102C158 141.661 156.789 139.36 154.727 138.053C150.383 135.299 144.926 132.514 138.252 130.169C138.16 130.136 138.071 130.101 137.979 130.07C136.641 129.605 135.24 129.163 133.805 128.733V105.763H138.645C140.799 105.763 142.546 104.017 142.546 101.864C142.546 98.2028 139.576 95.2346 135.91 95.2346H133.805V72.2648C135.24 71.8371 136.641 71.3953 137.979 70.93Z" fill="white"/>
<defs>
<linearGradient id="paint0_linear_1854_43675" x1="100" y1="0" x2="100" y2="200" gradientUnits="userSpaceOnUse">
<stop stop-color="#006EF5"/>
<stop offset="1" stop-color="#0062DB"/>
</linearGradient>
</defs>
</svg>
