<svg width="200" height="200" viewBox="0 0 200 200" fill="none" xmlns="http://www.w3.org/2000/svg">
<path d="M100 200C155.228 200 200 155.228 200 100C200 44.7715 155.228 0 100 0C44.7715 0 0 44.7715 0 100C0 155.228 44.7715 200 100 200Z" fill="url(#paint0_linear_1854_43535)"/>
<path d="M123.648 50L53 150.733H74.6907L145.705 50H123.648Z" fill="white"/>
<path d="M76.9518 50L97.7387 79.6827L86.8933 95.8732L54.8093 50H76.9518Z" fill="url(#paint1_linear_1854_43535)"/>
<path d="M125.755 150.742L102.709 117.911L114.725 102.17L147.446 150.742H125.755Z" fill="url(#paint2_linear_1854_43535)"/>
<defs>
<linearGradient id="paint0_linear_1854_43535" x1="150" y1="13.3333" x2="83.3333" y2="196.667" gradientUnits="userSpaceOnUse">
<stop stop-color="#4D4C6A"/>
<stop offset="1" stop-color="#282844"/>
</linearGradient>
<linearGradient id="paint1_linear_1854_43535" x1="71.9812" y1="56.2963" x2="101.57" y2="92.1877" gradientUnits="userSpaceOnUse">
<stop stop-color="white"/>
<stop offset="1" stop-color="white" stop-opacity="0.55"/>
</linearGradient>
<linearGradient id="paint2_linear_1854_43535" x1="133.954" y1="150.742" x2="60.2046" y2="39.6237" gradientUnits="userSpaceOnUse">
<stop stop-color="#7370FF"/>
<stop offset="1" stop-color="#6966FF" stop-opacity="0.31"/>
</linearGradient>
</defs>
</svg>
