<svg width="200" height="200" viewBox="0 0 200 200" fill="none" xmlns="http://www.w3.org/2000/svg">
<path fill-rule="evenodd" clip-rule="evenodd" d="M100 0C155.22 0 200 44.78 200 100C200 155.22 155.22 200 100 200C44.78 200 0 155.22 0 100C0 44.78 44.78 0 100 0Z" fill="#1E1E1E"/>
<path d="M148 99.9965V154L147.993 153.993H93.9494C86.3389 153.987 78.8155 152.373 71.8728 149.255C64.9302 146.137 58.7251 141.586 53.6645 135.901C48.604 130.215 44.8025 123.525 42.5093 116.267C40.2161 109.009 39.483 101.348 40.3582 93.7873C41.2333 86.2264 43.6969 78.9358 47.5874 72.3939C51.4778 65.8521 56.7072 60.2067 62.9325 55.8283C69.1579 51.4497 76.2384 48.4371 83.7098 46.9878C91.1811 45.5386 98.8744 45.6854 106.285 47.4189L106.184 73.3834C102.21 71.5459 97.8742 70.6233 93.4964 70.6837C89.1187 70.7439 84.8103 71.7857 80.8884 73.7319C76.9666 75.6783 73.5313 78.4798 70.8355 81.9299C68.1397 85.3802 66.252 89.3911 65.3116 93.6676C64.3711 97.944 64.4019 102.377 65.4015 106.64C66.4011 110.903 68.3441 114.888 71.0875 118.3C73.8309 121.713 77.3047 124.466 81.2531 126.358C85.2016 128.25 89.524 129.232 93.9021 129.231C94.5507 129.231 95.1925 129.197 95.8275 129.157H123.194L122.984 96.5238L123.147 54.5467C130.77 59.4282 137.042 66.1499 141.385 74.0925C145.729 82.0353 148.003 90.9436 148 99.9965Z" fill="white"/>
<path d="M102.584 91.2522C104.889 93.5571 106.184 96.683 106.184 99.9424L106.157 99.9559V112.226H93.8751C90.6213 112.218 87.503 110.921 85.2035 108.619C82.904 106.317 81.6108 103.197 81.6072 99.9424C81.6072 96.683 82.9018 93.5571 85.2063 91.2522C87.5108 88.9475 90.6363 87.6527 93.8954 87.6527C97.1544 87.6527 100.28 88.9475 102.584 91.2522Z" fill="white"/>
</svg>
