<svg width="200" height="200" viewBox="0 0 200 200" fill="none" xmlns="http://www.w3.org/2000/svg">
<path d="M100 200C155.228 200 200 155.228 200 100C200 44.7715 155.228 0 100 0C44.7715 0 0 44.7715 0 100C0 155.228 44.7715 200 100 200Z" fill="#523B97"/>
<path fill-rule="evenodd" clip-rule="evenodd" d="M65.4044 38.3057C84.1077 36.4601 102.457 43.0335 115.726 56.3067C140.091 80.6788 140.091 120.321 115.726 144.693C102.457 157.966 84.1077 164.54 65.4044 162.694C65.1769 162.669 65 162.467 65 162.239C65 162.012 65.1769 161.809 65.4044 161.784C79.533 160.394 92.8527 154.098 102.887 144.036C114.513 132.406 120.933 116.933 120.933 100.475C120.933 84.0161 114.513 68.5434 102.887 56.9134C92.8527 46.8511 79.533 40.5559 65.4044 39.1653C65.1769 39.1906 65 38.9884 65 38.7608C65 38.5333 65.1769 38.331 65.4044 38.3057Z" fill="white"/>
<rect x="65" y="84" width="90" height="6" rx="3" fill="white"/>
<rect x="65" y="110" width="90" height="6" rx="3" fill="white"/>
</svg>
