<svg width="200" height="200" viewBox="0 0 200 200" fill="none" xmlns="http://www.w3.org/2000/svg">
<path d="M100 200C155.228 200 200 155.228 200 100C200 44.7715 155.228 0 100 0C44.7715 0 0 44.7715 0 100C0 155.228 44.7715 200 100 200Z" fill="url(#paint0_linear_2234_49528)"/>
<path d="M84.8426 149H63.7897C60.6628 149 57.6641 147.719 55.4531 145.439C53.2421 143.159 52 140.066 52 136.842V115.132C52 111.907 53.2421 108.815 55.4531 106.535C57.6641 104.255 60.6628 102.974 63.7897 102.974H83.1585C84.4984 102.974 85.7837 103.523 86.7311 104.5C87.6789 105.477 88.2111 106.803 88.2111 108.184C88.2111 109.106 88.566 109.989 89.1978 110.641C89.8295 111.292 90.6863 111.658 91.5796 111.658H96.6323V118.605H91.5796C89.1961 118.599 86.8916 117.724 85.0733 116.135C83.2548 114.545 82.0399 112.345 81.6426 109.922H63.7897C62.4496 109.922 61.1644 110.47 60.2168 111.448C59.2693 112.425 58.737 113.75 58.737 115.132V136.842C58.737 138.224 59.2693 139.549 60.2168 140.527C61.1644 141.504 62.4496 142.053 63.7897 142.053H84.8426C86.1828 142.053 87.4678 141.504 88.4155 140.527C89.363 139.549 89.8955 138.224 89.8955 136.842V123.816H96.6323V136.842C96.6323 140.066 95.3901 143.159 93.1792 145.439C90.9682 147.719 87.9694 149 84.8426 149Z" fill="white"/>
<path d="M136.21 149H115.157C112.031 149 109.032 147.719 106.821 145.439C104.61 143.159 103.368 140.066 103.368 136.842V116.868C103.368 115.487 103.9 114.161 104.848 113.184C105.795 112.207 107.08 111.658 108.42 111.658C109.314 111.658 110.171 111.292 110.802 110.641C111.434 109.989 111.789 109.106 111.789 108.184V102.974H118.526V108.184C118.519 110.643 117.671 113.019 116.13 114.894C114.589 116.769 112.455 118.022 110.105 118.432V136.842C110.105 138.224 110.637 139.549 111.584 140.527C112.532 141.504 113.817 142.053 115.157 142.053H136.21C137.55 142.053 138.836 141.504 139.783 140.527C140.731 139.549 141.263 138.224 141.263 136.842V115.132C141.263 113.75 140.731 112.425 139.783 111.448C138.836 110.47 137.55 109.922 136.21 109.922H123.578V102.974H136.21C139.337 102.974 142.336 104.255 144.547 106.535C146.758 108.815 148 111.907 148 115.132V136.842C148 140.066 146.758 143.159 144.547 145.439C142.336 147.719 139.337 149 136.21 149Z" fill="white"/>
<path d="M136.21 96.026H116.841C115.502 96.026 114.216 95.4769 113.269 94.4995C112.321 93.5226 111.789 92.1973 111.789 90.8154C111.789 89.8941 111.434 89.0106 110.802 88.359C110.171 87.7077 109.314 87.3418 108.42 87.3418H103.368V80.3945H108.42C110.804 80.4011 113.109 81.2761 114.927 82.8653C116.745 84.4545 117.96 86.655 118.358 89.0785H136.21C137.55 89.0785 138.836 88.5297 139.783 87.5524C140.731 86.5753 141.263 85.25 141.263 83.8681V62.1578C141.263 60.7759 140.731 59.4506 139.783 58.4734C138.836 57.4963 137.55 56.9473 136.21 56.9473H115.157C113.817 56.9473 112.532 57.4963 111.584 58.4734C110.637 59.4506 110.105 60.7759 110.105 62.1578V75.1839H103.368V62.1578C103.368 58.9333 104.61 55.841 106.821 53.5609C109.032 51.2809 112.031 50 115.157 50H136.21C139.337 50 142.336 51.2809 144.547 53.5609C146.758 55.841 148 58.9333 148 62.1578V83.8681C148 87.0926 146.758 90.1849 144.547 92.465C142.336 94.7448 139.337 96.026 136.21 96.026Z" fill="white"/>
<path d="M88.2111 96.026H81.4742V90.8154C81.4806 88.3577 82.3291 85.9809 83.8702 84.1059C85.4111 82.2309 87.5453 80.9778 89.8955 80.5682V62.1578C89.8955 60.7759 89.363 59.4506 88.4155 58.4734C87.4678 57.4963 86.1828 56.9473 84.8426 56.9473H63.7897C62.4496 56.9473 61.1644 57.4963 60.2168 58.4734C59.2693 59.4506 58.737 60.7759 58.737 62.1578V83.8681C58.737 85.25 59.2693 86.5753 60.2168 87.5524C61.1644 88.5297 62.4496 89.0785 63.7897 89.0785H76.4214V96.026H63.7897C60.6628 96.026 57.6641 94.7448 55.4531 92.465C53.2421 90.1849 52 87.0926 52 83.8681V62.1578C52 58.9333 53.2421 55.841 55.4531 53.5609C57.6641 51.2809 60.6628 50 63.7897 50H84.8426C87.9694 50 90.9682 51.2809 93.1792 53.5609C95.3901 55.841 96.6323 58.9333 96.6323 62.1578V82.1313C96.6323 83.5132 96.0999 84.8385 95.1525 85.8155C94.2047 86.7929 92.9198 87.3418 91.5796 87.3418C90.6863 87.3418 89.8295 87.7077 89.1978 88.359C88.566 89.0106 88.2111 89.8941 88.2111 90.8154V96.026Z" fill="white"/>
<defs>
<linearGradient id="paint0_linear_2234_49528" x1="100" y1="0" x2="100" y2="200" gradientUnits="userSpaceOnUse">
<stop stop-color="#EE84FF"/>
<stop offset="1" stop-color="#8F30EE"/>
</linearGradient>
</defs>
</svg>
