<svg width="200" height="200" viewBox="0 0 200 200" fill="none" xmlns="http://www.w3.org/2000/svg">
<path d="M100 200C155.228 200 200 155.228 200 100C200 44.7715 155.228 0 100 0C44.7715 0 0 44.7715 0 100C0 155.228 44.7715 200 100 200Z" fill="white"/>
<path d="M178.125 93.3745C178.812 78.9683 168.75 69.4058 157.375 62.8433L150 106.25C151.523 106.038 153.073 106.157 154.545 106.6C156.018 107.042 157.377 107.796 158.531 108.812C159.854 110.109 160.644 111.854 160.748 113.703C160.852 115.553 160.262 117.375 159.094 118.812C166.219 117.625 177.312 110.781 178.125 93.3745Z" fill="url(#paint0_linear_1854_40301)"/>
<path fill-rule="evenodd" clip-rule="evenodd" d="M81.25 42.9064L72.5 34.0626C85.75 32.4376 120.719 34.5001 154.562 55.7189C154.872 57.6126 154.872 59.544 154.562 61.4376L157.406 62.8751C159.68 66.6461 161.177 70.8332 161.81 75.1906C162.443 79.5481 162.2 83.9881 161.094 88.2501C158.156 100 153.125 105.188 150.875 106.25C146.344 106.25 138.625 108.875 136.125 120.5C133.625 132.125 128.813 134.656 126.75 134.469L76.75 135.063L43.75 115.625L39 75.4064L48.375 62.9064L65.125 49.2189L77.0625 44.3439L81.25 42.9064ZM140.344 59.3751C138.932 60.8717 137.285 62.1278 135.469 63.0939C122.625 60.3439 117.969 53.7189 117.969 53.7189C128.891 53.3927 139.695 56.0505 149.219 61.4064C146.319 60.4963 143.351 59.8171 140.344 59.3751Z" fill="url(#paint1_linear_1854_40301)"/>
<path fill-rule="evenodd" clip-rule="evenodd" d="M135.688 120.5C126.175 125.075 115.743 127.416 105.188 127.344C73.6565 127.344 48.1252 107.532 48.1252 83.1255C48.1252 65.063 62.0627 49.563 82.0315 42.688C44.0315 44.8755 13.469 75.4067 13.469 113.094C13.469 156.594 52.2502 192.532 100 192.532C116.595 192.394 132.852 187.837 147.1 179.329C161.348 170.821 173.071 158.669 181.063 144.125C159.656 148.938 134.375 139.782 135.688 120.5Z" fill="url(#paint2_linear_1854_40301)"/>
<defs>
<linearGradient id="paint0_linear_1854_40301" x1="162.188" y1="75.5308" x2="166.625" y2="128.562" gradientUnits="userSpaceOnUse">
<stop stop-color="#01E8F7"/>
<stop offset="1" stop-color="#00C2FF"/>
</linearGradient>
<linearGradient id="paint1_linear_1854_40301" x1="74.8437" y1="47.0314" x2="126.344" y2="128.781" gradientUnits="userSpaceOnUse">
<stop stop-color="#01E8F7"/>
<stop offset="1" stop-color="#00B3EC"/>
</linearGradient>
<linearGradient id="paint2_linear_1854_40301" x1="95.719" y1="85.1255" x2="100.313" y2="217.063" gradientUnits="userSpaceOnUse">
<stop stop-color="#01E8F7"/>
<stop offset="1" stop-color="#00C2FF"/>
</linearGradient>
</defs>
</svg>
