<svg width="200" height="200" viewBox="0 0 200 200" fill="none" xmlns="http://www.w3.org/2000/svg">
<path d="M100 200C155.228 200 200 155.228 200 100C200 44.7715 155.228 0 100 0C44.7715 0 0 44.7715 0 100C0 155.228 44.7715 200 100 200Z" fill="#141414"/>
<path d="M45.6745 97.7457C45.6752 99.2916 45.2153 100.803 44.3529 102.089C43.4904 103.375 42.2641 104.377 40.8292 104.969C39.3943 105.561 37.8151 105.717 36.2914 105.415C34.7678 105.114 33.3681 104.37 32.2694 103.277C31.1707 102.185 30.4223 100.792 30.119 99.2758C29.8156 97.7596 29.9709 96.188 30.5652 94.7596C31.1595 93.3313 32.1661 92.1105 33.4576 91.2515C34.7492 90.3926 36.2677 89.9341 37.8211 89.9341C39.9033 89.9341 41.9002 90.757 43.3729 92.2218C44.8455 93.6866 45.6734 95.6735 45.6745 97.7457ZM170.452 97.7457C170.453 99.2917 169.993 100.803 169.13 102.089C168.268 103.375 167.041 104.377 165.606 104.969C164.171 105.561 162.592 105.717 161.068 105.415C159.544 105.114 158.144 104.369 157.046 103.276C155.947 102.183 155.199 100.79 154.896 99.2734C154.593 97.7569 154.749 96.1852 155.344 94.7569C155.939 93.3287 156.946 92.1081 158.238 91.2496C159.53 90.3911 161.049 89.9333 162.603 89.9341C164.682 89.9393 166.673 90.7645 168.142 92.2288C169.61 93.693 170.435 95.6769 170.436 97.7457H170.452ZM108.065 128.578C108.066 130.124 107.606 131.636 106.743 132.921C105.881 134.207 104.654 135.21 103.219 135.802C101.784 136.394 100.205 136.549 98.6808 136.247C97.1571 135.946 95.7574 135.201 94.6588 134.108C93.5603 133.015 92.8122 131.622 92.5094 130.106C92.2065 128.589 92.3623 127.017 92.9572 125.589C93.5521 124.161 94.5593 122.94 95.8514 122.082C97.1435 121.223 98.6624 120.765 100.216 120.766C102.297 120.767 104.293 121.591 105.765 123.055C107.237 124.52 108.064 126.506 108.065 128.578ZM76.6559 113.357C76.6559 114.903 76.1953 116.414 75.3324 117.699C74.4695 118.984 73.2429 119.986 71.8079 120.578C70.3729 121.169 68.7939 121.324 67.2705 121.022C65.7471 120.721 64.3477 119.976 63.2494 118.883C62.1511 117.79 61.4032 116.398 61.1001 114.882C60.7971 113.366 60.9526 111.794 61.547 110.366C62.1414 108.938 63.148 107.717 64.4395 106.859C65.731 106 67.2493 105.541 68.8026 105.541C70.8854 105.541 72.8829 106.365 74.3557 107.831C75.8285 109.296 76.6559 111.284 76.6559 113.357ZM139.047 113.357C139.051 114.904 138.593 116.418 137.732 117.706C136.871 118.994 135.644 119.999 134.209 120.593C132.773 121.187 131.193 121.344 129.668 121.043C128.143 120.743 126.741 119.998 125.642 118.904C124.542 117.811 123.793 116.417 123.491 114.899C123.188 113.381 123.344 111.808 123.941 110.379C124.537 108.95 125.546 107.73 126.84 106.872C128.134 106.014 129.655 105.558 131.209 105.561C133.286 105.565 135.276 106.388 136.745 107.849C138.214 109.31 139.042 111.29 139.047 113.357ZM43.1267 121.401C43.1259 122.445 42.814 123.466 42.2303 124.334C41.6467 125.202 40.8176 125.878 39.8478 126.277C38.878 126.676 37.8112 126.779 36.7822 126.575C35.7531 126.37 34.8082 125.867 34.0667 125.128C33.3253 124.389 32.8207 123.448 32.6167 122.423C32.4128 121.399 32.5186 120.337 32.9209 119.373C33.3232 118.408 34.0039 117.584 34.8768 117.005C35.7497 116.425 36.7757 116.116 37.8251 116.117C38.5218 116.118 39.2116 116.255 39.8551 116.521C40.4986 116.786 41.0832 117.176 41.5755 117.666C42.0678 118.157 42.4582 118.739 42.7243 119.38C42.9905 120.021 43.1272 120.708 43.1267 121.401ZM167.904 121.401C167.904 122.445 167.592 123.466 167.008 124.334C166.424 125.202 165.595 125.878 164.626 126.277C163.656 126.676 162.589 126.779 161.56 126.575C160.531 126.37 159.586 125.867 158.844 125.128C158.103 124.389 157.598 123.448 157.394 122.423C157.191 121.399 157.296 120.337 157.699 119.373C158.101 118.408 158.782 117.584 159.655 117.005C160.527 116.425 161.554 116.116 162.603 116.117C164.01 116.118 165.359 116.675 166.353 117.665C167.348 118.655 167.907 119.997 167.908 121.397L167.904 121.401ZM105.518 152.651C105.518 153.696 105.208 154.717 104.625 155.586C104.042 156.455 103.214 157.132 102.244 157.533C101.275 157.933 100.207 158.038 99.1779 157.834C98.1484 157.63 97.2026 157.127 96.4604 156.389C95.7182 155.65 95.2128 154.709 95.0082 153.684C94.8036 152.66 94.909 151.598 95.311 150.633C95.7131 149.668 96.3937 148.843 97.2668 148.263C98.14 147.684 99.1663 147.374 100.216 147.375C101.621 147.377 102.969 147.934 103.962 148.923C104.956 149.912 105.515 151.253 105.518 152.651ZM74.1121 137.016C74.1121 138.061 73.8008 139.082 73.2177 139.95C72.6345 140.819 71.8057 141.495 70.836 141.895C69.8663 142.294 68.7993 142.399 67.77 142.195C66.7407 141.991 65.7954 141.487 65.0536 140.748C64.3117 140.01 63.8067 139.068 63.6025 138.044C63.3982 137.02 63.5038 135.958 63.906 134.993C64.3082 134.028 64.9888 133.204 65.8618 132.624C66.7348 132.045 67.761 131.736 68.8105 131.736C69.5071 131.736 70.1968 131.873 70.8403 132.138C71.4837 132.404 72.0684 132.793 72.5607 133.283C73.0531 133.773 73.4435 134.356 73.7097 134.996C73.9759 135.637 74.1126 136.323 74.1121 137.016ZM136.503 137.016C136.505 138.062 136.196 139.084 135.614 139.954C135.032 140.824 134.203 141.503 133.233 141.904C132.263 142.305 131.196 142.411 130.165 142.207C129.135 142.004 128.189 141.501 127.446 140.762C126.703 140.023 126.198 139.081 125.993 138.055C125.789 137.03 125.895 135.967 126.298 135.002C126.701 134.037 127.383 133.212 128.257 132.633C129.132 132.054 130.159 131.746 131.209 131.748C132.612 131.752 133.955 132.309 134.946 133.296C135.938 134.283 136.496 135.621 136.499 137.016H136.503ZM40.5829 139.982C40.5829 140.528 40.4202 141.061 40.1154 141.515C39.8107 141.969 39.3775 142.323 38.8707 142.532C38.3638 142.741 37.8062 142.795 37.2681 142.689C36.7301 142.582 36.2359 142.32 35.848 141.933C35.4601 141.547 35.1959 141.056 35.0889 140.52C34.9819 139.985 35.0368 139.43 35.2467 138.925C35.4567 138.421 35.8122 137.99 36.2683 137.687C36.7244 137.383 37.2607 137.221 37.8092 137.221C38.5448 137.221 39.2503 137.512 39.7705 138.03C40.2906 138.548 40.5829 139.25 40.5829 139.982ZM165.361 139.982C165.361 140.528 165.198 141.061 164.893 141.515C164.588 141.969 164.155 142.323 163.648 142.532C163.142 142.741 162.584 142.795 162.046 142.689C161.508 142.582 161.014 142.32 160.626 141.933C160.238 141.547 159.974 141.056 159.867 140.52C159.76 139.985 159.815 139.43 160.024 138.925C160.234 138.421 160.59 137.99 161.046 137.687C161.502 137.383 162.038 137.221 162.587 137.221C163.323 137.221 164.028 137.512 164.548 138.03C165.068 138.548 165.361 139.25 165.361 139.982ZM102.97 171.24C102.97 171.786 102.807 172.319 102.502 172.773C102.198 173.227 101.764 173.581 101.258 173.79C100.751 173.999 100.193 174.053 99.655 173.947C99.117 173.84 98.6228 173.578 98.2349 173.192C97.847 172.806 97.5828 172.314 97.4758 171.778C97.3688 171.243 97.4237 170.688 97.6336 170.183C97.8436 169.679 98.1991 169.248 98.6552 168.945C99.1113 168.641 99.6476 168.479 100.196 168.479C100.932 168.479 101.637 168.77 102.157 169.288C102.678 169.806 102.97 170.508 102.97 171.24ZM71.5643 155.613C71.5643 156.159 71.4017 156.692 71.0969 157.146C70.7921 157.6 70.3589 157.954 69.8521 158.163C69.3453 158.372 68.7876 158.426 68.2496 158.32C67.7116 158.213 67.2173 157.951 66.8294 157.564C66.4415 157.178 66.1774 156.687 66.0704 156.151C65.9633 155.616 66.0183 155.061 66.2282 154.556C66.4381 154.052 66.7936 153.621 67.2498 153.318C67.7059 153.014 68.2421 152.852 68.7907 152.852C69.5263 152.852 70.2318 153.143 70.752 153.661C71.2721 154.179 71.5643 154.881 71.5643 155.613ZM133.955 155.613C133.955 156.159 133.793 156.692 133.488 157.146C133.183 157.6 132.75 157.954 132.243 158.163C131.736 158.372 131.178 158.426 130.64 158.32C130.102 158.213 129.608 157.951 129.22 157.564C128.832 157.178 128.568 156.687 128.461 156.151C128.354 155.616 128.409 155.061 128.619 154.556C128.829 154.052 129.184 153.621 129.641 153.318C130.097 153.014 130.633 152.852 131.182 152.852C131.917 152.852 132.623 153.143 133.143 153.661C133.663 154.179 133.955 154.881 133.955 155.613ZM110.605 37.56C110.605 39.6489 109.983 41.6909 108.816 43.4276C107.65 45.1644 105.992 46.5179 104.053 47.3169C102.114 48.1159 99.9796 48.3246 97.921 47.9165C95.8624 47.5084 93.9717 46.5019 92.4881 45.0242C91.0044 43.5466 89.9944 41.6643 89.5859 39.6153C89.1773 37.5664 89.3886 35.4428 90.1929 33.5134C90.9973 31.5839 92.3586 29.9352 94.1046 28.7758C95.8506 27.6164 97.903 26.9984 100.002 27C102.815 27.0021 105.512 28.1156 107.5 30.0957C109.488 32.0759 110.605 34.7607 110.605 37.56ZM110.605 68.7983C110.605 70.8871 109.983 72.9289 108.817 74.6656C107.65 76.4022 105.993 77.7557 104.054 78.5549C102.115 79.354 99.9809 79.5629 97.9225 79.1551C95.864 78.7473 93.9733 77.7412 92.4895 76.264C91.0056 74.7867 89.9953 72.9048 89.5863 70.8561C89.1774 68.8074 89.3881 66.684 90.1918 64.7545C90.9955 62.8249 92.3562 61.176 94.1017 60.0161C95.8472 58.8562 97.8992 58.2376 99.998 58.2383C102.812 58.2394 105.51 59.3524 107.499 61.3327C109.488 63.313 110.605 65.9983 110.605 68.7983ZM110.605 99.6345C110.605 101.723 109.983 103.765 108.817 105.502C107.65 107.238 105.993 108.592 104.054 109.391C102.115 110.19 99.9809 110.399 97.9225 109.991C95.864 109.583 93.9733 108.577 92.4895 107.1C91.0056 105.623 89.9953 103.741 89.5863 101.692C89.1774 99.6435 89.3881 97.5201 90.1918 95.5906C90.9955 93.6611 92.3562 92.0121 94.1017 90.8522C95.8472 89.6924 97.8992 89.0737 99.998 89.0745C101.392 89.075 102.773 89.349 104.061 89.8809C105.349 90.4128 106.519 91.1922 107.504 92.1744C108.489 93.1566 109.27 94.3224 109.802 95.6052C110.334 96.8879 110.607 98.2625 110.605 99.6502V99.6345ZM173 68.7983C173 70.8869 172.378 72.9286 171.212 74.6652C170.046 76.4017 168.389 77.7552 166.45 78.5545C164.511 79.3538 162.377 79.5629 160.319 79.1554C158.26 78.748 156.37 77.7422 154.886 76.2654C153.402 74.7885 152.391 72.9069 151.982 70.8585C151.572 68.81 151.782 66.6868 152.585 64.7572C153.389 62.8276 154.749 61.1784 156.494 60.018C158.239 58.8577 160.29 58.2383 162.389 58.2383C165.203 58.2383 167.902 59.3509 169.892 61.3313C171.882 63.3117 173 65.9977 173 68.7983ZM48.2222 68.7983C48.2254 70.8876 47.6057 72.9308 46.4417 74.6694C45.2776 76.4081 43.6215 77.764 41.6828 78.5657C39.7442 79.3674 37.6101 79.5788 35.5507 79.1731C33.4913 78.7674 31.5991 77.7629 30.1135 76.2867C28.628 74.8105 27.6158 72.9289 27.2051 70.8801C26.7943 68.8312 27.0035 66.7071 27.8062 64.7766C28.6089 62.8461 29.9689 61.1959 31.7142 60.0349C33.4596 58.8738 35.5118 58.2541 37.6111 58.2541C40.4226 58.2541 43.1192 59.3645 45.1087 61.3415C47.0982 63.3185 48.218 66.0004 48.2222 68.7983ZM79.6277 53.1713C79.6308 55.2598 79.0115 57.3024 77.8482 59.0407C76.6848 60.7791 75.0296 62.135 73.0919 62.9372C71.1542 63.7393 69.0209 63.9516 66.962 63.5472C64.903 63.1428 63.0108 62.1399 61.5246 60.6652C60.0384 59.1906 59.0249 57.3105 58.6124 55.2627C58.1999 53.2148 58.4069 51.0913 59.2071 49.1605C60.0073 47.2297 61.3649 45.5784 63.1082 44.4155C64.8514 43.2526 66.902 42.6302 69.0007 42.6271C71.8149 42.6271 74.5139 43.7396 76.5039 45.72C78.4939 47.7004 79.6118 50.3864 79.6118 53.1871L79.6277 53.1713ZM79.6118 84.0192C79.6118 86.1078 78.9895 88.1495 77.8235 89.8861C76.6576 91.6226 75.0003 92.9761 73.0614 93.7754C71.1225 94.5747 68.9889 94.7838 66.9306 94.3763C64.8722 93.9689 62.9815 92.9631 61.4975 91.4863C60.0135 90.0094 59.0029 88.1278 58.5935 86.0794C58.184 84.0309 58.3942 81.9077 59.1973 79.9781C60.0004 78.0485 61.3605 76.3993 63.1055 75.2389C64.8505 74.0786 66.902 73.4592 69.0007 73.4592C71.8149 73.4592 74.5139 74.5718 76.5039 76.5522C78.4939 78.5326 79.6118 81.2186 79.6118 84.0192ZM142.019 53.1871C142.019 55.2756 141.396 57.3173 140.23 59.0539C139.064 60.7905 137.407 62.144 135.468 62.9432C133.529 63.7425 131.396 63.9516 129.337 63.5441C127.279 63.1367 125.388 62.1309 123.904 60.6541C122.42 59.1773 121.41 57.2956 121 55.2472C120.591 53.1988 120.801 51.0755 121.604 49.1459C122.407 47.2163 123.767 45.5671 125.512 44.4067C127.257 43.2464 129.309 42.6271 131.407 42.6271C134.222 42.6271 136.921 43.7396 138.911 45.72C140.901 47.7004 142.019 50.3864 142.019 53.1871ZM142.019 84.0192C142.019 86.1078 141.396 88.1495 140.23 89.8861C139.064 91.6226 137.407 92.9761 135.468 93.7754C133.529 94.5747 131.396 94.7838 129.337 94.3763C127.279 93.9689 125.388 92.9631 123.904 91.4863C122.42 90.0094 121.41 88.1278 121 86.0794C120.591 84.0309 120.801 81.9077 121.604 79.9781C122.407 78.0485 123.767 76.3993 125.512 75.2389C127.257 74.0786 129.309 73.4592 131.407 73.4592C134.222 73.4592 136.921 74.5718 138.911 76.5522C140.901 78.5326 142.019 81.2186 142.019 84.0192Z" fill="white"/>
</svg>
