<svg width="200" height="200" viewBox="0 0 200 200" fill="none" xmlns="http://www.w3.org/2000/svg">
<path d="M100 200C155.228 200 200 155.228 200 100C200 44.7715 155.228 0 100 0C44.7715 0 0 44.7715 0 100C0 155.228 44.7715 200 100 200Z" fill="#343AC8"/>
<path d="M132.059 56.5506L140.33 51.7869L162.998 64.7504V90.6822L123.167 113.469V122.777L117.662 119.625V110.318L157.493 87.5357V67.9001L140.33 58.0848L132.059 62.8517V56.5506Z" fill="white"/>
<path d="M100.502 165.699L117.665 155.882V146.311L123.172 149.464V159.033L100.502 172L77.8343 159.033V115.158C77.8343 114.113 77.2665 113.141 76.3566 112.62L69.5032 108.8L75.0589 105.618L79.0944 107.886C81.7127 109.382 83.3393 112.172 83.3393 115.158V155.882L100.502 165.699Z" fill="white"/>
<path d="M43.505 113.469V133.1L60.668 142.917L69.0123 138.062V144.361L60.668 149.218L38 136.251V110.318L77.8311 87.5324V78.1595L83.3361 81.3109V90.6805L60.6729 103.662L60.6599 103.655L43.505 113.469Z" fill="white"/>
<path d="M100.499 35.2979L83.3362 45.1148V54.5153L77.8312 51.3623V41.9635L100.499 29L123.171 41.9635V87.5341L131.539 92.1546L126.003 95.3206L117.662 90.6822V45.1148L100.499 35.2979Z" fill="white"/>
<path d="M43.505 87.5325L51.7183 92.1612L46.1871 95.3223L38 90.6823V64.7505L60.6648 51.7821L100.499 74.5674L108.77 69.6899V75.991L100.499 80.867L60.6648 58.0849L43.505 67.8986V87.5325Z" fill="white"/>
<path d="M163 110.357V136.289L162.858 136.331L140.33 149.216L100.501 126.434L92.3023 131.206V124.905L100.501 120.133L140.33 142.915L157.492 133.1V113.508L149.305 108.805L154.87 105.621L163 110.357Z" fill="white"/>
</svg>
