<svg width="200" height="200" viewBox="0 0 200 200" fill="none" xmlns="http://www.w3.org/2000/svg">
<g clip-path="url(#clip0_1854_43671)">
<path d="M100 200C155.228 200 200 155.228 200 100C200 44.7715 155.228 0 100 0C44.7715 0 0 44.7715 0 100C0 155.228 44.7715 200 100 200Z" fill="white"/>
<path fill-rule="evenodd" clip-rule="evenodd" d="M146.79 149.357L146.729 137.247C141.675 139.37 136.136 140.543 130.314 140.583C107.854 140.704 89.2553 123.581 87.072 101.667L113.838 101.526C115.718 108.804 122.349 114.181 130.193 114.14C137.693 114.1 144.041 109.127 146.143 102.314L146.548 99.7062V98.4327V97.7858L146.527 92.5497L146.325 54.0179L172.829 53.8766L173.031 92.4083L173.071 101.223H173.192C173.152 101.607 173.111 101.991 173.071 102.355L173.314 149.215L173.415 167.915C190.032 149.963 200.12 125.906 200 99.504C199.716 44.2738 154.715 -0.282305 99.4846 -0.000624886C82.6244 0.0815831 66.7548 4.34722 52.8462 11.7867L53.0281 45.7496L53.0888 57.4344C58.1631 55.2915 63.7427 54.0989 69.5852 54.0787C91.9441 53.9574 110.482 70.9186 112.807 92.6913L86.0005 92.8329C84.0193 85.7168 77.4693 80.4807 69.7265 80.5211C61.9838 80.5615 55.4743 85.8582 53.574 92.9945C53.574 92.9945 53.2102 96.876 53.3315 97.9879C53.3315 98.0688 53.3314 98.1294 53.291 98.19L53.3113 101.788L53.5134 141.493L27.0505 141.634L26.8484 101.93L26.8078 93.1158H26.7473C26.7675 92.9339 26.7876 92.7316 26.8078 92.5497L26.5654 45.871L26.5046 32.1644C9.92746 50.1163 -0.140063 74.1532 -2.27157e-05 100.495C0.284473 155.725 45.2853 200.281 100.516 199.999C117.335 199.917 133.165 195.672 147.053 188.273L146.79 149.357Z" fill="url(#paint0_linear_1854_43671)"/>
</g>
<defs>
<linearGradient id="paint0_linear_1854_43671" x1="224.5" y1="100" x2="-79.5" y2="100" gradientUnits="userSpaceOnUse">
<stop stop-color="#5DBDC9"/>
<stop offset="0.22812" stop-color="#7098C3"/>
<stop offset="0.474873" stop-color="#9E7EBF"/>
<stop offset="0.717087" stop-color="#E37898"/>
<stop offset="1" stop-color="#F5A104"/>
</linearGradient>
<clipPath id="clip0_1854_43671">
<rect width="200" height="200" fill="white"/>
</clipPath>
</defs>
</svg>
