<svg width="200" height="200" viewBox="0 0 200 200" fill="none" xmlns="http://www.w3.org/2000/svg">
<path d="M100 200C155.228 200 200 155.228 200 100C200 44.7715 155.228 0 100 0C44.7715 0 0 44.7715 0 100C0 155.228 44.7715 200 100 200Z" fill="url(#paint0_linear_1854_43735)"/>
<path d="M50.2739 131V82.3443L86.596 110.115V131H95.8665V108.154C95.8648 107.305 95.6694 106.468 95.2956 105.709C94.9219 104.949 94.38 104.288 93.7125 103.778L49.6633 70.0873C48.8576 69.4794 47.9018 69.1103 46.902 69.0211C45.9023 68.9319 44.8977 69.1261 44.0001 69.5821C43.1024 70.038 42.3468 70.7379 41.8172 71.6039C41.2876 72.4699 41.0047 73.4682 41 74.4877V131H50.2739ZM150.726 131V82.3443L114.404 110.115V131H105.134V108.154C105.135 107.305 105.331 106.468 105.704 105.709C106.078 104.949 106.62 104.288 107.288 103.778L151.337 70.1011C152.141 69.4939 153.096 69.1249 154.095 69.0352C155.093 68.9454 156.097 69.1384 156.994 69.5927C157.891 70.047 158.647 70.7448 159.178 71.6089C159.708 72.4729 159.993 73.4693 160 74.4877V131H150.726Z" fill="white"/>
<defs>
<linearGradient id="paint0_linear_1854_43735" x1="100" y1="0" x2="100" y2="200" gradientUnits="userSpaceOnUse">
<stop stop-color="#4FA89B"/>
<stop offset="1" stop-color="#6ACEBB"/>
</linearGradient>
</defs>
</svg>
