<svg width="200" height="200" viewBox="0 0 200 200" fill="none" xmlns="http://www.w3.org/2000/svg">
<path fill-rule="evenodd" clip-rule="evenodd" d="M100 0C155.22 0 200 44.78 200 100C200 155.22 155.22 200 100 200C44.78 200 0 155.22 0 100C0 44.78 44.78 0 100 0Z" fill="#DFEFF1"/>
<path d="M150.324 115.856C150.718 116.166 150.977 116.433 151.365 116.751C151.6 116.943 151.602 116.943 151.832 116.733C151.992 116.587 152.148 116.434 152.313 116.29C152.976 115.705 153.868 115.734 154.486 116.37C154.732 116.626 154.963 116.896 155.18 117.178C155.714 117.872 155.661 118.779 155.058 119.41C154.888 119.587 154.709 119.755 154.526 119.917C154.374 120.051 154.369 120.182 154.477 120.35C154.699 120.697 154.915 121.048 155.125 121.404C155.39 121.854 155.626 122.323 155.851 122.797C156.064 123.248 156.064 123.245 156.507 123.099C156.721 123.022 156.939 122.958 157.161 122.908C157.881 122.763 158.565 123.126 158.872 123.827C159.059 124.259 159.198 124.711 159.288 125.175C159.421 125.837 159.033 126.571 158.413 126.897C158.173 127.023 157.909 127.078 157.659 127.171C157.355 127.285 157.329 127.308 157.378 127.617C157.539 128.592 157.651 129.571 157.659 130.562C157.661 130.778 157.739 130.901 157.956 130.92C158.142 130.935 158.326 130.971 158.511 130.992C159.249 131.071 159.751 131.454 159.97 132.21C159.988 132.275 160.037 133.638 159.972 134.007C159.831 134.822 159.222 135.403 158.421 135.436C158.248 135.444 158.076 135.433 157.905 135.402C157.59 135.342 157.38 135.48 157.304 135.798C157.116 136.579 156.864 137.338 156.592 138.091C156.513 138.309 156.559 138.5 156.732 138.653C156.823 138.733 157.173 139.126 157.229 139.257C157.359 139.557 156.798 139.09 156.669 139.012C156.372 138.834 152.736 136.74 151.382 135.989C151.479 135.242 151.828 134.287 151.969 133.551C152.687 129.801 151.945 126.38 149.867 123.257C148.139 120.659 145.773 118.998 142.867 118.174C140.31 117.448 137.775 117.595 135.288 118.543C133.23 119.327 130.977 120.612 129.741 122.635C129.6 122.8 129.533 122.781 129.309 122.677C128.535 122.275 125.504 120.216 124.272 119.467C123.726 118.895 123.364 117.96 123.774 117.269C124.067 116.777 124.46 116.377 124.882 116.018C125.476 115.514 126.336 115.528 126.965 116.002C127.746 116.59 127.746 116.587 128.505 115.955C128.901 115.625 129.324 115.333 129.74 115.032C130.127 114.751 130.156 114.639 129.974 114.199C129.479 113 129.797 112.089 130.913 111.497C131.208 111.333 131.516 111.197 131.834 111.09C132.686 110.819 133.471 111.136 133.934 111.928C134.417 112.754 134.415 112.753 135.324 112.534C135.805 112.419 136.292 112.337 136.777 112.245C137.262 112.152 137.336 112.072 137.364 111.572C137.374 111.321 137.411 111.073 137.472 110.831C137.6 110.347 137.832 109.922 138.313 109.732C139.23 109.367 140.155 109.298 141.055 109.777C141.586 110.059 141.833 110.544 141.84 111.174C141.85 112.117 141.856 112.125 142.74 112.274C143.32 112.372 143.889 112.519 144.459 112.659C144.892 112.765 145.004 112.724 145.173 112.288C145.6 111.187 146.662 110.625 147.914 111.266C148.269 111.448 148.642 111.581 148.952 111.874C149.578 112.466 149.622 113.34 149.365 113.977C149.328 114.067 149.284 114.153 149.249 114.243C149.077 114.686 149.059 114.945 149.059 114.945C149.059 114.945 149.935 115.551 150.324 115.856Z" fill="#5F5F5F"/>
<path d="M151.179 135.628C151.543 135.991 156.408 138.766 156.826 139.028C156.951 139.045 157.047 139.131 157.16 139.179L157.154 139.175C157.241 139.256 157.324 139.342 157.402 139.433L157.398 139.427C157.783 139.989 157.781 140.589 157.558 141.21C157.417 141.54 157.246 141.855 157.05 142.153C156.592 142.872 155.747 143.098 155.004 142.708C154.778 142.589 154.559 142.457 154.344 142.315C154.189 142.213 154.081 142.241 153.972 142.391C153.377 143.213 152.715 143.979 151.994 144.682C151.849 144.823 151.832 144.947 151.954 145.111C152.095 145.296 152.226 145.49 152.352 145.686C152.865 146.479 152.727 147.395 152.001 147.984C151.748 148.188 151.491 148.387 151.222 148.569C150.502 149.057 149.656 148.919 149.107 148.229C148.956 148.035 148.813 147.833 148.681 147.624C148.564 147.441 148.447 147.399 148.251 147.516C147.427 148.005 146.557 148.391 145.668 148.733C145.345 148.859 145.347 148.863 145.411 149.216C145.433 149.338 145.451 149.462 145.474 149.585C145.68 150.618 145.444 151.177 144.578 151.707C144.354 151.837 144.097 151.817 143.857 151.883C143.439 151.987 143.016 151.979 142.59 151.957H142.588C142.449 151.885 142.312 151.807 142.175 151.73C141.765 151.373 141.582 150.904 141.476 150.365C141.332 149.637 141.42 149.755 140.776 149.786C139.923 149.828 139.069 149.824 138.217 149.775C137.886 149.756 137.885 149.754 137.809 150.074C137.774 150.223 137.734 150.371 137.712 150.522C137.574 151.477 136.837 152.194 135.661 151.96C135.374 151.902 135.089 151.825 134.808 151.739C134.005 151.493 133.54 150.684 133.701 149.825C133.741 149.607 133.79 149.391 133.831 149.172C133.886 148.875 133.882 148.859 133.597 148.747C133.047 148.532 132.5 148.312 131.971 148.046C131.659 147.889 131.35 147.725 131.042 147.559C130.722 147.387 130.724 147.385 130.5 147.698C130.38 147.865 130.267 148.038 130.143 148.199C129.595 148.915 128.731 149.066 128.001 148.565C127.722 148.374 127.451 148.169 127.19 147.954C126.524 147.402 126.38 146.497 126.838 145.749C126.974 145.526 127.126 145.314 127.279 145.103C127.385 144.958 127.392 144.841 127.255 144.707C126.525 143.993 125.855 143.216 125.253 142.382C125.138 142.223 125.026 142.224 124.878 142.321C124.697 142.439 124.51 142.548 124.323 142.656C123.481 143.133 122.605 142.897 122.111 142.039C121.935 141.731 121.718 141.449 121.597 141.104C121.296 140.249 121.55 139.457 122.302 138.981C122.462 138.88 122.626 138.786 122.782 138.685C123.06 138.508 123.067 138.502 122.945 138.193C122.69 137.55 122.472 136.892 122.289 136.223C122.209 135.931 122.133 135.633 122.067 135.336C122.019 135.119 121.91 135.035 121.696 135.081C121.525 135.114 121.353 135.138 121.18 135.152C120.163 135.264 119.409 134.629 119.302 133.57C119.273 133.278 119.242 132.989 119.223 132.698C119.195 132.276 119.324 131.86 119.582 131.535C119.841 131.209 120.209 131 120.611 130.95C120.836 130.921 121.062 130.903 121.285 130.866C121.577 130.816 121.587 130.81 121.591 130.492C121.604 129.797 121.655 129.103 121.743 128.414C121.78 128.111 121.877 127.816 121.856 127.506C121.834 127.293 121.747 127.162 121.584 127.096C121.472 127.062 121.446 127.047 121.279 127.004C120.949 126.92 120.651 126.771 120.412 126.52" fill="#414141"/>
<path d="M121.873 127.694C121.911 127.481 121.823 127.161 121.614 127.1C121.434 127.047 121.146 126.935 120.968 126.879C120.258 126.655 119.812 126.071 119.734 125.285C119.644 124.951 119.926 123.87 120.055 123.519C120.341 122.746 121.044 122.296 121.837 122.421C122.008 122.447 122.176 122.492 122.337 122.556C122.636 122.678 122.867 122.582 122.999 122.285C123.325 121.555 123.812 120.831 124.126 120.096C124.43 119.386 124.214 119.445 124.321 119.469C124.58 119.703 128.368 121.624 129.562 122.629C128.784 123.506 127.056 127.48 126.984 128.809" fill="#414141"/>
<path d="M129.605 122.565C132.023 119.838 133.753 118.667 136.14 117.96C137.593 117.526 139.108 117.369 140.614 117.494C143.148 117.707 145.436 118.63 147.451 120.262C149.228 121.702 150.522 123.525 151.405 125.676C151.945 126.991 152.23 128.366 152.364 129.792C152.555 131.832 152.136 134.112 151.465 136.015C151.329 136.14 148.856 134.374 148.591 134.03C148.531 133.844 148.606 133.674 148.651 133.502C148.894 132.573 149.051 131.629 149.024 130.663C148.891 126.022 145.859 122.193 141.668 121.258C138.574 120.568 135.294 121.264 132.292 124.448C132.216 124.492 132.192 124.397 131.683 124.03C130.826 123.487 130.405 123.146 129.82 122.777C129.485 122.573 129.502 122.683 129.605 122.565Z" fill="#414141"/>
<path d="M151.515 135.882C151.434 136.015 151.361 136.154 151.297 136.297C150.559 138.151 149.378 139.673 147.94 140.962C146.058 142.65 143.874 143.703 141.395 144.041C140.788 144.124 140.18 144.215 139.565 144.195C137.791 144.136 136.076 143.795 134.437 143.05C133.397 142.575 132.424 141.955 131.544 141.208C130.174 140.051 129.061 138.662 128.244 137.015C127.492 135.499 127.06 133.894 126.877 132.204C126.716 130.748 126.842 129.32 127.134 127.896C127.468 126.27 128.092 124.773 128.962 123.385C129.085 123.188 129.445 122.74 129.562 122.627C130.194 122.97 131.92 124.159 132.196 124.417C132.371 124.654 132.049 124.968 131.949 125.12C131.419 125.929 130.982 126.782 130.701 127.721C129.722 130.989 130.171 134.03 132.143 136.765C133.788 139.047 136.025 140.298 138.761 140.584C142.659 140.992 146.659 138.683 148.306 134.608C148.396 134.384 148.373 134.028 148.744 134.011C148.982 134.296 151.235 135.721 151.515 135.882Z" fill="#5F5F5F"/>
<path d="M148.738 134.01C148.427 134.84 148.08 135.65 147.594 136.389C146.053 138.728 143.949 140.181 141.271 140.681C138.558 141.187 136.075 140.556 133.868 138.853C131.926 137.355 130.687 135.339 130.208 132.871C129.643 129.954 130.237 127.27 131.892 124.844C131.954 124.753 132.012 124.661 132.075 124.57C132.137 124.492 132.96 123.545 133.36 123.195C135.135 121.643 137.166 120.848 139.486 120.802C143.834 120.716 147.756 123.787 148.887 128.249C149.34 130.035 149.328 131.826 148.836 133.606C148.799 133.738 148.77 133.875 148.738 134.01Z" fill="#EDAE50"/>
<path d="M142.183 130.823C142.256 132.351 140.912 133.533 139.638 133.517C138.183 133.499 136.989 132.308 137.002 130.798C137.014 129.321 138.121 128.1 139.656 128.096C140.934 128.092 142.254 129.286 142.183 130.823Z" fill="#414141"/>
<path d="M142.334 125.749C142.629 125.717 142.876 125.827 143.081 126.055C143.262 126.258 143.456 126.449 143.633 126.655C144.044 127.135 143.793 128.012 143.262 128.185C143.03 128.26 142.817 128.265 142.612 128.125C142.175 127.825 141.801 127.445 141.47 127.029C141.118 126.587 141.297 126.021 141.82 125.829C141.984 125.766 142.159 125.739 142.334 125.749Z" fill="#FCD38C"/>
<path d="M72.5317 151.798C71.8108 151.402 71.383 150.787 71.2545 149.942C71.2104 149.654 71.1343 149.373 71.0778 149.086C71.0378 148.886 70.9409 148.819 70.7402 148.835C69.4645 148.947 68.1826 148.961 66.905 148.877C66.732 148.866 66.5586 148.856 66.3867 148.835C66.2229 148.816 66.1376 148.887 66.104 149.051C66.0431 149.35 65.9614 149.646 65.9141 149.947C65.7679 150.878 65.2793 151.518 64.4475 151.878C63.9152 152.029 63.3833 151.976 62.8515 151.873C62.3589 151.778 61.853 151.733 61.4064 151.463C61.235 151.331 61.0508 151.218 60.9022 151.054C60.3715 150.469 60.1521 149.786 60.289 148.99C60.3407 148.689 60.4092 148.391 60.4672 148.092C60.5654 147.579 60.5646 147.576 60.1068 147.407C59.0644 147.021 58.0476 146.563 57.063 146.037C56.8258 145.911 56.5855 145.786 56.3589 145.643C56.1858 145.531 56.0709 145.555 55.9584 145.726C55.7857 145.99 55.5943 146.24 55.4229 146.505C54.6928 147.637 53.2602 147.968 52.1339 147.062C51.8388 146.824 51.5272 146.608 51.2312 146.372C50.1863 145.539 49.9956 144.212 50.757 143.086C50.9565 142.79 51.1603 142.498 51.3685 142.209C51.4675 142.072 51.4659 141.961 51.3405 141.849C51.2796 141.795 51.2252 141.733 51.1671 141.676C50.1915 140.708 49.2904 139.662 48.4721 138.546C48.2398 138.229 48.2378 138.231 47.8966 138.435C47.6655 138.574 47.4356 138.714 47.2045 138.853C45.9894 139.578 44.7822 139.259 44.0313 138.018C43.9283 137.859 43.8895 137.801 43.7818 137.61C43.6492 137.342 43.489 137.09 43.3689 136.813C42.8566 135.629 43.2135 134.418 44.2856 133.749C44.5371 133.592 44.7927 133.441 45.0466 133.285C45.3846 133.076 45.3882 133.074 45.2428 132.711C44.7756 131.543 44.3901 130.341 44.0894 129.115C44.0397 128.913 43.9852 128.712 43.9452 128.508C43.9051 128.304 43.7914 128.237 43.6003 128.263C43.2435 128.31 42.8862 128.365 42.5274 128.386C41.6062 128.441 40.8953 128.059 40.4143 127.235C40.2141 126.895 40.1388 126.515 40.1051 126.122C40.0803 125.83 40.025 125.567 40.0062 125.253C39.9285 124.067 40.5789 122.579 42.0087 122.472C42.3143 122.449 42.6183 122.401 42.9231 122.366C43.2755 122.324 43.288 122.321 43.296 121.971C43.3189 120.942 43.3991 119.915 43.5363 118.896C43.5923 118.483 43.6564 118.071 43.7261 117.661C43.793 117.269 43.7934 117.26 43.4189 117.133C43.1386 117.038 42.8582 116.947 42.5823 116.85C41.3831 116.428 40.764 115.236 41.1004 113.969C41.2245 113.5 41.3771 113.039 41.541 112.583C41.9611 111.409 43.1113 110.817 44.2644 111.172C44.6096 111.278 44.9557 111.385 45.2913 111.518C45.5059 111.602 45.6013 111.532 45.6918 111.335C45.9045 110.87 46.1356 110.415 46.3594 109.958C46.4395 109.8 46.5132 109.673 46.5857 109.528C46.826 109.069 47.0812 108.615 47.3867 108.196C47.6619 107.946 93.958 136.352 93.8275 136.68C93.7386 136.847 93.667 137.009 93.5819 137.17C93.4184 137.473 93.2643 137.781 93.0903 138.076C92.4299 139.198 91.2276 139.539 90.1056 138.928C89.8105 138.767 89.5274 138.582 89.2379 138.41C88.9368 138.231 88.933 138.229 88.7286 138.505C88.2715 139.121 87.7938 139.719 87.2946 140.298C86.848 140.815 86.3759 141.305 85.8955 141.787C85.6743 142.009 85.6746 142.015 85.8449 142.267C86.0369 142.552 86.2394 142.827 86.4295 143.113C87.1675 144.22 86.9695 145.552 85.9446 146.367C85.6161 146.629 85.2824 146.883 84.9434 147.129C83.8784 147.899 82.6131 147.688 81.8256 146.611C81.6254 146.335 81.4353 146.048 81.235 145.77C81.0539 145.519 81.0471 145.515 80.782 145.666C79.6945 146.287 78.5661 146.826 77.4046 147.278C77.242 147.341 77.0782 147.4 76.9164 147.464C76.6236 147.581 76.618 147.585 76.6761 147.924C76.7278 148.225 76.771 148.53 76.8539 148.822C77.1631 149.914 76.5175 151.234 75.0841 151.698C74.4645 151.899 73.1224 152.045 72.5317 151.798Z" fill="#414141"/>
<path d="M93.7387 136.762C92.7664 136.173 84.1121 130.61 83.5065 130.261C83.1776 130.088 83.2845 130.067 83.484 129.676C84.1916 128.098 84.6682 126.419 84.897 124.693C85.062 123.436 85.053 122.173 84.9536 120.908C84.8606 119.715 84.6461 118.536 84.3131 117.391C83.889 115.931 83.2751 114.566 82.5176 113.261C81.672 111.805 80.595 110.562 79.4051 109.416C78.4905 108.535 77.4563 107.819 76.3645 107.198C74.7242 106.257 72.9392 105.623 71.0899 105.323C69.9284 105.135 68.7561 105.042 67.5838 105.122C65.0891 105.293 62.7273 105.978 60.5305 107.238C58.7976 108.257 57.2466 109.582 55.9459 111.152C55.6143 111.553 55.1421 112.351 54.8173 112.756C54.6307 112.988 51.5251 110.886 47.3006 108.278C47.4564 107.992 47.6066 107.758 47.7732 107.508C47.8769 107.352 47.8685 107.234 47.7331 107.11C47.474 106.87 47.2157 106.629 46.9614 106.383C46.1524 105.6 45.9633 104.562 46.47 103.541C46.5857 103.308 46.7947 102.759 47.1136 102.36C47.2678 102.167 47.4376 101.991 47.6042 101.811C48.4196 100.931 50.0048 100.916 50.8559 101.727C51.886 102.708 51.7506 102.479 52.6181 101.785C53.3595 101.193 54.1096 100.615 54.8938 100.084C55.3159 99.7989 55.3432 99.6609 55.1297 99.1831C54.8918 98.6497 54.6775 98.1137 54.7236 97.5046C54.7804 96.7523 55.0732 96.1085 55.6624 95.6907C56.5034 95.0947 57.3965 94.6044 58.4695 94.6349C59.3558 94.6607 59.9766 95.1205 60.4268 95.8735C60.587 96.1442 60.7116 96.44 60.8413 96.7302C60.9614 97.0017 61.1561 97.0904 61.4289 97.0153C62.5779 96.7015 63.7418 96.4639 64.9132 96.2664C65.339 96.1943 65.4247 96.064 65.4411 95.6226C65.449 95.4696 65.449 95.3162 65.4411 95.1632C65.3502 93.7605 66.3915 92.5834 67.6223 92.5021C68.3007 92.4568 68.9804 92.4031 69.654 92.5436C70.6445 92.7526 71.6193 93.6991 71.5212 94.9987C71.5076 95.1786 71.5176 95.3603 71.5212 95.542C71.53 96.0762 71.6261 96.2068 72.1319 96.2825C73.228 96.4426 74.3135 96.6736 75.3821 96.9745C75.9476 97.136 76.0353 97.0775 76.2708 96.5257C76.4554 96.0935 76.6405 95.6609 76.9665 95.314C77.6257 94.6151 78.4462 94.5025 79.3009 94.6997C79.9777 94.856 80.6137 95.1764 81.1965 95.5726C82.1464 96.2185 82.4921 97.3791 82.1059 98.5077C82.0256 98.7431 81.9289 98.9727 81.828 99.2C81.6277 99.6462 81.6615 99.8092 82.0597 100.072C82.896 100.618 83.7011 101.216 84.4714 101.859C85.3155 102.57 85.1647 102.677 86.0959 101.798C86.9115 101.028 88.1707 100.936 88.9144 101.464C89.6681 101.998 90.3236 102.67 90.759 103.511C91.1464 104.261 91.0942 105.639 90.3229 106.332C90.0915 106.541 89.8864 106.78 89.6715 107.009C89.4851 107.208 89.46 107.425 89.6074 107.651C90.2966 108.71 90.9139 109.819 91.4539 110.969C91.5866 111.251 91.8146 111.322 92.0947 111.23C92.4247 111.119 92.7615 111.031 93.1027 110.967C94.0151 110.8 95.0201 111.218 95.4885 112.053C95.9437 112.863 96.2231 113.751 96.2516 114.702C96.2824 115.746 95.784 116.469 94.9301 116.95C94.6462 117.106 94.3474 117.23 94.0384 117.319C93.7121 117.416 93.5722 117.623 93.6379 117.971C93.8681 119.216 93.9446 120.478 94.0204 121.741C94.0406 122.076 94.1955 122.26 94.5176 122.27C94.7576 122.278 94.9946 122.324 95.232 122.357C96.4564 122.524 97.2937 123.518 97.2982 124.81C97.3001 125.06 97.2889 125.311 97.2641 125.56C97.224 125.952 97.0894 126.515 96.9836 126.882C96.6769 127.953 95.6422 128.538 94.5746 128.468C94.2292 128.445 93.8854 128.387 93.5404 128.352C93.2231 128.319 93.207 128.323 93.1282 128.652C92.8909 129.637 92.6325 130.616 92.2935 131.57C92.1356 132.013 91.9729 132.455 91.7944 132.889C91.7145 133.082 91.7479 133.2 91.9192 133.301C92.2564 133.499 92.5957 133.694 92.9205 133.913C93.7875 134.498 94.1452 135.563 93.8299 136.579C93.8044 136.642 93.7736 136.703 93.7387 136.762Z" fill="#666059"/>
<path d="M58.4428 114.798C58.8434 114.296 59.2234 113.776 59.662 113.306C61.7306 111.088 64.2302 109.786 67.1815 109.44C69.7916 109.133 72.2679 109.607 74.5552 110.949C78.0765 113.017 80.1769 116.168 80.8391 120.321C81.2239 122.734 80.9325 125.089 80.0141 127.35C79.9624 127.478 79.9256 127.612 79.8818 127.743C79.9815 127.961 79.8848 128.148 79.7974 128.336C79.3519 129.298 78.7661 130.16 78.0881 130.949C76.138 133.218 73.7514 134.722 70.8549 135.242C67.0101 135.932 63.5413 135.004 60.5255 132.41C58.0796 130.307 56.6057 127.582 56.1311 124.316C55.7618 121.774 56.069 119.297 57.0787 116.931C57.3234 116.357 57.6206 115.815 57.9198 115.272C58.0419 115.045 58.2013 114.876 58.4428 114.798Z" fill="#EDAE50"/>
<path d="M60.6773 122.29C60.6112 117.605 64.4524 114.035 68.5272 114.013C72.5234 113.991 76.5117 117.311 76.5185 122.332C76.5253 126.992 72.8999 130.534 68.6686 130.58C64.0587 130.629 60.5928 126.661 60.6773 122.29Z" fill="#45423D"/>
<path d="M76.3798 114.645C76.4458 115.337 75.616 115.879 75.0392 115.479C74.6479 115.209 74.2783 114.933 73.9683 114.571C73.5217 114.052 73.6234 113.514 74.215 113.175C74.6531 112.924 75.0617 112.906 75.4662 113.266C75.751 113.519 76.0269 113.774 76.2311 114.104C76.3347 114.263 76.3868 114.453 76.3798 114.645Z" fill="#FCD38C"/>
<path d="M62.2683 122.346C62.1701 118.961 64.7991 115.659 68.6147 115.674C72.1792 115.689 74.9615 118.672 74.9259 122.402C74.891 126.08 71.9686 128.963 68.4953 128.918C64.894 128.872 62.171 125.71 62.2683 122.346Z" fill="#EDAE50"/>
<path d="M68.5793 124.998C67.1595 124.998 65.976 123.766 65.9864 122.282C65.9956 120.819 67.0818 119.595 68.5957 119.579C69.9766 119.565 71.1825 120.755 71.1749 122.305C71.1677 123.815 70.0303 125 68.5793 124.998Z" fill="#414141"/>
<path d="M71.575 117.81C71.724 117.81 71.8698 117.827 71.9963 117.914C72.547 118.295 72.8418 118.825 72.8222 119.522C72.8118 119.88 72.3195 120.256 71.9839 120.177C71.4164 120.042 70.9538 119.749 70.6378 119.222C70.3646 118.766 70.4187 118.383 70.828 118.061C71.0495 117.888 71.3026 117.817 71.575 117.81Z" fill="#FCD38C"/>
<path d="M58.4426 114.799C58.0293 115.482 57.6292 116.17 57.3096 116.908C56.7727 118.154 56.424 119.479 56.2759 120.836C56.0793 122.548 56.215 124.283 56.6749 125.939C57.1347 127.594 57.9093 129.136 58.9525 130.473C60.5385 132.504 62.537 133.903 64.9312 134.684C66.319 135.137 67.748 135.344 69.1954 135.244C72.9818 134.984 76.0697 133.301 78.4294 130.188C78.9247 129.531 79.3522 128.822 79.7044 128.071C79.7573 127.96 79.8225 127.855 79.8818 127.746C80.211 127.907 82.7722 129.633 83.2087 129.952C83.382 130.077 83.3036 130.244 83.2211 130.397C82.7715 131.236 82.296 132.057 81.7237 132.812C80.4727 134.464 79.014 135.872 77.288 136.975C75.6131 138.047 73.773 138.809 71.8492 139.226C70.3609 139.554 68.8534 139.602 67.3503 139.504C65.351 139.376 63.4349 138.848 61.611 137.965C60.3616 137.367 59.1906 136.605 58.1266 135.697C56.034 133.898 54.4107 131.724 53.3606 129.099C52.6894 127.414 52.2698 125.632 52.1162 123.814C51.8759 121.103 52.2876 118.494 53.2024 115.958C53.5376 115.029 53.9798 114.158 54.4524 113.301C54.4988 113.218 54.5509 113.134 54.6046 113.056C54.8917 112.63 54.9462 112.617 55.3731 112.871C56.0901 113.298 57.469 114.19 58.1711 114.637C58.2649 114.685 58.3556 114.739 58.4426 114.799Z" fill="#666059"/>
<path d="M80.6992 125.05C81.0611 123.369 81.0949 121.628 80.7986 119.932C80.5024 118.237 79.8817 116.621 78.9742 115.18C77.457 113.139 75.551 111.419 73.4359 110.357C72.1157 109.764 70.7009 109.433 69.2642 109.383C65.4718 109.242 62.2205 110.553 59.572 113.402C59.1555 113.858 58.7644 114.339 58.4005 114.842C58.0889 114.647 55.2201 113.12 54.8168 112.757C54.6566 112.612 55.9074 111.133 56.5502 110.442C57.9552 108.932 59.5432 107.684 61.3678 106.771C63.0756 105.851 65.0277 105.326 66.9974 105.107C68.5076 104.937 70.0329 104.979 71.5323 105.233C73.5088 105.572 75.3311 106.375 77.0593 107.447C78.2445 108.174 79.3354 109.057 80.3059 110.072C82.2127 112.084 83.616 114.419 84.4065 117.141C84.9105 118.889 85.1542 120.707 85.1302 122.532C85.1044 125.254 84.4492 127.755 83.4982 129.77C83.3096 130.169 83.4806 130.159 82.9339 129.77C82.2622 129.268 80.5864 128.221 79.8791 127.747C79.8352 127.712 80.4127 126.391 80.6992 125.05Z" fill="#45423D"/>
<path d="M63.0938 54.0978C62.8022 53.13 62.5784 52.1429 62.3329 51.1622C62.2679 50.9039 62.3408 50.8346 62.6048 50.7677C77.2092 47.0619 94.9692 49.8935 104.091 52.7765C105.536 53.3176 106.943 53.9465 108.245 54.807C108.81 55.1806 109.346 55.5921 109.767 56.1442C109.884 56.2953 109.99 56.456 110.083 56.6248C110.303 57.0347 110.353 57.448 110.145 57.8964C109.665 58.9366 109.142 59.9535 108.577 60.9469C108.212 61.5938 107.837 62.2344 107.467 62.8784C107.293 63.1909 107.097 63.4899 106.882 63.7731C106.693 63.9565 106.481 63.8683 106.278 63.8207C105.385 63.6118 104.483 63.4484 103.595 63.2202C103.529 63.2035 103.463 63.2319 103.397 63.2344C102.467 62.9202 101.485 62.8843 100.54 62.6494C100.417 62.6185 100.309 62.6966 100.19 62.6757C98.639 62.3611 97.0663 62.2022 95.5044 61.9783C94.955 61.8993 94.388 61.9411 93.8555 61.7363C93.6519 61.5119 93.6151 61.2186 93.5469 60.9356C93.1531 59.2666 92.6416 57.6469 91.7045 56.2085C91.5616 55.99 91.4067 55.7814 91.2444 55.5784C90.7569 54.9679 90.1749 54.6047 89.3847 54.4965C87.3237 54.2136 85.2594 53.9691 83.1894 53.7861C79.745 53.4798 76.2965 53.4275 72.8458 53.4785C71.1428 53.5032 69.4414 53.6214 67.7417 53.7744C66.3343 53.8997 64.9301 54.0485 63.53 54.242C63.3565 54.2595 63.2067 54.2487 63.0938 54.0978Z" fill="#EDAE50"/>
<path d="M111.523 83.2364C110.553 83.2293 109.583 83.2084 108.613 83.2227C108.304 83.2268 108.235 83.0392 108.168 82.8073C107.905 82.7237 107.913 82.473 107.872 82.264C107.559 80.6556 107.263 79.0425 106.922 77.44C106.083 73.4997 105.141 69.5875 103.993 65.7309C103.796 65.0664 103.583 64.407 103.39 63.7409C103.331 63.5382 103.219 63.3172 103.409 63.1141C103.479 63.0305 103.573 63.0305 103.665 63.0476C104.744 63.2566 105.823 63.4655 106.883 63.7672C107.579 65.8115 108.165 67.8913 108.705 69.9854C109.439 72.8311 110.069 75.7033 110.656 78.5854C110.875 79.6619 111.52 83.2097 111.523 83.2364Z" fill="#45423D"/>
<path d="M63.094 54.0969C64.3696 53.8696 65.6572 53.7375 66.9441 53.6171C67.872 53.5302 68.8048 53.4747 69.7352 53.4082C72.3201 53.221 74.9073 53.2247 77.4938 53.2703C79.3725 53.3033 81.2498 53.4074 83.1252 53.5628C84.3747 53.6665 85.6215 53.7855 86.8662 53.9339C87.9113 54.0593 88.9485 54.2402 89.9944 54.3823C90.3323 54.4279 90.5873 54.6009 90.8288 54.8311C91.6613 55.6251 92.2493 56.5962 92.7109 57.656C93.2607 58.9155 93.6379 60.2327 93.888 61.5904C93.8299 61.7809 93.681 61.7834 93.5303 61.7738C92.8662 61.732 92.2005 61.6831 91.5383 61.6188C90.9544 61.5624 90.3679 61.5352 89.7848 61.5009C88.8552 61.4475 87.9244 61.3421 86.9903 61.3961C86.6299 61.4174 86.2744 61.3225 85.9148 61.3166C85.4277 61.3091 85.2765 61.419 85.1074 61.89C84.1118 64.6677 83.292 67.5026 82.5713 70.3701C81.4579 74.7997 80.6089 79.2873 79.8949 83.8034C79.7033 85.0102 79.5477 86.2229 79.377 87.4335C79.3422 87.6796 79.3167 87.932 79.1663 88.1439C79.0489 88.2667 78.8997 88.2752 78.756 88.2362C78.0867 88.056 77.4217 87.8544 76.7537 87.669C76.7014 87.6565 76.6529 87.6311 76.6122 87.5947C76.5716 87.5582 76.5401 87.5119 76.5206 87.46C76.4128 87.1577 76.4805 86.8505 76.5238 86.5529C77.2046 81.668 78.0379 76.8134 79.1344 72.0107C79.9095 68.6142 80.793 65.2519 81.9252 61.9635C82.0965 61.4662 82.0002 61.3217 81.4995 61.3158C79.5154 61.2928 77.5347 61.3647 75.5513 61.4637C74.5549 61.5139 73.5588 61.5565 72.5648 61.6434C72.4983 61.6434 72.4314 61.6459 72.3645 61.6464C71.3268 61.6535 71.3028 61.6773 70.9755 62.6848C69.0711 68.5427 67.7399 74.5477 66.7114 80.6325C66.4038 82.4524 66.1343 84.2781 65.8603 86.1034C65.8355 86.2707 65.8178 86.4352 65.7169 86.5753C65.6208 86.7368 65.4622 86.7585 65.3028 86.7843C64.4753 86.9093 63.6431 86.9969 62.8197 87.1496C62.6342 87.1841 62.4063 87.2253 62.3691 86.9138C62.5071 85.9518 62.6454 84.9898 62.784 84.0278C63.1428 81.5255 63.5492 79.0321 64.0031 76.5477C64.5983 73.2924 65.2791 70.0626 66.1202 66.8716C66.5207 65.358 66.9345 63.8478 67.4379 62.3668C67.6141 61.8478 67.6133 61.8478 67.2324 61.4892C66.3137 60.6213 65.3981 59.75 64.4745 58.8875C64.3048 58.7322 64.1859 58.5252 64.1345 58.2958C63.8217 57.0308 63.4937 55.7701 63.1709 54.5076C63.115 54.3787 63.089 54.2379 63.0948 54.0965L63.094 54.0969Z" fill="#45423D"/>
<path d="M63.0942 54.0957C63.143 54.2282 63.1987 54.359 63.1703 54.5069C63.0902 54.382 62.9884 54.2591 63.0942 54.0957Z" fill="#A9A9A9"/>
<path d="M84.3004 90.4188C82.7659 89.5587 81.1568 88.8811 79.5113 88.294C79.3613 88.2403 79.2041 88.2006 79.0898 88.0726C79.2593 86.8476 79.416 85.6207 79.6001 84.3984C80.0273 81.5685 80.5264 78.7527 81.0968 75.9509C81.966 71.7043 83.0055 67.5063 84.3724 63.4018C84.5914 62.7449 84.8179 62.0909 85.0455 61.4378C85.1603 61.1072 85.1655 61.106 85.5049 61.116C87.3975 61.172 89.2898 61.2476 91.1798 61.3713C92.0839 61.4302 92.9861 61.5172 93.8895 61.5915C95.3816 61.7411 96.8689 61.9329 98.3531 62.1523C98.9839 62.246 99.6146 62.332 100.24 62.4537C100.601 62.6037 100.824 62.8912 101.041 63.2213C101.868 64.4779 102.527 65.8347 103.075 67.233C103.648 68.6956 104.173 70.1874 104.527 71.7332C104.667 72.3416 104.864 72.9346 105.008 73.5409C105.476 75.5363 105.996 77.5188 106.375 79.5372C106.569 80.5723 106.775 81.6065 107.031 82.6295C107.099 82.9015 107.212 83.2095 106.876 83.4055C106.84 83.4473 106.81 83.4995 106.767 83.5242C106.172 83.8522 105.77 84.3863 105.38 84.9308C104.728 85.8397 104.083 86.7534 103.435 87.6657C103.252 87.7492 103.101 87.6801 102.952 87.5686C102.172 86.9852 101.384 86.4121 100.589 85.8489C100.185 85.5618 100.154 85.4181 100.425 84.9943C100.81 84.3925 101.223 83.8117 101.62 83.2187C101.773 82.9906 101.936 82.7686 102.061 82.5221C102.286 82.075 102.203 81.6291 101.858 81.3621C101.512 81.095 101.082 81.1494 100.751 81.5367C100.333 82.0257 100.004 82.586 99.648 83.1247C98.5151 84.8277 97.3804 86.5294 96.2434 88.23C96.1365 88.3897 96.0278 88.5493 95.955 88.7314C95.7889 89.1453 95.9048 89.5712 96.2415 89.8008C96.5899 90.038 96.9908 89.9913 97.2859 89.6386C97.6991 89.1456 98.0258 88.5839 98.385 88.0509C98.6141 87.7084 98.8425 87.3659 99.0788 87.0293C99.2434 86.7954 99.4253 86.7608 99.6623 86.9194C100.526 87.4991 101.351 88.1373 102.194 88.748C102.336 88.8506 102.475 88.9716 102.469 89.1817C102.205 89.6297 101.943 90.0792 101.677 90.5258C101.544 90.7502 101.401 90.9684 101.269 91.1946C100.721 92.1293 100.704 93.0957 101.176 94.0554C102.449 96.6389 103.772 99.1951 105.264 101.651C105.45 101.956 105.65 102.251 105.837 102.555C106.362 103.411 107.148 103.754 108.072 103.782C108.964 103.81 109.853 103.708 110.741 103.627C110.721 107.495 109.66 111.034 107.674 114.291C107.395 114.746 107.094 114.941 106.552 114.925C105.114 114.88 103.674 114.916 102.235 114.92C101.945 114.879 101.955 114.61 101.915 114.409C101.745 113.579 101.52 112.766 101.283 111.954C100.373 108.825 99.054 105.841 97.3624 103.088C96.816 102.198 96.2055 101.357 95.6333 100.488C95.1008 99.7627 94.527 99.073 93.9345 98.4035C92.8796 97.2113 91.7846 96.0591 90.5861 95.0185C88.8525 93.5224 86.9959 92.1893 85.0376 91.0338C84.7665 90.8639 84.4414 90.7583 84.3004 90.4188Z" fill="#B9E1E1"/>
<path d="M106.784 83.5024C106.895 83.2516 106.885 82.9056 106.828 82.6695C106.322 80.6114 102.749 66.263 100.729 63.1054C100.485 62.7227 100.427 62.6211 100.234 62.4536C101.183 62.5305 102.113 62.7394 103.054 62.8765C103.126 62.8851 103.195 62.9114 103.255 62.9532C103.316 62.9949 103.366 63.051 103.402 63.1167C104.663 67.1148 105.746 71.1648 106.649 75.2667C107.202 77.7665 107.77 80.4526 108.222 82.975C108.223 82.9808 108.225 82.9863 108.229 82.9913C108.319 83.1672 108.343 83.1188 107.814 83.1877C107.487 83.2316 107.046 83.3841 106.784 83.5024Z" fill="#DCF9FB"/>
<path d="M76.6077 87.4118C75.7863 87.2447 74.9657 87.0619 74.1422 86.9151C73.1598 86.7415 72.1693 86.6216 71.1749 86.5561C70.2337 86.4921 69.3005 86.4726 68.3577 86.4704C67.8279 86.4704 67.2912 86.5241 66.7581 86.4833C66.5398 86.3085 66.5791 86.0716 66.6107 85.834C67.0629 82.4315 67.5888 79.0437 68.274 75.6794C68.7546 73.3099 69.2957 70.9572 69.9618 68.6388C70.5978 66.424 71.3387 64.2481 72.4869 62.2536C72.66 61.9535 72.6872 61.7053 72.5042 61.4241C72.6307 61.371 72.7653 61.3714 72.8979 61.3651C75.9201 61.2222 78.942 61.0672 81.9686 61.096C82.0991 61.096 82.2349 61.0638 82.3616 61.1316C82.4126 61.2816 82.3279 61.404 82.284 61.529C80.9497 65.3317 79.941 69.2364 79.0729 73.1808C78.3364 76.5272 77.7247 79.8987 77.1977 83.2873C76.9854 84.6605 76.8048 86.0374 76.6077 87.4118Z" fill="#B9E1E1"/>
<path d="M72.7734 61.3714C73.3145 61.3054 73.2632 61.3363 72.9388 61.9147C72.0629 63.4759 71.3251 65.081 70.7617 66.7747C70.4348 67.7563 70.118 68.7471 69.8733 69.7596C69.6062 70.8645 69.291 71.9565 69.0431 73.0672C68.7919 74.1913 68.5801 75.3237 68.3478 76.452C68.1099 77.6075 67.8672 78.7617 67.6862 79.928C67.4058 81.7388 67.1351 83.5509 66.8739 85.3643C66.821 85.7333 66.7538 86.1048 66.7646 86.4826C66.6296 86.5455 65.7052 86.6452 65.6348 86.4826C65.6956 85.5937 65.8554 84.7182 65.9872 83.8402C66.3132 81.6706 66.6796 79.508 67.0862 77.3526C68.035 72.3714 69.2041 67.4487 70.7708 62.638C70.8698 62.3355 70.9867 62.0388 71.0744 61.7329C71.1257 61.5536 71.2278 61.4872 71.3916 61.4822C71.7669 61.4626 72.7069 61.3685 72.7734 61.3714Z" fill="#DCF9FB"/>
<path d="M122.736 122.647C121.804 122.573 120.766 121.807 120.024 123.784C119.287 125.743 120.37 126.497 120.207 126.431C120.126 126.421 120.045 126.418 119.964 126.423C119.353 126.431 118.722 126.325 118.113 126.325C117.897 126.221 117.948 126.037 117.984 125.859C118.291 124.319 118.761 122.819 119.386 121.387C120.213 119.51 121.225 117.752 122.493 116.156C124.255 113.939 126.32 112.102 128.721 110.675C131.22 109.19 133.903 108.272 136.744 107.872C138.118 107.678 139.502 107.606 140.89 107.707C141.417 107.746 141.828 107.522 142.111 107.069C142.226 106.885 142.354 106.744 142.551 106.671C142.78 106.669 142.988 106.77 143.206 106.821C143.687 106.933 143.737 106.915 143.948 106.462C144.288 105.728 144.641 105.003 145.081 104.326C145.189 104.253 145.279 104.155 145.344 104.039C145.914 103.128 146.643 102.375 147.5 101.757C147.524 101.746 147.551 101.741 147.577 101.744C147.888 101.744 147.968 101.991 148.043 102.232C148.371 103.292 148.74 104.333 149.196 105.342C149.952 107.014 150.885 108.56 152.082 109.925C152.261 110.128 152.487 110.309 152.382 110.641C151.758 111.783 151.134 112.926 150.511 114.068C150.419 114.235 150.318 114.398 150.221 114.563C150.047 114.851 149.851 115.123 149.636 115.377C149.58 115.335 149.52 115.298 149.458 115.266C149.422 115.247 149.354 115.185 149.319 115.165C148.666 114.794 148.758 114.769 149.083 114.078C149.287 113.642 149.394 113.201 149.265 112.709C149.214 112.506 149.123 112.317 148.999 112.152C148.874 111.987 148.718 111.851 148.541 111.753C148.123 111.516 147.69 111.293 147.213 111.188C146.543 111.044 145.843 111.367 145.521 111.999C145.414 112.208 145.34 112.432 145.24 112.645C145.099 112.956 145.017 112.999 144.708 112.907C143.886 112.663 143.056 112.463 142.206 112.364C142.126 112.355 142.05 112.322 141.971 112.315C141.744 112.287 141.648 112.148 141.651 111.919C141.651 111.696 141.636 111.473 141.651 111.25C141.703 110.408 141.189 109.839 140.443 109.685C139.905 109.574 139.35 109.582 138.815 109.707C138.131 109.868 137.726 110.304 137.631 111.044C137.592 111.319 137.57 111.596 137.563 111.874C137.559 112.235 137.536 112.266 137.185 112.337C136.754 112.426 136.319 112.492 135.887 112.578C135.442 112.667 135.001 112.777 134.565 112.909C134.282 112.996 134.216 112.961 134.098 112.685C133.989 112.432 133.887 112.175 133.746 111.937C133.377 111.311 132.708 111.021 132.024 111.205C131.533 111.339 131.065 111.555 130.639 111.843C130.019 112.261 129.792 113.05 130.055 113.794C130.133 114.015 130.248 114.222 130.339 114.439C130.455 114.711 130.445 114.775 130.216 114.922C129.407 115.438 128.658 116.041 127.914 116.651C127.696 116.829 127.637 116.831 127.433 116.635C127.252 116.451 127.06 116.279 126.858 116.119C126.286 115.687 125.504 115.682 124.966 116.156C124.591 116.486 124.236 116.847 123.969 117.288C123.564 117.957 123.657 118.751 124.209 119.294C124.432 119.514 124.455 119.531 124.818 119.789C124.261 120.371 123.172 121.941 122.853 122.56" fill="#414141"/>
<path d="M115.281 126.246C113.04 126.244 110.799 126.242 108.558 126.239C104.996 126.239 101.435 126.239 97.873 126.239C97.0521 126.239 97.0382 126.212 97.1522 125.372C97.2325 124.759 97.2467 124.147 96.9171 123.59C96.562 122.989 96.0602 122.604 95.386 122.496C95.0571 122.44 94.7253 122.405 94.3923 122.391C93.9917 122.379 93.9194 122.275 93.9044 121.853C93.8564 120.491 93.7495 119.137 93.4986 117.794C93.3989 117.263 93.4263 117.218 93.9366 117.071C94.3495 116.953 94.7515 116.805 95.1201 116.574C96.0355 115.999 96.3044 115.017 96.085 114.007C95.9849 113.548 95.8323 113.099 95.6845 112.652C95.3001 111.493 94.2827 110.89 93.1289 111.115C92.7336 111.193 92.3549 111.324 91.9739 111.45C91.6608 111.554 91.6217 111.544 91.4762 111.226C90.8703 109.893 90.1555 108.617 89.3395 107.411C89.1861 107.186 89.1944 107.116 89.4276 106.933C89.7483 106.68 90.0078 106.358 90.3048 106.08C91.0199 105.411 91.0067 104.004 90.5793 103.332C90.1761 102.7 89.6657 102.162 89.11 101.689C88.4114 101.093 87.1855 101.071 86.4085 101.8C86.1411 102.051 85.8374 102.26 85.6007 102.546C85.459 102.718 85.3281 102.722 85.1601 102.574C84.7641 102.223 84.364 101.877 83.953 101.546C83.3091 101.027 82.6315 100.559 81.9441 100.102C81.3486 99.707 81.3764 99.796 81.679 99.1412C81.8054 98.8808 81.9164 98.6123 82.0116 98.3375C82.3581 97.267 82.0439 96.0946 80.9391 95.5094C80.4625 95.2589 79.9836 95.0003 79.4699 94.8542C78.7491 94.6497 78.0452 94.6872 77.4117 95.1783C77.1546 95.3799 76.9485 95.644 76.8109 95.9475C76.6403 96.3095 76.4905 96.6817 76.3272 97.047C76.2034 97.3222 76.1761 97.3395 75.897 97.2479C74.826 96.8969 73.7311 96.6571 72.6237 96.4735C72.3605 96.432 72.0966 96.39 71.8331 96.3507C71.4514 96.2929 71.4217 96.262 71.4149 95.8438C71.4097 95.4961 71.4109 95.1481 71.4149 94.7991C71.4237 93.8331 70.9343 93.211 70.1421 92.8078C69.9144 92.6879 69.6652 92.6191 69.4104 92.6063C68.812 92.5849 68.2125 92.5452 67.6149 92.6478C66.4755 92.8468 65.7678 93.6767 65.7325 94.8785C65.7237 95.1846 65.7325 95.4906 65.7289 95.7978C65.7234 96.2672 65.7049 96.2815 65.272 96.3532C63.9415 96.5732 62.615 96.8131 61.3222 97.221C61.0138 97.3181 60.9769 97.2972 60.836 96.9797C60.7018 96.6766 60.5708 96.372 60.4355 96.0693C59.9028 94.8653 58.6676 94.4761 57.5294 94.909C57.103 95.0702 56.6869 95.2592 56.2834 95.4752C55.6214 95.8327 55.1848 96.3841 55.0419 97.1699C54.9683 97.5823 55.0054 98.0079 55.1492 98.3996C55.2733 98.7531 55.438 99.0872 55.5934 99.426C55.7251 99.7136 55.7103 99.7791 55.4584 99.9384C54.3958 100.611 53.4034 101.385 52.4346 102.195C52.31 102.299 52.1943 102.417 52.0741 102.524C51.867 102.705 51.8034 102.705 51.5935 102.516C51.3616 102.307 51.1225 102.105 50.9054 101.88C50.0872 101.031 48.5553 101.036 47.761 101.938C47.5267 102.204 47.3037 102.481 47.0634 102.741C46.7726 103.054 46.7534 103.043 46.4554 102.757C46.2023 102.512 45.6055 101.965 45.5631 101.933C45.1654 101.47 45.1818 101.466 45.5843 100.992C49.0064 96.9617 53.3447 93.8938 58.2003 92.0699C60.6477 91.1506 63.1665 90.5514 65.7546 90.3186C67.3354 90.1817 68.9236 90.1659 70.5066 90.2718C72.6503 90.4061 74.7748 90.7732 76.8454 91.3673C78.5444 91.8521 80.1966 92.4992 81.7817 93.3C82.8647 93.8331 83.9151 94.4352 84.9273 95.1029C86.3448 96.0395 87.6869 97.0956 88.9398 98.2602C90.1386 99.3833 91.264 100.589 92.3088 101.869C92.4505 102.053 92.5833 102.244 92.7063 102.442C93.6839 103.593 94.4684 104.887 95.2011 106.211C96.6741 108.861 97.7763 111.718 98.4738 114.694C98.7175 115.735 98.8795 116.791 99.0595 117.845C99.2159 118.764 99.8624 119.079 100.656 118.634C101.65 118.076 102.282 116.749 102.137 115.575C102.106 115.32 101.937 115.032 102.199 114.792C102.407 114.67 102.636 114.68 102.863 114.679C104.064 114.675 105.263 114.663 106.463 114.685C106.958 114.694 107.29 114.501 107.556 114.073C108.548 112.469 109.304 110.718 109.799 108.88C110.188 107.445 110.468 105.989 110.564 104.497C110.575 104.343 110.573 104.189 110.556 104.037C110.536 103.855 110.579 103.706 110.74 103.611C111 103.606 111.569 103.572 111.595 103.57C112.592 103.508 112.592 103.509 112.594 104.554C112.594 105.348 112.589 106.142 112.596 106.933C112.603 107.659 112.788 107.883 113.468 108.061C115.096 108.494 116.743 108.633 118.422 108.543C119.198 108.501 119.956 108.355 120.726 108.292C120.885 108.273 121.041 108.231 121.189 108.166C121.656 107.98 121.794 107.79 121.801 107.261C121.813 106.273 121.797 105.285 121.809 104.297C121.812 104.081 121.769 103.845 121.953 103.67C122.255 103.428 122.544 103.613 122.814 103.731C123.482 104.023 123.984 104.543 124.445 105.105C125.299 106.146 125.933 107.335 126.535 108.544C126.587 108.642 126.61 108.754 126.599 108.865C126.577 109.136 126.389 109.271 126.198 109.4C124.625 110.461 123.212 111.72 121.913 113.126C120.422 114.737 119.186 116.538 118.14 118.485C116.924 120.745 116.097 123.155 115.609 125.696C115.567 125.908 115.609 126.211 115.281 126.246Z" fill="#45423D"/>
<path d="M115.28 126.246C115.381 125.772 115.477 125.297 115.584 124.825C116.455 120.954 118.128 117.499 120.543 114.43C122.147 112.379 124.049 110.604 126.18 109.168C126.303 109.084 126.438 109.017 126.514 108.875C126.61 108.708 133.878 103.828 142.007 105.396C142.491 105.762 142.548 106.467 142.285 107.106C142.028 107.73 141.55 107.926 140.783 107.907C140.075 107.889 139.369 107.849 138.664 107.89C137.48 107.951 136.302 108.108 135.14 108.357C131.958 109.053 129.059 110.402 126.458 112.438C123.42 114.817 121.127 117.825 119.552 121.429C118.914 122.9 118.434 124.441 118.119 126.023C118.1 126.118 117.838 127.646 117.759 128.321C117.685 128.948 117.398 129.385 116.818 129.592C115.966 129.895 115.056 129.247 115.038 128.308C115.027 127.835 115.125 127.37 115.193 126.904C115.221 126.719 115.25 126.277 115.28 126.246Z" fill="#A19D98"/>
<path d="M108.344 122.99C106.89 122.99 105.437 122.995 103.983 122.988C103.302 122.985 102.809 122.638 102.528 122.002C102.248 121.366 102.334 120.748 102.742 120.196C103.065 119.759 103.529 119.592 104.043 119.575C104.39 119.563 104.736 119.57 105.084 119.57C107.538 119.572 109.991 119.574 112.444 119.576C112.909 119.576 113.342 119.659 113.711 119.988C114.219 120.444 114.426 121.182 114.215 121.84C114.111 122.173 113.909 122.464 113.638 122.671C113.367 122.878 113.04 122.991 112.704 122.993C111.251 123.001 109.798 122.995 108.345 122.995L108.344 122.99Z" fill="#FCBE4F"/>
<path d="M62.3645 86.9119C62.4555 86.9877 62.5596 86.9896 62.6665 86.9675C63.5757 86.7821 64.4953 86.675 65.4156 86.5757C65.4957 86.5665 65.4557 86.5676 65.6828 86.5452C68.9149 86.2943 73.2231 86.479 76.611 87.4126C77.3579 87.6281 78.1105 87.7885 78.8582 88.0026C78.9347 88.0074 82.5944 89.4038 84.0164 90.2013C84.1439 90.2959 84.2057 90.3466 84.2969 90.4195C84.355 91.1033 84.1514 91.6172 83.7685 92.084C83.2353 92.7347 82.531 93.2012 81.7428 93.4966C80.7291 93.0368 79.7196 92.5659 78.6726 92.1892C76.8202 91.5216 74.9115 91.0371 72.972 90.7428C71.282 90.4916 69.5753 90.3841 67.8687 90.4209C65.8551 90.4562 63.8503 90.7075 61.886 91.171C55.7892 92.5997 50.2611 95.9502 46.0511 100.768C45.9166 100.923 45.7792 101.074 45.6442 101.228C45.3639 101.549 45.2413 101.757 45.0347 102.012C44.6914 102.437 44.3574 102.87 44.023 103.302C43.242 104.312 41.8695 104.366 41.0144 103.308C40.4357 102.591 40.5338 101.511 41.0048 100.83C41.5184 100.102 42.0674 99.4018 42.6497 98.7319C43.2448 98.037 43.8247 97.3274 44.4772 96.6892C45.3915 95.7957 46.3019 94.8952 47.2963 94.0984C50.6922 91.377 54.4141 89.3019 58.5161 87.9912C59.6001 87.644 60.701 87.3574 61.8143 87.1323C62.0105 87.0937 62.2164 87.0793 62.3645 86.9119Z" fill="#EDAE50"/>
<path d="M95.7363 100.365C96.7301 101.592 97.5386 102.95 98.3197 104.327C99.2381 105.946 100.002 107.644 100.648 109.4C101.242 111.012 101.755 112.65 102.096 114.342C102.136 114.532 102.184 114.718 102.229 114.909C102.318 115.429 102.421 115.942 102.312 116.478C102.089 117.575 101.565 118.434 100.564 118.913C99.7256 119.313 98.9981 118.894 98.8612 117.942C98.5005 115.435 97.9117 112.987 97.0143 110.625C95.9527 107.831 94.5611 105.234 92.7915 102.857C92.7112 102.748 92.6358 102.633 92.5586 102.52C92.7502 101.857 93.147 101.32 93.5287 100.769C93.7428 100.459 94.0743 100.51 94.3507 100.419C94.7973 100.273 95.2668 100.153 95.7363 100.365Z" fill="#EDAE50"/>
<path d="M95.5109 100.309C93.3198 100.124 92.6313 102.38 92.5612 102.521C91.615 101.318 90.6164 100.167 89.5297 99.0984C87.3213 96.9211 84.8155 95.0976 82.0942 93.688C81.9738 93.6265 81.8583 93.5625 81.7402 93.497C81.8422 93.3716 82.7437 93.1873 83.4955 92.118C84.1315 91.2134 84.2812 90.5998 84.2939 90.4199C85.0113 90.701 85.6375 91.1578 86.2882 91.5636C87.4128 92.2588 88.4939 93.028 89.5252 93.8664C90.4567 94.6304 91.3604 95.4261 92.221 96.281C92.8113 96.8662 93.364 97.4857 93.9213 98.0993C94.57 98.8129 95.224 99.531 95.7378 100.366" fill="#FCD38C"/>
<path d="M152.342 110.633C152.107 110.223 151.749 109.923 151.462 109.556C149.913 107.586 148.803 105.367 148.022 102.962C147.932 102.685 147.85 102.406 147.76 102.13C147.723 102.013 147.694 101.879 147.534 101.883C145.561 100.12 143.179 99.1363 140.846 98.0592C137.321 96.4348 133.641 95.318 129.919 94.3339C126.999 93.5622 124.041 92.9898 121.074 92.4601C120.804 92.4123 120.515 92.3887 120.329 92.1261C120.28 91.9352 120.28 91.7406 120.28 91.5463C120.275 89.2439 120.277 86.9411 120.283 84.6387C120.283 84.3879 120.209 84.0996 120.469 83.9141C121.054 84.0641 121.658 84.0641 122.251 84.1502C123.373 84.3123 124.501 84.4331 125.621 84.6098C127.071 84.8363 128.525 85.0378 129.964 85.3386C130.957 85.5476 131.956 85.7235 132.947 85.9442C134.108 86.2028 135.27 86.4644 136.417 86.769C138.329 87.2759 140.24 87.7905 142.104 88.4744C142.846 88.7466 143.581 89.0401 144.332 89.2818C145.098 89.5275 145.698 90.0182 146.269 90.5704C147.51 91.7718 148.748 92.9766 149.947 94.2254C150.748 95.0612 151.553 95.8911 152.317 96.7651C152.647 97.144 153.013 97.4902 153.358 97.8584C153.953 98.4963 154.507 99.1735 155.116 99.7977C155.606 100.299 155.896 100.931 155.932 101.654C155.982 102.669 155.951 103.676 155.704 104.676C155.249 106.514 154.409 108.136 153.271 109.603C152.986 109.968 152.691 110.327 152.342 110.633Z" fill="#EDAE50"/>
<path d="M102.464 89.1726L99.7066 87.177C99.6608 87.1483 99.6177 87.116 99.5768 87.0799C99.41 86.9129 99.3098 86.9898 99.2045 87.1634C99.0481 87.4217 98.873 87.6677 98.7046 87.9183C98.306 88.5094 97.9156 89.1072 97.5061 89.6895C97.2016 90.1221 96.8153 90.2553 96.3893 90.1162C95.7515 89.9073 95.4635 89.1907 95.7792 88.5701C95.8786 88.3744 96.0106 88.1964 96.1321 88.0143C97.5346 85.9164 98.9382 83.8192 100.343 81.7222C100.431 81.5831 100.528 81.4504 100.634 81.3252C101 80.914 101.555 80.8497 101.975 81.1581C102.179 81.3072 102.323 81.5297 102.38 81.783C102.437 82.0363 102.402 82.3026 102.283 82.5308C102.158 82.7753 101.998 83.0005 101.846 83.2283C101.411 83.8777 100.971 84.5237 100.533 85.171C100.358 85.4293 100.354 85.4347 100.604 85.6165C101.544 86.3001 102.485 86.9817 103.428 87.6615L102.464 89.1726Z" fill="#45423E"/>
<path d="M113.828 83.3955C113.957 83.4903 113.949 83.6349 113.949 83.7716C113.952 86.2119 113.952 88.6515 113.949 91.0911C113.952 91.1746 113.938 91.2574 113.909 91.335C113.744 91.544 113.508 91.5355 113.285 91.5362C112.46 91.5403 111.636 91.4943 110.812 91.4777C108.509 91.4259 106.206 91.4571 103.9 91.4619C103.74 91.4619 103.58 91.4711 103.431 91.5454C103.344 91.5874 103.264 91.6473 103.276 91.7625C103.288 91.8772 103.381 91.9129 103.474 91.9383C103.538 91.9556 103.605 91.9637 103.672 91.9622C104.802 91.9365 105.932 91.9854 107.065 91.9114C108.152 91.8401 109.245 91.8618 110.337 91.9302C111.279 91.9891 112.225 92.0141 113.168 92.0494C113.409 92.0582 113.649 92.0409 113.863 92.1903C113.97 92.7494 114.137 93.3027 114.023 93.8846C114.02 93.938 114.006 93.9898 113.981 94.0362C113.804 94.2551 113.531 94.2595 113.302 94.3592C112.868 94.5471 112.653 94.8539 112.667 95.3527C112.729 97.6316 112.556 99.9076 112.586 102.186C112.59 102.45 112.595 102.714 112.624 102.977C112.684 103.546 112.533 103.733 111.983 103.792C111.837 103.807 111.69 103.811 111.542 103.815C111.286 103.819 111.03 103.82 110.775 103.799C110.026 103.921 109.268 103.93 108.514 103.984C107.114 104.082 106.087 103.488 105.358 102.229C104.346 100.481 103.325 98.74 102.4 96.9404C101.984 96.133 101.599 95.3104 101.161 94.514C100.459 93.2346 100.451 91.9839 101.272 90.7593C101.63 90.2259 101.891 89.6245 102.32 89.1411C102.557 88.5588 102.941 88.074 103.287 87.563C104.079 86.3436 104.916 85.1577 105.817 84.0227C106.091 83.6763 106.474 83.4628 106.826 83.2141C107.294 83.0821 108.989 83.047 109.419 83.0323C109.907 83.0152 110.397 83.0256 110.886 83.0323C111.119 83.034 113.38 83.1619 113.828 83.3955Z" fill="#EDAE50"/>
<path d="M142.565 106.857C142.414 106.769 142.321 106.648 142.331 106.456C142.361 105.871 141.998 105.583 141.555 105.367C140.964 105.142 136.46 104.701 131.983 106.323C130.408 106.855 128.89 107.519 127.461 108.398C127.198 108.56 126.907 108.669 126.66 108.864C126.625 108.891 126.559 108.874 126.508 108.877C126.157 108.353 125.924 107.76 125.608 107.215C125.118 106.373 124.6 105.556 123.937 104.845C123.417 104.287 122.828 103.86 122.082 103.703C121.877 103.72 121.847 103.564 121.822 103.411C121.799 103.232 121.792 103.051 121.798 102.87C121.798 101.606 121.777 100.341 121.804 99.0779C121.828 97.882 121.697 96.692 121.713 95.4976C121.72 95.0429 121.513 94.7342 121.112 94.5577C120.953 94.487 120.798 94.4061 120.649 94.3153C120.534 94.245 120.41 94.1725 120.461 93.9941L120.476 93.0903C120.608 92.8986 120.788 92.9259 120.981 92.9557C123.197 93.3037 125.398 93.7333 127.583 94.245C130.212 94.8652 132.824 95.5457 135.383 96.433C137.433 97.1433 139.462 97.9158 141.427 98.8609C142.359 99.3093 143.309 99.7213 144.16 100.329C144.481 100.557 144.739 100.861 144.982 101.178C145.562 101.93 145.415 102.803 145.361 103.659C145.345 103.927 145.223 104.175 145.201 104.444C144.7 105.24 144.271 106.083 143.922 106.964C143.851 107.147 143.755 107.215 143.556 107.144C143.233 107.03 142.897 106.952 142.565 106.857Z" fill="#EDAE50"/>
<path d="M145.205 104.445C145.093 104.221 145.111 103.98 145.152 103.75C145.24 103.267 145.209 102.78 145.209 102.295C145.209 101.819 144.957 101.449 144.68 101.11C144.333 100.687 143.908 100.34 143.43 100.091C141.193 98.905 138.878 97.918 136.508 97.0609C134.796 96.4407 133.068 95.875 131.313 95.4059C129.094 94.8137 126.867 94.2671 124.613 93.8183C123.318 93.5608 122.013 93.3676 120.717 93.1164C120.639 93.1013 120.557 93.0987 120.479 93.0899C120.479 92.7835 120.479 92.4778 120.479 92.1729C121.276 92.2519 122.059 92.4171 122.845 92.5646C123.867 92.7563 124.887 92.9597 125.905 93.1756C126.974 93.4041 128.044 93.6259 129.101 93.9187C129.911 94.1427 130.73 94.3333 131.542 94.554C133.528 95.094 135.491 95.7142 137.429 96.415C139.004 96.9841 140.526 97.6896 142.058 98.3716C143.514 99.0231 144.927 99.7772 146.286 100.628C146.685 100.877 147.051 101.182 147.428 101.468C147.561 101.57 147.681 101.692 147.536 101.881C147.029 102.351 146.505 102.801 146.054 103.336C145.754 103.693 145.489 104.075 145.205 104.445Z" fill="#FCD38C"/>
<path d="M113.835 91.3408L113.838 92.2572C111.171 92.0287 106.2 92.0287 103.691 92.1762C103.5 92.1663 103.31 92.1461 103.122 92.1148C102.982 92.0817 102.766 91.893 102.77 91.7753C102.776 91.559 102.895 91.4545 103.05 91.3743C103.243 91.2731 103.502 91.2544 103.719 91.2544C106.12 91.2544 108.521 91.2165 110.921 91.2768C111.891 91.3011 112.864 91.3162 113.835 91.3408Z" fill="#FCD38C"/>
<path d="M154.984 102.455C154.997 103.354 154.824 104.181 154.577 104.993C154.142 106.431 153.432 107.714 152.529 108.884C152.346 109.122 152.337 109.123 152.145 108.888C151.267 107.811 150.565 106.617 149.963 105.354C149.511 104.406 149.14 103.423 148.808 102.423C148.706 102.114 148.718 102.058 149.015 101.899C150.054 101.342 151.144 100.947 152.305 100.774C152.835 100.695 153.369 100.697 153.898 100.629C153.951 100.624 154.005 100.623 154.058 100.626C154.561 100.635 154.641 100.702 154.83 101.18C154.997 101.607 154.994 102.049 154.984 102.455Z" fill="#FEFEFE"/>
<path d="M120.43 84.119C120.43 86.7754 120.459 92.6018 120.522 94.2362C120.373 94.4338 120.18 94.3617 120.006 94.3098C118.128 93.7378 116.238 93.8228 114.342 94.1844C114.182 94.2145 114.026 94.2561 113.891 94.1193L113.881 94.1329C113.793 94.0074 113.881 81.0262 113.87 80.1951C113.865 79.8382 113.922 79.5147 114.092 79.2013C114.301 78.816 114.483 78.4153 114.678 78.0208C114.705 77.9921 114.741 77.9743 114.779 77.9707C116.965 78.9447 118.771 80.0751 120.417 81.8315C120.393 82.4662 120.417 83.3158 120.43 84.119Z" fill="#414141"/>
<path d="M114.787 77.818H114.755L114.723 77.8117C114.881 77.4185 114.89 77.0065 114.888 76.5877C114.883 75.3374 114.903 74.0867 114.891 72.8368C114.887 72.3809 115.019 72.0115 115.292 71.6551C116.637 69.8959 118.1 68.2373 119.668 66.6914C120.664 65.7085 121.722 64.7955 122.884 64.0249C123.105 64.0801 123.011 64.2301 122.961 64.3454C122.248 65.9852 122.349 67.7048 122.573 69.4114C122.671 70.1636 122.871 70.9388 123.47 71.4913C123.513 71.5261 123.542 71.5763 123.551 71.6321C123.56 71.6878 123.548 71.745 123.519 71.7925C122.165 72.449 121.103 73.4687 120.205 74.6926C120.072 74.8732 119.975 75.0641 120.007 75.3023C119.948 76.7921 119.961 78.2806 120.011 80.7319C120.008 80.7583 120.005 80.7845 120 80.8105C119.8 80.9521 119.669 80.7921 119.546 80.6826C119.011 80.2079 118.492 79.7152 117.915 79.2919C117.285 78.8284 116.639 78.3959 115.941 78.0516C115.573 77.8711 115.199 77.7491 114.787 77.818Z" fill="#A19D98"/>
<path d="M123.755 63.8418C124.025 63.9826 124.163 64.2179 124.231 64.52C124.406 65.2882 124.521 66.0698 124.575 66.8572C124.67 68.2037 124.482 69.5066 124.16 70.7992C124.093 71.0682 124.015 71.3336 123.844 71.5559C123.674 71.586 123.621 71.4573 123.552 71.334C122.757 69.9082 122.613 68.3524 122.711 66.7499C122.724 66.53 122.758 66.3102 122.772 66.0887C122.817 65.2374 123.168 64.4352 123.755 63.8418Z" fill="#A19D98"/>
<path d="M121.301 94.3966C121.716 94.5868 121.92 94.866 121.936 95.3839C122.02 97.9957 121.998 100.607 122.004 103.219C122.004 103.386 122.021 104.082 122.02 104.276C122.013 105.359 121.996 106.444 122.01 107.526C122.015 107.908 121.863 108.125 121.548 108.263C118.911 109.015 115.486 108.978 113.085 108.179C112.544 108.008 112.399 107.797 112.395 107.214C112.39 106.45 112.395 105.686 112.395 104.921C112.395 104.602 112.401 104.282 112.395 103.963C112.39 103.643 112.475 98.6902 112.475 98.5379C112.475 97.3707 112.484 96.2031 112.473 95.0359C112.469 94.6691 112.598 94.4484 112.927 94.295C116.74 93.0381 118.742 93.4037 121.301 94.3966Z" fill="#A19D98"/>
<path d="M113.185 101.274V95.641C113.185 95.5435 113.182 95.446 113.185 95.3482C113.193 94.9616 113.225 94.9097 113.582 94.7736C114.923 94.2369 118.844 93.7289 120.937 95.1698C121.267 95.3511 121.32 95.5365 121.334 95.9746C121.388 96.9612 121.294 104.291 121.297 107.114C121.297 107.17 121.297 107.226 121.297 107.281C121.288 107.684 121.262 107.703 120.87 107.788C118.429 108.317 116.002 108.247 113.584 107.62C113.227 107.528 113.207 107.519 113.207 107.114C113.204 105.821 113.204 104.527 113.207 103.234C113.207 102.58 113.207 101.926 113.207 101.272L113.185 101.274Z" fill="#45423D"/>
<path d="M114.697 77.8986C114.743 77.5413 114.953 77.5042 115.356 77.6028C115.84 77.7531 116.303 77.969 116.734 78.2451C117.692 78.8418 118.61 79.4988 119.415 80.3136C119.595 80.4958 119.803 80.6479 119.999 80.8122C120.026 80.9322 120.088 81.0406 120.177 81.1226C120.431 81.3613 120.466 81.6371 120.414 81.9851C119.991 81.9225 119.754 81.6592 119.486 81.3508C118.759 80.515 117.909 79.8385 117.008 79.2225C116.452 78.8431 115.603 78.4285 114.986 78.172C114.774 78.0842 114.673 78.0896 114.697 77.8986Z" fill="#DCF9FB"/>
<path d="M123.76 63.842C123.902 63.923 123.993 63.9602 123.626 64.2987C123.163 64.7325 122.856 65.8261 122.887 67.6196C122.917 68.8085 122.932 69.867 123.848 71.5561C123.771 71.6815 123.67 71.7738 123.521 71.7926C121.969 70.2009 122.119 65.3029 122.885 64.025C123.203 63.6819 123.389 63.6431 123.76 63.842Z" fill="#DCF9FB"/>
</svg>
