<svg width="200" height="200" viewBox="0 0 200 200" fill="none" xmlns="http://www.w3.org/2000/svg">
<path fill-rule="evenodd" clip-rule="evenodd" d="M100 200C44.8575 200 0 155.14 0 100C0 44.8575 44.8575 0 100 0C155.143 0 200 44.8575 200 100C200 155.14 155.143 200 100 200Z" fill="#C9FFC6"/>
<path d="M143.092 65L133.125 99.6918C131.816 104.231 130.776 108.835 130.004 113.504C130.004 113.536 130.004 113.569 130.004 113.569H129.701C129.433 110.975 128.728 108.381 128.292 106.176L117.318 65H94.8652L83.9581 106.144C83.5217 108.349 82.817 110.942 82.5483 113.536H82.2464C82.2464 113.504 82.2464 113.471 82.2464 113.471C81.4745 108.803 80.4342 104.199 79.1252 99.6595L69.1912 65H53.2833L57.9483 81.3084H41V92.9805H61.2708L64.5933 104.588H41V116.292H67.9158L73.2521 135H92.2476L105.101 85.9448C105.504 84.1292 105.873 82.1514 105.974 80.7573H106.276C106.377 82.119 106.746 84.1292 107.148 85.9448L120.002 135H138.998L159 65H143.092Z" fill="#004032"/>
</svg>
