<svg width="200" height="200" viewBox="0 0 200 200" fill="none" xmlns="http://www.w3.org/2000/svg">
<path d="M100 200C155.228 200 200 155.228 200 100C200 44.7715 155.228 0 100 0C44.7715 0 0 44.7715 0 100C0 155.228 44.7715 200 100 200Z" fill="#2775CA"/>
<path d="M41.0491 78.0574C28.8371 110.55 45.6807 147.261 78.5249 159.075C79.7882 159.92 81.0514 161.607 81.0514 162.873V168.781C81.0514 169.625 81.0514 170.047 80.63 170.468C80.2096 172.156 78.5249 173 76.8403 172.156C53.2601 164.561 35.1533 146.416 27.5739 122.786C14.9415 82.6997 36.838 40.0803 76.8403 27.4213C77.2617 27 78.1035 27 78.5249 27C80.2096 27.4213 81.0514 28.6872 81.0514 30.3754V36.2826C81.0514 38.3931 80.2096 39.659 78.5249 40.5026C61.261 46.8321 47.3653 60.3347 41.0491 78.0574Z" fill="white"/>
<path d="M119.37 29.1095C119.79 27.4213 121.475 26.5777 123.16 27.4213C146.318 35.0167 164.847 53.1616 172.426 77.2138C185.059 117.3 163.162 159.92 123.16 172.579C122.738 173 121.896 173 121.475 173C119.79 172.579 118.949 171.313 118.949 169.625V163.717C118.949 161.607 119.79 160.341 121.475 159.497C138.739 153.168 152.635 139.665 158.951 121.943C171.163 89.4505 154.319 52.7393 121.475 40.9249C120.212 40.0803 118.949 38.3931 118.949 36.7049V30.7977C118.949 29.9531 118.949 29.5318 119.37 29.1095Z" fill="white"/>
<path d="M101.263 92.8269C118.949 94.9364 127.791 100 127.791 114.769C127.791 126.162 119.37 135.023 106.738 137.133V147.261C106.316 149.37 105.053 150.636 103.368 150.636H97.0523C94.9472 150.214 93.684 148.948 93.684 147.261V137.133C79.7883 135.023 73.0507 127.428 71.3671 116.879V116.457C71.3671 114.769 72.6303 113.503 74.3139 113.503H81.473C82.7362 113.503 83.9995 114.347 84.4199 116.034C85.6831 122.364 89.4728 127.006 100.422 127.006C108.421 127.006 114.317 122.365 114.317 115.613C114.317 108.861 110.527 106.33 98.7369 104.22C81.0516 102.11 72.6303 96.6246 72.6303 82.6997C72.6303 72.1502 80.6301 63.7112 93.2625 62.023V52.3181C93.684 50.2075 94.9472 48.9416 96.6319 48.9416H102.948C105.053 49.3639 106.316 50.6298 106.316 52.3181V62.4453C116.001 63.2889 123.58 70.462 125.265 79.7456V80.1679C125.265 81.8551 124.002 83.121 122.317 83.121H115.58C114.317 83.121 113.054 82.2774 112.633 81.0115C110.527 74.682 106.316 72.1502 98.7369 72.1502C90.3157 72.1502 86.1045 75.9469 86.1045 81.8551C86.1045 87.7633 88.631 91.1387 101.263 92.8269Z" fill="white"/>
</svg>
