<svg width="200" height="200" viewBox="0 0 200 200" fill="none" xmlns="http://www.w3.org/2000/svg">
<path d="M100 200C155.228 200 200 155.228 200 100C200 44.7715 155.228 0 100 0C44.7715 0 0 44.7715 0 100C0 155.228 44.7715 200 100 200Z" fill="white"/>
<path d="M66 40.6L72.1969 34L100.021 63.6816L127.803 34L134 40.6L78.3523 100L100.021 123.118L121.689 100L105.261 82.486L111.458 75.886L130.922 96.6816C131.047 96.829 131.172 96.9397 131.255 97.0871L134 100.037L106.176 129.718L134 159.4L127.803 166L66 100.037L67.1229 98.8201C67.2061 98.7095 67.2477 98.6357 67.3309 98.5251L93.7823 70.2816L66 40.6Z" fill="black"/>
<path d="M66.0416 159.4L89.2905 134.585L95.4875 141.185L72.197 166L66.0416 159.4Z" fill="black"/>
</svg>
