<svg width="200" height="200" viewBox="0 0 200 200" fill="none" xmlns="http://www.w3.org/2000/svg">
<path d="M100 200C155.228 200 200 155.228 200 100C200 44.7715 155.228 0 100 0C44.7715 0 0 44.7715 0 100C0 155.228 44.7715 200 100 200Z" fill="url(#paint0_radial_1854_43532)"/>
<path d="M50.6182 51.3354C71.661 30.4387 102.546 25.7201 128 36.8425L114.764 49.9869C96.7762 44.9315 76.7519 49.3131 62.8366 63.4686C44.17 82.006 42.4728 110.654 57.4062 131.214L77.4306 111.329L89.649 123.462L57.0667 155.481C54.6926 153.797 52.6572 151.776 50.6216 149.755L50.6182 149.751C23.1273 122.451 23.1273 78.2986 50.6182 51.3354Z" fill="white"/>
<path d="M71.9994 164.237C97.7936 175.36 128.678 170.304 149.382 149.745C176.873 122.444 176.873 78.6292 149.382 51.3288C147.345 49.3066 145.309 47.2843 142.933 45.5992L110.69 77.6179L122.909 89.7514L142.933 69.8659C157.867 90.4253 155.83 119.411 137.503 137.611C123.248 151.767 103.224 156.149 85.5751 151.093L71.9994 164.237Z" fill="white"/>
<path d="M100.17 88.4077L112.388 100.541L100.17 112.675L87.9511 100.541L100.17 88.4077Z" fill="white"/>
<path d="M77.09 65.4963L89.3081 77.6298L77.09 89.7634L64.8715 77.6298L77.09 65.4963Z" fill="white"/>
<path d="M123.249 111.334L135.467 123.468L123.249 135.601L111.031 123.468L123.249 111.334Z" fill="white"/>
<defs>
<radialGradient id="paint0_radial_1854_43532" cx="0" cy="0" r="1" gradientUnits="userSpaceOnUse" gradientTransform="translate(99.9373 99.9464) rotate(90) scale(99.9513)">
<stop stop-color="#304FFE"/>
<stop offset="1" stop-color="#3D5AFE"/>
</radialGradient>
</defs>
</svg>
