<svg width="200" height="200" viewBox="0 0 200 200" fill="none" xmlns="http://www.w3.org/2000/svg">
<path d="M100 200C155.228 200 200 155.228 200 100C200 44.7715 155.228 0 100 0C44.7715 0 0 44.7715 0 100C0 155.228 44.7715 200 100 200Z" fill="url(#paint0_linear_1854_40289)"/>
<path d="M100 39.374V78.749L106.875 96.874L100 90.624V109.999C111.25 124.374 125.625 136.249 142.5 144.999L100 39.374Z" fill="url(#paint1_linear_1854_40289)"/>
<path d="M100 39.374V78.749L93.125 96.874L100 90.624V109.999C88.75 124.374 74.375 136.249 57.5 144.999L100 39.374Z" fill="url(#paint2_linear_1854_40289)"/>
<path d="M100 134.375C105.625 134.375 109.375 130 109.375 125C109.375 119.375 105 115.625 100 115.625C94.375 115.625 90.625 120 90.625 125C90.625 130 94.375 134.375 100 134.375Z" fill="#F5CC02"/>
<defs>
<linearGradient id="paint0_linear_1854_40289" x1="29.2894" y1="170.711" x2="170.711" y2="29.2888" gradientUnits="userSpaceOnUse">
<stop stop-color="#102054"/>
<stop offset="1" stop-color="#1A45B8"/>
</linearGradient>
<linearGradient id="paint1_linear_1854_40289" x1="121.201" y1="39.2178" x2="121.201" y2="146.679" gradientUnits="userSpaceOnUse">
<stop stop-color="white"/>
<stop offset="1" stop-color="white" stop-opacity="0.6"/>
</linearGradient>
<linearGradient id="paint2_linear_1854_40289" x1="78.8" y1="145.93" x2="78.8" y2="40.4697" gradientUnits="userSpaceOnUse">
<stop stop-color="white"/>
<stop offset="1" stop-color="white" stop-opacity="0.6"/>
</linearGradient>
</defs>
</svg>
