<svg width="200" height="200" viewBox="0 0 200 200" fill="none" xmlns="http://www.w3.org/2000/svg">
<path d="M100 200C155.228 200 200 155.228 200 100C200 44.7715 155.228 0 100 0C44.7715 0 0 44.7715 0 100C0 155.228 44.7715 200 100 200Z" fill="#288195"/>
<path d="M113.597 91.6895L139.8 106.918L166 91.6895V101.642L139.8 116.873L113.597 101.642L61.1974 132.101L35 116.873V106.918L78.8406 81.4337L61.1974 71.1832V61.2307L87.3974 46L166 91.6895L164.428 92.6022L87.3974 47.828L62.7956 62.1513L88.9956 77.3794L88.1834 77.8305L36.572 107.833L61.1974 122.148L113.597 91.6895Z" fill="white"/>
<path d="M61.1974 143.62L113.597 112.866L139.8 128.241L166 112.866V124.246L139.8 139.624L113.597 124.246L61.1974 155L35 139.624V128.241L61.1974 143.62Z" fill="white"/>
</svg>
