<svg width="200" height="200" viewBox="0 0 200 200" fill="none" xmlns="http://www.w3.org/2000/svg">
<path d="M100 200C155.228 200 200 155.228 200 100C200 44.7715 155.228 0 100 0C44.7715 0 0 44.7715 0 100C0 155.228 44.7715 200 100 200Z" fill="#6AAE20"/>
<path fill-rule="evenodd" clip-rule="evenodd" d="M93.2727 40.7573C79.4053 47.9809 49.5348 66.0254 47.5581 68.3725C44.1452 72.4259 43.7342 76.6732 44.1171 103.941C44.417 125.277 44.6619 128.131 46.4488 131.08C47.9482 133.557 54.1359 137.651 71.3529 147.56C102.441 165.45 97.9734 165.432 128.504 147.794C148.778 136.08 152.643 133.459 154.184 130.377C155.77 127.207 155.999 123.403 156 100.296C156.002 76.527 155.807 73.4781 154.078 70.2323C152.479 67.23 148.156 64.3035 128.454 52.8844C102.991 38.1261 100.182 37.1579 93.2727 40.7573ZM125.391 56.2547C137.947 63.3788 148.804 69.998 149.517 70.9631C150.479 72.2642 150.814 79.8807 150.814 100.396C150.814 125.275 150.63 128.282 148.998 130.145C146.266 133.263 103.06 157.33 100.196 157.33C96.3297 157.33 51.634 131.64 50.2602 128.629C49.5296 127.026 49.1218 116.704 49.1218 99.8037C49.1218 73.9571 49.1644 73.4273 51.4566 70.8885C54.827 67.1554 96.7261 43.2951 99.9065 43.2971C101.392 43.2992 112.619 49.0072 125.391 56.2547ZM93.2229 56.377C80.2696 63.2927 62.8959 73.7529 60.5362 76.0543C57.9701 78.5569 57.9389 78.8046 57.6224 98.6675C57.3734 114.3 57.6307 119.535 58.7846 122.294C60.0579 125.339 62.788 127.276 78.186 136.053C88.0418 141.672 97.1422 146.467 98.4071 146.71C99.6731 146.951 102.994 145.979 105.786 144.55C116.743 138.942 137.938 126.105 139.659 124.037C141.257 122.115 141.475 119.324 141.475 100.733V79.6122L138.621 76.5457C135.525 73.2179 105.235 55.2491 101.005 54.231C99.2538 53.8091 96.7261 54.5058 93.2229 56.377ZM116.059 67.1782C136.576 78.7683 135.788 77.8695 126.767 79.4069C116.52 81.1517 107.778 85.9173 103.087 92.3157C99.9449 96.6014 99.3078 97.0358 98.4113 95.5077C93.5051 87.1437 85.6126 82.1998 73.0495 79.6246L64.2916 77.8281L71.493 73.812C75.4548 71.6017 82.8742 67.3306 87.9816 64.3201C93.088 61.3085 98.1767 58.8453 99.2881 58.8453C100.399 58.8453 107.946 62.595 116.059 67.1782ZM69.2703 99.7415C73.4947 106.943 78.6872 110.506 91.9258 115.29L96.8548 117.071V128.908C96.8548 136.008 96.4449 140.743 95.8295 140.743C95.2661 140.743 89.7799 137.794 83.6369 134.188C77.4949 130.583 70.252 126.365 67.5405 124.815L62.6116 121.996L62.6904 102.083L62.7703 82.1707L64.7004 88.706C65.7619 92.3002 67.8186 97.2659 69.2703 99.7415ZM135.427 122.319C134.081 123.664 103.951 140.743 102.925 140.743C102.44 140.743 102.043 135.417 102.043 128.908V117.071L106.972 115.275C116.77 111.706 120.374 109.884 124.098 106.618C128.378 102.863 133.875 92.6651 135.01 86.3693C135.482 83.7506 135.874 89.555 136.051 101.792C136.206 112.584 135.926 121.821 135.427 122.319ZM79.6688 89.9189C86.5776 92.8776 94.0437 100.724 95.7538 106.825C96.5165 109.548 96.89 112.027 96.5818 112.334C95.4632 113.452 85.1436 107.328 80.7511 102.94C76.5537 98.7463 71.9506 91.4294 71.9506 88.9507C71.9506 87.3386 74.3445 87.6382 79.6688 89.9189ZM126.938 89.1684C126.919 91.6657 120.848 101.024 117.132 104.283C112.971 107.933 103.201 113.218 102.292 112.311C101.973 111.991 102.3 109.743 103.022 107.317C104.971 100.751 110.445 94.7219 117.779 91.0614C124.686 87.6123 126.952 87.1448 126.938 89.1684Z" fill="white"/>
</svg>
