<svg width="200" height="200" viewBox="0 0 200 200" fill="none" xmlns="http://www.w3.org/2000/svg">
<path d="M100 200C155.228 200 200 155.228 200 100C200 44.7715 155.228 0 100 0C44.7715 0 0 44.7715 0 100C0 155.228 44.7715 200 100 200Z" fill="#050505"/>
<path d="M100 33C108.141 33 115.803 37.2913 119.634 43.9682C123.466 51.1212 123.466 59.705 119.634 66.3807L100 99.7613L80.3668 66.3807C76.5356 59.2277 76.5356 51.1212 80.3668 43.9682C84.1969 37.2913 91.8594 33 100 33Z" fill="white"/>
<path d="M32 100.238C32 92.131 36.3094 84.5007 43.4925 80.6867C50.1975 76.8715 58.8175 76.8715 66.0006 80.6867L100 100.238L66.0006 119.79C59.2956 123.605 50.6757 123.605 43.4925 119.79C36.3094 115.497 32 108.344 32 100.238Z" fill="white"/>
<path d="M100 100.238L134.001 80.6867C140.704 76.8715 149.324 76.8715 156.507 80.6867C163.691 84.5007 168 92.131 168 100.238C168 108.344 163.691 115.974 156.507 119.79C149.803 123.605 141.184 123.605 134.001 119.79L100 100.238Z" fill="white"/>
<path d="M100 100.238L119.634 133.619C123.466 140.772 123.466 148.879 119.634 156.032C115.803 162.709 108.141 167 100 167C91.8594 167 84.1969 163.185 80.3668 156.032C76.5356 148.879 76.5356 140.772 80.3668 133.619L100 100.238Z" fill="white"/>
</svg>
