<svg width="200" height="200" viewBox="0 0 200 200" fill="none" xmlns="http://www.w3.org/2000/svg">
<path d="M100 200C155.228 200 200 155.228 200 100C200 44.7715 155.228 0 100 0C44.7715 0 0 44.7715 0 100C0 155.228 44.7715 200 100 200Z" fill="black"/>
<path fill-rule="evenodd" clip-rule="evenodd" d="M82 96.3576C80.0102 98.3602 80.0102 101.624 82 103.658L94.9033 116.712V180C76.0616 174.655 60.9973 140.205 60.9973 100C60.9973 59.8108 76.0771 25.3449 94.9033 20V83.3032L82 96.3576ZM72.2992 24.2458C59.1697 40.4583 50.6824 68.0147 50.6824 99.888C50.6824 131.762 59.1697 159.318 72.2992 175.53C41.7887 164.155 20 134.535 20 99.888C20 65.2575 41.7887 35.6528 72.2992 24.2458ZM127.922 24.2458C156.874 35.0889 177.97 62.394 180 94.8601H149.425C148.582 65.1087 140.337 39.5872 127.922 24.2458ZM180 105.139H149.44C148.582 134.781 140.337 160.238 127.922 175.53C156.874 164.738 177.97 137.503 180 105.139ZM139.225 94.8601C137.985 56.9176 123.306 25.1095 105.097 20V83.3169L116.609 94.8601H139.225ZM116.63 105.139H139.224C138 143.098 123.298 174.89 105.097 180V116.699L116.63 105.139Z" fill="white"/>
</svg>
