<svg width="200" height="200" viewBox="0 0 200 200" fill="none" xmlns="http://www.w3.org/2000/svg">
<path d="M100 200C155.228 200 200 155.228 200 100C200 44.7715 155.228 0 100 0C44.7715 0 0 44.7715 0 100C0 155.228 44.7715 200 100 200Z" fill="#6344DF"/>
<path fill-rule="evenodd" clip-rule="evenodd" d="M100 69.8423C83.3455 69.8423 69.8421 83.3435 69.8421 100C69.8421 116.654 83.3455 130.156 100 130.156C109.257 130.156 117.538 125.983 123.07 119.417L145.901 138.635C134.895 151.698 118.418 160 100 160C66.8618 160 40 133.136 40 100C40 66.8619 66.8618 40 100 40V69.8423ZM151.844 130.213L126.056 115.185C126.937 113.679 127.69 112.089 128.301 110.431L156.311 120.755C155.095 124.054 153.595 127.216 151.844 130.213ZM130.156 99.9999H160C160 96.4457 159.689 92.9642 159.096 89.5796L129.701 94.7627C129.999 96.464 130.156 98.2136 130.156 99.9999ZM146.121 61.624L123.181 80.7119C122.058 79.3628 120.818 78.1145 119.479 76.9799L138.755 54.1995C141.42 56.4567 143.886 58.9404 146.121 61.624Z" fill="white"/>
</svg>
