<svg width="200" height="200" viewBox="0 0 200 200" fill="none" xmlns="http://www.w3.org/2000/svg">
<g clip-path="url(#clip0_1854_40429)">
<path fill-rule="evenodd" clip-rule="evenodd" d="M100 0C155.22 0 200 44.78 200 100C200 155.22 155.22 200 100 200C44.78 200 0 155.22 0 100C0 44.78 44.78 0 100 0Z" fill="white"/>
<path d="M150.011 73.1246C148.683 73.1246 147.41 73.6522 146.47 74.5912C145.531 75.5303 145.004 76.8039 145.004 78.1319C145.004 79.46 145.531 80.7336 146.47 81.6727C147.41 82.6117 148.683 83.1393 150.011 83.1393C151.339 83.1393 152.612 82.612 153.55 81.6734C154.489 80.7347 155.016 79.4617 155.016 78.1343C155.016 76.8069 154.489 75.5338 153.55 74.5952C152.612 73.6566 151.339 73.1293 150.011 73.1293V73.1246ZM99.9941 2.48532e-07C86.8618 0.000925778 73.8582 2.58845 61.7259 7.61483C49.5935 12.6412 38.57 20.008 29.2847 29.2947C19.9994 38.5813 12.6341 49.6058 7.60944 61.7389C2.58476 73.872 -0.000925477 86.8759 2.48482e-07 100.008C0.000925974 113.141 2.58845 126.144 7.61483 138.276C12.6412 150.409 20.008 161.432 29.2947 170.718C38.5813 180.003 49.6058 187.368 61.7389 192.393C73.872 197.418 86.8759 200.003 100.008 200.002C126.53 200 151.964 189.463 170.716 170.708C189.468 151.954 200.002 126.518 200 99.9965C199.998 73.4751 189.461 48.0408 170.706 29.2887C151.951 10.5366 126.515 -0.00186865 99.9941 2.48532e-07ZM145.476 141.832C139.651 148.267 132.548 153.418 124.62 156.954C116.693 160.491 108.115 162.337 99.4349 162.373H99.3174C90.5575 162.361 81.898 160.507 73.9013 156.931C65.9046 153.354 58.7494 148.136 52.9002 141.615C46.9984 135.098 42.5551 127.396 39.8669 119.025C37.1788 110.653 36.3077 101.804 37.3119 93.0694C38.9147 79.0866 45.1829 66.0519 55.1047 56.0696C65.0264 46.0873 78.0227 39.7399 91.9955 38.0521C94.4158 37.7701 96.8549 37.6291 99.2939 37.6291C113.047 37.602 126.415 42.1706 137.275 50.6092C137.797 51.0067 138.171 51.5673 138.337 52.2018C138.503 52.8364 138.452 53.5082 138.192 54.1103C138.022 54.5123 137.765 54.8717 137.44 55.163L130.818 61.0938C130.122 61.7145 129.222 62.0574 128.29 62.0572C127.491 62.0566 126.712 61.8106 126.058 61.3523C119.426 56.7115 111.7 53.8769 103.641 53.127C95.5815 52.3772 87.4657 53.738 80.0916 57.0757C74.0406 59.7949 68.6312 63.7599 64.2167 68.7117C59.7719 73.6499 56.4339 79.481 54.4263 85.8143C52.4187 92.1476 51.7878 98.8369 52.5759 105.434C53.8255 115.97 58.5874 125.778 66.0937 133.277C73.6 140.775 83.4131 145.527 93.9505 146.766C95.7364 146.959 97.5363 147.062 99.3362 147.062C105.548 147.07 111.7 145.837 117.429 143.437C123.159 141.036 128.352 137.515 132.703 133.081C133.064 132.715 133.494 132.424 133.969 132.225C134.443 132.026 134.952 131.922 135.466 131.92C136.213 131.92 136.944 132.139 137.567 132.55L144.917 137.372C145.273 137.609 145.575 137.919 145.802 138.282C146.029 138.645 146.176 139.053 146.233 139.477C146.286 139.902 146.246 140.334 146.116 140.742C145.986 141.15 145.77 141.525 145.481 141.841L145.476 141.832ZM150.011 93.2292C146.007 93.2292 142.167 91.6386 139.336 88.8073C136.505 85.976 134.914 82.136 134.914 78.1319C134.914 74.1279 136.505 70.2879 139.336 67.4566C142.167 64.6253 146.007 63.0347 150.011 63.0347C154.015 63.0347 157.855 64.6253 160.687 67.4566C163.518 70.2879 165.108 74.1279 165.108 78.1319C165.108 82.136 163.518 85.976 160.687 88.8073C157.855 91.6386 154.015 93.2292 150.011 93.2292Z" fill="url(#paint0_linear_1854_40429)"/>
</g>
<defs>
<linearGradient id="paint0_linear_1854_40429" x1="49.5259" y1="215.534" x2="546.957" y2="-27.0364" gradientUnits="userSpaceOnUse">
<stop stop-color="#382BC6"/>
<stop offset="1" stop-color="#FF3CAC"/>
</linearGradient>
<clipPath id="clip0_1854_40429">
<rect width="200" height="200" fill="white"/>
</clipPath>
</defs>
</svg>
