<?xml version="1.0" encoding="utf-8"?>
<!-- Generator: Adobe Illustrator 25.0.1, SVG Export Plug-In . SVG Version: 6.00 Build 0)  -->
<svg version="1.1" xmlns="http://www.w3.org/2000/svg" xmlns:xlink="http://www.w3.org/1999/xlink" x="0px" y="0px"
	 viewBox="0 0 67.92 68.65" style="enable-background:new 0 0 67.92 68.65;" xml:space="preserve">
<style type="text/css">
	.st0{clip-path:url(#SVGID_8_);fill:#4D4D4D;}
	.st1{fill:#ED1C24;}
	.st2{fill:url(#SVGID_9_);}
	.st3{fill:url(#SVGID_10_);}
	.st4{fill:url(#SVGID_11_);}
	.st5{fill:url(#SVGID_12_);}
	.st6{fill:url(#SVGID_13_);}
	.st7{fill:url(#SVGID_14_);}
	.st8{fill:url(#SVGID_15_);}
	.st9{fill:url(#SVGID_16_);}
	.st10{fill:url(#SVGID_17_);}
	.st11{opacity:0.21;fill:url(#SVGID_18_);}
	.st12{fill:none;stroke:#FFFFFF;stroke-width:4;stroke-miterlimit:10;}
	.st13{fill:#8DC121;}
	.st14{fill:url(#SVGID_19_);}
	.st15{fill:url(#SVGID_20_);}
	.st16{fill:#127C7A;}
	.st17{fill:#3E9197;}
	.st18{fill:#F6BE33;}
	.st19{fill:#5AB8AA;}
	.st20{fill:#F9E783;}
	.st21{fill:#F9E09E;}
	.st22{fill:#FFFFFF;}
	.st23{fill:#C9C9C9;}
	.st24{opacity:0.53;}
	.st25{clip-path:url(#SVGID_21_);fill:#407F73;}
	.st26{fill:#C6972C;}
	.st27{fill:none;stroke:#8DC121;stroke-width:5;stroke-miterlimit:10;}
	.st28{fill:#FFE6E6;}
	.st29{fill:#BFD34B;}
	.st30{fill:#8DA408;}
	.st31{fill:#505C05;}
	.st32{fill:#FD5E5A;}
	.st33{fill:#32213D;}
	.st34{fill:#432B48;}
	.st35{fill:#6A7B06;}
	.st36{fill:#1E2A18;}
	.st37{fill:#FB8603;}
	.st38{opacity:0.49;fill:#BC6502;}
	.st39{fill:#FFD078;}
	.st40{fill:#E87605;}
	.st41{fill:#0C143F;}
	.st42{fill:#D04C72;}
	.st43{fill:#ED9AB2;}
	.st44{fill:#593960;}
	.st45{fill:#3F5625;}
	.st46{fill:#FF8C2E;}
	.st47{fill:#4D6330;}
	.st48{fill:#FC7575;}
	.st49{fill:#FF8888;}
	.st50{fill:#18287D;}
	.st51{fill:#2846A6;}
	.st52{fill:#662D91;}
	.st53{fill:#FBC802;}
	.st54{fill:#112E1C;}
	.st55{fill:#D9E021;}
	.st56{fill:#81A556;}
	.st57{fill:#A3A819;}
	.st58{fill:#FFEE4B;}
	.st59{fill:#FBB03B;}
	.st60{opacity:0.67;fill:#FF8C2E;}
	.st61{fill:#603813;}
	.st62{fill:#FFFF55;}
	.st63{fill:#E1E64D;}
	.st64{fill:#592C07;}
	.st65{fill:#A6E54C;}
	.st66{fill:#7C3E11;}
	.st67{fill:#DB6812;}
	.st68{fill:#F4F4F4;}
	.st69{fill:#B3B3B3;}
	.st70{fill:#E6E6E6;}
	.st71{clip-path:url(#SVGID_22_);fill:#407F73;}
	.st72{clip-path:url(#SVGID_23_);fill:#407F73;}
	.st73{clip-path:url(#SVGID_24_);fill:#407F73;}
	.st74{clip-path:url(#SVGID_26_);fill:#FFFFFF;}
	.st75{fill:url(#SVGID_27_);}
	.st76{fill:url(#SVGID_28_);}
	.st77{fill:none;stroke:#B3B3B3;stroke-width:4;stroke-miterlimit:10;}
	.st78{fill:#F2F2F2;}
	.st79{clip-path:url(#SVGID_29_);fill:#407F73;}
	.st80{clip-path:url(#SVGID_30_);fill:#407F73;}
	.st81{clip-path:url(#SVGID_32_);fill:#4D4D4D;}
	.st82{fill:#333333;}
	.st83{fill:url(#SVGID_33_);}
	.st84{fill:url(#SVGID_34_);}
	.st85{fill:none;stroke:#8DC121;stroke-width:2;stroke-miterlimit:10;}
	.st86{fill:none;stroke:#8DC121;stroke-miterlimit:10;}
	.st87{fill:url(#SVGID_35_);}
	.st88{fill:#666666;}
	.st89{fill:#BF3C22;}
	.st90{clip-path:url(#SVGID_37_);fill:#EDEDF2;}
	.st91{fill:url(#SVGID_38_);}
	.st92{fill:url(#SVGID_39_);}
	.st93{fill:url(#SVGID_40_);}
	.st94{clip-path:url(#SVGID_42_);fill:#4D4D4D;}
	.st95{fill:url(#SVGID_43_);}
	.st96{fill:url(#SVGID_44_);}
	.st97{fill:url(#SVGID_45_);}
	.st98{fill:none;stroke:#FFFFFF;stroke-miterlimit:10;}
	.st99{fill:url(#SVGID_46_);}
	.st100{clip-path:url(#SVGID_48_);fill:#EDEDF2;}
	.st101{fill:url(#SVGID_49_);}
	.st102{fill:url(#SVGID_50_);}
	.st103{fill:url(#SVGID_51_);}
	.st104{fill:#4D4D4D;}
	.st105{clip-path:url(#SVGID_53_);fill:#EDEDF2;}
	.st106{fill:url(#SVGID_54_);}
	.st107{fill:url(#SVGID_55_);}
	.st108{fill:url(#SVGID_56_);}
	.st109{clip-path:url(#SVGID_58_);fill:#4D4D4D;}
	.st110{fill:url(#SVGID_59_);}
	.st111{fill:url(#SVGID_60_);}
	.st112{fill:url(#SVGID_61_);}
	.st113{fill:none;stroke:#FFFFFF;stroke-width:0.75;stroke-miterlimit:10;}
	.st114{fill:none;stroke:#F9E783;stroke-miterlimit:10;}
	.st115{opacity:0.32;fill:none;stroke:#666666;stroke-width:2;stroke-miterlimit:10;}
	.st116{clip-path:url(#SVGID_63_);fill:#4D4D4D;}
	.st117{fill:url(#SVGID_64_);}
	.st118{fill:url(#SVGID_65_);}
	.st119{fill:url(#SVGID_66_);}
	.st120{opacity:0.32;fill:#F6BE33;}
	.st121{fill:#1A1A1A;}
	.st122{opacity:0.32;fill:none;stroke:#FFFFFF;stroke-width:2;stroke-miterlimit:10;}
	.st123{clip-path:url(#SVGID_68_);fill:#EDEDF2;}
	.st124{fill:url(#SVGID_69_);}
	.st125{fill:url(#SVGID_70_);}
	.st126{fill:url(#SVGID_71_);}
	.st127{clip-path:url(#SVGID_73_);fill:#4D4D4D;}
	.st128{fill:url(#SVGID_74_);}
	.st129{fill:url(#SVGID_75_);}
	.st130{fill:url(#SVGID_76_);}
	.st131{fill:#808080;}
	.st132{fill:#53AC9A;}
	.st133{clip-path:url(#SVGID_78_);fill:#EDEDF2;}
	.st134{fill:url(#SVGID_79_);}
	.st135{fill:url(#SVGID_80_);}
	.st136{fill:url(#SVGID_81_);}
	.st137{clip-path:url(#SVGID_83_);fill:#4D4D4D;}
	.st138{fill:url(#SVGID_84_);}
	.st139{fill:url(#SVGID_85_);}
	.st140{fill:url(#SVGID_86_);}
	.st141{clip-path:url(#SVGID_88_);fill:#EDEDF2;}
	.st142{fill:url(#SVGID_89_);}
	.st143{fill:url(#SVGID_90_);}
	.st144{fill:url(#SVGID_91_);}
	.st145{clip-path:url(#SVGID_93_);fill:#4D4D4D;}
	.st146{fill:url(#SVGID_94_);}
	.st147{fill:url(#SVGID_95_);}
	.st148{fill:url(#SVGID_96_);}
	.st149{fill:none;stroke:#FFFFFF;stroke-width:2;stroke-miterlimit:10;}
	.st150{clip-path:url(#SVGID_98_);fill:#EDEDF2;}
	.st151{fill:url(#SVGID_99_);}
	.st152{fill:url(#SVGID_100_);}
	.st153{fill:url(#SVGID_101_);}
	.st154{clip-path:url(#SVGID_103_);fill:#4D4D4D;}
	.st155{fill:url(#SVGID_104_);}
	.st156{fill:url(#SVGID_105_);}
	.st157{fill:url(#SVGID_106_);}
	.st158{clip-path:url(#SVGID_108_);}
	.st159{clip-path:url(#SVGID_110_);fill:#EDEDF2;}
	.st160{fill:url(#SVGID_111_);}
	.st161{fill:url(#SVGID_112_);}
	.st162{fill:url(#SVGID_113_);}
	.st163{clip-path:url(#SVGID_115_);}
	.st164{clip-path:url(#SVGID_117_);fill:#4D4D4D;}
	.st165{fill:url(#SVGID_118_);}
	.st166{fill:url(#SVGID_119_);}
	.st167{fill:url(#SVGID_120_);}
	.st168{clip-path:url(#SVGID_122_);fill:#EDEDF2;}
	.st169{fill:url(#SVGID_123_);}
	.st170{fill:url(#SVGID_124_);}
	.st171{fill:url(#SVGID_125_);}
	.st172{clip-path:url(#SVGID_127_);fill:#4D4D4D;}
	.st173{fill:url(#SVGID_128_);}
	.st174{fill:url(#SVGID_129_);}
	.st175{fill:url(#SVGID_130_);}
	.st176{clip-path:url(#SVGID_132_);fill:#EDEDF2;}
	.st177{fill:url(#SVGID_133_);}
	.st178{fill:url(#SVGID_134_);}
	.st179{fill:url(#SVGID_135_);}
	.st180{opacity:0.89;}
	.st181{fill:#333333;stroke:#5AB8AA;stroke-width:3;stroke-miterlimit:10;}
	.st182{fill:#FFFFFF;stroke:#5AB8AA;stroke-width:3;stroke-miterlimit:10;}
	.st183{fill:none;stroke:#808080;stroke-width:2;stroke-miterlimit:10;}
</style>
<g id="Layer_1">
</g>
<g id="Layer_2">
</g>
<g id="Layer_3">
</g>
<g id="Layer_4">
</g>
<g id="Layer_5">
</g>
<g id="Layer_6">
</g>
<g id="Layer_7">
	<g>
		<g>
			<linearGradient id="SVGID_8_" gradientUnits="userSpaceOnUse" x1="4.7853" y1="27.86" x2="73.144" y2="60.6718">
				<stop  offset="0" style="stop-color:#13577A"/>
				<stop  offset="0.3187" style="stop-color:#5AB8AA"/>
				<stop  offset="0.8563" style="stop-color:#8DC121"/>
			</linearGradient>
			<path style="fill:url(#SVGID_8_);" d="M40.4,43.31c-0.27,0.94-0.95,1.69-1.62,2.4l-2.42,2.59c-0.17,0.19-0.36,0.36-0.56,0.52
				v10.17c-0.96-0.78-1.86-1.62-2.8-2.43v-8.21c-0.11-0.09-0.21-0.17-0.31-0.26c-1.32-1.13-2.7-2.36-3.13-4.04
				c-0.33-1.3-0.03-2.65,0.14-3.98s0.19-2.78-0.6-3.86c1,0.61,1.99,1.33,2.5,2.38c0.39,0.79,0.46,1.69,0.66,2.54
				c0.44,1.92,1.9,3.47,2.31,5.24c0.2-1,0.64-1.94,1.42-2.58c0.47-0.39,1.02-0.65,1.53-0.98c1.41-0.92,2.4-2.34,3.36-3.71
				C40.22,40.35,40.8,41.93,40.4,43.31z M35.73,1.44c-1.24-2.48-2.92-1.42-3.89,0.63C26.77,12.76,21.69,23.44,16.4,34.01
				c-2.81,5.63-5.64,11.25-8.48,16.87C7.1,52.51-0.3,65.2,0.01,67.4c0.03,0.18,0.1,0.29,0.23,0.32c1.58,0.35,3.19,0.63,4.8,0.83
				c1.34,0.16,2.8,0.25,3.96-0.45c1.09-0.66,1.82-1.95,2.43-3.24c-0.24,0.4-0.47,0.8-0.68,1.22c0,0,0.57-1.18,1.52-3.04
				c0.06-0.12,0.11-0.24,0.17-0.35c0.26-0.52,0.52-1.04,0.78-1.56l0.06-0.05c-0.37,0.71-0.71,1.38-1.01,1.96
				c-0.27,0.56-0.54,1.19-0.83,1.83c3.56-5.93,9.57-10.02,16.45-11.12v-8.64l-2.05,0.43c-4.29,0.89-6.92,5.12-9.13,9.14l-0.49,0.44
				c2.54-5.07,5.08-10.13,7.61-15.2c2.21-4.42,4.42-8.83,6.64-13.25c0.41-0.82,4.15-6.59,3.72-7.43c1.83,3.62,3.66,7.23,5.5,10.85
				c3.95,7.8,7.91,15.61,11.86,23.41c0.13,0.25,0.25,0.5,0.38,0.75l-0.21-0.14c-2.86-4.36-6.28-8.22-9.75-8.78l-1.36-0.22v8.64
				l0.22,0.05c4.55,1.02,10.93,7.84,16.47,11.38l0.02,0.02l0.1,0.06c0.03,0.02,0.05,0.04,0.08,0.05c0,0,0-0.01-0.01-0.01l0.04,0.02
				c0,0,0,0.01,0.01,0.01c-0.02-0.01-0.03-0.02-0.05-0.03c0.14,0.23,0.29,0.46,0.46,0.67c0.06,0.08,0.12,0.15,0.18,0.22
				c0.08,0.09,0.15,0.2,0.24,0.28c0.2,0.21,0.46,0.37,0.73,0.51c1.19,0.71,2.72,0.87,4.16,0.82c1.7-0.06,2.97-0.28,4.66-0.16
				c-6.36-13.21-12.58-26.37-18.97-39.57C44.63,19.15,40.16,10.31,35.73,1.44z"/>
		</g>
	</g>
</g>
<g id="Layer_8">
</g>
<g id="Layer_10">
</g>
<g id="Layer_9">
</g>
<g id="Layer_11">
</g>
<g id="Layer_12">
</g>
<g id="Layer_13">
</g>
<g id="Layer_14">
</g>
<g id="Layer_15">
</g>
<g id="Layer_16">
</g>
<g id="Layer_17">
</g>
<g id="Layer_18">
</g>
<g id="Layer_19">
</g>
<g id="Layer_20">
</g>
<g id="Layer_21">
</g>
<g id="Layer_22">
</g>
<g id="Layer_23">
</g>
<g id="Layer_24">
</g>
<g id="Layer_25">
</g>
</svg>
