<svg width="200" height="200" viewBox="0 0 200 200" fill="none" xmlns="http://www.w3.org/2000/svg">
<mask id="mask0_2223_49001" style="mask-type:alpha" maskUnits="userSpaceOnUse" x="0" y="0" width="200" height="200">
<path d="M100 200C155.228 200 200 155.228 200 100C200 44.7715 155.228 0 100 0C44.7715 0 0 44.7715 0 100C0 155.228 44.7715 200 100 200Z" fill="#FB9E5C"/>
</mask>
<g mask="url(#mask0_2223_49001)">
<path d="M100 200C155.228 200 200 155.228 200 100C200 44.7715 155.228 0 100 0C44.7715 0 0 44.7715 0 100C0 155.228 44.7715 200 100 200Z" fill="#FB9E5C"/>
<rect x="126" y="118" width="24" height="24" rx="4" fill="#FB975C"/>
<rect x="-12" y="117" width="72" height="72" rx="4" fill="#FB975C"/>
<rect x="138" y="32" width="44" height="44" rx="4" fill="#FB975C"/>
<rect x="72" y="-15" width="44" height="44" rx="4" fill="#FB975C"/>
</g>
<g filter="url(#filter0_d_2223_49001)">
<path fill-rule="evenodd" clip-rule="evenodd" d="M150.934 55.999C151.065 53.0138 150.999 51.0437 150.755 50.685C150.15 49.7937 141.782 49.7658 137.007 50.6389C118.461 54.0315 97.0899 67.6455 81.521 85.9858L79.426 88.4528L62.0395 92.5966L55.5811 99.93C52.0291 103.964 49.0701 107.589 49.0059 107.986C48.9045 108.615 50.0329 109.082 57.7377 111.595L66.5864 114.483V116.487C66.5864 117.745 66.8752 119.435 67.2924 120.903C67.5915 121.957 67.9561 122.897 68.3258 123.482C68.9484 124.467 68.9548 124.459 64.9907 128.97C63.802 130.323 62.8302 131.585 62.8302 131.775C62.8302 131.966 64.1833 133.481 65.8367 135.141L68.8418 138.161L75.8265 131.13L78.4363 131.745C80.1038 132.137 82.1963 132.312 84.2335 132.231C87.1745 132.114 87.43 132.163 87.5571 132.863C87.9755 135.174 93.0077 149.829 93.4403 149.996C93.7445 150.114 96.9988 147.457 101.435 143.468L108.917 136.742L110.738 128.015C111.741 123.215 112.755 119.097 112.994 118.863C113.231 118.63 115.366 116.687 117.736 114.546C124.697 108.258 132.474 99.2352 137.832 91.2285C146.124 78.8399 150.442 67.2265 150.934 55.999ZM108.429 101.134C114.236 101.134 118.945 96.3758 118.945 90.5059C118.945 84.6359 114.236 79.8778 108.429 79.8778C102.621 79.8778 97.9128 84.6359 97.9128 90.5059C97.9128 96.3758 102.621 101.134 108.429 101.134Z" fill="white"/>
</g>
<defs>
<filter id="filter0_d_2223_49001" x="47" y="50" width="106" height="105" filterUnits="userSpaceOnUse" color-interpolation-filters="sRGB">
<feFlood flood-opacity="0" result="BackgroundImageFix"/>
<feColorMatrix in="SourceAlpha" type="matrix" values="0 0 0 0 0 0 0 0 0 0 0 0 0 0 0 0 0 0 127 0" result="hardAlpha"/>
<feOffset dy="3"/>
<feGaussianBlur stdDeviation="1"/>
<feComposite in2="hardAlpha" operator="out"/>
<feColorMatrix type="matrix" values="0 0 0 0 0 0 0 0 0 0 0 0 0 0 0 0 0 0 0.17 0"/>
<feBlend mode="normal" in2="BackgroundImageFix" result="effect1_dropShadow_2223_49001"/>
<feBlend mode="normal" in="SourceGraphic" in2="effect1_dropShadow_2223_49001" result="shape"/>
</filter>
</defs>
</svg>
