<svg width="200" height="200" viewBox="0 0 200 200" fill="none" xmlns="http://www.w3.org/2000/svg">
<path d="M100 200C155.228 200 200 155.228 200 100C200 44.7715 155.228 0 100 0C44.7715 0 0 44.7715 0 100C0 155.228 44.7715 200 100 200Z" fill="white"/>
<g clip-path="url(#clip0_1854_43758)">
<path d="M71.1399 48.679L129.976 82.6321V117.264L40 65.316L68.8359 48.679C69.1898 48.488 69.5857 48.3879 69.9879 48.3879C70.3901 48.3879 70.7859 48.488 71.1399 48.679Z" fill="#3CA9E5"/>
<path d="M129.976 48L99.9757 65.3161L129.976 82.6322V48Z" fill="#2853C3"/>
<path d="M129.976 48L158.836 64.637C159.183 64.8482 159.472 65.1432 159.675 65.4949C159.879 65.8466 159.99 66.2438 160 66.65V134.556L129.976 117.264V48Z" fill="#1A4199"/>
<path d="M159.976 134.581L131.14 151.218C130.771 151.43 130.353 151.542 129.927 151.542C129.502 151.542 129.084 151.43 128.715 151.218L69.9032 117.264V82.5837L159.976 134.581Z" fill="#2853C3"/>
<path d="M40 65.3159V133.222C39.9976 133.641 40.1035 134.053 40.3075 134.418C40.5115 134.784 40.8066 135.09 41.1641 135.308L70 151.945V82.5835L40 65.3159Z" fill="#60BEFF"/>
<path d="M70.0003 151.897L99.976 134.58L70.0003 117.264V151.897Z" fill="#3CA9E5"/>
</g>
<defs>
<clipPath id="clip0_1854_43758">
<rect width="120" height="103.945" fill="white" transform="translate(40 48)"/>
</clipPath>
</defs>
</svg>
