<svg width="200" height="200" viewBox="0 0 200 200" fill="none" xmlns="http://www.w3.org/2000/svg">
<path d="M100 200C155.228 200 200 155.228 200 100C200 44.7715 155.228 0 100 0C44.7715 0 0 44.7715 0 100C0 155.228 44.7715 200 100 200Z" fill="#C44536"/>
<path d="M93.4831 130.408C93.6286 98.8162 93.6286 98.8162 91.9889 98.5525C85.1168 97.4463 80.7316 95.7819 75.8581 92.4313C69.311 87.9294 65.2458 81.7863 63.6117 73.9256C62.4897 68.5281 62.8821 63.8498 65.0302 57.0112C67.2322 50.0011 67.2975 47.6223 65.3951 43.7381L63.9438 40.7751L69.7722 38.6508C76.3909 36.2386 76.2787 36.2162 77.9943 40.2909C79.6889 44.3154 79.5143 50.3659 77.517 56.8401C75.5109 63.3434 75.0842 66.4127 75.6201 70.4669C76.6604 78.325 81.4778 83.4019 89.9934 85.6125C94.5937 86.8069 106.173 86.7944 110.263 85.59C114.385 84.3763 118.363 82.035 120.399 79.6238C124.944 74.2394 125.764 67.3011 122.96 57.9509C120.414 49.4586 120.55 42.1606 123.33 38.2166C124.161 37.0382 124.161 37.0382 128.808 38.3698C137.261 40.7919 136.66 40.3116 134.943 43.2681C132.948 46.7058 133.009 49.4998 135.257 57.6206C137.823 66.8909 137.589 72.6225 134.337 80.2175C132.069 85.5125 126.7 91.1394 121.358 93.8181C117.174 95.9169 109.996 98.3169 107.906 98.3169C105.475 98.3169 105.227 98.6319 105.626 101.222C105.826 102.52 106.002 116.726 106.017 132.791L106.045 162H99.6911H93.3375L93.4831 130.408ZM63.8759 145.954V139.937H75.3555H86.8348V145.954V151.971H75.3555H63.8759V145.954ZM112.605 145.954V139.937H124.085H135.564V145.954V151.971H124.085H112.605V145.954ZM63.8759 126.397V120.381H75.3555H86.8348V126.397V132.415H75.3555H63.8759V126.397ZM112.605 126.397V120.381H124.085H135.564V126.397V132.415H124.085H112.605V126.397ZM63.8759 106.841V100.824H75.3555H86.8348V106.841V112.859H75.3555H63.8759V106.841ZM112.605 106.841V100.824H124.085H135.564V106.841V112.859H124.085H112.605V106.841ZM104.702 79.1369C103.375 76.31 101.59 71.8988 100.736 69.3338L99.1835 64.6706L98.385 67.8295C97.4291 71.6125 92.021 83.7875 91.3149 83.7463C91.0411 83.73 88.5571 82.545 85.7945 81.1131L80.7717 78.51L87.4348 65.1086L94.0973 51.7073L99.2717 51.6951L104.446 51.6828L111.136 65.0192C114.815 72.3544 117.758 78.4181 117.675 78.495C117.333 78.8131 107.586 84.2763 107.361 84.2763C107.225 84.2763 106.029 81.9638 104.702 79.1369Z" fill="white"/>
</svg>
