<svg width="200" height="200" viewBox="0 0 200 200" fill="none" xmlns="http://www.w3.org/2000/svg">
<path fill-rule="evenodd" clip-rule="evenodd" d="M100 0C155.22 0 200 44.78 200 100C200 155.22 155.22 200 100 200C44.78 200 0 155.22 0 100C0 44.78 44.78 0 100 0Z" fill="#F0B90B"/>
<path d="M56.6066 100L56.676 125.53L78.3226 138.296V153.243L44.0077 133.074V92.5343L56.6066 100ZM56.6066 74.4696V89.3469L44 81.8734V66.9962L56.6066 59.5227L69.2749 66.9962L56.6066 74.4696ZM87.3626 66.9962L99.9691 59.5227L112.637 66.9962L99.9691 74.4696L87.3626 66.9962Z" fill="white"/>
<path d="M65.716 120.239V105.292L78.3226 112.765V127.642L65.716 120.239ZM87.3625 143.649L99.9691 151.123L112.637 143.649V158.527L99.9691 166L87.3625 158.527V143.649ZM130.717 66.9962L143.324 59.5227L155.992 66.9962V81.8734L143.324 89.3469V74.4696L130.717 66.9962ZM143.324 125.53L143.393 100L156 92.5266V133.066L121.685 153.235V138.288L143.324 125.53Z" fill="white"/>
<path d="M134.284 120.239L121.677 127.642V112.765L134.284 105.292V120.239Z" fill="white"/>
<path d="M134.284 79.7613L134.353 94.7082L112.645 107.473V133.066L100.039 140.47L87.432 133.066V107.473L65.7237 94.7082V79.7613L78.3843 72.2879L99.9614 85.115L121.67 72.2879L134.338 79.7613H134.284ZM65.716 54.2387L99.9691 34L134.284 54.2387L121.677 61.7121L99.9691 48.885L78.3226 61.7121L65.716 54.2387Z" fill="white"/>
</svg>
