<svg width="200" height="200" viewBox="0 0 200 200" fill="none" xmlns="http://www.w3.org/2000/svg">
<path fill-rule="evenodd" clip-rule="evenodd" d="M100 0C155.22 0 200 44.78 200 100C200 155.22 155.22 200 100 200C44.78 200 0 155.22 0 100C0 44.78 44.78 0 100 0Z" fill="#1E1E1E"/>
<path d="M100 142C69.0694 142 44 133.097 44 121.169C44 114.944 50.8283 109.337 61.7575 105.386C70.2881 110.84 84.6024 113.634 100.832 113.634C116.674 113.634 130.679 110.223 139.287 105.001C149.597 108.913 156 114.366 156 120.379C156 132.326 130.931 142 100 142Z" fill="white"/>
<path d="M100.329 110.955C76.8843 110.955 57.8694 103.632 57.8694 94.5946C57.8694 89.5843 63.7306 85.0943 72.9188 82.1074C79.4763 85.5182 89.3029 87.6958 100.329 87.6958C111.355 87.6958 121.181 85.5182 127.739 82.1074C136.946 85.1136 142.788 89.5843 142.788 94.5946C142.808 103.632 123.793 110.955 100.329 110.955Z" fill="white"/>
<path d="M100.174 84.9787C82.049 84.9787 67.3478 78.9277 67.3478 71.4893C67.3478 64.0509 82.049 58 100.174 58C118.299 58 133 64.0509 133 71.4893C133 78.9277 118.299 84.9787 100.174 84.9787Z" fill="white"/>
</svg>
