<svg width="200" height="200" viewBox="0 0 200 200" fill="none" xmlns="http://www.w3.org/2000/svg">
<path fill-rule="evenodd" clip-rule="evenodd" d="M100 0C155.22 0 200 44.78 200 100C200 155.22 155.22 200 100 200C44.78 200 0 155.22 0 100C0 44.78 44.78 0 100 0Z" fill="#516AFF"/>
<path d="M114.827 77.5165L129.393 85.7802V44.4615L100.26 30L55 55.3077V145.176L100.26 171L145 144.659V100.242L101.821 74.4176L87.2543 81.6483L130.434 106.956L130.954 137.429L100.26 154.473L69.0462 136.912V62.5385L100.26 45.4945L114.827 53.2418V77.5165Z" fill="white"/>
<path d="M98.6992 102.308L108.584 97.1434L119.508 103.858L87.2541 121.935V84.7478L98.6992 91.462" fill="white"/>
</svg>
