<svg width="200" height="200" viewBox="0 0 200 200" fill="none" xmlns="http://www.w3.org/2000/svg">
<circle cx="100" cy="100" r="100" fill="#1678F3"/>
<mask id="mask0_2225_49261" style="mask-type:alpha" maskUnits="userSpaceOnUse" x="0" y="0" width="200" height="200">
<circle cx="100" cy="100" r="100" fill="#1678F3"/>
</mask>
<g mask="url(#mask0_2225_49261)">
<path d="M199.5 86.5L143 58.5H128L97 61.5L91.5 70L86 135L78 152L60 195L71.5 206.5L109.5 213.5L148 200.5L192 161.5L206 110.5L199.5 86.5Z" fill="#0F458F"/>
<path fill-rule="evenodd" clip-rule="evenodd" d="M54.9561 182.905C51.2488 190.891 50.482 192.66 50.5621 193.039L64.9357 199.059L65.8776 196.638C66.3951 195.306 67.5999 192.381 68.5539 190.139L70.2889 186.062H77.0678H83.8462V194.466V202.871L100.185 203V194.531V186.062H106.975H113.766L116.462 192.333C117.945 195.782 119.158 198.851 119.158 199.152L134.622 193.953C134.379 193.952 133.363 192.118 132.366 189.875C129.421 183.257 119.851 162.015 112.09 144.871C109.89 140.012 108.09 135.928 108.09 135.796C108.09 135.664 115.561 135.556 124.692 135.556H141.294V127.402V119.247H121.059C103.094 119.247 100.5 119.247 100.5 119.247L100.505 115.403C100.505 115.403 101.71 115.403 113.493 115.403C127.326 115.094 131.461 114.573 137.214 112.415C142.17 110.556 145.046 108.72 148.72 105.072C153.086 100.735 155.339 96.2293 156.46 89.5899C157.109 85.7468 157.155 83.9864 156.694 80.5494C155.972 75.1595 154.479 70.9002 152.012 67.1918C150.948 65.593 149.895 64.0957 149.895 64.0957L149.368 63.5696L148.507 62.7557C148.507 62.7557 147.007 61.1648 145.542 60.1805C144.078 59.1961 143.307 58.3086 143.307 58.3086L142.516 58.0456L140.935 57.2564C140.935 57.2564 135.843 55.2551 131.807 54.2245C128.969 53.4995 124.567 53.307 106.114 53.1023C87.661 52.8971 83.8446 52.9761 83.8383 53.5642C83.8341 53.9546 83.8377 68.89 83.8462 86.7537L83.8615 119.233L63.6945 119.228C52.6023 119.225 43 119.233 43 119.233V127.491V135.819L59.4402 135.958L75.8804 136.097L75.1019 137.957C74.674 138.98 73.6225 141.344 72.7655 143.213C71.9086 145.081 71.1923 146.72 71.1738 146.856C71.1554 146.993 69.9411 149.655 68.4748 152.773C67.0081 155.89 64.746 160.927 63.4473 163.966C62.1482 167.004 60.4911 170.673 59.7643 172.12C59.0381 173.567 58.0156 175.816 57.4933 177.118C56.971 178.42 55.8294 181.024 54.9561 182.905ZM100.448 101.097L100.309 84.1301L100.17 67.1634L110.85 67.1676C116.724 67.1697 123.072 67.4127 124.956 67.7079C129.626 68.4397 134.506 70.8913 136.751 73.6344C139.38 76.8467 140.427 80.5137 140.13 85.4637C139.95 88.4567 139.524 90.2296 138.508 92.2162C136.9 95.3581 134.692 97.3714 131.017 99.046C126.888 100.927 122.447 101.416 110.989 101.249L100.448 101.097ZM76.1297 172.646L79.8564 163.787L83.5827 154.927L83.7276 163.73C83.8072 168.571 83.7766 172.628 83.6591 172.745C83.5421 172.862 81.7997 172.888 79.7879 172.802L76.1297 172.646ZM100.448 172.646L100.304 163.834C100.224 158.988 100.248 155.022 100.356 155.022C100.465 155.022 101.222 156.62 102.038 158.573C102.855 160.526 104.551 164.434 105.807 167.257C107.063 170.08 108.09 172.517 108.09 172.672C108.09 172.828 106.371 172.886 104.269 172.801L100.448 172.646Z" fill="#FEFEFE"/>
</g>
</svg>
