<svg width="200" height="200" viewBox="0 0 200 200" fill="none" xmlns="http://www.w3.org/2000/svg">
<path fill-rule="evenodd" clip-rule="evenodd" d="M100 0C155.22 0 200 44.78 200 100C200 155.22 155.22 200 100 200C44.78 200 0 155.22 0 100C0 44.78 44.78 0 100 0Z" fill="#0055D5"/>
<path fill-rule="evenodd" clip-rule="evenodd" d="M53.5257 64.6305C53.5257 64.6305 43.0221 56.1688 42.2997 77.0673C41.5773 93.2627 41.5969 124.709 49.0353 139.566C52.1786 145.155 56.3761 143.443 64.1855 137.874C70.9797 132.816 95.5597 109.989 105.966 99.973C116.372 89.9567 137.477 61.2261 141.869 80.7472C143.607 88.9531 145.754 95.9193 144.115 114.122C143.607 119.73 141.225 123.981 130.37 116.385C122.17 111.072 114.38 105.365 114.38 105.365C114.38 105.365 112.877 102.649 109.324 107.057C106.532 110.58 105.126 111.446 109.597 114.122C114.087 116.798 136.793 132.58 145.501 135.04C152.685 137.146 156.785 137.106 157 122.879C156.961 111.583 156.317 79.2516 152.236 65.4767C149.152 56.8969 144.622 53.0005 134.841 62.643C125.06 72.2854 94.2126 102.433 77.3443 116.09C66.1574 124.551 61.3741 132.187 57.1571 118.077C54.1895 107.392 50.3434 74.1352 62.487 80.4717C70.0816 84.1319 73.8691 84.1122 70.9016 86.4146C67.934 88.6973 59.4023 96.5884 59.4023 96.5884C59.4023 96.5884 56.7666 98.7333 57.9966 103.377C59.2265 106.624 59.2265 108.238 65.845 101.961C72.4634 95.6831 77.3443 90.9406 77.3443 90.9406C77.3443 90.9406 78.3986 89.268 81.5418 92.3575C84.6851 95.447 85.1927 96.3129 85.1927 96.3129C85.1927 96.3129 86.0322 98.6152 89.3903 94.6205C92.7678 90.6258 94.9349 88.1856 88.5508 84.4467C82.1861 80.6685 53.5257 64.6305 53.5257 64.6305Z" fill="white"/>
</svg>
