<svg width="200" height="200" viewBox="0 0 200 200" fill="none" xmlns="http://www.w3.org/2000/svg">
<circle cx="100" cy="100" r="100" fill="#002EAC"/>
<path fill-rule="evenodd" clip-rule="evenodd" d="M108.847 43.6509C108.897 52.3179 110.677 58.6341 116.168 69.6317C119.569 76.4418 119.486 79.2878 115.771 83.336C114.313 84.9246 109.657 88.0974 108.785 88.0974C108.592 88.0974 108.94 87.5671 109.559 86.9193C111.602 84.7798 112.51 82.8604 112.512 80.6789C112.514 78.0818 112.164 77.4508 108.616 73.6528C103.301 67.9638 101.047 63.0845 101.011 57.1967L100.992 53.9296L98.1926 56.3399C96.6528 57.6659 94.22 60.1965 92.7865 61.9638C85.2657 71.2344 84.4649 80.43 90.6265 86.7608C91.6536 87.816 92.494 88.7529 92.494 88.8433C92.494 89.4461 87.7746 86.3006 86.2135 84.6572C83.8717 82.1929 82.6775 79.9502 81.8362 76.4363C80.6429 71.4537 81.3066 66.8101 83.9962 61.3276C87.3459 54.4998 94.8659 46.82 104.638 40.2471C106.456 39.0244 108.14 38.0129 108.379 38.0001C108.647 37.9855 108.827 40.158 108.847 43.6509ZM100.356 82.9714C101.123 83.3754 101.198 83.9169 101.198 89.0185V94.6223L103.654 94.3202C105.004 94.1544 108.444 93.4574 111.296 92.7715C117.243 91.3419 119.537 91.2065 120.403 92.2334C120.897 92.8199 121 98.5432 121 125.562C121 156.436 120.957 158.246 120.204 159.377C118.523 161.904 117.792 162 100.328 162C85.9428 162 84.2464 161.925 82.3663 161.211C78.7833 159.851 79.0026 162.195 79.0026 125.263C79.0026 100.393 79.1279 92.4296 79.5249 92.0389C80.3252 91.251 81.9764 91.4108 87.4865 92.8096C90.2705 93.5161 93.6129 94.2174 94.9146 94.3678L97.2813 94.6416V89.5369C97.2813 85.61 97.4375 84.2125 97.9589 83.4804C98.7166 82.4153 99.1331 82.327 100.356 82.9714Z" fill="#FEFEFE"/>
</svg>
