<svg width="200" height="200" viewBox="0 0 200 200" fill="none" xmlns="http://www.w3.org/2000/svg">
<path d="M100 200C155.228 200 200 155.228 200 100C200 44.7715 155.228 0 100 0C44.7715 0 0 44.7715 0 100C0 155.228 44.7715 200 100 200Z" fill="#1DBF83"/>
<path fill-rule="evenodd" clip-rule="evenodd" d="M98.5404 45.5152C91.2704 38.1616 79.6395 38.1616 72.3695 45.5152L40.614 77.6354C33.1286 85.2068 33.1287 97.6503 40.614 105.222L92.7297 157.936C94.9916 160.224 98.0086 161.228 100.934 160.957C103.238 160.744 105.489 159.738 107.27 157.936L159.386 105.222C166.871 97.6503 166.871 85.2068 159.386 77.6354L142.174 60.2262C134.904 52.8724 123.274 52.8725 116.003 60.2262L114.544 61.7024L98.5404 45.5152ZM70.9108 105.835L99.6971 76.7178L85.4546 62.3117L56.6679 91.4286L70.9108 105.835ZM85.7571 120.851L100 106.444L114.243 120.851L100 135.258L85.7571 120.851ZM143.331 91.4289L129.089 105.835L114.846 91.4289L129.089 77.0227L143.331 91.4289Z" fill="black"/>
</svg>
