<svg width="200" height="200" viewBox="0 0 200 200" fill="none" xmlns="http://www.w3.org/2000/svg">
<g clip-path="url(#clip0_2223_49037)">
<path fill-rule="evenodd" clip-rule="evenodd" d="M100 200C155.08 200 200 155.08 200 100C200 44.93 155.08 0 100 0C44.93 0 1.66894e-06 44.93 1.66894e-06 100C-0.00999833 155.08 44.92 200 100 200Z" fill="url(#paint0_linear_2223_49037)"/>
<path d="M98.2121 41.6796C98.1893 41.3803 98.2368 40.9606 98.2121 41.003C98.0269 41.3223 86.4065 61.1004 72.3888 84.606C60.586 104.398 50.6589 121.224 47.817 126.046C47.3391 126.857 47.5667 127.779 48.3736 128.263C51.9351 130.402 62.0136 136.429 73.7793 143.454C90.8282 153.633 97.9227 157.38 100.237 158.545C100.821 158.838 101.506 158.8 102.066 158.465L152.29 128.436C153.235 127.87 153.574 126.694 153.012 125.746C145.964 113.859 103.581 42.3782 102.62 41.0943V41.0943C102.565 41.0201 102.493 41.073 102.493 41.1657V92.636C102.493 93.5509 103.127 94.3271 103.958 94.7102C106.932 96.0822 109 99.1161 109 102.638C109 106.01 107.105 108.934 104.334 110.382C104.262 110.425 104.194 110.464 104.13 110.499C103.969 110.587 103.779 110.665 103.567 110.735C102.584 111.13 101.511 111.347 100.388 111.347C95.6327 111.347 91.7774 107.448 91.7774 102.638C91.7774 99.1169 93.8439 96.0836 96.8174 94.7112C97.6489 94.3274 98.2826 93.5497 98.2814 92.6338L98.2121 41.6796Z" fill="white"/>
</g>
<defs>
<linearGradient id="paint0_linear_2223_49037" x1="0" y1="0" x2="161.5" y2="200" gradientUnits="userSpaceOnUse">
<stop stop-color="#3C82B4"/>
<stop offset="1" stop-color="#142846"/>
</linearGradient>
<clipPath id="clip0_2223_49037">
<rect width="200" height="200" fill="white"/>
</clipPath>
</defs>
</svg>
