<svg width="200" height="200" viewBox="0 0 200 200" fill="none" xmlns="http://www.w3.org/2000/svg">
<path fill-rule="evenodd" clip-rule="evenodd" d="M100 0C155.22 0 200 44.78 200 100C200 155.22 155.22 200 100 200C44.78 200 0 155.22 0 100C0 44.78 44.78 0 100 0Z" fill="#2B5EBA"/>
<path d="M115.096 52.4622C115.096 59.3449 109.533 64.9244 102.671 64.9244C95.8092 64.9244 90.2465 59.3449 90.2465 52.4622C90.2465 45.5795 95.8092 40 102.671 40C109.533 40 115.096 45.5795 115.096 52.4622Z" fill="white"/>
<path d="M161 100.469C161 114.743 149.464 126.315 135.233 126.315C121.002 126.315 109.465 114.743 109.465 100.469C109.465 86.1954 121.002 74.6241 135.233 74.6241C149.464 74.6241 161 86.1954 161 100.469Z" fill="white"/>
<path d="M102.671 161C109.533 161 115.096 155.42 115.096 148.538C115.096 141.655 109.533 136.076 102.671 136.076C95.8092 136.076 90.2465 141.655 90.2465 148.538C90.2465 155.42 95.8092 161 102.671 161Z" fill="white"/>
<path d="M99.3049 119.5C98.5092 119.5 97.7136 119.377 96.9791 119.132C96.9791 119.132 83.6975 114.466 74.7615 135.032C74.3943 136.198 73.9659 137.303 73.415 138.347V138.408C70.3547 144.425 64.0506 148.538 56.8283 148.538C46.4846 148.538 38.0995 140.127 38.0995 129.752C38.0995 119.377 46.4846 110.967 56.8283 110.967C60.3783 110.967 63.6221 111.949 66.4376 113.607C66.4376 113.607 83.6363 123.736 92.2051 108.573C92.3275 108.204 92.5111 107.836 92.7559 107.529V107.468C94.1637 105.319 96.5507 103.907 99.3049 103.907C103.589 103.907 107.078 107.406 107.078 111.704C107.078 116.001 103.589 119.5 99.3049 119.5Z" fill="white"/>
<path d="M93.98 93.4708C93.4292 92.9183 92.9396 92.243 92.5723 91.5677C92.5723 91.5677 86.513 78.7985 65.7643 87.0248C64.6626 87.5773 63.5609 88.0685 62.4592 88.4368H62.398C55.9103 90.5241 48.6268 88.9893 43.4856 83.8325C36.1409 76.5271 36.2021 64.6174 43.4856 57.312C50.769 50.0066 62.5817 50.0066 69.9263 57.3734C72.3745 59.829 74.0271 62.8371 74.8227 66.0294C74.8227 66.0294 79.8416 85.4287 96.6119 80.763C96.9791 80.5789 97.4075 80.4561 97.7748 80.3947H97.836C100.284 79.8422 102.977 80.5175 104.936 82.482C107.996 85.4901 107.996 90.4013 104.936 93.4708C101.937 96.5403 97.0403 96.5403 93.98 93.4708Z" fill="white"/>
</svg>
