<svg width="200" height="200" viewBox="0 0 200 200" fill="none" xmlns="http://www.w3.org/2000/svg">
<path d="M100 200C155.228 200 200 155.228 200 100C200 44.7715 155.228 0 100 0C44.7715 0 0 44.7715 0 100C0 155.228 44.7715 200 100 200Z" fill="#18075A"/>
<path d="M68.2081 77.2806C67.4245 76.3214 66.2356 75.7886 64.9657 75.7886H38.7836C38.5674 75.7886 38.3783 75.7086 38.2162 75.5754C38.0811 75.4422 38 75.2823 38 75.0958V57.6979C38 57.5114 38.0811 57.3515 38.2162 57.2183C38.3783 57.0585 38.5674 56.9785 38.7836 57.0052H66.4518C73.4229 57.0052 79.4483 59.8293 84.528 65.451L91.2559 73.5505L78.1513 89.2966L68.2081 77.2806ZM116.573 65.3711C121.626 59.8027 127.678 57.0052 134.731 57.0052H162.318C162.507 56.9785 162.696 57.0585 162.831 57.165C162.966 57.2982 163.02 57.4847 162.993 57.6979V75.0958C162.993 75.2823 162.939 75.4422 162.831 75.5754C162.696 75.7353 162.507 75.8152 162.318 75.7886H136.136C134.893 75.7619 133.704 76.3214 132.893 77.2806L113.601 100.433L132.974 123.746C133.758 124.625 134.92 125.158 136.109 125.132H162.291C162.48 125.105 162.696 125.212 162.804 125.345C162.912 125.505 162.993 125.718 162.966 125.904V143.302C162.966 143.489 162.912 143.649 162.804 143.782C162.669 143.942 162.48 144.022 162.291 143.995H134.731C127.678 143.995 121.68 141.171 116.654 135.549L100.605 116.233L84.555 135.549C79.5023 141.171 73.4499 143.995 66.3977 143.995H38.7836C38.5944 144.022 38.3783 143.915 38.2702 143.782C38.1351 143.622 38.0811 143.409 38.1081 143.222V125.824C38.1081 125.638 38.1621 125.478 38.2702 125.345C38.4053 125.185 38.5944 125.105 38.7836 125.132H64.9657C66.2086 125.132 67.3975 124.572 68.2081 123.64L116.573 65.3711Z" fill="#00D1FF"/>
</svg>
