<svg xmlns="http://www.w3.org/2000/svg" width="200" height="200" viewBox="0 0 200 200" fill="none">
<circle cx="100" cy="100" r="100" fill="white"/>
<path d="M76.6381 159.017C106.8 159.017 106.8 158.568 111.915 157.05C118.598 155.066 93.0446 137.378 76.6381 137.378C60.2317 137.378 46.9316 142.222 46.9316 148.198C46.9316 154.173 60.2324 159.017 76.6381 159.017Z" fill="black"/>
<path d="M145.13 67.0094L146.517 68.5045L145.304 70.1443C105.967 123.331 83.3063 147.413 73.6916 144.183C67.8352 142.215 61.9622 136.299 56.089 127.708C54.0245 124.688 52.086 121.508 50.3229 118.344C49.1488 116.236 48.1551 114.314 47.6391 113.232C46.9809 111.851 46.703 111 46.4826 109.883C46.4691 109.815 46.4691 109.815 46.4563 109.749C46.3643 109.275 46.3325 109.125 46.2637 108.866C45.08 104.405 44.4746 99.7826 44.4746 95.0829C44.4746 65.4768 68.4751 41.4763 98.0812 41.4763C107.356 41.4763 116.295 43.8369 124.216 48.2681L124.42 48.3961C130.906 52.9114 137.804 59.1157 145.13 67.0094ZM121.71 52.5016C114.544 48.516 106.469 46.3944 98.0812 46.3944C71.1912 46.3944 49.3926 68.1929 49.3926 95.0829C49.3926 99.3559 49.9425 103.554 51.0172 107.604C51.1235 108.005 51.1716 108.231 51.2843 108.812C51.2962 108.873 51.2962 108.873 51.3075 108.931C51.4498 109.652 51.5999 110.112 52.0786 111.116C52.5493 112.103 53.4952 113.933 54.6191 115.95C56.3136 118.991 58.1758 122.046 60.1489 124.932C65.4553 132.694 70.7178 137.996 75.2577 139.521C81.3126 141.555 104.107 117.425 140.13 68.8672C133.59 61.964 127.446 56.5088 121.71 52.5016Z" fill="black"/>
<path d="M121.71 52.5018C114.544 48.5162 106.469 46.3945 98.0811 46.3945C71.1912 46.3945 49.3926 68.1931 49.3926 95.0831C49.3926 99.356 49.9425 103.554 51.0172 107.605C51.1235 108.005 51.1715 108.231 51.2843 108.813C51.2961 108.873 51.2961 108.873 51.3075 108.931C51.4498 109.652 51.5999 110.112 52.0785 111.116C52.5492 112.104 53.4951 113.933 54.619 115.95C56.3136 118.991 58.1758 122.046 60.1489 124.932C65.4552 132.694 70.7178 137.996 75.2576 139.521C81.3125 141.555 104.107 117.426 140.13 68.8673C133.59 61.9642 127.446 56.5089 121.71 52.5018Z" fill="#EC1C79"/>
<path d="M107.918 158.526C78.3115 158.526 54.311 134.525 54.311 104.919C54.311 75.3132 78.3115 51.3127 107.918 51.3127C137.524 51.3127 161.524 75.3132 161.524 104.919C161.524 134.525 137.524 158.526 107.918 158.526ZM107.918 153.608C134.808 153.608 156.606 131.809 156.606 104.919C156.606 78.0294 134.808 56.2308 107.918 56.2308C81.0277 56.2308 59.2291 78.0294 59.2291 104.919C59.2291 131.809 81.0277 153.608 107.918 153.608Z" fill="black"/>
<path d="M107.918 153.608C134.808 153.608 156.607 131.809 156.607 104.919C156.607 78.0296 134.808 56.231 107.918 56.231C81.0281 56.231 59.2295 78.0296 59.2295 104.919C59.2295 131.809 81.0281 153.608 107.918 153.608Z" fill="white"/>
<path fill-rule="evenodd" clip-rule="evenodd" d="M71.4963 114.892L65.0518 95.476H70.6977L74.0577 106.63L77.7757 95.4209H82.375L86.0931 106.63L89.4531 95.476H94.9888L88.5442 114.892H83.8898L80.0065 103.793L76.1508 114.892H71.4963ZM97.1095 114.755V95.476H112.615V100.02H102.397V102.94H111.651V107.153H102.397V110.21H112.753V114.755H97.1095ZM120.189 114.755V100.158H114.405V95.476H131.315V100.158H125.532V114.755H120.189ZM133.656 114.755V95.476H138.999V102.692H145.857V95.476H151.2V114.755H145.857V107.429H138.999V114.755H133.656Z" fill="black"/>
<path d="M47.6676 89.6765C46.3071 88.9963 45.7557 87.342 46.4359 85.9815C47.1161 84.6211 48.7704 84.0696 50.1309 84.7499L57.9998 88.6843C59.3602 89.3645 59.9117 91.0188 59.2314 92.3793C58.5512 93.7398 56.8969 94.2912 55.5364 93.611L47.6676 89.6765Z" fill="black"/>
<path d="M46.7638 102.725C45.3827 102.088 44.7798 100.452 45.4172 99.0707C46.0546 97.6896 47.6909 97.0867 49.0719 97.7241L56.9408 101.356C58.3218 101.993 58.9247 103.629 58.2873 105.01C57.65 106.391 56.0137 106.994 54.6326 106.357L46.7638 102.725Z" fill="black"/>
</svg>