<svg width="200" height="200" viewBox="0 0 200 200" fill="none" xmlns="http://www.w3.org/2000/svg">
<path fill-rule="evenodd" clip-rule="evenodd" d="M100 0C155.22 0 200 44.78 200 100C200 155.22 155.22 200 100 200C44.78 200 0 155.22 0 100C0 44.78 44.78 0 100 0Z" fill="#070A0E"/>
<path fill-rule="evenodd" clip-rule="evenodd" d="M57.819 133.523C54.8296 131.695 53 128.448 53 124.951V105.428C53 103.11 54.8896 101.232 57.2091 101.242C57.9489 101.242 58.6788 101.442 59.3187 101.811L103.399 127.499C105.979 128.997 107.568 131.755 107.568 134.742V154.964C107.578 157.742 105.329 160 102.549 160C101.62 160 100.7 159.74 99.91 159.261L57.819 133.523ZM123.525 96.4661C126.104 97.9648 127.684 100.732 127.694 103.71V144.753C127.694 145.962 127.044 147.081 125.984 147.671L116.337 153.096C116.217 153.166 116.087 153.216 115.947 153.256V130.466C115.947 127.519 114.397 124.781 111.857 123.262L73.1457 100.123V74.3956C73.1457 72.0776 75.0353 70.1993 77.3548 70.2093C78.0947 70.2093 78.8245 70.4091 79.4644 70.7788L123.525 96.4661ZM142.821 66.1529C145.41 67.6515 147 70.4191 147 73.4065V133.354C146.99 134.582 146.31 135.711 145.23 136.301L136.082 141.237V99.5034C136.082 96.556 134.533 93.8284 132.013 92.3098L92.4416 68.5907V44.1923C92.4416 43.4529 92.6416 42.7236 93.0015 42.0841C94.1712 40.0859 96.7407 39.4065 98.7403 40.5655L142.821 66.1529Z" fill="#00D395"/>
</svg>
