<svg width="200" height="200" viewBox="0 0 200 200" fill="none" xmlns="http://www.w3.org/2000/svg">
<path fill-rule="evenodd" clip-rule="evenodd" d="M100 0C155.22 0 200 44.78 200 100C200 155.22 155.22 200 100 200C44.78 200 0 155.22 0 100C0 44.78 44.78 0 100 0Z" fill="url(#paint0_linear_1854_43553)"/>
<path d="M56.7425 87.8961C58.0088 90.5858 61.1745 95.9653 61.1745 95.9653L97.4221 36L62.1243 60.6823C60.0665 62.1063 58.3254 64.0049 57.0591 66.22C53.7351 73.0234 53.7351 80.9344 56.7425 87.8961Z" fill="white"/>
<path d="M42.4968 107.515C43.2882 119.065 49.1448 129.824 58.3254 136.786L97.4221 164C97.4221 164 72.8877 128.717 52.3105 93.5919C50.2528 89.9529 48.8282 85.8392 48.1951 81.5672C47.8785 79.6686 47.8785 77.77 48.1951 75.8713C47.7202 76.8206 46.6122 78.8775 46.6122 78.8775C44.5545 83.1494 43.1299 87.7378 42.3385 92.4844C41.8636 97.5474 41.8636 102.61 42.4968 107.515Z" fill="white"/>
<path d="M142.217 112.262C140.951 109.572 137.785 104.193 137.785 104.193L101.537 164L136.994 139.476C139.051 138.052 140.792 136.153 142.059 133.938C145.224 127.135 145.383 119.224 142.217 112.262Z" fill="white"/>
<path d="M156.621 92.4845C155.83 80.9344 149.973 70.1755 140.792 63.2138L101.696 36C101.696 36 126.23 71.283 146.807 106.408C148.865 110.047 150.29 114.161 150.923 118.433C151.239 120.331 151.239 122.23 150.923 124.128C151.398 123.179 152.506 121.122 152.506 121.122C154.563 116.85 155.988 112.262 156.779 107.674C157.096 102.452 157.096 97.5475 156.621 92.4845Z" fill="white"/>
<path d="M57.0591 66.22C58.3254 64.0049 59.9082 62.1063 62.1243 60.6823L97.4221 36L61.1745 95.8071C61.1745 95.8071 58.0088 90.4276 56.7425 87.7379C53.7351 80.9344 53.7351 73.0234 57.0591 66.22ZM42.4968 107.515C43.2882 119.065 49.1448 129.824 58.3254 136.786L97.4221 164C97.4221 164 72.8877 128.717 52.3105 93.5919C50.2528 89.9529 48.8282 85.8392 48.1951 81.5672C47.8785 79.6686 47.8785 77.77 48.1951 75.8713C47.7202 76.8206 46.6122 78.8775 46.6122 78.8775C44.5545 83.1494 43.1299 87.7378 42.3385 92.4844C41.8636 97.5474 41.8636 102.61 42.4968 107.515ZM142.217 112.262C140.951 109.572 137.785 104.193 137.785 104.193L101.537 164L136.994 139.476C139.051 138.052 140.792 136.153 142.059 133.938C145.224 127.135 145.383 119.224 142.217 112.262ZM156.463 92.6427C155.671 81.0927 149.815 70.3337 140.634 63.372L101.696 36C101.696 36 126.23 71.283 146.807 106.408C148.865 110.047 150.29 114.161 150.923 118.433C151.239 120.331 151.239 122.23 150.923 124.128C151.398 123.179 152.506 121.122 152.506 121.122C154.563 116.85 155.988 112.262 156.779 107.674C157.096 102.452 157.096 97.5475 156.463 92.6427Z" fill="white"/>
<defs>
<linearGradient id="paint0_linear_1854_43553" x1="100.038" y1="-0.988628" x2="100.038" y2="200.742" gradientUnits="userSpaceOnUse">
<stop stop-color="#513EFF"/>
<stop offset="0.18" stop-color="#5157FF"/>
<stop offset="0.57" stop-color="#5298FF"/>
<stop offset="1" stop-color="#52E5FF"/>
</linearGradient>
</defs>
</svg>
