<svg width="200" height="200" viewBox="0 0 200 200" fill="none" xmlns="http://www.w3.org/2000/svg">
<path fill-rule="evenodd" clip-rule="evenodd" d="M100 0C155.22 0 200 44.78 200 100C200 155.22 155.22 200 100 200C44.78 200 0 155.22 0 100C0 44.78 44.78 0 100 0Z" fill="white"/>
<path d="M170.017 88.6944L169.586 88.3025L167.536 86.4256L162.184 81.6198L157.631 77.4947L156.873 76.7934L153.94 77.309L125.806 81.9498L109.709 59.6741C109.278 59.1339 108.678 58.756 108.007 58.6016L50.774 49.1963L43.4533 48L47.411 53.1977L50.2408 56.9309H34L41.4847 63.9436L86.3726 106.309L76.7347 152.469L73.4948 168L74.0689 167.072L84.322 150.798L97.9585 129.162L139.299 108.804C140.776 108.232 142.009 107.16 142.785 105.772L150.557 93.1495H175L170.017 88.6944ZM47.1034 62.0873H54.1575L69.0244 82.713L47.1034 62.0873ZM55.3058 55.1983L103.967 63.1392L88.6283 100.616L55.3058 55.1983ZM83.8914 142.321L89.7766 115.013L93.7343 126.439L83.8914 142.321ZM97.897 123.407L92.7705 108.289H129.066L97.897 123.407ZM93.0576 103.132L108.191 66.3774L134.664 103.132H93.0576ZM139.688 101.173L129.251 86.735L150.782 83.0017L139.688 101.173ZM153.776 87.9519L156.545 83.4349L161.589 87.9519H153.776Z" fill="#5081F4"/>
</svg>
