<svg width="200" height="200" viewBox="0 0 200 200" fill="none" xmlns="http://www.w3.org/2000/svg">
<path d="M100 200C155.228 200 200 155.228 200 100C200 44.7715 155.228 0 100 0C44.7715 0 0 44.7715 0 100C0 155.228 44.7715 200 100 200Z" fill="#3A456B"/>
<path d="M89.2484 72.582L100.372 61.6947L111.404 72.954L127.173 73.1082L127.018 88.8404L138.051 100.1L126.801 111.132C126.784 112.607 127.058 114.07 127.607 115.439C128.156 116.808 128.97 118.055 130.001 119.109C131.032 120.163 132.261 121.003 133.618 121.582C134.974 122.161 136.431 122.467 137.906 122.482L173.525 122.836C178.913 105.449 177.968 86.7157 170.857 69.9594C163.746 53.2032 150.93 39.5074 134.682 31.3017C118.434 23.0961 99.804 20.9112 82.0982 25.1346C64.3924 29.358 48.7549 39.7167 37.9601 54.373C32.5708 61.6947 37.8875 72.083 46.9875 72.1646L89.2484 72.582Z" fill="white"/>
<path d="M110.851 126.783L99.6281 137.779L88.5865 126.529L72.8271 126.375L72.9814 110.606L61.9398 99.3558L73.1991 88.3143C73.2135 86.8273 72.9348 85.3521 72.379 83.9729C71.8232 82.5936 71.0012 81.3374 69.9599 80.2758C68.9186 79.2143 67.6783 78.3682 66.31 77.786C64.9417 77.2038 63.4721 76.8968 61.9852 76.8826L26.6014 76.5378C23.8447 85.2228 22.6468 94.3271 23.063 103.43C24.7415 142.297 55.8157 174.197 94.6381 176.828C107.743 177.751 120.865 175.303 132.755 169.715C144.644 164.128 154.904 155.588 162.557 144.91C163.739 143.236 164.441 141.27 164.585 139.225C164.73 137.18 164.313 135.135 163.378 133.311C162.443 131.486 161.027 129.952 159.283 128.875C157.539 127.798 155.534 127.219 153.484 127.2L110.851 126.783Z" fill="white"/>
<path d="M120.65 91.7346L120.604 91.6893L120.722 79.6679L108.746 79.5499H108.701L100.281 70.958L91.7346 79.3412L91.6893 79.3866L79.6679 79.2687L79.5499 91.2266V91.2901L70.958 99.7096L79.3412 108.256L79.3866 108.301L79.2687 120.323L91.2266 120.441H91.2901L99.7096 129.033L108.256 120.65L108.302 120.604L120.323 120.722L120.441 108.764V108.701L129.033 100.281L120.65 91.7346V91.7346Z" fill="#4DBD97"/>
<path opacity="0.46" d="M115.487 93.8033L115.45 93.767L115.541 84.7487L106.559 84.667L106.523 84.658L100.208 78.2163L93.8028 84.5037L93.7665 84.54L84.7482 84.4493L84.6666 93.4223L84.6575 93.4676L78.2158 99.7823L84.5032 106.197L84.5395 106.224L84.4488 115.242L93.4218 115.333H93.4671L99.7818 121.775L106.196 115.487L106.223 115.451L115.242 115.542L115.332 106.569V106.523L121.774 100.209L115.487 93.8033V93.8033Z" fill="url(#paint0_linear_2234_49461)"/>
<path opacity="0.46" d="M116.676 100.263L116.657 100.227L120.223 91.9432L111.976 88.3867L111.949 88.3776L108.61 79.9944L100.263 83.315L100.227 83.3332L91.9432 79.7676L88.3958 88.0056L88.3776 88.051L79.9944 91.3807L83.315 99.7277L83.3332 99.7639L79.7676 108.047L88.0056 111.595L88.051 111.613L91.3807 119.996L99.7277 116.676L99.7639 116.657L108.047 120.223L111.595 111.985L111.613 111.949L119.996 108.61L116.676 100.263V100.263Z" fill="url(#paint1_linear_2234_49461)"/>
<path opacity="0.46" d="M108.774 96.4799L108.756 96.4618L108.801 91.3538L103.711 91.3084H103.693L100.118 87.6521L96.4801 91.2177L96.462 91.2358L91.354 91.1905L91.3087 96.2712V96.2984L87.6523 99.8731L91.2179 103.511L91.2361 103.529L91.1907 108.637L96.2715 108.683H96.2987L99.8734 112.339L103.512 108.773L103.53 108.755L108.638 108.81L108.683 103.72V103.693L112.339 100.118L108.774 96.4799V96.4799Z" fill="url(#paint2_linear_2234_49461)"/>
<path opacity="0.46" d="M109.445 100.154L109.436 100.127L111.459 95.4364L106.787 93.4222L106.768 93.4131L104.872 88.659L100.154 90.5461L100.127 90.5552L95.4366 88.532L93.4224 93.2045L93.4134 93.2226L88.6592 95.1188L90.5464 99.8457L90.5554 99.8639L88.5322 104.564L93.2047 106.569L93.2228 106.578L95.119 111.332L99.846 109.445L99.8641 109.436L104.564 111.459L106.569 106.786L106.578 106.768L111.332 104.872L109.445 100.154V100.154Z" fill="url(#paint3_linear_2234_49461)"/>
<defs>
<linearGradient id="paint0_linear_2234_49461" x1="78.175" y1="99.8681" x2="121.731" y2="100.294" gradientUnits="userSpaceOnUse">
<stop stop-color="white"/>
<stop offset="1" stop-color="white" stop-opacity="0"/>
</linearGradient>
<linearGradient id="paint1_linear_2234_49461" x1="83.1774" y1="100.079" x2="134.914" y2="101.033" gradientUnits="userSpaceOnUse">
<stop stop-color="white"/>
<stop offset="1" stop-color="white" stop-opacity="0"/>
</linearGradient>
<linearGradient id="paint2_linear_2234_49461" x1="87.611" y1="99.9604" x2="112.297" y2="100.202" gradientUnits="userSpaceOnUse">
<stop stop-color="white"/>
<stop offset="1" stop-color="white" stop-opacity="0"/>
</linearGradient>
<linearGradient id="paint3_linear_2234_49461" x1="90.3504" y1="100.215" x2="119.675" y2="100.753" gradientUnits="userSpaceOnUse">
<stop stop-color="white"/>
<stop offset="1" stop-color="white" stop-opacity="0"/>
</linearGradient>
</defs>
</svg>
