<svg width="200" height="200" viewBox="0 0 200 200" fill="none" xmlns="http://www.w3.org/2000/svg">
<path fill-rule="evenodd" clip-rule="evenodd" d="M100 0C155.22 0 200 44.78 200 100C200 155.22 155.22 200 100 200C44.78 200 0 155.22 0 100C0 44.78 44.78 0 100 0Z" fill="#131D27"/>
<path fill-rule="evenodd" clip-rule="evenodd" d="M142.819 55.1131L137.971 84.0607L120.736 63.8689L142.819 55.1131ZM137.971 96.3902L142.28 112.293L109.246 121.407L137.971 96.3902ZM66.158 88.5279L83.9318 65.477H114.632L134.201 88.5279H66.158ZM132.047 94.0672L100.09 121.943L67.4147 94.0672H132.047ZM78.0072 63.8689L62.2083 84.418L57.3609 55.1131L78.0072 63.8689ZM90.5745 121.407L57.1813 112.293L61.6697 96.7475L90.5745 121.407ZM96.6786 128.911L90.395 135.702C85.009 130.698 79.2639 126.231 72.9803 122.3L96.6786 128.911ZM127.199 122.3C120.916 126.231 115.171 130.698 109.785 135.702L103.321 128.733L127.199 122.3ZM150 46L115.35 59.759H83.0341L50 46L57.5404 91.2082L50.3591 115.689L69.2101 126.946C78.1867 132.307 86.0862 138.918 92.9084 146.602L100.269 155L107.989 146.244C114.632 138.739 122.352 132.307 130.79 126.946L149.102 115.51L142.46 91.2082L150 46Z" fill="white"/>
</svg>
