<svg width="200" height="200" viewBox="0 0 200 200" fill="none" xmlns="http://www.w3.org/2000/svg">
<path d="M100 200C155.228 200 200 155.228 200 100C200 44.7715 155.228 0 100 0C44.7715 0 0 44.7715 0 100C0 155.228 44.7715 200 100 200Z" fill="#178DD0"/>
<path d="M53.0197 44.4813C51.0099 46.473 51.0099 49.4605 51.0099 55.9335V58.9211C51.0099 65.3941 51.0099 68.3816 53.0197 70.8712C54.8023 72.6377 57.3754 72.8375 62.1412 73.2074C62.7488 73.2546 63.3921 73.3046 64.0739 73.3609C73.1183 74.3567 86.1823 74.8546 100.754 74.8546C115.828 74.8546 128.892 74.3567 137.936 73.3609C143.966 72.8629 146.98 72.365 148.99 70.3733C151 68.3816 151 65.3941 151 58.9211V55.9335C151 49.9585 151 46.473 148.99 44.4813C147.19 42.2515 144.181 42.0188 139.24 41.6368C138.665 41.5923 138.063 41.5457 137.434 41.4938C135.368 41.386 133.138 41.255 130.768 41.1158C122.186 40.6115 111.779 40 100.754 40C89.4168 40 78.7325 40.6466 70.2781 41.1583C68.2406 41.2816 66.3327 41.3971 64.5764 41.4938C58.0444 41.9917 55.0296 42.4896 53.0197 44.4813Z" fill="white"/>
<path d="M51.0099 103.237C51.074 102.792 51.1299 102.371 51.1829 101.973C51.5451 99.251 51.7688 97.5689 53.5222 96.2658C54.8722 94.9279 56.6254 95.1877 59.5036 95.6143C59.8389 95.664 60.1897 95.7159 60.5566 95.7679C62.5665 95.7679 65.5813 96.2658 68.5961 96.7637C71.6108 97.2617 74.1231 97.7596 76.6355 98.7554C80.1527 99.7513 81.6601 100.747 84.1724 103.735C86.6847 106.722 86.6847 109.71 86.6847 115.187V152.531C86.6847 156.017 86.6847 158.008 85.6798 159.004C84.1724 159.502 82.1625 159.502 78.6453 159.502H64.0739C58.0443 159.502 55.532 159.502 53.0197 157.51C51.0099 155.519 50.5074 153.029 50.0049 147.552C49.5025 142.075 49 135.602 49 127.635C49.5025 117.677 50.0049 109.212 51.0099 103.237Z" fill="white"/>
<path d="M149.493 103.237C149.428 102.792 149.373 102.371 149.32 101.973C148.957 99.251 148.734 97.5689 146.98 96.2658C145.63 94.9279 143.877 95.1877 140.999 95.6143C140.663 95.664 140.313 95.7159 139.946 95.7679C137.936 95.7679 134.921 96.2658 131.906 96.7637C128.892 97.2617 126.379 97.7596 123.867 98.7554C120.35 99.7513 118.842 100.747 116.33 103.735C113.818 106.722 113.818 109.71 113.818 115.187V152.531C113.818 156.017 113.818 158.008 114.823 159.004C115.828 160 117.837 160 121.355 160H135.926C141.956 160 144.468 160 146.98 158.008C149.277 156.187 149.474 153.95 149.875 149.394C149.913 148.967 149.952 148.519 149.995 148.05C150.498 142.573 151 136.1 151 128.133C151 117.677 150.498 109.212 149.493 103.237Z" fill="white"/>
</svg>
