<svg width="200" height="200" viewBox="0 0 200 200" fill="none" xmlns="http://www.w3.org/2000/svg">
<path d="M100 200C155.228 200 200 155.228 200 100C200 44.7715 155.228 0 100 0C44.7715 0 0 44.7715 0 100C0 155.228 44.7715 200 100 200Z" fill="#6747ED"/>
<path fill-rule="evenodd" clip-rule="evenodd" d="M93.9131 106.251C79.5234 106.251 67.971 94.9844 67.971 80.9506C67.971 66.9168 79.5234 55.6502 93.9131 55.6502C108.303 55.6502 119.855 66.9168 119.855 80.9506C119.855 94.9844 108.303 106.251 93.9131 106.251ZM93.9131 43C115.396 43 132.826 59.9987 132.826 80.9506C132.826 101.902 115.396 118.901 93.9131 118.901C72.4299 118.901 55 101.902 55 80.9506C55 59.9987 72.4299 43 93.9131 43ZM131.002 120.878C133.637 123.447 133.637 127.401 131.002 129.772L105.06 155.073C102.425 157.642 98.3719 157.642 95.9399 155.073C93.3051 152.503 93.3051 148.55 95.9399 146.178L121.882 120.878C124.314 118.308 128.57 118.308 131.002 120.878ZM146 49.3251C146 52.883 143.163 55.6502 139.514 55.6502C135.866 55.6502 133.029 52.883 133.029 49.3251C133.029 45.7672 135.866 43 139.514 43C142.96 43 146 45.7672 146 49.3251Z" fill="white"/>
</svg>
