<svg width="200" height="200" viewBox="0 0 200 200" fill="none" xmlns="http://www.w3.org/2000/svg">
<path d="M100 200C155.228 200 200 155.228 200 100C200 44.7715 155.228 0 100 0C44.7715 0 0 44.7715 0 100C0 155.228 44.7715 200 100 200Z" fill="#7A52D1"/>
<path fill-rule="evenodd" clip-rule="evenodd" d="M53 101.926V63.4526H71.8V101.926C71.8 111.884 74.4857 118.221 79.4095 122.747C84.3333 127.274 90.6 129.989 100 129.989C109.848 129.989 116.114 127.274 120.59 122.747C125.067 118.221 128.2 111.432 128.2 101.474V63H147V101.926C147 115.505 142.971 127.726 134.019 136.326C125.067 144.926 113.876 149 100 149C86.5714 149 74.9333 144.926 65.981 136.326C57.0286 127.726 53 115.505 53 101.926ZM109.4 101.474V63.9053H90.6V101.474C90.6 105.095 91.4952 107.358 93.2857 109.168C95.0762 110.979 96.8667 111.884 100 111.884C103.133 111.884 105.371 110.979 106.714 109.168C108.505 107.358 109.4 105.095 109.4 101.474Z" fill="white"/>
</svg>
