<svg width="200" height="200" viewBox="0 0 200 200" fill="none" xmlns="http://www.w3.org/2000/svg">
<path d="M100 200C155.228 200 200 155.228 200 100C200 44.7715 155.228 0 100 0C44.7715 0 0 44.7715 0 100C0 155.228 44.7715 200 100 200Z" fill="white"/>
<path d="M44.6145 79.0803C35.2569 82.495 29.2823 94.1921 31.4418 105.09C32.5215 110.539 33.7452 113.082 37.1284 116.642C41.5913 121.51 44.4706 122.599 52.3167 122.599C58.5791 122.599 59.5149 122.382 62.97 120.493C69.3764 116.86 72.9036 111.12 73.6954 102.983C74.7031 91.7946 68.2967 81.3325 58.867 78.6443C55.1959 77.6272 48.1417 77.8452 44.6145 79.0803ZM60.3787 88.1619C64.6256 91.286 66.7851 98.4787 65.2735 104.799C62.3942 117.005 46.4861 119.403 41.0154 108.432C37.7043 101.893 39.4318 91.6493 44.4706 88.0893C48.6456 85.0378 56.0597 85.1105 60.3787 88.1619Z" fill="black"/>
<path d="M142.007 79.3708C128.474 84.8198 124.659 104.945 134.88 117.15C140.423 123.835 153.524 125.07 159.354 119.403L160.938 117.877L161.154 119.911C161.37 121.728 161.586 121.873 164.969 121.873H168.568L169 98.9872H148.773V106.252H154.891C161.514 106.252 161.73 106.398 159.858 110.321C158.563 113.009 153.956 115.697 150.501 115.697C142.223 115.697 137.256 109.812 137.256 100.295C137.328 89.7602 144.022 83.73 153.164 85.9096C156.691 86.7814 160.29 89.9055 160.29 92.1578C160.29 92.8843 161.37 93.1749 164.609 93.1749H168.856L167.848 89.9055C165.617 82.2769 160.074 78.4263 150.932 78.1357C146.901 77.9904 144.67 78.281 142.007 79.3708Z" fill="black"/>
<path d="M79.6699 122.236H86.8681L87.0121 107.56L87.2281 92.8116L97.8814 122.309L105.08 121.873L115.589 92.8116L116.021 121.873L119.836 122.091L123.579 122.309L123.435 100.658L123.219 79.0075H113.214L107.455 95.1365C104.288 104.073 101.481 111.12 101.265 110.757C100.977 110.466 98.3853 103.564 95.506 95.3545C92.6267 87.1447 89.8914 80.0247 89.5315 79.5161C89.0996 79.0075 87.0841 78.6442 84.2768 78.6442H79.6699V122.236Z" fill="black"/>
<path d="M87.5804 199.47C44.4437 193.61 9.72585 161.097 1.78805 119.112C-3.1831 92.6204 2.26913 66.0485 17.4231 43.3299C22.715 35.4627 35.9446 22.1366 43.5617 17.0791C55.1878 9.4527 67.0544 4.47548 80.7651 1.50521C90.2264 -0.501736 109.79 -0.501736 119.251 1.50521C138.815 5.67965 154.611 13.868 168.562 27.0335C183.315 41.0821 193.097 58.101 197.427 77.2874C204.964 110.522 195.743 144.319 172.411 169.125C158.7 183.575 138.815 194.573 119.091 198.346C110.833 199.952 95.0371 200.514 87.5804 199.47ZM110.031 191.523C133.844 188.793 156.375 176.591 171.048 158.448C180.509 146.647 185.961 135.73 189.569 120.878C191.333 113.814 191.654 110.603 191.734 100.809C191.734 86.8404 190.291 78.2507 185.72 66.6907C161.586 4.63604 81.8075 -12.142 35.0627 34.981C8.68351 61.4727 0.906072 100.006 14.9375 134.766C22.0735 152.668 36.987 169.928 53.504 179.32C71.5445 189.676 90.3065 193.69 110.031 191.523Z" fill="black"/>
</svg>
