<svg width="200" height="200" viewBox="0 0 200 200" fill="none" xmlns="http://www.w3.org/2000/svg">
<path d="M100 200C155.228 200 200 155.228 200 100C200 44.7715 155.228 0 100 0C44.7715 0 0 44.7715 0 100C0 155.228 44.7715 200 100 200Z" fill="url(#paint0_linear_1854_40275)"/>
<path d="M128.428 50C122.716 49.9956 117.236 52.2638 113.191 56.3068C109.145 60.3499 106.865 65.8373 106.85 71.5646V95.4746C104.628 95.625 102.356 95.7197 100 95.7197C97.6444 95.7197 95.3833 95.8144 93.15 95.9481V71.5646C93.0591 65.887 90.7461 60.4727 86.7099 56.4898C82.6737 52.507 77.2378 50.2748 71.575 50.2748C65.9122 50.2748 60.4763 52.507 56.4401 56.4898C52.4039 60.4727 50.0909 65.887 50 71.5646V128.71C50.0909 134.388 52.4039 139.802 56.4401 143.785C60.4763 147.768 65.9122 150 71.575 150C77.2378 150 82.6737 147.768 86.7099 143.785C90.7461 139.802 93.0591 134.388 93.15 128.71V104.8C95.3722 104.65 97.6444 104.555 100 104.555C102.356 104.555 104.617 104.46 106.85 104.327V128.71C106.941 134.388 109.254 139.802 113.29 143.785C117.326 147.768 122.762 150 128.425 150C134.088 150 139.524 147.768 143.56 143.785C147.596 139.802 149.909 134.388 150 128.71V71.5646C149.985 65.8383 147.706 60.3517 143.661 56.3088C139.617 52.2659 134.138 49.997 128.428 50ZM71.5722 58.8353C74.943 58.8338 78.1768 60.1732 80.5639 62.5597C82.9511 64.9461 84.2967 68.1846 84.3056 71.5646V96.884C77.9932 97.8012 71.829 99.5488 65.9722 102.082C63.4346 103.198 61.0458 104.628 58.8611 106.338V71.5646C58.8699 68.1884 60.2125 64.9533 62.5949 62.5675C64.9772 60.1817 68.2053 58.8397 71.5722 58.8353ZM84.3056 128.71C84.3056 132.096 82.964 135.344 80.576 137.739C78.1881 140.133 74.9493 141.478 71.5722 141.478C68.1951 141.478 64.9564 140.133 62.5684 137.739C60.1804 135.344 58.8389 132.096 58.8389 128.71V122.978C58.8389 117.914 62.8389 113.117 69.5444 110.131C74.2693 108.087 79.2269 106.634 84.3056 105.803V128.71ZM128.428 141.439C125.057 141.441 121.823 140.102 119.436 137.715C117.049 135.329 115.703 132.09 115.694 128.71V103.391C122.007 102.474 128.171 100.726 134.028 98.1932C136.565 97.0764 138.954 95.6466 141.139 93.9371V128.71C141.13 132.086 139.788 135.321 137.405 137.707C135.023 140.093 131.795 141.435 128.428 141.439ZM130.456 90.1099C125.731 92.1539 120.773 93.6077 115.694 94.4384V71.5646C115.694 68.1783 117.036 64.9306 119.424 62.5361C121.812 60.1416 125.051 58.7963 128.428 58.7963C131.805 58.7963 135.044 60.1416 137.432 62.5361C139.82 64.9306 141.161 68.1783 141.161 71.5646V77.297C141.161 82.3386 137.161 87.1351 130.456 90.1099Z" fill="white"/>
<defs>
<linearGradient id="paint0_linear_1854_40275" x1="12.6667" y1="185.099" x2="186.67" y2="11.0994" gradientUnits="userSpaceOnUse">
<stop stop-color="#00AEE9"/>
<stop offset="1" stop-color="#69FABD"/>
</linearGradient>
</defs>
</svg>
