<svg width="200" height="200" viewBox="0 0 200 200" fill="none" xmlns="http://www.w3.org/2000/svg">
<path d="M100 200C155.228 200 200 155.228 200 100C200 44.7715 155.228 0 100 0C44.7715 0 0 44.7715 0 100C0 155.228 44.7715 200 100 200Z" fill="#00A478"/>
<path fill-rule="evenodd" clip-rule="evenodd" d="M151.061 46V65.1439H112.727V78.4169C139.65 79.8354 159.85 85.6608 160 92.6433L159.999 107.2C159.849 114.183 139.65 120.008 112.727 121.427V154H87.2726V121.427C60.349 120.008 40.1495 114.183 40 107.2L40.0005 92.6433C40.1505 85.6608 60.349 79.8354 87.2726 78.4169V65.1439H48.9383V46H151.061ZM100 111.426C128.732 111.426 152.747 106.5 158.624 99.922C153.64 94.3435 135.613 89.9529 112.727 88.7472V102.644C108.625 102.86 104.367 102.974 100 102.974C95.6326 102.974 91.3747 102.86 87.2726 102.644V88.7472C64.3865 89.9529 46.3594 94.3435 41.3756 99.922C47.2526 106.5 71.2678 111.426 100 111.426Z" fill="white"/>
</svg>
