<svg width="200" height="200" viewBox="0 0 200 200" fill="none" xmlns="http://www.w3.org/2000/svg">
<path d="M100 200C155.228 200 200 155.228 200 100C200 44.7715 155.228 0 100 0C44.7715 0 0 44.7715 0 100C0 155.228 44.7715 200 100 200Z" fill="black"/>
<path d="M100 170C138.66 170 170 138.66 170 100C170 61.3401 138.66 30 100 30M100 170C61.3401 170 30 138.66 30 100C30 61.3401 61.3401 30 100 30M100 170V120.228L52.2984 82.4999M100 30V44.7245M100 44.7245L52.2984 82.4999M100 44.7245L147.702 82.4999M52.2984 82.4999V117.735L100 155.511L121.546 138.481M147.702 82.4999L126.391 99.3413M147.702 82.4999V117.735L140.363 123.568M60.672 124.368L52.5336 138.481H78.5013M100 138.481H147.466L100 56.2499L75.2083 99.2472" stroke="#F5C09A" stroke-width="5" stroke-miterlimit="10" stroke-linecap="round" stroke-linejoin="round"/>
</svg>
