<svg width="200" height="200" viewBox="0 0 200 200" fill="none" xmlns="http://www.w3.org/2000/svg">
<path d="M100 200C155.228 200 200 155.228 200 100C200 44.7715 155.228 0 100 0C44.7715 0 0 44.7715 0 100C0 155.228 44.7715 200 100 200Z" fill="white"/>
<path d="M193.827 100C193.827 151.819 151.819 193.827 100 193.827C48.1807 193.827 6.17284 151.819 6.17284 100C6.17284 48.1807 48.1807 6.17284 100 6.17284C151.819 6.17284 193.827 48.1807 193.827 100Z" stroke="#0E0333" stroke-width="12.3457"/>
<path fill-rule="evenodd" clip-rule="evenodd" d="M134.766 127.56L142.582 133.13L144 134.457V155.011C144 155.674 143.291 157 141.873 157H98.6319C85.1633 157 71.6946 152.359 61.7703 144.402C51.8461 136.446 44.7573 125.837 41.9218 113.239C39.7952 100.641 41.2129 88.0435 47.5928 76.7717C53.9727 65.5 63.897 56.8804 75.9479 51.5761V37.6522C75.9479 37.6522 75.9479 36.9891 76.6567 36.3261C77.0112 36.3261 77.1884 36.1603 77.3656 35.9946C77.5428 35.8288 77.7201 35.663 78.0745 35.663C78.0745 35 78.7834 35 79.4922 35C79.8467 35 80.0239 35.1658 80.2011 35.3315C80.3783 35.4973 80.5556 35.663 80.91 35.663C81.6189 35.663 81.6189 35.663 82.3277 36.3261C82.3277 36.6576 82.505 36.8234 82.6822 36.9891C82.8594 37.1549 83.0366 37.3207 83.0366 37.6522V48.9239C85.3995 48.0399 87.7625 47.7452 90.1254 47.4505C91.3069 47.3031 92.4883 47.1558 93.6698 46.9348V37.6522C94.1079 37.6522 94.2752 37.3989 94.5065 37.0489C94.6494 36.8326 94.8168 36.5793 95.0875 36.3261C95.442 36.3261 95.6192 36.1603 95.7964 35.9946C95.9736 35.8288 96.1508 35.663 96.5053 35.663C96.5053 35 97.2141 35 97.923 35C98.2775 35 98.4547 35.1658 98.6319 35.3315C98.8091 35.4973 98.9864 35.663 99.3408 35.663C100.05 35.663 100.759 35.663 100.759 36.3261C100.759 36.6576 100.936 36.8234 101.113 36.9891C101.29 37.1549 101.467 37.3207 101.467 37.6522V46.9348C116.354 47.5978 130.531 53.5652 141.164 63.5109L142.582 64.837C143.291 65.5 143.291 67.4891 142.582 68.1522L134.35 75.4851C139.861 83.4477 143.291 92.6878 143.291 101.928C143.291 111.173 140.269 120.24 134.766 127.56ZM126.033 121.337C130.198 115.997 132.658 109.231 132.658 102.599C132.658 96.0912 130.29 87.9948 126.267 82.6162L113.518 93.3478C115.645 96 116.354 99.3152 116.354 102.63C116.354 105.946 114.936 109.261 112.809 111.913L126.033 121.337ZM70.2768 138.435C78.0745 144.402 88.7076 147.717 99.3408 147.717L132.658 147.054C133.367 147.054 134.076 146.391 134.076 145.728V138.435L133.367 137.772L104.303 117.217C102.176 117.88 99.3408 118.543 97.2142 117.88C94.3787 117.217 92.252 116.554 90.1254 115.228C87.9988 113.902 86.581 112.576 85.1633 110.587C83.7455 108.598 83.0366 106.609 82.3277 103.957C82.3277 101.967 82.3278 99.3152 83.0366 97.3261C83.7455 95.337 85.1632 93.3479 86.581 91.3588C87.9987 90.0327 90.1254 88.0435 92.252 87.3804C94.3787 86.7174 97.2142 86.0544 99.3408 86.0544C101.467 86.0544 103.594 86.7174 105.721 87.3804L128.405 67.4891C129.114 66.8261 129.114 66.163 128.405 65.5C119.898 59.5326 109.974 56.2174 99.3408 56.2174C93.6698 56.2174 88.7076 56.8804 83.0366 58.8696V78.7609C83.0366 79.4239 83.0366 79.4239 82.3277 80.087C81.9733 80.087 81.7961 80.2527 81.6189 80.4185C81.4417 80.5842 81.2644 80.75 80.91 80.75C80.91 81.413 80.2011 81.413 79.4922 81.413C79.1378 81.413 78.9606 81.2473 78.7834 81.0815C78.6062 80.9158 78.4289 80.75 78.0745 80.75C77.3656 80.75 77.3656 80.75 76.6567 80.087C76.6567 79.7554 76.4795 79.5897 76.3023 79.4239C76.1251 79.2582 75.9479 79.0924 75.9479 78.7609V62.8478C66.7325 68.1522 59.6437 75.4457 55.3904 84.7283C51.1372 94.0109 50.4283 103.957 53.2638 113.902C56.0993 123.848 61.7703 132.467 70.2768 138.435ZM105.012 105.946C105.721 105.283 106.43 103.957 106.43 102.63C106.43 100.641 105.721 98.6522 104.303 97.9891C102.885 96.663 101.467 96 99.3408 96C98.3029 96 97.6449 96.3553 96.8106 96.8059C96.5053 96.9708 96.1763 97.1484 95.7964 97.3261C94.3787 97.9891 93.6698 98.6522 92.9609 99.9783C92.252 101.304 92.252 102.63 92.252 103.957C92.9609 105.283 93.6698 106.609 94.3786 107.272C95.0875 108.598 96.5053 109.261 97.923 109.261C99.3408 109.261 100.759 109.261 102.176 108.598C102.391 108.397 102.671 108.196 102.976 107.977C103.679 107.473 104.518 106.87 105.012 105.946Z" fill="#02E2AC"/>
</svg>
