<svg width="200" height="200" viewBox="0 0 200 200" fill="none" xmlns="http://www.w3.org/2000/svg">
<path fill-rule="evenodd" clip-rule="evenodd" d="M100 0C155.22 0 200 44.78 200 100C200 155.22 155.22 200 100 200C44.78 200 0 155.22 0 100C0 44.78 44.78 0 100 0Z" fill="black"/>
<path d="M62.5698 94.8941C61.5628 103.05 63.2407 111.312 67.3494 118.429C71.4582 125.546 77.774 131.131 85.3407 134.337C91.637 136.967 98.5235 137.859 105.282 136.921L130.907 162.392C121.348 167.086 110.845 169.54 100.195 169.57C89.5459 169.599 79.0295 167.203 69.4439 162.564C60.6734 158.327 52.887 152.3 46.5862 144.873C40.2854 137.445 35.6096 128.78 32.86 119.436C28.9383 106.124 29.0521 91.9485 33.1868 78.7015L62.5698 94.8941Z" fill="url(#paint0_radial_1854_43515)"/>
<path d="M64.2894 96.1916L33.2017 79.056C34.7342 74.4522 36.6815 69.9971 39.0195 65.7454C43.5225 57.6161 49.6216 50.4807 56.9509 44.7673C64.2802 39.0539 72.6883 34.8804 81.6707 32.4974C94.9956 28.8345 109.108 29.208 122.22 33.5707C135.333 37.9333 146.856 46.0889 155.33 57.0047C163.805 67.9205 168.849 81.1056 169.825 94.8903C170.802 108.675 167.665 122.439 160.814 134.44C158.521 138.448 155.87 142.239 152.892 145.768L64.2894 96.1916ZM75.1593 71.5489L137.123 106.756C138.579 98.9461 137.519 90.8759 134.095 83.7076C131.589 78.4427 127.897 73.8303 123.309 70.2324C118.721 66.6345 113.361 64.1492 107.651 62.9714C101.94 61.7936 96.0346 61.9556 90.3973 63.4445C84.7599 64.9334 79.5445 67.7087 75.1603 71.5526L75.1593 71.5489Z" fill="#7FFFD4"/>
<defs>
<radialGradient id="paint0_radial_1854_43515" cx="0" cy="0" r="1" gradientUnits="userSpaceOnUse" gradientTransform="translate(74.6362 133.68) rotate(29.4365) scale(63.1178 27.8484)">
<stop stop-color="#979797"/>
<stop offset="1" stop-color="#777777"/>
</radialGradient>
</defs>
</svg>
