<svg width="200" height="200" viewBox="0 0 200 200" fill="none" xmlns="http://www.w3.org/2000/svg">
<path d="M100 200C155.228 200 200 155.228 200 100C200 44.7715 155.228 0 100 0C44.7715 0 0 44.7715 0 100C0 155.228 44.7715 200 100 200Z" fill="white"/>
<path d="M107.125 32.5414L140.992 58.3085C142.558 59.478 142.401 61.778 140.718 62.7525L90.4861 91.4822L102.858 34.1007C103.289 32.1905 105.559 31.3719 107.125 32.5414Z" fill="#31CB9E"/>
<path d="M143.967 129.1L92.9527 99.9805L143.967 70.8608C145.768 69.8473 148 71.1336 148 73.1606V126.8C148 128.827 145.729 130.114 143.967 129.1Z" fill="#31CB9E"/>
<path d="M107.125 167.459L141.07 141.653C142.597 140.483 142.44 138.183 140.796 137.209L90.4861 108.518L102.897 165.899C103.25 167.809 105.52 168.628 107.125 167.459Z" fill="#31CB9E"/>
<path d="M93.2267 38.1547L79.876 99.9803L93.2267 161.884C93.7356 164.262 90.9166 166.016 88.9592 164.535L54.7798 138.572C53.0179 137.247 52 135.142 52 132.959V67.1184C52 64.9354 53.0179 62.8303 54.7798 61.505L88.9592 35.5039C90.9558 33.9446 93.7356 35.7378 93.2267 38.1547Z" fill="#31CB9E"/>
</svg>
