<svg width="200" height="200" viewBox="0 0 200 200" fill="none" xmlns="http://www.w3.org/2000/svg">
<path d="M100 200C155.228 200 200 155.228 200 100C200 44.7715 155.228 0 100 0C44.7715 0 0 44.7715 0 100C0 155.228 44.7715 200 100 200Z" fill="#000725"/>
<path fill-rule="evenodd" clip-rule="evenodd" d="M124.796 67.077C113.788 68.072 103.939 70.8904 95.1367 75.5648C88.3715 79.1573 83.6005 82.6886 77.1904 88.8469C71.014 94.7805 66.5673 97.5022 60.2297 99.2277C55.7165 100.456 47.0914 100.374 41.9066 99.0526C39.1862 98.3595 34.6768 96.0205 32.7068 94.2813L31 92.7742L32.1867 94.9707C34.0402 98.4006 37.7326 103.766 40.6292 107.238C51.642 120.44 68.4252 130.117 85.4585 133.086C90.4181 133.951 99.4427 134.265 104.659 133.754C120.31 132.222 135.425 125.412 147.868 114.285C154.817 108.072 162.469 97.571 166.183 89.1512C167.483 86.2061 170.176 78.7852 169.991 78.6587C168.713 77.7807 165.173 75.8629 161.915 74.283C155.157 71.0062 147.793 68.7445 140.386 67.6713C137.149 67.2022 127.485 66.8341 124.796 67.077ZM138.426 73.0191C143.485 73.6856 147.391 74.5689 151.801 76.0433C155.896 77.4127 162.571 80.463 162.571 80.9646C162.571 81.4633 159.654 84.9855 158.157 86.2933C154.783 89.2422 150.531 91.4011 146.986 91.9653C145.856 92.1448 143.458 92.5162 141.655 92.7908C130.599 94.4736 119.711 100.996 112.961 109.98C109.423 114.688 107.26 116.465 103.513 117.742C100.679 118.708 96.0663 118.507 93.4545 117.306C90.9741 116.164 88.9298 114.601 87.2758 112.582C85.3171 110.191 82.5682 107.842 79.8389 106.228C77.0406 104.574 75.0073 103.769 71.279 102.839L68.4948 102.145L70.8107 100.867C74.2321 98.9776 76.7278 97.0221 80.9213 92.9449C86.5206 87.5008 90.4437 84.5214 96.5415 81.0826C104.001 76.8758 113.943 73.7744 123.235 72.7555C126.253 72.4245 135.075 72.5776 138.426 73.0191Z" fill="white"/>
</svg>
