<svg width="200" height="200" viewBox="0 0 200 200" fill="none" xmlns="http://www.w3.org/2000/svg">
<path d="M100 200C155.228 200 200 155.228 200 100C200 44.7715 155.228 0 100 0C44.7715 0 0 44.7715 0 100C0 155.228 44.7715 200 100 200Z" fill="black"/>
<path d="M135.463 122.488C140.162 128.793 145.007 135.244 149.853 141.696C140.162 153.132 128.121 160.463 113.584 163.542C97.4323 166.914 82.1614 164.422 67.331 156.211C80.5462 146.388 93.4678 136.711 106.536 127.034C109.473 129.819 112.263 132.605 115.053 135.244C118.136 138.177 116.961 138.323 120.926 136.124C126.359 133.045 130.911 128.793 134.435 123.661C134.582 123.368 134.875 123.075 135.022 122.782C134.875 122.782 135.022 122.782 135.463 122.488ZM77.7563 135.391C74.0854 138.177 70.7082 140.669 67.331 143.308C64.8348 145.215 62.3386 146.974 59.8424 148.88C58.8145 149.76 58.0803 149.76 56.9056 148.733C45.7461 138.763 38.698 126.447 36.055 111.785C33.4119 96.9762 35.7613 82.9005 42.8094 69.558C42.9562 69.2648 43.2499 68.8249 43.3967 68.5317C43.3967 68.385 43.5436 68.385 43.8373 68.2384C53.5284 80.9945 63.3664 93.7505 73.0576 106.507C72.7639 106.946 72.6171 107.24 72.3234 107.533C69.3867 110.612 66.45 113.691 63.3664 116.623C62.4854 117.503 62.3386 118.236 62.9259 119.263C66.0095 125.127 70.2677 129.966 75.5538 133.925C76.288 134.365 76.8753 134.804 77.7563 135.391ZM132.526 44.3392C127.827 47.7115 123.129 51.0837 118.43 54.3094C110.354 60.0276 102.278 65.8925 94.3488 71.6107C93.3209 72.3438 92.5867 72.4904 91.7057 71.4641C89.0627 68.6783 86.2728 66.1857 83.6298 63.3999C82.8956 62.6668 82.1614 62.5202 81.1335 62.9601C74.8196 66.1857 69.8272 70.731 65.7158 76.4492C65.4221 76.7425 65.1284 77.1823 64.8348 77.6222C62.4854 74.5431 60.2829 71.7573 58.0803 68.8249C55.7309 65.7459 53.5284 62.6668 51.3259 59.7344C50.5917 58.708 50.4449 57.9749 51.4727 56.9486C62.7791 44.4858 76.7285 37.1547 93.4678 35.3953C106.683 33.9291 119.311 36.5682 131.058 42.873C131.498 43.1662 131.939 43.3128 132.379 43.6061C132.379 44.0459 132.379 44.1925 132.526 44.3392ZM156.46 132.312C153.377 128.353 150.587 124.688 147.797 121.022C141.336 112.518 134.875 103.867 128.268 95.3633C127.387 94.1904 127.387 93.4573 128.415 92.4309C131.205 89.6451 133.848 86.8593 136.637 84.0735C137.372 83.3404 137.665 82.6073 137.078 81.5809C133.848 75.4229 129.443 70.2911 123.716 66.1857C123.275 65.8925 122.835 65.4526 122.248 65.1594C122.688 64.7195 123.129 64.4263 123.422 64.133C129.002 59.881 134.582 55.7756 140.162 51.5236C141.043 50.7905 141.777 50.4973 142.805 51.5236C156.754 64.133 164.243 79.8215 164.977 98.7356C165.27 109.732 162.774 120.142 157.782 129.966C157.341 130.552 156.901 131.286 156.46 132.312Z" fill="white"/>
</svg>
