<svg width="200" height="200" viewBox="0 0 200 200" fill="none" xmlns="http://www.w3.org/2000/svg">
<path fill-rule="evenodd" clip-rule="evenodd" d="M100 0C155.22 0 200 44.78 200 100C200 155.22 155.22 200 100 200C44.78 200 0 155.22 0 100C0 44.78 44.78 0 100 0Z" fill="#131D27"/>
<path fill-rule="evenodd" clip-rule="evenodd" d="M100 0C155.22 0 200 44.78 200 100C200 155.22 155.22 200 100 200C44.78 200 0 155.22 0 100C0 44.78 44.78 0 100 0Z" fill="black"/>
<path d="M113.687 44.1907C114.767 43.5106 114.602 43.3776 107.517 39.2371C103.513 36.8971 100.024 34.9904 99.7627 35C99.5017 35.01 98.5407 35.5142 97.6271 36.1203C96.7136 36.7268 88.5983 41.4839 79.5932 46.691C70.5881 51.8986 60.2305 57.9228 56.5763 60.0782C52.922 62.2335 48.6001 64.7285 46.9718 65.6225L44.0114 67.2479L44 132.457L51.6079 136.88L59.1732 132.78L59.2007 105.036L65.0071 101.729C68.2005 99.9091 72.3085 97.5251 74.1356 96.4307C75.9627 95.3363 80.5542 92.6437 84.339 90.4472C93.8751 84.9129 111.906 74.3522 132.153 62.4416C136.133 60.1002 139.382 58.0711 139.372 57.9329C139.345 57.5511 125.735 49.7887 125.093 49.7887C124.786 49.7887 122.911 50.7315 120.928 51.8838C118.945 53.0357 116.575 54.4017 115.661 54.9189C112.163 56.8987 83.5972 73.3644 72.9492 79.5383C66.8153 83.0947 61.3159 86.2584 60.7288 86.5689L59.661 87.1323V81.4526C59.661 76.0402 59.7113 75.747 60.7288 75.2342C61.3159 74.9386 62.9712 74.0192 64.4068 73.1912C65.8424 72.3637 71.7153 68.9848 77.4576 65.6824C97.6352 54.0779 103.606 50.5358 113.687 44.1907Z" fill="#F0F2F1"/>
<path d="M156 67.5292L152.559 65.5264C150.667 64.4243 149.002 63.4609 148.86 63.3849C148.717 63.3088 146.902 64.1583 144.826 65.2729L141.051 67.2996L140.806 124.213L134.996 127.61C131.801 129.479 125.022 133.415 119.932 136.357C114.842 139.3 109.503 142.411 108.068 143.27C106.632 144.129 101.028 147.393 95.6141 150.525C90.1996 153.656 85.7685 156.332 85.7666 156.472C85.7642 156.611 88.9562 158.587 92.8592 160.862L99.955 165L120.503 153.029C131.804 146.445 144.415 139.115 148.526 136.74L156 132.423V67.5292Z" fill="#E9C788"/>
<path d="M130.61 90.9944L130.74 82.3499C130.811 77.5953 130.704 73.7241 130.503 73.7466C130.301 73.7695 127.893 75.128 125.153 76.7658C122.412 78.4037 117.18 81.4841 113.526 83.6122C109.871 85.7399 99.1933 91.9587 89.7967 97.4313C80.4001 102.904 71.6992 107.93 70.4615 108.601L68.2116 109.82L68.2073 118.31C68.2054 122.98 68.3207 126.801 68.4645 126.801C68.9111 126.801 71.5569 125.356 77.2204 122.019C80.2221 120.251 91.3272 113.788 101.898 107.658C112.47 101.527 123.254 95.2702 125.865 93.7529L130.61 90.9944Z" fill="#E9C788"/>
<path d="M130.806 118.637L130.946 110.043C131.035 104.523 130.915 101.459 130.61 101.48C130.349 101.498 127.893 102.86 125.153 104.507C122.412 106.154 115.471 110.25 109.729 113.609C103.987 116.968 98.1137 120.42 96.6781 121.278C95.2425 122.136 86.6403 127.202 77.5621 132.536L61.0559 142.234L64.9375 144.561C71.6242 148.57 74.7379 150.239 75.5272 150.239C75.9467 150.239 77.0866 149.739 78.0604 149.128C79.0338 148.518 89.334 142.56 100.949 135.889C112.565 129.217 124.034 122.607 126.437 121.198L130.806 118.637Z" fill="#E9C788"/>
</svg>
