<svg width="200" height="200" viewBox="0 0 200 200" fill="none" xmlns="http://www.w3.org/2000/svg">
<circle cx="100" cy="100" r="100" fill="url(#paint0_linear_2233_49299)"/>
<path d="M49.4535 56.3788C53.8169 58.6646 57.677 61.8032 60.8049 65.6086C63.9327 69.414 66.2647 73.8087 67.6625 78.5321C67.9789 79.6089 68.2491 80.6935 68.4652 81.805C69.6884 85.9516 71.6352 89.8492 74.2158 93.3178V93.3409C74.6984 93.9581 75.3916 94.3757 76.1627 94.5138C76.9339 94.652 77.7289 94.5009 78.3957 94.0897L79.4802 93.4567C80.6998 92.7504 81.8499 92.0828 82.8341 91.3996C88.8471 87.216 92.8918 80.8941 95.2423 74.0204C96.2264 71.1413 96.7127 68.0267 96.1531 65.0356C94.9721 58.7176 88.7776 55.0009 82.6256 55.0009H49.7506C49.5814 54.9922 49.4145 55.0441 49.2799 55.1471C49.1453 55.2502 49.0518 55.3978 49.0161 55.5635C48.9803 55.7292 49.0047 55.9022 49.0848 56.0516C49.165 56.2009 49.2956 56.3169 49.4535 56.3788V56.3788Z" fill="#FEFEFE"/>
<path d="M150.985 143.522C146.621 141.236 142.76 138.097 139.632 134.291C136.505 130.484 134.173 126.089 132.776 121.365C132.459 120.292 132.189 119.207 131.969 118.096C130.747 113.955 128.801 110.064 126.222 106.602V106.575C125.739 105.958 125.045 105.54 124.274 105.402C123.502 105.264 122.706 105.415 122.039 105.826C121.672 106.043 121.309 106.255 120.95 106.459C119.735 107.166 118.584 107.83 117.6 108.517C111.591 112.685 107.539 119.007 105.192 125.884C104.208 128.763 103.722 131.878 104.281 134.869C105.462 141.187 111.657 144.904 117.809 144.904H150.68C150.852 144.918 151.023 144.869 151.162 144.766C151.301 144.664 151.398 144.514 151.435 144.346C151.473 144.177 151.447 144.001 151.365 143.849C151.282 143.698 151.147 143.582 150.985 143.522V143.522Z" fill="#FEFEFE"/>
<path d="M74.2163 106.726C71.6365 110.188 69.6908 114.081 68.4696 118.223C68.2535 119.334 67.9833 120.419 67.6668 121.492C66.2678 126.214 63.9353 130.608 60.8075 134.412C57.6798 138.217 53.8204 141.355 49.4578 143.641H49.4192C49.2775 143.717 49.165 143.838 49.0996 143.984C49.0342 144.131 49.0197 144.295 49.0582 144.451C49.0967 144.607 49.1862 144.746 49.3124 144.845C49.4386 144.945 49.5944 144.999 49.755 145H82.63C84.9797 145.002 87.2973 144.454 89.3979 143.402C91.4986 142.349 93.3243 140.82 94.7294 138.937C97.3049 135.471 99.2501 131.579 100.476 127.439C100.692 126.328 100.962 125.247 101.279 124.17C103.544 116.451 108.357 109.929 114.691 105.047C115.73 104.268 116.823 103.563 117.96 102.936C118.075 102.869 118.165 102.766 118.216 102.643C118.268 102.52 118.277 102.384 118.242 102.255C118.208 102.126 118.132 102.012 118.027 101.931C117.921 101.849 117.792 101.805 117.659 101.805H84.5018C80.8006 101.805 77.1688 103.26 74.7489 106.05C74.5637 106.277 74.3861 106.502 74.2163 106.726Z" fill="#FEFEFE"/>
<path d="M150.745 55.0125H117.87C115.521 55.0111 113.203 55.5586 111.103 56.6113C109.002 57.6639 107.176 59.1927 105.771 61.0757C103.197 64.5387 101.257 68.4299 100.04 72.5692C99.8234 73.6808 99.5532 74.7653 99.2368 75.8421C96.95 83.6415 92.079 90.4315 85.4237 95.097C84.428 95.7878 83.3396 96.4324 82.2319 97.0769C82.1165 97.1435 82.0262 97.2462 81.9751 97.3693C81.9239 97.4924 81.9148 97.6289 81.9491 97.7577C81.9834 97.8864 82.0592 98.0003 82.1647 98.0817C82.2703 98.163 82.3997 98.2073 82.533 98.2077H116.049C117.747 98.2305 119.432 97.9172 121.009 97.286C122.585 96.6548 124.021 95.718 125.234 94.5296C125.613 94.1512 125.963 93.7462 126.284 93.3178C128.86 89.8541 130.805 85.9634 132.031 81.8243C132.247 80.7127 132.517 79.6282 132.833 78.5514C134.232 73.8283 136.564 69.4338 139.692 65.6285C142.82 61.8232 146.679 58.6844 151.042 56.398C151.207 56.3408 151.345 56.2254 151.43 56.0737C151.515 55.9219 151.542 55.7442 151.506 55.574C151.469 55.4038 151.372 55.2528 151.232 55.1494C151.092 55.046 150.919 54.9973 150.745 55.0125V55.0125Z" fill="#FEFEFE"/>
<defs>
<linearGradient id="paint0_linear_2233_49299" x1="186" y1="-7.49999" x2="43" y2="275.5" gradientUnits="userSpaceOnUse">
<stop stop-color="#57AADF"/>
<stop offset="1" stop-color="#29184C"/>
</linearGradient>
</defs>
</svg>
