<svg width="200" height="200" viewBox="0 0 200 200" fill="none" xmlns="http://www.w3.org/2000/svg">
<path d="M100 200C155.228 200 200 155.228 200 100C200 44.7715 155.228 0 100 0C44.7715 0 0 44.7715 0 100C0 155.228 44.7715 200 100 200Z" fill="black"/>
<path d="M143.948 94.3329C140.02 99.895 134.403 104.055 127.923 106.202L154 156H133.768L110.546 108.187H88.7289V156H71.6691V93.0761H114.488C127.289 93.0761 133.61 84.7314 133.61 75.3041C133.762 72.8814 133.324 70.458 132.334 68.2396C131.344 66.0212 129.831 64.0734 127.923 62.5614C124.519 60.1286 120.406 58.8957 116.233 59.0435V75.7553H46V57.7126H71.6691V44H115.599C125.091 44 132.5 46.2102 138.413 51.3975C141.924 54.3308 144.755 57.9869 146.711 62.114C148.666 66.2411 149.7 70.7411 149.741 75.3041C149.906 82.1008 147.875 88.7708 143.948 94.3329Z" fill="white"/>
</svg>
