<svg width="200" height="200" viewBox="0 0 200 200" fill="none" xmlns="http://www.w3.org/2000/svg">
<path d="M100 200C155.228 200 200 155.228 200 100C200 44.7715 155.228 0 100 0C44.7715 0 0 44.7715 0 100C0 155.228 44.7715 200 100 200Z" fill="black"/>
<path fill-rule="evenodd" clip-rule="evenodd" d="M92.4777 47.3149C89.5779 47.7717 83.9597 50.0123 81.4597 51.7094C77.6749 54.2791 67.2768 64.382 62.1052 70.5153C52.4793 81.9296 50.4806 89.6738 56.1333 93.6526C59.4399 95.98 69.8766 98.2744 81.6791 99.2684C84.2474 99.4852 86.6371 99.8952 86.9891 100.18C87.4479 100.551 87.2372 102.952 86.2449 108.651C83.9387 121.893 83.5569 133.256 85.2001 139.734C87.2384 147.768 93.9113 153.003 102.109 153C106.792 152.998 109.785 151.751 113.184 148.384C119.849 141.781 121.598 129.978 118.878 109.955C118.251 105.343 117.861 101.245 118.012 100.848C118.2 100.351 119.773 100.124 123.039 100.123C130.682 100.12 141.016 98.9943 143.253 97.9211C149.616 94.8675 149.58 85.4117 143.16 73.5261C136.494 61.1849 128.069 53.5158 116.996 49.7111C110.877 47.6086 98.3731 46.3862 92.4777 47.3149Z" fill="white"/>
</svg>
