<svg xmlns="http://www.w3.org/2000/svg" width="200" height="200" viewBox="0 0 200 200" fill="none">
<path fill-rule="evenodd" clip-rule="evenodd" d="M100 0C155.22 0 200 44.78 200 100C200 155.22 155.22 200 100 200C44.78 200 0 155.22 0 100C0 44.78 44.78 0 100 0Z" fill="#5673E3"/>
<path d="M99.9908 30L99.0515 33.1904V125.761L99.9908 126.698L142.96 101.298L99.9908 30Z" fill="#C0CCF7"/>
<path d="M99.9893 30L57.019 101.298L99.9893 126.698V81.7666V30Z" fill="white"/>
<path d="M99.991 134.82L99.4617 135.465V168.44L99.991 169.986L142.987 109.434L99.991 134.82Z" fill="#C0CCF7"/>
<path d="M99.9893 169.986V134.82L57.019 109.434L99.9893 169.986Z" fill="white"/>
<path d="M99.9915 126.713L142.961 101.314L99.9915 81.7822V126.713Z" fill="#8198EE"/>
<path d="M57.019 101.314L99.9893 126.713V81.7822L57.019 101.314Z" fill="#C0CCF7"/>
</svg>