<svg width="200" height="200" viewBox="0 0 200 200" fill="none" xmlns="http://www.w3.org/2000/svg">
<circle cx="100" cy="100" r="100" fill="#446EF5"/>
<path d="M64.0313 57.0236L99.8786 51.5825C110.368 49.9904 119.814 58.1106 119.814 68.7203V132.095C119.814 136.92 116.996 141.3 112.604 143.3L77.0176 159.505C65.5396 164.731 52.5 156.341 52.5 143.729V70.4373C52.5 63.7305 57.4005 58.0301 64.0313 57.0236Z" stroke="white" stroke-width="3"/>
<path d="M77.8428 49.4899L113.69 44.0488C124.18 42.4567 133.625 50.5769 133.625 61.1866V125.562C133.625 130.386 130.807 134.767 126.416 136.766L90.8291 152.971C79.3512 158.197 66.3115 149.807 66.3115 137.195V62.9036C66.3115 56.1968 71.212 50.4964 77.8428 49.4899Z" stroke="white" stroke-width="3"/>
<path d="M92.2822 42.2119L128.13 36.7708C138.619 35.1786 148.065 43.2988 148.065 53.9085V119.283C148.065 124.108 145.246 128.489 140.855 130.488L105.269 146.693C93.7906 151.919 80.751 143.529 80.751 130.917V55.6255C80.751 48.9187 85.6514 43.2183 92.2822 42.2119Z" stroke="white" stroke-width="3"/>
</svg>
