<svg width="200" height="200" viewBox="0 0 200 200" fill="none" xmlns="http://www.w3.org/2000/svg">
<circle cx="100" cy="100" r="100" fill="#FF9B00"/>
<path fill-rule="evenodd" clip-rule="evenodd" d="M91.5904 47.0245C47.9302 56.6717 33.0937 109.809 65.5055 140.448C89.7181 163.335 130.023 158.586 148.24 130.699C152.219 124.609 152.383 125.806 145.49 110.635L139.36 97.1444L123.201 97.3436L107.043 97.5422L109.347 102.699C110.614 105.535 113.114 111.049 114.902 114.953L118.152 122.052L116.458 123.195C101.546 133.255 80.1698 123.456 77.3274 105.258C73.8325 82.8777 100.09 67.3626 118.274 81.0632C119.854 82.2535 121.203 83.1507 121.273 83.0574C121.342 82.964 125.127 78.1708 129.684 72.406C140.171 59.1375 139.554 60.1622 137.907 58.7565C126.066 48.6463 106.584 43.7114 91.5904 47.0245Z" fill="#FEFEFE"/>
</svg>
