<svg width="200" height="200" viewBox="0 0 200 200" fill="none" xmlns="http://www.w3.org/2000/svg">
<g clip-path="url(#clip0_1854_43900)">
<path d="M100 200C155.228 200 200 155.228 200 100C200 44.7715 155.228 0 100 0C44.7715 0 0 44.7715 0 100C0 155.228 44.7715 200 100 200Z" fill="black"/>
<path d="M99.9997 199.999C155.228 199.999 199.999 155.228 199.999 99.9997C199.999 44.7714 155.228 0 99.9997 0C44.7714 0 0 44.7714 0 99.9997C0 155.228 44.7714 199.999 99.9997 199.999Z" fill="url(#paint0_linear_1854_43900)"/>
<path d="M100 200C155.229 200 200 155.228 200 99.9998C200 72.352 188.78 47.3246 170.645 29.2231L29.2236 170.644C47.325 188.779 72.3525 200 100 200Z" fill="url(#paint1_linear_1854_43900)"/>
<path fill-rule="evenodd" clip-rule="evenodd" d="M135.317 64.9176C138.928 68.5284 138.928 74.3826 135.317 77.9934L77.5066 135.804C73.8957 139.415 68.0416 139.415 64.4308 135.804C60.82 132.193 60.82 126.339 64.4308 122.728L122.241 64.9176C125.852 61.3068 131.706 61.3068 135.317 64.9176Z" fill="white"/>
<path opacity="0.5" fill-rule="evenodd" clip-rule="evenodd" d="M158.059 41.5619C160.945 44.4478 160.945 49.127 158.059 52.0128L153.094 56.9782C150.208 59.8645 145.529 59.8645 142.643 56.9782C139.757 54.0924 139.757 49.4132 142.643 46.5274L147.608 41.5619C150.494 38.676 155.173 38.676 158.059 41.5619Z" fill="white"/>
<path opacity="0.3" fill-rule="evenodd" clip-rule="evenodd" d="M131.105 28.4472C133.669 31.012 133.669 35.1701 131.105 37.7348L109.464 59.376C106.899 61.9406 102.741 61.9406 100.176 59.376C97.6111 56.8114 97.6111 52.6531 100.176 50.0885L121.817 28.4472C124.382 25.8825 128.54 25.8825 131.105 28.4472Z" fill="white"/>
<path fill-rule="evenodd" clip-rule="evenodd" d="M88.6418 70.3919C92.2609 74.0111 92.2609 79.8794 88.6418 83.499L77.4993 94.641C73.8801 98.2606 68.0118 98.2606 64.3927 94.641C60.7731 91.0219 60.7731 85.1536 64.3927 81.534L75.5347 70.3919C79.1543 66.7724 85.0222 66.7724 88.6418 70.3919Z" fill="white"/>
<path d="M64.2007 94.4441C64.2632 94.5108 64.3273 94.5766 64.3923 94.6416C68.0115 98.2608 73.8798 98.2608 77.4994 94.6416L88.6415 83.4992C92.261 79.88 92.261 74.0117 88.6415 70.3925C88.5765 70.3271 88.5106 70.2634 88.444 70.2004L64.2007 94.4441Z" fill="url(#paint2_linear_1854_43900)"/>
<path opacity="0.3" fill-rule="evenodd" clip-rule="evenodd" d="M55.4163 104.188C57.828 106.599 57.828 110.509 55.4163 112.92L36.3079 132.029C33.8965 134.44 29.9868 134.44 27.5754 132.029C25.164 129.617 25.164 125.708 27.5754 123.296L46.6839 104.188C49.0951 101.776 53.0051 101.776 55.4163 104.188Z" fill="white"/>
<path opacity="0.2" fill-rule="evenodd" clip-rule="evenodd" d="M96.7469 24.8485C98.5406 26.6422 98.5406 29.5504 96.7469 31.3441L81.3436 46.7477C79.5498 48.5415 76.6415 48.5415 74.8478 46.7477C73.054 44.954 73.054 42.0457 74.8478 40.252L90.2515 24.8485C92.0452 23.0547 94.9531 23.0547 96.7469 24.8485Z" fill="white"/>
<path opacity="0.2" fill-rule="evenodd" clip-rule="evenodd" d="M65.9465 56.0479C67.7403 57.8417 67.7403 60.7496 65.9465 62.5433L30.1431 98.347C28.3494 100.141 25.4412 100.141 23.6475 98.347C21.8538 96.5533 21.8538 93.6449 23.6475 91.8512L59.4511 56.0479C61.2449 54.2542 64.1528 54.2542 65.9465 56.0479Z" fill="white"/>
<path opacity="0.1" fill-rule="evenodd" clip-rule="evenodd" d="M57.7461 34.2831C58.9611 35.4981 58.9611 37.4681 57.7461 38.6832L42.3961 54.0328C41.1812 55.2482 39.2113 55.2482 37.9962 54.0328C36.7812 52.8178 36.7812 50.8478 37.9962 49.6328L53.3461 34.2831C54.5611 33.0681 56.5311 33.0681 57.7461 34.2831Z" fill="white"/>
<path opacity="0.5" fill-rule="evenodd" clip-rule="evenodd" d="M41.6257 159.18C38.7397 156.294 38.7397 151.615 41.6257 148.729L46.5911 143.763C49.4769 140.878 54.1561 140.878 57.0419 143.763C59.9282 146.649 59.9282 151.328 57.0419 154.214L52.0765 159.18C49.1907 162.066 44.5115 162.066 41.6257 159.18Z" fill="white"/>
<path opacity="0.3" fill-rule="evenodd" clip-rule="evenodd" d="M68.5797 172.295C66.0151 169.73 66.0151 165.572 68.5797 163.007L90.2209 141.366C92.7859 138.801 96.9438 138.801 99.5088 141.366C102.073 143.931 102.073 148.089 99.5088 150.654L77.8676 172.295C75.3026 174.86 71.1443 174.86 68.5797 172.295Z" fill="white"/>
<path fill-rule="evenodd" clip-rule="evenodd" d="M111.041 130.35C107.422 126.731 107.422 120.863 111.041 117.244L122.184 106.101C125.803 102.482 131.671 102.482 135.29 106.101C138.91 109.721 138.91 115.589 135.29 119.208L124.148 130.35C120.529 133.97 114.661 133.97 111.041 130.35Z" fill="white"/>
<path d="M110.689 129.978C110.802 130.104 110.92 130.229 111.042 130.351C114.661 133.97 120.529 133.97 124.149 130.351L135.291 119.208C138.911 115.589 138.911 109.721 135.291 106.102C135.169 105.98 135.045 105.862 134.918 105.748L110.689 129.978Z" fill="url(#paint3_linear_1854_43900)"/>
<path opacity="0.3" fill-rule="evenodd" clip-rule="evenodd" d="M144.267 96.5551C141.855 94.1435 141.855 90.2339 144.267 87.8226L163.375 68.714C165.786 66.3027 169.696 66.3027 172.108 68.714C174.519 71.1256 174.519 75.0352 172.108 77.4464L152.999 96.5551C150.588 98.9664 146.678 98.9664 144.267 96.5551Z" fill="white"/>
<path opacity="0.2" fill-rule="evenodd" clip-rule="evenodd" d="M102.936 175.894C101.142 174.1 101.142 171.192 102.936 169.398L118.339 153.995C120.133 152.201 123.041 152.201 124.835 153.995C126.629 155.789 126.629 158.697 124.835 160.49L109.432 175.894C107.638 177.687 104.73 177.687 102.936 175.894Z" fill="white"/>
<path opacity="0.2" fill-rule="evenodd" clip-rule="evenodd" d="M133.736 144.694C131.943 142.901 131.943 139.993 133.736 138.199L169.54 102.395C171.333 100.602 174.242 100.602 176.035 102.395C177.829 104.189 177.829 107.097 176.035 108.891L140.232 144.694C138.438 146.488 135.53 146.488 133.736 144.694Z" fill="white"/>
<path opacity="0.1" fill-rule="evenodd" clip-rule="evenodd" d="M141.937 166.46C140.722 165.245 140.722 163.275 141.937 162.06L157.287 146.71C158.502 145.495 160.472 145.495 161.687 146.71C162.902 147.925 162.902 149.895 161.687 151.11L146.337 166.46C145.122 167.675 143.152 167.675 141.937 166.46Z" fill="#ECE8FA"/>
<path d="M64.2495 135.618C64.3091 135.681 64.3695 135.743 64.4312 135.804C68.042 139.415 73.8962 139.415 77.507 135.804L135.318 77.9942C138.928 74.3834 138.928 68.5288 135.318 64.918C135.256 64.8563 135.194 64.7959 135.131 64.7363L64.2495 135.618Z" fill="url(#paint4_linear_1854_43900)"/>
</g>
<defs>
<linearGradient id="paint0_linear_1854_43900" x1="0" y1="0" x2="229.541" y2="43.2628" gradientUnits="userSpaceOnUse">
<stop stop-color="#D506D6"/>
<stop offset="1" stop-color="#6B57B8"/>
</linearGradient>
<linearGradient id="paint1_linear_1854_43900" x1="106.8" y1="29.1999" x2="106.8" y2="200" gradientUnits="userSpaceOnUse">
<stop stop-color="#5C2F97"/>
<stop offset="1" stop-color="#5C2F97" stop-opacity="0"/>
</linearGradient>
<linearGradient id="paint2_linear_1854_43900" x1="77.7781" y1="70.2004" x2="77.7781" y2="97.4904" gradientUnits="userSpaceOnUse">
<stop stop-color="#E8EAEE"/>
<stop offset="1" stop-color="#E8EAEE" stop-opacity="0"/>
</linearGradient>
<linearGradient id="paint3_linear_1854_43900" x1="124.347" y1="105.748" x2="124.347" y2="133.2" gradientUnits="userSpaceOnUse">
<stop stop-color="#E8EAEE"/>
<stop offset="1" stop-color="#E8EAEE" stop-opacity="0"/>
</linearGradient>
<linearGradient id="paint4_linear_1854_43900" x1="101.138" y1="64.7363" x2="101.138" y2="147" gradientUnits="userSpaceOnUse">
<stop stop-color="#E8EAEE"/>
<stop offset="1" stop-color="#E8EAEE" stop-opacity="0"/>
</linearGradient>
<clipPath id="clip0_1854_43900">
<rect width="200" height="200" fill="white"/>
</clipPath>
</defs>
</svg>
