<svg width="200" height="200" viewBox="0 0 200 200" fill="none" xmlns="http://www.w3.org/2000/svg">
<path fill-rule="evenodd" clip-rule="evenodd" d="M100 0C155.22 0 200 44.78 200 100C200 155.22 155.22 200 100 200C44.78 200 0 155.22 0 100C0 44.78 44.78 0 100 0Z" fill="url(#paint0_linear_2233_49277)"/>
<mask id="mask0_2233_49277" style="mask-type:alpha" maskUnits="userSpaceOnUse" x="0" y="0" width="200" height="200">
<path fill-rule="evenodd" clip-rule="evenodd" d="M100 0C155.22 0 200 44.78 200 100C200 155.22 155.22 200 100 200C44.78 200 0 155.22 0 100C0 44.78 44.78 0 100 0Z" fill="url(#paint1_linear_2233_49277)"/>
</mask>
<g mask="url(#mask0_2233_49277)">
<g filter="url(#filter0_f_2233_49277)">
<circle cx="12" cy="119" r="48" fill="#8F68F5"/>
</g>
<g filter="url(#filter1_f_2233_49277)">
<circle cx="204" cy="111" r="48" fill="#8F68F5"/>
</g>
<g opacity="0.07" filter="url(#filter2_f_2233_49277)">
<path d="M98.0405 9.5869C98.4764 7.45424 101.524 7.45425 101.959 9.58691L116.706 81.735C116.866 82.5201 117.48 83.1335 118.265 83.294L190.413 98.0405C192.546 98.4764 192.546 101.524 190.413 101.959L118.265 116.706C117.48 116.866 116.866 117.48 116.706 118.265L101.959 190.413C101.524 192.546 98.4764 192.546 98.0405 190.413L83.294 118.265C83.1335 117.48 82.5201 116.866 81.735 116.706L9.5869 101.959C7.45424 101.524 7.45425 98.4764 9.58691 98.0405L81.735 83.294C82.5201 83.1335 83.1335 82.5201 83.294 81.735L98.0405 9.5869Z" fill="#0A2B55"/>
</g>
<path fill-rule="evenodd" clip-rule="evenodd" d="M53.5257 64.6305C53.5257 64.6305 43.0221 56.1688 42.2997 77.0673C41.5773 93.2627 41.5969 124.709 49.0353 139.566C52.1786 145.155 56.3761 143.443 64.1855 137.874C70.9797 132.816 95.5597 109.989 105.966 99.973C116.372 89.9567 137.477 61.2261 141.869 80.7472C143.607 88.9531 145.754 95.9193 144.115 114.122C143.607 119.73 141.225 123.981 130.37 116.385C122.17 111.072 114.38 105.365 114.38 105.365C114.38 105.365 112.877 102.649 109.324 107.057C106.532 110.58 105.126 111.446 109.597 114.122C114.087 116.798 136.793 132.58 145.501 135.04C152.685 137.146 156.785 137.106 157 122.879C156.961 111.583 156.317 79.2516 152.236 65.4767C149.152 56.8969 144.622 53.0005 134.841 62.643C125.06 72.2854 94.2126 102.433 77.3443 116.09C66.1574 124.551 61.3741 132.187 57.1571 118.077C54.1895 107.392 50.3434 74.1352 62.487 80.4717C70.0816 84.1319 73.8691 84.1122 70.9016 86.4146C67.934 88.6973 59.4023 96.5884 59.4023 96.5884C59.4023 96.5884 56.7666 98.7333 57.9966 103.377C59.2265 106.624 59.2265 108.238 65.845 101.961C72.4634 95.6831 77.3443 90.9406 77.3443 90.9406C77.3443 90.9406 78.3986 89.268 81.5418 92.3575C84.6851 95.447 85.1927 96.3128 85.1927 96.3128C85.1927 96.3128 86.0322 98.6152 89.3903 94.6205C92.7678 90.6258 94.9349 88.1856 88.5508 84.4467C82.1861 80.6685 53.5257 64.6305 53.5257 64.6305Z" fill="white"/>
<mask id="mask1_2233_49277" style="mask-type:alpha" maskUnits="userSpaceOnUse" x="42" y="57" width="115" height="86">
<path fill-rule="evenodd" clip-rule="evenodd" d="M53.5257 64.6305C53.5257 64.6305 43.0221 56.1688 42.2997 77.0673C41.5773 93.2627 41.5969 124.709 49.0353 139.566C52.1786 145.155 56.3761 143.443 64.1855 137.874C70.9797 132.816 95.5597 109.989 105.966 99.973C116.372 89.9567 137.477 61.2261 141.869 80.7472C143.607 88.9531 145.754 95.9193 144.115 114.122C143.607 119.73 141.225 123.981 130.37 116.385C122.17 111.072 114.38 105.365 114.38 105.365C114.38 105.365 112.877 102.649 109.324 107.057C106.532 110.58 105.126 111.446 109.597 114.122C114.087 116.798 136.793 132.58 145.501 135.04C152.685 137.146 156.785 137.106 157 122.879C156.961 111.583 156.317 79.2516 152.236 65.4767C149.152 56.8969 144.622 53.0005 134.841 62.643C125.06 72.2854 94.2126 102.433 77.3443 116.09C66.1574 124.551 61.3741 132.187 57.1571 118.077C54.1895 107.392 50.3434 74.1352 62.487 80.4717C70.0816 84.1319 73.8691 84.1122 70.9016 86.4146C67.934 88.6973 59.4023 96.5884 59.4023 96.5884C59.4023 96.5884 56.7666 98.7333 57.9966 103.377C59.2265 106.624 59.2265 108.238 65.845 101.961C72.4634 95.6831 77.3443 90.9406 77.3443 90.9406C77.3443 90.9406 78.3986 89.268 81.5418 92.3575C84.6851 95.447 85.1927 96.3128 85.1927 96.3128C85.1927 96.3128 86.0322 98.6152 89.3903 94.6205C92.7678 90.6258 94.9349 88.1856 88.5508 84.4467C82.1861 80.6685 53.5257 64.6305 53.5257 64.6305Z" fill="white"/>
</mask>
<g mask="url(#mask1_2233_49277)">
<path d="M158.619 91.6683L113.604 82.2739C110.751 81.6784 109.472 78.3283 111.203 75.9829L122.502 60.6744C122.831 60.2296 123.247 59.8577 123.727 59.5822L141.714 49.2392C142.544 48.7623 143.517 48.5984 144.457 48.7775L151.041 50.0316C152.545 50.3181 153.754 51.4382 154.154 52.9162L163.297 86.7079C164.077 89.589 161.541 92.2781 158.619 91.6683Z" fill="#1DF9FA"/>
<path d="M58.6289 75.4034L64.85 70.7375C65.8852 69.9611 67.2322 69.7334 68.4651 70.1265L100.71 80.4075C100.903 80.4691 101.091 80.5453 101.273 80.6354L166.278 112.897C167.639 113.573 168.5 114.961 168.5 116.48V138.5C168.5 140.709 166.709 142.5 164.5 142.5H76.1173C74.2845 142.5 72.6862 141.254 72.2385 139.477L57.15 79.5805C56.7563 78.0173 57.3393 76.3705 58.6289 75.4034Z" fill="#1DF9FA"/>
</g>
<path d="M100 6.5C151.63 6.5 193.5 48.3699 193.5 100C193.5 151.63 151.63 193.5 100 193.5C48.3699 193.5 6.5 151.63 6.5 100C6.5 48.3699 48.3699 6.5 100 6.5Z" stroke="#023380" stroke-width="13"/>
</g>
<defs>
<filter id="filter0_f_2233_49277" x="-80" y="27" width="184" height="184" filterUnits="userSpaceOnUse" color-interpolation-filters="sRGB">
<feFlood flood-opacity="0" result="BackgroundImageFix"/>
<feBlend mode="normal" in="SourceGraphic" in2="BackgroundImageFix" result="shape"/>
<feGaussianBlur stdDeviation="22" result="effect1_foregroundBlur_2233_49277"/>
</filter>
<filter id="filter1_f_2233_49277" x="112" y="19" width="184" height="184" filterUnits="userSpaceOnUse" color-interpolation-filters="sRGB">
<feFlood flood-opacity="0" result="BackgroundImageFix"/>
<feBlend mode="normal" in="SourceGraphic" in2="BackgroundImageFix" result="shape"/>
<feGaussianBlur stdDeviation="22" result="effect1_foregroundBlur_2233_49277"/>
</filter>
<filter id="filter2_f_2233_49277" x="4.9873" y="4.9873" width="190.025" height="190.025" filterUnits="userSpaceOnUse" color-interpolation-filters="sRGB">
<feFlood flood-opacity="0" result="BackgroundImageFix"/>
<feBlend mode="normal" in="SourceGraphic" in2="BackgroundImageFix" result="shape"/>
<feGaussianBlur stdDeviation="1.5" result="effect1_foregroundBlur_2233_49277"/>
</filter>
<linearGradient id="paint0_linear_2233_49277" x1="100" y1="0" x2="100" y2="200" gradientUnits="userSpaceOnUse">
<stop stop-color="#03C8F5"/>
<stop offset="1" stop-color="#0151DB"/>
</linearGradient>
<linearGradient id="paint1_linear_2233_49277" x1="100" y1="0" x2="100" y2="200" gradientUnits="userSpaceOnUse">
<stop stop-color="#03C8F5"/>
<stop offset="1" stop-color="#0151DB"/>
</linearGradient>
</defs>
</svg>
