<svg width="200" height="200" viewBox="0 0 200 200" fill="none" xmlns="http://www.w3.org/2000/svg">
<path fill-rule="evenodd" clip-rule="evenodd" d="M100 0C155.22 0 200 44.78 200 100C200 155.22 155.22 200 100 200C44.78 200 0 155.22 0 100C0 44.78 44.78 0 100 0Z" fill="#7866D5"/>
<path d="M140.377 52.1338C143.589 52.5354 146.935 52.8031 150.147 53.3384C156.437 54.543 158.578 57.7553 157.508 64.1799C157.24 66.5891 155.366 68.4629 152.957 68.8644C151.485 69.1321 149.879 69.2659 148.407 69.1321C127.528 69.1321 106.784 69.2659 85.9056 69.2659C82.8274 69.2659 79.6153 69.5336 76.5371 70.069C66.2318 71.6751 62.2167 75.9582 61.4137 86.398C61.0122 91.2165 61.0122 91.2164 65.9641 91.2164H148.942C149.745 91.2164 150.548 91.2164 151.351 91.2164C152.689 91.2164 153.894 91.618 155.099 92.2872C158.846 94.6964 157.909 98.5779 157.775 102.058C157.641 104.869 155.902 106.475 152.957 107.01C151.753 107.278 150.548 107.278 149.21 107.278C120.837 107.278 92.4635 107.278 64.0904 107.278C61.0122 107.278 61.0122 107.278 61.2798 110.356C61.4137 113.167 61.6813 115.978 62.3505 118.788C63.6889 123.875 66.7671 127.087 71.9867 128.559C77.6078 130.165 83.4965 130.433 89.2515 130.567C109.461 130.567 129.804 130.567 150.147 130.567C152.689 130.567 155.099 130.834 156.705 133.244C159.247 137.259 157.909 142.479 153.894 145.022C153.359 145.423 152.823 145.691 152.154 145.825C147.738 147.297 143.187 147.565 138.503 147.699C119.364 148.1 100.36 148.1 81.3552 147.699C75.4664 147.565 69.5776 146.896 63.8227 145.691C50.3053 142.88 43.4797 135.921 41.2045 122.268C40.6692 119.19 40.4015 115.978 40 112.765V87.8703C40.2677 85.4611 40.5353 82.9181 40.803 80.5089C42.5429 65.1168 49.5023 57.4876 64.6257 54.0077C69.9791 52.8031 75.6002 52.5354 80.9537 52L140.377 52.1338Z" fill="white"/>
</svg>
