<svg width="200" height="200" viewBox="0 0 200 200" fill="none" xmlns="http://www.w3.org/2000/svg">
<g clip-path="url(#clip0_2233_49338)">
<circle cx="100" cy="100" r="100" fill="#FEFEFE"/>
<path fill-rule="evenodd" clip-rule="evenodd" d="M89.8098 0.357006C79.2872 1.84586 75.9712 2.56279 68.9363 4.87007C57.6201 8.58168 47.6629 13.9267 38.2199 21.3581C32.2826 26.0311 24.8747 33.6237 20.1838 39.8445C11.7037 51.09 6.28199 62.4798 2.89403 76.1663C1.63517 81.252 0.336934 90.3952 0.0504738 96.1941C-0.137558 100.004 0.22459 108.634 0.725895 112.29C2.0316 121.812 4.13422 129.867 7.41494 137.915C10.1947 144.735 15.9714 154.733 20.623 160.776C29.5973 172.435 40.4172 181.676 52.9135 188.353C54.7256 189.322 56.2109 189.986 56.2136 189.829C56.2166 189.673 56.3463 189.746 56.5024 189.991C56.9128 190.639 65.8596 194.302 70.4449 195.7C75.7014 197.303 79.0944 198.07 85.5672 199.119C90.4326 199.908 91.9338 200 99.9921 200C108.05 200 109.551 199.908 114.417 199.119C120.89 198.07 124.283 197.303 129.539 195.7C134.125 194.302 143.071 190.639 143.482 189.991C143.638 189.746 143.767 189.672 143.771 189.828C143.778 190.267 149.951 186.862 154.297 184.022C166.404 176.111 176.202 166.203 184.251 153.732C186.835 149.728 190.909 141.986 192.562 137.939C194.31 133.658 196.446 126.82 197.542 121.993C199.304 114.238 200.276 103.808 199.931 96.3639C199.753 92.5229 198.618 83.0996 197.916 79.6362C197.366 76.9239 195.53 70.3059 194.458 67.1707C192.898 62.6101 190.061 56.1652 187.751 51.9352C185.685 48.152 181.195 41.536 177.816 37.2986C174.328 32.923 167.163 25.7323 162.757 22.1864C158.117 18.4517 151.475 14.0459 146.491 11.3968C139.04 7.43601 129.653 3.99224 121.375 2.1826C119.228 1.71313 115.104 1.02166 112.211 0.645882C108.189 0.1238 105.191 -0.0275973 99.4829 0.00397211C95.3761 0.0263762 91.0232 0.185581 89.8098 0.357006ZM109.771 9.801C121.164 11.0974 128.9 12.9966 138.006 16.7323C145.924 19.9816 153.977 24.7459 160.691 30.1554C164.692 33.3782 170.967 39.5387 173.474 42.7048C174.407 43.8837 175.875 45.714 176.736 46.7725C180.695 51.6409 185.877 61.6454 188.357 69.2074C190.052 74.3746 191.445 80.9159 191.962 86.1313C192.41 90.6447 192.407 97.3707 191.957 101.844C191.499 106.389 190.044 113.489 189.253 115.04C188.913 115.707 187.952 116.882 187.118 117.651C184.167 120.371 184.989 120.239 169.061 120.556C161.221 120.712 124.183 120.786 86.7552 120.722L18.704 120.605L17.0256 119.846C13.4357 118.223 11.8059 116.305 10.7517 112.464C10.1455 110.255 9.12827 104.411 8.85233 101.548C8.15892 94.3645 8.34695 89.0527 9.57628 81.103C10.7075 73.7894 13.4191 65.4938 17.0134 58.3503C19.9221 52.5693 22.1598 49.1259 26.3919 43.918C32.7456 36.0996 41.1004 28.7161 49.4203 23.5673C56.2306 19.3529 65.5965 15.255 73.4966 13.0336C81.6607 10.7379 91.8025 9.22902 99.4829 9.16758C101.912 9.14823 106.535 9.43269 109.771 9.801ZM77.7968 69.462C77.6906 70.1623 77.434 72.0334 77.2263 73.6203C77.0189 75.2073 76.7929 76.8876 76.724 77.3544C76.6554 77.8211 76.2889 80.4943 75.9101 83.2948C74.9764 90.1946 73.9385 97.6341 73.7077 99.0795C73.6031 99.733 73.3903 101.222 73.2349 102.389L72.9518 104.511H81.0348H89.1181L89.2742 103.747C89.7104 101.615 91.0314 92.6085 91.4139 89.1569C91.5887 87.5811 92.1843 87.1992 92.187 88.6613C92.1877 89.0703 92.4698 89.8633 92.8136 90.4234C93.1574 90.9835 96.3359 94.3869 99.8773 97.9861L106.316 104.531L110.907 104.436L115.499 104.341L111.415 99.5873C109.17 96.9725 106.788 94.4633 106.123 94.0108C105.169 93.3614 104.305 93.1451 102.028 92.9853C100.442 92.8739 98.8062 92.5935 98.3938 92.3624C97.0232 91.5938 95.8265 89.6487 95.6605 87.9192C95.4739 85.9786 96.041 84.7029 97.7615 83.1923C99.7908 81.4102 102.753 81.3324 104.746 83.0093C106.178 84.2148 106.779 85.5169 106.788 87.4362C106.792 88.3324 107.105 89.7479 107.483 90.5819C107.861 91.4163 109.042 92.9449 110.106 93.9792C111.17 95.0135 113.706 97.8062 115.742 100.185L119.443 104.511H122.615C124.359 104.511 125.787 104.423 125.787 104.315C125.787 104.066 121.134 98.8928 117.113 94.67C112.24 89.552 110.853 87.8615 110.853 87.038C110.853 86.6164 111.175 85.8632 111.568 85.3635C111.96 84.8638 113.998 82.972 116.096 81.1593C118.194 79.3466 122.378 75.687 125.393 73.0263L130.875 68.1891L120.949 68.2135L111.023 68.2379L102.545 75.0875C97.882 78.8547 93.7582 82.415 93.3807 82.9992C93.0033 83.5837 92.5264 84.3458 92.3204 84.693C92.0632 85.1275 92.0825 84.32 92.3825 82.1033C93.0573 77.1222 94.2214 68.3686 94.2218 68.2739C94.2218 68.2274 90.5701 68.1891 86.1062 68.1891H77.9903L77.7968 69.462ZM24.4977 69.2923C24.4104 69.7125 24.0961 71.8891 23.7992 74.1295C23.0864 79.5106 21.9467 87.7879 21.743 89.0656C21.6534 89.6257 21.4858 91.3206 21.3704 92.8322C21.2064 94.9758 21.2916 95.9759 21.7566 97.3765C22.4928 99.5928 24.2421 101.58 26.4353 102.692C27.3514 103.156 29.4228 103.828 31.0391 104.186C33.7316 104.781 35.5169 104.836 52.3749 104.843L70.7721 104.85L70.9547 103.747C71.286 101.747 72.1606 95.4358 72.1606 95.0475C72.1606 94.7725 68.565 94.6666 59.2523 94.6666C49.0453 94.6666 46.1094 94.7647 45.2229 95.135C44.6065 95.3927 43.5045 96.3326 42.7744 97.224C42.044 98.1155 40.9545 99.0503 40.3531 99.3015C38.6543 100.012 36.4618 99.8782 35.1357 98.9845C33.7472 98.0489 32.4632 95.8924 32.4554 94.484C32.4476 92.9985 33.795 90.55 35.0967 89.6851C35.7124 89.2764 36.3569 88.8931 36.529 88.8337C36.8636 88.7186 37.5598 84.2721 39.4557 70.1409L39.6722 68.5285H32.1642H24.6565L24.4977 69.2923ZM142.952 68.9046C139.914 69.3476 136.458 70.5428 134.814 71.7194C132.866 73.1129 131.743 74.4995 130.618 76.9002C129.86 78.519 129.692 79.3483 129.701 81.4278C129.71 83.4136 129.884 84.3006 130.494 85.4592C131.845 88.0289 133.81 89.4176 137.571 90.4624C139.132 90.8962 142.122 91.0517 152.206 91.2245L164.88 91.4418L165.543 92.2609C165.907 92.7113 166.16 93.3139 166.105 93.6004C166.05 93.8865 165.471 94.4344 164.818 94.818C163.669 95.4932 163.073 95.5186 146.078 95.6222L128.525 95.7287L128.348 96.8102C127.99 98.9997 127.484 103.226 127.484 104.026V104.85H143.366C155.746 104.85 160.13 104.735 163.251 104.325C167.7 103.742 170.168 102.951 172.249 101.443C176.382 98.4488 178.212 92.2805 176.229 88.0231C175.789 87.0764 174.835 85.8132 174.112 85.2158C171.257 82.861 167.221 82.1067 157.477 82.1067H151.306L149.921 83.7609C149.159 84.671 148.074 85.6065 147.509 85.8404C145.96 86.4823 143.344 86.1096 141.953 85.0491C140.543 83.9731 139.521 81.5724 139.826 80.0493C140.462 76.8655 142.475 74.9782 145.234 74.9782C147.033 74.9782 147.764 75.2752 149.538 76.7274L150.719 77.6938H164.041H177.364L177.525 76.93C177.614 76.5098 177.839 74.9442 178.027 73.4506C178.215 71.957 178.47 70.2384 178.594 69.6317L178.819 68.5285L161.891 68.5699C152.581 68.5927 144.058 68.7434 142.952 68.9046ZM36.9651 92.0103C36.5548 92.2127 36.0545 92.8512 35.8529 93.4293C35.5481 94.3037 35.5936 94.6245 36.123 95.3374C37.0001 96.5176 38.7059 96.6633 39.7842 95.65C40.2305 95.2308 40.5958 94.5495 40.5958 94.1357C40.5958 92.4727 38.507 91.25 36.9651 92.0103ZM132.471 143.542C133.563 144.025 135.641 145.814 139.259 149.383C142.538 152.619 144.592 154.409 144.794 154.207C144.971 154.03 145.157 151.445 145.209 148.462L145.303 143.039L148.425 142.942L151.547 142.844L151.771 144.041C151.895 144.7 151.94 147.5 151.873 150.265C151.734 155.953 151.448 156.772 149.265 157.73C147.672 158.428 142.436 158.501 140.594 157.85C139.687 157.529 137.532 155.702 133.636 151.95L127.993 146.515L127.772 149.36C127.651 150.924 127.536 153.541 127.518 155.175L127.484 158.145H124.26H121.035V151.891C121.035 145.694 121.043 145.628 121.895 144.615C122.703 143.655 123.807 143.125 125.787 142.744C127.41 142.433 130.906 142.85 132.471 143.542ZM76.5729 144.53C76.5729 145.732 76.4243 146.248 76.036 146.397C75.7407 146.511 71.5331 146.603 66.6857 146.603C57.2505 146.603 56.5432 146.714 55.3807 148.374C54.7592 149.262 54.6883 151.306 55.2375 152.512C55.4499 152.978 56.1752 153.634 56.8496 153.97C57.9347 154.511 59.2937 154.593 68.6994 154.691L79.3232 154.801L79.221 156.388L79.1185 157.975H66.3907C53.9973 157.975 53.6273 157.956 52.3053 157.243C50.5964 156.32 49.2601 154.923 48.6193 153.389C48.0094 151.929 48.1068 148.901 48.8162 147.282C49.5615 145.581 51.1323 144.241 53.2139 143.532C54.8023 142.991 56.3222 142.914 65.7968 142.893L76.5729 142.869V144.53ZM105.84 143.454C109.363 144.434 111.528 147.119 111.528 150.507C111.528 153.388 109.821 156.003 107.131 157.244C105.716 157.897 104.861 157.964 96.4917 158.074C88.6881 158.177 87.1326 158.113 85.5795 157.625C84.5833 157.311 83.2026 156.588 82.5116 156.019C80.9995 154.772 79.967 152.523 79.967 150.475C79.967 148.773 80.9734 146.373 82.1504 145.267C82.5855 144.858 83.838 144.155 84.9332 143.704C86.8522 142.915 87.232 142.885 95.3303 142.877C102.265 142.871 104.104 142.972 105.84 143.454ZM119.338 150.507V158.145H116.114H112.89V150.507V142.869H116.114H119.338V150.507ZM88.9199 147.091C87.4628 147.725 86.7552 148.865 86.7552 150.577C86.7552 151.677 86.9788 152.273 87.6885 153.064C88.458 153.921 89.0095 154.159 90.828 154.42C93.5898 154.816 97.4204 154.819 100.467 154.426C102.22 154.2 103.011 153.922 103.617 153.316C105.394 151.539 104.799 148.035 102.561 147.1C100.938 146.422 90.4727 146.415 88.9199 147.091Z" fill="#175DAB"/>
<circle cx="101.5" cy="87.5" r="6" fill="#FEFEFE"/>
<circle cx="101.5" cy="87.5" r="2.5" fill="#175DAB"/>
<circle cx="145.5" cy="80.5" r="6" fill="#FEFEFE"/>
<circle cx="145.5" cy="80.5" r="2.5" fill="#175DAB"/>
<circle cx="38" cy="94" r="6" fill="#FEFEFE"/>
<circle cx="38" cy="94" r="2.5" fill="#175DAB"/>
</g>
<defs>
<clipPath id="clip0_2233_49338">
<rect width="200" height="200" fill="white"/>
</clipPath>
</defs>
</svg>
