<svg width="200" height="200" viewBox="0 0 200 200" fill="none" xmlns="http://www.w3.org/2000/svg">
<path d="M100 200C155.228 200 200 155.228 200 100C200 44.7715 155.228 0 100 0C44.7715 0 0 44.7715 0 100C0 155.228 44.7715 200 100 200Z" fill="white"/>
<path d="M100 200C155.228 200 200 155.228 200 100C200 44.7715 155.228 0 100 0C44.7715 0 0 44.7715 0 100C0 155.228 44.7715 200 100 200Z" fill="#31D8A4"/>
<path d="M99.9999 186.667C147.865 186.667 186.667 147.865 186.667 100C186.667 52.1355 147.865 13.3335 99.9999 13.3335C52.1352 13.3335 13.3333 52.1355 13.3333 100C13.3333 147.865 52.1352 186.667 99.9999 186.667Z" fill="white"/>
<path d="M99.9999 176.667C142.342 176.667 176.667 142.342 176.667 100C176.667 57.6583 142.342 23.3335 99.9999 23.3335C57.6581 23.3335 23.3333 57.6583 23.3333 100C23.3333 142.342 57.6581 176.667 99.9999 176.667Z" fill="#F7931A"/>
<path d="M133.822 91.1823C135.239 81.7262 128.033 76.6417 118.188 73.249L121.383 60.4364L113.586 58.4964L110.473 70.9707C108.425 70.4564 106.322 69.9782 104.224 69.5L107.36 56.9445L99.5636 55L96.3692 67.8082C94.6727 67.4202 93.0033 67.0412 91.3881 66.6352L91.3971 66.5946L80.6409 63.9102L78.5655 72.2385C78.5655 72.2385 84.3542 73.5648 84.2323 73.646C87.3906 74.4356 87.9591 76.5244 87.8644 78.1846L84.2278 92.7793C84.4444 92.8335 84.7241 92.9147 85.04 93.0365L84.2143 92.8335L79.1159 113.28C78.7279 114.236 77.7488 115.675 75.538 115.129C75.6192 115.242 69.8712 113.717 69.8712 113.717L66 122.641L76.1516 125.172C78.0376 125.646 79.8874 126.142 81.7057 126.607L78.4797 139.564L86.2717 141.504L89.4661 128.691C91.5957 129.264 93.6621 129.796 95.6834 130.302L92.498 143.06L100.294 145L103.52 132.07C116.821 134.587 126.82 133.572 131.029 121.545C134.422 111.863 130.862 106.273 123.864 102.632C128.963 101.459 132.798 98.1074 133.822 91.1823ZM116 116.167C113.595 125.853 97.2851 120.615 91.9972 119.302L96.2835 102.136C101.571 103.458 118.522 106.07 116 116.167ZM118.414 91.0424C116.217 99.8534 102.645 95.3735 98.2461 94.2772L102.126 78.7125C106.525 79.8088 120.706 81.8525 118.414 91.0424Z" fill="white"/>
</svg>
