<svg width="200" height="200" viewBox="0 0 200 200" fill="none" xmlns="http://www.w3.org/2000/svg">
<path fill-rule="evenodd" clip-rule="evenodd" d="M100 0C155.22 0 200 44.78 200 100C200 155.22 155.22 200 100 200C44.78 200 0 155.22 0 100C0 44.78 44.78 0 100 0Z" fill="#0F172A"/>
<path fill-rule="evenodd" clip-rule="evenodd" d="M65.6364 52H85.2727H95.0909V61.7778H104.909V71.5556H114.727V81.3333H104.909V91.1111H114.727V100.889H134.364V110.667H144.182V130.222H154V140H144.182H134.364V120.444H124.545V110.667H114.727V130.222H124.545V140H114.727H104.909V110.667H95.0909V140H85.2727H75.4545V130.222H85.2727V110.667H75.4545V120.444H65.6364V140H55.8182H46V130.222H55.8182V110.667H65.6364V100.889H75.4545V91.1111H65.6364V81.3333H55.8182V61.7778H65.6364V52ZM95.0909 81.3333V91.1111H85.2727V81.3333H95.0909Z" fill="#5577FF"/>
</svg>
