<svg width="200" height="200" viewBox="0 0 200 200" fill="none" xmlns="http://www.w3.org/2000/svg">
<path d="M100 200C155.228 200 200 155.228 200 100C200 44.7715 155.228 0 100 0C44.7715 0 0 44.7715 0 100C0 155.228 44.7715 200 100 200Z" fill="#D9327C"/>
<path fill-rule="evenodd" clip-rule="evenodd" d="M95.9321 53.0769C95.1344 53.7148 94.1773 54.8311 93.5391 56.9042C92.901 58.9774 89.3914 69.1837 84.9247 81.9416H114.756C110.29 69.1837 106.78 58.9774 106.142 56.9042C105.504 54.8311 104.547 53.7148 103.749 53.0769C102.951 52.439 101.835 51.9605 99.7607 51.9605C97.6869 51.9605 96.7297 52.439 95.9321 53.0769ZM51.9025 81.9416H72.1625C77.1078 67.4295 81.4151 55.3095 82.0532 53.0769C83.3294 49.2495 85.4033 45.9005 88.5938 43.5084C91.7843 41.1163 95.613 40 99.6012 40C103.589 40 107.418 40.9568 110.609 43.5084C113.799 45.9005 115.873 49.2495 117.149 53.0769C117.947 55.3095 122.095 67.27 127.04 81.9416H147.619C150.969 81.9416 153.681 84.6527 153.681 88.0016C153.681 91.3506 150.969 94.0616 147.619 94.0616H131.507H118.904H80.777H68.1743H51.9025C48.5524 94.0616 46 91.3506 46 88.0016C46 84.6527 48.712 81.9416 51.9025 81.9416ZM51.9025 105.863C48.5524 105.863 46 108.574 46 111.923C46 115.272 48.712 117.983 51.9025 117.983H59.8789L56.6883 127.232L53.4978 136.482L52.2216 139.99C51.1049 143.18 52.8597 146.529 55.8907 147.645C59.0812 148.761 62.4313 147.007 63.548 143.977L64.8242 140.469L68.0148 131.219C69.291 127.392 70.8863 122.926 72.6411 117.983H127.199C128.795 122.767 130.39 127.392 131.826 131.219L135.016 140.469L136.292 143.977C137.409 147.166 140.759 148.761 143.95 147.645C147.14 146.529 148.736 143.18 147.619 139.99L146.343 136.482L143.152 127.232L139.962 117.983H147.938C151.288 117.983 154 115.272 154 111.923C154 108.574 151.288 105.863 147.938 105.863H135.814H123.211H76.9483H64.3456H51.9025ZM141.716 141.744L147.3 139.831C147.3 139.831 147.3 139.831 141.716 141.744ZM141.716 141.744C136.133 143.658 136.133 143.658 136.133 143.658L141.716 141.744ZM57.9646 141.744L63.548 143.658C63.548 143.658 63.548 143.658 57.9646 141.744ZM57.9646 141.744C52.3811 139.831 52.3811 139.831 52.3811 139.831L57.9646 141.744Z" fill="white"/>
</svg>
