<svg width="100%" height="100%" viewBox="0 0 652 853" fill="none" xmlns="http://www.w3.org/2000/svg">
<path d="M576.696 638.089H433.585L352.271 256.312H225.422L254.695 377.886L330.613 530.755L319.745 852.757H645L576.696 638.089Z" fill="#E6E6E6"/>
<path d="M319.745 852.757L330.613 530.755L179.886 558.115L319.745 852.757Z" fill="#999999"/>
<path d="M98.5724 558.115L124.593 198.996H68.9311H34.9546L0.996094 558.115H98.5724Z" fill="#999999"/>
<path d="M228.674 7.09542L264.452 146.955L576.696 150.207L531.161 0.590332L228.674 7.09542Z" fill="#E6E6E6"/>
<path d="M518.151 558.115H651.505L495.383 256.312L469.363 202.248H397.807L518.151 558.115Z" fill="#E6E6E6"/>
<path d="M576.696 150.207L264.452 146.955L225.422 256.312H352.271L397.807 202.248H469.363L495.383 256.312L576.696 150.207Z" fill="black"/>
<path d="M651.505 558.115H518.151L433.585 638.089H576.696L651.505 558.115Z" fill="black"/>
<path d="M330.613 530.755L254.695 377.886L179.886 558.115L330.613 530.755Z" fill="black"/>
<path d="M98.5724 558.115H0.996094L30.269 638.089L98.5724 558.115Z" fill="black"/>
<path d="M433.585 638.089L518.151 558.115L397.807 202.248L352.271 256.312L433.585 638.089Z" fill="#999999"/>
<path d="M4.24864 852.757H319.745L179.886 558.115L254.695 377.886L225.422 256.312L264.452 146.955L228.674 7.09542L72.5521 59.1361L68.9311 198.996H124.593L98.5724 558.115L30.269 638.089L4.24864 852.757Z" fill="#4D4D4D"/>
</svg>
