<svg width="100%" height="100%" viewBox="0 0 69 90" fill="none" xmlns="http://www.w3.org/2000/svg">
    <path
        d="M60.8015 67.3282H45.687L37.0992 27.0076H23.7023L26.7939 39.8473L34.8119 55.9924L33.6641 90H68.0152L60.8015 67.3282Z"
        fill="#E6E6E6" />
    <path d="M33.6641 90L34.8119 55.9924L18.8931 58.8819L33.6641 90Z" fill="#999999" />
    <path d="M10.3053 58.8819L13.0534 20.9542H7.17482H3.58647L0 58.8819H10.3053Z" fill="#999999" />
    <path d="M24.0458 0.687023L27.8244 15.458L60.8015 15.8015L55.9923 0L24.0458 0.687023Z" fill="#E6E6E6" />
    <path d="M54.6183 58.8819H68.7023L52.2137 27.0076L49.4656 21.2977H41.9084L54.6183 58.8819Z" fill="#E6E6E6" />
    <path
        d="M60.8015 15.8015L27.8244 15.458L23.7023 27.0076H37.0992L41.9084 21.2977H49.4656L52.2137 27.0076L60.8015 15.8015Z"
        fill="black" />
    <path d="M68.7023 58.8819H54.6183L45.687 67.3282H60.8015L68.7023 58.8819Z" fill="black" />
    <path d="M34.8119 55.9924L26.7939 39.8473L18.8931 58.8819L34.8119 55.9924Z" fill="black" />
    <path d="M10.3053 58.8819H0L3.0916 67.3282L10.3053 58.8819Z" fill="black" />
    <path d="M45.687 67.3282L54.6183 58.8819L41.9084 21.2977L37.0992 27.0076L45.687 67.3282Z" fill="#999999" />
    <path
        d="M0.343511 90H33.6641L18.8931 58.8819L26.7939 39.8473L23.7023 27.0076L27.8244 15.458L24.0458 0.687023L7.55725 6.18321L7.17482 20.9542H13.0534L10.3053 58.8819L3.0916 67.3282L0.343511 90Z"
        fill="url(#paint0_linear_6068_1398)" />
    <defs>
        <linearGradient id="paint0_linear_6068_1398" x1="34.3511" y1="0" x2="34.3511" y2="90"
            gradientUnits="userSpaceOnUse">
            <stop stop-color="#00B578" stop-opacity="0.7" />
            <stop offset="0.515" stop-color="#00B578" />
            <stop offset="1" stop-color="#10BBD8" />
        </linearGradient>
    </defs>
</svg>