<svg width="100%" height="100%" viewBox="0 0 114 16" fill="none" xmlns="http://www.w3.org/2000/svg">
    <path
        d="M26.1912 13.2414C29.4358 13.2414 31.6325 11.9986 32.4938 9.76447L30.3116 9.34556C29.7517 10.8257 28.3878 11.5937 26.2917 11.5937C23.5783 11.5937 21.8267 10.1275 21.8267 7.94922C21.8267 5.70103 23.5065 4.30476 26.2486 4.30476C28.3878 4.30476 29.7947 5.15646 30.2685 6.70641L32.5082 6.38525C31.8478 4.02543 29.5794 2.65698 26.3061 2.65698C22.2861 2.65698 19.5728 4.82129 19.5728 7.96316C19.5728 11.1608 22.1282 13.2414 26.1912 13.2414ZM34.1841 12.9063H36.5099L37.601 10.8117H44.1621L45.2532 12.9063H47.579L42.1378 2.99216H39.6253L34.1841 12.9063ZM38.3763 9.33161L40.3001 5.65919C40.4437 5.36592 40.7165 4.75156 40.86 4.36061H40.9031C41.0467 4.75156 41.3195 5.36592 41.463 5.65919L43.3868 9.33161H38.3763ZM50.7496 12.9063H52.9031V9.1361H56.679L59.3493 12.9063H61.833L58.976 8.88474C60.828 8.43793 61.4454 7.12533 61.4454 6.02219C61.4454 4.6119 60.5697 2.99216 57.526 2.99216H50.7496V12.9063ZM52.9031 7.66989V4.5002H57.081C58.7032 4.5002 59.1771 5.29613 59.1771 6.05015C59.1771 6.84607 58.6889 7.66989 57.081 7.66989H52.9031ZM65.3504 12.9063H72.7871C75.4861 12.9063 76.5343 11.6495 76.5343 10.1275C76.5343 8.87079 75.8739 7.97711 74.3378 7.73976C75.6296 7.48839 76.2618 6.55287 76.2618 5.53348C76.2618 4.19299 75.2563 2.99216 72.7443 2.99216H65.3504V12.9063ZM67.5039 11.4122V8.56358H72.3855C73.7919 8.56358 74.3233 9.15004 74.3233 9.98788C74.3233 10.8397 73.7636 11.4122 72.3855 11.4122H67.5039ZM67.5039 7.13927V4.48619H72.2703C73.7063 4.48619 74.0507 5.15653 74.0507 5.74293C74.0507 6.41321 73.7919 7.13927 72.2703 7.13927H67.5039ZM85.8872 13.2414C89.965 13.2414 92.6639 11.1329 92.6639 7.94922C92.6639 4.76551 89.9505 2.65698 85.8872 2.65698C81.8246 2.65698 79.1257 4.76551 79.1257 7.94922C79.1257 11.1189 81.8246 13.2414 85.8872 13.2414ZM81.394 7.94922C81.394 5.75695 83.2027 4.2768 85.8872 4.2768C88.5724 4.2768 90.3956 5.75695 90.3956 7.94922C90.3956 10.1275 88.5724 11.6216 85.8872 11.6216C83.2027 11.6216 81.394 10.1275 81.394 7.94922ZM95.9681 12.9063H97.9204V5.18442H97.9632C98.1067 5.46368 98.4083 5.86858 98.7099 6.17579L105.343 12.9063H107.54V2.99216H105.587V9.30365C105.587 9.75053 105.601 10.1694 105.601 10.6023H105.558C105.4 10.2671 105.113 9.90407 104.812 9.58291L98.38 2.99216H95.9681V12.9063Z"
        fill="currentColor" fill-opacity="0.8" />
    <path
        d="M114 11.9259V12.9225H110.956V11.9172C110.956 11.0372 111.569 10.4634 112.474 10.4634C113.361 10.4634 114 11.0329 114 11.9259ZM111.299 12.5126H113.657V11.9345C113.657 11.2745 113.125 10.8991 112.474 10.8991C111.797 10.8991 111.299 11.2659 111.299 11.9259V12.5126ZM112.611 8.99731H113.657V7.47878H114V9.40712H110.956V7.50894H111.299V8.99731H112.268V7.58226H112.611V8.99731ZM110.956 4.43604H111.299V5.92434H112.268V4.50936H112.611V5.92434H114V6.33421H110.956V4.43604ZM110.956 2.96942H114V3.37922H110.956V2.96942Z"
        fill="currentColor" />
    <path fill-rule="evenodd" clip-rule="evenodd"
        d="M4.35845 0H10.037L10.9136 2.79317L9.53463 4.79737L12.4117 10.3915L11.0283 11.8477L12.3318 16H0.0545745L0.565087 11.8707L0 10.4173L0.628462 3.59948H1.22936L1.34393 1.03381L4.35845 0ZM1.59048 3.59948H2.40811L2.01855 10.5719H0.447222L0.934284 11.8247L0.462702 15.6391H6.07388L6.26308 9.87166L4.90472 7.03406L4.3576 4.7828H6.67741L8.16306 11.8477H11.0283L12.4117 10.3915H9.72483L7.47102 3.77992H9.02203L9.53463 4.79737L10.9136 2.79317H5.03966L4.43349 0.360902L1.69336 1.29549L1.59048 3.59948Z"
        fill="currentColor" fill-opacity="0.8" />
</svg>