<svg width="100%" height="100%" viewBox="0 0 895 895" fill="none" xmlns="http://www.w3.org/2000/svg">
    <path
        d="M487.884 243.233C487.884 265.588 469.762 283.711 447.407 283.711C425.052 283.711 406.929 265.588 406.929 243.233C406.929 220.878 425.052 202.755 447.407 202.755C469.762 202.755 487.884 220.878 487.884 243.233Z"
        fill="#ffffff" />
    <path fill-rule="evenodd" clip-rule="evenodd"
        d="M566.085 70.2567C514.694 -23.4188 380.12 -23.4189 328.728 70.2566L256.14 202.57C243.746 225.161 225.161 243.746 202.57 256.14L70.2567 328.728C-23.4188 380.12 -23.4189 514.694 70.2566 566.085L202.57 638.674C225.161 651.068 243.746 669.652 256.14 692.244L328.728 824.557C380.12 918.232 514.694 918.233 566.085 824.557L638.674 692.244C651.068 669.652 669.652 651.068 692.244 638.674L824.557 566.085C918.232 514.694 918.233 380.12 824.557 328.728L692.244 256.14C669.652 243.746 651.068 225.161 638.674 202.57L566.085 70.2567ZM511.697 167.682C489.532 107.781 404.808 107.781 382.642 167.682L335.5 295.083C328.531 313.916 313.683 328.764 294.85 335.733L167.449 382.875C107.548 405.041 107.548 489.765 167.449 511.93L294.85 559.073C313.683 566.041 328.531 580.89 335.5 599.723L382.642 727.123C404.808 787.025 489.532 787.025 511.697 727.123L558.84 599.723C565.808 580.89 580.657 566.041 599.49 559.073L726.89 511.93C786.792 489.765 786.792 405.041 726.89 382.875L599.49 335.733C580.657 328.764 565.808 313.916 558.84 295.083L511.697 167.682Z"
        fill="#ffffff" />
</svg>