<svg width="20" height="16" viewBox="0 0 20 16" fill="none" xmlns="http://www.w3.org/2000/svg">
<path d="M16.9308 1.46387C15.6561 0.878971 14.2892 0.448042 12.8599 0.201231C12.8339 0.196467 12.8079 0.208371 12.7945 0.23218C12.6187 0.544859 12.4239 0.952774 12.2876 1.27339C10.7503 1.04325 9.22099 1.04325 7.71527 1.27339C7.57887 0.945648 7.37707 0.544859 7.20048 0.23218C7.18707 0.209166 7.16107 0.197262 7.13504 0.201231C5.70659 0.447253 4.33963 0.878183 3.06411 1.46387C3.05307 1.46863 3.04361 1.47658 3.03732 1.48689C0.444493 5.36052 -0.265792 9.13894 0.0826501 12.8705C0.0842267 12.8888 0.0944749 12.9062 0.108665 12.9173C1.81934 14.1736 3.47642 14.9363 5.10273 15.4418C5.12876 15.4498 5.15634 15.4402 5.1729 15.4188C5.55761 14.8935 5.90054 14.3395 6.19456 13.757C6.21192 13.7229 6.19535 13.6824 6.15989 13.6689C5.61594 13.4626 5.098 13.211 4.59977 12.9253C4.56037 12.9023 4.55721 12.8459 4.59347 12.8189C4.69831 12.7404 4.80318 12.6586 4.9033 12.5761C4.92141 12.561 4.94665 12.5578 4.96794 12.5673C8.24107 14.0617 11.7846 14.0617 15.0191 12.5673C15.0404 12.557 15.0657 12.5602 15.0846 12.5753C15.1847 12.6578 15.2895 12.7404 15.3952 12.8189C15.4314 12.8459 15.4291 12.9023 15.3897 12.9253C14.8914 13.2165 14.3735 13.4626 13.8288 13.6681C13.7933 13.6816 13.7775 13.7229 13.7949 13.757C14.0952 14.3387 14.4381 14.8926 14.8157 15.418C14.8315 15.4402 14.8599 15.4498 14.8859 15.4418C16.5201 14.9363 18.1772 14.1736 19.8879 12.9173C19.9028 12.9062 19.9123 12.8896 19.9139 12.8713C20.3309 8.5572 19.2154 4.80976 16.9568 1.48768C16.9513 1.47658 16.9419 1.46863 16.9308 1.46387ZM6.68335 10.5984C5.69792 10.5984 4.88594 9.69368 4.88594 8.58261C4.88594 7.47154 5.68217 6.56683 6.68335 6.56683C7.69239 6.56683 8.49651 7.47948 8.48073 8.58261C8.48073 9.69368 7.68451 10.5984 6.68335 10.5984ZM13.329 10.5984C12.3435 10.5984 11.5316 9.69368 11.5316 8.58261C11.5316 7.47154 12.3278 6.56683 13.329 6.56683C14.338 6.56683 15.1421 7.47948 15.1264 8.58261C15.1264 9.69368 14.338 10.5984 13.329 10.5984Z" fill="currentColor" fill-opacity="0.6"/>
</svg>
