<svg width="100%" height="100%" viewBox="0 0 20 20" fill="none" xmlns="http://www.w3.org/2000/svg">
<path d="M18.8279 9.99401H16.6593C16.0116 9.99401 15.4867 10.5188 15.4867 11.1665V14.314C15.4867 14.9617 14.9619 15.4865 14.3142 15.4865H5.68653C5.03883 15.4865 4.514 16.0113 4.514 16.659V18.8275C4.514 19.4752 5.03883 20 5.68653 20H14.8136C15.4613 20 15.9786 19.4752 15.9786 18.8275V17.0877C15.9786 16.44 16.5035 15.9806 17.1512 15.9806H18.8275C19.4752 15.9806 20 15.4558 20 14.8081V11.1529C20 10.5052 19.4756 9.99401 18.8279 9.99401Z" fill="#12FF80"/>
<path d="M4.51371 5.68599C4.51371 5.03832 5.03854 4.51351 5.68624 4.51351H14.3086C14.9563 4.51351 15.4812 3.9887 15.4812 3.34103V1.17248C15.4812 0.524806 14.9563 0 14.3086 0H5.18643C4.53873 0 4.0139 0.524806 4.0139 1.17248V2.84343C4.0139 3.4911 3.48907 4.01591 2.84137 4.01591H1.17253C0.52483 4.01591 0 4.54072 0 5.18839V8.84755C0 9.49522 0.527024 9.9937 1.17472 9.9937H3.34338C3.99108 9.9937 4.51591 9.46889 4.51591 8.82122L4.51371 5.68599Z" fill="#12FF80"/>
<path d="M8.97964 7.71459H11.0627C11.7416 7.71459 12.2923 8.2656 12.2923 8.94384V11.0264C12.2923 11.705 11.7411 12.2556 11.0627 12.2556H8.97964C8.30078 12.2556 7.75006 11.7046 7.75006 11.0264V8.94384C7.75006 8.26516 8.30122 7.71459 8.97964 7.71459Z" fill="#12FF80"/>
</svg>
