<svg xmlns="http://www.w3.org/2000/svg" viewBox="0 0 100 100" width="100%" height="100%">
    <path
        d="M26.5,93C17.953,93,11,86.047,11,77.5v-51C11,17.953,17.953,11,26.5,11h51C86.047,11,93,17.953,93,26.5v51 C93,86.047,86.047,93,77.5,93H26.5z"
        opacity=".35" />
    <path fill="#f2f2f2"
        d="M24.5,91C15.953,91,9,84.047,9,75.5v-51C9,15.953,15.953,9,24.5,9h51C84.047,9,91,15.953,91,24.5v51 C91,84.047,84.047,91,75.5,91H24.5z" />
    <path fill="#ffc571"
        d="M75.5,15.5h-51c-4.971,0-9,4.029-9,9v51c0,4.971,4.029,9,9,9h51c4.971,0,9-4.029,9-9v-51 C84.5,19.529,80.471,15.5,75.5,15.5z" />
    <path fill="#f4665c"
        d="M73.77,83.22H26.075c-0.439-2.424-0.913-6.026-0.913-10.54c0-8.784,0-19.324,0-19.324 s2.53-12.982,5.657-16.847c2.934-3.619,4.849-6.113,11.911-7.747c5.27-1.23,12.525-0.404,15.81,1.757 c3.777,2.495,5.92,11.717,6.693,19.833c2.618-0.527,9.153,0.351,9.662,2.249C77.67,62.648,75.193,76.737,73.77,83.22z" />
    <path fill="#de5147"
        d="M74.385,83.22H26.901c-0.386-4.69-0.843-12.385-0.861-22.345 c1.458,7.343,2.863,16.847,12.262,17.198c6.113,0.211,14.528,0.966,17.269-4.304c2.758-5.27,6.535-15.723,6.166-27.44 c-0.334-10.259-3.074-14.405-3.742-15.283c1.036,1.159,6.57,7.888,7.044,20.554c0.053,1.458,0.105,3.022,0.141,4.673 c7.396-0.264,10.417,2.635,10.663,4.128C77.301,68.902,75.755,77.774,74.385,83.22z" />
    <path fill="#40396e"
        d="M67.323,57.168c0,6.447-0.492,19.675-0.738,26.052h-3.513c0.246-6.289,0.738-19.623,0.738-26.052 c0-9.732-2.565-22.222-6.236-24.629c-2.899-1.897-9.644-2.6-14.458-1.493c-6.359,1.458-8.028,3.496-10.786,6.886l-0.141,0.176 c-2.301,2.811-4.55,12.156-5.27,15.74V72.82c0,4.532,0.492,8.098,0.949,10.4h-3.584c-0.439-2.477-0.878-6.008-0.878-10.4 l0.035-19.482c0.264-1.353,2.723-13.404,6.026-17.462l0.141-0.158c2.899-3.566,5.2-6.377,12.736-8.098 c5.762-1.335,13.474-0.439,17.163,1.985C65.197,33.329,67.323,48.489,67.323,57.168z" />
    <path fill="#2785bd"
        d="M35.992,39.799c9.165-0.097,16.497,0.497,15.81,10.56c-0.687,10.062-14.893,9.72-16.497,9.376 c-1.604-0.344-13.748-0.076-13.52-9.376C22.016,41.058,29.808,39.864,35.992,39.799z" />
    <path fill="#40396e"
        d="M77.405,75.104c-0.492,3.496-1.212,6.201-2.143,8.116h-4.269c0.439-0.334,1.985-1.95,2.934-8.608 c1.001-7.027-0.404-20.712-1.634-22.451c-0.703-0.703-4.62-1.405-7.677-1.563l0.176-3.496c1.827,0.088,7.958,0.545,10.031,2.618 C77.317,52.231,78.371,68.34,77.405,75.104z" />
    <path fill="#70bfff"
        d="M23.676,44.925c0.459,3.617-0.344,5.887,4.467,6.229S42.33,52.95,44.66,50.181 s3.074-7.668-1.565-9.253C39.806,39.806,28.603,37.986,23.676,44.925z" />
    <path fill="#40396e"
        d="M36.783,61.572c-0.882,0-1.534-0.053-1.848-0.121c-0.151-0.033-0.415-0.061-0.762-0.105 c-9.388-1.193-14.147-4.891-14.145-10.988c0.002-4.74,2.055-12.715,15.786-12.859l0.318-0.004 c6.05-0.067,11.268-0.119,14.532,3.194c2.061,2.092,3.008,5.27,2.893,9.715c-0.077,2.965-1.379,5.528-3.766,7.408 C45.865,60.902,39.897,61.572,36.783,61.572z M35.853,41.011c-12.308,0.13-12.311,7.067-12.311,9.347 c-0.002,5.462,6.321,6.897,11.076,7.501c0.48,0.061,0.843,0.111,1.056,0.156c0.989,0.177,8.221,0.061,12.042-3.043 c1.52-1.233,2.282-2.758,2.329-4.661c0.09-3.44-0.529-5.781-1.885-7.159c-2.217-2.25-6.735-2.205-11.99-2.147L35.853,41.011z" />
    <path fill="#d9eeff"
        d="M32.326,42.891c3.438-0.573,8.998-0.929,7.791,2.291c-0.859,2.291-12.622,3.838-12.622,1.145 C27.495,43.636,32.326,42.891,32.326,42.891z" />
    <path fill="#40396e"
        d="M75.5,86h-51C18.71,86,14,81.29,14,75.5v-51C14,18.71,18.71,14,24.5,14h51 C81.29,14,86,18.71,86,24.5v51C86,81.29,81.29,86,75.5,86z M24.5,17c-4.136,0-7.5,3.364-7.5,7.5v51c0,4.136,3.364,7.5,7.5,7.5h51 c4.136,0,7.5-3.364,7.5-7.5v-51c0-4.136-3.364-7.5-7.5-7.5H24.5z" />
</svg>