<svg width="100%" height="100%" viewBox="0 0 26 24" fill="none" xmlns="http://www.w3.org/2000/svg">
<path d="M16.675 20.3914V21.6001H25V16.1486H23.7624V20.3914H16.675ZM16.675 2.40039V3.60916H23.7624V7.85217H25V2.40039H16.675ZM1 16.1486V21.6004H9.29614V20.3914H2.20877V16.1486H1ZM1 2.40039V7.85217H2.20877V3.60916H9.29614V2.40039H1Z" fill="white"/>
<path d="M10.6 7.80039H11.8088V15.0062H16.0518V16.0965H10.6V7.80039Z" fill="white"/>
<path d="M16.675 20.3914V21.6001H25V16.1486H23.7624V20.3914H16.675ZM16.675 2.40039V3.60916H23.7624V7.85217H25V2.40039H16.675ZM1 16.1486V21.6004H9.29614V20.3914H2.20877V16.1486H1ZM1 2.40039V7.85217H2.20877V3.60916H9.29614V2.40039H1Z" stroke="white"/>
<path d="M10.6 7.80039H11.8088V15.0062H16.0518V16.0965H10.6V7.80039Z" stroke="white"/>
</svg>
