<svg width="100%" height="100%" viewBox="0 0 21 20" fill="none" xmlns="http://www.w3.org/2000/svg">
<path d="M18.8099 0.606445L11.5132 6.49632L12.8701 3.02523L18.8099 0.606445Z" fill="#E17726" stroke="#E17726" stroke-width="0.145833" stroke-linecap="round" stroke-linejoin="round"/>
<path d="M1.97925 0.606445L9.211 6.55129L7.91911 3.02522L1.97925 0.606445Z" fill="#E27625" stroke="#E27625" stroke-width="0.145833" stroke-linecap="round" stroke-linejoin="round"/>
<path d="M16.1831 14.2627L14.2417 17.4982L18.3989 18.7469L19.5898 14.3334L16.1831 14.2627Z" fill="#E27625" stroke="#E27625" stroke-width="0.145833" stroke-linecap="round" stroke-linejoin="round"/>
<path d="M1.20703 14.3334L2.39066 18.7469L6.54064 17.4982L4.60638 14.2627L1.20703 14.3334Z" fill="#E27625" stroke="#E27625" stroke-width="0.145833" stroke-linecap="round" stroke-linejoin="round"/>
<path d="M6.31686 8.7973L5.16211 10.6978L9.27597 10.902L9.13886 6.07227L6.31686 8.7973Z" fill="#E27625" stroke="#E27625" stroke-width="0.145833" stroke-linecap="round" stroke-linejoin="round"/>
<path d="M14.4722 8.79661L11.607 6.0166L11.5132 10.9013L15.627 10.6971L14.4722 8.79661Z" fill="#E27625" stroke="#E27625" stroke-width="0.145833" stroke-linecap="round" stroke-linejoin="round"/>
<path d="M6.54077 17.4986L9.03072 16.1872L6.88722 14.3652L6.54077 17.4986Z" fill="#E27625" stroke="#E27625" stroke-width="0.145833" stroke-linecap="round" stroke-linejoin="round"/>
<path d="M11.7588 16.1872L14.2415 17.4986L13.9023 14.3652L11.7588 16.1872Z" fill="#E27625" stroke="#E27625" stroke-width="0.145833" stroke-linecap="round" stroke-linejoin="round"/>
<path d="M14.2415 17.498L11.7588 16.1865L11.9608 17.9456L11.9392 18.6917L14.2415 17.498Z" fill="#D5BFB2" stroke="#D5BFB2" stroke-width="0.145833" stroke-linecap="round" stroke-linejoin="round"/>
<path d="M6.54077 17.498L8.85033 18.6917L8.83588 17.9456L9.03072 16.1865L6.54077 17.498Z" fill="#D5BFB2" stroke="#D5BFB2" stroke-width="0.145833" stroke-linecap="round" stroke-linejoin="round"/>
<path d="M8.89376 13.2025L6.82959 12.5429L8.28748 11.8125L8.89376 13.2025Z" fill="#233447" stroke="#233447" stroke-width="0.145833" stroke-linecap="round" stroke-linejoin="round"/>
<path d="M11.896 13.2025L12.5023 11.8125L13.9674 12.5429L11.896 13.2025Z" fill="#233447" stroke="#233447" stroke-width="0.145833" stroke-linecap="round" stroke-linejoin="round"/>
<path d="M6.54067 17.4982L6.90156 14.2627L4.60645 14.3334L6.54067 17.4982Z" fill="#CC6228" stroke="#CC6228" stroke-width="0.145833" stroke-linecap="round" stroke-linejoin="round"/>
<path d="M13.8877 14.2627L14.2414 17.4982L16.1828 14.3334L13.8877 14.2627Z" fill="#CC6228" stroke="#CC6228" stroke-width="0.145833" stroke-linecap="round" stroke-linejoin="round"/>
<path d="M15.627 10.6973L11.5132 10.9014L11.8957 13.2025L12.502 11.8124L13.9671 12.5428L15.627 10.6973Z" fill="#CC6228" stroke="#CC6228" stroke-width="0.145833" stroke-linecap="round" stroke-linejoin="round"/>
<path d="M6.8293 12.5428L8.28719 11.8124L8.89347 13.2025L9.27597 10.9014L5.16211 10.6973L6.8293 12.5428Z" fill="#CC6228" stroke="#CC6228" stroke-width="0.145833" stroke-linecap="round" stroke-linejoin="round"/>
<path d="M5.16211 10.6973L6.88706 14.3647L6.82928 12.5428L5.16211 10.6973Z" fill="#E27525" stroke="#E27525" stroke-width="0.145833" stroke-linecap="round" stroke-linejoin="round"/>
<path d="M13.9673 12.5428L13.9023 14.3647L15.6273 10.6973L13.9673 12.5428Z" fill="#E27525" stroke="#E27525" stroke-width="0.145833" stroke-linecap="round" stroke-linejoin="round"/>
<path d="M9.27635 10.9014L8.8938 13.2024L9.37735 15.9195L9.48563 12.3385L9.27635 10.9014Z" fill="#E27525" stroke="#E27525" stroke-width="0.145833" stroke-linecap="round" stroke-linejoin="round"/>
<path d="M11.5136 10.9014L11.3115 12.3307L11.4126 15.9195L11.8961 13.2024L11.5136 10.9014Z" fill="#E27525" stroke="#E27525" stroke-width="0.145833" stroke-linecap="round" stroke-linejoin="round"/>
<path d="M11.8959 13.2027L11.4124 15.9198L11.7588 16.1868L13.9024 14.3649L13.9673 12.543L11.8959 13.2027Z" fill="#F5841F" stroke="#F5841F" stroke-width="0.145833" stroke-linecap="round" stroke-linejoin="round"/>
<path d="M6.82959 12.543L6.88737 14.3649L9.03087 16.1868L9.37731 15.9198L8.89376 13.2027L6.82959 12.543Z" fill="#F5841F" stroke="#F5841F" stroke-width="0.145833" stroke-linecap="round" stroke-linejoin="round"/>
<path d="M11.9393 18.6917L11.9609 17.9457L11.7733 17.7729H9.01633L8.83588 17.9457L8.85033 18.6917L6.54077 17.498L7.34911 18.2205L8.98744 19.4535H11.7949L13.4405 18.2205L14.2416 17.498L11.9393 18.6917Z" fill="#C0AC9D" stroke="#C0AC9D" stroke-width="0.145833" stroke-linecap="round" stroke-linejoin="round"/>
<path d="M11.7589 16.1869L11.4125 15.9199H9.37721L9.03083 16.1869L8.83594 17.946L9.01638 17.7733H11.7734L11.961 17.946L11.7589 16.1869Z" fill="#161616" stroke="#161616" stroke-width="0.145833" stroke-linecap="round" stroke-linejoin="round"/>
<path d="M19.1204 6.88111L19.7339 3.62992L18.8101 0.606445L11.7588 6.30002L14.4725 8.79729L18.3048 10.0146L19.1493 8.93869L18.7812 8.64808L19.3658 8.06699L18.9183 7.69002L19.503 7.20311L19.1204 6.88111Z" fill="#763E1A" stroke="#763E1A" stroke-width="0.145833" stroke-linecap="round" stroke-linejoin="round"/>
<path d="M1.05542 3.62992L1.67611 6.88111L1.27916 7.20311L1.87098 7.69002L1.4235 8.06699L2.0081 8.64808L1.64002 8.93869L2.48445 10.0146L6.31686 8.79729L9.03053 6.30002L1.97924 0.606445L1.05542 3.62992Z" fill="#763E1A" stroke="#763E1A" stroke-width="0.145833" stroke-linecap="round" stroke-linejoin="round"/>
<path d="M18.3049 10.0141L14.4725 8.79688L15.6273 10.6974L13.9023 14.3648L16.183 14.3334H19.5896L18.3049 10.0141Z" fill="#F5841F" stroke="#F5841F" stroke-width="0.145833" stroke-linecap="round" stroke-linejoin="round"/>
<path d="M6.31686 8.79688L2.48449 10.0141L1.20703 14.3334H4.60638L6.88703 14.3648L5.16211 10.6974L6.31686 8.79688Z" fill="#F5841F" stroke="#F5841F" stroke-width="0.145833" stroke-linecap="round" stroke-linejoin="round"/>
<path d="M11.5137 10.9012L11.759 6.29916L12.8705 3.02441H7.91943L9.03088 6.29916L9.27627 10.9012L9.3701 12.3461L9.37732 15.9193H11.4126L11.4198 12.3461L11.5137 10.9012Z" fill="#F5841F" stroke="#F5841F" stroke-width="0.145833" stroke-linecap="round" stroke-linejoin="round"/>
</svg>
