<svg xmlns="http://www.w3.org/2000/svg" width="30" height="30" viewBox="0 0 30 30" fill-rule="evenodd" clip-rule="evenodd">
  <path fill="url(#sushi-gradient)"
    d="M29.642 18.15l-5.905 8.256c-.86 1.204-2.537 1.734-4.673 1.562-2.967-.258-6.909-1.834-10.679-4.543a29.824 29.824 0 01-3.474-2.886C2.914 18.6 1.446 16.581.66 14.781c-.86-1.978-.888-3.726-.028-4.93l5.92-8.257C7.41.39 9.072-.14 11.222.032c2.968.243 6.895 1.834 10.679 4.53 3.77 2.708 6.537 5.933 7.712 8.657.101.234.191.464.27.69.584 1.693.517 3.179-.242 4.24z"></path>
  <path fill="#fff"
    d="M28.696 13.62c-1.132-2.594-3.784-5.647-7.396-8.228-3.598-2.58-7.339-4.113-10.162-4.343-1.72-.143-3.082.173-3.77 1.133l-.03.057c-.644.96-.5 2.322.173 3.87 1.132 2.61 3.784 5.662 7.382 8.242 3.598 2.58 7.339 4.114 10.162 4.344 1.692.128 3.025-.173 3.727-1.076l.044-.071c.688-.946.544-2.351-.13-3.928zm-5.289.058c-.315.444-.96.573-1.748.501-1.42-.114-3.283-.889-5.09-2.178-1.805-1.29-3.138-2.81-3.697-4.114-.316-.731-.401-1.376-.086-1.82.316-.445.96-.574 1.763-.517 1.404.13 3.282.889 5.074 2.18 1.806 1.289 3.14 2.823 3.698 4.127.33.731.416 1.376.086 1.82z"></path>
  <defs>
    <linearGradient id="sushi-gradient" x1="39.25" x2="42.065" y1="-0.338" y2="31.385"
      gradientUnits="userSpaceOnUse">
      <stop stop-color="#27B0E6"></stop>
      <stop offset="0.107" stop-color="#49A1DB"></stop>
      <stop offset="0.288" stop-color="#7D8ACA"></stop>
      <stop offset="0.445" stop-color="#A279BD"></stop>
      <stop offset="0.572" stop-color="#BA6FB6"></stop>
      <stop offset="0.651" stop-color="#C26BB3"></stop>
      <stop offset="0.678" stop-color="#D563AD"></stop>
      <stop offset="0.715" stop-color="#E65BA7"></stop>
      <stop offset="0.76" stop-color="#F156A3"></stop>
      <stop offset="0.824" stop-color="#F853A1"></stop>
      <stop offset="1" stop-color="#FA52A0"></stop>
    </linearGradient>
  </defs>
</svg>