<svg xmlns="http://www.w3.org/2000/svg" fill="none" viewBox="0 0 30 30">
  <g clip-path="url(#tac-light_svg__a)">
    <path fill="#91019B" fill-rule="evenodd" d="M30 15c0 8.284-6.716 15-15 15-8.284 0-15-6.716-15-15C0 6.716 6.716 0 15 0c8.284 0 15 6.716 15 15ZM15.603 25.407v-14.27c0-.346.28-.627.626-.627h7.823c.798 0 1.292.871.882 1.557l-8.167 13.662c-.326.546-1.164.315-1.164-.322Zm-1.206-6.56V4.577c0-.637-.838-.868-1.164-.322L5.066 17.917c-.41.686.084 1.557.882 1.557h7.823a.627.627 0 0 0 .626-.627Z" clip-rule="evenodd"/>
  </g>
  <defs>
    <clipPath id="tac-light_svg__a">
      <path fill="#fff" d="M0 0h30v30H0z"/>
    </clipPath>
  </defs>
</svg>
