<svg width="100%" height="100%" viewBox="0 0 500 500" xmlns="http://www.w3.org/2000/svg">
    <defs>
        <linearGradient id="Gradient" x1="0" x2="0" y1="0" y2="1">
            <stop offset="0%" stop-color="#3701a2" />
            <stop offset="100%" stop-color="black" />
        </linearGradient>
    </defs>
    <rect x='0' y='0' rx="15" ry="15" width="500" height="500" fill="url(#Gradient)" />
    <path fill="#fefffe"
        d="M 287.5,157.5 C 327.987,156.519 343.154,175.519 333,214.5C 322.672,240.836 306.838,263.336 285.5,282C 272.226,293.965 258.226,304.965 243.5,315C 200.833,315.667 158.167,315.667 115.5,315C 159.598,298.53 197.431,273.03 229,238.5C 234.827,230.671 239.827,222.337 244,213.5C 245.821,207.293 246.988,200.96 247.5,194.5C 246.887,186.871 245.387,179.537 243,172.5C 256.619,163.572 271.452,158.572 287.5,157.5 Z" />
    <path fill="#fefffe"
        d="M 345.5,245.5 C 369.289,249.756 377.789,263.423 371,286.5C 365.877,297.076 359.044,306.409 350.5,314.5C 328.5,315.478 306.5,315.311 284.5,314C 303,299.5 319.5,283 334,264.5C 338.347,258.471 342.18,252.138 345.5,245.5 Z" />
</svg>