<svg width="50" height="50" viewBox="0 0 50 50" fill="none" xmlns="http://www.w3.org/2000/svg">
<g clip-path="url(#clip0_25003_18916)">
<path d="M25 0C38.8068 0 50 11.1932 50 25C50 38.8068 38.8068 50 25 50C11.1932 50 0 38.8068 0 25C0 11.1932 11.1932 0 25 0ZM33.6239 35.1909C34.083 33.7807 36.2386 19.7193 36.5034 16.9477C36.5841 16.1091 36.3182 15.5511 35.8 15.3011C35.1716 15 34.242 15.15 33.1614 15.5398C31.6807 16.0739 12.7545 24.1091 11.6614 24.575C10.625 25.0159 9.64432 25.4955 9.64432 26.192C9.64432 26.6818 9.93523 26.9568 10.7352 27.242C11.567 27.5386 13.6636 28.1739 14.9034 28.5159C16.0966 28.8455 17.4523 28.5591 18.2136 28.0864C19.0193 27.5852 28.3284 21.358 28.9955 20.8114C29.6625 20.2659 30.1955 20.9648 29.65 21.5114C29.1045 22.0568 22.7159 28.258 21.8727 29.117C20.8489 30.1591 21.575 31.2398 22.2625 31.6727C23.0455 32.167 28.6818 35.9466 29.5307 36.5534C30.3795 37.1602 31.2398 37.4352 32.0284 37.4352C32.817 37.4341 33.2318 36.3955 33.6239 35.1909Z" fill="currentcolor" fill-opacity="0.5"/>
</g>
<defs>
<clipPath id="clip0_25003_18916">
<rect width="50" height="50" fill="white"/>
</clipPath>
</defs>
</svg>
