<svg width="20" height="18" viewBox="0 0 20 18" fill="none" xmlns="http://www.w3.org/2000/svg">
<path d="M6.2896 17.1251C13.8368 17.1251 17.9648 10.8723 17.9648 5.44986C17.9648 5.27226 17.9648 5.09546 17.9528 4.91946C18.7559 4.33859 19.4491 3.61937 20 2.79546C19.2512 3.12747 18.4567 3.34509 17.6432 3.44106C18.4998 2.9283 19.141 2.12172 19.4472 1.17146C18.6417 1.64947 17.7605 1.98632 16.8416 2.16746C16.2229 1.50961 15.4047 1.074 14.5135 0.928034C13.6223 0.78207 12.7078 0.933893 11.9116 1.36001C11.1154 1.78612 10.4819 2.46278 10.109 3.28525C9.73605 4.10773 9.64462 5.03018 9.8488 5.90986C8.21741 5.82803 6.62146 5.40406 5.16455 4.66547C3.70763 3.92688 2.4223 2.89018 1.392 1.62266C0.867274 2.52599 0.70656 3.59535 0.942583 4.61302C1.17861 5.63068 1.79362 6.52013 2.6624 7.10026C2.00936 7.08113 1.37054 6.90496 0.8 6.58666V6.63866C0.800259 7.58604 1.12821 8.50416 1.72823 9.2373C2.32824 9.97045 3.16338 10.4735 4.092 10.6611C3.4879 10.8258 2.85406 10.8499 2.2392 10.7315C2.50151 11.5467 3.01202 12.2597 3.69937 12.7706C4.38671 13.2815 5.21652 13.5649 6.0728 13.5811C5.22203 14.2498 4.24776 14.7442 3.20573 15.0361C2.16369 15.3279 1.07435 15.4114 0 15.2819C1.87653 16.486 4.05994 17.1248 6.2896 17.1219" fill="currentColor" fill-opacity="0.6"/>
</svg>
