<svg width="100%" height="100%" viewBox="0 0 24 16" fill="none" xmlns="http://www.w3.org/2000/svg">
<path d="M4.91346 3.54099C8.82729 -0.291008 15.173 -0.291008 19.0868 3.54099L19.558 4.00216C19.6044 4.04721 19.6413 4.10114 19.6665 4.16073C19.6918 4.22032 19.7048 4.28437 19.7048 4.34908C19.7048 4.41378 19.6918 4.47783 19.6665 4.53742C19.6413 4.59702 19.6044 4.65094 19.558 4.69599L17.9466 6.27366C17.8992 6.31974 17.8356 6.34552 17.7695 6.34552C17.7033 6.34552 17.6398 6.31974 17.5923 6.27366L16.944 5.63899C14.2136 2.96566 9.78662 2.96566 7.05629 5.63899L6.36212 6.31866C6.31466 6.36474 6.25111 6.39052 6.18496 6.39052C6.1188 6.39052 6.05525 6.36474 6.00779 6.31866L4.39646 4.74099C4.35001 4.69594 4.31309 4.64201 4.28787 4.58242C4.26266 4.52283 4.24967 4.45878 4.24967 4.39408C4.24967 4.32937 4.26266 4.26532 4.28787 4.20573C4.31309 4.14614 4.35001 4.09221 4.39646 4.04716L4.91346 3.54099ZM22.4193 6.80366L23.8533 8.20783C23.8998 8.25287 23.9367 8.30679 23.9619 8.36638C23.9872 8.42597 24.0002 8.49003 24.0002 8.55474C24.0002 8.61946 23.9872 8.68351 23.9619 8.7431C23.9367 8.8027 23.8998 8.85662 23.8533 8.90166L17.387 15.233C17.292 15.3252 17.1649 15.3767 17.0326 15.3767C16.9003 15.3767 16.7732 15.3252 16.6783 15.233L12.0888 10.7395C12.0651 10.7165 12.0333 10.7036 12.0002 10.7036C11.9671 10.7036 11.9354 10.7165 11.9116 10.7395L7.32212 15.2328C7.2272 15.325 7.1001 15.3765 6.96779 15.3765C6.83548 15.3765 6.70838 15.325 6.61346 15.2328L0.146792 8.90183C0.100348 8.85677 0.0634236 8.80285 0.0382083 8.74326C0.0129929 8.68366 0 8.61962 0 8.55491C0 8.4902 0.0129929 8.42615 0.0382083 8.36656C0.0634236 8.30697 0.100348 8.25305 0.146792 8.20799L1.58096 6.80383C1.67588 6.71166 1.80299 6.66011 1.93529 6.66011C2.0676 6.66011 2.1947 6.71166 2.28963 6.80383L6.87929 11.297C6.90302 11.32 6.9348 11.3329 6.96787 11.3329C7.00095 11.3329 7.03273 11.32 7.05646 11.297L11.6458 6.80366C11.7407 6.71149 11.8678 6.65994 12.0001 6.65994C12.1324 6.65994 12.2595 6.71149 12.3545 6.80366L16.944 11.2972C16.9677 11.3202 16.9995 11.3331 17.0325 11.3331C17.0656 11.3331 17.0974 11.3202 17.1211 11.2972L21.7106 6.80383C21.8055 6.71166 21.9327 6.66011 22.065 6.66011C22.1973 6.66011 22.3244 6.71166 22.4193 6.80383V6.80366Z" fill="white"/>
</svg>
