<svg width="20" height="20" viewBox="0 0 20 20" fill="none" xmlns="http://www.w3.org/2000/svg">
    <path
        d="M8.05208 5.98958L13.6823 14.0104H12.1875L6.56771 5.98958H8.05208ZM19 5V15C19 17.2083 17.2083 19 15 19H5C2.79167 19 1 17.2083 1 15V5C1 2.79167 2.79167 1 5 1H15C17.2083 1 19 2.79167 19 5ZM15.5365 15L11.3542 9.01042L14.776 5H13.4635L10.7604 8.16146L8.55208 5H4.70313L8.64063 10.6354L4.90625 15H6.23958L9.23958 11.4844L11.6979 15H15.5365Z"
        fill="white" fill-opacity="0.6" />
</svg>