<svg width="20" height="16" viewBox="0 0 20 16" fill="none" xmlns="http://www.w3.org/2000/svg">
<path d="M19.6016 3.15508C19.4885 2.72959 19.2657 2.34126 18.9554 2.02896C18.6451 1.71665 18.2582 1.49133 17.8334 1.37553C16.2698 0.955078 10.0198 0.955078 10.0198 0.955078C10.0198 0.955078 3.76978 0.955078 2.20614 1.37553C1.78138 1.49133 1.39449 1.71665 1.08418 2.02896C0.773872 2.34126 0.55103 2.72959 0.437957 3.15508C0.0197754 4.72553 0.0197754 8.00053 0.0197754 8.00053C0.0197754 8.00053 0.0197754 11.2755 0.437957 12.846C0.55103 13.2715 0.773872 13.6598 1.08418 13.9721C1.39449 14.2844 1.78138 14.5097 2.20614 14.6255C3.76978 15.046 10.0198 15.046 10.0198 15.046C10.0198 15.046 16.2698 15.046 17.8334 14.6255C18.2582 14.5097 18.6451 14.2844 18.9554 13.9721C19.2657 13.6598 19.4885 13.2715 19.6016 12.846C20.0198 11.2755 20.0198 8.00053 20.0198 8.00053C20.0198 8.00053 20.0198 4.72553 19.6016 3.15508Z" fill="currentColor" fill-opacity="0.6"/>
<path d="M8.59719 10.6198C8.31942 10.7779 7.97449 10.5772 7.97449 10.2577V5.74279C7.97449 5.42322 8.31942 5.22261 8.59719 5.38063L12.5652 7.63807C12.846 7.79784 12.846 8.20262 12.5652 8.36239L8.59719 10.6198Z" fill="#212123"/>
</svg>
