<svg width="50" height="50" viewBox="0 0 50 50" fill="none" xmlns="http://www.w3.org/2000/svg">
<g clip-path="url(#clip0_25003_18914)">
<path d="M47.424 9.82012C49.7021 12.1639 50 15.8878 50 25.0003C50 34.1128 49.7021 37.8368 47.424 40.1805C45.1458 42.5232 42.7729 42.7087 25 42.7087C7.22708 42.7087 4.85417 42.5232 2.57604 40.1805C0.297916 37.8368 0 34.1128 0 25.0003C0 15.8878 0.297916 12.1639 2.57604 9.82012C4.85417 7.47637 7.22708 7.29199 25 7.29199C42.7729 7.29199 45.1458 7.47741 47.424 9.82012ZM20.7813 32.7264L33.4333 25.3951L20.7813 18.1785V32.7264Z" fill="currentcolor" fill-opacity="0.5"/>
</g>
<defs>
<clipPath id="clip0_25003_18914">
<rect width="50" height="50" fill="white"/>
</clipPath>
</defs>
</svg>
