<svg width="55" height="44" viewBox="0 0 55 44" fill="none" xmlns="http://www.w3.org/2000/svg">
<rect width="55" height="44" rx="6" fill="black"/>
<rect x="8" y="34" width="0.685714" height="39" rx="0.342857" transform="rotate(-90 8 34)" fill="#212123"/>
<path d="M19.6562 12.0573C19.6562 11.6786 19.9633 11.3716 20.342 11.3716C20.7207 11.3716 21.0277 11.6786 21.0277 12.0573V34.0002H19.6562V12.0573Z" fill="#212123"/>
<circle cx="20.3421" cy="11.3714" r="1.37143" fill="#212123"/>
<path d="M34.0566 12.0573C34.0566 11.6786 34.3636 11.3716 34.7424 11.3716C35.1211 11.3716 35.4281 11.6786 35.4281 12.0573V34.0002H34.0566V12.0573Z" fill="#212123"/>
<circle cx="34.7425" cy="11.3714" r="1.37143" fill="#212123"/>
<path d="M17.7148 25.7717C17.7148 25.3929 17.4078 25.0859 17.0291 25.0859H15.6577C15.279 25.0859 14.972 25.3929 14.972 25.7717V33.3145H17.7148V25.7717Z" fill="var(--buy)" fill-opacity="0.5"/>
<path d="M21.8291 25.7717C21.8291 25.3929 21.5221 25.0859 21.1434 25.0859H19.772C19.3932 25.0859 19.0862 25.3929 19.0862 25.7717V33.3145H21.8291V25.7717Z" fill="var(--buy)" fill-opacity="0.5"/>
<path d="M25.9434 25.7717C25.9434 25.3929 25.6364 25.0859 25.2576 25.0859H23.8862C23.5075 25.0859 23.2005 25.3929 23.2005 25.7717V33.3145H25.9434V25.7717Z" fill="var(--buy)" fill-opacity="0.5"/>
<path d="M34.1719 25.7717C34.1719 25.3929 33.8649 25.0859 33.4862 25.0859H32.1147C31.736 25.0859 31.429 25.3929 31.429 25.7717V33.3145H34.1719V25.7717Z" fill="var(--buy)" fill-opacity="0.5"/>
<path d="M30.0576 25.7717C30.0576 25.3929 29.7506 25.0859 29.3719 25.0859H28.0005C27.6218 25.0859 27.3148 25.3929 27.3148 25.7717V33.3145H30.0576V25.7717Z" fill="var(--buy)" fill-opacity="0.5"/>
<path d="M38.2861 25.7717C38.2861 25.3929 37.9791 25.0859 37.6004 25.0859H36.229C35.8503 25.0859 35.5433 25.3929 35.5433 25.7717V33.3145H38.2861V25.7717Z" fill="var(--buy)" fill-opacity="0.5"/>
<line x1="40.0001" y1="13.0855" x2="40.0001" y2="32.9712" stroke="white" stroke-width="0.685714" stroke-linecap="round" stroke-dasharray="2.74 2.74"/>
<path d="M12.1143 12.0573C12.1143 11.6786 12.4213 11.3716 12.8 11.3716C13.1787 11.3716 13.4857 11.6786 13.4857 12.0573V33.3144H12.1143V12.0573Z" fill="var(--buy)" fill-opacity="0.5"/>
<circle cx="12.8001" cy="11.3714" r="1.37143" fill="var(--buy)" fill-opacity="0.5"/>
<path d="M41.5996 12.0573C41.5996 11.6786 41.9066 11.3716 42.2853 11.3716C42.664 11.3716 42.971 11.6786 42.971 12.0573V33.3144H41.5996V12.0573Z" fill="var(--buy)" fill-opacity="0.5"/>
<circle cx="42.2855" cy="11.3714" r="1.37143" fill="var(--buy)" fill-opacity="0.5"/>
</svg>
