<svg width="55" height="44" viewBox="0 0 55 44" fill="none" xmlns="http://www.w3.org/2000/svg">
<rect width="55" height="44" rx="6" fill="black"/>
<rect x="8" y="34" width="0.685714" height="39" rx="0.342857" transform="rotate(-90 8 34)" fill="#212123"/>
<path d="M18.9707 12.0573C18.9707 11.6786 19.2777 11.3716 19.6564 11.3716C20.0351 11.3716 20.3421 11.6786 20.3421 12.0573V34.0002H18.9707V12.0573Z" fill="#212123"/>
<circle cx="19.6566" cy="11.3714" r="1.37143" fill="#212123"/>
<path d="M34.7422 12.0573C34.7422 11.6786 35.0492 11.3716 35.4279 11.3716C35.8066 11.3716 36.1136 11.6786 36.1136 12.0573V34.0002H34.7422V12.0573Z" fill="#212123"/>
<circle cx="35.4281" cy="11.3714" r="1.37143" fill="#212123"/>
<path d="M17.4863 17.5426C17.4863 17.1639 17.1793 16.8569 16.8006 16.8569H15.4292C15.0505 16.8569 14.7435 17.1639 14.7435 17.5426V33.3141H17.4863V17.5426Z" fill="var(--buy)" fill-opacity="0.5"/>
<path d="M21.5996 17.5426C21.5996 17.1639 21.2926 16.8569 20.9139 16.8569H19.5425C19.1638 16.8569 18.8568 17.1639 18.8568 17.5426V33.3141H21.5996V17.5426Z" fill="var(--buy)" fill-opacity="0.5"/>
<path d="M25.7139 17.5426C25.7139 17.1639 25.4069 16.8569 25.0282 16.8569H23.6567C23.278 16.8569 22.971 17.1639 22.971 17.5426V33.3141H25.7139V17.5426Z" fill="var(--buy)" fill-opacity="0.5"/>
<path d="M36 17.5426C36 17.1639 35.693 16.8569 35.3143 16.8569H33.9429C33.5641 16.8569 33.2571 17.1639 33.2571 17.5426V33.3141H36V17.5426Z" fill="white" fill-opacity="0.2"/>
<path d="M31.8857 17.5426C31.8857 17.1639 31.5787 16.8569 31.2 16.8569H29.8286C29.4499 16.8569 29.1429 17.1639 29.1429 17.5426V33.3141H31.8857V17.5426Z" fill="white" fill-opacity="0.2"/>
<path d="M40.1143 17.5426C40.1143 17.1639 39.8073 16.8569 39.4285 16.8569H38.0571C37.6784 16.8569 37.3714 17.1639 37.3714 17.5426V33.3141H40.1143V17.5426Z" fill="white" fill-opacity="0.2"/>
<line x1="27.4288" y1="13.0855" x2="27.4288" y2="32.9712" stroke="white" stroke-width="0.685714" stroke-linecap="round" stroke-dasharray="2.74 2.74"/>
<path d="M12.1143 12.0573C12.1143 11.6786 12.4213 11.3716 12.8 11.3716C13.1787 11.3716 13.4857 11.6786 13.4857 12.0573V33.3144H12.1143V12.0573Z" fill="var(--buy)" fill-opacity="0.5"/>
<circle cx="12.8001" cy="11.3714" r="1.37143" fill="var(--buy)" fill-opacity="0.5"/>
<path d="M41.4854 12.0573C41.4854 11.6786 41.7924 11.3716 42.1711 11.3716C42.5498 11.3716 42.8568 11.6786 42.8568 12.0573V33.3144H41.4854V12.0573Z" fill="var(--buy)" fill-opacity="0.5"/>
<circle cx="42.1712" cy="11.3714" r="1.37143" fill="var(--buy)" fill-opacity="0.5"/>
</svg>
