<svg xmlns="http://www.w3.org/2000/svg" version="1.1" viewBox="0 0 200 200">
<path transform="matrix(1,0,0,-1,-.001343,200)" d="M100 0C155.22847 0 200 44.77153 200 100 200 155.22847 155.22847 200 100 200 44.771528 200 0 155.22847 0 100 0 44.77153 44.771528 0 100 0Z" fill="#008799"/><path transform="matrix(1,0,0,-1,26.823975,161.97217)" d="M53.947999 13.427872C31.651999 13.427872 13.428 31.64788 13.428 53.94788 13.428 69.77188 22.539999 83.67988 35.964 90.15188V104.77588C15.103998 97.34388 0 77.44388 0 53.94788 0 24.215882 24.215998-.000122 53.947999-.000122 77.444-.000122 97.344 15.103874 104.776 35.963876H90.152C83.68 22.535874 69.772 13.427872 53.947999 13.427872Z" fill="#fcfbff"/><path transform="matrix(1,0,0,-1,126.54431,110.877689)" d="M26.815434 15.209091V31.620236C32.418264 30.217858 36.82239 28.418145 36.82239 23.613339 36.82239 19.20921 33.01928 16.00711 26.815434 15.209091ZM19.212546-.000015H27.21945V6.203835C39.02612 7.606209 46.632337 14.411072 46.632337 23.616669 46.632337 36.42504 36.425046 39.22645 26.818766 41.02951V58.04167C31.423235 57.64099 36.42504 56.241956 41.02951 54.038225V64.04518C36.62538 65.647899 31.823918 66.64625 27.21945 66.84659V72.8501H19.212546V66.84659C7.005195 65.444217 0 58.639348 0 50.034769 0 37.02606 10.006952 34.024309 19.613228 32.221254V15.209091C13.810063 16.010453 7.606215 18.41119 .400673 22.214299V11.606319C6.604517 8.604568 13.008701 6.601173 19.212546 6.203835V-.000015ZM19.613228 41.82753C14.010402 43.02957 9.806614 45.02962 9.806614 50.034769 9.806614 54.639238 13.409384 57.44065 19.613228 58.04167V41.83087 41.82753Z" fill="#fcfbff"/><path transform="matrix(1,0,0,-1,68.124759,104.1355)" d="M9.508037-.000069H0L21.364096 59.367189H31.71278L53.076879-.000069H43.56884L26.784834 48.583684H26.32103L9.508037-.000069ZM11.102372 23.248242H41.945516V15.711384H11.102372V23.248242Z" fill="#fcfbff"/>
</svg>